<?xml version="1.0" encoding="UTF-8"?>
<svg xmlns="http://www.w3.org/2000/svg" xmlns:xlink="http://www.w3.org/1999/xlink" width="5717" height="1431" viewBox="0 0 5717 1431">
<path fill="none" stroke-width="0.04" stroke-linecap="butt" stroke-linejoin="miter" stroke="rgb(0%, 0%, 0%)" stroke-opacity="1" stroke-miterlimit="10" d="M -10.000006 0.231264 C -9.168904 0.19607 -8.337802 0.160862 -7.5067 0.125653 " transform="matrix(269.977573, 0, 0, -269.933167, 2858.5, 715.5)"/>
<path fill="none" stroke-width="0.04" stroke-linecap="butt" stroke-linejoin="miter" stroke="rgb(0%, 0%, 0%)" stroke-opacity="1" stroke-miterlimit="10" d="M -7.5067 0.125653 C -6.675598 0.0354833 -5.844496 -0.054701 -5.013394 -0.144871 " transform="matrix(269.977573, 0, 0, -269.933167, 2858.5, 715.5)"/>
<path fill="none" stroke-width="0.04" stroke-linecap="butt" stroke-linejoin="miter" stroke="rgb(0%, 0%, 0%)" stroke-opacity="1" stroke-miterlimit="10" d="M -5.013394 -0.144871 C -4.179311 -0.231322 -3.345243 -0.317787 -2.511161 -0.404238 " transform="matrix(269.977573, 0, 0, -269.933167, 2858.5, 715.5)"/>
<path fill="none" stroke-width="0.04" stroke-linecap="butt" stroke-linejoin="miter" stroke="rgb(0%, 0%, 0%)" stroke-opacity="1" stroke-miterlimit="10" d="M -2.511161 -0.404238 C -1.674112 -0.478041 -0.837049 -0.551844 0 -0.625661 " transform="matrix(269.977573, 0, 0, -269.933167, 2858.5, 715.5)"/>
<path fill="none" stroke-width="0.04" stroke-linecap="butt" stroke-linejoin="miter" stroke="rgb(0%, 0%, 0%)" stroke-opacity="1" stroke-miterlimit="10" d="M 0 -0.625661 C 0.837049 -0.551844 1.674112 -0.478041 2.511161 -0.404238 " transform="matrix(269.977573, 0, 0, -269.933167, 2858.5, 715.5)"/>
<path fill="none" stroke-width="0.04" stroke-linecap="butt" stroke-linejoin="miter" stroke="rgb(0%, 0%, 0%)" stroke-opacity="1" stroke-miterlimit="10" d="M 2.511161 -0.404238 C 3.345243 -0.317787 4.179311 -0.231322 5.013394 -0.144871 " transform="matrix(269.977573, 0, 0, -269.933167, 2858.5, 715.5)"/>
<path fill="none" stroke-width="0.04" stroke-linecap="butt" stroke-linejoin="miter" stroke="rgb(0%, 0%, 0%)" stroke-opacity="1" stroke-miterlimit="10" d="M 5.013394 -0.144871 C 5.844496 -0.054701 6.675598 0.0354833 7.5067 0.125653 " transform="matrix(269.977573, 0, 0, -269.933167, 2858.5, 715.5)"/>
<path fill="none" stroke-width="0.04" stroke-linecap="butt" stroke-linejoin="miter" stroke="rgb(0%, 0%, 0%)" stroke-opacity="1" stroke-miterlimit="10" d="M 7.5067 0.125653 C 8.337802 0.160862 9.168904 0.19607 10.000006 0.231264 " transform="matrix(269.977573, 0, 0, -269.933167, 2858.5, 715.5)"/>
<path fill="none" stroke-width="0.04" stroke-linecap="butt" stroke-linejoin="miter" stroke="rgb(0%, 0%, 0%)" stroke-opacity="1" stroke-miterlimit="10" d="M 10.000006 0.231264 C 9.13988 1.029393 8.279768 1.827521 7.419641 2.62565 " transform="matrix(269.977573, 0, 0, -269.933167, 2858.5, 715.5)"/>
<path fill="none" stroke-width="0.04" stroke-linecap="butt" stroke-linejoin="miter" stroke="rgb(0%, 0%, 0%)" stroke-opacity="1" stroke-miterlimit="10" d="M 7.419641 2.62565 C 6.592258 2.532499 5.764874 2.439348 4.937505 2.346197 " transform="matrix(269.977573, 0, 0, -269.933167, 2858.5, 715.5)"/>
<path fill="none" stroke-width="0.04" stroke-linecap="butt" stroke-linejoin="miter" stroke="rgb(0%, 0%, 0%)" stroke-opacity="1" stroke-miterlimit="10" d="M 4.937505 2.346197 C 4.113102 2.259746 3.288685 2.173295 2.464282 2.08683 " transform="matrix(269.977573, 0, 0, -269.933167, 2858.5, 715.5)"/>
<path fill="none" stroke-width="0.04" stroke-linecap="butt" stroke-linejoin="miter" stroke="rgb(0%, 0%, 0%)" stroke-opacity="1" stroke-miterlimit="10" d="M 2.464282 2.08683 C 1.642859 2.016008 0.821422 1.945172 0 1.87435 " transform="matrix(269.977573, 0, 0, -269.933167, 2858.5, 715.5)"/>
<path fill="none" stroke-width="0.04" stroke-linecap="butt" stroke-linejoin="miter" stroke="rgb(0%, 0%, 0%)" stroke-opacity="1" stroke-miterlimit="10" d="M 0 1.87435 C -0.821422 1.945172 -1.642859 2.016008 -2.464282 2.08683 " transform="matrix(269.977573, 0, 0, -269.933167, 2858.5, 715.5)"/>
<path fill="none" stroke-width="0.04" stroke-linecap="butt" stroke-linejoin="miter" stroke="rgb(0%, 0%, 0%)" stroke-opacity="1" stroke-miterlimit="10" d="M -2.464282 2.08683 C -3.288685 2.173295 -4.113102 2.259746 -4.937505 2.346197 " transform="matrix(269.977573, 0, 0, -269.933167, 2858.5, 715.5)"/>
<path fill="none" stroke-width="0.04" stroke-linecap="butt" stroke-linejoin="miter" stroke="rgb(0%, 0%, 0%)" stroke-opacity="1" stroke-miterlimit="10" d="M -4.937505 2.346197 C -5.764874 2.439348 -6.592258 2.532499 -7.419641 2.62565 " transform="matrix(269.977573, 0, 0, -269.933167, 2858.5, 715.5)"/>
<path fill="none" stroke-width="0.04" stroke-linecap="butt" stroke-linejoin="miter" stroke="rgb(0%, 0%, 0%)" stroke-opacity="1" stroke-miterlimit="10" d="M -7.419641 2.62565 C -8.279768 1.827521 -9.13988 1.029393 -10.000006 0.231264 " transform="matrix(269.977573, 0, 0, -269.933167, 2858.5, 715.5)"/>
<path fill="none" stroke-width="0.04" stroke-linecap="butt" stroke-linejoin="miter" stroke="rgb(0%, 0%, 0%)" stroke-opacity="1" stroke-miterlimit="10" d="M -7.5067 0.125653 C -7.477676 0.95899 -7.448666 1.792327 -7.419641 2.62565 " transform="matrix(269.977573, 0, 0, -269.933167, 2858.5, 715.5)"/>
<path fill="none" stroke-width="0.04" stroke-linecap="butt" stroke-linejoin="miter" stroke="rgb(0%, 0%, 0%)" stroke-opacity="1" stroke-miterlimit="10" d="M -5.013394 -0.144871 C -4.988102 0.685485 -4.962796 1.515841 -4.937505 2.346197 " transform="matrix(269.977573, 0, 0, -269.933167, 2858.5, 715.5)"/>
<path fill="none" stroke-width="0.04" stroke-linecap="butt" stroke-linejoin="miter" stroke="rgb(0%, 0%, 0%)" stroke-opacity="1" stroke-miterlimit="10" d="M -2.511161 -0.404238 C -2.495534 0.426118 -2.479908 1.256474 -2.464282 2.08683 " transform="matrix(269.977573, 0, 0, -269.933167, 2858.5, 715.5)"/>
<path fill="none" stroke-width="0.04" stroke-linecap="butt" stroke-linejoin="miter" stroke="rgb(0%, 0%, 0%)" stroke-opacity="1" stroke-miterlimit="10" d="M 0 -0.625661 C 0 0.207676 0 1.041013 0 1.87435 " transform="matrix(269.977573, 0, 0, -269.933167, 2858.5, 715.5)"/>
<path fill="none" stroke-width="0.04" stroke-linecap="butt" stroke-linejoin="miter" stroke="rgb(0%, 0%, 0%)" stroke-opacity="1" stroke-miterlimit="10" d="M 2.511161 -0.404238 C 2.495534 0.426118 2.479908 1.256474 2.464282 2.08683 " transform="matrix(269.977573, 0, 0, -269.933167, 2858.5, 715.5)"/>
<path fill="none" stroke-width="0.04" stroke-linecap="butt" stroke-linejoin="miter" stroke="rgb(0%, 0%, 0%)" stroke-opacity="1" stroke-miterlimit="10" d="M 5.013394 -0.144871 C 4.988102 0.685485 4.962796 1.515841 4.937505 2.346197 " transform="matrix(269.977573, 0, 0, -269.933167, 2858.5, 715.5)"/>
<path fill="none" stroke-width="0.04" stroke-linecap="butt" stroke-linejoin="miter" stroke="rgb(0%, 0%, 0%)" stroke-opacity="1" stroke-miterlimit="10" d="M 7.5067 0.125653 C 7.477676 0.95899 7.448666 1.792327 7.419641 2.62565 " transform="matrix(269.977573, 0, 0, -269.933167, 2858.5, 715.5)"/>
<path fill="none" stroke-width="0.04" stroke-linecap="butt" stroke-linejoin="miter" stroke="rgb(0%, 0%, 0%)" stroke-opacity="1" stroke-miterlimit="10" d="M -5.013394 -0.144871 C -5.815471 0.778636 -6.617564 1.702143 -7.419641 2.62565 " transform="matrix(269.977573, 0, 0, -269.933167, 2858.5, 715.5)"/>
<path fill="none" stroke-width="0.04" stroke-linecap="butt" stroke-linejoin="miter" stroke="rgb(0%, 0%, 0%)" stroke-opacity="1" stroke-miterlimit="10" d="M -2.511161 -0.404238 C -3.319937 0.512569 -4.128714 1.42939 -4.937505 2.346197 " transform="matrix(269.977573, 0, 0, -269.933167, 2858.5, 715.5)"/>
<path fill="none" stroke-width="0.04" stroke-linecap="butt" stroke-linejoin="miter" stroke="rgb(0%, 0%, 0%)" stroke-opacity="1" stroke-miterlimit="10" d="M 0 -0.625661 C -0.821422 0.278512 -1.642859 1.182671 -2.464282 2.08683 " transform="matrix(269.977573, 0, 0, -269.933167, 2858.5, 715.5)"/>
<path fill="none" stroke-width="0.04" stroke-linecap="butt" stroke-linejoin="miter" stroke="rgb(0%, 0%, 0%)" stroke-opacity="1" stroke-miterlimit="10" d="M 0 -0.625661 C 0.821422 0.278512 1.642859 1.182671 2.464282 2.08683 " transform="matrix(269.977573, 0, 0, -269.933167, 2858.5, 715.5)"/>
<path fill="none" stroke-width="0.04" stroke-linecap="butt" stroke-linejoin="miter" stroke="rgb(0%, 0%, 0%)" stroke-opacity="1" stroke-miterlimit="10" d="M 2.511161 -0.404238 C 3.319937 0.512569 4.128714 1.42939 4.937505 2.346197 " transform="matrix(269.977573, 0, 0, -269.933167, 2858.5, 715.5)"/>
<path fill="none" stroke-width="0.04" stroke-linecap="butt" stroke-linejoin="miter" stroke="rgb(0%, 0%, 0%)" stroke-opacity="1" stroke-miterlimit="10" d="M 5.013394 -0.144871 C 5.815471 0.778636 6.617564 1.702143 7.419641 2.62565 " transform="matrix(269.977573, 0, 0, -269.933167, 2858.5, 715.5)"/>
<path fill="none" stroke-width="0.04" stroke-linecap="butt" stroke-linejoin="miter" stroke="rgb(26.666667%, 26.666667%, 26.666667%)" stroke-opacity="1" stroke-miterlimit="10" d="M -10.000006 0.231264 C -10.125089 0.0146014 -10.250186 -0.202061 -10.375283 -0.418738 C -10.125089 -0.418738 -9.874909 -0.418738 -9.624729 -0.418738 C -9.749812 -0.202061 -9.874909 0.0146014 -10.000006 0.231264 Z M -10.000006 0.231264 " transform="matrix(269.977573, 0, 0, -269.933167, 2858.5, 715.5)"/>
<path fill="none" stroke-width="0.04" stroke-linecap="butt" stroke-linejoin="miter" stroke="rgb(26.666667%, 26.666667%, 26.666667%)" stroke-opacity="1" stroke-miterlimit="10" d="M -9.437083 -0.418738 C -9.81236 -0.418738 -10.187637 -0.418738 -10.562914 -0.418738 " transform="matrix(269.977573, 0, 0, -269.933167, 2858.5, 715.5)"/>
<path fill="none" stroke-width="0.04" stroke-linecap="butt" stroke-linejoin="miter" stroke="rgb(26.666667%, 26.666667%, 26.666667%)" stroke-opacity="1" stroke-miterlimit="10" d="M 10.000006 0.231264 C 9.874909 0.0146014 9.749812 -0.202061 9.624729 -0.418738 C 9.874909 -0.418738 10.125089 -0.418738 10.375283 -0.418738 C 10.250186 -0.202061 10.125089 0.0146014 10.000006 0.231264 Z M 10.000006 0.231264 " transform="matrix(269.977573, 0, 0, -269.933167, 2858.5, 715.5)"/>
<path fill="none" stroke-width="0.04" stroke-linecap="butt" stroke-linejoin="miter" stroke="rgb(26.666667%, 26.666667%, 26.666667%)" stroke-opacity="1" stroke-miterlimit="10" d="M 10.562914 -0.418738 C 10.187637 -0.418738 9.81236 -0.418738 9.437083 -0.418738 " transform="matrix(269.977573, 0, 0, -269.933167, 2858.5, 715.5)"/>
<path fill="none" stroke-width="0.08" stroke-linecap="butt" stroke-linejoin="miter" stroke="rgb(98.823529%, 38.431373%, 33.333333%)" stroke-opacity="1" stroke-miterlimit="10" d="M 0 -0.625661 C 0 -1.167317 0 -1.708988 0 -2.250658 " transform="matrix(269.977573, 0, 0, -269.933167, 2858.5, 715.5)"/>
<path fill-rule="nonzero" fill="rgb(98.823529%, 38.431373%, 33.333333%)" fill-opacity="1" d="M 2858.5 1424.25 C 2873.125 1390.511719 2887.746094 1356.769531 2902.371094 1323.027344 C 2873.125 1323.027344 2843.875 1323.027344 2814.628906 1323.027344 C 2829.253906 1356.769531 2843.875 1390.511719 2858.5 1424.25 Z M 2858.5 1424.25 "/>
<path fill-rule="nonzero" fill="rgb(0%, 0%, 50.196078%)" fill-opacity="1" d="M 2989.039062 691.574219 C 2989.039062 691.574219 2905.96875 614.453125 2858.5 614.453125 C 2822.898438 614.453125 2787.296875 614.453125 2751.695312 614.453125 C 2662.691406 614.453125 2567.753906 691.574219 2567.753906 715.304688 C 2567.753906 750.902344 2567.753906 786.5 2567.753906 822.097656 C 2580.625 825.773438 2593.496094 829.449219 2606.363281 833.121094 C 2606.816406 792.554688 2639.816406 759.800781 2680.492188 759.800781 C 2721.453125 759.800781 2754.664062 793.003906 2754.664062 833.957031 C 2823.886719 833.957031 2893.113281 833.957031 2962.335938 833.957031 C 2962.335938 793.003906 2995.546875 759.800781 3036.507812 759.800781 C 3077.183594 759.800781 3110.179688 792.554688 3110.636719 833.121094 C 3123.503906 829.445312 3136.375 825.769531 3149.246094 822.09375 C 3149.246094 800.339844 3149.246094 778.585938 3149.246094 756.835938 C 3149.246094 733.105469 3089.910156 703.441406 2989.039062 691.574219 Z M 2781.363281 697.097656 C 2733.007812 695.433594 2684.648438 693.765625 2636.292969 692.097656 C 2666.09375 671.480469 2710.253906 650.046875 2751.695312 650.046875 C 2761.585938 650.046875 2771.472656 650.046875 2781.363281 650.046875 C 2781.363281 665.730469 2781.363281 681.414062 2781.363281 697.097656 Z M 2816.964844 698.328125 C 2816.964844 682.234375 2816.964844 666.140625 2816.964844 650.046875 C 2830.808594 650.046875 2844.65625 650.046875 2858.5 650.046875 C 2875.429688 650.046875 2914.808594 675.253906 2947.882812 702.84375 C 2904.242188 701.335938 2860.605469 699.832031 2816.964844 698.328125 Z M 2816.964844 698.328125 "/>
<path fill-rule="nonzero" fill="rgb(66.27451%, 66.27451%, 66.27451%)" fill-opacity="1" d="M 2730.929688 833.957031 C 2730.929688 847.332031 2725.613281 860.160156 2716.15625 869.617188 C 2706.699219 879.074219 2693.867188 884.386719 2680.492188 884.386719 C 2667.117188 884.386719 2654.289062 879.074219 2644.828125 869.617188 C 2635.371094 860.160156 2630.058594 847.332031 2630.058594 833.957031 C 2630.058594 820.585938 2635.371094 807.757812 2644.828125 798.300781 C 2654.289062 788.84375 2667.117188 783.53125 2680.492188 783.53125 C 2693.867188 783.53125 2706.699219 788.84375 2716.15625 798.300781 C 2725.613281 807.757812 2730.929688 820.585938 2730.929688 833.957031 Z M 2730.929688 833.957031 "/>
<path fill-rule="nonzero" fill="rgb(66.27451%, 66.27451%, 66.27451%)" fill-opacity="1" d="M 3086.941406 833.957031 C 3086.941406 847.332031 3081.628906 860.160156 3072.171875 869.617188 C 3062.710938 879.074219 3049.882812 884.386719 3036.507812 884.386719 C 3023.132812 884.386719 3010.300781 879.074219 3000.84375 869.617188 C 2991.386719 860.160156 2986.070312 847.332031 2986.070312 833.957031 C 2986.070312 820.585938 2991.386719 807.757812 3000.84375 798.300781 C 3010.300781 788.84375 3023.132812 783.53125 3036.507812 783.53125 C 3049.882812 783.53125 3062.710938 788.84375 3072.171875 798.300781 C 3081.628906 807.757812 3086.941406 820.585938 3086.941406 833.957031 Z M 3086.941406 833.957031 "/>
</svg>
