<?xml version="1.0" encoding="UTF-8"?>
<svg xmlns="http://www.w3.org/2000/svg" xmlns:xlink="http://www.w3.org/1999/xlink" width="5717" height="1388" viewBox="0 0 5717 1388">
<path fill="none" stroke-width="0.04" stroke-linecap="butt" stroke-linejoin="miter" stroke="rgb(0%, 0%, 0%)" stroke-opacity="1" stroke-miterlimit="10" d="M -10.000006 0.257965 C -9.171132 0.187557 -8.342258 0.117149 -7.513399 0.0467408 " transform="matrix(269.977573, 0, 0, -269.85583, 2858.5, 694)"/>
<path fill="none" stroke-width="0.04" stroke-linecap="butt" stroke-linejoin="miter" stroke="rgb(0%, 0%, 0%)" stroke-opacity="1" stroke-miterlimit="10" d="M -7.513399 0.0467408 C -6.684525 -0.0325984 -5.855651 -0.111923 -5.026792 -0.191262 " transform="matrix(269.977573, 0, 0, -269.85583, 2858.5, 694)"/>
<path fill="none" stroke-width="0.04" stroke-linecap="butt" stroke-linejoin="miter" stroke="rgb(0%, 0%, 0%)" stroke-opacity="1" stroke-miterlimit="10" d="M -5.026792 -0.191262 C -4.191971 -0.263161 -3.357136 -0.33506 -2.522316 -0.406945 " transform="matrix(269.977573, 0, 0, -269.85583, 2858.5, 694)"/>
<path fill="none" stroke-width="0.04" stroke-linecap="butt" stroke-linejoin="miter" stroke="rgb(0%, 0%, 0%)" stroke-opacity="1" stroke-miterlimit="10" d="M -2.522316 -0.406945 C -1.681549 -0.453555 -0.840767 -0.500151 0 -0.546747 " transform="matrix(269.977573, 0, 0, -269.85583, 2858.5, 694)"/>
<path fill="none" stroke-width="0.04" stroke-linecap="butt" stroke-linejoin="miter" stroke="rgb(0%, 0%, 0%)" stroke-opacity="1" stroke-miterlimit="10" d="M 0 -0.546747 C 0.840767 -0.500151 1.681549 -0.453555 2.522316 -0.406945 " transform="matrix(269.977573, 0, 0, -269.85583, 2858.5, 694)"/>
<path fill="none" stroke-width="0.04" stroke-linecap="butt" stroke-linejoin="miter" stroke="rgb(0%, 0%, 0%)" stroke-opacity="1" stroke-miterlimit="10" d="M 2.522316 -0.406945 C 3.357136 -0.33506 4.191971 -0.263161 5.026792 -0.191262 " transform="matrix(269.977573, 0, 0, -269.85583, 2858.5, 694)"/>
<path fill="none" stroke-width="0.04" stroke-linecap="butt" stroke-linejoin="miter" stroke="rgb(0%, 0%, 0%)" stroke-opacity="1" stroke-miterlimit="10" d="M 5.026792 -0.191262 C 5.855651 -0.111923 6.684525 -0.0325984 7.513399 0.0467408 " transform="matrix(269.977573, 0, 0, -269.85583, 2858.5, 694)"/>
<path fill="none" stroke-width="0.04" stroke-linecap="butt" stroke-linejoin="miter" stroke="rgb(0%, 0%, 0%)" stroke-opacity="1" stroke-miterlimit="10" d="M 7.513399 0.0467408 C 8.342258 0.117149 9.171132 0.187557 10.000006 0.257965 " transform="matrix(269.977573, 0, 0, -269.85583, 2858.5, 694)"/>
<path fill="none" stroke-width="0.04" stroke-linecap="butt" stroke-linejoin="miter" stroke="rgb(0%, 0%, 0%)" stroke-opacity="1" stroke-miterlimit="10" d="M 10.000006 0.257965 C 9.113098 1.020887 8.22619 1.783823 7.339282 2.546745 " transform="matrix(269.977573, 0, 0, -269.85583, 2858.5, 694)"/>
<path fill="none" stroke-width="0.04" stroke-linecap="butt" stroke-linejoin="miter" stroke="rgb(0%, 0%, 0%)" stroke-opacity="1" stroke-miterlimit="10" d="M 7.339282 2.546745 C 6.517859 2.461456 5.696422 2.376168 4.875 2.290879 " transform="matrix(269.977573, 0, 0, -269.85583, 2858.5, 694)"/>
<path fill="none" stroke-width="0.04" stroke-linecap="butt" stroke-linejoin="miter" stroke="rgb(0%, 0%, 0%)" stroke-opacity="1" stroke-miterlimit="10" d="M 4.875 2.290879 C 4.059524 2.21898 3.244048 2.147081 2.428573 2.075197 " transform="matrix(269.977573, 0, 0, -269.85583, 2858.5, 694)"/>
<path fill="none" stroke-width="0.04" stroke-linecap="butt" stroke-linejoin="miter" stroke="rgb(0%, 0%, 0%)" stroke-opacity="1" stroke-miterlimit="10" d="M 2.428573 2.075197 C 1.619044 2.03455 0.809529 1.993903 0 1.953257 " transform="matrix(269.977573, 0, 0, -269.85583, 2858.5, 694)"/>
<path fill="none" stroke-width="0.04" stroke-linecap="butt" stroke-linejoin="miter" stroke="rgb(0%, 0%, 0%)" stroke-opacity="1" stroke-miterlimit="10" d="M 0 1.953257 C -0.809529 1.993903 -1.619044 2.03455 -2.428573 2.075197 " transform="matrix(269.977573, 0, 0, -269.85583, 2858.5, 694)"/>
<path fill="none" stroke-width="0.04" stroke-linecap="butt" stroke-linejoin="miter" stroke="rgb(0%, 0%, 0%)" stroke-opacity="1" stroke-miterlimit="10" d="M -2.428573 2.075197 C -3.244048 2.147081 -4.059524 2.21898 -4.875 2.290879 " transform="matrix(269.977573, 0, 0, -269.85583, 2858.5, 694)"/>
<path fill="none" stroke-width="0.04" stroke-linecap="butt" stroke-linejoin="miter" stroke="rgb(0%, 0%, 0%)" stroke-opacity="1" stroke-miterlimit="10" d="M -4.875 2.290879 C -5.696422 2.376168 -6.517859 2.461456 -7.339282 2.546745 " transform="matrix(269.977573, 0, 0, -269.85583, 2858.5, 694)"/>
<path fill="none" stroke-width="0.04" stroke-linecap="butt" stroke-linejoin="miter" stroke="rgb(0%, 0%, 0%)" stroke-opacity="1" stroke-miterlimit="10" d="M -7.339282 2.546745 C -8.22619 1.783823 -9.113098 1.020887 -10.000006 0.257965 " transform="matrix(269.977573, 0, 0, -269.85583, 2858.5, 694)"/>
<path fill="none" stroke-width="0.04" stroke-linecap="butt" stroke-linejoin="miter" stroke="rgb(0%, 0%, 0%)" stroke-opacity="1" stroke-miterlimit="10" d="M -7.513399 0.0467408 C -7.45535 0.880071 -7.397316 1.713415 -7.339282 2.546745 " transform="matrix(269.977573, 0, 0, -269.85583, 2858.5, 694)"/>
<path fill="none" stroke-width="0.04" stroke-linecap="butt" stroke-linejoin="miter" stroke="rgb(0%, 0%, 0%)" stroke-opacity="1" stroke-miterlimit="10" d="M -5.026792 -0.191262 C -4.976195 0.636118 -4.925597 1.463498 -4.875 2.290879 " transform="matrix(269.977573, 0, 0, -269.85583, 2858.5, 694)"/>
<path fill="none" stroke-width="0.04" stroke-linecap="butt" stroke-linejoin="miter" stroke="rgb(0%, 0%, 0%)" stroke-opacity="1" stroke-miterlimit="10" d="M -2.522316 -0.406945 C -2.491078 0.420436 -2.459825 1.247816 -2.428573 2.075197 " transform="matrix(269.977573, 0, 0, -269.85583, 2858.5, 694)"/>
<path fill="none" stroke-width="0.04" stroke-linecap="butt" stroke-linejoin="miter" stroke="rgb(0%, 0%, 0%)" stroke-opacity="1" stroke-miterlimit="10" d="M 0 -0.546747 C 0 0.286597 0 1.119927 0 1.953257 " transform="matrix(269.977573, 0, 0, -269.85583, 2858.5, 694)"/>
<path fill="none" stroke-width="0.04" stroke-linecap="butt" stroke-linejoin="miter" stroke="rgb(0%, 0%, 0%)" stroke-opacity="1" stroke-miterlimit="10" d="M 2.522316 -0.406945 C 2.491078 0.420436 2.459825 1.247816 2.428573 2.075197 " transform="matrix(269.977573, 0, 0, -269.85583, 2858.5, 694)"/>
<path fill="none" stroke-width="0.04" stroke-linecap="butt" stroke-linejoin="miter" stroke="rgb(0%, 0%, 0%)" stroke-opacity="1" stroke-miterlimit="10" d="M 5.026792 -0.191262 C 4.976195 0.636118 4.925597 1.463498 4.875 2.290879 " transform="matrix(269.977573, 0, 0, -269.85583, 2858.5, 694)"/>
<path fill="none" stroke-width="0.04" stroke-linecap="butt" stroke-linejoin="miter" stroke="rgb(0%, 0%, 0%)" stroke-opacity="1" stroke-miterlimit="10" d="M 7.513399 0.0467408 C 7.45535 0.880071 7.397316 1.713415 7.339282 2.546745 " transform="matrix(269.977573, 0, 0, -269.85583, 2858.5, 694)"/>
<path fill="none" stroke-width="0.04" stroke-linecap="butt" stroke-linejoin="miter" stroke="rgb(0%, 0%, 0%)" stroke-opacity="1" stroke-miterlimit="10" d="M -5.026792 -0.191262 C -5.797617 0.721407 -6.568456 1.634076 -7.339282 2.546745 " transform="matrix(269.977573, 0, 0, -269.85583, 2858.5, 694)"/>
<path fill="none" stroke-width="0.04" stroke-linecap="butt" stroke-linejoin="miter" stroke="rgb(0%, 0%, 0%)" stroke-opacity="1" stroke-miterlimit="10" d="M -2.522316 -0.406945 C -3.306554 0.49232 -4.090777 1.3916 -4.875 2.290879 " transform="matrix(269.977573, 0, 0, -269.85583, 2858.5, 694)"/>
<path fill="none" stroke-width="0.04" stroke-linecap="butt" stroke-linejoin="miter" stroke="rgb(0%, 0%, 0%)" stroke-opacity="1" stroke-miterlimit="10" d="M 0 -0.546747 C -0.809529 0.327229 -1.619044 1.20122 -2.428573 2.075197 " transform="matrix(269.977573, 0, 0, -269.85583, 2858.5, 694)"/>
<path fill="none" stroke-width="0.04" stroke-linecap="butt" stroke-linejoin="miter" stroke="rgb(0%, 0%, 0%)" stroke-opacity="1" stroke-miterlimit="10" d="M 0 -0.546747 C 0.809529 0.327229 1.619044 1.20122 2.428573 2.075197 " transform="matrix(269.977573, 0, 0, -269.85583, 2858.5, 694)"/>
<path fill="none" stroke-width="0.04" stroke-linecap="butt" stroke-linejoin="miter" stroke="rgb(0%, 0%, 0%)" stroke-opacity="1" stroke-miterlimit="10" d="M 2.522316 -0.406945 C 3.306554 0.49232 4.090777 1.3916 4.875 2.290879 " transform="matrix(269.977573, 0, 0, -269.85583, 2858.5, 694)"/>
<path fill="none" stroke-width="0.04" stroke-linecap="butt" stroke-linejoin="miter" stroke="rgb(0%, 0%, 0%)" stroke-opacity="1" stroke-miterlimit="10" d="M 5.026792 -0.191262 C 5.797617 0.721407 6.568456 1.634076 7.339282 2.546745 " transform="matrix(269.977573, 0, 0, -269.85583, 2858.5, 694)"/>
<path fill="none" stroke-width="0.04" stroke-linecap="butt" stroke-linejoin="miter" stroke="rgb(26.666667%, 26.666667%, 26.666667%)" stroke-opacity="1" stroke-miterlimit="10" d="M -10.000006 0.257965 C -10.125089 0.0412981 -10.250186 -0.175369 -10.375283 -0.392035 C -10.125089 -0.392035 -9.874909 -0.392035 -9.624729 -0.392035 C -9.749812 -0.175369 -9.874909 0.0412981 -10.000006 0.257965 Z M -10.000006 0.257965 " transform="matrix(269.977573, 0, 0, -269.85583, 2858.5, 694)"/>
<path fill="none" stroke-width="0.04" stroke-linecap="butt" stroke-linejoin="miter" stroke="rgb(26.666667%, 26.666667%, 26.666667%)" stroke-opacity="1" stroke-miterlimit="10" d="M -9.437083 -0.392035 C -9.81236 -0.392035 -10.187637 -0.392035 -10.562914 -0.392035 " transform="matrix(269.977573, 0, 0, -269.85583, 2858.5, 694)"/>
<path fill="none" stroke-width="0.04" stroke-linecap="butt" stroke-linejoin="miter" stroke="rgb(26.666667%, 26.666667%, 26.666667%)" stroke-opacity="1" stroke-miterlimit="10" d="M 10.000006 0.257965 C 9.874909 0.0412981 9.749812 -0.175369 9.624729 -0.392035 C 9.874909 -0.392035 10.125089 -0.392035 10.375283 -0.392035 C 10.250186 -0.175369 10.125089 0.0412981 10.000006 0.257965 Z M 10.000006 0.257965 " transform="matrix(269.977573, 0, 0, -269.85583, 2858.5, 694)"/>
<path fill="none" stroke-width="0.04" stroke-linecap="butt" stroke-linejoin="miter" stroke="rgb(26.666667%, 26.666667%, 26.666667%)" stroke-opacity="1" stroke-miterlimit="10" d="M 10.562914 -0.392035 C 10.187637 -0.392035 9.81236 -0.392035 9.437083 -0.392035 " transform="matrix(269.977573, 0, 0, -269.85583, 2858.5, 694)"/>
<path fill="none" stroke-width="0.08" stroke-linecap="butt" stroke-linejoin="miter" stroke="rgb(98.823529%, 38.431373%, 33.333333%)" stroke-opacity="1" stroke-miterlimit="10" d="M 0 -0.546747 C 0 -1.088414 0 -1.63008 0 -2.171747 " transform="matrix(269.977573, 0, 0, -269.85583, 2858.5, 694)"/>
<path fill-rule="nonzero" fill="rgb(98.823529%, 38.431373%, 33.333333%)" fill-opacity="1" d="M 2858.5 1381.253906 C 2873.125 1347.523438 2887.746094 1313.789062 2902.371094 1280.058594 C 2873.125 1280.058594 2843.875 1280.058594 2814.628906 1280.058594 C 2829.253906 1313.789062 2843.875 1347.523438 2858.5 1381.253906 Z M 2858.5 1381.253906 "/>
<path fill-rule="nonzero" fill="rgb(0%, 0%, 50.196078%)" fill-opacity="1" d="M 2989.039062 648.789062 C 2989.039062 648.789062 2905.96875 571.6875 2858.5 571.6875 C 2822.898438 571.6875 2787.296875 571.6875 2751.695312 571.6875 C 2662.691406 571.6875 2567.753906 648.789062 2567.753906 672.511719 C 2567.753906 708.097656 2567.753906 743.6875 2567.753906 779.273438 C 2580.625 782.945312 2593.496094 786.621094 2606.363281 790.292969 C 2606.816406 749.738281 2639.816406 716.992188 2680.492188 716.992188 C 2721.453125 716.992188 2754.664062 750.1875 2754.664062 791.128906 C 2823.886719 791.128906 2893.113281 791.128906 2962.335938 791.128906 C 2962.335938 750.1875 2995.546875 716.992188 3036.507812 716.992188 C 3077.183594 716.992188 3110.179688 749.738281 3110.636719 790.292969 C 3123.503906 786.617188 3136.375 782.941406 3149.246094 779.265625 C 3149.246094 757.519531 3149.246094 735.773438 3149.246094 714.027344 C 3149.246094 690.304688 3089.910156 660.648438 2989.039062 648.789062 Z M 2781.363281 654.308594 C 2733.007812 652.644531 2684.648438 650.976562 2636.292969 649.308594 C 2666.09375 628.699219 2710.253906 607.273438 2751.695312 607.273438 C 2761.585938 607.273438 2771.472656 607.273438 2781.363281 607.273438 C 2781.363281 622.949219 2781.363281 638.628906 2781.363281 654.308594 Z M 2816.964844 655.539062 C 2816.964844 639.449219 2816.964844 623.359375 2816.964844 607.273438 C 2830.808594 607.273438 2844.65625 607.273438 2858.5 607.273438 C 2875.429688 607.273438 2914.808594 632.472656 2947.882812 660.050781 C 2904.242188 658.546875 2860.605469 657.042969 2816.964844 655.539062 Z M 2816.964844 655.539062 "/>
<path fill-rule="nonzero" fill="rgb(66.27451%, 66.27451%, 66.27451%)" fill-opacity="1" d="M 2730.929688 791.128906 C 2730.929688 804.5 2725.613281 817.320312 2716.15625 826.777344 C 2706.699219 836.230469 2693.867188 841.542969 2680.492188 841.542969 C 2667.117188 841.542969 2654.289062 836.230469 2644.828125 826.777344 C 2635.371094 817.320312 2630.058594 804.5 2630.058594 791.128906 C 2630.058594 777.757812 2635.371094 764.9375 2644.828125 755.480469 C 2654.289062 746.027344 2667.117188 740.714844 2680.492188 740.714844 C 2693.867188 740.714844 2706.699219 746.027344 2716.15625 755.480469 C 2725.613281 764.9375 2730.929688 777.757812 2730.929688 791.128906 Z M 2730.929688 791.128906 "/>
<path fill-rule="nonzero" fill="rgb(66.27451%, 66.27451%, 66.27451%)" fill-opacity="1" d="M 3086.941406 791.128906 C 3086.941406 804.5 3081.628906 817.320312 3072.171875 826.777344 C 3062.710938 836.230469 3049.882812 841.542969 3036.507812 841.542969 C 3023.132812 841.542969 3010.300781 836.230469 3000.84375 826.777344 C 2991.386719 817.320312 2986.070312 804.5 2986.070312 791.128906 C 2986.070312 777.757812 2991.386719 764.9375 3000.84375 755.480469 C 3010.300781 746.027344 3023.132812 740.714844 3036.507812 740.714844 C 3049.882812 740.714844 3062.710938 746.027344 3072.171875 755.480469 C 3081.628906 764.9375 3086.941406 777.757812 3086.941406 791.128906 Z M 3086.941406 791.128906 "/>
</svg>
