<?xml version="1.0" encoding="UTF-8"?>
<svg xmlns="http://www.w3.org/2000/svg" xmlns:xlink="http://www.w3.org/1999/xlink" width="5717" height="1493" viewBox="0 0 5717 1493">
<path fill="none" stroke-width="0.04" stroke-linecap="butt" stroke-linejoin="miter" stroke="rgb(0%, 0%, 0%)" stroke-opacity="1" stroke-miterlimit="10" d="M -10.000006 0.398828 C -9.170018 0.346024 -8.34003 0.29322 -7.510042 0.240417 " transform="matrix(269.977573, 0, 0, -269.941418, 2858.5, 746.5)"/>
<path fill="none" stroke-width="0.04" stroke-linecap="butt" stroke-linejoin="miter" stroke="rgb(0%, 0%, 0%)" stroke-opacity="1" stroke-miterlimit="10" d="M -7.510042 0.240417 C -6.680054 0.180913 -5.850081 0.121409 -5.020093 0.0619058 " transform="matrix(269.977573, 0, 0, -269.941418, 2858.5, 746.5)"/>
<path fill="none" stroke-width="0.04" stroke-linecap="butt" stroke-linejoin="miter" stroke="rgb(0%, 0%, 0%)" stroke-opacity="1" stroke-miterlimit="10" d="M -5.020093 0.0619058 C -4.185634 -0.0812966 -3.35119 -0.224499 -2.516746 -0.367716 " transform="matrix(269.977573, 0, 0, -269.941418, 2858.5, 746.5)"/>
<path fill="none" stroke-width="0.04" stroke-linecap="butt" stroke-linejoin="miter" stroke="rgb(0%, 0%, 0%)" stroke-opacity="1" stroke-miterlimit="10" d="M -2.516746 -0.367716 C -1.67783 -0.491947 -0.838915 -0.616178 0 -0.740409 " transform="matrix(269.977573, 0, 0, -269.941418, 2858.5, 746.5)"/>
<path fill="none" stroke-width="0.04" stroke-linecap="butt" stroke-linejoin="miter" stroke="rgb(0%, 0%, 0%)" stroke-opacity="1" stroke-miterlimit="10" d="M 0 -0.740409 C 0.838915 -0.616178 1.67783 -0.491947 2.516746 -0.367716 " transform="matrix(269.977573, 0, 0, -269.941418, 2858.5, 746.5)"/>
<path fill="none" stroke-width="0.04" stroke-linecap="butt" stroke-linejoin="miter" stroke="rgb(0%, 0%, 0%)" stroke-opacity="1" stroke-miterlimit="10" d="M 2.516746 -0.367716 C 3.35119 -0.224499 4.185634 -0.0812966 5.020093 0.0619058 " transform="matrix(269.977573, 0, 0, -269.941418, 2858.5, 746.5)"/>
<path fill="none" stroke-width="0.04" stroke-linecap="butt" stroke-linejoin="miter" stroke="rgb(0%, 0%, 0%)" stroke-opacity="1" stroke-miterlimit="10" d="M 5.020093 0.0619058 C 5.850081 0.121409 6.680054 0.180913 7.510042 0.240417 " transform="matrix(269.977573, 0, 0, -269.941418, 2858.5, 746.5)"/>
<path fill="none" stroke-width="0.04" stroke-linecap="butt" stroke-linejoin="miter" stroke="rgb(0%, 0%, 0%)" stroke-opacity="1" stroke-miterlimit="10" d="M 7.510042 0.240417 C 8.34003 0.29322 9.170018 0.346024 10.000006 0.398828 " transform="matrix(269.977573, 0, 0, -269.941418, 2858.5, 746.5)"/>
<path fill="none" stroke-width="0.04" stroke-linecap="butt" stroke-linejoin="miter" stroke="rgb(0%, 0%, 0%)" stroke-opacity="1" stroke-miterlimit="10" d="M 10.000006 0.398828 C 9.126481 1.179365 8.252971 1.959887 7.379461 2.740409 " transform="matrix(269.977573, 0, 0, -269.941418, 2858.5, 746.5)"/>
<path fill="none" stroke-width="0.04" stroke-linecap="butt" stroke-linejoin="miter" stroke="rgb(0%, 0%, 0%)" stroke-opacity="1" stroke-miterlimit="10" d="M 7.379461 2.740409 C 6.555058 2.587164 5.730655 2.433905 4.906252 2.28066 " transform="matrix(269.977573, 0, 0, -269.941418, 2858.5, 746.5)"/>
<path fill="none" stroke-width="0.04" stroke-linecap="butt" stroke-linejoin="miter" stroke="rgb(0%, 0%, 0%)" stroke-opacity="1" stroke-miterlimit="10" d="M 4.906252 2.28066 C 4.086306 2.137457 3.266374 1.994241 2.446427 1.851038 " transform="matrix(269.977573, 0, 0, -269.941418, 2858.5, 746.5)"/>
<path fill="none" stroke-width="0.04" stroke-linecap="butt" stroke-linejoin="miter" stroke="rgb(0%, 0%, 0%)" stroke-opacity="1" stroke-miterlimit="10" d="M 2.446427 1.851038 C 1.630951 1.820548 0.815476 1.790073 0 1.759583 " transform="matrix(269.977573, 0, 0, -269.941418, 2858.5, 746.5)"/>
<path fill="none" stroke-width="0.04" stroke-linecap="butt" stroke-linejoin="miter" stroke="rgb(0%, 0%, 0%)" stroke-opacity="1" stroke-miterlimit="10" d="M 0 1.759583 C -0.815476 1.790073 -1.630951 1.820548 -2.446427 1.851038 " transform="matrix(269.977573, 0, 0, -269.941418, 2858.5, 746.5)"/>
<path fill="none" stroke-width="0.04" stroke-linecap="butt" stroke-linejoin="miter" stroke="rgb(0%, 0%, 0%)" stroke-opacity="1" stroke-miterlimit="10" d="M -2.446427 1.851038 C -3.266374 1.994241 -4.086306 2.137457 -4.906252 2.28066 " transform="matrix(269.977573, 0, 0, -269.941418, 2858.5, 746.5)"/>
<path fill="none" stroke-width="0.04" stroke-linecap="butt" stroke-linejoin="miter" stroke="rgb(0%, 0%, 0%)" stroke-opacity="1" stroke-miterlimit="10" d="M -4.906252 2.28066 C -5.730655 2.433905 -6.555058 2.587164 -7.379461 2.740409 " transform="matrix(269.977573, 0, 0, -269.941418, 2858.5, 746.5)"/>
<path fill="none" stroke-width="0.04" stroke-linecap="butt" stroke-linejoin="miter" stroke="rgb(0%, 0%, 0%)" stroke-opacity="1" stroke-miterlimit="10" d="M -7.379461 2.740409 C -8.252971 1.959887 -9.126481 1.179365 -10.000006 0.398828 " transform="matrix(269.977573, 0, 0, -269.941418, 2858.5, 746.5)"/>
<path fill="none" stroke-width="0.04" stroke-linecap="butt" stroke-linejoin="miter" stroke="rgb(0%, 0%, 0%)" stroke-opacity="1" stroke-miterlimit="10" d="M -7.510042 0.240417 C -7.46652 1.073743 -7.422998 1.907083 -7.379461 2.740409 " transform="matrix(269.977573, 0, 0, -269.941418, 2858.5, 746.5)"/>
<path fill="none" stroke-width="0.04" stroke-linecap="butt" stroke-linejoin="miter" stroke="rgb(0%, 0%, 0%)" stroke-opacity="1" stroke-miterlimit="10" d="M -5.020093 0.0619058 C -4.982141 0.80149 -4.94419 1.541075 -4.906252 2.28066 " transform="matrix(269.977573, 0, 0, -269.941418, 2858.5, 746.5)"/>
<path fill="none" stroke-width="0.04" stroke-linecap="butt" stroke-linejoin="miter" stroke="rgb(0%, 0%, 0%)" stroke-opacity="1" stroke-miterlimit="10" d="M -2.516746 -0.367716 C -2.493306 0.371869 -2.469867 1.111454 -2.446427 1.851038 " transform="matrix(269.977573, 0, 0, -269.941418, 2858.5, 746.5)"/>
<path fill="none" stroke-width="0.04" stroke-linecap="butt" stroke-linejoin="miter" stroke="rgb(0%, 0%, 0%)" stroke-opacity="1" stroke-miterlimit="10" d="M 0 -0.740409 C 0 0.0929166 0 0.926257 0 1.759583 " transform="matrix(269.977573, 0, 0, -269.941418, 2858.5, 746.5)"/>
<path fill="none" stroke-width="0.04" stroke-linecap="butt" stroke-linejoin="miter" stroke="rgb(0%, 0%, 0%)" stroke-opacity="1" stroke-miterlimit="10" d="M 2.516746 -0.367716 C 2.493306 0.371869 2.469867 1.111454 2.446427 1.851038 " transform="matrix(269.977573, 0, 0, -269.941418, 2858.5, 746.5)"/>
<path fill="none" stroke-width="0.04" stroke-linecap="butt" stroke-linejoin="miter" stroke="rgb(0%, 0%, 0%)" stroke-opacity="1" stroke-miterlimit="10" d="M 5.020093 0.0619058 C 4.982141 0.80149 4.94419 1.541075 4.906252 2.28066 " transform="matrix(269.977573, 0, 0, -269.941418, 2858.5, 746.5)"/>
<path fill="none" stroke-width="0.04" stroke-linecap="butt" stroke-linejoin="miter" stroke="rgb(0%, 0%, 0%)" stroke-opacity="1" stroke-miterlimit="10" d="M 7.510042 0.240417 C 7.46652 1.073743 7.422998 1.907083 7.379461 2.740409 " transform="matrix(269.977573, 0, 0, -269.941418, 2858.5, 746.5)"/>
<path fill="none" stroke-width="0.04" stroke-linecap="butt" stroke-linejoin="miter" stroke="rgb(0%, 0%, 0%)" stroke-opacity="1" stroke-miterlimit="10" d="M -5.020093 0.0619058 C -5.806544 0.95475 -6.59301 1.84758 -7.379461 2.740409 " transform="matrix(269.977573, 0, 0, -269.941418, 2858.5, 746.5)"/>
<path fill="none" stroke-width="0.04" stroke-linecap="butt" stroke-linejoin="miter" stroke="rgb(0%, 0%, 0%)" stroke-opacity="1" stroke-miterlimit="10" d="M -2.516746 -0.367716 C -3.313238 0.515071 -4.109745 1.397873 -4.906252 2.28066 " transform="matrix(269.977573, 0, 0, -269.941418, 2858.5, 746.5)"/>
<path fill="none" stroke-width="0.04" stroke-linecap="butt" stroke-linejoin="miter" stroke="rgb(0%, 0%, 0%)" stroke-opacity="1" stroke-miterlimit="10" d="M 0 -0.740409 C -0.815476 0.123406 -1.630951 0.987222 -2.446427 1.851038 " transform="matrix(269.977573, 0, 0, -269.941418, 2858.5, 746.5)"/>
<path fill="none" stroke-width="0.04" stroke-linecap="butt" stroke-linejoin="miter" stroke="rgb(0%, 0%, 0%)" stroke-opacity="1" stroke-miterlimit="10" d="M 0 -0.740409 C 0.815476 0.123406 1.630951 0.987222 2.446427 1.851038 " transform="matrix(269.977573, 0, 0, -269.941418, 2858.5, 746.5)"/>
<path fill="none" stroke-width="0.04" stroke-linecap="butt" stroke-linejoin="miter" stroke="rgb(0%, 0%, 0%)" stroke-opacity="1" stroke-miterlimit="10" d="M 2.516746 -0.367716 C 3.313238 0.515071 4.109745 1.397873 4.906252 2.28066 " transform="matrix(269.977573, 0, 0, -269.941418, 2858.5, 746.5)"/>
<path fill="none" stroke-width="0.04" stroke-linecap="butt" stroke-linejoin="miter" stroke="rgb(0%, 0%, 0%)" stroke-opacity="1" stroke-miterlimit="10" d="M 5.020093 0.0619058 C 5.806544 0.95475 6.59301 1.84758 7.379461 2.740409 " transform="matrix(269.977573, 0, 0, -269.941418, 2858.5, 746.5)"/>
<path fill="none" stroke-width="0.04" stroke-linecap="butt" stroke-linejoin="miter" stroke="rgb(26.666667%, 26.666667%, 26.666667%)" stroke-opacity="1" stroke-miterlimit="10" d="M -10.000006 0.398828 C -10.125089 0.182158 -10.250186 -0.0344982 -10.375283 -0.251169 C -10.125089 -0.251169 -9.874909 -0.251169 -9.624729 -0.251169 C -9.749812 -0.0344982 -9.874909 0.182158 -10.000006 0.398828 Z M -10.000006 0.398828 " transform="matrix(269.977573, 0, 0, -269.941418, 2858.5, 746.5)"/>
<path fill="none" stroke-width="0.04" stroke-linecap="butt" stroke-linejoin="miter" stroke="rgb(26.666667%, 26.666667%, 26.666667%)" stroke-opacity="1" stroke-miterlimit="10" d="M -9.437083 -0.251169 C -9.81236 -0.251169 -10.187637 -0.251169 -10.562914 -0.251169 " transform="matrix(269.977573, 0, 0, -269.941418, 2858.5, 746.5)"/>
<path fill="none" stroke-width="0.04" stroke-linecap="butt" stroke-linejoin="miter" stroke="rgb(26.666667%, 26.666667%, 26.666667%)" stroke-opacity="1" stroke-miterlimit="10" d="M 10.000006 0.398828 C 9.874909 0.182158 9.749812 -0.0344982 9.624729 -0.251169 C 9.874909 -0.251169 10.125089 -0.251169 10.375283 -0.251169 C 10.250186 -0.0344982 10.125089 0.182158 10.000006 0.398828 Z M 10.000006 0.398828 " transform="matrix(269.977573, 0, 0, -269.941418, 2858.5, 746.5)"/>
<path fill="none" stroke-width="0.04" stroke-linecap="butt" stroke-linejoin="miter" stroke="rgb(26.666667%, 26.666667%, 26.666667%)" stroke-opacity="1" stroke-miterlimit="10" d="M 10.562914 -0.251169 C 10.187637 -0.251169 9.81236 -0.251169 9.437083 -0.251169 " transform="matrix(269.977573, 0, 0, -269.941418, 2858.5, 746.5)"/>
<path fill="none" stroke-width="0.08" stroke-linecap="butt" stroke-linejoin="miter" stroke="rgb(98.823529%, 38.431373%, 33.333333%)" stroke-opacity="1" stroke-miterlimit="10" d="M 0 -0.740409 C 0 -1.282078 0 -1.823746 0 -2.365415 " transform="matrix(269.977573, 0, 0, -269.941418, 2858.5, 746.5)"/>
<path fill-rule="nonzero" fill="rgb(98.823529%, 38.431373%, 33.333333%)" fill-opacity="1" d="M 2858.5 1486.25 C 2873.125 1452.507812 2887.746094 1418.765625 2902.371094 1385.023438 C 2873.125 1385.023438 2843.875 1385.023438 2814.628906 1385.023438 C 2829.253906 1418.765625 2843.875 1452.507812 2858.5 1486.25 Z M 2858.5 1486.25 "/>
<path fill-rule="nonzero" fill="rgb(0%, 0%, 50.196078%)" fill-opacity="1" d="M 2989.039062 753.554688 C 2989.039062 753.554688 2905.96875 676.425781 2858.5 676.425781 C 2822.898438 676.425781 2787.296875 676.425781 2751.695312 676.425781 C 2662.691406 676.425781 2567.753906 753.554688 2567.753906 777.285156 C 2567.753906 812.882812 2567.753906 848.480469 2567.753906 884.082031 C 2580.625 887.753906 2593.496094 891.429688 2606.363281 895.101562 C 2606.816406 854.535156 2639.816406 821.78125 2680.492188 821.78125 C 2721.453125 821.78125 2754.664062 854.984375 2754.664062 895.941406 C 2823.886719 895.941406 2893.113281 895.941406 2962.335938 895.941406 C 2962.335938 854.984375 2995.546875 821.78125 3036.507812 821.78125 C 3077.183594 821.78125 3110.179688 854.535156 3110.636719 895.101562 C 3123.503906 891.425781 3136.375 887.75 3149.246094 884.074219 C 3149.246094 862.320312 3149.246094 840.566406 3149.246094 818.8125 C 3149.246094 795.082031 3089.910156 765.417969 2989.039062 753.554688 Z M 2781.363281 759.078125 C 2733.007812 757.410156 2684.648438 755.742188 2636.292969 754.074219 C 2666.09375 733.460938 2710.253906 712.023438 2751.695312 712.023438 C 2761.585938 712.023438 2771.472656 712.023438 2781.363281 712.023438 C 2781.363281 727.707031 2781.363281 743.390625 2781.363281 759.078125 Z M 2816.964844 760.304688 C 2816.964844 744.210938 2816.964844 728.117188 2816.964844 712.023438 C 2830.808594 712.023438 2844.65625 712.023438 2858.5 712.023438 C 2875.429688 712.023438 2914.808594 737.230469 2947.882812 764.820312 C 2904.242188 763.316406 2860.605469 761.808594 2816.964844 760.304688 Z M 2816.964844 760.304688 "/>
<path fill-rule="nonzero" fill="rgb(66.27451%, 66.27451%, 66.27451%)" fill-opacity="1" d="M 2730.929688 895.941406 C 2730.929688 909.316406 2725.613281 922.140625 2716.15625 931.597656 C 2706.699219 941.054688 2693.867188 946.367188 2680.492188 946.367188 C 2667.117188 946.367188 2654.289062 941.054688 2644.828125 931.597656 C 2635.371094 922.140625 2630.058594 909.316406 2630.058594 895.941406 C 2630.058594 882.566406 2635.371094 869.738281 2644.828125 860.28125 C 2654.289062 850.824219 2667.117188 845.511719 2680.492188 845.511719 C 2693.867188 845.511719 2706.699219 850.824219 2716.15625 860.28125 C 2725.613281 869.738281 2730.929688 882.566406 2730.929688 895.941406 Z M 2730.929688 895.941406 "/>
<path fill-rule="nonzero" fill="rgb(66.27451%, 66.27451%, 66.27451%)" fill-opacity="1" d="M 3086.941406 895.941406 C 3086.941406 909.316406 3081.628906 922.140625 3072.171875 931.597656 C 3062.710938 941.054688 3049.882812 946.367188 3036.507812 946.367188 C 3023.132812 946.367188 3010.300781 941.054688 3000.84375 931.597656 C 2991.386719 922.140625 2986.070312 909.316406 2986.070312 895.941406 C 2986.070312 882.566406 2991.386719 869.738281 3000.84375 860.28125 C 3010.300781 850.824219 3023.132812 845.511719 3036.507812 845.511719 C 3049.882812 845.511719 3062.710938 850.824219 3072.171875 860.28125 C 3081.628906 869.738281 3086.941406 882.566406 3086.941406 895.941406 Z M 3086.941406 895.941406 "/>
</svg>
