<?xml version="1.0" encoding="UTF-8"?>
<svg xmlns="http://www.w3.org/2000/svg" xmlns:xlink="http://www.w3.org/1999/xlink" width="710" height="466" viewBox="0 0 710 466">
<path fill="none" stroke-width="0.04" stroke-linecap="butt" stroke-linejoin="miter" stroke="rgb(0%, 0%, 0%)" stroke-opacity="1" stroke-miterlimit="10" d="M -4.382627 -2.365293 C -2.782628 -2.365293 -1.18263 -2.365293 0.417368 -2.365293 " transform="matrix(59.992738, 0, 0, -59.892812, 355, 233)"/>
<path fill="none" stroke-width="0.04" stroke-linecap="butt" stroke-linejoin="miter" stroke="rgb(0%, 0%, 0%)" stroke-opacity="1" stroke-miterlimit="10" d="M 0.617392 -2.365293 C 2.217391 -2.365293 3.817389 -2.365293 5.417387 -2.365293 " transform="matrix(59.992738, 0, 0, -59.892812, 355, 233)"/>
<path fill="none" stroke-width="0.04" stroke-linecap="butt" stroke-linejoin="miter" stroke="rgb(0%, 0%, 0%)" stroke-opacity="1" stroke-miterlimit="10" d="M 5.446688 -2.294594 C 3.827156 -0.675034 2.207624 0.944461 0.588092 2.564021 " transform="matrix(59.992738, 0, 0, -59.892812, 355, 233)"/>
<path fill="none" stroke-width="0.04" stroke-linecap="butt" stroke-linejoin="miter" stroke="rgb(0%, 0%, 0%)" stroke-opacity="1" stroke-miterlimit="10" d="M 0.446669 2.564021 C -1.172863 0.944461 -2.792395 -0.675034 -4.411927 -2.294594 " transform="matrix(59.992738, 0, 0, -59.892812, 355, 233)"/>
<path fill="none" stroke-width="0.04" stroke-linecap="butt" stroke-linejoin="miter" stroke="rgb(0%, 0%, 0%)" stroke-opacity="1" stroke-miterlimit="10" d="M 0.51738 -2.26531 C 0.51738 -0.665251 0.51738 0.934743 0.51738 2.534737 " transform="matrix(59.992738, 0, 0, -59.892812, 355, 233)"/>
<path fill="none" stroke-width="0.04" stroke-linecap="butt" stroke-linejoin="miter" stroke="rgb(0%, 0%, 0%)" stroke-opacity="1" stroke-miterlimit="10" d="M -4.482639 -2.365293 C -4.578874 -2.531932 -4.675045 -2.698636 -4.771281 -2.865275 C -4.578874 -2.865275 -4.386403 -2.865275 -4.193932 -2.865275 C -4.290168 -2.698636 -4.386403 -2.531932 -4.482639 -2.365293 Z M -4.482639 -2.365293 " transform="matrix(59.992738, 0, 0, -59.892812, 355, 233)"/>
<path fill="none" stroke-width="0.04" stroke-linecap="butt" stroke-linejoin="miter" stroke="rgb(0%, 0%, 0%)" stroke-opacity="1" stroke-miterlimit="10" d="M -4.049579 -2.865275 C -4.338285 -2.865275 -4.626927 -2.865275 -4.915634 -2.865275 " transform="matrix(59.992738, 0, 0, -59.892812, 355, 233)"/>
<path fill="none" stroke-width="0.04" stroke-linecap="butt" stroke-linejoin="miter" stroke="rgb(0%, 0%, 0%)" stroke-opacity="1" stroke-miterlimit="10" d="M 5.767365 -2.615284 C 5.767365 -2.548955 5.741059 -2.485365 5.694179 -2.438536 C 5.647298 -2.391642 5.583684 -2.365293 5.5174 -2.365293 C 5.45105 -2.365293 5.387501 -2.391642 5.34062 -2.438536 C 5.29374 -2.485365 5.267369 -2.548955 5.267369 -2.615284 C 5.267369 -2.681614 5.29374 -2.745204 5.34062 -2.792032 C 5.387501 -2.838926 5.45105 -2.865275 5.5174 -2.865275 C 5.583684 -2.865275 5.647298 -2.838926 5.694179 -2.792032 C 5.741059 -2.745204 5.767365 -2.681614 5.767365 -2.615284 Z M 5.767365 -2.615284 " transform="matrix(59.992738, 0, 0, -59.892812, 355, 233)"/>
<path fill="none" stroke-width="0.04" stroke-linecap="butt" stroke-linejoin="miter" stroke="rgb(0%, 0%, 0%)" stroke-opacity="1" stroke-miterlimit="10" d="M 5.89238 -2.865275 C 5.642415 -2.865275 5.392384 -2.865275 5.142354 -2.865275 " transform="matrix(59.992738, 0, 0, -59.892812, 355, 233)"/>
<path fill-rule="nonzero" fill="rgb(0%, 0%, 0%)" fill-opacity="1" d="M 92.074219 374.664062 C 92.074219 373.074219 91.441406 371.550781 90.316406 370.429688 C 89.191406 369.304688 87.667969 368.675781 86.074219 368.675781 C 84.484375 368.675781 82.957031 369.304688 81.832031 370.429688 C 80.707031 371.550781 80.078125 373.074219 80.078125 374.664062 C 80.078125 376.25 80.707031 377.773438 81.832031 378.898438 C 82.957031 380.023438 84.484375 380.652344 86.074219 380.652344 C 87.667969 380.652344 89.191406 380.023438 90.316406 378.898438 C 91.441406 377.773438 92.074219 376.25 92.074219 374.664062 Z M 92.074219 374.664062 "/>
<path fill-rule="nonzero" fill="rgb(0%, 0%, 0%)" fill-opacity="1" d="M 392.039062 374.664062 C 392.039062 373.074219 391.40625 371.550781 390.28125 370.429688 C 389.15625 369.304688 387.628906 368.675781 386.039062 368.675781 C 384.449219 368.675781 382.921875 369.304688 381.796875 370.429688 C 380.671875 371.550781 380.039062 373.074219 380.039062 374.664062 C 380.039062 376.25 380.671875 377.773438 381.796875 378.898438 C 382.921875 380.023438 384.449219 380.652344 386.039062 380.652344 C 387.628906 380.652344 389.15625 380.023438 390.28125 378.898438 C 391.40625 377.773438 392.039062 376.25 392.039062 374.664062 Z M 392.039062 374.664062 "/>
<path fill-rule="nonzero" fill="rgb(0%, 0%, 0%)" fill-opacity="1" d="M 692.003906 374.664062 C 692.003906 373.074219 691.371094 371.550781 690.246094 370.429688 C 689.121094 369.304688 687.59375 368.675781 686.003906 368.675781 C 684.410156 368.675781 682.886719 369.304688 681.761719 370.429688 C 680.636719 371.550781 680.003906 373.074219 680.003906 374.664062 C 680.003906 376.25 680.636719 377.773438 681.761719 378.898438 C 682.886719 380.023438 684.410156 380.652344 686.003906 380.652344 C 687.59375 380.652344 689.121094 380.023438 690.246094 378.898438 C 691.371094 377.773438 692.003906 376.25 692.003906 374.664062 Z M 692.003906 374.664062 "/>
<path fill-rule="nonzero" fill="rgb(0%, 0%, 0%)" fill-opacity="1" d="M 392.039062 75.199219 C 392.039062 73.609375 391.40625 72.085938 390.28125 70.964844 C 389.15625 69.839844 387.628906 69.210938 386.039062 69.210938 C 384.449219 69.210938 382.921875 69.839844 381.796875 70.964844 C 380.671875 72.085938 380.039062 73.609375 380.039062 75.199219 C 380.039062 76.789062 380.671875 78.3125 381.796875 79.433594 C 382.921875 80.558594 384.449219 81.1875 386.039062 81.1875 C 387.628906 81.1875 389.15625 80.558594 390.28125 79.433594 C 391.40625 78.3125 392.039062 76.789062 392.039062 75.199219 Z M 392.039062 75.199219 "/>
<path fill="none" stroke-width="0.04" stroke-linecap="butt" stroke-linejoin="miter" stroke="rgb(98.823529%, 38.431373%, 33.333333%)" stroke-opacity="1" stroke-miterlimit="10" d="M 0.51738 -2.365293 C 0.51738 -2.715267 0.51738 -3.065307 0.51738 -3.415281 " transform="matrix(59.992738, 0, 0, -59.892812, 355, 233)"/>
<path fill-rule="nonzero" fill="rgb(98.823529%, 38.431373%, 33.333333%)" fill-opacity="1" d="M 386.039062 464.503906 C 389.039062 455.519531 392.039062 446.535156 395.039062 437.550781 C 389.039062 437.550781 383.039062 437.550781 377.039062 437.550781 C 380.039062 446.535156 383.039062 455.519531 386.039062 464.503906 Z M 386.039062 464.503906 "/>
<path fill-rule="nonzero" fill="rgb(0%, 0%, 0%)" fill-opacity="1" d="M 87.171875 342.335938 C 87.207031 342.371094 87.230469 342.40625 87.230469 342.429688 C 87.230469 342.441406 87.230469 342.488281 87.230469 342.570312 C 87.230469 347.460938 87.230469 352.351562 87.230469 357.238281 C 87.230469 357.859375 87.40625 358.257812 87.734375 358.433594 C 88.074219 358.597656 88.695312 358.703125 89.609375 358.738281 C 89.609375 358.851562 89.609375 358.964844 89.609375 359.074219 C 87.3125 359.074219 85.015625 359.074219 82.71875 359.074219 C 82.71875 358.957031 82.71875 358.835938 82.71875 358.714844 C 83.703125 358.667969 84.347656 358.527344 84.652344 358.304688 C 84.945312 358.09375 85.097656 357.613281 85.097656 356.886719 C 85.097656 353.125 85.097656 349.363281 85.097656 345.601562 C 85.097656 345.214844 85.050781 344.910156 84.957031 344.710938 C 84.851562 344.511719 84.640625 344.40625 84.3125 344.40625 C 84.101562 344.40625 83.832031 344.464844 83.492188 344.582031 C 83.152344 344.699219 82.835938 344.828125 82.542969 344.957031 C 82.542969 344.84375 82.542969 344.730469 82.542969 344.617188 C 84.039062 343.855469 85.535156 343.097656 87.03125 342.335938 C 87.078125 342.335938 87.125 342.335938 87.171875 342.335938 Z M 87.171875 342.335938 "/>
<path fill-rule="nonzero" fill="rgb(0%, 0%, 0%)" fill-opacity="1" d="M 404.488281 358.832031 C 407.464844 355.742188 409.480469 353.472656 410.546875 352.035156 C 411.613281 350.582031 412.152344 349.179688 412.152344 347.800781 C 412.152344 346.59375 411.824219 345.683594 411.167969 345.050781 C 410.523438 344.429688 409.738281 344.113281 408.835938 344.113281 C 407.722656 344.113281 406.820312 344.511719 406.128906 345.332031 C 405.742188 345.777344 405.378906 346.464844 405.027344 347.390625 C 404.855469 347.355469 404.683594 347.320312 404.511719 347.285156 C 404.910156 345.414062 405.601562 344.113281 406.574219 343.390625 C 407.546875 342.664062 408.589844 342.300781 409.703125 342.300781 C 411.085938 342.300781 412.199219 342.734375 413.042969 343.589844 C 413.898438 344.453125 414.320312 345.519531 414.320312 346.769531 C 414.320312 348.105469 413.863281 349.378906 412.9375 350.617188 C 412.023438 351.859375 410.019531 354.046875 406.949219 357.214844 C 408.816406 357.214844 410.683594 357.214844 412.550781 357.214844 C 413.335938 357.214844 413.886719 357.121094 414.203125 356.933594 C 414.519531 356.75 414.871094 356.292969 415.269531 355.566406 C 415.375 355.613281 415.480469 355.660156 415.585938 355.707031 C 415.136719 356.84375 414.6875 357.976562 414.238281 359.109375 C 410.988281 359.109375 407.738281 359.109375 404.488281 359.109375 C 404.488281 359.019531 404.488281 358.925781 404.488281 358.832031 Z M 404.488281 358.832031 "/>
<path fill-rule="nonzero" fill="rgb(0%, 0%, 0%)" fill-opacity="1" d="M 681.996094 356.941406 C 682.441406 356.941406 683.027344 357.175781 683.765625 357.632812 C 684.503906 358.097656 685.125 358.332031 685.640625 358.332031 C 686.777344 358.332031 687.632812 357.949219 688.183594 357.175781 C 688.734375 356.402344 689.015625 355.574219 689.015625 354.671875 C 689.015625 353.804688 688.78125 353.035156 688.335938 352.378906 C 687.585938 351.269531 686.308594 350.707031 684.503906 350.707031 C 684.398438 350.707031 684.292969 350.71875 684.199219 350.71875 C 684.105469 350.71875 683.988281 350.730469 683.859375 350.753906 C 683.851562 350.648438 683.84375 350.542969 683.835938 350.4375 C 685.136719 349.957031 686.167969 349.417969 686.90625 348.8125 C 687.65625 348.203125 688.03125 347.394531 688.03125 346.402344 C 688.03125 345.511719 687.738281 344.835938 687.152344 344.378906 C 686.554688 343.910156 685.886719 343.675781 685.125 343.675781 C 684.234375 343.675781 683.449219 344.015625 682.757812 344.671875 C 682.382812 345.019531 681.984375 345.582031 681.550781 346.332031 C 681.425781 346.300781 681.300781 346.269531 681.175781 346.238281 C 681.503906 345.007812 682.101562 344.015625 682.992188 343.277344 C 683.882812 342.542969 684.902344 342.167969 686.074219 342.167969 C 687.316406 342.167969 688.277344 342.507812 688.957031 343.195312 C 689.636719 343.875 689.976562 344.660156 689.976562 345.558594 C 689.976562 346.34375 689.695312 347.066406 689.132812 347.722656 C 688.816406 348.097656 688.324219 348.519531 687.65625 348.988281 C 688.441406 349.3125 689.0625 349.699219 689.53125 350.15625 C 690.421875 351.011719 690.867188 352.085938 690.867188 353.398438 C 690.867188 354.941406 690.257812 356.296875 689.039062 357.480469 C 687.820312 358.648438 686.097656 359.246094 683.847656 359.246094 C 682.851562 359.246094 682.148438 359.09375 681.738281 358.800781 C 681.339844 358.496094 681.140625 358.179688 681.140625 357.84375 C 681.140625 357.632812 681.199219 357.421875 681.339844 357.234375 C 681.46875 357.035156 681.691406 356.941406 681.996094 356.941406 Z M 681.996094 356.941406 "/>
<path fill-rule="nonzero" fill="rgb(0%, 0%, 0%)" fill-opacity="1" d="M 387.289062 45.375 C 385.289062 48.195312 383.289062 51.015625 381.289062 53.832031 C 383.289062 53.832031 385.289062 53.832031 387.289062 53.832031 C 387.289062 51.015625 387.289062 48.195312 387.289062 45.375 Z M 388.09375 42.871094 C 388.480469 42.871094 388.867188 42.871094 389.253906 42.871094 C 389.253906 46.527344 389.253906 50.179688 389.253906 53.832031 C 390.101562 53.832031 390.949219 53.832031 391.796875 53.832031 C 391.796875 54.375 391.796875 54.917969 391.796875 55.460938 C 390.949219 55.460938 390.101562 55.460938 389.253906 55.460938 C 389.253906 56.84375 389.253906 58.226562 389.253906 59.613281 C 388.605469 59.613281 387.957031 59.613281 387.308594 59.613281 C 387.308594 58.226562 387.308594 56.84375 387.308594 55.460938 C 384.96875 55.460938 382.625 55.460938 380.28125 55.460938 C 380.28125 54.917969 380.28125 54.375 380.28125 53.832031 C 382.886719 50.179688 385.492188 46.527344 388.09375 42.871094 Z M 388.09375 42.871094 "/>
<path fill-rule="nonzero" fill="rgb(0%, 0%, 0%)" fill-opacity="1" d="M 222.578125 356.648438 C 222.578125 353.816406 223.421875 351.339844 225.121094 349.199219 C 226.160156 347.886719 227.378906 346.835938 228.796875 346.039062 C 228.875 346.175781 228.953125 346.3125 229.03125 346.449219 C 227.71875 347.488281 226.78125 348.496094 226.21875 349.476562 C 225.238281 351.199219 224.746094 353.480469 224.746094 356.332031 C 224.746094 358.4375 224.933594 360.179688 225.308594 361.550781 C 225.960938 363.960938 227.203125 365.761719 229.03125 366.953125 C 228.925781 367.085938 228.820312 367.21875 228.714844 367.351562 C 227.707031 366.871094 226.628906 365.9375 225.472656 364.542969 C 223.539062 362.230469 222.578125 359.597656 222.578125 356.648438 Z M 222.578125 356.648438 "/>
<path fill-rule="nonzero" fill="rgb(0%, 0%, 0%)" fill-opacity="1" d="M 237.820312 346.167969 C 237.855469 346.203125 237.878906 346.238281 237.878906 346.261719 C 237.878906 346.273438 237.878906 346.320312 237.878906 346.402344 C 237.878906 351.292969 237.878906 356.179688 237.878906 361.070312 C 237.878906 361.691406 238.054688 362.089844 238.382812 362.265625 C 238.722656 362.425781 239.34375 362.53125 240.257812 362.566406 C 240.257812 362.679688 240.257812 362.792969 240.257812 362.90625 C 237.960938 362.90625 235.664062 362.90625 233.367188 362.90625 C 233.367188 362.785156 233.367188 362.664062 233.367188 362.542969 C 234.351562 362.496094 234.996094 362.355469 235.300781 362.136719 C 235.59375 361.925781 235.746094 361.445312 235.746094 360.71875 C 235.746094 356.957031 235.746094 353.195312 235.746094 349.429688 C 235.746094 349.046875 235.699219 348.742188 235.605469 348.542969 C 235.5 348.34375 235.289062 348.238281 234.960938 348.238281 C 234.75 348.238281 234.480469 348.296875 234.140625 348.414062 C 233.800781 348.53125 233.484375 348.660156 233.191406 348.789062 C 233.191406 348.675781 233.191406 348.5625 233.191406 348.449219 C 234.6875 347.6875 236.183594 346.929688 237.679688 346.167969 C 237.726562 346.167969 237.773438 346.167969 237.820312 346.167969 Z M 237.820312 346.167969 "/>
<path fill-rule="nonzero" fill="rgb(0%, 0%, 0%)" fill-opacity="1" d="M 249.539062 356.765625 C 249.539062 357.96875 249.386719 359.117188 249.070312 360.203125 C 248.753906 361.28125 248.285156 362.300781 247.675781 363.257812 C 247.03125 364.289062 246.175781 365.234375 245.097656 366.125 C 244.394531 366.707031 243.796875 367.117188 243.316406 367.351562 C 243.238281 367.21875 243.160156 367.085938 243.082031 366.953125 C 244.335938 366.007812 245.25 365.035156 245.835938 364.042969 C 246.855469 362.289062 247.371094 359.972656 247.371094 357.082031 C 247.371094 354.753906 247.136719 352.847656 246.65625 351.375 C 246 349.277344 244.804688 347.640625 243.082031 346.449219 C 243.1875 346.3125 243.292969 346.175781 243.398438 346.039062 C 244.6875 346.753906 245.882812 347.839844 246.996094 349.277344 C 248.695312 351.511719 249.539062 354.003906 249.539062 356.765625 Z M 249.539062 356.765625 "/>
<path fill-rule="nonzero" fill="rgb(0%, 0%, 0%)" fill-opacity="1" d="M 522.539062 356.648438 C 522.539062 353.816406 523.382812 351.339844 525.082031 349.199219 C 526.125 347.886719 527.34375 346.835938 528.761719 346.039062 C 528.839844 346.175781 528.917969 346.3125 528.996094 346.449219 C 527.683594 347.488281 526.746094 348.496094 526.183594 349.476562 C 525.199219 351.199219 524.707031 353.480469 524.707031 356.332031 C 524.707031 358.4375 524.894531 360.179688 525.269531 361.550781 C 525.925781 363.960938 527.167969 365.761719 528.996094 366.953125 C 528.890625 367.085938 528.785156 367.21875 528.679688 367.351562 C 527.671875 366.871094 526.59375 365.9375 525.433594 364.542969 C 523.5 362.230469 522.539062 359.597656 522.539062 356.648438 Z M 522.539062 356.648438 "/>
<path fill-rule="nonzero" fill="rgb(0%, 0%, 0%)" fill-opacity="1" d="M 531.140625 362.625 C 534.117188 359.539062 536.132812 357.269531 537.199219 355.828125 C 538.265625 354.378906 538.804688 352.976562 538.804688 351.59375 C 538.804688 350.390625 538.476562 349.476562 537.820312 348.847656 C 537.175781 348.226562 536.390625 347.910156 535.488281 347.910156 C 534.375 347.910156 533.472656 348.308594 532.78125 349.128906 C 532.394531 349.570312 532.03125 350.261719 531.679688 351.1875 C 531.507812 351.152344 531.335938 351.117188 531.164062 351.082031 C 531.5625 349.210938 532.253906 347.910156 533.226562 347.183594 C 534.199219 346.460938 535.242188 346.097656 536.355469 346.097656 C 537.738281 346.097656 538.851562 346.53125 539.695312 347.382812 C 540.550781 348.25 540.972656 349.3125 540.972656 350.566406 C 540.972656 351.898438 540.515625 353.175781 539.589844 354.414062 C 538.675781 355.65625 536.671875 357.84375 533.601562 361.011719 C 535.46875 361.011719 537.335938 361.011719 539.203125 361.011719 C 539.988281 361.011719 540.539062 360.917969 540.855469 360.730469 C 541.171875 360.542969 541.523438 360.089844 541.921875 359.363281 C 542.027344 359.410156 542.132812 359.457031 542.238281 359.503906 C 541.789062 360.636719 541.339844 361.773438 540.890625 362.90625 C 537.640625 362.90625 534.390625 362.90625 531.140625 362.90625 C 531.140625 362.8125 531.140625 362.71875 531.140625 362.625 Z M 531.140625 362.625 "/>
<path fill-rule="nonzero" fill="rgb(0%, 0%, 0%)" fill-opacity="1" d="M 549.5 356.765625 C 549.5 357.96875 549.347656 359.117188 549.03125 360.203125 C 548.714844 361.28125 548.25 362.300781 547.640625 363.257812 C 546.996094 364.289062 546.140625 365.234375 545.0625 366.125 C 544.359375 366.707031 543.761719 367.117188 543.28125 367.351562 C 543.203125 367.21875 543.125 367.085938 543.046875 366.953125 C 544.300781 366.007812 545.214844 365.035156 545.800781 364.042969 C 546.820312 362.289062 547.335938 359.972656 547.335938 357.082031 C 547.335938 354.753906 547.101562 352.847656 546.621094 351.375 C 545.964844 349.277344 544.769531 347.640625 543.046875 346.449219 C 543.152344 346.3125 543.257812 346.175781 543.363281 346.039062 C 544.652344 346.753906 545.847656 347.839844 546.960938 349.277344 C 548.65625 351.511719 549.5 354.003906 549.5 356.765625 Z M 549.5 356.765625 "/>
<path fill-rule="nonzero" fill="rgb(0%, 0%, 0%)" fill-opacity="1" d="M 540.539062 206.929688 C 540.539062 204.097656 541.382812 201.617188 543.082031 199.476562 C 544.125 198.167969 545.34375 197.113281 546.761719 196.320312 C 546.839844 196.453125 546.917969 196.589844 546.996094 196.726562 C 545.683594 197.769531 544.746094 198.773438 544.183594 199.757812 C 543.199219 201.476562 542.707031 203.757812 542.707031 206.613281 C 542.707031 208.71875 542.894531 210.460938 543.269531 211.828125 C 543.925781 214.238281 545.167969 216.042969 546.996094 217.234375 C 546.890625 217.367188 546.785156 217.5 546.679688 217.632812 C 545.671875 217.152344 544.59375 216.214844 543.433594 214.824219 C 541.5 212.507812 540.539062 209.875 540.539062 206.929688 Z M 540.539062 206.929688 "/>
<path fill-rule="nonzero" fill="rgb(0%, 0%, 0%)" fill-opacity="1" d="M 550.332031 211.070312 C 550.777344 211.070312 551.363281 211.304688 552.101562 211.757812 C 552.839844 212.226562 553.460938 212.460938 553.976562 212.460938 C 555.113281 212.460938 555.96875 212.074219 556.519531 211.304688 C 557.070312 210.53125 557.351562 209.699219 557.351562 208.800781 C 557.351562 207.933594 557.117188 207.164062 556.671875 206.507812 C 555.921875 205.394531 554.644531 204.835938 552.839844 204.835938 C 552.734375 204.835938 552.628906 204.847656 552.535156 204.847656 C 552.441406 204.847656 552.324219 204.859375 552.195312 204.882812 C 552.1875 204.777344 552.179688 204.671875 552.171875 204.566406 C 553.472656 204.085938 554.503906 203.546875 555.242188 202.941406 C 555.992188 202.332031 556.367188 201.523438 556.367188 200.53125 C 556.367188 199.640625 556.074219 198.960938 555.488281 198.507812 C 554.890625 198.039062 554.222656 197.804688 553.460938 197.804688 C 552.570312 197.804688 551.785156 198.144531 551.09375 198.796875 C 550.71875 199.148438 550.320312 199.710938 549.886719 200.460938 C 549.761719 200.429688 549.636719 200.398438 549.511719 200.367188 C 549.839844 199.136719 550.4375 198.144531 551.328125 197.40625 C 552.21875 196.667969 553.238281 196.296875 554.410156 196.296875 C 555.652344 196.296875 556.613281 196.632812 557.292969 197.324219 C 557.972656 198.003906 558.3125 198.785156 558.3125 199.6875 C 558.3125 200.472656 558.03125 201.195312 557.46875 201.851562 C 557.152344 202.226562 556.660156 202.648438 555.992188 203.113281 C 556.777344 203.441406 557.398438 203.828125 557.867188 204.285156 C 558.757812 205.140625 559.203125 206.214844 559.203125 207.523438 C 559.203125 209.070312 558.59375 210.425781 557.375 211.609375 C 556.15625 212.777344 554.433594 213.375 552.183594 213.375 C 551.1875 213.375 550.484375 213.222656 550.074219 212.929688 C 549.675781 212.625 549.476562 212.308594 549.476562 211.96875 C 549.476562 211.757812 549.535156 211.550781 549.675781 211.363281 C 549.804688 211.164062 550.027344 211.070312 550.332031 211.070312 Z M 550.332031 211.070312 "/>
<path fill-rule="nonzero" fill="rgb(0%, 0%, 0%)" fill-opacity="1" d="M 567.5 207.046875 C 567.5 208.25 567.347656 209.398438 567.03125 210.484375 C 566.714844 211.5625 566.246094 212.578125 565.636719 213.539062 C 564.992188 214.566406 564.136719 215.515625 563.058594 216.402344 C 562.355469 216.988281 561.757812 217.398438 561.277344 217.632812 C 561.199219 217.5 561.121094 217.367188 561.042969 217.234375 C 562.296875 216.285156 563.210938 215.316406 563.796875 214.320312 C 564.816406 212.566406 565.332031 210.25 565.332031 207.359375 C 565.332031 205.035156 565.097656 203.125 564.617188 201.652344 C 563.960938 199.558594 562.765625 197.921875 561.042969 196.726562 C 561.148438 196.589844 561.253906 196.453125 561.359375 196.320312 C 562.648438 197.03125 563.84375 198.121094 564.957031 199.558594 C 566.65625 201.792969 567.5 204.285156 567.5 207.046875 Z M 567.5 207.046875 "/>
<path fill-rule="nonzero" fill="rgb(0%, 0%, 0%)" fill-opacity="1" d="M 204.578125 206.917969 C 204.578125 204.085938 205.421875 201.605469 207.121094 199.464844 C 208.164062 198.15625 209.382812 197.101562 210.800781 196.308594 C 210.878906 196.441406 210.957031 196.578125 211.035156 196.714844 C 209.722656 197.757812 208.785156 198.761719 208.222656 199.746094 C 207.238281 201.464844 206.746094 203.746094 206.746094 206.601562 C 206.746094 208.707031 206.933594 210.449219 207.308594 211.816406 C 207.964844 214.226562 209.207031 216.03125 211.035156 217.222656 C 210.929688 217.355469 210.824219 217.488281 210.71875 217.621094 C 209.710938 217.140625 208.632812 216.203125 207.472656 214.8125 C 205.539062 212.496094 204.578125 209.863281 204.578125 206.917969 Z M 204.578125 206.917969 "/>
<path fill-rule="nonzero" fill="rgb(0%, 0%, 0%)" fill-opacity="1" d="M 219.71875 198.9375 C 217.71875 201.757812 215.71875 204.578125 213.71875 207.394531 C 215.71875 207.394531 217.71875 207.394531 219.71875 207.394531 C 219.71875 204.578125 219.71875 201.757812 219.71875 198.9375 Z M 220.527344 196.4375 C 220.914062 196.4375 221.300781 196.4375 221.6875 196.4375 C 221.6875 200.089844 221.6875 203.742188 221.6875 207.394531 C 222.535156 207.394531 223.382812 207.394531 224.230469 207.394531 C 224.230469 207.9375 224.230469 208.480469 224.230469 209.023438 C 223.382812 209.023438 222.535156 209.023438 221.6875 209.023438 C 221.6875 210.40625 221.6875 211.789062 221.6875 213.175781 C 221.039062 213.175781 220.390625 213.175781 219.742188 213.175781 C 219.742188 211.789062 219.742188 210.40625 219.742188 209.023438 C 217.398438 209.023438 215.054688 209.023438 212.710938 209.023438 C 212.710938 208.480469 212.710938 207.9375 212.710938 207.394531 C 215.316406 203.742188 217.921875 200.089844 220.527344 196.4375 Z M 220.527344 196.4375 "/>
<path fill-rule="nonzero" fill="rgb(0%, 0%, 0%)" fill-opacity="1" d="M 231.539062 207.035156 C 231.539062 208.238281 231.386719 209.386719 231.070312 210.472656 C 230.753906 211.550781 230.285156 212.566406 229.675781 213.527344 C 229.03125 214.554688 228.175781 215.503906 227.097656 216.390625 C 226.394531 216.976562 225.800781 217.386719 225.320312 217.621094 C 225.242188 217.488281 225.164062 217.355469 225.085938 217.222656 C 226.335938 216.273438 227.25 215.304688 227.835938 214.308594 C 228.855469 212.554688 229.371094 210.238281 229.371094 207.351562 C 229.371094 205.023438 229.136719 203.113281 228.65625 201.640625 C 228 199.546875 226.804688 197.910156 225.085938 196.714844 C 225.191406 196.578125 225.296875 196.441406 225.402344 196.308594 C 226.6875 197.019531 227.882812 198.109375 228.996094 199.546875 C 230.695312 201.78125 231.539062 204.273438 231.539062 207.035156 Z M 231.539062 207.035156 "/>
<path fill-rule="nonzero" fill="rgb(0%, 0%, 0%)" fill-opacity="1" d="M 396.554688 225.023438 C 396.554688 222.195312 397.398438 219.714844 399.097656 217.574219 C 400.140625 216.261719 401.359375 215.210938 402.777344 214.414062 C 402.855469 214.550781 402.933594 214.6875 403.011719 214.824219 C 401.699219 215.867188 400.761719 216.871094 400.199219 217.855469 C 399.214844 219.574219 398.722656 221.855469 398.722656 224.710938 C 398.722656 226.816406 398.910156 228.558594 399.285156 229.925781 C 399.941406 232.335938 401.183594 234.136719 403.011719 235.332031 C 402.90625 235.464844 402.800781 235.597656 402.695312 235.726562 C 401.6875 235.25 400.609375 234.3125 399.449219 232.921875 C 397.515625 230.605469 396.554688 227.972656 396.554688 225.023438 Z M 396.554688 225.023438 "/>
<path fill-rule="nonzero" fill="rgb(0%, 0%, 0%)" fill-opacity="1" d="M 406.269531 229.050781 C 406.738281 229.050781 407.347656 229.316406 408.097656 229.84375 C 408.847656 230.371094 409.433594 230.628906 409.84375 230.628906 C 410.78125 230.628906 411.589844 230.21875 412.292969 229.386719 C 412.996094 228.570312 413.335938 227.550781 413.335938 226.347656 C 413.335938 224.242188 412.222656 222.730469 409.972656 221.808594 C 408.730469 221.292969 407.570312 221.035156 406.492188 221.035156 C 406.316406 221.035156 406.199219 221.023438 406.152344 221.011719 C 406.105469 221 406.058594 220.964844 405.988281 220.882812 C 406.011719 220.824219 406.023438 220.765625 406.035156 220.71875 C 406.046875 220.671875 406.058594 220.636719 406.082031 220.589844 C 406.96875 218.652344 407.855469 216.714844 408.742188 214.777344 C 410.488281 214.777344 412.234375 214.777344 413.980469 214.777344 C 414.238281 214.777344 414.4375 214.730469 414.578125 214.636719 C 414.71875 214.542969 414.90625 214.378906 415.140625 214.132812 C 415.203125 214.191406 415.265625 214.25 415.328125 214.308594 C 415.011719 215.0625 414.695312 215.816406 414.378906 216.566406 C 414.34375 216.636719 414.261719 216.683594 414.109375 216.707031 C 413.96875 216.730469 413.804688 216.730469 413.628906 216.730469 C 412.054688 216.730469 410.480469 216.730469 408.90625 216.730469 C 408.5625 217.445312 408.21875 218.160156 407.875 218.871094 C 409.210938 219.09375 410.183594 219.304688 410.804688 219.515625 C 411.824219 219.855469 412.667969 220.359375 413.359375 221.023438 C 413.945312 221.597656 414.378906 222.253906 414.683594 222.964844 C 414.988281 223.691406 415.140625 224.453125 415.140625 225.246094 C 415.140625 227.046875 414.496094 228.546875 413.21875 229.75 C 411.929688 230.957031 410.3125 231.550781 408.34375 231.550781 C 407.546875 231.550781 406.914062 231.46875 406.421875 231.320312 C 405.601562 231.074219 405.203125 230.617188 405.203125 229.972656 C 405.203125 229.726562 405.285156 229.503906 405.460938 229.328125 C 405.636719 229.144531 405.90625 229.050781 406.269531 229.050781 Z M 406.269531 229.050781 "/>
<path fill-rule="nonzero" fill="rgb(0%, 0%, 0%)" fill-opacity="1" d="M 423.515625 225.140625 C 423.515625 226.347656 423.363281 227.492188 423.046875 228.582031 C 422.730469 229.65625 422.261719 230.675781 421.652344 231.632812 C 421.007812 232.664062 420.152344 233.609375 419.078125 234.5 C 418.375 235.085938 417.777344 235.496094 417.296875 235.726562 C 417.21875 235.597656 417.140625 235.464844 417.0625 235.332031 C 418.316406 234.382812 419.230469 233.414062 419.8125 232.417969 C 420.832031 230.664062 421.347656 228.347656 421.347656 225.457031 C 421.347656 223.128906 421.113281 221.222656 420.632812 219.75 C 419.976562 217.65625 418.785156 216.019531 417.0625 214.824219 C 417.167969 214.6875 417.273438 214.550781 417.378906 214.414062 C 418.667969 215.128906 419.859375 216.214844 420.972656 217.65625 C 422.671875 219.890625 423.515625 222.382812 423.515625 225.140625 Z M 423.515625 225.140625 "/>
<path fill-rule="nonzero" fill="rgb(98.823529%, 38.431373%, 33.333333%)" fill-opacity="1" d="M 411.777344 413.460938 C 411.777344 412.980469 411.777344 412.761719 411.210938 412.761719 C 410.972656 412.761719 410.929688 412.761719 410.730469 412.914062 C 409.054688 414.15625 406.808594 414.15625 406.351562 414.15625 C 406.207031 414.15625 406.0625 414.15625 405.917969 414.15625 C 405.917969 414.496094 405.917969 414.835938 405.917969 415.179688 C 406.0625 415.179688 406.207031 415.179688 406.351562 415.179688 C 406.699219 415.179688 407.898438 415.15625 409.183594 414.742188 C 409.183594 418.492188 409.183594 422.242188 409.183594 425.988281 C 408.175781 425.988281 407.164062 425.988281 406.15625 425.988281 C 406.15625 426.332031 406.15625 426.671875 406.15625 427.011719 C 407.113281 426.945312 409.425781 426.945312 410.492188 426.945312 C 411.558594 426.945312 413.871094 426.945312 414.828125 427.011719 C 414.828125 426.671875 414.828125 426.332031 414.828125 425.988281 C 413.8125 425.988281 412.792969 425.988281 411.777344 425.988281 C 411.777344 421.8125 411.777344 417.636719 411.777344 413.460938 Z M 411.777344 413.460938 "/>
<path fill-rule="nonzero" fill="rgb(98.823529%, 38.431373%, 33.333333%)" fill-opacity="1" d="M 428.121094 420.074219 C 428.121094 417.960938 428.097656 412.761719 422.847656 412.761719 C 417.597656 412.761719 417.574219 417.941406 417.574219 420.074219 C 417.574219 422.226562 417.597656 427.25 422.847656 427.25 C 428.078125 427.25 428.121094 422.246094 428.121094 420.074219 Z M 422.847656 426.46875 C 422.0625 426.46875 420.84375 425.988281 420.558594 424.402344 C 420.363281 423.269531 420.363281 421.007812 420.363281 419.8125 C 420.363281 418.246094 420.363281 416.832031 420.539062 415.699219 C 420.800781 413.765625 422.324219 413.546875 422.847656 413.546875 C 423.652344 413.546875 424.546875 413.960938 424.960938 414.917969 C 425.332031 415.722656 425.332031 418.027344 425.332031 419.8125 C 425.332031 421.03125 425.332031 423.007812 425.179688 424.140625 C 424.875 426.164062 423.5 426.46875 422.847656 426.46875 Z M 422.847656 426.46875 "/>
<path fill-rule="nonzero" fill="rgb(98.823529%, 38.431373%, 33.333333%)" fill-opacity="1" d="M 440.648438 420.074219 C 440.648438 417.960938 440.628906 412.761719 435.378906 412.761719 C 430.125 412.761719 430.105469 417.941406 430.105469 420.074219 C 430.105469 422.226562 430.125 427.25 435.378906 427.25 C 440.605469 427.25 440.648438 422.246094 440.648438 420.074219 Z M 435.378906 426.46875 C 434.59375 426.46875 433.371094 425.988281 433.089844 424.402344 C 432.894531 423.269531 432.894531 421.007812 432.894531 419.8125 C 432.894531 418.246094 432.894531 416.832031 433.066406 415.699219 C 433.328125 413.765625 434.855469 413.546875 435.378906 413.546875 C 436.183594 413.546875 437.078125 413.960938 437.492188 414.917969 C 437.859375 415.722656 437.859375 418.027344 437.859375 419.8125 C 437.859375 421.03125 437.859375 423.007812 437.707031 424.140625 C 437.402344 426.164062 436.03125 426.46875 435.378906 426.46875 Z M 435.378906 426.46875 "/>
<path fill-rule="nonzero" fill="rgb(98.823529%, 38.431373%, 33.333333%)" fill-opacity="1" d="M 453.179688 420.074219 C 453.179688 417.960938 453.15625 412.761719 447.90625 412.761719 C 442.65625 412.761719 442.632812 417.941406 442.632812 420.074219 C 442.632812 422.226562 442.65625 427.25 447.90625 427.25 C 453.136719 427.25 453.179688 422.246094 453.179688 420.074219 Z M 447.90625 426.46875 C 447.121094 426.46875 445.902344 425.988281 445.617188 424.402344 C 445.421875 423.269531 445.421875 421.007812 445.421875 419.8125 C 445.421875 418.246094 445.421875 416.832031 445.597656 415.699219 C 445.859375 413.765625 447.382812 413.546875 447.90625 413.546875 C 448.710938 413.546875 449.605469 413.960938 450.019531 414.917969 C 450.390625 415.722656 450.390625 418.027344 450.390625 419.8125 C 450.390625 421.03125 450.390625 423.007812 450.238281 424.140625 C 449.933594 426.164062 448.558594 426.46875 447.90625 426.46875 Z M 447.90625 426.46875 "/>
<path fill-rule="nonzero" fill="rgb(98.823529%, 38.431373%, 33.333333%)" fill-opacity="1" d="M 458.84375 421.855469 C 458.84375 418.542969 458.84375 415.230469 458.84375 411.914062 C 457.558594 411.972656 456.273438 412.03125 454.988281 412.089844 C 454.988281 412.429688 454.988281 412.769531 454.988281 413.109375 C 456.339844 413.109375 456.492188 413.109375 456.492188 413.960938 C 456.492188 417.96875 456.492188 421.980469 456.492188 425.988281 C 455.992188 425.988281 455.488281 425.988281 454.988281 425.988281 C 454.988281 426.332031 454.988281 426.671875 454.988281 427.011719 C 455.792969 426.992188 456.820312 426.945312 457.601562 426.945312 C 458.410156 426.945312 459.457031 426.992188 460.238281 427.011719 C 460.238281 426.671875 460.238281 426.332031 460.238281 425.988281 C 459.738281 425.988281 459.238281 425.988281 458.738281 425.988281 C 458.738281 425.070312 458.738281 424.148438 458.738281 423.226562 C 459.367188 422.726562 459.542969 422.597656 459.976562 422.292969 C 460.710938 423.207031 461.445312 424.117188 462.179688 425.03125 C 462.375 425.292969 462.722656 425.730469 462.722656 425.792969 C 462.722656 425.988281 462.332031 425.988281 462.046875 425.988281 C 462.046875 426.332031 462.046875 426.671875 462.046875 427.011719 C 462.703125 426.96875 464.597656 426.945312 464.707031 426.945312 C 465.492188 426.945312 466.230469 426.96875 466.972656 427.011719 C 466.972656 426.671875 466.972656 426.332031 466.972656 425.988281 C 466.851562 425.988281 466.726562 425.988281 466.601562 425.988281 C 465.664062 425.988281 465.601562 425.902344 465.316406 425.554688 C 464.089844 424.023438 462.863281 422.496094 461.632812 420.964844 C 462.578125 420.230469 463.523438 419.5 464.46875 418.765625 C 464.773438 418.527344 464.96875 418.375 466.429688 418.375 C 466.429688 418.035156 466.429688 417.695312 466.429688 417.351562 C 465.839844 417.417969 465.296875 417.417969 464.730469 417.417969 C 464.140625 417.417969 462.722656 417.375 462.222656 417.351562 C 462.222656 417.695312 462.222656 418.035156 462.222656 418.375 C 462.722656 418.375 462.789062 418.441406 462.964844 418.613281 C 461.589844 419.695312 460.21875 420.777344 458.84375 421.855469 Z M 458.84375 421.855469 "/>
<path fill-rule="nonzero" fill="rgb(98.823529%, 38.431373%, 33.333333%)" fill-opacity="1" d="M 473.964844 412.371094 C 473.726562 412.109375 473.707031 412.089844 473.246094 412.089844 C 471.585938 412.089844 469.921875 412.089844 468.257812 412.089844 C 468.257812 412.429688 468.257812 412.769531 468.257812 413.109375 C 469.042969 413.109375 469.828125 413.109375 470.609375 413.109375 C 470.609375 417.195312 470.609375 421.277344 470.609375 425.359375 C 470.609375 425.835938 470.589844 425.859375 469.980469 425.925781 C 469.457031 425.988281 469.414062 425.988281 468.800781 425.988281 C 468.621094 425.988281 468.4375 425.988281 468.257812 425.988281 C 468.257812 426.332031 468.257812 426.671875 468.257812 427.011719 C 469.085938 426.945312 470.328125 426.945312 471.175781 426.945312 C 472.09375 426.945312 473.226562 426.945312 474.121094 427.011719 C 474.121094 426.671875 474.121094 426.332031 474.121094 425.988281 C 473.9375 425.988281 473.757812 425.988281 473.574219 425.988281 C 473.183594 425.988281 472.8125 425.96875 472.417969 425.925781 C 471.789062 425.859375 471.765625 425.835938 471.765625 425.359375 C 471.765625 421.566406 471.765625 417.773438 471.765625 413.980469 C 475.382812 418.230469 479 422.480469 482.617188 426.730469 C 482.835938 426.992188 482.855469 427.011719 483.207031 427.011719 C 483.792969 427.011719 483.792969 426.816406 483.792969 426.316406 C 483.792969 422.125 483.792969 417.933594 483.792969 413.742188 C 483.792969 413.261719 483.816406 413.242188 484.425781 413.175781 C 484.949219 413.109375 484.992188 413.109375 485.601562 413.109375 C 485.785156 413.109375 485.964844 413.109375 486.148438 413.109375 C 486.148438 412.769531 486.148438 412.429688 486.148438 412.089844 C 485.320312 412.152344 484.078125 412.152344 483.226562 412.152344 C 482.3125 412.152344 481.179688 412.152344 480.285156 412.089844 C 480.285156 412.429688 480.285156 412.769531 480.285156 413.109375 C 480.46875 413.109375 480.648438 413.109375 480.832031 413.109375 C 481.222656 413.109375 481.59375 413.132812 481.984375 413.175781 C 482.617188 413.242188 482.640625 413.261719 482.640625 413.742188 C 482.640625 416.679688 482.640625 419.617188 482.640625 422.550781 C 479.75 419.160156 476.859375 415.765625 473.964844 412.371094 Z M 473.964844 412.371094 "/>
<path fill="none" stroke-width="0.02" stroke-linecap="butt" stroke-linejoin="miter" stroke="rgb(53.333333%, 53.333333%, 53.333333%)" stroke-opacity="1" stroke-miterlimit="10" d="M -4.360228 3.474436 C -2.796107 3.474436 -1.231985 3.474436 0.332137 3.474436 " transform="matrix(59.992738, 0, 0, -59.892812, 355, 233)"/>
<path fill-rule="nonzero" fill="rgb(53.333333%, 53.333333%, 53.333333%)" fill-opacity="1" stroke-width="0.03" stroke-linecap="butt" stroke-linejoin="miter" stroke="rgb(53.333333%, 53.333333%, 53.333333%)" stroke-opacity="1" stroke-miterlimit="10" d="M -4.511614 3.474436 C -4.430875 3.43413 -4.350136 3.393758 -4.269462 3.353387 C -4.299739 3.393758 -4.329951 3.43413 -4.360228 3.474436 C -4.329951 3.514808 -4.299739 3.555179 -4.269462 3.595551 C -4.350136 3.555179 -4.430875 3.514808 -4.511614 3.474436 Z M -4.511614 3.474436 " transform="matrix(59.992738, 0, 0, -59.892812, 355, 233)"/>
<path fill-rule="nonzero" fill="rgb(53.333333%, 53.333333%, 53.333333%)" fill-opacity="1" stroke-width="0.03" stroke-linecap="butt" stroke-linejoin="miter" stroke="rgb(53.333333%, 53.333333%, 53.333333%)" stroke-opacity="1" stroke-miterlimit="10" d="M 0.488405 3.474436 C 0.405062 3.516112 0.321719 3.557788 0.238375 3.599464 C 0.269629 3.557788 0.300883 3.516112 0.332137 3.474436 C 0.300883 3.432825 0.269629 3.391149 0.238375 3.349473 C 0.321719 3.391149 0.405062 3.432825 0.488405 3.474436 Z M 0.488405 3.474436 " transform="matrix(59.992738, 0, 0, -59.892812, 355, 233)"/>
<path fill="none" stroke-width="0.02" stroke-linecap="butt" stroke-linejoin="miter" stroke="rgb(53.333333%, 53.333333%, 53.333333%)" stroke-opacity="1" stroke-miterlimit="10" d="M 0.639726 3.474436 C 2.203847 3.474436 3.767969 3.474436 5.332156 3.474436 " transform="matrix(59.992738, 0, 0, -59.892812, 355, 233)"/>
<path fill-rule="nonzero" fill="rgb(53.333333%, 53.333333%, 53.333333%)" fill-opacity="1" stroke-width="0.03" stroke-linecap="butt" stroke-linejoin="miter" stroke="rgb(53.333333%, 53.333333%, 53.333333%)" stroke-opacity="1" stroke-miterlimit="10" d="M 0.488405 3.474436 C 0.569079 3.43413 0.649818 3.393758 0.730557 3.353387 C 0.70028 3.393758 0.670003 3.43413 0.639726 3.474436 C 0.670003 3.514808 0.70028 3.555179 0.730557 3.595551 C 0.649818 3.555179 0.569079 3.514808 0.488405 3.474436 Z M 0.488405 3.474436 " transform="matrix(59.992738, 0, 0, -59.892812, 355, 233)"/>
<path fill-rule="nonzero" fill="rgb(53.333333%, 53.333333%, 53.333333%)" fill-opacity="1" stroke-width="0.03" stroke-linecap="butt" stroke-linejoin="miter" stroke="rgb(53.333333%, 53.333333%, 53.333333%)" stroke-opacity="1" stroke-miterlimit="10" d="M 5.48836 3.474436 C 5.405016 3.516112 5.321738 3.557788 5.238394 3.599464 C 5.269648 3.557788 5.300902 3.516112 5.332156 3.474436 C 5.300902 3.432825 5.269648 3.391149 5.238394 3.349473 C 5.321738 3.391149 5.405016 3.432825 5.48836 3.474436 Z M 5.48836 3.474436 " transform="matrix(59.992738, 0, 0, -59.892812, 355, 233)"/>
<path fill-rule="nonzero" fill="rgb(53.333333%, 53.333333%, 53.333333%)" fill-opacity="1" d="M 220.09375 16.410156 C 220.5625 16.410156 221.171875 16.679688 221.921875 17.207031 C 222.671875 17.734375 223.257812 17.992188 223.667969 17.992188 C 224.605469 17.992188 225.410156 17.582031 226.113281 16.75 C 226.816406 15.933594 227.15625 14.914062 227.15625 13.710938 C 227.15625 11.605469 226.042969 10.09375 223.796875 9.171875 C 222.554688 8.65625 221.394531 8.398438 220.316406 8.398438 C 220.140625 8.398438 220.023438 8.386719 219.976562 8.375 C 219.929688 8.363281 219.882812 8.328125 219.8125 8.246094 C 219.835938 8.1875 219.847656 8.128906 219.859375 8.082031 C 219.871094 8.035156 219.882812 8 219.90625 7.953125 C 220.792969 6.015625 221.679688 4.078125 222.566406 2.140625 C 224.3125 2.140625 226.054688 2.140625 227.800781 2.140625 C 228.058594 2.140625 228.257812 2.09375 228.398438 2 C 228.539062 1.90625 228.726562 1.742188 228.960938 1.496094 C 229.023438 1.554688 229.085938 1.613281 229.148438 1.671875 C 228.832031 2.425781 228.515625 3.179688 228.199219 3.929688 C 228.164062 4 228.082031 4.046875 227.929688 4.070312 C 227.789062 4.09375 227.625 4.09375 227.449219 4.09375 C 225.875 4.09375 224.304688 4.09375 222.730469 4.09375 C 222.386719 4.808594 222.042969 5.519531 221.699219 6.234375 C 223.035156 6.457031 224.007812 6.667969 224.628906 6.878906 C 225.644531 7.21875 226.488281 7.71875 227.179688 8.386719 C 227.765625 8.960938 228.199219 9.617188 228.503906 10.328125 C 228.808594 11.054688 228.960938 11.816406 228.960938 12.609375 C 228.960938 14.410156 228.316406 15.910156 227.039062 17.113281 C 225.75 18.320312 224.136719 18.914062 222.167969 18.914062 C 221.371094 18.914062 220.738281 18.832031 220.246094 18.679688 C 219.425781 18.4375 219.027344 17.980469 219.027344 17.335938 C 219.027344 17.089844 219.109375 16.867188 219.285156 16.691406 C 219.460938 16.503906 219.730469 16.410156 220.09375 16.410156 Z M 220.09375 16.410156 "/>
<path fill-rule="nonzero" fill="rgb(53.333333%, 53.333333%, 53.333333%)" fill-opacity="1" d="M 230.625 18.332031 C 231.257812 18.273438 231.691406 18.167969 231.902344 18.015625 C 232.230469 17.78125 232.382812 17.300781 232.382812 16.597656 C 232.382812 14.496094 232.382812 12.394531 232.382812 10.292969 C 232.382812 9.699219 232.3125 9.300781 232.148438 9.113281 C 231.984375 8.925781 231.726562 8.832031 231.363281 8.832031 C 231.1875 8.832031 231.058594 8.84375 230.976562 8.867188 C 230.894531 8.878906 230.789062 8.902344 230.683594 8.949219 C 230.683594 8.804688 230.683594 8.660156 230.683594 8.515625 C 230.976562 8.417969 231.269531 8.320312 231.5625 8.222656 C 231.878906 8.117188 232.394531 7.929688 233.121094 7.648438 C 233.847656 7.382812 234.222656 7.242188 234.269531 7.242188 C 234.304688 7.242188 234.328125 7.265625 234.339844 7.300781 C 234.351562 7.347656 234.351562 7.417969 234.351562 7.535156 C 234.351562 8.082031 234.351562 8.632812 234.351562 9.183594 C 235.160156 8.445312 235.851562 7.941406 236.4375 7.660156 C 237.023438 7.382812 237.632812 7.242188 238.242188 7.242188 C 239.085938 7.242188 239.753906 7.523438 240.246094 8.09375 C 240.503906 8.398438 240.726562 8.820312 240.890625 9.347656 C 241.5 8.738281 242.027344 8.292969 242.472656 8 C 243.246094 7.5 244.03125 7.242188 244.839844 7.242188 C 246.152344 7.242188 247.019531 7.777344 247.464844 8.832031 C 247.710938 9.441406 247.839844 10.386719 247.839844 11.6875 C 247.839844 13.375 247.839844 15.0625 247.839844 16.75 C 247.839844 17.324219 247.96875 17.710938 248.226562 17.921875 C 248.484375 18.132812 248.941406 18.261719 249.609375 18.332031 C 249.609375 18.4375 249.609375 18.542969 249.609375 18.644531 C 247.773438 18.644531 245.9375 18.644531 244.101562 18.644531 C 244.101562 18.535156 244.101562 18.421875 244.101562 18.308594 C 244.816406 18.238281 245.273438 18.097656 245.507812 17.875 C 245.730469 17.664062 245.835938 17.207031 245.835938 16.539062 C 245.835938 14.789062 245.835938 13.039062 245.835938 11.289062 C 245.835938 10.503906 245.753906 9.917969 245.578125 9.546875 C 245.285156 8.878906 244.6875 8.539062 243.808594 8.539062 C 243.28125 8.539062 242.753906 8.714844 242.238281 9.066406 C 241.933594 9.277344 241.570312 9.59375 241.125 10.046875 C 241.125 12.125 241.125 14.203125 241.125 16.285156 C 241.125 16.9375 241.242188 17.441406 241.476562 17.78125 C 241.710938 18.121094 242.191406 18.308594 242.941406 18.332031 C 242.941406 18.4375 242.941406 18.542969 242.941406 18.644531 C 241.074219 18.644531 239.207031 18.644531 237.339844 18.644531 C 237.339844 18.542969 237.339844 18.4375 237.339844 18.332031 C 238.113281 18.238281 238.605469 18.050781 238.816406 17.769531 C 239.027344 17.488281 239.132812 16.808594 239.132812 15.734375 C 239.132812 14.59375 239.132812 13.457031 239.132812 12.316406 C 239.132812 11.066406 239.050781 10.210938 238.898438 9.746094 C 238.628906 8.949219 238.054688 8.539062 237.1875 8.539062 C 236.683594 8.539062 236.203125 8.679688 235.722656 8.949219 C 235.242188 9.230469 234.820312 9.582031 234.445312 10.023438 C 234.445312 12.242188 234.445312 14.460938 234.445312 16.679688 C 234.445312 17.300781 234.5625 17.734375 234.773438 17.96875 C 234.984375 18.203125 235.464844 18.320312 236.179688 18.332031 C 236.179688 18.4375 236.179688 18.542969 236.179688 18.644531 C 234.328125 18.644531 232.476562 18.644531 230.625 18.644531 C 230.625 18.542969 230.625 18.4375 230.625 18.332031 Z M 230.625 18.332031 "/>
<path fill-rule="nonzero" fill="rgb(53.333333%, 53.333333%, 53.333333%)" fill-opacity="1" d="M 520.054688 16.410156 C 520.523438 16.410156 521.132812 16.679688 521.882812 17.207031 C 522.632812 17.734375 523.21875 17.992188 523.628906 17.992188 C 524.566406 17.992188 525.375 17.582031 526.078125 16.75 C 526.78125 15.933594 527.121094 14.914062 527.121094 13.710938 C 527.121094 11.605469 526.007812 10.09375 523.757812 9.171875 C 522.515625 8.65625 521.355469 8.398438 520.277344 8.398438 C 520.101562 8.398438 519.984375 8.386719 519.9375 8.375 C 519.890625 8.363281 519.84375 8.328125 519.773438 8.246094 C 519.796875 8.1875 519.808594 8.128906 519.820312 8.082031 C 519.832031 8.035156 519.84375 8 519.867188 7.953125 C 520.753906 6.015625 521.640625 4.078125 522.527344 2.140625 C 524.273438 2.140625 526.019531 2.140625 527.765625 2.140625 C 528.023438 2.140625 528.222656 2.09375 528.363281 2 C 528.503906 1.90625 528.691406 1.742188 528.925781 1.496094 C 528.988281 1.554688 529.050781 1.613281 529.113281 1.671875 C 528.796875 2.425781 528.480469 3.179688 528.164062 3.929688 C 528.128906 4 528.046875 4.046875 527.894531 4.070312 C 527.753906 4.09375 527.589844 4.09375 527.414062 4.09375 C 525.839844 4.09375 524.265625 4.09375 522.691406 4.09375 C 522.347656 4.808594 522.003906 5.519531 521.660156 6.234375 C 522.996094 6.457031 523.96875 6.667969 524.589844 6.878906 C 525.609375 7.21875 526.453125 7.71875 527.144531 8.386719 C 527.730469 8.960938 528.164062 9.617188 528.46875 10.328125 C 528.773438 11.054688 528.925781 11.816406 528.925781 12.609375 C 528.925781 14.410156 528.28125 15.910156 527.003906 17.113281 C 525.714844 18.320312 524.097656 18.914062 522.128906 18.914062 C 521.332031 18.914062 520.699219 18.832031 520.207031 18.679688 C 519.386719 18.4375 518.988281 17.980469 518.988281 17.335938 C 518.988281 17.089844 519.070312 16.867188 519.246094 16.691406 C 519.421875 16.503906 519.691406 16.410156 520.054688 16.410156 Z M 520.054688 16.410156 "/>
<path fill-rule="nonzero" fill="rgb(53.333333%, 53.333333%, 53.333333%)" fill-opacity="1" d="M 530.589844 18.332031 C 531.222656 18.273438 531.65625 18.167969 531.867188 18.015625 C 532.195312 17.78125 532.347656 17.300781 532.347656 16.597656 C 532.347656 14.496094 532.347656 12.394531 532.347656 10.292969 C 532.347656 9.699219 532.277344 9.300781 532.113281 9.113281 C 531.949219 8.925781 531.691406 8.832031 531.328125 8.832031 C 531.152344 8.832031 531.023438 8.84375 530.941406 8.867188 C 530.859375 8.878906 530.753906 8.902344 530.648438 8.949219 C 530.648438 8.804688 530.648438 8.660156 530.648438 8.515625 C 530.941406 8.417969 531.234375 8.320312 531.527344 8.222656 C 531.84375 8.117188 532.359375 7.929688 533.085938 7.648438 C 533.8125 7.382812 534.1875 7.242188 534.234375 7.242188 C 534.269531 7.242188 534.292969 7.265625 534.304688 7.300781 C 534.316406 7.347656 534.316406 7.417969 534.316406 7.535156 C 534.316406 8.082031 534.316406 8.632812 534.316406 9.183594 C 535.125 8.445312 535.816406 7.941406 536.402344 7.660156 C 536.988281 7.382812 537.597656 7.242188 538.207031 7.242188 C 539.050781 7.242188 539.71875 7.523438 540.210938 8.09375 C 540.46875 8.398438 540.691406 8.820312 540.855469 9.347656 C 541.464844 8.738281 541.992188 8.292969 542.4375 8 C 543.210938 7.5 543.996094 7.242188 544.804688 7.242188 C 546.117188 7.242188 546.984375 7.777344 547.425781 8.832031 C 547.671875 9.441406 547.800781 10.386719 547.800781 11.6875 C 547.800781 13.375 547.800781 15.0625 547.800781 16.75 C 547.800781 17.324219 547.929688 17.710938 548.1875 17.921875 C 548.445312 18.132812 548.902344 18.261719 549.570312 18.332031 C 549.570312 18.4375 549.570312 18.542969 549.570312 18.644531 C 547.734375 18.644531 545.902344 18.644531 544.066406 18.644531 C 544.066406 18.535156 544.066406 18.421875 544.066406 18.308594 C 544.78125 18.238281 545.238281 18.097656 545.472656 17.875 C 545.695312 17.664062 545.800781 17.207031 545.800781 16.539062 C 545.800781 14.789062 545.800781 13.039062 545.800781 11.289062 C 545.800781 10.503906 545.71875 9.917969 545.542969 9.546875 C 545.25 8.878906 544.652344 8.539062 543.773438 8.539062 C 543.246094 8.539062 542.71875 8.714844 542.203125 9.066406 C 541.898438 9.277344 541.535156 9.59375 541.089844 10.046875 C 541.089844 12.125 541.089844 14.203125 541.089844 16.285156 C 541.089844 16.9375 541.207031 17.441406 541.441406 17.78125 C 541.675781 18.121094 542.15625 18.308594 542.90625 18.332031 C 542.90625 18.4375 542.90625 18.542969 542.90625 18.644531 C 541.039062 18.644531 539.171875 18.644531 537.304688 18.644531 C 537.304688 18.542969 537.304688 18.4375 537.304688 18.332031 C 538.078125 18.238281 538.570312 18.050781 538.78125 17.769531 C 538.992188 17.488281 539.097656 16.808594 539.097656 15.734375 C 539.097656 14.59375 539.097656 13.457031 539.097656 12.316406 C 539.097656 11.066406 539.015625 10.210938 538.863281 9.746094 C 538.59375 8.949219 538.019531 8.539062 537.152344 8.539062 C 536.648438 8.539062 536.167969 8.679688 535.6875 8.949219 C 535.207031 9.230469 534.785156 9.582031 534.410156 10.023438 C 534.410156 12.242188 534.410156 14.460938 534.410156 16.679688 C 534.410156 17.300781 534.527344 17.734375 534.738281 17.96875 C 534.949219 18.203125 535.429688 18.320312 536.144531 18.332031 C 536.144531 18.4375 536.144531 18.542969 536.144531 18.644531 C 534.292969 18.644531 532.441406 18.644531 530.589844 18.644531 C 530.589844 18.542969 530.589844 18.4375 530.589844 18.332031 Z M 530.589844 18.332031 "/>
<path fill="none" stroke-width="0.02" stroke-linecap="butt" stroke-linejoin="miter" stroke="rgb(53.333333%, 53.333333%, 53.333333%)" stroke-opacity="1" stroke-miterlimit="10" d="M -5.282605 -2.213916 C -5.282605 -0.649794 -5.282605 0.914329 -5.282605 2.478451 " transform="matrix(59.992738, 0, 0, -59.892812, 355, 233)"/>
<path fill-rule="nonzero" fill="rgb(53.333333%, 53.333333%, 53.333333%)" fill-opacity="1" stroke-width="0.03" stroke-linecap="butt" stroke-linejoin="miter" stroke="rgb(53.333333%, 53.333333%, 53.333333%)" stroke-opacity="1" stroke-miterlimit="10" d="M -5.282605 -2.365293 C -5.242236 -2.28455 -5.201867 -2.203807 -5.161497 -2.123064 C -5.201867 -2.153391 -5.242236 -2.183654 -5.282605 -2.213916 C -5.322975 -2.183654 -5.363344 -2.153391 -5.403714 -2.123064 C -5.363344 -2.203807 -5.322975 -2.28455 -5.282605 -2.365293 Z M -5.282605 -2.365293 " transform="matrix(59.992738, 0, 0, -59.892812, 355, 233)"/>
<path fill-rule="nonzero" fill="rgb(53.333333%, 53.333333%, 53.333333%)" fill-opacity="1" stroke-width="0.03" stroke-linecap="butt" stroke-linejoin="miter" stroke="rgb(53.333333%, 53.333333%, 53.333333%)" stroke-opacity="1" stroke-miterlimit="10" d="M -5.282605 2.63472 C -5.324277 2.551368 -5.365949 2.468081 -5.407621 2.384729 C -5.365949 2.41597 -5.324277 2.44721 -5.282605 2.478451 C -5.240934 2.44721 -5.199262 2.41597 -5.15759 2.384729 C -5.199262 2.468081 -5.240934 2.551368 -5.282605 2.63472 Z M -5.282605 2.63472 " transform="matrix(59.992738, 0, 0, -59.892812, 355, 233)"/>
<path fill-rule="nonzero" fill="rgb(53.333333%, 53.333333%, 53.333333%)" fill-opacity="1" d="M 2.566406 231.136719 C 3.035156 231.136719 3.644531 231.40625 4.394531 231.933594 C 5.144531 232.457031 5.730469 232.714844 6.140625 232.714844 C 7.078125 232.714844 7.886719 232.308594 8.589844 231.476562 C 9.292969 230.65625 9.632812 229.640625 9.632812 228.433594 C 9.632812 226.328125 8.519531 224.820312 6.269531 223.894531 C 5.027344 223.382812 3.867188 223.125 2.789062 223.125 C 2.613281 223.125 2.496094 223.113281 2.449219 223.101562 C 2.402344 223.089844 2.355469 223.054688 2.285156 222.972656 C 2.308594 222.914062 2.320312 222.855469 2.332031 222.808594 C 2.34375 222.761719 2.355469 222.726562 2.378906 222.679688 C 3.265625 220.742188 4.152344 218.804688 5.039062 216.867188 C 6.785156 216.867188 8.53125 216.867188 10.277344 216.867188 C 10.535156 216.867188 10.734375 216.820312 10.875 216.726562 C 11.015625 216.632812 11.203125 216.46875 11.4375 216.222656 C 11.5 216.28125 11.5625 216.339844 11.625 216.398438 C 11.308594 217.152344 10.992188 217.902344 10.675781 218.65625 C 10.640625 218.726562 10.558594 218.773438 10.40625 218.796875 C 10.265625 218.820312 10.101562 218.820312 9.925781 218.820312 C 8.351562 218.820312 6.777344 218.820312 5.203125 218.820312 C 4.859375 219.53125 4.515625 220.246094 4.171875 220.960938 C 5.507812 221.183594 6.480469 221.394531 7.101562 221.601562 C 8.121094 221.941406 8.964844 222.445312 9.65625 223.113281 C 10.242188 223.6875 10.675781 224.339844 10.980469 225.054688 C 11.285156 225.78125 11.4375 226.539062 11.4375 227.335938 C 11.4375 229.136719 10.792969 230.632812 9.515625 231.839844 C 8.226562 233.042969 6.609375 233.640625 4.640625 233.640625 C 3.84375 233.640625 3.210938 233.558594 2.71875 233.40625 C 1.898438 233.160156 1.5 232.703125 1.5 232.0625 C 1.5 231.816406 1.582031 231.59375 1.757812 231.417969 C 1.933594 231.230469 2.203125 231.136719 2.566406 231.136719 Z M 2.566406 231.136719 "/>
<path fill-rule="nonzero" fill="rgb(53.333333%, 53.333333%, 53.333333%)" fill-opacity="1" d="M 13.101562 233.054688 C 13.734375 232.996094 14.167969 232.890625 14.378906 232.738281 C 14.707031 232.503906 14.859375 232.027344 14.859375 231.324219 C 14.859375 229.222656 14.859375 227.121094 14.859375 225.019531 C 14.859375 224.421875 14.789062 224.023438 14.625 223.835938 C 14.460938 223.652344 14.203125 223.558594 13.839844 223.558594 C 13.664062 223.558594 13.535156 223.570312 13.453125 223.59375 C 13.371094 223.605469 13.265625 223.628906 13.160156 223.675781 C 13.160156 223.53125 13.160156 223.386719 13.160156 223.242188 C 13.453125 223.144531 13.746094 223.046875 14.039062 222.949219 C 14.355469 222.84375 14.871094 222.65625 15.597656 222.375 C 16.320312 222.105469 16.695312 221.964844 16.742188 221.964844 C 16.777344 221.964844 16.800781 221.988281 16.8125 222.023438 C 16.824219 222.070312 16.824219 222.140625 16.824219 222.257812 C 16.824219 222.808594 16.824219 223.359375 16.824219 223.90625 C 17.632812 223.171875 18.324219 222.667969 18.910156 222.386719 C 19.496094 222.105469 20.105469 221.964844 20.714844 221.964844 C 21.558594 221.964844 22.226562 222.246094 22.71875 222.820312 C 22.976562 223.125 23.199219 223.546875 23.363281 224.070312 C 23.972656 223.464844 24.5 223.019531 24.945312 222.726562 C 25.71875 222.222656 26.503906 221.964844 27.3125 221.964844 C 28.625 221.964844 29.492188 222.503906 29.9375 223.558594 C 30.183594 224.164062 30.3125 225.113281 30.3125 226.410156 C 30.3125 228.097656 30.3125 229.789062 30.3125 231.476562 C 30.3125 232.050781 30.441406 232.4375 30.699219 232.644531 C 30.957031 232.855469 31.414062 232.984375 32.082031 233.054688 C 32.082031 233.160156 32.082031 233.265625 32.082031 233.371094 C 30.246094 233.371094 28.410156 233.371094 26.574219 233.371094 C 26.574219 233.257812 26.574219 233.144531 26.574219 233.03125 C 27.289062 232.960938 27.746094 232.820312 27.980469 232.597656 C 28.203125 232.390625 28.308594 231.933594 28.308594 231.265625 C 28.308594 229.515625 28.308594 227.765625 28.308594 226.011719 C 28.308594 225.230469 28.226562 224.644531 28.050781 224.269531 C 27.757812 223.605469 27.160156 223.265625 26.28125 223.265625 C 25.753906 223.265625 25.226562 223.441406 24.710938 223.789062 C 24.40625 224 24.042969 224.316406 23.597656 224.773438 C 23.597656 226.851562 23.597656 228.929688 23.597656 231.007812 C 23.597656 231.664062 23.714844 232.167969 23.949219 232.503906 C 24.183594 232.84375 24.664062 233.03125 25.414062 233.054688 C 25.414062 233.160156 25.414062 233.265625 25.414062 233.371094 C 23.546875 233.371094 21.679688 233.371094 19.8125 233.371094 C 19.8125 233.265625 19.8125 233.160156 19.8125 233.054688 C 20.585938 232.960938 21.078125 232.773438 21.289062 232.492188 C 21.5 232.214844 21.605469 231.535156 21.605469 230.457031 C 21.605469 229.320312 21.605469 228.179688 21.605469 227.042969 C 21.605469 225.792969 21.523438 224.9375 21.371094 224.46875 C 21.101562 223.675781 20.527344 223.265625 19.660156 223.265625 C 19.15625 223.265625 18.675781 223.40625 18.195312 223.675781 C 17.714844 223.953125 17.292969 224.304688 16.917969 224.75 C 16.917969 226.96875 16.917969 229.1875 16.917969 231.40625 C 16.917969 232.027344 17.035156 232.457031 17.246094 232.691406 C 17.457031 232.925781 17.9375 233.042969 18.652344 233.054688 C 18.652344 233.160156 18.652344 233.265625 18.652344 233.371094 C 16.800781 233.371094 14.953125 233.371094 13.101562 233.371094 C 13.101562 233.265625 13.101562 233.160156 13.101562 233.054688 Z M 13.101562 233.054688 "/>
</svg>
