<?xml version="1.0" encoding="UTF-8"?>
<svg xmlns="http://www.w3.org/2000/svg" xmlns:xlink="http://www.w3.org/1999/xlink" width="671" height="452" viewBox="0 0 671 452">
<path fill="none" stroke-width="0.04" stroke-linecap="butt" stroke-linejoin="miter" stroke="rgb(0%, 0%, 0%)" stroke-opacity="1" stroke-miterlimit="10" d="M -4.999978 -1.791832 C -3.333362 -1.791832 -1.666681 -1.791832 0 -1.791832 " transform="matrix(59.971361, 0, 0, -59.900736, 335.5, 226)"/>
<path fill="none" stroke-width="0.04" stroke-linecap="butt" stroke-linejoin="miter" stroke="rgb(0%, 0%, 0%)" stroke-opacity="1" stroke-miterlimit="10" d="M 0 -1.791832 C 1.666681 -1.791832 3.333362 -1.791832 4.999978 -1.791832 " transform="matrix(59.971361, 0, 0, -59.900736, 335.5, 226)"/>
<path fill="none" stroke-width="0.04" stroke-linecap="butt" stroke-linejoin="miter" stroke="rgb(0%, 0%, 0%)" stroke-opacity="1" stroke-miterlimit="10" d="M 4.999978 -1.791832 C 3.333362 -0.125142 1.666681 1.541483 0 3.208172 " transform="matrix(59.971361, 0, 0, -59.900736, 335.5, 226)"/>
<path fill="none" stroke-width="0.04" stroke-linecap="butt" stroke-linejoin="miter" stroke="rgb(0%, 0%, 0%)" stroke-opacity="1" stroke-miterlimit="10" d="M 0 3.208172 C -1.666681 1.541483 -3.333362 -0.125142 -4.999978 -1.791832 " transform="matrix(59.971361, 0, 0, -59.900736, 335.5, 226)"/>
<path fill="none" stroke-width="0.04" stroke-linecap="butt" stroke-linejoin="miter" stroke="rgb(0%, 0%, 0%)" stroke-opacity="1" stroke-miterlimit="10" d="M 0 -1.791832 C 0 -0.125142 0 1.541483 0 3.208172 " transform="matrix(59.971361, 0, 0, -59.900736, 335.5, 226)"/>
<path fill="none" stroke-width="0.04" stroke-linecap="butt" stroke-linejoin="miter" stroke="rgb(0%, 0%, 0%)" stroke-opacity="1" stroke-miterlimit="10" d="M -4.999978 -1.791832 C -5.096248 -1.958514 -5.192452 -2.125196 -5.288657 -2.291812 C -5.096248 -2.291812 -4.903773 -2.291812 -4.711298 -2.291812 C -4.807568 -2.125196 -4.903773 -1.958514 -4.999978 -1.791832 Z M -4.999978 -1.791832 " transform="matrix(59.971361, 0, 0, -59.900736, 335.5, 226)"/>
<path fill="none" stroke-width="0.04" stroke-linecap="butt" stroke-linejoin="miter" stroke="rgb(0%, 0%, 0%)" stroke-opacity="1" stroke-miterlimit="10" d="M -4.566959 -2.291812 C -4.855638 -2.291812 -5.144317 -2.291812 -5.432997 -2.291812 " transform="matrix(59.971361, 0, 0, -59.900736, 335.5, 226)"/>
<path fill="none" stroke-width="0.04" stroke-linecap="butt" stroke-linejoin="miter" stroke="rgb(0%, 0%, 0%)" stroke-opacity="1" stroke-miterlimit="10" d="M 5.250032 -2.041855 C 5.250032 -1.975534 5.223652 -1.911952 5.176755 -1.865065 C 5.129923 -1.818177 5.066285 -1.791832 4.999978 -1.791832 C 4.93367 -1.791832 4.870098 -1.818177 4.823201 -1.865065 C 4.776368 -1.911952 4.749989 -1.975534 4.749989 -2.041855 C 4.749989 -2.10811 4.776368 -2.171757 4.823201 -2.218644 C 4.870098 -2.265467 4.93367 -2.291812 4.999978 -2.291812 C 5.066285 -2.291812 5.129923 -2.265467 5.176755 -2.218644 C 5.223652 -2.171757 5.250032 -2.10811 5.250032 -2.041855 Z M 5.250032 -2.041855 " transform="matrix(59.971361, 0, 0, -59.900736, 335.5, 226)"/>
<path fill="none" stroke-width="0.04" stroke-linecap="butt" stroke-linejoin="miter" stroke="rgb(0%, 0%, 0%)" stroke-opacity="1" stroke-miterlimit="10" d="M 5.375027 -2.291812 C 5.124972 -2.291812 4.874983 -2.291812 4.624994 -2.291812 " transform="matrix(59.971361, 0, 0, -59.900736, 335.5, 226)"/>
<path fill-rule="nonzero" fill="rgb(0%, 0%, 0%)" fill-opacity="1" d="M 41.640625 333.332031 C 41.640625 331.742188 41.007812 330.21875 39.882812 329.097656 C 38.757812 327.972656 37.234375 327.34375 35.644531 327.34375 C 34.050781 327.34375 32.527344 327.972656 31.402344 329.097656 C 30.277344 330.21875 29.644531 331.742188 29.644531 333.332031 C 29.644531 334.921875 30.277344 336.445312 31.402344 337.566406 C 32.527344 338.691406 34.050781 339.324219 35.644531 339.324219 C 37.234375 339.324219 38.757812 338.691406 39.882812 337.566406 C 41.007812 336.445312 41.640625 334.921875 41.640625 333.332031 Z M 41.640625 333.332031 "/>
<path fill-rule="nonzero" fill="rgb(0%, 0%, 0%)" fill-opacity="1" d="M 341.496094 333.332031 C 341.496094 331.742188 340.867188 330.21875 339.742188 329.097656 C 338.617188 327.972656 337.089844 327.34375 335.5 327.34375 C 333.910156 327.34375 332.382812 327.972656 331.257812 329.097656 C 330.132812 330.21875 329.503906 331.742188 329.503906 333.332031 C 329.503906 334.921875 330.132812 336.445312 331.257812 337.566406 C 332.382812 338.691406 333.910156 339.324219 335.5 339.324219 C 337.089844 339.324219 338.617188 338.691406 339.742188 337.566406 C 340.867188 336.445312 341.496094 334.921875 341.496094 333.332031 Z M 341.496094 333.332031 "/>
<path fill-rule="nonzero" fill="rgb(0%, 0%, 0%)" fill-opacity="1" d="M 641.355469 333.332031 C 641.355469 331.742188 640.722656 330.21875 639.597656 329.097656 C 638.472656 327.972656 636.949219 327.34375 635.355469 327.34375 C 633.765625 327.34375 632.242188 327.972656 631.117188 329.097656 C 629.992188 330.21875 629.359375 331.742188 629.359375 333.332031 C 629.359375 334.921875 629.992188 336.445312 631.117188 337.566406 C 632.242188 338.691406 633.765625 339.324219 635.355469 339.324219 C 636.949219 339.324219 638.472656 338.691406 639.597656 337.566406 C 640.722656 336.445312 641.355469 334.921875 641.355469 333.332031 Z M 641.355469 333.332031 "/>
<path fill-rule="nonzero" fill="rgb(0%, 0%, 0%)" fill-opacity="1" d="M 341.496094 33.828125 C 341.496094 32.238281 340.867188 30.714844 339.742188 29.59375 C 338.617188 28.46875 337.089844 27.839844 335.5 27.839844 C 333.910156 27.839844 332.382812 28.46875 331.257812 29.59375 C 330.132812 30.714844 329.503906 32.238281 329.503906 33.828125 C 329.503906 35.417969 330.132812 36.941406 331.257812 38.0625 C 332.382812 39.1875 333.910156 39.820312 335.5 39.820312 C 337.089844 39.820312 338.617188 39.1875 339.742188 38.0625 C 340.867188 36.941406 341.496094 35.417969 341.496094 33.828125 Z M 341.496094 33.828125 "/>
<path fill="none" stroke-width="0.04" stroke-linecap="butt" stroke-linejoin="miter" stroke="rgb(98.823529%, 38.431373%, 33.333333%)" stroke-opacity="1" stroke-miterlimit="10" d="M 0 -1.791832 C 0 -2.141825 0 -2.491818 0 -2.841811 " transform="matrix(59.971361, 0, 0, -59.900736, 335.5, 226)"/>
<path fill-rule="nonzero" fill="rgb(98.823529%, 38.431373%, 33.333333%)" fill-opacity="1" d="M 335.5 423.183594 C 338.5 414.199219 341.496094 405.214844 344.496094 396.226562 C 338.5 396.226562 332.5 396.226562 326.503906 396.226562 C 329.503906 405.214844 332.5 414.199219 335.5 423.183594 Z M 335.5 423.183594 "/>
<path fill-rule="nonzero" fill="rgb(0%, 0%, 0%)" fill-opacity="1" d="M 36.738281 301 C 36.773438 301.035156 36.796875 301.070312 36.796875 301.09375 C 36.796875 301.105469 36.796875 301.152344 36.796875 301.234375 C 36.796875 306.125 36.796875 311.015625 36.796875 315.90625 C 36.796875 316.527344 36.972656 316.925781 37.300781 317.097656 C 37.640625 317.261719 38.261719 317.367188 39.175781 317.402344 C 39.175781 317.515625 39.175781 317.628906 39.175781 317.742188 C 36.878906 317.742188 34.582031 317.742188 32.289062 317.742188 C 32.289062 317.621094 32.289062 317.5 32.289062 317.378906 C 33.269531 317.332031 33.914062 317.191406 34.21875 316.972656 C 34.511719 316.761719 34.664062 316.28125 34.664062 315.554688 C 34.664062 311.792969 34.664062 308.027344 34.664062 304.265625 C 34.664062 303.878906 34.617188 303.574219 34.523438 303.375 C 34.417969 303.175781 34.207031 303.070312 33.878906 303.070312 C 33.667969 303.070312 33.398438 303.128906 33.058594 303.246094 C 32.722656 303.363281 32.40625 303.492188 32.113281 303.621094 C 32.113281 303.507812 32.113281 303.394531 32.113281 303.28125 C 33.605469 302.523438 35.101562 301.761719 36.597656 301 C 36.644531 301 36.691406 301 36.738281 301 Z M 36.738281 301 "/>
<path fill-rule="nonzero" fill="rgb(0%, 0%, 0%)" fill-opacity="1" d="M 353.941406 317.496094 C 356.917969 314.410156 358.933594 312.140625 360 310.699219 C 361.0625 309.25 361.601562 307.84375 361.601562 306.464844 C 361.601562 305.261719 361.273438 304.347656 360.617188 303.714844 C 359.976562 303.09375 359.191406 302.78125 358.289062 302.78125 C 357.175781 302.78125 356.273438 303.175781 355.582031 303.996094 C 355.195312 304.441406 354.832031 305.132812 354.480469 306.054688 C 354.308594 306.019531 354.136719 305.984375 353.964844 305.949219 C 354.363281 304.078125 355.054688 302.78125 356.027344 302.054688 C 357 301.328125 358.042969 300.964844 359.15625 300.964844 C 360.535156 300.964844 361.648438 301.398438 362.492188 302.253906 C 363.347656 303.117188 363.769531 304.183594 363.769531 305.433594 C 363.769531 306.769531 363.3125 308.042969 362.386719 309.285156 C 361.472656 310.523438 359.472656 312.710938 356.402344 315.882812 C 358.269531 315.882812 360.132812 315.882812 362 315.882812 C 362.785156 315.882812 363.335938 315.789062 363.652344 315.601562 C 363.96875 315.414062 364.320312 314.957031 364.71875 314.234375 C 364.824219 314.28125 364.929688 314.328125 365.035156 314.375 C 364.585938 315.507812 364.136719 316.644531 363.6875 317.777344 C 360.4375 317.777344 357.191406 317.777344 353.941406 317.777344 C 353.941406 317.683594 353.941406 317.589844 353.941406 317.496094 Z M 353.941406 317.496094 "/>
<path fill-rule="nonzero" fill="rgb(0%, 0%, 0%)" fill-opacity="1" d="M 631.351562 315.609375 C 631.796875 315.609375 632.382812 315.84375 633.121094 316.296875 C 633.859375 316.765625 634.476562 317 634.992188 317 C 636.128906 317 636.984375 316.613281 637.535156 315.84375 C 638.085938 315.070312 638.367188 314.238281 638.367188 313.339844 C 638.367188 312.472656 638.132812 311.699219 637.6875 311.046875 C 636.9375 309.933594 635.660156 309.371094 633.859375 309.371094 C 633.753906 309.371094 633.648438 309.382812 633.554688 309.382812 C 633.460938 309.382812 633.34375 309.394531 633.214844 309.417969 C 633.207031 309.3125 633.199219 309.207031 633.191406 309.101562 C 634.488281 308.625 635.519531 308.085938 636.257812 307.476562 C 637.007812 306.867188 637.382812 306.0625 637.382812 305.066406 C 637.382812 304.175781 637.089844 303.5 636.503906 303.042969 C 635.90625 302.574219 635.238281 302.339844 634.476562 302.339844 C 633.589844 302.339844 632.804688 302.679688 632.113281 303.335938 C 631.738281 303.6875 631.339844 304.246094 630.90625 304.996094 C 630.78125 304.964844 630.65625 304.933594 630.53125 304.902344 C 630.859375 303.675781 631.457031 302.679688 632.347656 301.941406 C 633.238281 301.207031 634.253906 300.832031 635.425781 300.832031 C 636.667969 300.832031 637.628906 301.171875 638.308594 301.859375 C 638.988281 302.539062 639.328125 303.324219 639.328125 304.222656 C 639.328125 305.007812 639.046875 305.734375 638.484375 306.390625 C 638.167969 306.761719 637.675781 307.183594 637.007812 307.652344 C 637.792969 307.980469 638.414062 308.367188 638.882812 308.820312 C 639.773438 309.675781 640.21875 310.753906 640.21875 312.0625 C 640.21875 313.605469 639.609375 314.964844 638.390625 316.144531 C 637.171875 317.316406 635.449219 317.914062 633.203125 317.914062 C 632.207031 317.914062 631.503906 317.761719 631.09375 317.46875 C 630.695312 317.164062 630.496094 316.847656 630.496094 316.507812 C 630.496094 316.296875 630.554688 316.085938 630.695312 315.898438 C 630.824219 315.703125 631.046875 315.609375 631.351562 315.609375 Z M 631.351562 315.609375 "/>
<path fill-rule="nonzero" fill="rgb(0%, 0%, 0%)" fill-opacity="1" d="M 336.746094 4 C 334.75 6.820312 332.75 9.640625 330.75 12.460938 C 332.75 12.460938 334.75 12.460938 336.746094 12.460938 C 336.746094 9.640625 336.746094 6.820312 336.746094 4 Z M 337.554688 1.496094 C 337.941406 1.496094 338.328125 1.496094 338.714844 1.496094 C 338.714844 5.152344 338.714844 8.804688 338.714844 12.460938 C 339.5625 12.460938 340.410156 12.460938 341.257812 12.460938 C 341.257812 13 341.257812 13.542969 341.257812 14.085938 C 340.410156 14.085938 339.5625 14.085938 338.714844 14.085938 C 338.714844 15.46875 338.714844 16.855469 338.714844 18.238281 C 338.066406 18.238281 337.417969 18.238281 336.769531 18.238281 C 336.769531 16.855469 336.769531 15.46875 336.769531 14.085938 C 334.429688 14.085938 332.085938 14.085938 329.742188 14.085938 C 329.742188 13.542969 329.742188 13 329.742188 12.460938 C 332.347656 8.804688 334.953125 5.152344 337.554688 1.496094 Z M 337.554688 1.496094 "/>
<path fill-rule="nonzero" fill="rgb(0%, 0%, 0%)" fill-opacity="1" d="M 172.09375 315.316406 C 172.09375 312.484375 172.9375 310.003906 174.636719 307.863281 C 175.679688 306.550781 176.898438 305.5 178.316406 304.703125 C 178.394531 304.839844 178.472656 304.976562 178.550781 305.113281 C 177.238281 306.15625 176.300781 307.160156 175.738281 308.144531 C 174.753906 309.863281 174.261719 312.144531 174.261719 315 C 174.261719 317.105469 174.449219 318.847656 174.824219 320.21875 C 175.480469 322.628906 176.722656 324.429688 178.550781 325.621094 C 178.445312 325.753906 178.339844 325.886719 178.234375 326.019531 C 177.226562 325.539062 176.148438 324.605469 174.988281 323.210938 C 173.054688 320.894531 172.09375 318.261719 172.09375 315.316406 Z M 172.09375 315.316406 "/>
<path fill-rule="nonzero" fill="rgb(0%, 0%, 0%)" fill-opacity="1" d="M 187.335938 304.832031 C 187.371094 304.867188 187.394531 304.902344 187.394531 304.925781 C 187.394531 304.9375 187.394531 304.984375 187.394531 305.066406 C 187.394531 309.957031 187.394531 314.847656 187.394531 319.738281 C 187.394531 320.359375 187.570312 320.753906 187.898438 320.929688 C 188.238281 321.09375 188.855469 321.199219 189.769531 321.234375 C 189.769531 321.347656 189.769531 321.460938 189.769531 321.574219 C 187.476562 321.574219 185.179688 321.574219 182.882812 321.574219 C 182.882812 321.453125 182.882812 321.332031 182.882812 321.210938 C 183.867188 321.164062 184.511719 321.023438 184.816406 320.800781 C 185.109375 320.589844 185.261719 320.113281 185.261719 319.386719 C 185.261719 315.625 185.261719 311.859375 185.261719 308.097656 C 185.261719 307.710938 185.214844 307.40625 185.121094 307.207031 C 185.015625 307.007812 184.804688 306.902344 184.476562 306.902344 C 184.265625 306.902344 183.996094 306.960938 183.65625 307.078125 C 183.316406 307.195312 183 307.324219 182.707031 307.453125 C 182.707031 307.339844 182.707031 307.226562 182.707031 307.113281 C 184.203125 306.355469 185.699219 305.59375 187.195312 304.832031 C 187.242188 304.832031 187.289062 304.832031 187.335938 304.832031 Z M 187.335938 304.832031 "/>
<path fill-rule="nonzero" fill="rgb(0%, 0%, 0%)" fill-opacity="1" d="M 199.046875 315.433594 C 199.046875 316.636719 198.894531 317.785156 198.578125 318.871094 C 198.261719 319.949219 197.792969 320.964844 197.183594 321.925781 C 196.539062 322.953125 195.6875 323.902344 194.609375 324.792969 C 193.90625 325.375 193.308594 325.785156 192.828125 326.019531 C 192.75 325.886719 192.671875 325.753906 192.59375 325.621094 C 193.847656 324.675781 194.761719 323.703125 195.347656 322.710938 C 196.367188 320.953125 196.878906 318.636719 196.878906 315.75 C 196.878906 313.421875 196.644531 311.511719 196.167969 310.039062 C 195.511719 307.945312 194.316406 306.308594 192.59375 305.113281 C 192.699219 304.976562 192.804688 304.839844 192.910156 304.703125 C 194.199219 305.417969 195.394531 306.503906 196.503906 307.945312 C 198.203125 310.179688 199.046875 312.671875 199.046875 315.433594 Z M 199.046875 315.433594 "/>
<path fill-rule="nonzero" fill="rgb(0%, 0%, 0%)" fill-opacity="1" d="M 471.953125 315.316406 C 471.953125 312.484375 472.796875 310.003906 474.496094 307.863281 C 475.535156 306.550781 476.753906 305.5 478.171875 304.703125 C 478.25 304.839844 478.328125 304.976562 478.40625 305.113281 C 477.09375 306.15625 476.15625 307.160156 475.59375 308.144531 C 474.609375 309.863281 474.121094 312.144531 474.121094 315 C 474.121094 317.105469 474.308594 318.847656 474.679688 320.21875 C 475.335938 322.628906 476.578125 324.429688 478.40625 325.621094 C 478.300781 325.753906 478.195312 325.886719 478.089844 326.019531 C 477.082031 325.539062 476.003906 324.605469 474.84375 323.210938 C 472.914062 320.894531 471.953125 318.261719 471.953125 315.316406 Z M 471.953125 315.316406 "/>
<path fill-rule="nonzero" fill="rgb(0%, 0%, 0%)" fill-opacity="1" d="M 480.550781 321.292969 C 483.523438 318.207031 485.539062 315.933594 486.605469 314.496094 C 487.671875 313.046875 488.210938 311.640625 488.210938 310.261719 C 488.210938 309.054688 487.882812 308.144531 487.226562 307.511719 C 486.582031 306.890625 485.796875 306.574219 484.894531 306.574219 C 483.78125 306.574219 482.878906 306.972656 482.191406 307.792969 C 481.804688 308.238281 481.441406 308.925781 481.089844 309.851562 C 480.917969 309.816406 480.746094 309.78125 480.574219 309.746094 C 480.972656 307.875 481.664062 306.574219 482.636719 305.851562 C 483.605469 305.125 484.648438 304.761719 485.761719 304.761719 C 487.144531 304.761719 488.257812 305.195312 489.101562 306.050781 C 489.957031 306.914062 490.378906 307.980469 490.378906 309.230469 C 490.378906 310.566406 489.921875 311.839844 488.996094 313.082031 C 488.082031 314.320312 486.078125 316.507812 483.007812 319.679688 C 484.875 319.679688 486.742188 319.679688 488.609375 319.679688 C 489.394531 319.679688 489.945312 319.585938 490.261719 319.398438 C 490.578125 319.210938 490.925781 318.753906 491.324219 318.03125 C 491.429688 318.078125 491.535156 318.125 491.640625 318.171875 C 491.191406 319.304688 490.746094 320.441406 490.296875 321.574219 C 487.046875 321.574219 483.796875 321.574219 480.550781 321.574219 C 480.550781 321.480469 480.550781 321.386719 480.550781 321.292969 Z M 480.550781 321.292969 "/>
<path fill-rule="nonzero" fill="rgb(0%, 0%, 0%)" fill-opacity="1" d="M 498.90625 315.433594 C 498.90625 316.636719 498.753906 317.785156 498.4375 318.871094 C 498.121094 319.949219 497.652344 320.964844 497.042969 321.925781 C 496.398438 322.953125 495.542969 323.902344 494.464844 324.792969 C 493.761719 325.375 493.164062 325.785156 492.683594 326.019531 C 492.605469 325.886719 492.527344 325.753906 492.449219 325.621094 C 493.703125 324.675781 494.617188 323.703125 495.203125 322.710938 C 496.222656 320.953125 496.738281 318.636719 496.738281 315.75 C 496.738281 313.421875 496.503906 311.511719 496.023438 310.039062 C 495.367188 307.945312 494.171875 306.308594 492.449219 305.113281 C 492.554688 304.976562 492.660156 304.839844 492.765625 304.703125 C 494.054688 305.417969 495.25 306.503906 496.363281 307.945312 C 498.0625 310.179688 498.90625 312.671875 498.90625 315.433594 Z M 498.90625 315.433594 "/>
<path fill-rule="nonzero" fill="rgb(0%, 0%, 0%)" fill-opacity="1" d="M 489.945312 165.574219 C 489.945312 162.742188 490.789062 160.265625 492.484375 158.121094 C 493.527344 156.8125 494.746094 155.757812 496.164062 154.964844 C 496.242188 155.101562 496.320312 155.238281 496.398438 155.375 C 495.085938 156.414062 494.148438 157.421875 493.585938 158.402344 C 492.601562 160.125 492.109375 162.40625 492.109375 165.257812 C 492.109375 167.363281 492.296875 169.109375 492.671875 170.476562 C 493.328125 172.886719 494.570312 174.6875 496.398438 175.882812 C 496.292969 176.015625 496.1875 176.148438 496.082031 176.28125 C 495.074219 175.800781 493.996094 174.863281 492.835938 173.472656 C 490.90625 171.15625 489.945312 168.523438 489.945312 165.574219 Z M 489.945312 165.574219 "/>
<path fill-rule="nonzero" fill="rgb(0%, 0%, 0%)" fill-opacity="1" d="M 499.734375 169.71875 C 500.179688 169.71875 500.765625 169.949219 501.503906 170.40625 C 502.242188 170.875 502.863281 171.109375 503.378906 171.109375 C 504.515625 171.109375 505.371094 170.722656 505.921875 169.949219 C 506.472656 169.179688 506.753906 168.347656 506.753906 167.445312 C 506.753906 166.582031 506.519531 165.808594 506.074219 165.152344 C 505.324219 164.042969 504.046875 163.480469 502.242188 163.480469 C 502.136719 163.480469 502.03125 163.492188 501.9375 163.492188 C 501.84375 163.492188 501.726562 163.503906 501.597656 163.527344 C 501.589844 163.421875 501.582031 163.316406 501.574219 163.210938 C 502.875 162.730469 503.90625 162.195312 504.644531 161.585938 C 505.394531 160.976562 505.769531 160.171875 505.769531 159.175781 C 505.769531 158.285156 505.476562 157.609375 504.890625 157.152344 C 504.292969 156.683594 503.625 156.449219 502.863281 156.449219 C 501.972656 156.449219 501.1875 156.789062 500.496094 157.445312 C 500.121094 157.796875 499.722656 158.355469 499.289062 159.105469 C 499.164062 159.074219 499.042969 159.042969 498.917969 159.011719 C 499.242188 157.785156 499.839844 156.789062 500.730469 156.050781 C 501.621094 155.316406 502.640625 154.941406 503.8125 154.941406 C 505.054688 154.941406 506.015625 155.28125 506.695312 155.96875 C 507.371094 156.648438 507.710938 157.433594 507.710938 158.332031 C 507.710938 159.117188 507.429688 159.84375 506.871094 160.496094 C 506.554688 160.871094 506.0625 161.292969 505.394531 161.761719 C 506.179688 162.089844 506.800781 162.476562 507.269531 162.929688 C 508.15625 163.785156 508.601562 164.863281 508.601562 166.171875 C 508.601562 167.714844 507.992188 169.074219 506.777344 170.253906 C 505.558594 171.425781 503.835938 172.023438 501.585938 172.023438 C 500.589844 172.023438 499.886719 171.871094 499.476562 171.578125 C 499.082031 171.273438 498.882812 170.957031 498.882812 170.617188 C 498.882812 170.40625 498.941406 170.195312 499.082031 170.007812 C 499.207031 169.808594 499.429688 169.71875 499.734375 169.71875 Z M 499.734375 169.71875 "/>
<path fill-rule="nonzero" fill="rgb(0%, 0%, 0%)" fill-opacity="1" d="M 516.894531 165.691406 C 516.894531 166.898438 516.742188 168.042969 516.425781 169.132812 C 516.109375 170.207031 515.640625 171.226562 515.035156 172.183594 C 514.390625 173.214844 513.535156 174.164062 512.457031 175.050781 C 511.753906 175.636719 511.15625 176.046875 510.675781 176.28125 C 510.597656 176.148438 510.519531 176.015625 510.441406 175.882812 C 511.695312 174.933594 512.609375 173.964844 513.195312 172.96875 C 514.214844 171.214844 514.730469 168.898438 514.730469 166.007812 C 514.730469 163.679688 514.496094 161.773438 514.015625 160.296875 C 513.359375 158.203125 512.164062 156.566406 510.441406 155.375 C 510.546875 155.238281 510.652344 155.101562 510.757812 154.964844 C 512.046875 155.675781 513.242188 156.765625 514.355469 158.203125 C 516.050781 160.4375 516.894531 162.929688 516.894531 165.691406 Z M 516.894531 165.691406 "/>
<path fill-rule="nonzero" fill="rgb(0%, 0%, 0%)" fill-opacity="1" d="M 154.105469 165.5625 C 154.105469 162.730469 154.949219 160.253906 156.644531 158.109375 C 157.6875 156.800781 158.90625 155.746094 160.324219 154.953125 C 160.402344 155.089844 160.480469 155.226562 160.558594 155.363281 C 159.246094 156.402344 158.308594 157.410156 157.746094 158.390625 C 156.761719 160.113281 156.269531 162.394531 156.269531 165.246094 C 156.269531 167.355469 156.457031 169.097656 156.832031 170.464844 C 157.488281 172.875 158.730469 174.675781 160.558594 175.871094 C 160.453125 176.003906 160.347656 176.136719 160.242188 176.269531 C 159.234375 175.789062 158.15625 174.851562 156.996094 173.460938 C 155.066406 171.144531 154.105469 168.511719 154.105469 165.5625 Z M 154.105469 165.5625 "/>
<path fill-rule="nonzero" fill="rgb(0%, 0%, 0%)" fill-opacity="1" d="M 169.238281 157.585938 C 167.238281 160.402344 165.238281 163.222656 163.242188 166.042969 C 165.238281 166.042969 167.238281 166.042969 169.238281 166.042969 C 169.238281 163.222656 169.238281 160.402344 169.238281 157.585938 Z M 170.046875 155.082031 C 170.433594 155.082031 170.820312 155.082031 171.207031 155.082031 C 171.207031 158.734375 171.207031 162.390625 171.207031 166.042969 C 172.050781 166.042969 172.898438 166.042969 173.746094 166.042969 C 173.746094 166.585938 173.746094 167.128906 173.746094 167.667969 C 172.898438 167.667969 172.050781 167.667969 171.207031 167.667969 C 171.207031 169.054688 171.207031 170.4375 171.207031 171.824219 C 170.558594 171.824219 169.910156 171.824219 169.261719 171.824219 C 169.261719 170.4375 169.261719 169.054688 169.261719 167.667969 C 166.917969 167.667969 164.574219 167.667969 162.234375 167.667969 C 162.234375 167.128906 162.234375 166.585938 162.234375 166.042969 C 164.835938 162.390625 167.441406 158.734375 170.046875 155.082031 Z M 170.046875 155.082031 "/>
<path fill-rule="nonzero" fill="rgb(0%, 0%, 0%)" fill-opacity="1" d="M 181.054688 165.679688 C 181.054688 166.886719 180.902344 168.03125 180.585938 169.121094 C 180.269531 170.195312 179.804688 171.214844 179.195312 172.171875 C 178.550781 173.203125 177.695312 174.152344 176.617188 175.039062 C 175.914062 175.625 175.316406 176.035156 174.835938 176.269531 C 174.757812 176.136719 174.679688 176.003906 174.601562 175.871094 C 175.855469 174.921875 176.769531 173.953125 177.355469 172.957031 C 178.375 171.203125 178.890625 168.886719 178.890625 165.996094 C 178.890625 163.667969 178.65625 161.761719 178.175781 160.289062 C 177.519531 158.191406 176.324219 156.554688 174.601562 155.363281 C 174.707031 155.226562 174.8125 155.089844 174.917969 154.953125 C 176.207031 155.664062 177.402344 156.753906 178.515625 158.191406 C 180.210938 160.425781 181.054688 162.917969 181.054688 165.679688 Z M 181.054688 165.679688 "/>
<path fill-rule="nonzero" fill="rgb(0%, 0%, 0%)" fill-opacity="1" d="M 346.011719 183.675781 C 346.011719 180.84375 346.855469 178.363281 348.554688 176.222656 C 349.597656 174.910156 350.816406 173.859375 352.230469 173.0625 C 352.308594 173.199219 352.386719 173.335938 352.464844 173.472656 C 351.15625 174.511719 350.21875 175.519531 349.65625 176.503906 C 348.671875 178.222656 348.179688 180.503906 348.179688 183.359375 C 348.179688 185.464844 348.367188 187.207031 348.742188 188.578125 C 349.398438 190.984375 350.640625 192.789062 352.464844 193.980469 C 352.359375 194.113281 352.253906 194.246094 352.148438 194.378906 C 351.144531 193.898438 350.066406 192.964844 348.90625 191.570312 C 346.972656 189.253906 346.011719 186.621094 346.011719 183.675781 Z M 346.011719 183.675781 "/>
<path fill-rule="nonzero" fill="rgb(0%, 0%, 0%)" fill-opacity="1" d="M 355.722656 187.699219 C 356.191406 187.699219 356.800781 187.96875 357.550781 188.496094 C 358.300781 189.019531 358.886719 189.277344 359.296875 189.277344 C 360.230469 189.277344 361.039062 188.867188 361.742188 188.039062 C 362.445312 187.21875 362.785156 186.203125 362.785156 184.996094 C 362.785156 182.890625 361.671875 181.382812 359.425781 180.457031 C 358.183594 179.941406 357.023438 179.683594 355.945312 179.683594 C 355.769531 179.683594 355.652344 179.671875 355.605469 179.660156 C 355.558594 179.648438 355.511719 179.613281 355.441406 179.53125 C 355.464844 179.472656 355.476562 179.414062 355.488281 179.367188 C 355.5 179.320312 355.511719 179.285156 355.535156 179.238281 C 356.421875 177.300781 357.308594 175.363281 358.195312 173.425781 C 359.941406 173.425781 361.683594 173.425781 363.429688 173.425781 C 363.6875 173.425781 363.886719 173.378906 364.027344 173.285156 C 364.167969 173.191406 364.355469 173.027344 364.589844 172.78125 C 364.652344 172.839844 364.714844 172.898438 364.777344 172.957031 C 364.460938 173.710938 364.144531 174.460938 363.828125 175.214844 C 363.792969 175.285156 363.710938 175.332031 363.558594 175.355469 C 363.417969 175.378906 363.253906 175.378906 363.078125 175.378906 C 361.503906 175.378906 359.933594 175.378906 358.359375 175.378906 C 358.015625 176.09375 357.671875 176.804688 357.328125 177.519531 C 358.664062 177.742188 359.636719 177.953125 360.253906 178.164062 C 361.273438 178.503906 362.117188 179.007812 362.808594 179.671875 C 363.394531 180.246094 363.828125 180.902344 364.132812 181.613281 C 364.4375 182.339844 364.589844 183.101562 364.589844 183.894531 C 364.589844 185.699219 363.945312 187.195312 362.667969 188.402344 C 361.378906 189.605469 359.765625 190.203125 357.796875 190.203125 C 357 190.203125 356.367188 190.121094 355.875 189.96875 C 355.054688 189.722656 354.65625 189.265625 354.65625 188.621094 C 354.65625 188.378906 354.738281 188.15625 354.914062 187.980469 C 355.089844 187.792969 355.359375 187.699219 355.722656 187.699219 Z M 355.722656 187.699219 "/>
<path fill-rule="nonzero" fill="rgb(0%, 0%, 0%)" fill-opacity="1" d="M 372.964844 183.792969 C 372.964844 184.996094 372.8125 186.144531 372.496094 187.230469 C 372.179688 188.308594 371.710938 189.324219 371.101562 190.285156 C 370.457031 191.3125 369.601562 192.261719 368.523438 193.152344 C 367.824219 193.734375 367.226562 194.144531 366.746094 194.378906 C 366.667969 194.246094 366.589844 194.113281 366.511719 193.980469 C 367.765625 193.035156 368.675781 192.0625 369.261719 191.066406 C 370.28125 189.3125 370.796875 186.996094 370.796875 184.105469 C 370.796875 181.777344 370.5625 179.871094 370.082031 178.398438 C 369.425781 176.304688 368.230469 174.664062 366.511719 173.472656 C 366.617188 173.335938 366.722656 173.199219 366.828125 173.0625 C 368.117188 173.777344 369.308594 174.863281 370.421875 176.304688 C 372.121094 178.539062 372.964844 181.03125 372.964844 183.792969 Z M 372.964844 183.792969 "/>
<path fill-rule="nonzero" fill="rgb(98.823529%, 38.431373%, 33.333333%)" fill-opacity="1" d="M 361.230469 372.132812 C 361.230469 371.65625 361.230469 371.4375 360.664062 371.4375 C 360.421875 371.4375 360.378906 371.4375 360.183594 371.589844 C 358.507812 372.828125 356.261719 372.828125 355.804688 372.828125 C 355.660156 372.828125 355.515625 372.828125 355.371094 372.828125 C 355.371094 373.171875 355.371094 373.511719 355.371094 373.851562 C 355.515625 373.851562 355.660156 373.851562 355.804688 373.851562 C 356.152344 373.851562 357.351562 373.832031 358.636719 373.417969 C 358.636719 377.167969 358.636719 380.914062 358.636719 384.664062 C 357.628906 384.664062 356.617188 384.664062 355.609375 384.664062 C 355.609375 385.007812 355.609375 385.347656 355.609375 385.6875 C 356.566406 385.621094 358.875 385.621094 359.945312 385.621094 C 361.011719 385.621094 363.320312 385.621094 364.277344 385.6875 C 364.277344 385.347656 364.277344 385.007812 364.277344 384.664062 C 363.261719 384.664062 362.246094 384.664062 361.230469 384.664062 C 361.230469 380.488281 361.230469 376.3125 361.230469 372.132812 Z M 361.230469 372.132812 "/>
<path fill-rule="nonzero" fill="rgb(98.823529%, 38.431373%, 33.333333%)" fill-opacity="1" d="M 377.566406 378.746094 C 377.566406 376.636719 377.542969 371.4375 372.296875 371.4375 C 367.046875 371.4375 367.023438 376.617188 367.023438 378.746094 C 367.023438 380.902344 367.046875 385.925781 372.296875 385.925781 C 377.523438 385.925781 377.566406 380.921875 377.566406 378.746094 Z M 372.296875 385.144531 C 371.511719 385.144531 370.292969 384.664062 370.007812 383.078125 C 369.8125 381.945312 369.8125 379.683594 369.8125 378.488281 C 369.8125 376.917969 369.8125 375.503906 369.984375 374.375 C 370.246094 372.4375 371.773438 372.21875 372.296875 372.21875 C 373.101562 372.21875 373.996094 372.632812 374.40625 373.589844 C 374.777344 374.394531 374.777344 376.703125 374.777344 378.488281 C 374.777344 379.703125 374.777344 381.683594 374.625 382.816406 C 374.320312 384.839844 372.949219 385.144531 372.296875 385.144531 Z M 372.296875 385.144531 "/>
<path fill-rule="nonzero" fill="rgb(98.823529%, 38.431373%, 33.333333%)" fill-opacity="1" d="M 390.089844 378.746094 C 390.089844 376.636719 390.070312 371.4375 384.820312 371.4375 C 379.570312 371.4375 379.546875 376.617188 379.546875 378.746094 C 379.546875 380.902344 379.570312 385.925781 384.820312 385.925781 C 390.046875 385.925781 390.089844 380.921875 390.089844 378.746094 Z M 384.820312 385.144531 C 384.035156 385.144531 382.816406 384.664062 382.53125 383.078125 C 382.335938 381.945312 382.335938 379.683594 382.335938 378.488281 C 382.335938 376.917969 382.335938 375.503906 382.511719 374.375 C 382.773438 372.4375 384.296875 372.21875 384.820312 372.21875 C 385.625 372.21875 386.519531 372.632812 386.933594 373.589844 C 387.304688 374.394531 387.304688 376.703125 387.304688 378.488281 C 387.304688 379.703125 387.304688 381.683594 387.152344 382.816406 C 386.847656 384.839844 385.472656 385.144531 384.820312 385.144531 Z M 384.820312 385.144531 "/>
<path fill-rule="nonzero" fill="rgb(98.823529%, 38.431373%, 33.333333%)" fill-opacity="1" d="M 402.617188 378.746094 C 402.617188 376.636719 402.59375 371.4375 397.34375 371.4375 C 392.09375 371.4375 392.074219 376.617188 392.074219 378.746094 C 392.074219 380.902344 392.09375 385.925781 397.34375 385.925781 C 402.574219 385.925781 402.617188 380.921875 402.617188 378.746094 Z M 397.34375 385.144531 C 396.5625 385.144531 395.339844 384.664062 395.058594 383.078125 C 394.863281 381.945312 394.863281 379.683594 394.863281 378.488281 C 394.863281 376.917969 394.863281 375.503906 395.035156 374.375 C 395.296875 372.4375 396.824219 372.21875 397.34375 372.21875 C 398.152344 372.21875 399.042969 372.632812 399.457031 373.589844 C 399.828125 374.394531 399.828125 376.703125 399.828125 378.488281 C 399.828125 379.703125 399.828125 381.683594 399.675781 382.816406 C 399.371094 384.839844 398 385.144531 397.34375 385.144531 Z M 397.34375 385.144531 "/>
<path fill-rule="nonzero" fill="rgb(98.823529%, 38.431373%, 33.333333%)" fill-opacity="1" d="M 408.28125 380.53125 C 408.28125 377.21875 408.28125 373.902344 408.28125 370.589844 C 406.996094 370.648438 405.710938 370.703125 404.425781 370.761719 C 404.425781 371.101562 404.425781 371.445312 404.425781 371.785156 C 405.773438 371.785156 405.925781 371.785156 405.925781 372.632812 C 405.925781 376.644531 405.925781 380.65625 405.925781 384.664062 C 405.425781 384.664062 404.925781 384.664062 404.425781 384.664062 C 404.425781 385.007812 404.425781 385.347656 404.425781 385.6875 C 405.230469 385.667969 406.253906 385.621094 407.039062 385.621094 C 407.84375 385.621094 408.890625 385.667969 409.675781 385.6875 C 409.675781 385.347656 409.675781 385.007812 409.675781 384.664062 C 409.171875 384.664062 408.671875 384.664062 408.171875 384.664062 C 408.171875 383.746094 408.171875 382.824219 408.171875 381.902344 C 408.804688 381.402344 408.976562 381.269531 409.414062 380.964844 C 410.144531 381.878906 410.878906 382.792969 411.613281 383.707031 C 411.808594 383.96875 412.15625 384.40625 412.15625 384.46875 C 412.15625 384.664062 411.765625 384.664062 411.480469 384.664062 C 411.480469 385.007812 411.480469 385.347656 411.480469 385.6875 C 412.136719 385.644531 414.03125 385.621094 414.140625 385.621094 C 414.925781 385.621094 415.664062 385.644531 416.40625 385.6875 C 416.40625 385.347656 416.40625 385.007812 416.40625 384.664062 C 416.28125 384.664062 416.160156 384.664062 416.035156 384.664062 C 415.097656 384.664062 415.03125 384.578125 414.75 384.230469 C 413.523438 382.699219 412.296875 381.167969 411.070312 379.640625 C 412.011719 378.90625 412.957031 378.175781 413.898438 377.441406 C 414.207031 377.203125 414.402344 377.050781 415.859375 377.050781 C 415.859375 376.710938 415.859375 376.367188 415.859375 376.027344 C 415.273438 376.09375 414.726562 376.09375 414.160156 376.09375 C 413.574219 376.09375 412.15625 376.050781 411.65625 376.027344 C 411.65625 376.367188 411.65625 376.710938 411.65625 377.050781 C 412.15625 377.050781 412.222656 377.117188 412.398438 377.289062 C 411.023438 378.371094 409.652344 379.449219 408.28125 380.53125 Z M 408.28125 380.53125 "/>
<path fill-rule="nonzero" fill="rgb(98.823529%, 38.431373%, 33.333333%)" fill-opacity="1" d="M 423.394531 371.046875 C 423.15625 370.785156 423.136719 370.761719 422.675781 370.761719 C 421.015625 370.761719 419.351562 370.761719 417.6875 370.761719 C 417.6875 371.101562 417.6875 371.445312 417.6875 371.785156 C 418.472656 371.785156 419.257812 371.785156 420.042969 371.785156 C 420.042969 375.867188 420.042969 379.953125 420.042969 384.035156 C 420.042969 384.511719 420.019531 384.535156 419.410156 384.601562 C 418.886719 384.664062 418.84375 384.664062 418.234375 384.664062 C 418.050781 384.664062 417.871094 384.664062 417.6875 384.664062 C 417.6875 385.007812 417.6875 385.347656 417.6875 385.6875 C 418.515625 385.621094 419.757812 385.621094 420.609375 385.621094 C 421.523438 385.621094 422.65625 385.621094 423.546875 385.6875 C 423.546875 385.347656 423.546875 385.007812 423.546875 384.664062 C 423.367188 384.664062 423.1875 384.664062 423.003906 384.664062 C 422.613281 384.664062 422.242188 384.644531 421.851562 384.601562 C 421.21875 384.535156 421.195312 384.511719 421.195312 384.035156 C 421.195312 380.242188 421.195312 376.449219 421.195312 372.65625 C 424.8125 376.90625 428.429688 381.15625 432.042969 385.40625 C 432.261719 385.667969 432.285156 385.6875 432.632812 385.6875 C 433.21875 385.6875 433.21875 385.492188 433.21875 384.992188 C 433.21875 380.800781 433.21875 376.609375 433.21875 372.417969 C 433.21875 371.9375 433.242188 371.914062 433.851562 371.851562 C 434.375 371.785156 434.417969 371.785156 435.027344 371.785156 C 435.210938 371.785156 435.390625 371.785156 435.574219 371.785156 C 435.574219 371.445312 435.574219 371.101562 435.574219 370.761719 C 434.746094 370.828125 433.503906 370.828125 432.652344 370.828125 C 431.738281 370.828125 430.605469 370.828125 429.714844 370.761719 C 429.714844 371.101562 429.714844 371.445312 429.714844 371.785156 C 429.894531 371.785156 430.078125 371.785156 430.257812 371.785156 C 430.648438 371.785156 431.019531 371.808594 431.414062 371.851562 C 432.042969 371.914062 432.066406 371.9375 432.066406 372.417969 C 432.066406 375.351562 432.066406 378.289062 432.066406 381.226562 C 429.175781 377.832031 426.285156 374.441406 423.394531 371.046875 Z M 423.394531 371.046875 "/>
<path fill="none" stroke-width="0.04" stroke-linecap="butt" stroke-linejoin="miter" stroke="rgb(60.392157%, 44.705882%, 67.45098%)" stroke-opacity="1" stroke-miterlimit="10" d="M -4.999978 -1.791832 C -4.948651 -1.805461 -4.897325 -1.819025 -4.845933 -1.832654 " transform="matrix(59.971361, 0, 0, -59.900736, 335.5, 226)"/>
<path fill="none" stroke-width="0.04" stroke-linecap="butt" stroke-linejoin="miter" stroke="rgb(60.392157%, 44.705882%, 67.45098%)" stroke-opacity="1" stroke-miterlimit="10" d="M -4.682248 -1.87602 C -4.630921 -1.88965 -4.57953 -1.903214 -4.528203 -1.916843 " transform="matrix(59.971361, 0, 0, -59.900736, 335.5, 226)"/>
<path fill="none" stroke-width="0.04" stroke-linecap="butt" stroke-linejoin="miter" stroke="rgb(60.392157%, 44.705882%, 67.45098%)" stroke-opacity="1" stroke-miterlimit="10" d="M -4.364518 -1.960209 C -4.313126 -1.973838 -4.2618 -1.987403 -4.210408 -2.001032 " transform="matrix(59.971361, 0, 0, -59.900736, 335.5, 226)"/>
<path fill="none" stroke-width="0.04" stroke-linecap="butt" stroke-linejoin="miter" stroke="rgb(60.392157%, 44.705882%, 67.45098%)" stroke-opacity="1" stroke-miterlimit="10" d="M -4.046723 -2.044398 C -3.995397 -2.057962 -3.944005 -2.071591 -3.892678 -2.085221 " transform="matrix(59.971361, 0, 0, -59.900736, 335.5, 226)"/>
<path fill="none" stroke-width="0.04" stroke-linecap="butt" stroke-linejoin="miter" stroke="rgb(60.392157%, 44.705882%, 67.45098%)" stroke-opacity="1" stroke-miterlimit="10" d="M -3.728993 -2.128587 C -3.677667 -2.142151 -3.626275 -2.15578 -3.574949 -2.169409 " transform="matrix(59.971361, 0, 0, -59.900736, 335.5, 226)"/>
<path fill="none" stroke-width="0.04" stroke-linecap="butt" stroke-linejoin="miter" stroke="rgb(60.392157%, 44.705882%, 67.45098%)" stroke-opacity="1" stroke-miterlimit="10" d="M -3.411264 -2.212775 C -3.359872 -2.226339 -3.308545 -2.239969 -3.257154 -2.253533 " transform="matrix(59.971361, 0, 0, -59.900736, 335.5, 226)"/>
<path fill="none" stroke-width="0.04" stroke-linecap="butt" stroke-linejoin="miter" stroke="rgb(60.392157%, 44.705882%, 67.45098%)" stroke-opacity="1" stroke-miterlimit="10" d="M -3.093469 -2.296899 C -3.042142 -2.310528 -2.99075 -2.324158 -2.939424 -2.337722 " transform="matrix(59.971361, 0, 0, -59.900736, 335.5, 226)"/>
<path fill="none" stroke-width="0.04" stroke-linecap="butt" stroke-linejoin="miter" stroke="rgb(60.392157%, 44.705882%, 67.45098%)" stroke-opacity="1" stroke-miterlimit="10" d="M -2.775739 -2.381088 C -2.724412 -2.394717 -2.673021 -2.408346 -2.621694 -2.42191 " transform="matrix(59.971361, 0, 0, -59.900736, 335.5, 226)"/>
<path fill="none" stroke-width="0.04" stroke-linecap="butt" stroke-linejoin="miter" stroke="rgb(60.392157%, 44.705882%, 67.45098%)" stroke-opacity="1" stroke-miterlimit="10" d="M -2.458009 -2.465276 C -2.406617 -2.478906 -2.355291 -2.49247 -2.303899 -2.506099 " transform="matrix(59.971361, 0, 0, -59.900736, 335.5, 226)"/>
<path fill="none" stroke-width="0.04" stroke-linecap="butt" stroke-linejoin="miter" stroke="rgb(60.392157%, 44.705882%, 67.45098%)" stroke-opacity="1" stroke-miterlimit="10" d="M -2.140214 -2.549465 C -2.088888 -2.563095 -2.037496 -2.576659 -1.986169 -2.590288 " transform="matrix(59.971361, 0, 0, -59.900736, 335.5, 226)"/>
<path fill="none" stroke-width="0.04" stroke-linecap="butt" stroke-linejoin="miter" stroke="rgb(60.392157%, 44.705882%, 67.45098%)" stroke-opacity="1" stroke-miterlimit="10" d="M -1.822484 -2.633654 C -1.771093 -2.647283 -1.719766 -2.660847 -1.66844 -2.674477 " transform="matrix(59.971361, 0, 0, -59.900736, 335.5, 226)"/>
<path fill="none" stroke-width="0.04" stroke-linecap="butt" stroke-linejoin="miter" stroke="rgb(60.392157%, 44.705882%, 67.45098%)" stroke-opacity="1" stroke-miterlimit="10" d="M -1.504755 -2.717843 C -1.453363 -2.731472 -1.402036 -2.745036 -1.350645 -2.758665 " transform="matrix(59.971361, 0, 0, -59.900736, 335.5, 226)"/>
<path fill="none" stroke-width="0.04" stroke-linecap="butt" stroke-linejoin="miter" stroke="rgb(60.392157%, 44.705882%, 67.45098%)" stroke-opacity="1" stroke-miterlimit="10" d="M -1.18696 -2.802031 C -1.135633 -2.815596 -1.084241 -2.829225 -1.032915 -2.842854 " transform="matrix(59.971361, 0, 0, -59.900736, 335.5, 226)"/>
<path fill="none" stroke-width="0.04" stroke-linecap="butt" stroke-linejoin="miter" stroke="rgb(60.392157%, 44.705882%, 67.45098%)" stroke-opacity="1" stroke-miterlimit="10" d="M -0.86923 -2.88622 C -0.817838 -2.899784 -0.766512 -2.913414 -0.715185 -2.927043 " transform="matrix(59.971361, 0, 0, -59.900736, 335.5, 226)"/>
<path fill="none" stroke-width="0.04" stroke-linecap="butt" stroke-linejoin="miter" stroke="rgb(60.392157%, 44.705882%, 67.45098%)" stroke-opacity="1" stroke-miterlimit="10" d="M -0.5515 -2.970409 C -0.500109 -2.983973 -0.448782 -2.997602 -0.39739 -3.011167 " transform="matrix(59.971361, 0, 0, -59.900736, 335.5, 226)"/>
<path fill="none" stroke-width="0.04" stroke-linecap="butt" stroke-linejoin="miter" stroke="rgb(60.392157%, 44.705882%, 67.45098%)" stroke-opacity="1" stroke-miterlimit="10" d="M -0.233705 -3.054533 C -0.182379 -3.068162 -0.130987 -3.081791 -0.0796604 -3.095355 " transform="matrix(59.971361, 0, 0, -59.900736, 335.5, 226)"/>
<path fill="none" stroke-width="0.04" stroke-linecap="butt" stroke-linejoin="miter" stroke="rgb(60.392157%, 44.705882%, 67.45098%)" stroke-opacity="1" stroke-miterlimit="10" d="M 0.0840245 -3.138721 C 0.135416 -3.152351 0.186743 -3.16598 0.238069 -3.179544 " transform="matrix(59.971361, 0, 0, -59.900736, 335.5, 226)"/>
<path fill="none" stroke-width="0.04" stroke-linecap="butt" stroke-linejoin="miter" stroke="rgb(60.392157%, 44.705882%, 67.45098%)" stroke-opacity="1" stroke-miterlimit="10" d="M 0.238069 -3.179544 C 0.289461 -3.16598 0.340788 -3.152351 0.392179 -3.138721 " transform="matrix(59.971361, 0, 0, -59.900736, 335.5, 226)"/>
<path fill="none" stroke-width="0.04" stroke-linecap="butt" stroke-linejoin="miter" stroke="rgb(60.392157%, 44.705882%, 67.45098%)" stroke-opacity="1" stroke-miterlimit="10" d="M 0.555864 -3.095355 C 0.607191 -3.081791 0.658583 -3.068162 0.709909 -3.054533 " transform="matrix(59.971361, 0, 0, -59.900736, 335.5, 226)"/>
<path fill="none" stroke-width="0.04" stroke-linecap="butt" stroke-linejoin="miter" stroke="rgb(60.392157%, 44.705882%, 67.45098%)" stroke-opacity="1" stroke-miterlimit="10" d="M 0.873594 -3.011167 C 0.924986 -2.997602 0.976312 -2.983973 1.027639 -2.970409 " transform="matrix(59.971361, 0, 0, -59.900736, 335.5, 226)"/>
<path fill="none" stroke-width="0.04" stroke-linecap="butt" stroke-linejoin="miter" stroke="rgb(60.392157%, 44.705882%, 67.45098%)" stroke-opacity="1" stroke-miterlimit="10" d="M 1.191324 -2.927043 C 1.242716 -2.913414 1.294042 -2.899784 1.345434 -2.88622 " transform="matrix(59.971361, 0, 0, -59.900736, 335.5, 226)"/>
<path fill="none" stroke-width="0.04" stroke-linecap="butt" stroke-linejoin="miter" stroke="rgb(60.392157%, 44.705882%, 67.45098%)" stroke-opacity="1" stroke-miterlimit="10" d="M 1.509119 -2.842854 C 1.560445 -2.829225 1.611837 -2.815596 1.663164 -2.802031 " transform="matrix(59.971361, 0, 0, -59.900736, 335.5, 226)"/>
<path fill="none" stroke-width="0.04" stroke-linecap="butt" stroke-linejoin="miter" stroke="rgb(60.392157%, 44.705882%, 67.45098%)" stroke-opacity="1" stroke-miterlimit="10" d="M 1.826849 -2.758665 C 1.87824 -2.745036 1.929567 -2.731472 1.980893 -2.717843 " transform="matrix(59.971361, 0, 0, -59.900736, 335.5, 226)"/>
<path fill="none" stroke-width="0.04" stroke-linecap="butt" stroke-linejoin="miter" stroke="rgb(60.392157%, 44.705882%, 67.45098%)" stroke-opacity="1" stroke-miterlimit="10" d="M 2.144578 -2.674477 C 2.19597 -2.660847 2.247297 -2.647283 2.298688 -2.633654 " transform="matrix(59.971361, 0, 0, -59.900736, 335.5, 226)"/>
<path fill="none" stroke-width="0.04" stroke-linecap="butt" stroke-linejoin="miter" stroke="rgb(60.392157%, 44.705882%, 67.45098%)" stroke-opacity="1" stroke-miterlimit="10" d="M 2.462373 -2.590288 C 2.5137 -2.576659 2.565092 -2.563095 2.616418 -2.549465 " transform="matrix(59.971361, 0, 0, -59.900736, 335.5, 226)"/>
<path fill="none" stroke-width="0.04" stroke-linecap="butt" stroke-linejoin="miter" stroke="rgb(60.392157%, 44.705882%, 67.45098%)" stroke-opacity="1" stroke-miterlimit="10" d="M 2.780103 -2.506099 C 2.831495 -2.49247 2.882821 -2.478906 2.934148 -2.465276 " transform="matrix(59.971361, 0, 0, -59.900736, 335.5, 226)"/>
<path fill="none" stroke-width="0.04" stroke-linecap="butt" stroke-linejoin="miter" stroke="rgb(60.392157%, 44.705882%, 67.45098%)" stroke-opacity="1" stroke-miterlimit="10" d="M 3.097833 -2.42191 C 3.149225 -2.408346 3.200551 -2.394717 3.251943 -2.381088 " transform="matrix(59.971361, 0, 0, -59.900736, 335.5, 226)"/>
<path fill="none" stroke-width="0.04" stroke-linecap="butt" stroke-linejoin="miter" stroke="rgb(60.392157%, 44.705882%, 67.45098%)" stroke-opacity="1" stroke-miterlimit="10" d="M 3.415628 -2.337722 C 3.466954 -2.324158 3.518346 -2.310528 3.569673 -2.296899 " transform="matrix(59.971361, 0, 0, -59.900736, 335.5, 226)"/>
<path fill="none" stroke-width="0.04" stroke-linecap="butt" stroke-linejoin="miter" stroke="rgb(60.392157%, 44.705882%, 67.45098%)" stroke-opacity="1" stroke-miterlimit="10" d="M 3.733358 -2.253533 C 3.784749 -2.239969 3.836076 -2.226339 3.887402 -2.212775 " transform="matrix(59.971361, 0, 0, -59.900736, 335.5, 226)"/>
<path fill="none" stroke-width="0.04" stroke-linecap="butt" stroke-linejoin="miter" stroke="rgb(60.392157%, 44.705882%, 67.45098%)" stroke-opacity="1" stroke-miterlimit="10" d="M 4.051152 -2.169409 C 4.102479 -2.15578 4.153806 -2.142151 4.205197 -2.128587 " transform="matrix(59.971361, 0, 0, -59.900736, 335.5, 226)"/>
<path fill="none" stroke-width="0.04" stroke-linecap="butt" stroke-linejoin="miter" stroke="rgb(60.392157%, 44.705882%, 67.45098%)" stroke-opacity="1" stroke-miterlimit="10" d="M 4.368882 -2.085221 C 4.420209 -2.071591 4.471601 -2.057962 4.522927 -2.044398 " transform="matrix(59.971361, 0, 0, -59.900736, 335.5, 226)"/>
<path fill="none" stroke-width="0.04" stroke-linecap="butt" stroke-linejoin="miter" stroke="rgb(60.392157%, 44.705882%, 67.45098%)" stroke-opacity="1" stroke-miterlimit="10" d="M 4.686612 -2.001032 C 4.738004 -1.987403 4.78933 -1.973838 4.840657 -1.960209 " transform="matrix(59.971361, 0, 0, -59.900736, 335.5, 226)"/>
<path fill="none" stroke-width="0.04" stroke-linecap="butt" stroke-linejoin="miter" stroke="rgb(60.392157%, 44.705882%, 67.45098%)" stroke-opacity="1" stroke-miterlimit="10" d="M 5.004407 -1.916843 C 5.055734 -1.903214 5.10706 -1.88965 5.158452 -1.87602 " transform="matrix(59.971361, 0, 0, -59.900736, 335.5, 226)"/>
<path fill="none" stroke-width="0.04" stroke-linecap="butt" stroke-linejoin="miter" stroke="rgb(60.392157%, 44.705882%, 67.45098%)" stroke-opacity="1" stroke-miterlimit="10" d="M 5.322137 -1.832654 C 5.373463 -1.819025 5.424855 -1.805461 5.476182 -1.791832 " transform="matrix(59.971361, 0, 0, -59.900736, 335.5, 226)"/>
<path fill="none" stroke-width="0.04" stroke-linecap="butt" stroke-linejoin="miter" stroke="rgb(60.392157%, 44.705882%, 67.45098%)" stroke-opacity="1" stroke-miterlimit="10" d="M 5.476182 -1.791832 C 5.439836 -1.763464 5.403426 -1.735032 5.36708 -1.706665 " transform="matrix(59.971361, 0, 0, -59.900736, 335.5, 226)"/>
<path fill="none" stroke-width="0.04" stroke-linecap="butt" stroke-linejoin="miter" stroke="rgb(60.392157%, 44.705882%, 67.45098%)" stroke-opacity="1" stroke-miterlimit="10" d="M 5.253224 -1.617781 C 5.216813 -1.589413 5.180468 -1.560981 5.144057 -1.532614 " transform="matrix(59.971361, 0, 0, -59.900736, 335.5, 226)"/>
<path fill="none" stroke-width="0.04" stroke-linecap="butt" stroke-linejoin="miter" stroke="rgb(60.392157%, 44.705882%, 67.45098%)" stroke-opacity="1" stroke-miterlimit="10" d="M 5.0302 -1.44373 C 4.99379 -1.415362 4.957444 -1.38693 4.921034 -1.358563 " transform="matrix(59.971361, 0, 0, -59.900736, 335.5, 226)"/>
<path fill="none" stroke-width="0.04" stroke-linecap="butt" stroke-linejoin="miter" stroke="rgb(60.392157%, 44.705882%, 67.45098%)" stroke-opacity="1" stroke-miterlimit="10" d="M 4.807177 -1.269679 C 4.770832 -1.241246 4.734421 -1.212879 4.698076 -1.184512 " transform="matrix(59.971361, 0, 0, -59.900736, 335.5, 226)"/>
<path fill="none" stroke-width="0.04" stroke-linecap="butt" stroke-linejoin="miter" stroke="rgb(60.392157%, 44.705882%, 67.45098%)" stroke-opacity="1" stroke-miterlimit="10" d="M 4.584219 -1.095628 C 4.547809 -1.067195 4.511463 -1.038828 4.475053 -1.010461 " transform="matrix(59.971361, 0, 0, -59.900736, 335.5, 226)"/>
<path fill="none" stroke-width="0.04" stroke-linecap="butt" stroke-linejoin="miter" stroke="rgb(60.392157%, 44.705882%, 67.45098%)" stroke-opacity="1" stroke-miterlimit="10" d="M 4.361196 -0.921577 C 4.324851 -0.893144 4.28844 -0.864777 4.252095 -0.83641 " transform="matrix(59.971361, 0, 0, -59.900736, 335.5, 226)"/>
<path fill="none" stroke-width="0.04" stroke-linecap="butt" stroke-linejoin="miter" stroke="rgb(60.392157%, 44.705882%, 67.45098%)" stroke-opacity="1" stroke-miterlimit="10" d="M 4.138173 -0.747526 C 4.101828 -0.719093 4.065417 -0.690726 4.029072 -0.662294 " transform="matrix(59.971361, 0, 0, -59.900736, 335.5, 226)"/>
<path fill="none" stroke-width="0.04" stroke-linecap="butt" stroke-linejoin="miter" stroke="rgb(60.392157%, 44.705882%, 67.45098%)" stroke-opacity="1" stroke-miterlimit="10" d="M 3.915215 -0.573475 C 3.878805 -0.545042 3.842459 -0.516675 3.806048 -0.488243 " transform="matrix(59.971361, 0, 0, -59.900736, 335.5, 226)"/>
<path fill="none" stroke-width="0.04" stroke-linecap="butt" stroke-linejoin="miter" stroke="rgb(60.392157%, 44.705882%, 67.45098%)" stroke-opacity="1" stroke-miterlimit="10" d="M 3.692192 -0.399359 C 3.655847 -0.370991 3.619436 -0.342624 3.58309 -0.314192 " transform="matrix(59.971361, 0, 0, -59.900736, 335.5, 226)"/>
<path fill="none" stroke-width="0.04" stroke-linecap="butt" stroke-linejoin="miter" stroke="rgb(60.392157%, 44.705882%, 67.45098%)" stroke-opacity="1" stroke-miterlimit="10" d="M 3.469234 -0.225308 C 3.432823 -0.19694 3.396478 -0.168573 3.360067 -0.140141 " transform="matrix(59.971361, 0, 0, -59.900736, 335.5, 226)"/>
<path fill="none" stroke-width="0.04" stroke-linecap="butt" stroke-linejoin="miter" stroke="rgb(60.392157%, 44.705882%, 67.45098%)" stroke-opacity="1" stroke-miterlimit="10" d="M 3.246211 -0.0512567 C 3.2098 -0.0228894 3.173455 0.00547781 3.137109 0.0339103 " transform="matrix(59.971361, 0, 0, -59.900736, 335.5, 226)"/>
<path fill="none" stroke-width="0.04" stroke-linecap="butt" stroke-linejoin="miter" stroke="rgb(60.392157%, 44.705882%, 67.45098%)" stroke-opacity="1" stroke-miterlimit="10" d="M 3.023188 0.122794 C 2.986842 0.151162 2.950432 0.179594 2.914086 0.207961 " transform="matrix(59.971361, 0, 0, -59.900736, 335.5, 226)"/>
<path fill="none" stroke-width="0.04" stroke-linecap="butt" stroke-linejoin="miter" stroke="rgb(60.392157%, 44.705882%, 67.45098%)" stroke-opacity="1" stroke-miterlimit="10" d="M 2.80023 0.296845 C 2.763819 0.325213 2.727474 0.353645 2.691063 0.382012 " transform="matrix(59.971361, 0, 0, -59.900736, 335.5, 226)"/>
<path fill="none" stroke-width="0.04" stroke-linecap="butt" stroke-linejoin="miter" stroke="rgb(60.392157%, 44.705882%, 67.45098%)" stroke-opacity="1" stroke-miterlimit="10" d="M 2.577207 0.470896 C 2.540861 0.499263 2.504451 0.527696 2.468105 0.556063 " transform="matrix(59.971361, 0, 0, -59.900736, 335.5, 226)"/>
<path fill="none" stroke-width="0.04" stroke-linecap="butt" stroke-linejoin="miter" stroke="rgb(60.392157%, 44.705882%, 67.45098%)" stroke-opacity="1" stroke-miterlimit="10" d="M 2.354184 0.644947 C 2.317838 0.673314 2.281428 0.701747 2.245082 0.730114 " transform="matrix(59.971361, 0, 0, -59.900736, 335.5, 226)"/>
<path fill="none" stroke-width="0.04" stroke-linecap="butt" stroke-linejoin="miter" stroke="rgb(60.392157%, 44.705882%, 67.45098%)" stroke-opacity="1" stroke-miterlimit="10" d="M 2.131226 0.818998 C 2.094815 0.847431 2.05847 0.875798 2.022059 0.904165 " transform="matrix(59.971361, 0, 0, -59.900736, 335.5, 226)"/>
<path fill="none" stroke-width="0.04" stroke-linecap="butt" stroke-linejoin="miter" stroke="rgb(60.392157%, 44.705882%, 67.45098%)" stroke-opacity="1" stroke-miterlimit="10" d="M 1.908202 0.993049 C 1.871857 1.021482 1.835446 1.049849 1.799101 1.078216 " transform="matrix(59.971361, 0, 0, -59.900736, 335.5, 226)"/>
<path fill="none" stroke-width="0.04" stroke-linecap="butt" stroke-linejoin="miter" stroke="rgb(60.392157%, 44.705882%, 67.45098%)" stroke-opacity="1" stroke-miterlimit="10" d="M 1.685245 1.1671 C 1.648834 1.195533 1.612488 1.2239 1.576078 1.252267 " transform="matrix(59.971361, 0, 0, -59.900736, 335.5, 226)"/>
<path fill="none" stroke-width="0.04" stroke-linecap="butt" stroke-linejoin="miter" stroke="rgb(60.392157%, 44.705882%, 67.45098%)" stroke-opacity="1" stroke-miterlimit="10" d="M 1.462221 1.341151 C 1.425811 1.369584 1.389465 1.397951 1.35312 1.426383 " transform="matrix(59.971361, 0, 0, -59.900736, 335.5, 226)"/>
<path fill="none" stroke-width="0.04" stroke-linecap="butt" stroke-linejoin="miter" stroke="rgb(60.392157%, 44.705882%, 67.45098%)" stroke-opacity="1" stroke-miterlimit="10" d="M 1.239198 1.515202 C 1.202853 1.543635 1.166442 1.572002 1.130097 1.600434 " transform="matrix(59.971361, 0, 0, -59.900736, 335.5, 226)"/>
<path fill="none" stroke-width="0.04" stroke-linecap="butt" stroke-linejoin="miter" stroke="rgb(60.392157%, 44.705882%, 67.45098%)" stroke-opacity="1" stroke-miterlimit="10" d="M 1.01624 1.689318 C 0.97983 1.717685 0.943484 1.746053 0.907074 1.774485 " transform="matrix(59.971361, 0, 0, -59.900736, 335.5, 226)"/>
<path fill="none" stroke-width="0.04" stroke-linecap="butt" stroke-linejoin="miter" stroke="rgb(60.392157%, 44.705882%, 67.45098%)" stroke-opacity="1" stroke-miterlimit="10" d="M 0.793217 1.863369 C 0.756872 1.891736 0.720461 1.920104 0.684116 1.948536 " transform="matrix(59.971361, 0, 0, -59.900736, 335.5, 226)"/>
<path fill="none" stroke-width="0.04" stroke-linecap="butt" stroke-linejoin="miter" stroke="rgb(60.392157%, 44.705882%, 67.45098%)" stroke-opacity="1" stroke-miterlimit="10" d="M 0.570194 2.03742 C 0.533849 2.065787 0.497438 2.094155 0.461092 2.122587 " transform="matrix(59.971361, 0, 0, -59.900736, 335.5, 226)"/>
<path fill="none" stroke-width="0.04" stroke-linecap="butt" stroke-linejoin="miter" stroke="rgb(60.392157%, 44.705882%, 67.45098%)" stroke-opacity="1" stroke-miterlimit="10" d="M 0.347236 2.211471 C 0.310825 2.239838 0.27448 2.268271 0.238069 2.296638 " transform="matrix(59.971361, 0, 0, -59.900736, 335.5, 226)"/>
<path fill="none" stroke-width="0.04" stroke-linecap="butt" stroke-linejoin="miter" stroke="rgb(60.392157%, 44.705882%, 67.45098%)" stroke-opacity="1" stroke-miterlimit="10" d="M 0.238069 2.296638 C 0.201724 2.268271 0.165313 2.239838 0.128968 2.211471 " transform="matrix(59.971361, 0, 0, -59.900736, 335.5, 226)"/>
<path fill="none" stroke-width="0.04" stroke-linecap="butt" stroke-linejoin="miter" stroke="rgb(60.392157%, 44.705882%, 67.45098%)" stroke-opacity="1" stroke-miterlimit="10" d="M 0.0151114 2.122587 C -0.0212992 2.094155 -0.0576447 2.065787 -0.0940553 2.03742 " transform="matrix(59.971361, 0, 0, -59.900736, 335.5, 226)"/>
<path fill="none" stroke-width="0.04" stroke-linecap="butt" stroke-linejoin="miter" stroke="rgb(60.392157%, 44.705882%, 67.45098%)" stroke-opacity="1" stroke-miterlimit="10" d="M -0.207912 1.948536 C -0.244257 1.920104 -0.280668 1.891736 -0.317013 1.863369 " transform="matrix(59.971361, 0, 0, -59.900736, 335.5, 226)"/>
<path fill="none" stroke-width="0.04" stroke-linecap="butt" stroke-linejoin="miter" stroke="rgb(60.392157%, 44.705882%, 67.45098%)" stroke-opacity="1" stroke-miterlimit="10" d="M -0.43087 1.774485 C -0.46728 1.746053 -0.503626 1.717685 -0.540036 1.689318 " transform="matrix(59.971361, 0, 0, -59.900736, 335.5, 226)"/>
<path fill="none" stroke-width="0.04" stroke-linecap="butt" stroke-linejoin="miter" stroke="rgb(60.392157%, 44.705882%, 67.45098%)" stroke-opacity="1" stroke-miterlimit="10" d="M -0.653893 1.600434 C -0.690303 1.572002 -0.726649 1.543635 -0.762994 1.515202 " transform="matrix(59.971361, 0, 0, -59.900736, 335.5, 226)"/>
<path fill="none" stroke-width="0.04" stroke-linecap="butt" stroke-linejoin="miter" stroke="rgb(60.392157%, 44.705882%, 67.45098%)" stroke-opacity="1" stroke-miterlimit="10" d="M -0.876916 1.426383 C -0.913261 1.397951 -0.949672 1.369584 -0.986018 1.341151 " transform="matrix(59.971361, 0, 0, -59.900736, 335.5, 226)"/>
<path fill="none" stroke-width="0.04" stroke-linecap="butt" stroke-linejoin="miter" stroke="rgb(60.392157%, 44.705882%, 67.45098%)" stroke-opacity="1" stroke-miterlimit="10" d="M -1.099874 1.252267 C -1.136285 1.2239 -1.17263 1.195533 -1.209041 1.1671 " transform="matrix(59.971361, 0, 0, -59.900736, 335.5, 226)"/>
<path fill="none" stroke-width="0.04" stroke-linecap="butt" stroke-linejoin="miter" stroke="rgb(60.392157%, 44.705882%, 67.45098%)" stroke-opacity="1" stroke-miterlimit="10" d="M -1.322897 1.078216 C -1.359243 1.049849 -1.395653 1.021482 -1.431999 0.993049 " transform="matrix(59.971361, 0, 0, -59.900736, 335.5, 226)"/>
<path fill="none" stroke-width="0.04" stroke-linecap="butt" stroke-linejoin="miter" stroke="rgb(60.392157%, 44.705882%, 67.45098%)" stroke-opacity="1" stroke-miterlimit="10" d="M -1.54592 0.904165 C -1.582266 0.875798 -1.618676 0.847431 -1.655022 0.818998 " transform="matrix(59.971361, 0, 0, -59.900736, 335.5, 226)"/>
<path fill="none" stroke-width="0.04" stroke-linecap="butt" stroke-linejoin="miter" stroke="rgb(60.392157%, 44.705882%, 67.45098%)" stroke-opacity="1" stroke-miterlimit="10" d="M -1.768878 0.730114 C -1.805289 0.701747 -1.841634 0.673314 -1.878045 0.644947 " transform="matrix(59.971361, 0, 0, -59.900736, 335.5, 226)"/>
<path fill="none" stroke-width="0.04" stroke-linecap="butt" stroke-linejoin="miter" stroke="rgb(60.392157%, 44.705882%, 67.45098%)" stroke-opacity="1" stroke-miterlimit="10" d="M -1.991901 0.556063 C -2.028247 0.527696 -2.064657 0.499263 -2.101003 0.470896 " transform="matrix(59.971361, 0, 0, -59.900736, 335.5, 226)"/>
<path fill="none" stroke-width="0.04" stroke-linecap="butt" stroke-linejoin="miter" stroke="rgb(60.392157%, 44.705882%, 67.45098%)" stroke-opacity="1" stroke-miterlimit="10" d="M -2.214859 0.382012 C -2.25127 0.353645 -2.287615 0.325213 -2.324026 0.296845 " transform="matrix(59.971361, 0, 0, -59.900736, 335.5, 226)"/>
<path fill="none" stroke-width="0.04" stroke-linecap="butt" stroke-linejoin="miter" stroke="rgb(60.392157%, 44.705882%, 67.45098%)" stroke-opacity="1" stroke-miterlimit="10" d="M -2.437882 0.207961 C -2.474293 0.179594 -2.510638 0.151162 -2.546984 0.122794 " transform="matrix(59.971361, 0, 0, -59.900736, 335.5, 226)"/>
<path fill="none" stroke-width="0.04" stroke-linecap="butt" stroke-linejoin="miter" stroke="rgb(60.392157%, 44.705882%, 67.45098%)" stroke-opacity="1" stroke-miterlimit="10" d="M -2.660906 0.0339103 C -2.697251 0.00547781 -2.733662 -0.0228894 -2.770007 -0.0512567 " transform="matrix(59.971361, 0, 0, -59.900736, 335.5, 226)"/>
<path fill="none" stroke-width="0.04" stroke-linecap="butt" stroke-linejoin="miter" stroke="rgb(60.392157%, 44.705882%, 67.45098%)" stroke-opacity="1" stroke-miterlimit="10" d="M -2.883864 -0.140141 C -2.920274 -0.168573 -2.95662 -0.19694 -2.99303 -0.225308 " transform="matrix(59.971361, 0, 0, -59.900736, 335.5, 226)"/>
<path fill="none" stroke-width="0.04" stroke-linecap="butt" stroke-linejoin="miter" stroke="rgb(60.392157%, 44.705882%, 67.45098%)" stroke-opacity="1" stroke-miterlimit="10" d="M -3.106887 -0.314192 C -3.143232 -0.342624 -3.179643 -0.370991 -3.215988 -0.399359 " transform="matrix(59.971361, 0, 0, -59.900736, 335.5, 226)"/>
<path fill="none" stroke-width="0.04" stroke-linecap="butt" stroke-linejoin="miter" stroke="rgb(60.392157%, 44.705882%, 67.45098%)" stroke-opacity="1" stroke-miterlimit="10" d="M -3.32991 -0.488243 C -3.366255 -0.516675 -3.402666 -0.545042 -3.439011 -0.573475 " transform="matrix(59.971361, 0, 0, -59.900736, 335.5, 226)"/>
<path fill="none" stroke-width="0.04" stroke-linecap="butt" stroke-linejoin="miter" stroke="rgb(60.392157%, 44.705882%, 67.45098%)" stroke-opacity="1" stroke-miterlimit="10" d="M -3.552868 -0.662294 C -3.589278 -0.690726 -3.625624 -0.719093 -3.662034 -0.747526 " transform="matrix(59.971361, 0, 0, -59.900736, 335.5, 226)"/>
<path fill="none" stroke-width="0.04" stroke-linecap="butt" stroke-linejoin="miter" stroke="rgb(60.392157%, 44.705882%, 67.45098%)" stroke-opacity="1" stroke-miterlimit="10" d="M -3.775891 -0.83641 C -3.812236 -0.864777 -3.848647 -0.893144 -3.884992 -0.921577 " transform="matrix(59.971361, 0, 0, -59.900736, 335.5, 226)"/>
<path fill="none" stroke-width="0.04" stroke-linecap="butt" stroke-linejoin="miter" stroke="rgb(60.392157%, 44.705882%, 67.45098%)" stroke-opacity="1" stroke-miterlimit="10" d="M -3.998849 -1.010461 C -4.035259 -1.038828 -4.071605 -1.067195 -4.108016 -1.095628 " transform="matrix(59.971361, 0, 0, -59.900736, 335.5, 226)"/>
<path fill="none" stroke-width="0.04" stroke-linecap="butt" stroke-linejoin="miter" stroke="rgb(60.392157%, 44.705882%, 67.45098%)" stroke-opacity="1" stroke-miterlimit="10" d="M -4.221872 -1.184512 C -4.258283 -1.212879 -4.294628 -1.241246 -4.330974 -1.269679 " transform="matrix(59.971361, 0, 0, -59.900736, 335.5, 226)"/>
<path fill="none" stroke-width="0.04" stroke-linecap="butt" stroke-linejoin="miter" stroke="rgb(60.392157%, 44.705882%, 67.45098%)" stroke-opacity="1" stroke-miterlimit="10" d="M -4.444895 -1.358563 C -4.481241 -1.38693 -4.517651 -1.415362 -4.553997 -1.44373 " transform="matrix(59.971361, 0, 0, -59.900736, 335.5, 226)"/>
<path fill="none" stroke-width="0.04" stroke-linecap="butt" stroke-linejoin="miter" stroke="rgb(60.392157%, 44.705882%, 67.45098%)" stroke-opacity="1" stroke-miterlimit="10" d="M -4.667853 -1.532614 C -4.704264 -1.560981 -4.740609 -1.589413 -4.77702 -1.617781 " transform="matrix(59.971361, 0, 0, -59.900736, 335.5, 226)"/>
<path fill="none" stroke-width="0.04" stroke-linecap="butt" stroke-linejoin="miter" stroke="rgb(60.392157%, 44.705882%, 67.45098%)" stroke-opacity="1" stroke-miterlimit="10" d="M -4.890876 -1.706665 C -4.927222 -1.735032 -4.963632 -1.763464 -4.999978 -1.791832 " transform="matrix(59.971361, 0, 0, -59.900736, 335.5, 226)"/>
<path fill="none" stroke-width="0.04" stroke-linecap="butt" stroke-linejoin="miter" stroke="rgb(60.392157%, 44.705882%, 67.45098%)" stroke-opacity="1" stroke-miterlimit="10" d="M 0.238069 -3.179544 C 0.238069 -3.125875 0.238069 -3.072205 0.238069 -3.01847 " transform="matrix(59.971361, 0, 0, -59.900736, 335.5, 226)"/>
<path fill="none" stroke-width="0.04" stroke-linecap="butt" stroke-linejoin="miter" stroke="rgb(60.392157%, 44.705882%, 67.45098%)" stroke-opacity="1" stroke-miterlimit="10" d="M 0.238069 -2.847354 C 0.238069 -2.793684 0.238069 -2.740015 0.238069 -2.68628 " transform="matrix(59.971361, 0, 0, -59.900736, 335.5, 226)"/>
<path fill="none" stroke-width="0.04" stroke-linecap="butt" stroke-linejoin="miter" stroke="rgb(60.392157%, 44.705882%, 67.45098%)" stroke-opacity="1" stroke-miterlimit="10" d="M 0.238069 -2.515164 C 0.238069 -2.461494 0.238069 -2.407759 0.238069 -2.35409 " transform="matrix(59.971361, 0, 0, -59.900736, 335.5, 226)"/>
<path fill="none" stroke-width="0.04" stroke-linecap="butt" stroke-linejoin="miter" stroke="rgb(60.392157%, 44.705882%, 67.45098%)" stroke-opacity="1" stroke-miterlimit="10" d="M 0.238069 -2.182973 C 0.238069 -2.129304 0.238069 -2.075569 0.238069 -2.0219 " transform="matrix(59.971361, 0, 0, -59.900736, 335.5, 226)"/>
<path fill="none" stroke-width="0.04" stroke-linecap="butt" stroke-linejoin="miter" stroke="rgb(60.392157%, 44.705882%, 67.45098%)" stroke-opacity="1" stroke-miterlimit="10" d="M 0.238069 -1.850783 C 0.238069 -1.797114 0.238069 -1.743379 0.238069 -1.68971 " transform="matrix(59.971361, 0, 0, -59.900736, 335.5, 226)"/>
<path fill="none" stroke-width="0.04" stroke-linecap="butt" stroke-linejoin="miter" stroke="rgb(60.392157%, 44.705882%, 67.45098%)" stroke-opacity="1" stroke-miterlimit="10" d="M 0.238069 -1.518593 C 0.238069 -1.464924 0.238069 -1.411189 0.238069 -1.357519 " transform="matrix(59.971361, 0, 0, -59.900736, 335.5, 226)"/>
<path fill="none" stroke-width="0.04" stroke-linecap="butt" stroke-linejoin="miter" stroke="rgb(60.392157%, 44.705882%, 67.45098%)" stroke-opacity="1" stroke-miterlimit="10" d="M 0.238069 -1.186403 C 0.238069 -1.132668 0.238069 -1.078999 0.238069 -1.025329 " transform="matrix(59.971361, 0, 0, -59.900736, 335.5, 226)"/>
<path fill="none" stroke-width="0.04" stroke-linecap="butt" stroke-linejoin="miter" stroke="rgb(60.392157%, 44.705882%, 67.45098%)" stroke-opacity="1" stroke-miterlimit="10" d="M 0.238069 -0.854213 C 0.238069 -0.800478 0.238069 -0.746808 0.238069 -0.693139 " transform="matrix(59.971361, 0, 0, -59.900736, 335.5, 226)"/>
<path fill="none" stroke-width="0.04" stroke-linecap="butt" stroke-linejoin="miter" stroke="rgb(60.392157%, 44.705882%, 67.45098%)" stroke-opacity="1" stroke-miterlimit="10" d="M 0.238069 -0.522022 C 0.238069 -0.468288 0.238069 -0.414618 0.238069 -0.360949 " transform="matrix(59.971361, 0, 0, -59.900736, 335.5, 226)"/>
<path fill="none" stroke-width="0.04" stroke-linecap="butt" stroke-linejoin="miter" stroke="rgb(60.392157%, 44.705882%, 67.45098%)" stroke-opacity="1" stroke-miterlimit="10" d="M 0.238069 -0.189832 C 0.238069 -0.136098 0.238069 -0.082428 0.238069 -0.0287585 " transform="matrix(59.971361, 0, 0, -59.900736, 335.5, 226)"/>
<path fill="none" stroke-width="0.04" stroke-linecap="butt" stroke-linejoin="miter" stroke="rgb(60.392157%, 44.705882%, 67.45098%)" stroke-opacity="1" stroke-miterlimit="10" d="M 0.238069 0.142423 C 0.238069 0.196093 0.238069 0.249762 0.238069 0.303432 " transform="matrix(59.971361, 0, 0, -59.900736, 335.5, 226)"/>
<path fill="none" stroke-width="0.04" stroke-linecap="butt" stroke-linejoin="miter" stroke="rgb(60.392157%, 44.705882%, 67.45098%)" stroke-opacity="1" stroke-miterlimit="10" d="M 0.238069 0.474613 C 0.238069 0.528283 0.238069 0.581952 0.238069 0.635687 " transform="matrix(59.971361, 0, 0, -59.900736, 335.5, 226)"/>
<path fill="none" stroke-width="0.04" stroke-linecap="butt" stroke-linejoin="miter" stroke="rgb(60.392157%, 44.705882%, 67.45098%)" stroke-opacity="1" stroke-miterlimit="10" d="M 0.238069 0.806804 C 0.238069 0.860473 0.238069 0.914143 0.238069 0.967877 " transform="matrix(59.971361, 0, 0, -59.900736, 335.5, 226)"/>
<path fill="none" stroke-width="0.04" stroke-linecap="butt" stroke-linejoin="miter" stroke="rgb(60.392157%, 44.705882%, 67.45098%)" stroke-opacity="1" stroke-miterlimit="10" d="M 0.238069 1.138994 C 0.238069 1.192663 0.238069 1.246333 0.238069 1.300067 " transform="matrix(59.971361, 0, 0, -59.900736, 335.5, 226)"/>
<path fill="none" stroke-width="0.04" stroke-linecap="butt" stroke-linejoin="miter" stroke="rgb(60.392157%, 44.705882%, 67.45098%)" stroke-opacity="1" stroke-miterlimit="10" d="M 0.238069 1.471184 C 0.238069 1.524853 0.238069 1.578523 0.238069 1.632258 " transform="matrix(59.971361, 0, 0, -59.900736, 335.5, 226)"/>
<path fill="none" stroke-width="0.04" stroke-linecap="butt" stroke-linejoin="miter" stroke="rgb(60.392157%, 44.705882%, 67.45098%)" stroke-opacity="1" stroke-miterlimit="10" d="M 0.238069 1.803374 C 0.238069 1.857044 0.238069 1.910778 0.238069 1.964448 " transform="matrix(59.971361, 0, 0, -59.900736, 335.5, 226)"/>
<path fill="none" stroke-width="0.04" stroke-linecap="butt" stroke-linejoin="miter" stroke="rgb(60.392157%, 44.705882%, 67.45098%)" stroke-opacity="1" stroke-miterlimit="10" d="M 0.238069 2.135564 C 0.238069 2.189234 0.238069 2.242969 0.238069 2.296638 " transform="matrix(59.971361, 0, 0, -59.900736, 335.5, 226)"/>
<path fill-rule="nonzero" fill="rgb(60.392157%, 44.705882%, 67.45098%)" fill-opacity="1" d="M 38.640625 333.332031 C 38.640625 332.539062 38.324219 331.777344 37.761719 331.214844 C 37.199219 330.652344 36.4375 330.335938 35.644531 330.335938 C 34.847656 330.335938 34.085938 330.652344 33.523438 331.214844 C 32.960938 331.777344 32.644531 332.539062 32.644531 333.332031 C 32.644531 334.125 32.960938 334.886719 33.523438 335.449219 C 34.085938 336.011719 34.847656 336.328125 35.644531 336.328125 C 36.4375 336.328125 37.199219 336.011719 37.761719 335.449219 C 38.324219 334.886719 38.640625 334.125 38.640625 333.332031 Z M 38.640625 333.332031 "/>
<path fill-rule="nonzero" fill="rgb(60.392157%, 44.705882%, 67.45098%)" fill-opacity="1" d="M 352.777344 416.457031 C 352.777344 415.664062 352.460938 414.902344 351.898438 414.339844 C 351.335938 413.777344 350.574219 413.460938 349.777344 413.460938 C 348.984375 413.460938 348.222656 413.777344 347.660156 414.339844 C 347.097656 414.902344 346.78125 415.664062 346.78125 416.457031 C 346.78125 417.253906 347.097656 418.015625 347.660156 418.574219 C 348.222656 419.136719 348.984375 419.453125 349.777344 419.453125 C 350.574219 419.453125 351.335938 419.136719 351.898438 418.574219 C 352.460938 418.015625 352.777344 417.253906 352.777344 416.457031 Z M 352.777344 416.457031 "/>
<path fill-rule="nonzero" fill="rgb(60.392157%, 44.705882%, 67.45098%)" fill-opacity="1" d="M 666.914062 333.332031 C 666.914062 332.539062 666.597656 331.777344 666.035156 331.214844 C 665.472656 330.652344 664.710938 330.335938 663.914062 330.335938 C 663.121094 330.335938 662.355469 330.652344 661.792969 331.214844 C 661.230469 331.777344 660.917969 332.539062 660.917969 333.332031 C 660.917969 334.125 661.230469 334.886719 661.792969 335.449219 C 662.355469 336.011719 663.121094 336.328125 663.914062 336.328125 C 664.710938 336.328125 665.472656 336.011719 666.035156 335.449219 C 666.597656 334.886719 666.914062 334.125 666.914062 333.332031 Z M 666.914062 333.332031 "/>
<path fill-rule="nonzero" fill="rgb(60.392157%, 44.705882%, 67.45098%)" fill-opacity="1" d="M 352.777344 88.429688 C 352.777344 87.636719 352.460938 86.875 351.898438 86.3125 C 351.335938 85.75 350.574219 85.433594 349.777344 85.433594 C 348.984375 85.433594 348.222656 85.75 347.660156 86.3125 C 347.097656 86.875 346.78125 87.636719 346.78125 88.429688 C 346.78125 89.222656 347.097656 89.984375 347.660156 90.546875 C 348.222656 91.109375 348.984375 91.425781 349.777344 91.425781 C 350.574219 91.425781 351.335938 91.109375 351.898438 90.546875 C 352.460938 89.984375 352.777344 89.222656 352.777344 88.429688 Z M 352.777344 88.429688 "/>
<path fill="none" stroke-width="0.04" stroke-linecap="butt" stroke-linejoin="miter" stroke="rgb(98.823529%, 38.431373%, 33.333333%)" stroke-opacity="1" stroke-miterlimit="10" d="M -4.999978 -3.391809 C -4.999978 -3.158481 -4.999978 -2.925152 -4.999978 -2.691823 " transform="matrix(59.971361, 0, 0, -59.900736, 335.5, 226)"/>
<path fill-rule="nonzero" fill="rgb(98.823529%, 38.431373%, 33.333333%)" fill-opacity="1" d="M 35.644531 369.273438 C 33.644531 375.261719 31.644531 381.253906 29.644531 387.242188 C 33.644531 387.242188 37.640625 387.242188 41.640625 387.242188 C 39.640625 381.253906 37.640625 375.261719 35.644531 369.273438 Z M 35.644531 369.273438 "/>
<path fill-rule="nonzero" fill="rgb(98.823529%, 38.431373%, 33.333333%)" fill-opacity="1" d="M 11.519531 445.890625 C 11.519531 443.386719 9.796875 441.363281 6.574219 441.363281 C 5.941406 441.363281 4.789062 441.429688 3.765625 442.125 C 3.765625 441.167969 3.765625 440.210938 3.765625 439.253906 C 4.375 439.363281 4.613281 439.40625 5.355469 439.40625 C 8.535156 439.40625 10.539062 436.949219 10.539062 436.402344 C 10.539062 436.25 10.496094 436.011719 10.234375 436.011719 C 10.167969 436.011719 10.148438 436.011719 9.90625 436.097656 C 8.664062 436.578125 7.511719 436.707031 6.574219 436.707031 C 4.917969 436.707031 3.765625 436.296875 3.199219 436.097656 C 3.003906 436.035156 2.980469 436.011719 2.914062 436.011719 C 2.609375 436.011719 2.609375 436.25 2.609375 436.601562 C 2.609375 438.71875 2.609375 440.835938 2.609375 442.953125 C 2.609375 443.34375 2.609375 443.628906 3.089844 443.628906 C 3.371094 443.628906 3.417969 443.539062 3.570312 443.367188 C 4.417969 442.367188 5.59375 442.148438 6.488281 442.148438 C 8.425781 442.148438 8.425781 444.0625 8.425781 445.804688 C 8.425781 447.390625 8.425781 449.566406 5.8125 449.566406 C 5.289062 449.566406 3.917969 449.457031 3.003906 448.21875 C 3.785156 448.175781 4.417969 447.652344 4.417969 446.761719 C 4.417969 445.605469 3.480469 445.28125 2.957031 445.28125 C 2.632812 445.28125 1.5 445.476562 1.5 446.804688 C 1.5 448.652344 3.199219 450.503906 5.898438 450.503906 C 9.382812 450.503906 11.519531 448.542969 11.519531 445.890625 Z M 11.519531 445.890625 "/>
<path fill-rule="nonzero" fill="rgb(98.823529%, 38.431373%, 33.333333%)" fill-opacity="1" d="M 24.304688 443.324219 C 24.304688 441.210938 24.285156 436.011719 19.035156 436.011719 C 13.785156 436.011719 13.761719 441.191406 13.761719 443.324219 C 13.761719 445.476562 13.785156 450.503906 19.035156 450.503906 C 24.261719 450.503906 24.304688 445.5 24.304688 443.324219 Z M 19.035156 449.71875 C 18.25 449.71875 17.03125 449.242188 16.746094 447.652344 C 16.550781 446.519531 16.550781 444.257812 16.550781 443.0625 C 16.550781 441.496094 16.550781 440.082031 16.726562 438.949219 C 16.988281 437.011719 18.511719 436.796875 19.035156 436.796875 C 19.839844 436.796875 20.734375 437.207031 21.148438 438.167969 C 21.519531 438.972656 21.519531 441.277344 21.519531 443.0625 C 21.519531 444.28125 21.519531 446.261719 21.363281 447.390625 C 21.058594 449.414062 19.6875 449.71875 19.035156 449.71875 Z M 19.035156 449.71875 "/>
<path fill-rule="nonzero" fill="rgb(98.823529%, 38.431373%, 33.333333%)" fill-opacity="1" d="M 36.832031 443.324219 C 36.832031 441.210938 36.808594 436.011719 31.558594 436.011719 C 26.308594 436.011719 26.289062 441.191406 26.289062 443.324219 C 26.289062 445.476562 26.308594 450.503906 31.558594 450.503906 C 36.789062 450.503906 36.832031 445.5 36.832031 443.324219 Z M 31.558594 449.71875 C 30.773438 449.71875 29.554688 449.242188 29.273438 447.652344 C 29.078125 446.519531 29.078125 444.257812 29.078125 443.0625 C 29.078125 441.496094 29.078125 440.082031 29.25 438.949219 C 29.511719 437.011719 31.035156 436.796875 31.558594 436.796875 C 32.367188 436.796875 33.257812 437.207031 33.671875 438.167969 C 34.042969 438.972656 34.042969 441.277344 34.042969 443.0625 C 34.042969 444.28125 34.042969 446.261719 33.890625 447.390625 C 33.585938 449.414062 32.214844 449.71875 31.558594 449.71875 Z M 31.558594 449.71875 "/>
<path fill-rule="nonzero" fill="rgb(98.823529%, 38.431373%, 33.333333%)" fill-opacity="1" d="M 42.496094 445.105469 C 42.496094 441.792969 42.496094 438.476562 42.496094 435.164062 C 41.210938 435.222656 39.925781 435.28125 38.640625 435.335938 C 38.640625 435.679688 38.640625 436.019531 38.640625 436.359375 C 39.988281 436.359375 40.140625 436.359375 40.140625 437.207031 C 40.140625 441.21875 40.140625 445.230469 40.140625 449.242188 C 39.640625 449.242188 39.140625 449.242188 38.640625 449.242188 C 38.640625 449.582031 38.640625 449.921875 38.640625 450.261719 C 39.445312 450.242188 40.46875 450.199219 41.253906 450.199219 C 42.058594 450.199219 43.105469 450.242188 43.886719 450.261719 C 43.886719 449.921875 43.886719 449.582031 43.886719 449.242188 C 43.386719 449.242188 42.886719 449.242188 42.386719 449.242188 C 42.386719 448.320312 42.386719 447.398438 42.386719 446.476562 C 43.015625 445.976562 43.191406 445.847656 43.628906 445.542969 C 44.359375 446.457031 45.09375 447.371094 45.828125 448.285156 C 46.023438 448.542969 46.371094 448.980469 46.371094 449.042969 C 46.371094 449.242188 45.980469 449.242188 45.695312 449.242188 C 45.695312 449.582031 45.695312 449.921875 45.695312 450.261719 C 46.351562 450.21875 48.246094 450.199219 48.355469 450.199219 C 49.136719 450.199219 49.878906 450.21875 50.621094 450.261719 C 50.621094 449.921875 50.621094 449.582031 50.621094 449.242188 C 50.496094 449.242188 50.371094 449.242188 50.25 449.242188 C 49.3125 449.242188 49.246094 449.152344 48.964844 448.804688 C 47.738281 447.273438 46.507812 445.746094 45.28125 444.214844 C 46.226562 443.480469 47.171875 442.75 48.113281 442.015625 C 48.417969 441.777344 48.617188 441.625 50.074219 441.625 C 50.074219 441.285156 50.074219 440.945312 50.074219 440.601562 C 49.488281 440.667969 48.941406 440.667969 48.375 440.667969 C 47.789062 440.667969 46.371094 440.625 45.871094 440.601562 C 45.871094 440.945312 45.871094 441.285156 45.871094 441.625 C 46.371094 441.625 46.4375 441.691406 46.613281 441.863281 C 45.238281 442.945312 43.867188 444.027344 42.496094 445.105469 Z M 42.496094 445.105469 "/>
<path fill-rule="nonzero" fill="rgb(98.823529%, 38.431373%, 33.333333%)" fill-opacity="1" d="M 57.609375 435.621094 C 57.371094 435.359375 57.347656 435.335938 56.890625 435.335938 C 55.230469 435.335938 53.566406 435.335938 51.902344 435.335938 C 51.902344 435.679688 51.902344 436.019531 51.902344 436.359375 C 52.6875 436.359375 53.472656 436.359375 54.257812 436.359375 C 54.257812 440.445312 54.257812 444.527344 54.257812 448.609375 C 54.257812 449.089844 54.234375 449.109375 53.625 449.175781 C 53.101562 449.242188 53.058594 449.242188 52.449219 449.242188 C 52.265625 449.242188 52.085938 449.242188 51.902344 449.242188 C 51.902344 449.582031 51.902344 449.921875 51.902344 450.261719 C 52.730469 450.199219 53.972656 450.199219 54.824219 450.199219 C 55.738281 450.199219 56.871094 450.199219 57.761719 450.261719 C 57.761719 449.921875 57.761719 449.582031 57.761719 449.242188 C 57.582031 449.242188 57.398438 449.242188 57.21875 449.242188 C 56.828125 449.242188 56.457031 449.21875 56.0625 449.175781 C 55.433594 449.109375 55.410156 449.089844 55.410156 448.609375 C 55.410156 444.816406 55.410156 441.023438 55.410156 437.230469 C 59.027344 441.480469 62.640625 445.730469 66.257812 449.980469 C 66.476562 450.242188 66.496094 450.261719 66.847656 450.261719 C 67.433594 450.261719 67.433594 450.066406 67.433594 449.566406 C 67.433594 445.375 67.433594 441.183594 67.433594 436.992188 C 67.433594 436.511719 67.457031 436.492188 68.066406 436.425781 C 68.589844 436.359375 68.632812 436.359375 69.242188 436.359375 C 69.425781 436.359375 69.605469 436.359375 69.785156 436.359375 C 69.785156 436.019531 69.785156 435.679688 69.785156 435.335938 C 68.960938 435.402344 67.71875 435.402344 66.867188 435.402344 C 65.953125 435.402344 64.820312 435.402344 63.925781 435.335938 C 63.925781 435.679688 63.925781 436.019531 63.925781 436.359375 C 64.109375 436.359375 64.289062 436.359375 64.472656 436.359375 C 64.863281 436.359375 65.234375 436.382812 65.625 436.425781 C 66.257812 436.492188 66.28125 436.511719 66.28125 436.992188 C 66.28125 439.929688 66.28125 442.867188 66.28125 445.804688 C 63.390625 442.410156 60.5 439.015625 57.609375 435.621094 Z M 57.609375 435.621094 "/>
<path fill="none" stroke-width="0.04" stroke-linecap="butt" stroke-linejoin="miter" stroke="rgb(98.823529%, 38.431373%, 33.333333%)" stroke-opacity="1" stroke-miterlimit="10" d="M 4.999978 -3.391809 C 4.999978 -3.158481 4.999978 -2.925152 4.999978 -2.691823 " transform="matrix(59.971361, 0, 0, -59.900736, 335.5, 226)"/>
<path fill-rule="nonzero" fill="rgb(98.823529%, 38.431373%, 33.333333%)" fill-opacity="1" d="M 635.355469 369.273438 C 633.359375 375.261719 631.359375 381.253906 629.359375 387.242188 C 633.359375 387.242188 637.355469 387.242188 641.355469 387.242188 C 639.355469 381.253906 637.355469 375.261719 635.355469 369.273438 Z M 635.355469 369.273438 "/>
<path fill-rule="nonzero" fill="rgb(98.823529%, 38.431373%, 33.333333%)" fill-opacity="1" d="M 611.234375 445.890625 C 611.234375 443.386719 609.511719 441.363281 606.289062 441.363281 C 605.65625 441.363281 604.503906 441.429688 603.476562 442.125 C 603.476562 441.167969 603.476562 440.210938 603.476562 439.253906 C 604.089844 439.363281 604.328125 439.40625 605.070312 439.40625 C 608.25 439.40625 610.253906 436.949219 610.253906 436.402344 C 610.253906 436.25 610.210938 436.011719 609.949219 436.011719 C 609.882812 436.011719 609.859375 436.011719 609.621094 436.097656 C 608.378906 436.578125 607.226562 436.707031 606.289062 436.707031 C 604.632812 436.707031 603.476562 436.296875 602.910156 436.097656 C 602.714844 436.035156 602.695312 436.011719 602.628906 436.011719 C 602.324219 436.011719 602.324219 436.25 602.324219 436.601562 C 602.324219 438.71875 602.324219 440.835938 602.324219 442.953125 C 602.324219 443.34375 602.324219 443.628906 602.804688 443.628906 C 603.085938 443.628906 603.128906 443.539062 603.28125 443.367188 C 604.132812 442.367188 605.308594 442.148438 606.199219 442.148438 C 608.140625 442.148438 608.140625 444.0625 608.140625 445.804688 C 608.140625 447.390625 608.140625 449.566406 605.527344 449.566406 C 605.003906 449.566406 603.628906 449.457031 602.714844 448.21875 C 603.5 448.175781 604.132812 447.652344 604.132812 446.761719 C 604.132812 445.605469 603.195312 445.28125 602.671875 445.28125 C 602.34375 445.28125 601.214844 445.476562 601.214844 446.804688 C 601.214844 448.652344 602.910156 450.503906 605.613281 450.503906 C 609.097656 450.503906 611.234375 448.542969 611.234375 445.890625 Z M 611.234375 445.890625 "/>
<path fill-rule="nonzero" fill="rgb(98.823529%, 38.431373%, 33.333333%)" fill-opacity="1" d="M 624.019531 443.324219 C 624.019531 441.210938 623.996094 436.011719 618.746094 436.011719 C 613.5 436.011719 613.476562 441.191406 613.476562 443.324219 C 613.476562 445.476562 613.5 450.503906 618.746094 450.503906 C 623.976562 450.503906 624.019531 445.5 624.019531 443.324219 Z M 618.746094 449.71875 C 617.964844 449.71875 616.742188 449.242188 616.460938 447.652344 C 616.265625 446.519531 616.265625 444.257812 616.265625 443.0625 C 616.265625 441.496094 616.265625 440.082031 616.4375 438.949219 C 616.699219 437.011719 618.226562 436.796875 618.746094 436.796875 C 619.554688 436.796875 620.445312 437.207031 620.859375 438.167969 C 621.230469 438.972656 621.230469 441.277344 621.230469 443.0625 C 621.230469 444.28125 621.230469 446.261719 621.078125 447.390625 C 620.773438 449.414062 619.402344 449.71875 618.746094 449.71875 Z M 618.746094 449.71875 "/>
<path fill-rule="nonzero" fill="rgb(98.823529%, 38.431373%, 33.333333%)" fill-opacity="1" d="M 636.542969 443.324219 C 636.542969 441.210938 636.523438 436.011719 631.273438 436.011719 C 626.023438 436.011719 626 441.191406 626 443.324219 C 626 445.476562 626.023438 450.503906 631.273438 450.503906 C 636.5 450.503906 636.542969 445.5 636.542969 443.324219 Z M 631.273438 449.71875 C 630.488281 449.71875 629.269531 449.242188 628.984375 447.652344 C 628.789062 446.519531 628.789062 444.257812 628.789062 443.0625 C 628.789062 441.496094 628.789062 440.082031 628.964844 438.949219 C 629.226562 437.011719 630.75 436.796875 631.273438 436.796875 C 632.078125 436.796875 632.972656 437.207031 633.386719 438.167969 C 633.757812 438.972656 633.757812 441.277344 633.757812 443.0625 C 633.757812 444.28125 633.757812 446.261719 633.605469 447.390625 C 633.300781 449.414062 631.925781 449.71875 631.273438 449.71875 Z M 631.273438 449.71875 "/>
<path fill-rule="nonzero" fill="rgb(98.823529%, 38.431373%, 33.333333%)" fill-opacity="1" d="M 642.207031 445.105469 C 642.207031 441.792969 642.207031 438.476562 642.207031 435.164062 C 640.921875 435.222656 639.636719 435.28125 638.351562 435.335938 C 638.351562 435.679688 638.351562 436.019531 638.351562 436.359375 C 639.703125 436.359375 639.855469 436.359375 639.855469 437.207031 C 639.855469 441.21875 639.855469 445.230469 639.855469 449.242188 C 639.355469 449.242188 638.851562 449.242188 638.351562 449.242188 C 638.351562 449.582031 638.351562 449.921875 638.351562 450.261719 C 639.160156 450.242188 640.183594 450.199219 640.964844 450.199219 C 641.773438 450.199219 642.816406 450.242188 643.601562 450.261719 C 643.601562 449.921875 643.601562 449.582031 643.601562 449.242188 C 643.101562 449.242188 642.601562 449.242188 642.097656 449.242188 C 642.097656 448.320312 642.097656 447.398438 642.097656 446.476562 C 642.730469 445.976562 642.90625 445.847656 643.339844 445.542969 C 644.074219 446.457031 644.808594 447.371094 645.539062 448.285156 C 645.738281 448.542969 646.085938 448.980469 646.085938 449.042969 C 646.085938 449.242188 645.691406 449.242188 645.410156 449.242188 C 645.410156 449.582031 645.410156 449.921875 645.410156 450.261719 C 646.0625 450.21875 647.957031 450.199219 648.066406 450.199219 C 648.851562 450.199219 649.59375 450.21875 650.332031 450.261719 C 650.332031 449.921875 650.332031 449.582031 650.332031 449.242188 C 650.210938 449.242188 650.085938 449.242188 649.960938 449.242188 C 649.027344 449.242188 648.960938 449.152344 648.675781 448.804688 C 647.449219 447.273438 646.222656 445.746094 644.996094 444.214844 C 645.941406 443.480469 646.882812 442.75 647.828125 442.015625 C 648.132812 441.777344 648.328125 441.625 649.789062 441.625 C 649.789062 441.285156 649.789062 440.945312 649.789062 440.601562 C 649.199219 440.667969 648.65625 440.667969 648.089844 440.667969 C 647.5 440.667969 646.085938 440.625 645.585938 440.601562 C 645.585938 440.945312 645.585938 441.285156 645.585938 441.625 C 646.085938 441.625 646.152344 441.691406 646.324219 441.863281 C 644.953125 442.945312 643.582031 444.027344 642.207031 445.105469 Z M 642.207031 445.105469 "/>
<path fill-rule="nonzero" fill="rgb(98.823529%, 38.431373%, 33.333333%)" fill-opacity="1" d="M 657.324219 435.621094 C 657.085938 435.359375 657.0625 435.335938 656.605469 435.335938 C 654.941406 435.335938 653.28125 435.335938 651.617188 435.335938 C 651.617188 435.679688 651.617188 436.019531 651.617188 436.359375 C 652.402344 436.359375 653.183594 436.359375 653.96875 436.359375 C 653.96875 440.445312 653.96875 444.527344 653.96875 448.609375 C 653.96875 449.089844 653.949219 449.109375 653.335938 449.175781 C 652.816406 449.242188 652.769531 449.242188 652.160156 449.242188 C 651.980469 449.242188 651.796875 449.242188 651.617188 449.242188 C 651.617188 449.582031 651.617188 449.921875 651.617188 450.261719 C 652.445312 450.199219 653.6875 450.199219 654.535156 450.199219 C 655.449219 450.199219 656.582031 450.199219 657.476562 450.261719 C 657.476562 449.921875 657.476562 449.582031 657.476562 449.242188 C 657.296875 449.242188 657.113281 449.242188 656.933594 449.242188 C 656.539062 449.242188 656.167969 449.21875 655.777344 449.175781 C 655.144531 449.109375 655.125 449.089844 655.125 448.609375 C 655.125 444.816406 655.125 441.023438 655.125 437.230469 C 658.738281 441.480469 662.355469 445.730469 665.972656 449.980469 C 666.191406 450.242188 666.210938 450.261719 666.558594 450.261719 C 667.148438 450.261719 667.148438 450.066406 667.148438 449.566406 C 667.148438 445.375 667.148438 441.183594 667.148438 436.992188 C 667.148438 436.511719 667.171875 436.492188 667.78125 436.425781 C 668.300781 436.359375 668.347656 436.359375 668.957031 436.359375 C 669.136719 436.359375 669.320312 436.359375 669.5 436.359375 C 669.5 436.019531 669.5 435.679688 669.5 435.335938 C 668.671875 435.402344 667.429688 435.402344 666.582031 435.402344 C 665.667969 435.402344 664.535156 435.402344 663.640625 435.335938 C 663.640625 435.679688 663.640625 436.019531 663.640625 436.359375 C 663.824219 436.359375 664.003906 436.359375 664.1875 436.359375 C 664.578125 436.359375 664.949219 436.382812 665.339844 436.425781 C 665.972656 436.492188 665.992188 436.511719 665.992188 436.992188 C 665.992188 439.929688 665.992188 442.867188 665.992188 445.804688 C 663.105469 442.410156 660.214844 439.015625 657.324219 435.621094 Z M 657.324219 435.621094 "/>
</svg>
