<?xml version="1.0" encoding="UTF-8"?>
<svg xmlns="http://www.w3.org/2000/svg" xmlns:xlink="http://www.w3.org/1999/xlink" width="714" height="466" viewBox="0 0 714 466">
<path fill="none" stroke-width="0.04" stroke-linecap="butt" stroke-linejoin="miter" stroke="rgb(0%, 0%, 0%)" stroke-opacity="1" stroke-miterlimit="10" d="M -4.411644 -2.365293 C -2.811639 -2.365293 -1.211634 -2.365293 0.388371 -2.365293 " transform="matrix(60.036434, 0, 0, -59.892812, 357, 233)"/>
<path fill="none" stroke-width="0.04" stroke-linecap="butt" stroke-linejoin="miter" stroke="rgb(0%, 0%, 0%)" stroke-opacity="1" stroke-miterlimit="10" d="M 0.58838 -2.365293 C 2.188385 -2.365293 3.78839 -2.365293 5.388395 -2.365293 " transform="matrix(60.036434, 0, 0, -59.892812, 357, 233)"/>
<path fill="none" stroke-width="0.04" stroke-linecap="butt" stroke-linejoin="miter" stroke="rgb(0%, 0%, 0%)" stroke-opacity="1" stroke-miterlimit="10" d="M 5.417674 -2.294594 C 3.798149 -0.675034 2.178625 0.944461 0.559101 2.564021 " transform="matrix(60.036434, 0, 0, -59.892812, 357, 233)"/>
<path fill="none" stroke-width="0.04" stroke-linecap="butt" stroke-linejoin="miter" stroke="rgb(0%, 0%, 0%)" stroke-opacity="1" stroke-miterlimit="10" d="M 0.41765 2.564021 C -1.201874 0.944461 -2.821399 -0.675034 -4.440923 -2.294594 " transform="matrix(60.036434, 0, 0, -59.892812, 357, 233)"/>
<path fill="none" stroke-width="0.04" stroke-linecap="butt" stroke-linejoin="miter" stroke="rgb(0%, 0%, 0%)" stroke-opacity="1" stroke-miterlimit="10" d="M 0.488375 -2.26531 C 0.488375 -0.665251 0.488375 0.934743 0.488375 2.534737 " transform="matrix(60.036434, 0, 0, -59.892812, 357, 233)"/>
<path fill="none" stroke-width="0.04" stroke-linecap="butt" stroke-linejoin="miter" stroke="rgb(0%, 0%, 0%)" stroke-opacity="1" stroke-miterlimit="10" d="M -4.511648 -2.365293 C -4.607879 -2.531932 -4.704045 -2.698636 -4.800275 -2.865275 C -4.607879 -2.865275 -4.415418 -2.865275 -4.222957 -2.865275 C -4.319187 -2.698636 -4.415418 -2.531932 -4.511648 -2.365293 Z M -4.511648 -2.365293 " transform="matrix(60.036434, 0, 0, -59.892812, 357, 233)"/>
<path fill="none" stroke-width="0.04" stroke-linecap="butt" stroke-linejoin="miter" stroke="rgb(0%, 0%, 0%)" stroke-opacity="1" stroke-miterlimit="10" d="M -4.078643 -2.865275 C -4.36727 -2.865275 -4.655962 -2.865275 -4.944654 -2.865275 " transform="matrix(60.036434, 0, 0, -59.892812, 357, 233)"/>
<path fill="none" stroke-width="0.04" stroke-linecap="butt" stroke-linejoin="miter" stroke="rgb(0%, 0%, 0%)" stroke-opacity="1" stroke-miterlimit="10" d="M 5.488399 -2.365293 C 5.392168 -2.531932 5.295938 -2.698636 5.199707 -2.865275 C 5.392168 -2.865275 5.58463 -2.865275 5.777026 -2.865275 C 5.680795 -2.698636 5.58463 -2.531932 5.488399 -2.365293 Z M 5.488399 -2.365293 " transform="matrix(60.036434, 0, 0, -59.892812, 357, 233)"/>
<path fill="none" stroke-width="0.04" stroke-linecap="butt" stroke-linejoin="miter" stroke="rgb(0%, 0%, 0%)" stroke-opacity="1" stroke-miterlimit="10" d="M 5.921404 -2.865275 C 5.632712 -2.865275 5.344021 -2.865275 5.055394 -2.865275 " transform="matrix(60.036434, 0, 0, -59.892812, 357, 233)"/>
<path fill-rule="nonzero" fill="rgb(0%, 0%, 0%)" fill-opacity="1" d="M 92.140625 374.664062 C 92.140625 373.074219 91.507812 371.550781 90.382812 370.429688 C 89.257812 369.304688 87.730469 368.675781 86.136719 368.675781 C 84.546875 368.675781 83.019531 369.304688 81.894531 370.429688 C 80.765625 371.550781 80.132812 373.074219 80.132812 374.664062 C 80.132812 376.25 80.765625 377.773438 81.894531 378.898438 C 83.019531 380.023438 84.546875 380.652344 86.136719 380.652344 C 87.730469 380.652344 89.257812 380.023438 90.382812 378.898438 C 91.507812 377.773438 92.140625 376.25 92.140625 374.664062 Z M 92.140625 374.664062 "/>
<path fill-rule="nonzero" fill="rgb(0%, 0%, 0%)" fill-opacity="1" d="M 392.324219 374.664062 C 392.324219 373.074219 391.691406 371.550781 390.566406 370.429688 C 389.441406 369.304688 387.914062 368.675781 386.320312 368.675781 C 384.726562 368.675781 383.199219 369.304688 382.074219 370.429688 C 380.949219 371.550781 380.316406 373.074219 380.316406 374.664062 C 380.316406 376.25 380.949219 377.773438 382.074219 378.898438 C 383.199219 380.023438 384.726562 380.652344 386.320312 380.652344 C 387.914062 380.652344 389.441406 380.023438 390.566406 378.898438 C 391.691406 377.773438 392.324219 376.25 392.324219 374.664062 Z M 392.324219 374.664062 "/>
<path fill-rule="nonzero" fill="rgb(0%, 0%, 0%)" fill-opacity="1" d="M 692.507812 374.664062 C 692.507812 373.074219 691.875 371.550781 690.746094 370.429688 C 689.621094 369.304688 688.09375 368.675781 686.503906 368.675781 C 684.910156 368.675781 683.382812 369.304688 682.257812 370.429688 C 681.132812 371.550781 680.5 373.074219 680.5 374.664062 C 680.5 376.25 681.132812 377.773438 682.257812 378.898438 C 683.382812 380.023438 684.910156 380.652344 686.503906 380.652344 C 688.09375 380.652344 689.621094 380.023438 690.746094 378.898438 C 691.875 377.773438 692.507812 376.25 692.507812 374.664062 Z M 692.507812 374.664062 "/>
<path fill-rule="nonzero" fill="rgb(0%, 0%, 0%)" fill-opacity="1" d="M 392.324219 75.199219 C 392.324219 73.609375 391.691406 72.085938 390.566406 70.964844 C 389.441406 69.839844 387.914062 69.210938 386.320312 69.210938 C 384.726562 69.210938 383.199219 69.839844 382.074219 70.964844 C 380.949219 72.085938 380.316406 73.609375 380.316406 75.199219 C 380.316406 76.789062 380.949219 78.3125 382.074219 79.433594 C 383.199219 80.558594 384.726562 81.1875 386.320312 81.1875 C 387.914062 81.1875 389.441406 80.558594 390.566406 79.433594 C 391.691406 78.3125 392.324219 76.789062 392.324219 75.199219 Z M 392.324219 75.199219 "/>
<path fill="none" stroke-width="0.04" stroke-linecap="butt" stroke-linejoin="miter" stroke="rgb(98.823529%, 38.431373%, 33.333333%)" stroke-opacity="1" stroke-miterlimit="10" d="M 0.488375 -2.365293 C 0.488375 -2.715267 0.488375 -3.065307 0.488375 -3.415281 " transform="matrix(60.036434, 0, 0, -59.892812, 357, 233)"/>
<path fill-rule="nonzero" fill="rgb(98.823529%, 38.431373%, 33.333333%)" fill-opacity="1" d="M 386.320312 464.503906 C 389.320312 455.519531 392.324219 446.535156 395.324219 437.550781 C 389.320312 437.550781 383.320312 437.550781 377.316406 437.550781 C 380.316406 446.535156 383.320312 455.519531 386.320312 464.503906 Z M 386.320312 464.503906 "/>
<path fill-rule="nonzero" fill="rgb(0%, 0%, 0%)" fill-opacity="1" d="M 87.234375 342.335938 C 87.269531 342.371094 87.292969 342.40625 87.292969 342.429688 C 87.292969 342.441406 87.292969 342.488281 87.292969 342.570312 C 87.292969 347.460938 87.292969 352.351562 87.292969 357.238281 C 87.292969 357.859375 87.46875 358.257812 87.796875 358.433594 C 88.136719 358.597656 88.757812 358.703125 89.671875 358.738281 C 89.671875 358.851562 89.671875 358.964844 89.671875 359.074219 C 87.375 359.074219 85.078125 359.074219 82.777344 359.074219 C 82.777344 358.957031 82.777344 358.835938 82.777344 358.714844 C 83.765625 358.667969 84.410156 358.527344 84.714844 358.304688 C 85.007812 358.09375 85.160156 357.613281 85.160156 356.886719 C 85.160156 353.125 85.160156 349.363281 85.160156 345.601562 C 85.160156 345.214844 85.113281 344.910156 85.019531 344.710938 C 84.914062 344.511719 84.703125 344.40625 84.375 344.40625 C 84.164062 344.40625 83.894531 344.464844 83.550781 344.582031 C 83.210938 344.699219 82.894531 344.828125 82.601562 344.957031 C 82.601562 344.84375 82.601562 344.730469 82.601562 344.617188 C 84.101562 343.855469 85.597656 343.097656 87.09375 342.335938 C 87.140625 342.335938 87.1875 342.335938 87.234375 342.335938 Z M 87.234375 342.335938 "/>
<path fill-rule="nonzero" fill="rgb(0%, 0%, 0%)" fill-opacity="1" d="M 404.78125 358.832031 C 407.761719 355.742188 409.777344 353.472656 410.84375 352.035156 C 411.910156 350.582031 412.453125 349.179688 412.453125 347.800781 C 412.453125 346.59375 412.125 345.683594 411.464844 345.050781 C 410.820312 344.429688 410.035156 344.113281 409.132812 344.113281 C 408.019531 344.113281 407.117188 344.511719 406.425781 345.332031 C 406.039062 345.777344 405.675781 346.464844 405.320312 347.390625 C 405.148438 347.355469 404.976562 347.320312 404.804688 347.285156 C 405.203125 345.414062 405.898438 344.113281 406.871094 343.390625 C 407.84375 342.664062 408.886719 342.300781 410 342.300781 C 411.382812 342.300781 412.5 342.734375 413.34375 343.589844 C 414.199219 344.453125 414.621094 345.519531 414.621094 346.769531 C 414.621094 348.105469 414.164062 349.378906 413.238281 350.617188 C 412.324219 351.859375 410.316406 354.046875 407.246094 357.214844 C 409.113281 357.214844 410.980469 357.214844 412.851562 357.214844 C 413.636719 357.214844 414.1875 357.121094 414.503906 356.933594 C 414.820312 356.75 415.171875 356.292969 415.570312 355.566406 C 415.675781 355.613281 415.78125 355.660156 415.886719 355.707031 C 415.4375 356.84375 414.988281 357.976562 414.539062 359.109375 C 411.285156 359.109375 408.035156 359.109375 404.78125 359.109375 C 404.78125 359.019531 404.78125 358.925781 404.78125 358.832031 Z M 404.78125 358.832031 "/>
<path fill-rule="nonzero" fill="rgb(0%, 0%, 0%)" fill-opacity="1" d="M 682.492188 356.941406 C 682.9375 356.941406 683.523438 357.175781 684.261719 357.632812 C 685 358.097656 685.625 358.332031 686.140625 358.332031 C 687.277344 358.332031 688.132812 357.949219 688.683594 357.175781 C 689.234375 356.402344 689.515625 355.574219 689.515625 354.671875 C 689.515625 353.804688 689.28125 353.035156 688.835938 352.378906 C 688.085938 351.269531 686.808594 350.707031 685 350.707031 C 684.894531 350.707031 684.789062 350.71875 684.695312 350.71875 C 684.601562 350.71875 684.484375 350.730469 684.355469 350.753906 C 684.347656 350.648438 684.339844 350.542969 684.332031 350.4375 C 685.636719 349.957031 686.667969 349.417969 687.40625 348.8125 C 688.15625 348.203125 688.53125 347.394531 688.53125 346.402344 C 688.53125 345.511719 688.238281 344.835938 687.652344 344.378906 C 687.054688 343.910156 686.386719 343.675781 685.625 343.675781 C 684.730469 343.675781 683.945312 344.015625 683.253906 344.671875 C 682.878906 345.019531 682.480469 345.582031 682.046875 346.332031 C 681.921875 346.300781 681.796875 346.269531 681.671875 346.238281 C 682 345.007812 682.597656 344.015625 683.488281 343.277344 C 684.378906 342.542969 685.398438 342.167969 686.574219 342.167969 C 687.816406 342.167969 688.777344 342.507812 689.457031 343.195312 C 690.136719 343.875 690.476562 344.660156 690.476562 345.558594 C 690.476562 346.34375 690.195312 347.066406 689.632812 347.722656 C 689.316406 348.097656 688.824219 348.519531 688.15625 348.988281 C 688.941406 349.3125 689.5625 349.699219 690.03125 350.15625 C 690.921875 351.011719 691.367188 352.085938 691.367188 353.398438 C 691.367188 354.941406 690.757812 356.296875 689.539062 357.480469 C 688.320312 358.648438 686.597656 359.246094 684.34375 359.246094 C 683.347656 359.246094 682.644531 359.09375 682.234375 358.800781 C 681.835938 358.496094 681.636719 358.179688 681.636719 357.84375 C 681.636719 357.632812 681.695312 357.421875 681.835938 357.234375 C 681.964844 357.035156 682.1875 356.941406 682.492188 356.941406 Z M 682.492188 356.941406 "/>
<path fill-rule="nonzero" fill="rgb(0%, 0%, 0%)" fill-opacity="1" d="M 387.570312 45.375 C 385.566406 48.195312 383.566406 51.015625 381.566406 53.832031 C 383.566406 53.832031 385.566406 53.832031 387.570312 53.832031 C 387.570312 51.015625 387.570312 48.195312 387.570312 45.375 Z M 388.378906 42.871094 C 388.765625 42.871094 389.152344 42.871094 389.539062 42.871094 C 389.539062 46.527344 389.539062 50.179688 389.539062 53.832031 C 390.386719 53.832031 391.234375 53.832031 392.082031 53.832031 C 392.082031 54.375 392.082031 54.917969 392.082031 55.460938 C 391.234375 55.460938 390.386719 55.460938 389.539062 55.460938 C 389.539062 56.84375 389.539062 58.226562 389.539062 59.613281 C 388.890625 59.613281 388.242188 59.613281 387.59375 59.613281 C 387.59375 58.226562 387.59375 56.84375 387.59375 55.460938 C 385.246094 55.460938 382.902344 55.460938 380.558594 55.460938 C 380.558594 54.917969 380.558594 54.375 380.558594 53.832031 C 383.164062 50.179688 385.769531 46.527344 388.378906 42.871094 Z M 388.378906 42.871094 "/>
<path fill-rule="nonzero" fill="rgb(0%, 0%, 0%)" fill-opacity="1" d="M 222.738281 356.648438 C 222.738281 353.816406 223.582031 351.339844 225.28125 349.199219 C 226.328125 347.886719 227.546875 346.835938 228.964844 346.039062 C 229.042969 346.175781 229.121094 346.3125 229.199219 346.449219 C 227.886719 347.488281 226.949219 348.496094 226.386719 349.476562 C 225.402344 351.199219 224.90625 353.480469 224.90625 356.332031 C 224.90625 358.4375 225.09375 360.179688 225.472656 361.550781 C 226.128906 363.960938 227.371094 365.761719 229.199219 366.953125 C 229.09375 367.085938 228.988281 367.21875 228.882812 367.351562 C 227.875 366.871094 226.796875 365.9375 225.636719 364.542969 C 223.699219 362.230469 222.738281 359.597656 222.738281 356.648438 Z M 222.738281 356.648438 "/>
<path fill-rule="nonzero" fill="rgb(0%, 0%, 0%)" fill-opacity="1" d="M 237.992188 346.167969 C 238.027344 346.203125 238.050781 346.238281 238.050781 346.261719 C 238.050781 346.273438 238.050781 346.320312 238.050781 346.402344 C 238.050781 351.292969 238.050781 356.179688 238.050781 361.070312 C 238.050781 361.691406 238.230469 362.089844 238.558594 362.265625 C 238.898438 362.425781 239.519531 362.53125 240.433594 362.566406 C 240.433594 362.679688 240.433594 362.792969 240.433594 362.90625 C 238.132812 362.90625 235.835938 362.90625 233.539062 362.90625 C 233.539062 362.785156 233.539062 362.664062 233.539062 362.542969 C 234.523438 362.496094 235.167969 362.355469 235.472656 362.136719 C 235.765625 361.925781 235.917969 361.445312 235.917969 360.71875 C 235.917969 356.957031 235.917969 353.195312 235.917969 349.429688 C 235.917969 349.046875 235.871094 348.742188 235.777344 348.542969 C 235.671875 348.34375 235.460938 348.238281 235.132812 348.238281 C 234.921875 348.238281 234.652344 348.296875 234.3125 348.414062 C 233.972656 348.53125 233.65625 348.660156 233.363281 348.789062 C 233.363281 348.675781 233.363281 348.5625 233.363281 348.449219 C 234.859375 347.6875 236.355469 346.929688 237.851562 346.167969 C 237.898438 346.167969 237.945312 346.167969 237.992188 346.167969 Z M 237.992188 346.167969 "/>
<path fill-rule="nonzero" fill="rgb(0%, 0%, 0%)" fill-opacity="1" d="M 249.71875 356.765625 C 249.71875 357.96875 249.566406 359.117188 249.25 360.203125 C 248.933594 361.28125 248.464844 362.300781 247.855469 363.257812 C 247.210938 364.289062 246.355469 365.234375 245.277344 366.125 C 244.570312 366.707031 243.972656 367.117188 243.492188 367.351562 C 243.414062 367.21875 243.335938 367.085938 243.257812 366.953125 C 244.511719 366.007812 245.429688 365.035156 246.015625 364.042969 C 247.035156 362.289062 247.550781 359.972656 247.550781 357.082031 C 247.550781 354.753906 247.316406 352.847656 246.835938 351.375 C 246.179688 349.277344 244.984375 347.640625 243.257812 346.449219 C 243.363281 346.3125 243.46875 346.175781 243.574219 346.039062 C 244.867188 346.753906 246.0625 347.839844 247.175781 349.277344 C 248.875 351.511719 249.71875 354.003906 249.71875 356.765625 Z M 249.71875 356.765625 "/>
<path fill-rule="nonzero" fill="rgb(0%, 0%, 0%)" fill-opacity="1" d="M 522.921875 356.648438 C 522.921875 353.816406 523.765625 351.339844 525.464844 349.199219 C 526.507812 347.886719 527.726562 346.835938 529.148438 346.039062 C 529.226562 346.175781 529.304688 346.3125 529.382812 346.449219 C 528.070312 347.488281 527.128906 348.496094 526.566406 349.476562 C 525.582031 351.199219 525.089844 353.480469 525.089844 356.332031 C 525.089844 358.4375 525.277344 360.179688 525.652344 361.550781 C 526.308594 363.960938 527.550781 365.761719 529.382812 366.953125 C 529.277344 367.085938 529.171875 367.21875 529.066406 367.351562 C 528.058594 366.871094 526.976562 365.9375 525.816406 364.542969 C 523.882812 362.230469 522.921875 359.597656 522.921875 356.648438 Z M 522.921875 356.648438 "/>
<path fill-rule="nonzero" fill="rgb(0%, 0%, 0%)" fill-opacity="1" d="M 531.527344 362.625 C 534.507812 359.539062 536.523438 357.269531 537.589844 355.828125 C 538.65625 354.378906 539.195312 352.976562 539.195312 351.59375 C 539.195312 350.390625 538.867188 349.476562 538.210938 348.847656 C 537.566406 348.226562 536.78125 347.910156 535.878906 347.910156 C 534.765625 347.910156 533.859375 348.308594 533.167969 349.128906 C 532.78125 349.570312 532.417969 350.261719 532.066406 351.1875 C 531.894531 351.152344 531.722656 351.117188 531.550781 351.082031 C 531.949219 349.210938 532.640625 347.910156 533.613281 347.183594 C 534.589844 346.460938 535.632812 346.097656 536.746094 346.097656 C 538.128906 346.097656 539.242188 346.53125 540.085938 347.382812 C 540.945312 348.25 541.367188 349.3125 541.367188 350.566406 C 541.367188 351.898438 540.910156 353.175781 539.980469 354.414062 C 539.066406 355.65625 537.0625 357.84375 533.988281 361.011719 C 535.859375 361.011719 537.726562 361.011719 539.59375 361.011719 C 540.378906 361.011719 540.933594 360.917969 541.25 360.730469 C 541.566406 360.542969 541.917969 360.089844 542.316406 359.363281 C 542.421875 359.410156 542.527344 359.457031 542.632812 359.503906 C 542.183594 360.636719 541.734375 361.773438 541.285156 362.90625 C 538.03125 362.90625 534.78125 362.90625 531.527344 362.90625 C 531.527344 362.8125 531.527344 362.71875 531.527344 362.625 Z M 531.527344 362.625 "/>
<path fill-rule="nonzero" fill="rgb(0%, 0%, 0%)" fill-opacity="1" d="M 549.902344 356.765625 C 549.902344 357.96875 549.75 359.117188 549.433594 360.203125 C 549.117188 361.28125 548.648438 362.300781 548.039062 363.257812 C 547.394531 364.289062 546.535156 365.234375 545.457031 366.125 C 544.753906 366.707031 544.15625 367.117188 543.675781 367.351562 C 543.597656 367.21875 543.519531 367.085938 543.441406 366.953125 C 544.695312 366.007812 545.609375 365.035156 546.195312 364.042969 C 547.21875 362.289062 547.734375 359.972656 547.734375 357.082031 C 547.734375 354.753906 547.5 352.847656 547.015625 351.375 C 546.359375 349.277344 545.164062 347.640625 543.441406 346.449219 C 543.546875 346.3125 543.652344 346.175781 543.757812 346.039062 C 545.046875 346.753906 546.242188 347.839844 547.359375 349.277344 C 549.058594 351.511719 549.902344 354.003906 549.902344 356.765625 Z M 549.902344 356.765625 "/>
<path fill-rule="nonzero" fill="rgb(0%, 0%, 0%)" fill-opacity="1" d="M 540.933594 206.929688 C 540.933594 204.097656 541.777344 201.617188 543.476562 199.476562 C 544.519531 198.167969 545.738281 197.113281 547.160156 196.320312 C 547.238281 196.453125 547.316406 196.589844 547.394531 196.726562 C 546.078125 197.769531 545.140625 198.773438 544.578125 199.757812 C 543.59375 201.476562 543.101562 203.757812 543.101562 206.613281 C 543.101562 208.71875 543.289062 210.460938 543.664062 211.828125 C 544.320312 214.238281 545.5625 216.042969 547.394531 217.234375 C 547.289062 217.367188 547.183594 217.5 547.074219 217.632812 C 546.066406 217.152344 544.988281 216.214844 543.828125 214.824219 C 541.894531 212.507812 540.933594 209.875 540.933594 206.929688 Z M 540.933594 206.929688 "/>
<path fill-rule="nonzero" fill="rgb(0%, 0%, 0%)" fill-opacity="1" d="M 550.734375 211.070312 C 551.179688 211.070312 551.765625 211.304688 552.503906 211.757812 C 553.242188 212.226562 553.867188 212.460938 554.382812 212.460938 C 555.519531 212.460938 556.375 212.074219 556.925781 211.304688 C 557.476562 210.53125 557.757812 209.699219 557.757812 208.800781 C 557.757812 207.933594 557.523438 207.164062 557.078125 206.507812 C 556.328125 205.394531 555.050781 204.835938 553.242188 204.835938 C 553.136719 204.835938 553.03125 204.847656 552.9375 204.847656 C 552.84375 204.847656 552.726562 204.859375 552.597656 204.882812 C 552.589844 204.777344 552.582031 204.671875 552.574219 204.566406 C 553.878906 204.085938 554.910156 203.546875 555.648438 202.941406 C 556.398438 202.332031 556.773438 201.523438 556.773438 200.53125 C 556.773438 199.640625 556.480469 198.960938 555.894531 198.507812 C 555.296875 198.039062 554.628906 197.804688 553.867188 197.804688 C 552.972656 197.804688 552.1875 198.144531 551.496094 198.796875 C 551.121094 199.148438 550.722656 199.710938 550.289062 200.460938 C 550.164062 200.429688 550.039062 200.398438 549.914062 200.367188 C 550.242188 199.136719 550.839844 198.144531 551.730469 197.40625 C 552.621094 196.667969 553.644531 196.296875 554.816406 196.296875 C 556.058594 196.296875 557.019531 196.632812 557.699219 197.324219 C 558.378906 198.003906 558.71875 198.785156 558.71875 199.6875 C 558.71875 200.472656 558.4375 201.195312 557.875 201.851562 C 557.558594 202.226562 557.066406 202.648438 556.398438 203.113281 C 557.183594 203.441406 557.804688 203.828125 558.273438 204.285156 C 559.164062 205.140625 559.609375 206.214844 559.609375 207.523438 C 559.609375 209.070312 559 210.425781 557.78125 211.609375 C 556.5625 212.777344 554.839844 213.375 552.585938 213.375 C 551.589844 213.375 550.886719 213.222656 550.476562 212.929688 C 550.078125 212.625 549.878906 212.308594 549.878906 211.96875 C 549.878906 211.757812 549.9375 211.550781 550.078125 211.363281 C 550.207031 211.164062 550.429688 211.070312 550.734375 211.070312 Z M 550.734375 211.070312 "/>
<path fill-rule="nonzero" fill="rgb(0%, 0%, 0%)" fill-opacity="1" d="M 567.914062 207.046875 C 567.914062 208.25 567.761719 209.398438 567.445312 210.484375 C 567.128906 211.5625 566.660156 212.578125 566.046875 213.539062 C 565.402344 214.566406 564.546875 215.515625 563.46875 216.402344 C 562.765625 216.988281 562.167969 217.398438 561.6875 217.632812 C 561.609375 217.5 561.53125 217.367188 561.453125 217.234375 C 562.707031 216.285156 563.621094 215.316406 564.207031 214.320312 C 565.226562 212.566406 565.742188 210.25 565.742188 207.359375 C 565.742188 205.035156 565.507812 203.125 565.027344 201.652344 C 564.371094 199.558594 563.175781 197.921875 561.453125 196.726562 C 561.558594 196.589844 561.664062 196.453125 561.769531 196.320312 C 563.058594 197.03125 564.253906 198.121094 565.367188 199.558594 C 567.070312 201.792969 567.914062 204.285156 567.914062 207.046875 Z M 567.914062 207.046875 "/>
<path fill-rule="nonzero" fill="rgb(0%, 0%, 0%)" fill-opacity="1" d="M 204.726562 206.917969 C 204.726562 204.085938 205.570312 201.605469 207.273438 199.464844 C 208.316406 198.15625 209.535156 197.101562 210.953125 196.308594 C 211.03125 196.441406 211.109375 196.578125 211.1875 196.714844 C 209.875 197.757812 208.9375 198.761719 208.375 199.746094 C 207.390625 201.464844 206.898438 203.746094 206.898438 206.601562 C 206.898438 208.707031 207.085938 210.449219 207.460938 211.816406 C 208.117188 214.226562 209.359375 216.03125 211.1875 217.222656 C 211.082031 217.355469 210.976562 217.488281 210.871094 217.621094 C 209.863281 217.140625 208.785156 216.203125 207.625 214.8125 C 205.6875 212.496094 204.726562 209.863281 204.726562 206.917969 Z M 204.726562 206.917969 "/>
<path fill-rule="nonzero" fill="rgb(0%, 0%, 0%)" fill-opacity="1" d="M 219.878906 198.9375 C 217.875 201.757812 215.875 204.578125 213.875 207.394531 C 215.875 207.394531 217.875 207.394531 219.878906 207.394531 C 219.878906 204.578125 219.878906 201.757812 219.878906 198.9375 Z M 220.6875 196.4375 C 221.074219 196.4375 221.460938 196.4375 221.847656 196.4375 C 221.847656 200.089844 221.847656 203.742188 221.847656 207.394531 C 222.695312 207.394531 223.542969 207.394531 224.390625 207.394531 C 224.390625 207.9375 224.390625 208.480469 224.390625 209.023438 C 223.542969 209.023438 222.695312 209.023438 221.847656 209.023438 C 221.847656 210.40625 221.847656 211.789062 221.847656 213.175781 C 221.199219 213.175781 220.550781 213.175781 219.902344 213.175781 C 219.902344 211.789062 219.902344 210.40625 219.902344 209.023438 C 217.554688 209.023438 215.210938 209.023438 212.867188 209.023438 C 212.867188 208.480469 212.867188 207.9375 212.867188 207.394531 C 215.472656 203.742188 218.078125 200.089844 220.6875 196.4375 Z M 220.6875 196.4375 "/>
<path fill-rule="nonzero" fill="rgb(0%, 0%, 0%)" fill-opacity="1" d="M 231.707031 207.035156 C 231.707031 208.238281 231.554688 209.386719 231.238281 210.472656 C 230.921875 211.550781 230.453125 212.566406 229.84375 213.527344 C 229.199219 214.554688 228.34375 215.503906 227.265625 216.390625 C 226.5625 216.976562 225.964844 217.386719 225.484375 217.621094 C 225.40625 217.488281 225.328125 217.355469 225.246094 217.222656 C 226.503906 216.273438 227.417969 215.304688 228.003906 214.308594 C 229.023438 212.554688 229.539062 210.238281 229.539062 207.351562 C 229.539062 205.023438 229.304688 203.113281 228.824219 201.640625 C 228.167969 199.546875 226.972656 197.910156 225.246094 196.714844 C 225.355469 196.578125 225.460938 196.441406 225.566406 196.308594 C 226.855469 197.019531 228.050781 198.109375 229.164062 199.546875 C 230.863281 201.78125 231.707031 204.273438 231.707031 207.035156 Z M 231.707031 207.035156 "/>
<path fill-rule="nonzero" fill="rgb(0%, 0%, 0%)" fill-opacity="1" d="M 396.84375 225.023438 C 396.84375 222.195312 397.6875 219.714844 399.390625 217.574219 C 400.433594 216.261719 401.652344 215.210938 403.070312 214.414062 C 403.148438 214.550781 403.226562 214.6875 403.304688 214.824219 C 401.992188 215.867188 401.054688 216.871094 400.492188 217.855469 C 399.507812 219.574219 399.011719 221.855469 399.011719 224.710938 C 399.011719 226.816406 399.203125 228.558594 399.578125 229.925781 C 400.234375 232.335938 401.476562 234.136719 403.304688 235.332031 C 403.199219 235.464844 403.09375 235.597656 402.988281 235.726562 C 401.980469 235.25 400.902344 234.3125 399.742188 232.921875 C 397.804688 230.605469 396.84375 227.972656 396.84375 225.023438 Z M 396.84375 225.023438 "/>
<path fill-rule="nonzero" fill="rgb(0%, 0%, 0%)" fill-opacity="1" d="M 406.566406 229.050781 C 407.035156 229.050781 407.644531 229.316406 408.394531 229.84375 C 409.144531 230.371094 409.730469 230.628906 410.140625 230.628906 C 411.078125 230.628906 411.886719 230.21875 412.59375 229.386719 C 413.296875 228.570312 413.636719 227.550781 413.636719 226.347656 C 413.636719 224.242188 412.523438 222.730469 410.269531 221.808594 C 409.027344 221.292969 407.867188 221.035156 406.789062 221.035156 C 406.613281 221.035156 406.496094 221.023438 406.449219 221.011719 C 406.402344 221 406.355469 220.964844 406.285156 220.882812 C 406.308594 220.824219 406.320312 220.765625 406.332031 220.71875 C 406.34375 220.671875 406.355469 220.636719 406.378906 220.589844 C 407.265625 218.652344 408.152344 216.714844 409.039062 214.777344 C 410.785156 214.777344 412.535156 214.777344 414.28125 214.777344 C 414.539062 214.777344 414.738281 214.730469 414.878906 214.636719 C 415.019531 214.542969 415.207031 214.378906 415.441406 214.132812 C 415.503906 214.191406 415.566406 214.25 415.628906 214.308594 C 415.3125 215.0625 414.996094 215.816406 414.679688 216.566406 C 414.644531 216.636719 414.5625 216.683594 414.410156 216.707031 C 414.269531 216.730469 414.105469 216.730469 413.929688 216.730469 C 412.355469 216.730469 410.777344 216.730469 409.203125 216.730469 C 408.859375 217.445312 408.515625 218.160156 408.171875 218.871094 C 409.507812 219.09375 410.480469 219.304688 411.101562 219.515625 C 412.125 219.855469 412.96875 220.359375 413.660156 221.023438 C 414.246094 221.597656 414.679688 222.253906 414.984375 222.964844 C 415.289062 223.691406 415.441406 224.453125 415.441406 225.246094 C 415.441406 227.046875 414.796875 228.546875 413.519531 229.75 C 412.230469 230.957031 410.609375 231.550781 408.640625 231.550781 C 407.84375 231.550781 407.210938 231.46875 406.71875 231.320312 C 405.898438 231.074219 405.496094 230.617188 405.496094 229.972656 C 405.496094 229.726562 405.582031 229.503906 405.757812 229.328125 C 405.933594 229.144531 406.203125 229.050781 406.566406 229.050781 Z M 406.566406 229.050781 "/>
<path fill-rule="nonzero" fill="rgb(0%, 0%, 0%)" fill-opacity="1" d="M 423.824219 225.140625 C 423.824219 226.347656 423.671875 227.492188 423.355469 228.582031 C 423.039062 229.65625 422.570312 230.675781 421.960938 231.632812 C 421.316406 232.664062 420.460938 233.609375 419.382812 234.5 C 418.679688 235.085938 418.078125 235.496094 417.597656 235.726562 C 417.519531 235.597656 417.441406 235.464844 417.363281 235.332031 C 418.621094 234.382812 419.535156 233.414062 420.121094 232.417969 C 421.140625 230.664062 421.65625 228.347656 421.65625 225.457031 C 421.65625 223.128906 421.421875 221.222656 420.941406 219.75 C 420.285156 217.65625 419.089844 216.019531 417.363281 214.824219 C 417.46875 214.6875 417.574219 214.550781 417.679688 214.414062 C 418.972656 215.128906 420.167969 216.214844 421.28125 217.65625 C 422.980469 219.890625 423.824219 222.382812 423.824219 225.140625 Z M 423.824219 225.140625 "/>
<path fill-rule="nonzero" fill="rgb(98.823529%, 38.431373%, 33.333333%)" fill-opacity="1" d="M 412.078125 413.460938 C 412.078125 412.980469 412.078125 412.761719 411.511719 412.761719 C 411.269531 412.761719 411.226562 412.761719 411.03125 412.914062 C 409.351562 414.15625 407.105469 414.15625 406.648438 414.15625 C 406.503906 414.15625 406.355469 414.15625 406.210938 414.15625 C 406.210938 414.496094 406.210938 414.835938 406.210938 415.179688 C 406.355469 415.179688 406.503906 415.179688 406.648438 415.179688 C 406.996094 415.179688 408.195312 415.15625 409.484375 414.742188 C 409.484375 418.492188 409.484375 422.242188 409.484375 425.988281 C 408.472656 425.988281 407.460938 425.988281 406.453125 425.988281 C 406.453125 426.332031 406.453125 426.671875 406.453125 427.011719 C 407.410156 426.945312 409.722656 426.945312 410.792969 426.945312 C 411.859375 426.945312 414.171875 426.945312 415.128906 427.011719 C 415.128906 426.671875 415.128906 426.332031 415.128906 425.988281 C 414.113281 425.988281 413.09375 425.988281 412.078125 425.988281 C 412.078125 421.8125 412.078125 417.636719 412.078125 413.460938 Z M 412.078125 413.460938 "/>
<path fill-rule="nonzero" fill="rgb(98.823529%, 38.431373%, 33.333333%)" fill-opacity="1" d="M 428.433594 420.074219 C 428.433594 417.960938 428.410156 412.761719 423.15625 412.761719 C 417.898438 412.761719 417.878906 417.941406 417.878906 420.074219 C 417.878906 422.226562 417.898438 427.25 423.15625 427.25 C 428.390625 427.25 428.433594 422.246094 428.433594 420.074219 Z M 423.15625 426.46875 C 422.371094 426.46875 421.148438 425.988281 420.867188 424.402344 C 420.667969 423.269531 420.667969 421.007812 420.667969 419.8125 C 420.667969 418.246094 420.667969 416.832031 420.84375 415.699219 C 421.105469 413.765625 422.632812 413.546875 423.15625 413.546875 C 423.960938 413.546875 424.855469 413.960938 425.269531 414.917969 C 425.640625 415.722656 425.640625 418.027344 425.640625 419.8125 C 425.640625 421.03125 425.640625 423.007812 425.488281 424.140625 C 425.183594 426.164062 423.808594 426.46875 423.15625 426.46875 Z M 423.15625 426.46875 "/>
<path fill-rule="nonzero" fill="rgb(98.823529%, 38.431373%, 33.333333%)" fill-opacity="1" d="M 440.972656 420.074219 C 440.972656 417.960938 440.949219 412.761719 435.695312 412.761719 C 430.4375 412.761719 430.417969 417.941406 430.417969 420.074219 C 430.417969 422.226562 430.4375 427.25 435.695312 427.25 C 440.925781 427.25 440.972656 422.246094 440.972656 420.074219 Z M 435.695312 426.46875 C 434.910156 426.46875 433.6875 425.988281 433.40625 424.402344 C 433.207031 423.269531 433.207031 421.007812 433.207031 419.8125 C 433.207031 418.246094 433.207031 416.832031 433.382812 415.699219 C 433.644531 413.765625 435.171875 413.546875 435.695312 413.546875 C 436.5 413.546875 437.394531 413.960938 437.808594 414.917969 C 438.179688 415.722656 438.179688 418.027344 438.179688 419.8125 C 438.179688 421.03125 438.179688 423.007812 438.027344 424.140625 C 437.722656 426.164062 436.347656 426.46875 435.695312 426.46875 Z M 435.695312 426.46875 "/>
<path fill-rule="nonzero" fill="rgb(98.823529%, 38.431373%, 33.333333%)" fill-opacity="1" d="M 453.511719 420.074219 C 453.511719 417.960938 453.488281 412.761719 448.234375 412.761719 C 442.976562 412.761719 442.957031 417.941406 442.957031 420.074219 C 442.957031 422.226562 442.976562 427.25 448.234375 427.25 C 453.464844 427.25 453.511719 422.246094 453.511719 420.074219 Z M 448.234375 426.46875 C 447.449219 426.46875 446.226562 425.988281 445.941406 424.402344 C 445.746094 423.269531 445.746094 421.007812 445.746094 419.8125 C 445.746094 418.246094 445.746094 416.832031 445.921875 415.699219 C 446.183594 413.765625 447.710938 413.546875 448.234375 413.546875 C 449.039062 413.546875 449.933594 413.960938 450.347656 414.917969 C 450.71875 415.722656 450.71875 418.027344 450.71875 419.8125 C 450.71875 421.03125 450.71875 423.007812 450.566406 424.140625 C 450.261719 426.164062 448.886719 426.46875 448.234375 426.46875 Z M 448.234375 426.46875 "/>
<path fill-rule="nonzero" fill="rgb(98.823529%, 38.431373%, 33.333333%)" fill-opacity="1" d="M 459.179688 421.855469 C 459.179688 418.542969 459.179688 415.230469 459.179688 411.914062 C 457.894531 411.972656 456.605469 412.03125 455.320312 412.089844 C 455.320312 412.429688 455.320312 412.769531 455.320312 413.109375 C 456.671875 413.109375 456.824219 413.109375 456.824219 413.960938 C 456.824219 417.96875 456.824219 421.980469 456.824219 425.988281 C 456.324219 425.988281 455.820312 425.988281 455.320312 425.988281 C 455.320312 426.332031 455.320312 426.671875 455.320312 427.011719 C 456.125 426.992188 457.152344 426.945312 457.9375 426.945312 C 458.742188 426.945312 459.789062 426.992188 460.574219 427.011719 C 460.574219 426.671875 460.574219 426.332031 460.574219 425.988281 C 460.074219 425.988281 459.570312 425.988281 459.070312 425.988281 C 459.070312 425.070312 459.070312 424.148438 459.070312 423.226562 C 459.703125 422.726562 459.878906 422.597656 460.3125 422.292969 C 461.046875 423.207031 461.78125 424.117188 462.515625 425.03125 C 462.710938 425.292969 463.0625 425.730469 463.0625 425.792969 C 463.0625 425.988281 462.667969 425.988281 462.386719 425.988281 C 462.386719 426.332031 462.386719 426.671875 462.386719 427.011719 C 463.039062 426.96875 464.9375 426.945312 465.046875 426.945312 C 465.832031 426.945312 466.570312 426.96875 467.3125 427.011719 C 467.3125 426.671875 467.3125 426.332031 467.3125 425.988281 C 467.191406 425.988281 467.066406 425.988281 466.941406 425.988281 C 466.003906 425.988281 465.941406 425.902344 465.65625 425.554688 C 464.425781 424.023438 463.199219 422.496094 461.972656 420.964844 C 462.914062 420.230469 463.859375 419.5 464.804688 418.765625 C 465.109375 418.527344 465.308594 418.375 466.769531 418.375 C 466.769531 418.035156 466.769531 417.695312 466.769531 417.351562 C 466.179688 417.417969 465.632812 417.417969 465.066406 417.417969 C 464.480469 417.417969 463.0625 417.375 462.558594 417.351562 C 462.558594 417.695312 462.558594 418.035156 462.558594 418.375 C 463.0625 418.375 463.125 418.441406 463.300781 418.613281 C 461.925781 419.695312 460.554688 420.777344 459.179688 421.855469 Z M 459.179688 421.855469 "/>
<path fill-rule="nonzero" fill="rgb(98.823529%, 38.431373%, 33.333333%)" fill-opacity="1" d="M 474.3125 412.371094 C 474.070312 412.109375 474.050781 412.089844 473.59375 412.089844 C 471.929688 412.089844 470.261719 412.089844 468.597656 412.089844 C 468.597656 412.429688 468.597656 412.769531 468.597656 413.109375 C 469.382812 413.109375 470.167969 413.109375 470.953125 413.109375 C 470.953125 417.195312 470.953125 421.277344 470.953125 425.359375 C 470.953125 425.835938 470.933594 425.859375 470.320312 425.925781 C 469.796875 425.988281 469.753906 425.988281 469.144531 425.988281 C 468.960938 425.988281 468.78125 425.988281 468.597656 425.988281 C 468.597656 426.332031 468.597656 426.671875 468.597656 427.011719 C 469.425781 426.945312 470.671875 426.945312 471.519531 426.945312 C 472.4375 426.945312 473.570312 426.945312 474.464844 427.011719 C 474.464844 426.671875 474.464844 426.332031 474.464844 425.988281 C 474.28125 425.988281 474.101562 425.988281 473.917969 425.988281 C 473.527344 425.988281 473.15625 425.96875 472.765625 425.925781 C 472.132812 425.859375 472.109375 425.835938 472.109375 425.359375 C 472.109375 421.566406 472.109375 417.773438 472.109375 413.980469 C 475.730469 418.230469 479.347656 422.480469 482.96875 426.730469 C 483.1875 426.992188 483.210938 427.011719 483.558594 427.011719 C 484.148438 427.011719 484.148438 426.816406 484.148438 426.316406 C 484.148438 422.125 484.148438 417.933594 484.148438 413.742188 C 484.148438 413.261719 484.167969 413.242188 484.777344 413.175781 C 485.300781 413.109375 485.347656 413.109375 485.957031 413.109375 C 486.136719 413.109375 486.320312 413.109375 486.5 413.109375 C 486.5 412.769531 486.5 412.429688 486.5 412.089844 C 485.671875 412.152344 484.429688 412.152344 483.578125 412.152344 C 482.664062 412.152344 481.53125 412.152344 480.636719 412.089844 C 480.636719 412.429688 480.636719 412.769531 480.636719 413.109375 C 480.816406 413.109375 481 413.109375 481.179688 413.109375 C 481.574219 413.109375 481.945312 413.132812 482.335938 413.175781 C 482.96875 413.242188 482.992188 413.261719 482.992188 413.742188 C 482.992188 416.679688 482.992188 419.617188 482.992188 422.550781 C 480.097656 419.160156 477.203125 415.765625 474.3125 412.371094 Z M 474.3125 412.371094 "/>
<path fill="none" stroke-width="0.02" stroke-linecap="butt" stroke-linejoin="miter" stroke="rgb(53.333333%, 53.333333%, 53.333333%)" stroke-opacity="1" stroke-miterlimit="10" d="M -4.360243 3.474436 C -2.796154 3.474436 -1.231999 3.474436 0.332155 3.474436 " transform="matrix(60.036434, 0, 0, -59.892812, 357, 233)"/>
<path fill-rule="nonzero" fill="rgb(53.333333%, 53.333333%, 53.333333%)" fill-opacity="1" stroke-width="0.03" stroke-linecap="butt" stroke-linejoin="miter" stroke="rgb(53.333333%, 53.333333%, 53.333333%)" stroke-opacity="1" stroke-miterlimit="10" d="M -4.511648 3.474436 C -4.430903 3.43413 -4.350158 3.393758 -4.269413 3.353387 C -4.299733 3.393758 -4.329988 3.43413 -4.360243 3.474436 C -4.329988 3.514808 -4.299733 3.555179 -4.269413 3.595551 C -4.350158 3.555179 -4.430903 3.514808 -4.511648 3.474436 Z M -4.511648 3.474436 " transform="matrix(60.036434, 0, 0, -59.892812, 357, 233)"/>
<path fill-rule="nonzero" fill="rgb(53.333333%, 53.333333%, 53.333333%)" fill-opacity="1" stroke-width="0.03" stroke-linecap="butt" stroke-linejoin="miter" stroke="rgb(53.333333%, 53.333333%, 53.333333%)" stroke-opacity="1" stroke-miterlimit="10" d="M 0.488375 3.474436 C 0.405027 3.516112 0.32168 3.557788 0.238397 3.599464 C 0.269628 3.557788 0.300859 3.516112 0.332155 3.474436 C 0.300859 3.432825 0.269628 3.391149 0.238397 3.349473 C 0.32168 3.391149 0.405027 3.432825 0.488375 3.474436 Z M 0.488375 3.474436 " transform="matrix(60.036434, 0, 0, -59.892812, 357, 233)"/>
<path fill="none" stroke-width="0.02" stroke-linecap="butt" stroke-linejoin="miter" stroke="rgb(53.333333%, 53.333333%, 53.333333%)" stroke-opacity="1" stroke-miterlimit="10" d="M 0.639716 3.474436 C 2.20387 3.474436 3.768024 3.474436 5.332114 3.474436 " transform="matrix(60.036434, 0, 0, -59.892812, 357, 233)"/>
<path fill-rule="nonzero" fill="rgb(53.333333%, 53.333333%, 53.333333%)" fill-opacity="1" stroke-width="0.03" stroke-linecap="butt" stroke-linejoin="miter" stroke="rgb(53.333333%, 53.333333%, 53.333333%)" stroke-opacity="1" stroke-miterlimit="10" d="M 0.488375 3.474436 C 0.569121 3.43413 0.649866 3.393758 0.730546 3.353387 C 0.700291 3.393758 0.670036 3.43413 0.639716 3.474436 C 0.670036 3.514808 0.700291 3.555179 0.730546 3.595551 C 0.649866 3.555179 0.569121 3.514808 0.488375 3.474436 Z M 0.488375 3.474436 " transform="matrix(60.036434, 0, 0, -59.892812, 357, 233)"/>
<path fill-rule="nonzero" fill="rgb(53.333333%, 53.333333%, 53.333333%)" fill-opacity="1" stroke-width="0.03" stroke-linecap="butt" stroke-linejoin="miter" stroke="rgb(53.333333%, 53.333333%, 53.333333%)" stroke-opacity="1" stroke-miterlimit="10" d="M 5.488399 3.474436 C 5.405051 3.516112 5.321703 3.557788 5.238356 3.599464 C 5.269652 3.557788 5.300883 3.516112 5.332114 3.474436 C 5.300883 3.432825 5.269652 3.391149 5.238356 3.349473 C 5.321703 3.391149 5.405051 3.432825 5.488399 3.474436 Z M 5.488399 3.474436 " transform="matrix(60.036434, 0, 0, -59.892812, 357, 233)"/>
<path fill-rule="nonzero" fill="rgb(53.333333%, 53.333333%, 53.333333%)" fill-opacity="1" d="M 221.992188 16.410156 C 222.464844 16.410156 223.074219 16.679688 223.824219 17.207031 C 224.574219 17.734375 225.160156 17.992188 225.570312 17.992188 C 226.507812 17.992188 227.316406 17.582031 228.019531 16.75 C 228.726562 15.933594 229.066406 14.914062 229.066406 13.710938 C 229.066406 11.605469 227.949219 10.09375 225.699219 9.171875 C 224.457031 8.65625 223.296875 8.398438 222.21875 8.398438 C 222.039062 8.398438 221.921875 8.386719 221.875 8.375 C 221.828125 8.363281 221.78125 8.328125 221.710938 8.246094 C 221.734375 8.1875 221.746094 8.128906 221.757812 8.082031 C 221.769531 8.035156 221.78125 8 221.804688 7.953125 C 222.695312 6.015625 223.582031 4.078125 224.46875 2.140625 C 226.214844 2.140625 227.960938 2.140625 229.710938 2.140625 C 229.96875 2.140625 230.167969 2.09375 230.308594 2 C 230.449219 1.90625 230.636719 1.742188 230.871094 1.496094 C 230.933594 1.554688 230.996094 1.613281 231.058594 1.671875 C 230.742188 2.425781 230.425781 3.179688 230.109375 3.929688 C 230.074219 4 229.992188 4.046875 229.839844 4.070312 C 229.699219 4.09375 229.535156 4.09375 229.359375 4.09375 C 227.78125 4.09375 226.207031 4.09375 224.632812 4.09375 C 224.289062 4.808594 223.945312 5.519531 223.601562 6.234375 C 224.9375 6.457031 225.910156 6.667969 226.53125 6.878906 C 227.550781 7.21875 228.394531 7.71875 229.089844 8.386719 C 229.675781 8.960938 230.109375 9.617188 230.414062 10.328125 C 230.71875 11.054688 230.871094 11.816406 230.871094 12.609375 C 230.871094 14.410156 230.226562 15.910156 228.949219 17.113281 C 227.65625 18.320312 226.039062 18.914062 224.070312 18.914062 C 223.273438 18.914062 222.640625 18.832031 222.148438 18.679688 C 221.324219 18.4375 220.925781 17.980469 220.925781 17.335938 C 220.925781 17.089844 221.007812 16.867188 221.183594 16.691406 C 221.359375 16.503906 221.628906 16.410156 221.992188 16.410156 Z M 221.992188 16.410156 "/>
<path fill-rule="nonzero" fill="rgb(53.333333%, 53.333333%, 53.333333%)" fill-opacity="1" d="M 232.535156 18.332031 C 233.167969 18.273438 233.601562 18.167969 233.8125 18.015625 C 234.140625 17.78125 234.292969 17.300781 234.292969 16.597656 C 234.292969 14.496094 234.292969 12.394531 234.292969 10.292969 C 234.292969 9.699219 234.222656 9.300781 234.058594 9.113281 C 233.894531 8.925781 233.636719 8.832031 233.273438 8.832031 C 233.097656 8.832031 232.96875 8.84375 232.886719 8.867188 C 232.804688 8.878906 232.699219 8.902344 232.59375 8.949219 C 232.59375 8.804688 232.59375 8.660156 232.59375 8.515625 C 232.886719 8.417969 233.179688 8.320312 233.472656 8.222656 C 233.789062 8.117188 234.304688 7.929688 235.035156 7.648438 C 235.761719 7.382812 236.136719 7.242188 236.183594 7.242188 C 236.21875 7.242188 236.242188 7.265625 236.253906 7.300781 C 236.265625 7.347656 236.265625 7.417969 236.265625 7.535156 C 236.265625 8.082031 236.265625 8.632812 236.265625 9.183594 C 237.074219 8.445312 237.765625 7.941406 238.351562 7.660156 C 238.9375 7.382812 239.546875 7.242188 240.15625 7.242188 C 241 7.242188 241.671875 7.523438 242.164062 8.09375 C 242.421875 8.398438 242.644531 8.820312 242.808594 9.347656 C 243.417969 8.738281 243.945312 8.292969 244.390625 8 C 245.164062 7.5 245.949219 7.242188 246.757812 7.242188 C 248.074219 7.242188 248.941406 7.777344 249.386719 8.832031 C 249.632812 9.441406 249.761719 10.386719 249.761719 11.6875 C 249.761719 13.375 249.761719 15.0625 249.761719 16.75 C 249.761719 17.324219 249.890625 17.710938 250.148438 17.921875 C 250.40625 18.132812 250.863281 18.261719 251.53125 18.332031 C 251.53125 18.4375 251.53125 18.542969 251.53125 18.644531 C 249.695312 18.644531 247.859375 18.644531 246.019531 18.644531 C 246.019531 18.535156 246.019531 18.421875 246.019531 18.308594 C 246.734375 18.238281 247.191406 18.097656 247.425781 17.875 C 247.648438 17.664062 247.753906 17.207031 247.753906 16.539062 C 247.753906 14.789062 247.753906 13.039062 247.753906 11.289062 C 247.753906 10.503906 247.671875 9.917969 247.496094 9.546875 C 247.203125 8.878906 246.605469 8.539062 245.726562 8.539062 C 245.199219 8.539062 244.671875 8.714844 244.15625 9.066406 C 243.851562 9.277344 243.488281 9.59375 243.042969 10.046875 C 243.042969 12.125 243.042969 14.203125 243.042969 16.285156 C 243.042969 16.9375 243.160156 17.441406 243.394531 17.78125 C 243.628906 18.121094 244.109375 18.308594 244.859375 18.332031 C 244.859375 18.4375 244.859375 18.542969 244.859375 18.644531 C 242.992188 18.644531 241.121094 18.644531 239.253906 18.644531 C 239.253906 18.542969 239.253906 18.4375 239.253906 18.332031 C 240.027344 18.238281 240.519531 18.050781 240.730469 17.769531 C 240.941406 17.488281 241.046875 16.808594 241.046875 15.734375 C 241.046875 14.59375 241.046875 13.457031 241.046875 12.316406 C 241.046875 11.066406 240.964844 10.210938 240.8125 9.746094 C 240.542969 8.949219 239.96875 8.539062 239.101562 8.539062 C 238.597656 8.539062 238.117188 8.679688 237.636719 8.949219 C 237.15625 9.230469 236.734375 9.582031 236.359375 10.023438 C 236.359375 12.242188 236.359375 14.460938 236.359375 16.679688 C 236.359375 17.300781 236.476562 17.734375 236.6875 17.96875 C 236.898438 18.203125 237.378906 18.320312 238.09375 18.332031 C 238.09375 18.4375 238.09375 18.542969 238.09375 18.644531 C 236.242188 18.644531 234.386719 18.644531 232.535156 18.644531 C 232.535156 18.542969 232.535156 18.4375 232.535156 18.332031 Z M 232.535156 18.332031 "/>
<path fill-rule="nonzero" fill="rgb(53.333333%, 53.333333%, 53.333333%)" fill-opacity="1" d="M 522.175781 16.410156 C 522.644531 16.410156 523.253906 16.679688 524.003906 17.207031 C 524.757812 17.734375 525.34375 17.992188 525.753906 17.992188 C 526.691406 17.992188 527.5 17.582031 528.203125 16.75 C 528.90625 15.933594 529.246094 14.914062 529.246094 13.710938 C 529.246094 11.605469 528.132812 10.09375 525.882812 9.171875 C 524.640625 8.65625 523.476562 8.398438 522.398438 8.398438 C 522.222656 8.398438 522.105469 8.386719 522.058594 8.375 C 522.011719 8.363281 521.964844 8.328125 521.894531 8.246094 C 521.917969 8.1875 521.929688 8.128906 521.941406 8.082031 C 521.953125 8.035156 521.964844 8 521.988281 7.953125 C 522.875 6.015625 523.761719 4.078125 524.652344 2.140625 C 526.398438 2.140625 528.144531 2.140625 529.890625 2.140625 C 530.148438 2.140625 530.347656 2.09375 530.488281 2 C 530.628906 1.90625 530.816406 1.742188 531.054688 1.496094 C 531.117188 1.554688 531.179688 1.613281 531.242188 1.671875 C 530.921875 2.425781 530.605469 3.179688 530.289062 3.929688 C 530.253906 4 530.171875 4.046875 530.019531 4.070312 C 529.878906 4.09375 529.714844 4.09375 529.539062 4.09375 C 527.964844 4.09375 526.390625 4.09375 524.816406 4.09375 C 524.46875 4.808594 524.125 5.519531 523.78125 6.234375 C 525.121094 6.457031 526.09375 6.667969 526.714844 6.878906 C 527.734375 7.21875 528.578125 7.71875 529.269531 8.386719 C 529.855469 8.960938 530.289062 9.617188 530.59375 10.328125 C 530.898438 11.054688 531.054688 11.816406 531.054688 12.609375 C 531.054688 14.410156 530.40625 15.910156 529.128906 17.113281 C 527.839844 18.320312 526.222656 18.914062 524.25 18.914062 C 523.453125 18.914062 522.820312 18.832031 522.328125 18.679688 C 521.507812 18.4375 521.109375 17.980469 521.109375 17.335938 C 521.109375 17.089844 521.191406 16.867188 521.367188 16.691406 C 521.542969 16.503906 521.8125 16.410156 522.175781 16.410156 Z M 522.175781 16.410156 "/>
<path fill-rule="nonzero" fill="rgb(53.333333%, 53.333333%, 53.333333%)" fill-opacity="1" d="M 532.71875 18.332031 C 533.351562 18.273438 533.785156 18.167969 533.996094 18.015625 C 534.324219 17.78125 534.476562 17.300781 534.476562 16.597656 C 534.476562 14.496094 534.476562 12.394531 534.476562 10.292969 C 534.476562 9.699219 534.40625 9.300781 534.242188 9.113281 C 534.078125 8.925781 533.820312 8.832031 533.457031 8.832031 C 533.28125 8.832031 533.152344 8.84375 533.070312 8.867188 C 532.988281 8.878906 532.882812 8.902344 532.777344 8.949219 C 532.777344 8.804688 532.777344 8.660156 532.777344 8.515625 C 533.070312 8.417969 533.363281 8.320312 533.65625 8.222656 C 533.972656 8.117188 534.488281 7.929688 535.214844 7.648438 C 535.941406 7.382812 536.316406 7.242188 536.363281 7.242188 C 536.398438 7.242188 536.421875 7.265625 536.433594 7.300781 C 536.445312 7.347656 536.445312 7.417969 536.445312 7.535156 C 536.445312 8.082031 536.445312 8.632812 536.445312 9.183594 C 537.253906 8.445312 537.949219 7.941406 538.535156 7.660156 C 539.121094 7.382812 539.730469 7.242188 540.339844 7.242188 C 541.183594 7.242188 541.851562 7.523438 542.34375 8.09375 C 542.601562 8.398438 542.824219 8.820312 542.988281 9.347656 C 543.597656 8.738281 544.128906 8.292969 544.574219 8 C 545.347656 7.5 546.132812 7.242188 546.941406 7.242188 C 548.253906 7.242188 549.121094 7.777344 549.566406 8.832031 C 549.8125 9.441406 549.941406 10.386719 549.941406 11.6875 C 549.941406 13.375 549.941406 15.0625 549.941406 16.75 C 549.941406 17.324219 550.070312 17.710938 550.328125 17.921875 C 550.589844 18.132812 551.046875 18.261719 551.714844 18.332031 C 551.714844 18.4375 551.714844 18.542969 551.714844 18.644531 C 549.875 18.644531 548.039062 18.644531 546.203125 18.644531 C 546.203125 18.535156 546.203125 18.421875 546.203125 18.308594 C 546.917969 18.238281 547.375 18.097656 547.609375 17.875 C 547.832031 17.664062 547.9375 17.207031 547.9375 16.539062 C 547.9375 14.789062 547.9375 13.039062 547.9375 11.289062 C 547.9375 10.503906 547.855469 9.917969 547.679688 9.546875 C 547.386719 8.878906 546.789062 8.539062 545.910156 8.539062 C 545.382812 8.539062 544.855469 8.714844 544.339844 9.066406 C 544.035156 9.277344 543.667969 9.59375 543.222656 10.046875 C 543.222656 12.125 543.222656 14.203125 543.222656 16.285156 C 543.222656 16.9375 543.339844 17.441406 543.574219 17.78125 C 543.808594 18.121094 544.292969 18.308594 545.042969 18.332031 C 545.042969 18.4375 545.042969 18.542969 545.042969 18.644531 C 543.171875 18.644531 541.304688 18.644531 539.4375 18.644531 C 539.4375 18.542969 539.4375 18.4375 539.4375 18.332031 C 540.210938 18.238281 540.703125 18.050781 540.914062 17.769531 C 541.125 17.488281 541.230469 16.808594 541.230469 15.734375 C 541.230469 14.59375 541.230469 13.457031 541.230469 12.316406 C 541.230469 11.066406 541.148438 10.210938 540.996094 9.746094 C 540.726562 8.949219 540.152344 8.539062 539.285156 8.539062 C 538.78125 8.539062 538.300781 8.679688 537.820312 8.949219 C 537.335938 9.230469 536.914062 9.582031 536.539062 10.023438 C 536.539062 12.242188 536.539062 14.460938 536.539062 16.679688 C 536.539062 17.300781 536.65625 17.734375 536.867188 17.96875 C 537.078125 18.203125 537.5625 18.320312 538.277344 18.332031 C 538.277344 18.4375 538.277344 18.542969 538.277344 18.644531 C 536.421875 18.644531 534.570312 18.644531 532.71875 18.644531 C 532.71875 18.542969 532.71875 18.4375 532.71875 18.332031 Z M 532.71875 18.332031 "/>
<path fill="none" stroke-width="0.02" stroke-linecap="butt" stroke-linejoin="miter" stroke="rgb(53.333333%, 53.333333%, 53.333333%)" stroke-opacity="1" stroke-miterlimit="10" d="M -5.311618 -2.213916 C -5.311618 -0.649794 -5.311618 0.914329 -5.311618 2.478451 " transform="matrix(60.036434, 0, 0, -59.892812, 357, 233)"/>
<path fill-rule="nonzero" fill="rgb(53.333333%, 53.333333%, 53.333333%)" fill-opacity="1" stroke-width="0.03" stroke-linecap="butt" stroke-linejoin="miter" stroke="rgb(53.333333%, 53.333333%, 53.333333%)" stroke-opacity="1" stroke-miterlimit="10" d="M -5.311618 -2.365293 C -5.271278 -2.28455 -5.230873 -2.203807 -5.190533 -2.123064 C -5.230873 -2.153391 -5.271278 -2.183654 -5.311618 -2.213916 C -5.351958 -2.183654 -5.392364 -2.153391 -5.432704 -2.123064 C -5.392364 -2.203807 -5.351958 -2.28455 -5.311618 -2.365293 Z M -5.311618 -2.365293 " transform="matrix(60.036434, 0, 0, -59.892812, 357, 233)"/>
<path fill-rule="nonzero" fill="rgb(53.333333%, 53.333333%, 53.333333%)" fill-opacity="1" stroke-width="0.03" stroke-linecap="butt" stroke-linejoin="miter" stroke="rgb(53.333333%, 53.333333%, 53.333333%)" stroke-opacity="1" stroke-miterlimit="10" d="M -5.311618 2.63472 C -5.35326 2.551368 -5.394966 2.468081 -5.436608 2.384729 C -5.394966 2.41597 -5.35326 2.44721 -5.311618 2.478451 C -5.269977 2.44721 -5.228271 2.41597 -5.186629 2.384729 C -5.228271 2.468081 -5.269977 2.551368 -5.311618 2.63472 Z M -5.311618 2.63472 " transform="matrix(60.036434, 0, 0, -59.892812, 357, 233)"/>
<path fill-rule="nonzero" fill="rgb(53.333333%, 53.333333%, 53.333333%)" fill-opacity="1" d="M 2.566406 231.136719 C 3.035156 231.136719 3.648438 231.40625 4.398438 231.933594 C 5.148438 232.457031 5.734375 232.714844 6.144531 232.714844 C 7.082031 232.714844 7.890625 232.308594 8.59375 231.476562 C 9.296875 230.65625 9.636719 229.640625 9.636719 228.433594 C 9.636719 226.328125 8.523438 224.820312 6.273438 223.894531 C 5.03125 223.382812 3.871094 223.125 2.789062 223.125 C 2.613281 223.125 2.496094 223.113281 2.449219 223.101562 C 2.402344 223.089844 2.355469 223.054688 2.285156 222.972656 C 2.308594 222.914062 2.320312 222.855469 2.332031 222.808594 C 2.34375 222.761719 2.355469 222.726562 2.378906 222.679688 C 3.269531 220.742188 4.15625 218.804688 5.042969 216.867188 C 6.789062 216.867188 8.535156 216.867188 10.285156 216.867188 C 10.542969 216.867188 10.742188 216.820312 10.882812 216.726562 C 11.023438 216.632812 11.210938 216.46875 11.445312 216.222656 C 11.507812 216.28125 11.570312 216.339844 11.632812 216.398438 C 11.316406 217.152344 11 217.902344 10.683594 218.65625 C 10.648438 218.726562 10.566406 218.773438 10.414062 218.796875 C 10.273438 218.820312 10.109375 218.820312 9.933594 218.820312 C 8.355469 218.820312 6.78125 218.820312 5.207031 218.820312 C 4.863281 219.53125 4.519531 220.246094 4.175781 220.960938 C 5.511719 221.183594 6.484375 221.394531 7.105469 221.601562 C 8.125 221.941406 8.96875 222.445312 9.664062 223.113281 C 10.25 223.6875 10.683594 224.339844 10.988281 225.054688 C 11.292969 225.78125 11.445312 226.539062 11.445312 227.335938 C 11.445312 229.136719 10.800781 230.632812 9.519531 231.839844 C 8.230469 233.042969 6.613281 233.640625 4.644531 233.640625 C 3.847656 233.640625 3.210938 233.558594 2.71875 233.40625 C 1.898438 233.160156 1.5 232.703125 1.5 232.0625 C 1.5 231.816406 1.582031 231.59375 1.757812 231.417969 C 1.933594 231.230469 2.203125 231.136719 2.566406 231.136719 Z M 2.566406 231.136719 "/>
<path fill-rule="nonzero" fill="rgb(53.333333%, 53.333333%, 53.333333%)" fill-opacity="1" d="M 13.109375 233.054688 C 13.742188 232.996094 14.175781 232.890625 14.386719 232.738281 C 14.714844 232.503906 14.867188 232.027344 14.867188 231.324219 C 14.867188 229.222656 14.867188 227.121094 14.867188 225.019531 C 14.867188 224.421875 14.796875 224.023438 14.632812 223.835938 C 14.46875 223.652344 14.210938 223.558594 13.847656 223.558594 C 13.671875 223.558594 13.542969 223.570312 13.460938 223.59375 C 13.378906 223.605469 13.273438 223.628906 13.167969 223.675781 C 13.167969 223.53125 13.167969 223.386719 13.167969 223.242188 C 13.460938 223.144531 13.753906 223.046875 14.046875 222.949219 C 14.363281 222.84375 14.878906 222.65625 15.605469 222.375 C 16.335938 222.105469 16.710938 221.964844 16.757812 221.964844 C 16.792969 221.964844 16.816406 221.988281 16.828125 222.023438 C 16.839844 222.070312 16.839844 222.140625 16.839844 222.257812 C 16.839844 222.808594 16.839844 223.359375 16.839844 223.90625 C 17.648438 223.171875 18.339844 222.667969 18.925781 222.386719 C 19.511719 222.105469 20.121094 221.964844 20.730469 221.964844 C 21.574219 221.964844 22.242188 222.246094 22.738281 222.820312 C 22.996094 223.125 23.21875 223.546875 23.382812 224.070312 C 23.992188 223.464844 24.519531 223.019531 24.964844 222.726562 C 25.738281 222.222656 26.523438 221.964844 27.332031 221.964844 C 28.644531 221.964844 29.515625 222.503906 29.960938 223.558594 C 30.207031 224.164062 30.335938 225.113281 30.335938 226.410156 C 30.335938 228.097656 30.335938 229.789062 30.335938 231.476562 C 30.335938 232.050781 30.464844 232.4375 30.722656 232.644531 C 30.980469 232.855469 31.4375 232.984375 32.105469 233.054688 C 32.105469 233.160156 32.105469 233.265625 32.105469 233.371094 C 30.269531 233.371094 28.429688 233.371094 26.59375 233.371094 C 26.59375 233.257812 26.59375 233.144531 26.59375 233.03125 C 27.308594 232.960938 27.765625 232.820312 28 232.597656 C 28.222656 232.390625 28.328125 231.933594 28.328125 231.265625 C 28.328125 229.515625 28.328125 227.765625 28.328125 226.011719 C 28.328125 225.230469 28.246094 224.644531 28.070312 224.269531 C 27.777344 223.605469 27.179688 223.265625 26.300781 223.265625 C 25.773438 223.265625 25.246094 223.441406 24.730469 223.789062 C 24.425781 224 24.0625 224.316406 23.617188 224.773438 C 23.617188 226.851562 23.617188 228.929688 23.617188 231.007812 C 23.617188 231.664062 23.734375 232.167969 23.96875 232.503906 C 24.203125 232.84375 24.683594 233.03125 25.433594 233.054688 C 25.433594 233.160156 25.433594 233.265625 25.433594 233.371094 C 23.566406 233.371094 21.695312 233.371094 19.828125 233.371094 C 19.828125 233.265625 19.828125 233.160156 19.828125 233.054688 C 20.601562 232.960938 21.09375 232.773438 21.304688 232.492188 C 21.515625 232.214844 21.621094 231.535156 21.621094 230.457031 C 21.621094 229.320312 21.621094 228.179688 21.621094 227.042969 C 21.621094 225.792969 21.539062 224.9375 21.386719 224.46875 C 21.117188 223.675781 20.542969 223.265625 19.675781 223.265625 C 19.171875 223.265625 18.691406 223.40625 18.210938 223.675781 C 17.730469 223.953125 17.308594 224.304688 16.933594 224.75 C 16.933594 226.96875 16.933594 229.1875 16.933594 231.40625 C 16.933594 232.027344 17.050781 232.457031 17.261719 232.691406 C 17.472656 232.925781 17.953125 233.042969 18.667969 233.054688 C 18.667969 233.160156 18.667969 233.265625 18.667969 233.371094 C 16.816406 233.371094 14.960938 233.371094 13.109375 233.371094 C 13.109375 233.265625 13.109375 233.160156 13.109375 233.054688 Z M 13.109375 233.054688 "/>
</svg>
