<?xml version="1.0" encoding="UTF-8"?>
<svg xmlns="http://www.w3.org/2000/svg" xmlns:xlink="http://www.w3.org/1999/xlink" width="523" height="385" viewBox="0 0 523 385">
<path fill="none" stroke-width="0.04" stroke-linecap="butt" stroke-linejoin="miter" stroke="rgb(0%, 0%, 0%)" stroke-opacity="1" stroke-miterlimit="10" d="M -2.902617 -1.439313 C -1.949767 -0.486425 -0.996916 0.466462 -0.0440658 1.419284 " transform="matrix(60.013189, 0, 0, -59.875583, 261.5, 192.5)"/>
<path fill="none" stroke-width="0.04" stroke-linecap="butt" stroke-linejoin="miter" stroke="rgb(0%, 0%, 0%)" stroke-opacity="1" stroke-miterlimit="10" d="M 0.0266868 -1.41002 C 0.0266868 -0.476639 0.0266868 0.456676 0.0266868 1.389992 " transform="matrix(60.013189, 0, 0, -59.875583, 261.5, 192.5)"/>
<path fill="none" stroke-width="0.04" stroke-linecap="butt" stroke-linejoin="miter" stroke="rgb(0%, 0%, 0%)" stroke-opacity="1" stroke-miterlimit="10" d="M 2.955991 -1.439313 C 2.003075 -0.486425 1.050225 0.466462 0.0973744 1.419284 " transform="matrix(60.013189, 0, 0, -59.875583, 261.5, 192.5)"/>
<path fill-rule="nonzero" fill="rgb(0%, 0%, 0%)" fill-opacity="1" d="M 269.101562 103.285156 C 269.101562 101.699219 268.46875 100.175781 267.34375 99.050781 C 266.21875 97.929688 264.691406 97.296875 263.101562 97.296875 C 261.507812 97.296875 259.984375 97.929688 258.855469 99.050781 C 257.730469 100.175781 257.097656 101.699219 257.097656 103.285156 C 257.097656 104.875 257.730469 106.394531 258.855469 107.519531 C 259.984375 108.640625 261.507812 109.273438 263.101562 109.273438 C 264.691406 109.273438 266.21875 108.640625 267.34375 107.519531 C 268.46875 106.394531 269.101562 104.875 269.101562 103.285156 Z M 269.101562 103.285156 "/>
<path fill="none" stroke-width="0.04" stroke-linecap="butt" stroke-linejoin="miter" stroke="rgb(46.666667%, 69.019608%, 36.470588%)" stroke-opacity="1" stroke-miterlimit="10" d="M 0.0266868 3.190013 C 0.0266868 2.840004 0.0266868 2.489994 0.0266868 2.139984 " transform="matrix(60.013189, 0, 0, -59.875583, 261.5, 192.5)"/>
<path fill-rule="nonzero" fill="rgb(46.666667%, 69.019608%, 36.470588%)" fill-opacity="1" d="M 263.101562 91.308594 C 266.101562 82.328125 269.101562 73.347656 272.101562 64.367188 C 266.101562 64.367188 260.101562 64.367188 254.097656 64.367188 C 257.097656 73.347656 260.101562 82.328125 263.101562 91.308594 Z M 263.101562 91.308594 "/>
<path fill="none" stroke-width="0.04" stroke-linecap="butt" stroke-linejoin="miter" stroke="rgb(98.823529%, 38.431373%, 33.333333%)" stroke-opacity="1" stroke-miterlimit="10" d="M -4.249131 -2.78579 C -4.001659 -2.538336 -3.754188 -2.290818 -3.506651 -2.043365 " transform="matrix(60.013189, 0, 0, -59.875583, 261.5, 192.5)"/>
<path fill-rule="nonzero" fill="rgb(98.823529%, 38.431373%, 33.333333%)" fill-opacity="1" d="M 70.148438 295.792969 C 61.664062 300.027344 53.175781 304.261719 44.6875 308.496094 C 48.933594 312.730469 53.175781 316.964844 57.417969 321.195312 C 61.664062 312.730469 65.90625 304.261719 70.148438 295.792969 Z M 70.148438 295.792969 "/>
<path fill="none" stroke-width="0.04" stroke-linecap="butt" stroke-linejoin="miter" stroke="rgb(16.078431%, 67.058824%, 79.215686%)" stroke-opacity="1" stroke-miterlimit="10" d="M 0.0266868 -2.739992 C 0.0266868 -2.389982 0.0266868 -2.039972 0.0266868 -1.690028 " transform="matrix(60.013189, 0, 0, -59.875583, 261.5, 192.5)"/>
<path fill-rule="nonzero" fill="rgb(16.078431%, 67.058824%, 79.215686%)" fill-opacity="1" d="M 263.101562 383.503906 C 266.101562 374.523438 269.101562 365.539062 272.101562 356.558594 C 266.101562 356.558594 260.101562 356.558594 254.097656 356.558594 C 257.097656 365.539062 260.101562 374.523438 263.101562 383.503906 Z M 263.101562 383.503906 "/>
<path fill="none" stroke-width="0.04" stroke-linecap="butt" stroke-linejoin="miter" stroke="rgb(98.823529%, 38.431373%, 33.333333%)" stroke-opacity="1" stroke-miterlimit="10" d="M 4.302505 -2.78579 C 4.054968 -2.538336 3.807496 -2.290818 3.560025 -2.043365 " transform="matrix(60.013189, 0, 0, -59.875583, 261.5, 192.5)"/>
<path fill-rule="nonzero" fill="rgb(98.823529%, 38.431373%, 33.333333%)" fill-opacity="1" d="M 456.050781 295.792969 C 460.296875 304.261719 464.539062 312.730469 468.78125 321.195312 C 473.027344 316.964844 477.269531 312.730469 481.511719 308.496094 C 473.027344 304.261719 464.539062 300.027344 456.050781 295.792969 Z M 456.050781 295.792969 "/>
<path fill-rule="nonzero" fill="rgb(51.372549%, 75.686275%, 40.392157%)" fill-opacity="1" d="M 293.421875 37.246094 C 293.421875 37.128906 293.332031 36.949219 293.121094 36.949219 C 292.792969 36.949219 291.597656 38.140625 291.089844 39.007812 C 290.433594 37.394531 289.265625 36.917969 288.308594 36.917969 C 284.78125 36.917969 281.105469 41.332031 281.105469 45.65625 C 281.105469 48.582031 282.867188 50.429688 285.050781 50.429688 C 286.335938 50.429688 287.503906 49.714844 288.578125 48.640625 C 288.308594 49.683594 287.324219 53.710938 287.234375 53.980469 C 286.992188 54.816406 286.753906 54.933594 285.082031 54.964844 C 284.691406 54.964844 284.394531 54.964844 284.394531 55.558594 C 284.394531 55.589844 284.394531 55.886719 284.78125 55.886719 C 285.738281 55.886719 286.785156 55.796875 287.769531 55.796875 C 288.789062 55.796875 289.863281 55.886719 290.851562 55.886719 C 291 55.886719 291.386719 55.886719 291.386719 55.292969 C 291.386719 54.964844 291.089844 54.964844 290.609375 54.964844 C 289.175781 54.964844 289.175781 54.753906 289.175781 54.488281 C 289.175781 54.277344 289.234375 54.097656 289.296875 53.832031 C 290.671875 48.300781 292.046875 42.773438 293.421875 37.246094 Z M 285.140625 49.773438 C 283.347656 49.773438 283.226562 47.476562 283.226562 46.96875 C 283.226562 45.539062 284.09375 42.289062 284.601562 41.035156 C 285.527344 38.828125 287.082031 37.574219 288.308594 37.574219 C 290.253906 37.574219 290.671875 39.992188 290.671875 40.199219 C 290.671875 40.378906 289.027344 46.910156 288.9375 47.03125 C 288.488281 47.863281 286.816406 49.773438 285.140625 49.773438 Z M 285.140625 49.773438 "/>
<path fill-rule="nonzero" fill="rgb(51.372549%, 75.686275%, 40.392157%)" fill-opacity="1" d="M 300.035156 41.527344 C 300.035156 41.191406 299.785156 40.734375 299.199219 40.734375 C 298.632812 40.734375 298.027344 41.277344 298.027344 41.882812 C 298.027344 42.238281 298.296875 42.675781 298.863281 42.675781 C 299.46875 42.675781 300.035156 42.089844 300.035156 41.527344 Z M 295.765625 52.132812 C 295.683594 52.40625 295.578125 52.65625 295.578125 53.011719 C 295.578125 53.992188 296.414062 54.785156 297.566406 54.785156 C 299.65625 54.785156 300.578125 51.902344 300.578125 51.589844 C 300.578125 51.320312 300.304688 51.320312 300.242188 51.320312 C 299.949219 51.320312 299.929688 51.445312 299.847656 51.671875 C 299.363281 53.34375 298.445312 54.199219 297.628906 54.199219 C 297.210938 54.199219 297.105469 53.929688 297.105469 53.46875 C 297.105469 52.988281 297.25 52.59375 297.441406 52.132812 C 297.648438 51.570312 297.878906 51.003906 298.109375 50.460938 C 298.296875 49.960938 299.050781 48.0625 299.132812 47.8125 C 299.199219 47.601562 299.261719 47.351562 299.261719 47.144531 C 299.261719 46.160156 298.421875 45.367188 297.273438 45.367188 C 295.199219 45.367188 294.238281 48.207031 294.238281 48.5625 C 294.238281 48.835938 294.53125 48.835938 294.59375 48.835938 C 294.886719 48.835938 294.90625 48.730469 294.96875 48.5 C 295.515625 46.703125 296.433594 45.953125 297.210938 45.953125 C 297.542969 45.953125 297.734375 46.121094 297.734375 46.683594 C 297.734375 47.164062 297.605469 47.476562 297.082031 48.773438 C 296.644531 49.890625 296.203125 51.011719 295.765625 52.132812 Z M 295.765625 52.132812 "/>
<path fill-rule="nonzero" fill="rgb(98.823529%, 38.431373%, 33.333333%)" fill-opacity="1" d="M 9.421875 299.59375 C 10.390625 299.59375 11.355469 299.59375 12.320312 299.59375 C 14.5625 299.59375 14.804688 300.074219 14.804688 300.9375 C 14.804688 301.144531 14.804688 301.503906 14.59375 302.398438 C 14.535156 302.546875 14.503906 302.667969 14.503906 302.726562 C 14.503906 302.964844 14.683594 303.085938 14.863281 303.085938 C 15.164062 303.085938 15.164062 302.996094 15.3125 302.457031 C 15.859375 300.300781 16.40625 298.144531 16.957031 295.988281 C 17.046875 295.660156 17.046875 295.597656 17.046875 295.507812 C 17.046875 295.449219 16.984375 295.179688 16.6875 295.179688 C 16.386719 295.179688 16.359375 295.332031 16.238281 295.808594 C 15.609375 298.132812 14.921875 298.671875 12.382812 298.671875 C 11.476562 298.671875 10.566406 298.671875 9.660156 298.671875 C 10.300781 296.144531 10.9375 293.621094 11.574219 291.09375 C 11.84375 290.050781 11.875 289.933594 13.1875 289.933594 C 14.503906 289.933594 15.820312 289.933594 17.136719 289.933594 C 20.8125 289.933594 21.5 290.917969 21.5 293.210938 C 21.5 293.898438 21.5 294.019531 21.410156 294.824219 C 21.351562 295.210938 21.351562 295.269531 21.351562 295.359375 C 21.351562 295.507812 21.441406 295.71875 21.710938 295.71875 C 22.039062 295.71875 22.066406 295.539062 22.128906 294.972656 C 22.328125 293.253906 22.527344 291.53125 22.726562 289.8125 C 22.816406 289.007812 22.664062 289.007812 21.917969 289.007812 C 17.035156 289.007812 12.152344 289.007812 7.269531 289.007812 C 6.671875 289.007812 6.375 289.007812 6.375 289.605469 C 6.375 289.933594 6.640625 289.933594 7.210938 289.933594 C 8.316406 289.933594 9.152344 289.933594 9.152344 290.46875 C 9.152344 290.589844 9.152344 290.648438 9.003906 291.183594 C 7.6875 296.445312 6.375 301.703125 5.058594 306.960938 C 4.757812 308.125 4.699219 308.363281 2.335938 308.363281 C 1.828125 308.363281 1.5 308.363281 1.5 308.929688 C 1.5 309.289062 1.859375 309.289062 1.949219 309.289062 C 2.816406 309.289062 5.027344 309.199219 5.894531 309.199219 C 6.882812 309.199219 9.363281 309.289062 10.347656 309.289062 C 10.617188 309.289062 10.976562 309.289062 10.976562 308.722656 C 10.976562 308.484375 10.796875 308.425781 10.796875 308.394531 C 10.707031 308.363281 10.648438 308.363281 9.960938 308.363281 C 9.304688 308.363281 9.152344 308.363281 8.40625 308.304688 C 7.539062 308.214844 7.449219 308.097656 7.449219 307.707031 C 7.449219 307.648438 7.449219 307.46875 7.570312 307.023438 C 8.1875 304.546875 8.804688 302.070312 9.421875 299.59375 Z M 9.421875 299.59375 "/>
<path fill-rule="nonzero" fill="rgb(98.823529%, 38.431373%, 33.333333%)" fill-opacity="1" d="M 28.773438 300.714844 C 28.773438 300.359375 28.503906 299.921875 27.9375 299.921875 C 27.332031 299.921875 26.765625 300.503906 26.765625 301.070312 C 26.765625 301.402344 27.015625 301.863281 27.601562 301.863281 C 28.167969 301.863281 28.773438 301.320312 28.773438 300.714844 Z M 24.339844 314.785156 C 23.984375 316.226562 22.875 317.4375 21.640625 317.4375 C 21.367188 317.4375 21.117188 317.394531 20.886719 317.3125 C 21.429688 317.0625 21.597656 316.558594 21.597656 316.246094 C 21.597656 315.746094 21.199219 315.476562 20.78125 315.476562 C 20.132812 315.476562 19.589844 316.039062 19.589844 316.707031 C 19.589844 317.5 20.40625 318.023438 21.660156 318.023438 C 22.914062 318.023438 25.363281 317.269531 26.011719 314.722656 C 26.640625 312.230469 27.269531 309.738281 27.894531 307.25 C 27.957031 307.019531 28 306.832031 28 306.519531 C 28 305.371094 27.015625 304.554688 25.761719 304.554688 C 23.4375 304.554688 22.097656 307.457031 22.097656 307.75 C 22.097656 308.019531 22.390625 308.019531 22.453125 308.019531 C 22.707031 308.019531 22.726562 307.957031 22.875 307.644531 C 23.398438 306.433594 24.484375 305.140625 25.699219 305.140625 C 26.222656 305.140625 26.410156 305.496094 26.410156 306.164062 C 26.410156 306.394531 26.367188 306.683594 26.347656 306.789062 C 25.675781 309.453125 25.007812 312.121094 24.339844 314.785156 Z M 24.339844 314.785156 "/>
<path fill-rule="nonzero" fill="rgb(16.078431%, 67.058824%, 79.215686%)" fill-opacity="1" d="M 227.566406 324.21875 C 228.535156 324.21875 229.5 324.21875 230.464844 324.21875 C 232.707031 324.21875 232.949219 324.699219 232.949219 325.5625 C 232.949219 325.769531 232.949219 326.128906 232.738281 327.023438 C 232.679688 327.171875 232.648438 327.292969 232.648438 327.351562 C 232.648438 327.589844 232.828125 327.710938 233.007812 327.710938 C 233.308594 327.710938 233.308594 327.621094 233.457031 327.082031 C 234.003906 324.925781 234.550781 322.769531 235.101562 320.613281 C 235.191406 320.285156 235.191406 320.222656 235.191406 320.132812 C 235.191406 320.074219 235.128906 319.804688 234.832031 319.804688 C 234.53125 319.804688 234.503906 319.957031 234.382812 320.433594 C 233.753906 322.757812 233.066406 323.296875 230.527344 323.296875 C 229.621094 323.296875 228.710938 323.296875 227.804688 323.296875 C 228.445312 320.769531 229.082031 318.246094 229.71875 315.71875 C 229.988281 314.675781 230.019531 314.558594 231.332031 314.558594 C 232.648438 314.558594 233.964844 314.558594 235.28125 314.558594 C 238.957031 314.558594 239.644531 315.539062 239.644531 317.835938 C 239.644531 318.523438 239.644531 318.644531 239.554688 319.449219 C 239.496094 319.835938 239.496094 319.894531 239.496094 319.984375 C 239.496094 320.132812 239.585938 320.34375 239.855469 320.34375 C 240.183594 320.34375 240.210938 320.164062 240.273438 319.597656 C 240.472656 317.878906 240.671875 316.15625 240.871094 314.4375 C 240.960938 313.632812 240.808594 313.632812 240.0625 313.632812 C 235.179688 313.632812 230.296875 313.632812 225.414062 313.632812 C 224.816406 313.632812 224.519531 313.632812 224.519531 314.230469 C 224.519531 314.558594 224.785156 314.558594 225.355469 314.558594 C 226.460938 314.558594 227.296875 314.558594 227.296875 315.09375 C 227.296875 315.214844 227.296875 315.273438 227.148438 315.808594 C 225.832031 321.070312 224.519531 326.328125 223.203125 331.585938 C 222.902344 332.75 222.84375 332.988281 220.480469 332.988281 C 219.972656 332.988281 219.644531 332.988281 219.644531 333.554688 C 219.644531 333.914062 220.003906 333.914062 220.09375 333.914062 C 220.960938 333.914062 223.171875 333.824219 224.039062 333.824219 C 225.027344 333.824219 227.507812 333.914062 228.492188 333.914062 C 228.761719 333.914062 229.121094 333.914062 229.121094 333.347656 C 229.121094 333.109375 228.941406 333.050781 228.941406 333.019531 C 228.851562 332.988281 228.792969 332.988281 228.105469 332.988281 C 227.449219 332.988281 227.296875 332.988281 226.550781 332.929688 C 225.683594 332.839844 225.59375 332.722656 225.59375 332.332031 C 225.59375 332.273438 225.59375 332.09375 225.714844 331.648438 C 226.332031 329.171875 226.949219 326.695312 227.566406 324.21875 Z M 227.566406 324.21875 "/>
<path fill-rule="nonzero" fill="rgb(16.078431%, 67.058824%, 79.215686%)" fill-opacity="1" d="M 244.28125 324.523438 C 244.304688 324.484375 244.367188 324.210938 244.367188 324.191406 C 244.367188 324.085938 244.28125 323.898438 244.03125 323.898438 C 243.613281 323.898438 241.875 324.066406 241.351562 324.105469 C 241.1875 324.128906 240.894531 324.148438 240.894531 324.585938 C 240.894531 324.878906 241.1875 324.878906 241.4375 324.878906 C 242.441406 324.878906 242.441406 325.027344 242.441406 325.191406 C 242.441406 325.339844 242.398438 325.464844 242.359375 325.652344 C 241.375 329.589844 240.390625 333.53125 239.40625 337.46875 C 239.300781 337.84375 239.300781 337.886719 239.300781 337.929688 C 239.300781 338.242188 239.554688 338.597656 240.015625 338.597656 C 240.578125 338.597656 240.851562 338.179688 240.976562 337.71875 C 241.019531 337.636719 241.917969 333.960938 242 333.667969 C 243.488281 333.816406 244.679688 334.296875 244.679688 335.382812 C 244.679688 335.484375 244.679688 335.589844 244.636719 335.796875 C 244.554688 336.113281 244.554688 336.214844 244.554688 336.445312 C 244.554688 337.929688 245.769531 338.597656 246.773438 338.597656 C 248.800781 338.597656 249.429688 335.421875 249.429688 335.402344 C 249.429688 335.128906 249.160156 335.128906 249.09375 335.128906 C 248.800781 335.128906 248.78125 335.234375 248.675781 335.632812 C 248.425781 336.53125 247.859375 338.011719 246.835938 338.011719 C 246.269531 338.011719 246.101562 337.488281 246.101562 336.925781 C 246.101562 336.570312 246.101562 336.53125 246.230469 335.988281 C 246.25 335.925781 246.332031 335.570312 246.332031 335.339844 C 246.332031 333.480469 243.824219 333.1875 242.945312 333.125 C 243.550781 332.75 244.324219 332.0625 244.679688 331.75 C 245.746094 330.746094 246.792969 329.765625 247.964844 329.765625 C 248.214844 329.765625 248.488281 329.828125 248.65625 330.035156 C 247.757812 330.183594 247.566406 330.890625 247.566406 331.207031 C 247.566406 331.664062 247.921875 331.976562 248.40625 331.976562 C 248.96875 331.976562 249.597656 331.519531 249.597656 330.640625 C 249.597656 329.953125 249.09375 329.179688 247.988281 329.179688 C 246.792969 329.179688 245.707031 330.035156 244.636719 331.019531 C 243.757812 331.851562 243.070312 332.5 242.210938 332.855469 C 242.902344 330.078125 243.59375 327.300781 244.28125 324.523438 Z M 244.28125 324.523438 "/>
<path fill-rule="nonzero" fill="rgb(98.823529%, 38.431373%, 33.333333%)" fill-opacity="1" d="M 505.347656 303.644531 C 506.316406 303.644531 507.28125 303.644531 508.25 303.644531 C 510.492188 303.644531 510.730469 304.121094 510.730469 304.988281 C 510.730469 305.195312 510.730469 305.554688 510.519531 306.449219 C 510.460938 306.597656 510.429688 306.71875 510.429688 306.777344 C 510.429688 307.015625 510.609375 307.136719 510.789062 307.136719 C 511.089844 307.136719 511.089844 307.046875 511.238281 306.507812 C 511.785156 304.351562 512.335938 302.195312 512.882812 300.035156 C 512.972656 299.707031 512.972656 299.648438 512.972656 299.558594 C 512.972656 299.5 512.914062 299.230469 512.613281 299.230469 C 512.3125 299.230469 512.285156 299.378906 512.164062 299.859375 C 511.539062 302.183594 510.847656 302.722656 508.308594 302.722656 C 507.402344 302.722656 506.496094 302.722656 505.589844 302.722656 C 506.226562 300.195312 506.863281 297.671875 507.5 295.144531 C 507.769531 294.101562 507.800781 293.980469 509.117188 293.980469 C 510.429688 293.980469 511.746094 293.980469 513.0625 293.980469 C 516.738281 293.980469 517.425781 294.964844 517.425781 297.261719 C 517.425781 297.949219 517.425781 298.066406 517.335938 298.875 C 517.277344 299.261719 517.277344 299.320312 517.277344 299.410156 C 517.277344 299.558594 517.367188 299.769531 517.636719 299.769531 C 517.964844 299.769531 517.996094 299.589844 518.054688 299.023438 C 518.253906 297.304688 518.453125 295.582031 518.652344 293.863281 C 518.742188 293.058594 518.59375 293.058594 517.84375 293.058594 C 512.960938 293.058594 508.078125 293.058594 503.195312 293.058594 C 502.597656 293.058594 502.300781 293.058594 502.300781 293.652344 C 502.300781 293.980469 502.570312 293.980469 503.136719 293.980469 C 504.242188 293.980469 505.078125 293.980469 505.078125 294.519531 C 505.078125 294.636719 505.078125 294.699219 504.929688 295.234375 C 503.613281 300.496094 502.300781 305.753906 500.984375 311.011719 C 500.683594 312.175781 500.625 312.414062 498.265625 312.414062 C 497.753906 312.414062 497.425781 312.414062 497.425781 312.980469 C 497.425781 313.339844 497.785156 313.339844 497.875 313.339844 C 498.742188 313.339844 500.953125 313.25 501.820312 313.25 C 502.808594 313.25 505.289062 313.339844 506.277344 313.339844 C 506.542969 313.339844 506.902344 313.339844 506.902344 312.773438 C 506.902344 312.535156 506.722656 312.472656 506.722656 312.445312 C 506.632812 312.414062 506.574219 312.414062 505.886719 312.414062 C 505.230469 312.414062 505.078125 312.414062 504.332031 312.355469 C 503.464844 312.265625 503.375 312.144531 503.375 311.757812 C 503.375 311.699219 503.375 311.519531 503.496094 311.074219 C 504.113281 308.597656 504.730469 306.121094 505.347656 303.644531 Z M 505.347656 303.644531 "/>
<path fill-rule="nonzero" fill="rgb(98.823529%, 38.431373%, 33.333333%)" fill-opacity="1" d="M 521.414062 303.949219 C 521.4375 303.910156 521.5 303.636719 521.5 303.617188 C 521.5 303.511719 521.414062 303.324219 521.164062 303.324219 C 520.746094 303.324219 519.007812 303.492188 518.484375 303.53125 C 518.339844 303.554688 518.046875 303.574219 518.046875 304.011719 C 518.046875 304.304688 518.339844 304.304688 518.570312 304.304688 C 519.574219 304.304688 519.574219 304.449219 519.574219 304.617188 C 519.574219 304.765625 519.53125 304.890625 519.492188 305.078125 C 518.625 308.515625 517.761719 311.953125 516.894531 315.390625 C 516.832031 315.601562 516.8125 315.828125 516.8125 316.039062 C 516.8125 317.375 518.003906 318.023438 519.007812 318.023438 C 519.511719 318.023438 520.140625 317.855469 520.683594 316.914062 C 521.121094 316.144531 521.414062 314.910156 521.414062 314.828125 C 521.414062 314.554688 521.144531 314.554688 521.082031 314.554688 C 520.789062 314.554688 520.746094 314.679688 520.664062 315.058594 C 520.390625 316.101562 519.992188 317.4375 519.09375 317.4375 C 518.527344 317.4375 518.382812 316.914062 518.382812 316.414062 C 518.382812 316.183594 518.445312 315.789062 518.507812 315.558594 C 519.476562 311.6875 520.445312 307.820312 521.414062 303.949219 Z M 521.414062 303.949219 "/>
<path fill-rule="nonzero" fill="rgb(0%, 0%, 0%)" fill-opacity="1" d="M 114.378906 209.917969 C 114.378906 209.828125 114.378906 209.765625 113.871094 209.261719 C 110.132812 205.503906 109.175781 199.863281 109.175781 195.300781 C 109.175781 190.113281 110.3125 184.921875 113.988281 181.195312 C 114.378906 180.835938 114.378906 180.777344 114.378906 180.6875 C 114.378906 180.476562 114.257812 180.390625 114.078125 180.390625 C 113.78125 180.390625 111.089844 182.417969 109.328125 186.203125 C 107.800781 189.484375 107.441406 192.796875 107.441406 195.300781 C 107.441406 197.628906 107.773438 201.238281 109.414062 204.605469 C 111.210938 208.277344 113.78125 210.214844 114.078125 210.214844 C 114.257812 210.214844 114.378906 210.125 114.378906 209.917969 Z M 114.378906 209.917969 "/>
<path fill-rule="nonzero" fill="rgb(0%, 0%, 0%)" fill-opacity="1" d="M 127.976562 184.117188 C 127.976562 183.550781 127.558594 183.042969 126.839844 183.042969 C 126.152344 183.042969 125.257812 183.730469 125.257812 184.625 C 125.257812 185.21875 125.675781 185.699219 126.363281 185.699219 C 127.171875 185.699219 127.976562 184.921875 127.976562 184.117188 Z M 121.96875 204.25 C 121.398438 206.515625 119.964844 208.214844 118.292969 208.214844 C 118.113281 208.214844 117.664062 208.214844 117.125 207.949219 C 118.023438 207.738281 118.472656 206.964844 118.472656 206.367188 C 118.472656 205.890625 118.140625 205.324219 117.335938 205.324219 C 116.585938 205.324219 115.71875 205.949219 115.71875 207.023438 C 115.71875 208.214844 116.917969 208.871094 118.351562 208.871094 C 120.445312 208.871094 123.222656 207.292969 123.972656 204.339844 C 124.886719 200.699219 125.804688 197.0625 126.722656 193.421875 C 126.871094 192.824219 126.871094 192.410156 126.871094 192.320312 C 126.871094 190.617188 125.617188 189.574219 124.121094 189.574219 C 121.070312 189.574219 119.367188 193.898438 119.367188 194.167969 C 119.367188 194.464844 119.667969 194.464844 119.726562 194.464844 C 119.996094 194.464844 120.023438 194.4375 120.265625 193.871094 C 121.011719 192.050781 122.386719 190.230469 124.03125 190.230469 C 124.449219 190.230469 124.988281 190.351562 124.988281 191.601562 C 124.988281 192.289062 124.898438 192.617188 124.777344 193.125 C 123.839844 196.832031 122.90625 200.542969 121.96875 204.25 Z M 121.96875 204.25 "/>
<path fill-rule="nonzero" fill="rgb(0%, 0%, 0%)" fill-opacity="1" d="M 138.769531 195.300781 C 138.769531 192.976562 138.441406 189.367188 136.796875 185.996094 C 135.003906 182.328125 132.433594 180.390625 132.132812 180.390625 C 131.953125 180.390625 131.835938 180.507812 131.835938 180.6875 C 131.835938 180.777344 131.835938 180.835938 132.402344 181.371094 C 135.332031 184.324219 137.035156 189.066406 137.035156 195.300781 C 137.035156 200.402344 135.929688 205.652344 132.222656 209.410156 C 131.835938 209.765625 131.835938 209.828125 131.835938 209.917969 C 131.835938 210.09375 131.953125 210.214844 132.132812 210.214844 C 132.433594 210.214844 135.125 208.1875 136.886719 204.398438 C 138.410156 201.117188 138.769531 197.808594 138.769531 195.300781 Z M 138.769531 195.300781 "/>
<path fill-rule="nonzero" fill="rgb(0%, 0%, 0%)" fill-opacity="1" d="M 227.824219 217.949219 C 227.824219 217.859375 227.824219 217.800781 227.316406 217.292969 C 223.578125 213.535156 222.621094 207.898438 222.621094 203.332031 C 222.621094 198.144531 223.757812 192.953125 227.4375 189.226562 C 227.824219 188.867188 227.824219 188.808594 227.824219 188.71875 C 227.824219 188.511719 227.703125 188.421875 227.527344 188.421875 C 227.226562 188.421875 224.535156 190.449219 222.773438 194.238281 C 221.246094 197.515625 220.890625 200.828125 220.890625 203.332031 C 220.890625 205.660156 221.21875 209.269531 222.863281 212.640625 C 224.65625 216.308594 227.226562 218.246094 227.527344 218.246094 C 227.703125 218.246094 227.824219 218.15625 227.824219 217.949219 Z M 227.824219 217.949219 "/>
<path fill-rule="nonzero" fill="rgb(0%, 0%, 0%)" fill-opacity="1" d="M 238.136719 190.417969 C 238.136719 190.390625 238.136719 190.089844 237.746094 190.089844 C 237.058594 190.089844 234.875 190.328125 234.097656 190.390625 C 233.859375 190.417969 233.53125 190.449219 233.53125 190.984375 C 233.53125 191.34375 233.800781 191.34375 234.25 191.34375 C 235.683594 191.34375 235.742188 191.550781 235.742188 191.851562 C 235.714844 192.050781 235.683594 192.25 235.652344 192.445312 C 234.207031 198.171875 232.765625 203.898438 231.320312 209.625 C 231.199219 210.042969 231.199219 210.105469 231.199219 210.28125 C 231.199219 210.96875 231.796875 211.117188 232.066406 211.117188 C 232.453125 211.117188 232.902344 210.851562 233.082031 210.492188 C 233.230469 210.222656 234.578125 204.707031 234.757812 203.960938 C 235.773438 204.050781 238.226562 204.527344 238.226562 206.496094 C 238.226562 206.703125 238.226562 206.824219 238.136719 207.121094 C 238.074219 207.480469 238.015625 207.835938 238.015625 208.164062 C 238.015625 209.925781 239.210938 211.117188 240.765625 211.117188 C 241.664062 211.117188 242.46875 210.640625 243.128906 209.539062 C 243.875 208.226562 244.203125 206.585938 244.203125 206.523438 C 244.203125 206.226562 243.933594 206.226562 243.84375 206.226562 C 243.546875 206.226562 243.515625 206.347656 243.425781 206.761719 C 242.828125 208.941406 242.140625 210.460938 240.824219 210.460938 C 240.257812 210.460938 239.867188 210.132812 239.867188 209.058594 C 239.867188 208.554688 239.988281 207.867188 240.109375 207.390625 C 240.226562 206.882812 240.226562 206.761719 240.226562 206.464844 C 240.226562 204.527344 238.34375 203.660156 235.804688 203.332031 C 236.730469 202.796875 237.6875 201.84375 238.375 201.125 C 239.808594 199.546875 241.183594 198.261719 242.648438 198.261719 C 242.828125 198.261719 242.859375 198.261719 242.917969 198.292969 C 243.277344 198.351562 243.308594 198.351562 243.546875 198.53125 C 243.605469 198.5625 243.605469 198.589844 243.664062 198.652344 C 242.230469 198.742188 241.960938 199.902344 241.960938 200.261719 C 241.960938 200.738281 242.289062 201.304688 243.097656 201.304688 C 243.875 201.304688 244.742188 200.648438 244.742188 199.484375 C 244.742188 198.589844 244.054688 197.605469 242.707031 197.605469 C 241.871094 197.605469 240.496094 197.84375 238.34375 200.230469 C 237.328125 201.363281 236.160156 202.558594 235.027344 203.003906 C 236.0625 198.808594 237.097656 194.613281 238.136719 190.417969 Z M 238.136719 190.417969 "/>
<path fill-rule="nonzero" fill="rgb(0%, 0%, 0%)" fill-opacity="1" d="M 254.699219 203.332031 C 254.699219 201.007812 254.371094 197.398438 252.726562 194.027344 C 250.933594 190.359375 248.363281 188.421875 248.0625 188.421875 C 247.882812 188.421875 247.761719 188.539062 247.761719 188.71875 C 247.761719 188.808594 247.761719 188.867188 248.332031 189.40625 C 251.261719 192.359375 252.964844 197.101562 252.964844 203.332031 C 252.964844 208.433594 251.859375 213.683594 248.152344 217.441406 C 247.761719 217.800781 247.761719 217.859375 247.761719 217.949219 C 247.761719 218.128906 247.882812 218.246094 248.0625 218.246094 C 248.363281 218.246094 251.050781 216.21875 252.816406 212.429688 C 254.339844 209.148438 254.699219 205.839844 254.699219 203.332031 Z M 254.699219 203.332031 "/>
<path fill-rule="nonzero" fill="rgb(0%, 0%, 0%)" fill-opacity="1" d="M 394.367188 209.917969 C 394.367188 209.828125 394.367188 209.765625 393.859375 209.261719 C 390.121094 205.503906 389.164062 199.863281 389.164062 195.300781 C 389.164062 190.113281 390.300781 184.921875 393.976562 181.195312 C 394.367188 180.835938 394.367188 180.777344 394.367188 180.6875 C 394.367188 180.476562 394.246094 180.390625 394.066406 180.390625 C 393.769531 180.390625 391.078125 182.417969 389.316406 186.203125 C 387.789062 189.484375 387.429688 192.796875 387.429688 195.300781 C 387.429688 197.628906 387.761719 201.238281 389.402344 204.605469 C 391.199219 208.277344 393.769531 210.214844 394.066406 210.214844 C 394.246094 210.214844 394.367188 210.125 394.367188 209.917969 Z M 394.367188 209.917969 "/>
<path fill-rule="nonzero" fill="rgb(0%, 0%, 0%)" fill-opacity="1" d="M 403.808594 182.386719 C 403.808594 182.355469 403.808594 182.058594 403.421875 182.058594 C 402.734375 182.058594 400.550781 182.296875 399.773438 182.355469 C 399.535156 182.386719 399.207031 182.417969 399.207031 182.984375 C 399.207031 183.3125 399.503906 183.3125 399.953125 183.3125 C 401.386719 183.3125 401.417969 183.582031 401.417969 183.820312 C 401.386719 184.015625 401.359375 184.214844 401.328125 184.414062 C 400.074219 189.386719 398.816406 194.355469 397.5625 199.328125 C 397.472656 199.65625 397.414062 199.863281 397.414062 200.34375 C 397.414062 202.042969 398.726562 203.085938 400.132812 203.085938 C 401.121094 203.085938 401.867188 202.488281 402.375 201.414062 C 402.914062 200.28125 403.273438 198.550781 403.273438 198.492188 C 403.273438 198.195312 403.003906 198.195312 402.914062 198.195312 C 402.613281 198.195312 402.585938 198.3125 402.496094 198.730469 C 401.988281 200.671875 401.417969 202.429688 400.222656 202.429688 C 399.324219 202.429688 399.324219 201.476562 399.324219 201.058594 C 399.324219 200.34375 399.355469 200.191406 399.503906 199.625 C 400.941406 193.878906 402.375 188.132812 403.808594 182.386719 Z M 403.808594 182.386719 "/>
<path fill-rule="nonzero" fill="rgb(0%, 0%, 0%)" fill-opacity="1" d="M 414.246094 195.300781 C 414.246094 192.976562 413.917969 189.367188 412.273438 185.996094 C 410.476562 182.328125 407.90625 180.390625 407.609375 180.390625 C 407.429688 180.390625 407.308594 180.507812 407.308594 180.6875 C 407.308594 180.777344 407.308594 180.835938 407.878906 181.371094 C 410.808594 184.324219 412.511719 189.066406 412.511719 195.300781 C 412.511719 200.402344 411.40625 205.652344 407.699219 209.410156 C 407.308594 209.765625 407.308594 209.828125 407.308594 209.917969 C 407.308594 210.09375 407.429688 210.214844 407.609375 210.214844 C 407.90625 210.214844 410.597656 208.1875 412.363281 204.398438 C 413.886719 201.117188 414.246094 197.808594 414.246094 195.300781 Z M 414.246094 195.300781 "/>
<path fill-rule="nonzero" fill="rgb(0%, 0%, 0%)" fill-opacity="1" d="M 238.828125 94.335938 C 238.828125 93.742188 238.40625 93.265625 237.71875 93.265625 C 236.914062 93.265625 236.105469 94.039062 236.105469 94.84375 C 236.105469 95.410156 236.523438 95.917969 237.242188 95.917969 C 237.929688 95.917969 238.828125 95.230469 238.828125 94.335938 Z M 236.554688 105.550781 C 236.914062 104.6875 236.914062 104.628906 237.210938 103.820312 C 237.453125 103.226562 237.601562 102.808594 237.601562 102.242188 C 237.601562 100.898438 236.644531 99.796875 235.148438 99.796875 C 232.339844 99.796875 231.203125 104.121094 231.203125 104.390625 C 231.203125 104.6875 231.503906 104.6875 231.5625 104.6875 C 231.859375 104.6875 231.890625 104.628906 232.039062 104.148438 C 232.847656 101.347656 234.042969 100.453125 235.058594 100.453125 C 235.300781 100.453125 235.808594 100.453125 235.808594 101.40625 C 235.808594 102.03125 235.597656 102.660156 235.476562 102.957031 C 235.238281 103.734375 233.894531 107.191406 233.414062 108.476562 C 233.117188 109.25 232.726562 110.234375 232.726562 110.859375 C 232.726562 112.261719 233.746094 113.308594 235.179688 113.308594 C 237.988281 113.308594 239.09375 108.980469 239.09375 108.714844 C 239.09375 108.414062 238.828125 108.414062 238.738281 108.414062 C 238.4375 108.414062 238.4375 108.503906 238.289062 108.953125 C 237.75 110.832031 236.765625 112.652344 235.238281 112.652344 C 234.730469 112.652344 234.523438 112.351562 234.523438 111.667969 C 234.523438 110.921875 234.699219 110.503906 235.386719 108.683594 C 235.777344 107.640625 236.164062 106.597656 236.554688 105.550781 Z M 236.554688 105.550781 "/>
</svg>
