<?xml version="1.0" encoding="UTF-8"?>
<svg xmlns="http://www.w3.org/2000/svg" xmlns:xlink="http://www.w3.org/1999/xlink" width="651" height="365" viewBox="0 0 651 365">
<path fill="none" stroke-width="0.125" stroke-linecap="butt" stroke-linejoin="miter" stroke="rgb(16.078431%, 67.058824%, 79.215686%)" stroke-opacity="1" stroke-miterlimit="10" d="M -4.970986 -2.519841 C -3.304326 -2.519841 -1.637667 -2.519841 0.0289927 -2.519841 " transform="matrix(59.955723, 0, 0, -59.936817, 325.5, 182.5)"/>
<path fill="none" stroke-width="0.125" stroke-linecap="butt" stroke-linejoin="miter" stroke="rgb(16.078431%, 67.058824%, 79.215686%)" stroke-opacity="1" stroke-miterlimit="10" d="M 0.0289927 -2.519841 C 1.695652 -2.519841 3.362312 -2.519841 5.029037 -2.519841 " transform="matrix(59.955723, 0, 0, -59.936817, 325.5, 182.5)"/>
<path fill="none" stroke-width="0.176777" stroke-linecap="butt" stroke-linejoin="miter" stroke="rgb(98.823529%, 38.431373%, 33.333333%)" stroke-opacity="1" stroke-miterlimit="10" d="M 5.029037 -2.519841 C 3.362312 -0.853177 1.695652 0.813487 0.0289927 2.480151 " transform="matrix(59.955723, 0, 0, -59.936817, 325.5, 182.5)"/>
<path fill="none" stroke-width="0.176777" stroke-linecap="butt" stroke-linejoin="miter" stroke="rgb(98.823529%, 38.431373%, 33.333333%)" stroke-opacity="1" stroke-miterlimit="10" d="M 0.0289927 2.480151 C -1.637667 0.813487 -3.304326 -0.853177 -4.970986 -2.519841 " transform="matrix(59.955723, 0, 0, -59.936817, 325.5, 182.5)"/>
<path fill="none" stroke-width="0.25" stroke-linecap="butt" stroke-linejoin="miter" stroke="rgb(16.078431%, 67.058824%, 79.215686%)" stroke-opacity="1" stroke-miterlimit="10" d="M 0.0289927 -2.519841 C 0.0289927 -0.853177 0.0289927 0.813487 0.0289927 2.480151 " transform="matrix(59.955723, 0, 0, -59.936817, 325.5, 182.5)"/>
<path fill="none" stroke-width="0.04" stroke-linecap="butt" stroke-linejoin="miter" stroke="rgb(0%, 0%, 0%)" stroke-opacity="1" stroke-miterlimit="10" d="M -4.970986 -2.519841 C -5.067216 -2.686553 -5.163446 -2.8532 -5.259676 -3.019847 C -5.067216 -3.019847 -4.874756 -3.019847 -4.682296 -3.019847 C -4.778526 -2.8532 -4.874756 -2.686553 -4.970986 -2.519841 Z M -4.970986 -2.519841 " transform="matrix(59.955723, 0, 0, -59.936817, 325.5, 182.5)"/>
<path fill="none" stroke-width="0.04" stroke-linecap="butt" stroke-linejoin="miter" stroke="rgb(0%, 0%, 0%)" stroke-opacity="1" stroke-miterlimit="10" d="M -4.537984 -3.019847 C -4.826674 -3.019847 -5.115363 -3.019847 -5.403988 -3.019847 " transform="matrix(59.955723, 0, 0, -59.936817, 325.5, 182.5)"/>
<path fill="none" stroke-width="0.04" stroke-linecap="butt" stroke-linejoin="miter" stroke="rgb(0%, 0%, 0%)" stroke-opacity="1" stroke-miterlimit="10" d="M 5.279026 -2.769844 C 5.279026 -2.703563 5.252639 -2.639954 5.205795 -2.593095 C 5.158885 -2.546236 5.095297 -2.519841 5.029037 -2.519841 C 4.962712 -2.519841 4.899123 -2.546236 4.852214 -2.593095 C 4.805369 -2.639954 4.778982 -2.703563 4.778982 -2.769844 C 4.778982 -2.83619 4.805369 -2.899733 4.852214 -2.946658 C 4.899123 -2.993517 4.962712 -3.019847 5.029037 -3.019847 C 5.095297 -3.019847 5.158885 -2.993517 5.205795 -2.946658 C 5.252639 -2.899733 5.279026 -2.83619 5.279026 -2.769844 Z M 5.279026 -2.769844 " transform="matrix(59.955723, 0, 0, -59.936817, 325.5, 182.5)"/>
<path fill="none" stroke-width="0.04" stroke-linecap="butt" stroke-linejoin="miter" stroke="rgb(0%, 0%, 0%)" stroke-opacity="1" stroke-miterlimit="10" d="M 5.403988 -3.019847 C 5.153999 -3.019847 4.90401 -3.019847 4.65402 -3.019847 " transform="matrix(59.955723, 0, 0, -59.936817, 325.5, 182.5)"/>
<path fill-rule="nonzero" fill="rgb(0%, 0%, 0%)" fill-opacity="1" d="M 33.457031 333.53125 C 33.457031 331.945312 32.824219 330.417969 31.699219 329.296875 C 30.574219 328.171875 29.050781 327.539062 27.460938 327.539062 C 25.871094 327.539062 24.34375 328.171875 23.222656 329.296875 C 22.097656 330.417969 21.464844 331.945312 21.464844 333.53125 C 21.464844 335.121094 22.097656 336.648438 23.222656 337.769531 C 24.34375 338.894531 25.871094 339.527344 27.460938 339.527344 C 29.050781 339.527344 30.574219 338.894531 31.699219 337.769531 C 32.824219 336.648438 33.457031 335.121094 33.457031 333.53125 Z M 33.457031 333.53125 "/>
<path fill-rule="nonzero" fill="rgb(0%, 0%, 0%)" fill-opacity="1" d="M 333.234375 333.53125 C 333.234375 331.945312 332.601562 330.417969 331.480469 329.296875 C 330.355469 328.171875 328.828125 327.539062 327.238281 327.539062 C 325.648438 327.539062 324.125 328.171875 323 329.296875 C 321.875 330.417969 321.242188 331.945312 321.242188 333.53125 C 321.242188 335.121094 321.875 336.648438 323 337.769531 C 324.125 338.894531 325.648438 339.527344 327.238281 339.527344 C 328.828125 339.527344 330.355469 338.894531 331.480469 337.769531 C 332.601562 336.648438 333.234375 335.121094 333.234375 333.53125 Z M 333.234375 333.53125 "/>
<path fill-rule="nonzero" fill="rgb(0%, 0%, 0%)" fill-opacity="1" d="M 633.011719 333.53125 C 633.011719 331.945312 632.382812 330.417969 631.257812 329.296875 C 630.132812 328.171875 628.609375 327.539062 627.019531 327.539062 C 625.425781 327.539062 623.902344 328.171875 622.777344 329.296875 C 621.652344 330.417969 621.023438 331.945312 621.023438 333.53125 C 621.023438 335.121094 621.652344 336.648438 622.777344 337.769531 C 623.902344 338.894531 625.425781 339.527344 627.019531 339.527344 C 628.609375 339.527344 630.132812 338.894531 631.257812 337.769531 C 632.382812 336.648438 633.011719 335.121094 633.011719 333.53125 Z M 633.011719 333.53125 "/>
<path fill-rule="nonzero" fill="rgb(0%, 0%, 0%)" fill-opacity="1" d="M 333.234375 33.847656 C 333.234375 32.257812 332.601562 30.734375 331.480469 29.609375 C 330.355469 28.488281 328.828125 27.855469 327.238281 27.855469 C 325.648438 27.855469 324.125 28.488281 323 29.609375 C 321.875 30.734375 321.242188 32.257812 321.242188 33.847656 C 321.242188 35.4375 321.875 36.964844 323 38.085938 C 324.125 39.210938 325.648438 39.84375 327.238281 39.84375 C 328.828125 39.84375 330.355469 39.210938 331.480469 38.085938 C 332.601562 36.964844 333.234375 35.4375 333.234375 33.847656 Z M 333.234375 33.847656 "/>
<path fill-rule="nonzero" fill="rgb(0%, 0%, 0%)" fill-opacity="1" d="M 28.554688 301.183594 C 28.589844 301.21875 28.613281 301.253906 28.613281 301.277344 C 28.613281 301.289062 28.613281 301.335938 28.613281 301.417969 C 28.613281 306.308594 28.613281 311.203125 28.613281 316.097656 C 28.613281 316.71875 28.789062 317.113281 29.117188 317.289062 C 29.457031 317.453125 30.078125 317.558594 30.992188 317.59375 C 30.992188 317.707031 30.992188 317.820312 30.992188 317.933594 C 28.695312 317.933594 26.402344 317.933594 24.105469 317.933594 C 24.105469 317.8125 24.105469 317.691406 24.105469 317.570312 C 25.089844 317.523438 25.734375 317.382812 26.039062 317.160156 C 26.332031 316.949219 26.484375 316.472656 26.484375 315.746094 C 26.484375 311.980469 26.484375 308.214844 26.484375 304.449219 C 26.484375 304.0625 26.4375 303.757812 26.34375 303.558594 C 26.238281 303.359375 26.027344 303.253906 25.699219 303.253906 C 25.488281 303.253906 25.21875 303.3125 24.878906 303.429688 C 24.539062 303.546875 24.222656 303.675781 23.929688 303.804688 C 23.929688 303.691406 23.929688 303.578125 23.929688 303.464844 C 25.425781 302.703125 26.917969 301.945312 28.414062 301.183594 C 28.460938 301.183594 28.507812 301.183594 28.554688 301.183594 Z M 28.554688 301.183594 "/>
<path fill-rule="nonzero" fill="rgb(0%, 0%, 0%)" fill-opacity="1" d="M 345.675781 317.6875 C 348.652344 314.597656 350.664062 312.328125 351.730469 310.886719 C 352.796875 309.433594 353.335938 308.03125 353.335938 306.648438 C 353.335938 305.445312 353.007812 304.53125 352.351562 303.898438 C 351.707031 303.277344 350.921875 302.960938 350.019531 302.960938 C 348.910156 302.960938 348.007812 303.359375 347.316406 304.179688 C 346.929688 304.625 346.566406 305.316406 346.214844 306.238281 C 346.042969 306.203125 345.871094 306.167969 345.699219 306.132812 C 346.097656 304.261719 346.789062 302.960938 347.761719 302.234375 C 348.734375 301.511719 349.773438 301.148438 350.886719 301.148438 C 352.269531 301.148438 353.382812 301.582031 354.226562 302.433594 C 355.078125 303.300781 355.5 304.367188 355.5 305.621094 C 355.5 306.953125 355.042969 308.230469 354.121094 309.46875 C 353.207031 310.710938 351.203125 312.902344 348.136719 316.074219 C 350 316.074219 351.867188 316.074219 353.734375 316.074219 C 354.519531 316.074219 355.066406 315.980469 355.382812 315.792969 C 355.699219 315.605469 356.050781 315.148438 356.449219 314.421875 C 356.554688 314.46875 356.660156 314.515625 356.765625 314.5625 C 356.316406 315.699219 355.867188 316.832031 355.417969 317.96875 C 352.171875 317.96875 348.925781 317.96875 345.675781 317.96875 C 345.675781 317.875 345.675781 317.78125 345.675781 317.6875 Z M 345.675781 317.6875 "/>
<path fill-rule="nonzero" fill="rgb(0%, 0%, 0%)" fill-opacity="1" d="M 623.011719 315.796875 C 623.457031 315.796875 624.042969 316.03125 624.78125 316.488281 C 625.519531 316.957031 626.140625 317.191406 626.65625 317.191406 C 627.789062 317.191406 628.644531 316.804688 629.195312 316.03125 C 629.746094 315.257812 630.027344 314.429688 630.027344 313.527344 C 630.027344 312.660156 629.792969 311.886719 629.347656 311.234375 C 628.597656 310.121094 627.320312 309.558594 625.519531 309.558594 C 625.414062 309.558594 625.308594 309.570312 625.214844 309.570312 C 625.121094 309.570312 625.003906 309.582031 624.875 309.605469 C 624.867188 309.5 624.859375 309.394531 624.851562 309.289062 C 626.152344 308.808594 627.183594 308.269531 627.917969 307.660156 C 628.667969 307.054688 629.042969 306.246094 629.042969 305.25 C 629.042969 304.359375 628.75 303.683594 628.164062 303.226562 C 627.566406 302.757812 626.902344 302.523438 626.140625 302.523438 C 625.25 302.523438 624.464844 302.863281 623.773438 303.519531 C 623.398438 303.867188 623 304.429688 622.566406 305.179688 C 622.441406 305.148438 622.316406 305.117188 622.191406 305.085938 C 622.519531 303.859375 623.117188 302.863281 624.007812 302.125 C 624.898438 301.386719 625.917969 301.011719 627.089844 301.011719 C 628.328125 301.011719 629.289062 301.351562 629.96875 302.042969 C 630.648438 302.722656 630.988281 303.507812 630.988281 304.40625 C 630.988281 305.191406 630.707031 305.917969 630.144531 306.574219 C 629.828125 306.949219 629.335938 307.371094 628.667969 307.835938 C 629.453125 308.164062 630.074219 308.550781 630.542969 309.007812 C 631.433594 309.863281 631.878906 310.941406 631.878906 312.25 C 631.878906 313.796875 631.269531 315.152344 630.050781 316.335938 C 628.832031 317.507812 627.113281 318.105469 624.863281 318.105469 C 623.867188 318.105469 623.164062 317.953125 622.753906 317.660156 C 622.355469 317.355469 622.15625 317.039062 622.15625 316.699219 C 622.15625 316.488281 622.214844 316.277344 622.355469 316.089844 C 622.484375 315.890625 622.707031 315.796875 623.011719 315.796875 Z M 623.011719 315.796875 "/>
<path fill-rule="nonzero" fill="rgb(0%, 0%, 0%)" fill-opacity="1" d="M 328.484375 4.003906 C 326.488281 6.824219 324.488281 9.644531 322.492188 12.46875 C 324.488281 12.46875 326.488281 12.46875 328.484375 12.46875 C 328.484375 9.644531 328.484375 6.824219 328.484375 4.003906 Z M 329.292969 1.5 C 329.679688 1.5 330.066406 1.5 330.453125 1.5 C 330.453125 5.15625 330.453125 8.8125 330.453125 12.46875 C 331.300781 12.46875 332.148438 12.46875 332.996094 12.46875 C 332.996094 13.007812 332.996094 13.550781 332.996094 14.09375 C 332.148438 14.09375 331.300781 14.09375 330.453125 14.09375 C 330.453125 15.480469 330.453125 16.863281 330.453125 18.25 C 329.804688 18.25 329.15625 18.25 328.507812 18.25 C 328.507812 16.863281 328.507812 15.480469 328.507812 14.09375 C 326.167969 14.09375 323.824219 14.09375 321.484375 14.09375 C 321.484375 13.550781 321.484375 13.007812 321.484375 12.46875 C 324.085938 8.8125 326.691406 5.15625 329.292969 1.5 Z M 329.292969 1.5 "/>
<path fill-rule="nonzero" fill="rgb(0%, 0%, 0%)" fill-opacity="1" d="M 163.878906 315.503906 C 163.878906 312.671875 164.71875 310.191406 166.417969 308.046875 C 167.460938 306.738281 168.679688 305.683594 170.09375 304.886719 C 170.171875 305.023438 170.25 305.160156 170.328125 305.296875 C 169.019531 306.339844 168.082031 307.347656 167.519531 308.328125 C 166.535156 310.050781 166.042969 312.332031 166.042969 315.1875 C 166.042969 317.296875 166.230469 319.039062 166.605469 320.410156 C 167.261719 322.820312 168.503906 324.625 170.328125 325.820312 C 170.222656 325.953125 170.117188 326.085938 170.011719 326.214844 C 169.007812 325.738281 167.929688 324.800781 166.769531 323.40625 C 164.835938 321.089844 163.878906 318.457031 163.878906 315.503906 Z M 163.878906 315.503906 "/>
<path fill-rule="nonzero" fill="rgb(0%, 0%, 0%)" fill-opacity="1" d="M 179.113281 305.015625 C 179.148438 305.050781 179.171875 305.085938 179.171875 305.109375 C 179.171875 305.121094 179.171875 305.167969 179.171875 305.25 C 179.171875 310.144531 179.171875 315.035156 179.171875 319.929688 C 179.171875 320.550781 179.347656 320.949219 179.675781 321.125 C 180.015625 321.289062 180.632812 321.394531 181.546875 321.429688 C 181.546875 321.542969 181.546875 321.65625 181.546875 321.769531 C 179.253906 321.769531 176.957031 321.769531 174.664062 321.769531 C 174.664062 321.648438 174.664062 321.527344 174.664062 321.40625 C 175.644531 321.359375 176.289062 321.21875 176.59375 320.996094 C 176.886719 320.785156 177.039062 320.304688 177.039062 319.578125 C 177.039062 315.8125 177.039062 312.046875 177.039062 308.28125 C 177.039062 307.894531 176.992188 307.589844 176.898438 307.394531 C 176.792969 307.195312 176.582031 307.089844 176.253906 307.089844 C 176.042969 307.089844 175.773438 307.148438 175.433594 307.265625 C 175.09375 307.382812 174.78125 307.511719 174.488281 307.636719 C 174.488281 307.527344 174.488281 307.414062 174.488281 307.300781 C 175.980469 306.539062 177.476562 305.777344 178.972656 305.015625 C 179.019531 305.015625 179.066406 305.015625 179.113281 305.015625 Z M 179.113281 305.015625 "/>
<path fill-rule="nonzero" fill="rgb(0%, 0%, 0%)" fill-opacity="1" d="M 190.820312 315.621094 C 190.820312 316.828125 190.671875 317.976562 190.355469 319.0625 C 190.039062 320.140625 189.570312 321.160156 188.960938 322.121094 C 188.316406 323.148438 187.460938 324.097656 186.382812 324.988281 C 185.679688 325.574219 185.085938 325.984375 184.605469 326.214844 C 184.527344 326.085938 184.449219 325.953125 184.371094 325.820312 C 185.621094 324.871094 186.535156 323.898438 187.121094 322.902344 C 188.140625 321.148438 188.65625 318.828125 188.65625 315.9375 C 188.65625 313.609375 188.421875 311.699219 187.941406 310.226562 C 187.285156 308.128906 186.089844 306.492188 184.371094 305.296875 C 184.476562 305.160156 184.582031 305.023438 184.6875 304.886719 C 185.972656 305.601562 187.167969 306.691406 188.28125 308.128906 C 189.980469 310.367188 190.820312 312.859375 190.820312 315.621094 Z M 190.820312 315.621094 "/>
<path fill-rule="nonzero" fill="rgb(0%, 0%, 0%)" fill-opacity="1" d="M 463.65625 315.503906 C 463.65625 312.671875 464.5 310.191406 466.195312 308.046875 C 467.238281 306.738281 468.457031 305.683594 469.875 304.886719 C 469.953125 305.023438 470.03125 305.160156 470.109375 305.296875 C 468.796875 306.339844 467.859375 307.347656 467.296875 308.328125 C 466.3125 310.050781 465.824219 312.332031 465.824219 315.1875 C 465.824219 317.296875 466.007812 319.039062 466.382812 320.410156 C 467.039062 322.820312 468.28125 324.625 470.109375 325.820312 C 470.003906 325.953125 469.898438 326.085938 469.792969 326.214844 C 468.785156 325.738281 467.707031 324.800781 466.546875 323.40625 C 464.617188 321.089844 463.65625 318.457031 463.65625 315.503906 Z M 463.65625 315.503906 "/>
<path fill-rule="nonzero" fill="rgb(0%, 0%, 0%)" fill-opacity="1" d="M 472.25 321.488281 C 475.226562 318.398438 477.238281 316.125 478.304688 314.6875 C 479.371094 313.234375 479.910156 311.828125 479.910156 310.449219 C 479.910156 309.242188 479.582031 308.328125 478.925781 307.695312 C 478.28125 307.078125 477.496094 306.761719 476.59375 306.761719 C 475.484375 306.761719 474.582031 307.160156 473.890625 307.976562 C 473.503906 308.421875 473.140625 309.113281 472.789062 310.039062 C 472.617188 310.003906 472.445312 309.96875 472.273438 309.933594 C 472.671875 308.058594 473.363281 306.761719 474.335938 306.035156 C 475.308594 305.308594 476.351562 304.945312 477.460938 304.945312 C 478.84375 304.945312 479.957031 305.378906 480.800781 306.234375 C 481.65625 307.101562 482.074219 308.164062 482.074219 309.417969 C 482.074219 310.753906 481.621094 312.027344 480.695312 313.269531 C 479.78125 314.511719 477.777344 316.699219 474.710938 319.871094 C 476.574219 319.871094 478.441406 319.871094 480.308594 319.871094 C 481.09375 319.871094 481.644531 319.777344 481.957031 319.589844 C 482.273438 319.402344 482.625 318.945312 483.023438 318.222656 C 483.128906 318.269531 483.234375 318.316406 483.339844 318.363281 C 482.890625 319.496094 482.441406 320.632812 481.992188 321.769531 C 478.746094 321.769531 475.5 321.769531 472.25 321.769531 C 472.25 321.675781 472.25 321.582031 472.25 321.488281 Z M 472.25 321.488281 "/>
<path fill-rule="nonzero" fill="rgb(0%, 0%, 0%)" fill-opacity="1" d="M 490.601562 315.621094 C 490.601562 316.828125 490.449219 317.976562 490.132812 319.0625 C 489.816406 320.140625 489.347656 321.160156 488.738281 322.121094 C 488.09375 323.148438 487.238281 324.097656 486.164062 324.988281 C 485.460938 325.574219 484.863281 325.984375 484.382812 326.214844 C 484.304688 326.085938 484.226562 325.953125 484.148438 325.820312 C 485.402344 324.871094 486.316406 323.898438 486.902344 322.902344 C 487.917969 321.148438 488.433594 318.828125 488.433594 315.9375 C 488.433594 313.609375 488.199219 311.699219 487.71875 310.226562 C 487.0625 308.128906 485.871094 306.492188 484.148438 305.296875 C 484.253906 305.160156 484.359375 305.023438 484.464844 304.886719 C 485.753906 305.601562 486.949219 306.691406 488.058594 308.128906 C 489.757812 310.367188 490.601562 312.859375 490.601562 315.621094 Z M 490.601562 315.621094 "/>
<path fill-rule="nonzero" fill="rgb(0%, 0%, 0%)" fill-opacity="1" d="M 481.644531 165.675781 C 481.644531 162.84375 482.484375 160.359375 484.183594 158.21875 C 485.226562 156.90625 486.445312 155.851562 487.859375 155.058594 C 487.9375 155.195312 488.015625 155.332031 488.09375 155.46875 C 486.785156 156.507812 485.847656 157.515625 485.285156 158.5 C 484.300781 160.21875 483.808594 162.503906 483.808594 165.359375 C 483.808594 167.464844 483.996094 169.210938 484.371094 170.578125 C 485.027344 172.992188 486.269531 174.792969 488.09375 175.988281 C 487.988281 176.121094 487.882812 176.253906 487.777344 176.386719 C 486.773438 175.90625 485.695312 174.96875 484.535156 173.578125 C 482.601562 171.257812 481.644531 168.625 481.644531 165.675781 Z M 481.644531 165.675781 "/>
<path fill-rule="nonzero" fill="rgb(0%, 0%, 0%)" fill-opacity="1" d="M 491.433594 169.820312 C 491.878906 169.820312 492.460938 170.054688 493.199219 170.507812 C 493.9375 170.976562 494.558594 171.210938 495.074219 171.210938 C 496.210938 171.210938 497.066406 170.824219 497.613281 170.054688 C 498.164062 169.28125 498.445312 168.449219 498.445312 167.546875 C 498.445312 166.683594 498.210938 165.910156 497.765625 165.253906 C 497.019531 164.140625 495.742188 163.578125 493.9375 163.578125 C 493.832031 163.578125 493.726562 163.589844 493.632812 163.589844 C 493.539062 163.589844 493.421875 163.601562 493.292969 163.625 C 493.285156 163.519531 493.277344 163.414062 493.269531 163.308594 C 494.570312 162.832031 495.601562 162.292969 496.339844 161.683594 C 497.089844 161.074219 497.464844 160.265625 497.464844 159.273438 C 497.464844 158.382812 497.171875 157.703125 496.585938 157.246094 C 495.988281 156.777344 495.320312 156.542969 494.558594 156.542969 C 493.667969 156.542969 492.882812 156.882812 492.195312 157.539062 C 491.820312 157.890625 491.421875 158.453125 490.988281 159.203125 C 490.863281 159.171875 490.738281 159.140625 490.613281 159.109375 C 490.941406 157.878906 491.539062 156.882812 492.425781 156.144531 C 493.316406 155.410156 494.335938 155.035156 495.507812 155.035156 C 496.75 155.035156 497.707031 155.375 498.386719 156.0625 C 499.066406 156.742188 499.40625 157.527344 499.40625 158.429688 C 499.40625 159.214844 499.125 159.9375 498.5625 160.59375 C 498.246094 160.96875 497.753906 161.390625 497.089844 161.859375 C 497.871094 162.1875 498.492188 162.574219 498.960938 163.03125 C 499.851562 163.882812 500.296875 164.960938 500.296875 166.273438 C 500.296875 167.816406 499.6875 169.175781 498.46875 170.359375 C 497.253906 171.527344 495.53125 172.125 493.28125 172.125 C 492.289062 172.125 491.585938 171.972656 491.175781 171.679688 C 490.777344 171.375 490.578125 171.058594 490.578125 170.71875 C 490.578125 170.507812 490.636719 170.300781 490.777344 170.113281 C 490.90625 169.914062 491.128906 169.820312 491.433594 169.820312 Z M 491.433594 169.820312 "/>
<path fill-rule="nonzero" fill="rgb(0%, 0%, 0%)" fill-opacity="1" d="M 508.585938 165.792969 C 508.585938 166.996094 508.433594 168.144531 508.121094 169.234375 C 507.804688 170.3125 507.335938 171.328125 506.726562 172.289062 C 506.082031 173.320312 505.226562 174.265625 504.148438 175.15625 C 503.445312 175.742188 502.851562 176.152344 502.371094 176.386719 C 502.292969 176.253906 502.214844 176.121094 502.136719 175.988281 C 503.386719 175.039062 504.300781 174.070312 504.886719 173.074219 C 505.90625 171.316406 506.421875 169 506.421875 166.109375 C 506.421875 163.777344 506.1875 161.871094 505.707031 160.394531 C 505.050781 158.300781 503.855469 156.660156 502.136719 155.46875 C 502.242188 155.332031 502.347656 155.195312 502.453125 155.058594 C 503.738281 155.769531 504.933594 156.859375 506.046875 158.300781 C 507.746094 160.535156 508.585938 163.03125 508.585938 165.792969 Z M 508.585938 165.792969 "/>
<path fill-rule="nonzero" fill="rgb(0%, 0%, 0%)" fill-opacity="1" d="M 145.890625 165.664062 C 145.890625 162.832031 146.734375 160.347656 148.433594 158.207031 C 149.472656 156.894531 150.691406 155.839844 152.109375 155.046875 C 152.1875 155.183594 152.265625 155.320312 152.34375 155.457031 C 151.03125 156.496094 150.09375 157.503906 149.53125 158.488281 C 148.546875 160.207031 148.058594 162.492188 148.058594 165.347656 C 148.058594 167.453125 148.246094 169.199219 148.617188 170.566406 C 149.273438 172.980469 150.515625 174.78125 152.34375 175.976562 C 152.238281 176.109375 152.132812 176.242188 152.027344 176.375 C 151.019531 175.894531 149.941406 174.957031 148.78125 173.566406 C 146.851562 171.246094 145.890625 168.613281 145.890625 165.664062 Z M 145.890625 165.664062 "/>
<path fill-rule="nonzero" fill="rgb(0%, 0%, 0%)" fill-opacity="1" d="M 161.019531 157.679688 C 159.023438 160.5 157.023438 163.320312 155.023438 166.144531 C 157.023438 166.144531 159.023438 166.144531 161.019531 166.144531 C 161.019531 163.320312 161.019531 160.5 161.019531 157.679688 Z M 161.828125 155.175781 C 162.214844 155.175781 162.601562 155.175781 162.988281 155.175781 C 162.988281 158.832031 162.988281 162.488281 162.988281 166.144531 C 163.835938 166.144531 164.679688 166.144531 165.527344 166.144531 C 165.527344 166.6875 165.527344 167.226562 165.527344 167.769531 C 164.679688 167.769531 163.835938 167.769531 162.988281 167.769531 C 162.988281 169.15625 162.988281 170.539062 162.988281 171.925781 C 162.339844 171.925781 161.691406 171.925781 161.042969 171.925781 C 161.042969 170.539062 161.042969 169.15625 161.042969 167.769531 C 158.703125 167.769531 156.359375 167.769531 154.015625 167.769531 C 154.015625 167.226562 154.015625 166.6875 154.015625 166.144531 C 156.621094 162.488281 159.222656 158.832031 161.828125 155.175781 Z M 161.828125 155.175781 "/>
<path fill-rule="nonzero" fill="rgb(0%, 0%, 0%)" fill-opacity="1" d="M 172.835938 165.78125 C 172.835938 166.984375 172.683594 168.132812 172.367188 169.222656 C 172.050781 170.300781 171.582031 171.316406 170.972656 172.277344 C 170.328125 173.308594 169.476562 174.253906 168.398438 175.144531 C 167.695312 175.730469 167.097656 176.140625 166.617188 176.375 C 166.539062 176.242188 166.460938 176.109375 166.382812 175.976562 C 167.636719 175.027344 168.550781 174.058594 169.136719 173.0625 C 170.152344 171.304688 170.667969 168.988281 170.667969 166.097656 C 170.667969 163.765625 170.433594 161.859375 169.953125 160.382812 C 169.300781 158.289062 168.105469 156.648438 166.382812 155.457031 C 166.488281 155.320312 166.59375 155.183594 166.699219 155.046875 C 167.988281 155.757812 169.183594 156.847656 170.292969 158.289062 C 171.992188 160.523438 172.835938 163.019531 172.835938 165.78125 Z M 172.835938 165.78125 "/>
<path fill-rule="nonzero" fill="rgb(0%, 0%, 0%)" fill-opacity="1" d="M 337.75 183.785156 C 337.75 180.953125 338.59375 178.46875 340.289062 176.328125 C 341.332031 175.015625 342.550781 173.964844 343.96875 173.167969 C 344.046875 173.304688 344.125 173.441406 344.203125 173.578125 C 342.890625 174.617188 341.953125 175.625 341.390625 176.609375 C 340.40625 178.328125 339.914062 180.613281 339.914062 183.46875 C 339.914062 185.574219 340.101562 187.320312 340.476562 188.691406 C 341.132812 191.101562 342.375 192.902344 344.203125 194.097656 C 344.097656 194.230469 343.992188 194.363281 343.886719 194.496094 C 342.878906 194.015625 341.800781 193.078125 340.640625 191.6875 C 338.710938 189.367188 337.75 186.734375 337.75 183.785156 Z M 337.75 183.785156 "/>
<path fill-rule="nonzero" fill="rgb(0%, 0%, 0%)" fill-opacity="1" d="M 347.457031 187.8125 C 347.925781 187.8125 348.535156 188.082031 349.285156 188.609375 C 350.03125 189.132812 350.617188 189.390625 351.027344 189.390625 C 351.964844 189.390625 352.773438 188.984375 353.476562 188.152344 C 354.179688 187.332031 354.519531 186.3125 354.519531 185.109375 C 354.519531 183 353.40625 181.492188 351.15625 180.566406 C 349.914062 180.050781 348.757812 179.792969 347.679688 179.792969 C 347.503906 179.792969 347.386719 179.78125 347.339844 179.769531 C 347.292969 179.757812 347.246094 179.722656 347.175781 179.640625 C 347.199219 179.582031 347.210938 179.523438 347.222656 179.476562 C 347.234375 179.429688 347.246094 179.394531 347.269531 179.347656 C 348.15625 177.410156 349.042969 175.46875 349.925781 173.53125 C 351.671875 173.53125 353.417969 173.53125 355.160156 173.53125 C 355.417969 173.53125 355.617188 173.484375 355.757812 173.390625 C 355.898438 173.296875 356.085938 173.132812 356.320312 172.886719 C 356.382812 172.945312 356.445312 173.003906 356.507812 173.0625 C 356.191406 173.816406 355.875 174.566406 355.558594 175.320312 C 355.523438 175.390625 355.441406 175.4375 355.289062 175.460938 C 355.148438 175.484375 354.984375 175.484375 354.808594 175.484375 C 353.238281 175.484375 351.664062 175.484375 350.089844 175.484375 C 349.746094 176.199219 349.40625 176.914062 349.0625 177.628906 C 350.394531 177.851562 351.367188 178.058594 351.988281 178.269531 C 353.007812 178.609375 353.851562 179.113281 354.542969 179.78125 C 355.125 180.355469 355.558594 181.011719 355.863281 181.722656 C 356.167969 182.449219 356.320312 183.210938 356.320312 184.007812 C 356.320312 185.808594 355.675781 187.308594 354.402344 188.515625 C 353.113281 189.71875 351.496094 190.316406 349.527344 190.316406 C 348.734375 190.316406 348.101562 190.234375 347.609375 190.082031 C 346.789062 189.835938 346.390625 189.378906 346.390625 188.738281 C 346.390625 188.492188 346.472656 188.269531 346.648438 188.09375 C 346.824219 187.90625 347.09375 187.8125 347.457031 187.8125 Z M 347.457031 187.8125 "/>
<path fill-rule="nonzero" fill="rgb(0%, 0%, 0%)" fill-opacity="1" d="M 364.695312 183.902344 C 364.695312 185.109375 364.542969 186.253906 364.226562 187.34375 C 363.910156 188.421875 363.441406 189.4375 362.832031 190.398438 C 362.1875 191.429688 361.332031 192.378906 360.253906 193.265625 C 359.554688 193.851562 358.957031 194.261719 358.476562 194.496094 C 358.398438 194.363281 358.320312 194.230469 358.242188 194.097656 C 359.496094 193.148438 360.40625 192.179688 360.992188 191.183594 C 362.011719 189.425781 362.527344 187.109375 362.527344 184.21875 C 362.527344 181.886719 362.292969 179.980469 361.8125 178.503906 C 361.15625 176.410156 359.964844 174.769531 358.242188 173.578125 C 358.347656 173.441406 358.453125 173.304688 358.558594 173.167969 C 359.847656 173.882812 361.039062 174.96875 362.152344 176.410156 C 363.851562 178.644531 364.695312 181.140625 364.695312 183.902344 Z M 364.695312 183.902344 "/>
<path fill-rule="nonzero" fill="rgb(16.078431%, 67.058824%, 79.215686%)" fill-opacity="1" d="M 137.230469 356.253906 C 137.230469 353.75 135.511719 351.726562 132.289062 351.726562 C 131.65625 351.726562 130.503906 351.789062 129.480469 352.488281 C 129.480469 351.527344 129.480469 350.570312 129.480469 349.613281 C 130.089844 349.722656 130.328125 349.765625 131.070312 349.765625 C 134.25 349.765625 136.253906 347.304688 136.253906 346.761719 C 136.253906 346.609375 136.207031 346.371094 135.949219 346.371094 C 135.882812 346.371094 135.859375 346.371094 135.621094 346.457031 C 134.378906 346.9375 133.226562 347.066406 132.289062 347.066406 C 130.632812 347.066406 129.480469 346.652344 128.914062 346.457031 C 128.71875 346.390625 128.695312 346.371094 128.628906 346.371094 C 128.324219 346.371094 128.324219 346.609375 128.324219 346.957031 C 128.324219 349.078125 128.324219 351.195312 128.324219 353.3125 C 128.324219 353.707031 128.324219 353.988281 128.804688 353.988281 C 129.085938 353.988281 129.132812 353.902344 129.285156 353.726562 C 130.132812 352.726562 131.308594 352.507812 132.203125 352.507812 C 134.140625 352.507812 134.140625 354.425781 134.140625 356.167969 C 134.140625 357.753906 134.140625 359.933594 131.527344 359.933594 C 131.003906 359.933594 129.632812 359.824219 128.71875 358.582031 C 129.5 358.539062 130.132812 358.015625 130.132812 357.125 C 130.132812 355.96875 129.195312 355.644531 128.671875 355.644531 C 128.347656 355.644531 127.214844 355.839844 127.214844 357.167969 C 127.214844 359.019531 128.914062 360.867188 131.613281 360.867188 C 135.097656 360.867188 137.230469 358.910156 137.230469 356.253906 Z M 137.230469 356.253906 "/>
<path fill-rule="nonzero" fill="rgb(16.078431%, 67.058824%, 79.215686%)" fill-opacity="1" d="M 150.015625 353.683594 C 150.015625 351.574219 149.992188 346.371094 144.746094 346.371094 C 139.496094 346.371094 139.476562 351.550781 139.476562 353.683594 C 139.476562 355.839844 139.496094 360.867188 144.746094 360.867188 C 149.972656 360.867188 150.015625 355.863281 150.015625 353.683594 Z M 144.746094 360.085938 C 143.960938 360.085938 142.742188 359.605469 142.457031 358.015625 C 142.261719 356.882812 142.261719 354.621094 142.261719 353.421875 C 142.261719 351.855469 142.261719 350.441406 142.4375 349.308594 C 142.699219 347.371094 144.222656 347.152344 144.746094 347.152344 C 145.550781 347.152344 146.445312 347.566406 146.859375 348.523438 C 147.226562 349.332031 147.226562 351.636719 147.226562 353.421875 C 147.226562 354.640625 147.226562 356.625 147.074219 357.753906 C 146.769531 359.78125 145.398438 360.085938 144.746094 360.085938 Z M 144.746094 360.085938 "/>
<path fill-rule="nonzero" fill="rgb(16.078431%, 67.058824%, 79.215686%)" fill-opacity="1" d="M 162.539062 353.683594 C 162.539062 351.574219 162.515625 346.371094 157.265625 346.371094 C 152.019531 346.371094 151.996094 351.550781 151.996094 353.683594 C 151.996094 355.839844 152.019531 360.867188 157.265625 360.867188 C 162.492188 360.867188 162.539062 355.863281 162.539062 353.683594 Z M 157.265625 360.085938 C 156.484375 360.085938 155.261719 359.605469 154.980469 358.015625 C 154.785156 356.882812 154.785156 354.621094 154.785156 353.421875 C 154.785156 351.855469 154.785156 350.441406 154.957031 349.308594 C 155.21875 347.371094 156.746094 347.152344 157.265625 347.152344 C 158.074219 347.152344 158.964844 347.566406 159.378906 348.523438 C 159.75 349.332031 159.75 351.636719 159.75 353.421875 C 159.75 354.640625 159.75 356.625 159.597656 357.753906 C 159.292969 359.78125 157.921875 360.085938 157.265625 360.085938 Z M 157.265625 360.085938 "/>
<path fill-rule="nonzero" fill="rgb(16.078431%, 67.058824%, 79.215686%)" fill-opacity="1" d="M 168.699219 358.929688 C 168.699219 357.996094 167.9375 357.234375 167 357.234375 C 166.066406 357.234375 165.304688 357.996094 165.304688 358.929688 C 165.304688 359.867188 166.066406 360.628906 167 360.628906 C 167.9375 360.628906 168.699219 359.867188 168.699219 358.929688 Z M 168.699219 358.929688 "/>
<path fill-rule="nonzero" fill="rgb(16.078431%, 67.058824%, 79.215686%)" fill-opacity="1" d="M 182.015625 353.683594 C 182.015625 351.574219 181.992188 346.371094 176.746094 346.371094 C 171.496094 346.371094 171.476562 351.550781 171.476562 353.683594 C 171.476562 355.839844 171.496094 360.867188 176.746094 360.867188 C 181.972656 360.867188 182.015625 355.863281 182.015625 353.683594 Z M 176.746094 360.085938 C 175.960938 360.085938 174.742188 359.605469 174.457031 358.015625 C 174.261719 356.882812 174.261719 354.621094 174.261719 353.421875 C 174.261719 351.855469 174.261719 350.441406 174.4375 349.308594 C 174.699219 347.371094 176.222656 347.152344 176.746094 347.152344 C 177.550781 347.152344 178.445312 347.566406 178.859375 348.523438 C 179.226562 349.332031 179.226562 351.636719 179.226562 353.421875 C 179.226562 354.640625 179.226562 356.625 179.074219 357.753906 C 178.769531 359.78125 177.398438 360.085938 176.746094 360.085938 Z M 176.746094 360.085938 "/>
<path fill-rule="nonzero" fill="rgb(16.078431%, 67.058824%, 79.215686%)" fill-opacity="1" d="M 194.539062 353.683594 C 194.539062 351.574219 194.515625 346.371094 189.265625 346.371094 C 184.019531 346.371094 183.996094 351.550781 183.996094 353.683594 C 183.996094 355.839844 184.019531 360.867188 189.265625 360.867188 C 194.492188 360.867188 194.539062 355.863281 194.539062 353.683594 Z M 189.265625 360.085938 C 188.484375 360.085938 187.265625 359.605469 186.980469 358.015625 C 186.785156 356.882812 186.785156 354.621094 186.785156 353.421875 C 186.785156 351.855469 186.785156 350.441406 186.957031 349.308594 C 187.21875 347.371094 188.746094 347.152344 189.265625 347.152344 C 190.074219 347.152344 190.964844 347.566406 191.378906 348.523438 C 191.75 349.332031 191.75 351.636719 191.75 353.421875 C 191.75 354.640625 191.75 356.625 191.597656 357.753906 C 191.292969 359.78125 189.921875 360.085938 189.265625 360.085938 Z M 189.265625 360.085938 "/>
<path fill-rule="nonzero" fill="rgb(16.078431%, 67.058824%, 79.215686%)" fill-opacity="1" d="M 200.199219 355.46875 C 200.199219 352.152344 200.199219 348.835938 200.199219 345.519531 C 198.914062 345.578125 197.628906 345.636719 196.34375 345.695312 C 196.34375 346.035156 196.34375 346.375 196.34375 346.71875 C 197.695312 346.71875 197.847656 346.71875 197.847656 347.566406 C 197.847656 351.578125 197.847656 355.59375 197.847656 359.605469 C 197.347656 359.605469 196.84375 359.605469 196.34375 359.605469 C 196.34375 359.945312 196.34375 360.289062 196.34375 360.628906 C 197.152344 360.605469 198.175781 360.5625 198.957031 360.5625 C 199.765625 360.5625 200.808594 360.605469 201.59375 360.628906 C 201.59375 360.289062 201.59375 359.945312 201.59375 359.605469 C 201.09375 359.605469 200.589844 359.605469 200.089844 359.605469 C 200.089844 358.683594 200.089844 357.761719 200.089844 356.839844 C 200.722656 356.339844 200.894531 356.210938 201.332031 355.90625 C 202.066406 356.820312 202.796875 357.734375 203.53125 358.648438 C 203.726562 358.910156 204.074219 359.34375 204.074219 359.410156 C 204.074219 359.605469 203.683594 359.605469 203.402344 359.605469 C 203.402344 359.945312 203.402344 360.289062 203.402344 360.628906 C 204.054688 360.585938 205.949219 360.5625 206.058594 360.5625 C 206.839844 360.5625 207.582031 360.585938 208.320312 360.628906 C 208.320312 360.289062 208.320312 359.945312 208.320312 359.605469 C 208.199219 359.605469 208.074219 359.605469 207.953125 359.605469 C 207.015625 359.605469 206.949219 359.519531 206.667969 359.171875 C 205.441406 357.640625 204.214844 356.109375 202.988281 354.578125 C 203.929688 353.84375 204.875 353.109375 205.816406 352.378906 C 206.121094 352.140625 206.320312 351.984375 207.777344 351.984375 C 207.777344 351.644531 207.777344 351.304688 207.777344 350.964844 C 207.191406 351.027344 206.644531 351.027344 206.078125 351.027344 C 205.492188 351.027344 204.074219 350.984375 203.574219 350.964844 C 203.574219 351.304688 203.574219 351.644531 203.574219 351.984375 C 204.074219 351.984375 204.140625 352.050781 204.316406 352.226562 C 202.941406 353.308594 201.570312 354.386719 200.199219 355.46875 Z M 200.199219 355.46875 "/>
<path fill-rule="nonzero" fill="rgb(16.078431%, 67.058824%, 79.215686%)" fill-opacity="1" d="M 215.3125 345.976562 C 215.070312 345.714844 215.050781 345.695312 214.59375 345.695312 C 212.929688 345.695312 211.269531 345.695312 209.605469 345.695312 C 209.605469 346.035156 209.605469 346.375 209.605469 346.71875 C 210.390625 346.71875 211.171875 346.71875 211.957031 346.71875 C 211.957031 350.804688 211.957031 354.890625 211.957031 358.972656 C 211.957031 359.453125 211.9375 359.476562 211.328125 359.539062 C 210.804688 359.605469 210.761719 359.605469 210.148438 359.605469 C 209.96875 359.605469 209.789062 359.605469 209.605469 359.605469 C 209.605469 359.945312 209.605469 360.289062 209.605469 360.628906 C 210.433594 360.5625 211.675781 360.5625 212.523438 360.5625 C 213.4375 360.5625 214.570312 360.5625 215.464844 360.628906 C 215.464844 360.289062 215.464844 359.945312 215.464844 359.605469 C 215.28125 359.605469 215.101562 359.605469 214.917969 359.605469 C 214.527344 359.605469 214.15625 359.585938 213.765625 359.539062 C 213.132812 359.476562 213.113281 359.453125 213.113281 358.972656 C 213.113281 355.179688 213.113281 351.382812 213.113281 347.589844 C 216.726562 351.839844 220.34375 356.09375 223.957031 360.347656 C 224.175781 360.605469 224.195312 360.628906 224.546875 360.628906 C 225.132812 360.628906 225.132812 360.433594 225.132812 359.933594 C 225.132812 355.738281 225.132812 351.542969 225.132812 347.347656 C 225.132812 346.871094 225.15625 346.847656 225.765625 346.785156 C 226.289062 346.71875 226.332031 346.71875 226.941406 346.71875 C 227.121094 346.71875 227.304688 346.71875 227.484375 346.71875 C 227.484375 346.375 227.484375 346.035156 227.484375 345.695312 C 226.65625 345.761719 225.417969 345.761719 224.566406 345.761719 C 223.652344 345.761719 222.519531 345.761719 221.625 345.695312 C 221.625 346.035156 221.625 346.375 221.625 346.71875 C 221.808594 346.71875 221.988281 346.71875 222.171875 346.71875 C 222.5625 346.71875 222.933594 346.738281 223.324219 346.785156 C 223.957031 346.847656 223.980469 346.871094 223.980469 347.347656 C 223.980469 350.289062 223.980469 353.226562 223.980469 356.167969 C 221.089844 352.769531 218.199219 349.375 215.3125 345.976562 Z M 215.3125 345.976562 "/>
<path fill-rule="nonzero" fill="rgb(16.078431%, 67.058824%, 79.215686%)" fill-opacity="1" d="M 437.011719 356.253906 C 437.011719 353.75 435.289062 351.726562 432.066406 351.726562 C 431.4375 351.726562 430.28125 351.789062 429.257812 352.488281 C 429.257812 351.527344 429.257812 350.570312 429.257812 349.613281 C 429.867188 349.722656 430.109375 349.765625 430.847656 349.765625 C 434.027344 349.765625 436.03125 347.304688 436.03125 346.761719 C 436.03125 346.609375 435.988281 346.371094 435.726562 346.371094 C 435.660156 346.371094 435.640625 346.371094 435.398438 346.457031 C 434.15625 346.9375 433.003906 347.066406 432.066406 347.066406 C 430.414062 347.066406 429.257812 346.652344 428.691406 346.457031 C 428.496094 346.390625 428.472656 346.371094 428.410156 346.371094 C 428.105469 346.371094 428.105469 346.609375 428.105469 346.957031 C 428.105469 349.078125 428.105469 351.195312 428.105469 353.3125 C 428.105469 353.707031 428.105469 353.988281 428.582031 353.988281 C 428.867188 353.988281 428.910156 353.902344 429.0625 353.726562 C 429.910156 352.726562 431.085938 352.507812 431.980469 352.507812 C 433.917969 352.507812 433.917969 354.425781 433.917969 356.167969 C 433.917969 357.753906 433.917969 359.933594 431.304688 359.933594 C 430.78125 359.933594 429.410156 359.824219 428.496094 358.582031 C 429.28125 358.539062 429.910156 358.015625 429.910156 357.125 C 429.910156 355.96875 428.976562 355.644531 428.453125 355.644531 C 428.125 355.644531 426.992188 355.839844 426.992188 357.167969 C 426.992188 359.019531 428.691406 360.867188 431.390625 360.867188 C 434.875 360.867188 437.011719 358.910156 437.011719 356.253906 Z M 437.011719 356.253906 "/>
<path fill-rule="nonzero" fill="rgb(16.078431%, 67.058824%, 79.215686%)" fill-opacity="1" d="M 449.792969 353.683594 C 449.792969 351.574219 449.773438 346.371094 444.523438 346.371094 C 439.277344 346.371094 439.253906 351.550781 439.253906 353.683594 C 439.253906 355.839844 439.277344 360.867188 444.523438 360.867188 C 449.75 360.867188 449.792969 355.863281 449.792969 353.683594 Z M 444.523438 360.085938 C 443.738281 360.085938 442.519531 359.605469 442.238281 358.015625 C 442.042969 356.882812 442.042969 354.621094 442.042969 353.421875 C 442.042969 351.855469 442.042969 350.441406 442.214844 349.308594 C 442.476562 347.371094 444 347.152344 444.523438 347.152344 C 445.328125 347.152344 446.222656 347.566406 446.636719 348.523438 C 447.007812 349.332031 447.007812 351.636719 447.007812 353.421875 C 447.007812 354.640625 447.007812 356.625 446.855469 357.753906 C 446.550781 359.78125 445.175781 360.085938 444.523438 360.085938 Z M 444.523438 360.085938 "/>
<path fill-rule="nonzero" fill="rgb(16.078431%, 67.058824%, 79.215686%)" fill-opacity="1" d="M 462.316406 353.683594 C 462.316406 351.574219 462.292969 346.371094 457.046875 346.371094 C 451.796875 346.371094 451.777344 351.550781 451.777344 353.683594 C 451.777344 355.839844 451.796875 360.867188 457.046875 360.867188 C 462.273438 360.867188 462.316406 355.863281 462.316406 353.683594 Z M 457.046875 360.085938 C 456.261719 360.085938 455.042969 359.605469 454.757812 358.015625 C 454.5625 356.882812 454.5625 354.621094 454.5625 353.421875 C 454.5625 351.855469 454.5625 350.441406 454.738281 349.308594 C 455 347.371094 456.523438 347.152344 457.046875 347.152344 C 457.851562 347.152344 458.746094 347.566406 459.15625 348.523438 C 459.527344 349.332031 459.527344 351.636719 459.527344 353.421875 C 459.527344 354.640625 459.527344 356.625 459.375 357.753906 C 459.070312 359.78125 457.699219 360.085938 457.046875 360.085938 Z M 457.046875 360.085938 "/>
<path fill-rule="nonzero" fill="rgb(16.078431%, 67.058824%, 79.215686%)" fill-opacity="1" d="M 468.480469 358.929688 C 468.480469 357.996094 467.714844 357.234375 466.78125 357.234375 C 465.84375 357.234375 465.082031 357.996094 465.082031 358.929688 C 465.082031 359.867188 465.84375 360.628906 466.78125 360.628906 C 467.714844 360.628906 468.480469 359.867188 468.480469 358.929688 Z M 468.480469 358.929688 "/>
<path fill-rule="nonzero" fill="rgb(16.078431%, 67.058824%, 79.215686%)" fill-opacity="1" d="M 481.792969 353.683594 C 481.792969 351.574219 481.773438 346.371094 476.523438 346.371094 C 471.277344 346.371094 471.253906 351.550781 471.253906 353.683594 C 471.253906 355.839844 471.277344 360.867188 476.523438 360.867188 C 481.75 360.867188 481.792969 355.863281 481.792969 353.683594 Z M 476.523438 360.085938 C 475.738281 360.085938 474.519531 359.605469 474.238281 358.015625 C 474.042969 356.882812 474.042969 354.621094 474.042969 353.421875 C 474.042969 351.855469 474.042969 350.441406 474.214844 349.308594 C 474.476562 347.371094 476 347.152344 476.523438 347.152344 C 477.328125 347.152344 478.222656 347.566406 478.636719 348.523438 C 479.007812 349.332031 479.007812 351.636719 479.007812 353.421875 C 479.007812 354.640625 479.007812 356.625 478.855469 357.753906 C 478.550781 359.78125 477.175781 360.085938 476.523438 360.085938 Z M 476.523438 360.085938 "/>
<path fill-rule="nonzero" fill="rgb(16.078431%, 67.058824%, 79.215686%)" fill-opacity="1" d="M 494.316406 353.683594 C 494.316406 351.574219 494.292969 346.371094 489.046875 346.371094 C 483.796875 346.371094 483.777344 351.550781 483.777344 353.683594 C 483.777344 355.839844 483.796875 360.867188 489.046875 360.867188 C 494.273438 360.867188 494.316406 355.863281 494.316406 353.683594 Z M 489.046875 360.085938 C 488.261719 360.085938 487.042969 359.605469 486.757812 358.015625 C 486.5625 356.882812 486.5625 354.621094 486.5625 353.421875 C 486.5625 351.855469 486.5625 350.441406 486.738281 349.308594 C 487 347.371094 488.523438 347.152344 489.046875 347.152344 C 489.851562 347.152344 490.746094 347.566406 491.160156 348.523438 C 491.527344 349.332031 491.527344 351.636719 491.527344 353.421875 C 491.527344 354.640625 491.527344 356.625 491.375 357.753906 C 491.070312 359.78125 489.699219 360.085938 489.046875 360.085938 Z M 489.046875 360.085938 "/>
<path fill-rule="nonzero" fill="rgb(16.078431%, 67.058824%, 79.215686%)" fill-opacity="1" d="M 499.976562 355.46875 C 499.976562 352.152344 499.976562 348.835938 499.976562 345.519531 C 498.691406 345.578125 497.410156 345.636719 496.125 345.695312 C 496.125 346.035156 496.125 346.375 496.125 346.71875 C 497.472656 346.71875 497.625 346.71875 497.625 347.566406 C 497.625 351.578125 497.625 355.59375 497.625 359.605469 C 497.125 359.605469 496.625 359.605469 496.125 359.605469 C 496.125 359.945312 496.125 360.289062 496.125 360.628906 C 496.929688 360.605469 497.953125 360.5625 498.738281 360.5625 C 499.542969 360.5625 500.585938 360.605469 501.371094 360.628906 C 501.371094 360.289062 501.371094 359.945312 501.371094 359.605469 C 500.871094 359.605469 500.371094 359.605469 499.867188 359.605469 C 499.867188 358.683594 499.867188 357.761719 499.867188 356.839844 C 500.5 356.339844 500.675781 356.210938 501.109375 355.90625 C 501.84375 356.820312 502.578125 357.734375 503.308594 358.648438 C 503.507812 358.910156 503.855469 359.34375 503.855469 359.410156 C 503.855469 359.605469 503.460938 359.605469 503.179688 359.605469 C 503.179688 359.945312 503.179688 360.289062 503.179688 360.628906 C 503.832031 360.585938 505.726562 360.5625 505.835938 360.5625 C 506.621094 360.5625 507.359375 360.585938 508.101562 360.628906 C 508.101562 360.289062 508.101562 359.945312 508.101562 359.605469 C 507.976562 359.605469 507.855469 359.605469 507.730469 359.605469 C 506.792969 359.605469 506.730469 359.519531 506.445312 359.171875 C 505.21875 357.640625 503.992188 356.109375 502.765625 354.578125 C 503.710938 353.84375 504.652344 353.109375 505.597656 352.378906 C 505.902344 352.140625 506.097656 351.984375 507.554688 351.984375 C 507.554688 351.644531 507.554688 351.304688 507.554688 350.964844 C 506.96875 351.027344 506.425781 351.027344 505.859375 351.027344 C 505.269531 351.027344 503.855469 350.984375 503.351562 350.964844 C 503.351562 351.304688 503.351562 351.644531 503.351562 351.984375 C 503.855469 351.984375 503.917969 352.050781 504.09375 352.226562 C 502.722656 353.308594 501.351562 354.386719 499.976562 355.46875 Z M 499.976562 355.46875 "/>
<path fill-rule="nonzero" fill="rgb(16.078431%, 67.058824%, 79.215686%)" fill-opacity="1" d="M 515.089844 345.976562 C 514.851562 345.714844 514.828125 345.695312 514.371094 345.695312 C 512.710938 345.695312 511.046875 345.695312 509.382812 345.695312 C 509.382812 346.035156 509.382812 346.375 509.382812 346.71875 C 510.167969 346.71875 510.953125 346.71875 511.738281 346.71875 C 511.738281 350.804688 511.738281 354.890625 511.738281 358.972656 C 511.738281 359.453125 511.714844 359.476562 511.105469 359.539062 C 510.582031 359.605469 510.539062 359.605469 509.929688 359.605469 C 509.746094 359.605469 509.566406 359.605469 509.382812 359.605469 C 509.382812 359.945312 509.382812 360.289062 509.382812 360.628906 C 510.210938 360.5625 511.453125 360.5625 512.300781 360.5625 C 513.21875 360.5625 514.351562 360.5625 515.242188 360.628906 C 515.242188 360.289062 515.242188 359.945312 515.242188 359.605469 C 515.0625 359.605469 514.878906 359.605469 514.699219 359.605469 C 514.304688 359.605469 513.9375 359.585938 513.542969 359.539062 C 512.914062 359.476562 512.890625 359.453125 512.890625 358.972656 C 512.890625 355.179688 512.890625 351.382812 512.890625 347.589844 C 516.503906 351.839844 520.121094 356.09375 523.734375 360.347656 C 523.953125 360.605469 523.976562 360.628906 524.324219 360.628906 C 524.910156 360.628906 524.910156 360.433594 524.910156 359.933594 C 524.910156 355.738281 524.910156 351.542969 524.910156 347.347656 C 524.910156 346.871094 524.933594 346.847656 525.542969 346.785156 C 526.066406 346.71875 526.109375 346.71875 526.71875 346.71875 C 526.902344 346.71875 527.082031 346.71875 527.261719 346.71875 C 527.261719 346.375 527.261719 346.035156 527.261719 345.695312 C 526.4375 345.761719 525.195312 345.761719 524.34375 345.761719 C 523.429688 345.761719 522.296875 345.761719 521.40625 345.695312 C 521.40625 346.035156 521.40625 346.375 521.40625 346.71875 C 521.585938 346.71875 521.769531 346.71875 521.949219 346.71875 C 522.34375 346.71875 522.710938 346.738281 523.105469 346.785156 C 523.734375 346.847656 523.757812 346.871094 523.757812 347.347656 C 523.757812 350.289062 523.757812 353.226562 523.757812 356.167969 C 520.867188 352.769531 517.980469 349.375 515.089844 345.976562 Z M 515.089844 345.976562 "/>
<path fill-rule="nonzero" fill="rgb(98.823529%, 38.431373%, 33.333333%)" fill-opacity="1" d="M 527.222656 169.355469 C 527.222656 168.652344 527.222656 167.949219 527.222656 167.246094 C 525.007812 167.246094 522.792969 167.246094 520.578125 167.246094 C 520.578125 167.949219 520.578125 168.652344 520.578125 169.355469 C 522.792969 169.355469 525.007812 169.355469 527.222656 169.355469 Z M 527.222656 169.355469 "/>
<path fill-rule="nonzero" fill="rgb(98.823529%, 38.431373%, 33.333333%)" fill-opacity="1" d="M 540.578125 160.167969 C 540.796875 159.929688 540.796875 159.886719 540.796875 159.125 C 539.3125 159.125 537.832031 159.125 536.351562 159.125 C 535.851562 159.125 532.652344 159.015625 532.34375 158.929688 C 531.886719 158.839844 531.867188 158.644531 531.824219 158.429688 C 531.480469 158.429688 531.140625 158.429688 530.800781 158.429688 C 530.546875 160.269531 530.292969 162.113281 530.039062 163.957031 C 530.378906 163.957031 530.71875 163.957031 531.0625 163.957031 C 531.277344 162.304688 531.5625 162.019531 531.648438 161.976562 C 531.886719 161.847656 533.652344 161.847656 534.023438 161.847656 C 535.25 161.847656 536.476562 161.847656 537.703125 161.847656 C 537.304688 162.316406 536.90625 162.789062 536.503906 163.261719 C 534.414062 165.699219 532.847656 168.636719 532.847656 171.859375 C 532.847656 173.382812 534.066406 173.382812 534.195312 173.382812 C 534.546875 173.382812 535.570312 173.273438 535.570312 171.839844 C 535.570312 171.503906 535.570312 171.171875 535.570312 170.835938 C 535.570312 169.792969 535.632812 168.746094 535.785156 167.722656 C 535.984375 166.265625 536.441406 164.980469 537.203125 164.089844 C 538.328125 162.78125 539.453125 161.476562 540.578125 160.167969 Z M 540.578125 160.167969 "/>
<path fill-rule="nonzero" fill="rgb(98.823529%, 38.431373%, 33.333333%)" fill-opacity="1" d="M 552.683594 166.199219 C 552.683594 164.089844 552.664062 158.886719 547.414062 158.886719 C 542.167969 158.886719 542.144531 164.066406 542.144531 166.199219 C 542.144531 168.355469 542.167969 173.382812 547.414062 173.382812 C 552.640625 173.382812 552.683594 168.375 552.683594 166.199219 Z M 547.414062 172.601562 C 546.632812 172.601562 545.410156 172.121094 545.128906 170.53125 C 544.933594 169.398438 544.933594 167.136719 544.933594 165.9375 C 544.933594 164.371094 544.933594 162.957031 545.105469 161.824219 C 545.367188 159.886719 546.894531 159.667969 547.414062 159.667969 C 548.222656 159.667969 549.113281 160.082031 549.527344 161.039062 C 549.898438 161.847656 549.898438 164.152344 549.898438 165.9375 C 549.898438 167.15625 549.898438 169.140625 549.746094 170.269531 C 549.441406 172.296875 548.070312 172.601562 547.414062 172.601562 Z M 547.414062 172.601562 "/>
<path fill-rule="nonzero" fill="rgb(98.823529%, 38.431373%, 33.333333%)" fill-opacity="1" d="M 565.621094 160.167969 C 565.839844 159.929688 565.839844 159.886719 565.839844 159.125 C 564.359375 159.125 562.878906 159.125 561.394531 159.125 C 560.894531 159.125 557.695312 159.015625 557.390625 158.929688 C 556.933594 158.839844 556.910156 158.644531 556.867188 158.429688 C 556.527344 158.429688 556.183594 158.429688 555.84375 158.429688 C 555.589844 160.269531 555.335938 162.113281 555.082031 163.957031 C 555.421875 163.957031 555.761719 163.957031 556.105469 163.957031 C 556.320312 162.304688 556.605469 162.019531 556.691406 161.976562 C 556.933594 161.847656 558.695312 161.847656 559.066406 161.847656 C 560.292969 161.847656 561.519531 161.847656 562.746094 161.847656 C 562.347656 162.316406 561.949219 162.789062 561.546875 163.261719 C 559.457031 165.699219 557.890625 168.636719 557.890625 171.859375 C 557.890625 173.382812 559.109375 173.382812 559.242188 173.382812 C 559.589844 173.382812 560.613281 173.273438 560.613281 171.839844 C 560.613281 171.503906 560.613281 171.171875 560.613281 170.835938 C 560.613281 169.792969 560.675781 168.746094 560.828125 167.722656 C 561.027344 166.265625 561.484375 164.980469 562.246094 164.089844 C 563.371094 162.78125 564.496094 161.476562 565.621094 160.167969 Z M 565.621094 160.167969 "/>
<path fill-rule="nonzero" fill="rgb(98.823529%, 38.431373%, 33.333333%)" fill-opacity="1" d="M 571.371094 171.445312 C 571.371094 170.511719 570.609375 169.75 569.671875 169.75 C 568.734375 169.75 567.972656 170.511719 567.972656 171.445312 C 567.972656 172.382812 568.734375 173.144531 569.671875 173.144531 C 570.609375 173.144531 571.371094 172.382812 571.371094 171.445312 Z M 571.371094 171.445312 "/>
<path fill-rule="nonzero" fill="rgb(98.823529%, 38.431373%, 33.333333%)" fill-opacity="1" d="M 580.875 159.582031 C 580.875 159.101562 580.875 158.886719 580.308594 158.886719 C 580.070312 158.886719 580.023438 158.886719 579.828125 159.039062 C 578.152344 160.277344 575.910156 160.277344 575.453125 160.277344 C 575.308594 160.277344 575.160156 160.277344 575.015625 160.277344 C 575.015625 160.621094 575.015625 160.960938 575.015625 161.300781 C 575.160156 161.300781 575.308594 161.300781 575.453125 161.300781 C 575.800781 161.300781 577 161.28125 578.28125 160.867188 C 578.28125 164.617188 578.28125 168.371094 578.28125 172.121094 C 577.273438 172.121094 576.265625 172.121094 575.257812 172.121094 C 575.257812 172.460938 575.257812 172.804688 575.257812 173.144531 C 576.214844 173.078125 578.523438 173.078125 579.589844 173.078125 C 580.65625 173.078125 582.964844 173.078125 583.921875 173.144531 C 583.921875 172.804688 583.921875 172.460938 583.921875 172.121094 C 582.90625 172.121094 581.890625 172.121094 580.875 172.121094 C 580.875 167.941406 580.875 163.761719 580.875 159.582031 Z M 580.875 159.582031 "/>
<path fill-rule="nonzero" fill="rgb(98.823529%, 38.431373%, 33.333333%)" fill-opacity="1" d="M 593.398438 159.582031 C 593.398438 159.101562 593.398438 158.886719 592.832031 158.886719 C 592.589844 158.886719 592.546875 158.886719 592.351562 159.039062 C 590.675781 160.277344 588.429688 160.277344 587.972656 160.277344 C 587.828125 160.277344 587.683594 160.277344 587.539062 160.277344 C 587.539062 160.621094 587.539062 160.960938 587.539062 161.300781 C 587.683594 161.300781 587.828125 161.300781 587.972656 161.300781 C 588.324219 161.300781 589.519531 161.28125 590.804688 160.867188 C 590.804688 164.617188 590.804688 168.371094 590.804688 172.121094 C 589.796875 172.121094 588.785156 172.121094 587.777344 172.121094 C 587.777344 172.460938 587.777344 172.804688 587.777344 173.144531 C 588.734375 173.078125 591.042969 173.078125 592.113281 173.078125 C 593.179688 173.078125 595.488281 173.078125 596.445312 173.144531 C 596.445312 172.804688 596.445312 172.460938 596.445312 172.121094 C 595.429688 172.121094 594.414062 172.121094 593.398438 172.121094 C 593.398438 167.941406 593.398438 163.761719 593.398438 159.582031 Z M 593.398438 159.582031 "/>
<path fill-rule="nonzero" fill="rgb(98.823529%, 38.431373%, 33.333333%)" fill-opacity="1" d="M 602.871094 167.984375 C 602.871094 164.667969 602.871094 161.351562 602.871094 158.035156 C 601.585938 158.09375 600.300781 158.152344 599.015625 158.210938 C 599.015625 158.550781 599.015625 158.890625 599.015625 159.234375 C 600.363281 159.234375 600.515625 159.234375 600.515625 160.082031 C 600.515625 164.09375 600.515625 168.109375 600.515625 172.121094 C 600.015625 172.121094 599.515625 172.121094 599.015625 172.121094 C 599.015625 172.460938 599.015625 172.804688 599.015625 173.144531 C 599.820312 173.121094 600.84375 173.078125 601.628906 173.078125 C 602.433594 173.078125 603.480469 173.121094 604.261719 173.144531 C 604.261719 172.804688 604.261719 172.460938 604.261719 172.121094 C 603.761719 172.121094 603.261719 172.121094 602.761719 172.121094 C 602.761719 171.199219 602.761719 170.277344 602.761719 169.355469 C 603.390625 168.855469 603.566406 168.726562 604 168.421875 C 604.734375 169.335938 605.46875 170.25 606.203125 171.164062 C 606.398438 171.425781 606.746094 171.859375 606.746094 171.925781 C 606.746094 172.121094 606.355469 172.121094 606.070312 172.121094 C 606.070312 172.460938 606.070312 172.804688 606.070312 173.144531 C 606.722656 173.101562 608.617188 173.078125 608.726562 173.078125 C 609.511719 173.078125 610.253906 173.101562 610.992188 173.144531 C 610.992188 172.804688 610.992188 172.460938 610.992188 172.121094 C 610.867188 172.121094 610.746094 172.121094 610.621094 172.121094 C 609.6875 172.121094 609.621094 172.035156 609.335938 171.6875 C 608.109375 170.15625 606.882812 168.625 605.65625 167.09375 C 606.601562 166.359375 607.542969 165.625 608.488281 164.894531 C 608.792969 164.652344 608.988281 164.5 610.449219 164.5 C 610.449219 164.160156 610.449219 163.820312 610.449219 163.480469 C 609.859375 163.542969 609.316406 163.542969 608.75 163.542969 C 608.160156 163.542969 606.746094 163.5 606.246094 163.480469 C 606.246094 163.820312 606.246094 164.160156 606.246094 164.5 C 606.746094 164.5 606.8125 164.566406 606.984375 164.742188 C 605.613281 165.824219 604.242188 166.902344 602.871094 167.984375 Z M 602.871094 167.984375 "/>
<path fill-rule="nonzero" fill="rgb(98.823529%, 38.431373%, 33.333333%)" fill-opacity="1" d="M 617.980469 158.492188 C 617.742188 158.230469 617.71875 158.210938 617.261719 158.210938 C 615.601562 158.210938 613.9375 158.210938 612.277344 158.210938 C 612.277344 158.550781 612.277344 158.890625 612.277344 159.234375 C 613.058594 159.234375 613.84375 159.234375 614.628906 159.234375 C 614.628906 163.320312 614.628906 167.40625 614.628906 171.488281 C 614.628906 171.96875 614.605469 171.992188 613.996094 172.054688 C 613.472656 172.121094 613.429688 172.121094 612.820312 172.121094 C 612.640625 172.121094 612.457031 172.121094 612.277344 172.121094 C 612.277344 172.460938 612.277344 172.804688 612.277344 173.144531 C 613.101562 173.078125 614.34375 173.078125 615.195312 173.078125 C 616.109375 173.078125 617.242188 173.078125 618.132812 173.144531 C 618.132812 172.804688 618.132812 172.460938 618.132812 172.121094 C 617.953125 172.121094 617.769531 172.121094 617.589844 172.121094 C 617.199219 172.121094 616.828125 172.101562 616.433594 172.054688 C 615.804688 171.992188 615.78125 171.96875 615.78125 171.488281 C 615.78125 167.695312 615.78125 163.898438 615.78125 160.105469 C 619.398438 164.355469 623.011719 168.609375 626.628906 172.863281 C 626.84375 173.121094 626.867188 173.144531 627.214844 173.144531 C 627.804688 173.144531 627.804688 172.949219 627.804688 172.449219 C 627.804688 168.253906 627.804688 164.058594 627.804688 159.863281 C 627.804688 159.386719 627.824219 159.363281 628.433594 159.296875 C 628.957031 159.234375 629 159.234375 629.609375 159.234375 C 629.792969 159.234375 629.972656 159.234375 630.15625 159.234375 C 630.15625 158.890625 630.15625 158.550781 630.15625 158.210938 C 629.328125 158.277344 628.085938 158.277344 627.238281 158.277344 C 626.320312 158.277344 625.191406 158.277344 624.296875 158.210938 C 624.296875 158.550781 624.296875 158.890625 624.296875 159.234375 C 624.476562 159.234375 624.660156 159.234375 624.839844 159.234375 C 625.234375 159.234375 625.605469 159.253906 625.996094 159.296875 C 626.628906 159.363281 626.648438 159.386719 626.648438 159.863281 C 626.648438 162.804688 626.648438 165.742188 626.648438 168.683594 C 623.761719 165.285156 620.871094 161.890625 617.980469 158.492188 Z M 617.980469 158.492188 "/>
<path fill-rule="nonzero" fill="rgb(98.823529%, 38.431373%, 33.333333%)" fill-opacity="1" d="M 30.964844 169.355469 C 30.964844 168.652344 30.964844 167.949219 30.964844 167.246094 C 28.75 167.246094 26.539062 167.246094 24.324219 167.246094 C 24.324219 167.949219 24.324219 168.652344 24.324219 169.355469 C 26.539062 169.355469 28.75 169.355469 30.964844 169.355469 Z M 30.964844 169.355469 "/>
<path fill-rule="nonzero" fill="rgb(98.823529%, 38.431373%, 33.333333%)" fill-opacity="1" d="M 44.320312 160.167969 C 44.539062 159.929688 44.539062 159.886719 44.539062 159.125 C 43.058594 159.125 41.578125 159.125 40.097656 159.125 C 39.597656 159.125 36.394531 159.015625 36.089844 158.929688 C 35.632812 158.839844 35.609375 158.644531 35.566406 158.429688 C 35.226562 158.429688 34.886719 158.429688 34.542969 158.429688 C 34.289062 160.269531 34.035156 162.113281 33.78125 163.957031 C 34.121094 163.957031 34.464844 163.957031 34.804688 163.957031 C 35.023438 162.304688 35.304688 162.019531 35.394531 161.976562 C 35.632812 161.847656 37.398438 161.847656 37.765625 161.847656 C 38.992188 161.847656 40.21875 161.847656 41.445312 161.847656 C 41.046875 162.316406 40.648438 162.789062 40.25 163.261719 C 38.160156 165.699219 36.589844 168.636719 36.589844 171.859375 C 36.589844 173.382812 37.808594 173.382812 37.941406 173.382812 C 38.289062 173.382812 39.3125 173.273438 39.3125 171.839844 C 39.3125 171.503906 39.3125 171.171875 39.3125 170.835938 C 39.3125 169.792969 39.378906 168.746094 39.53125 167.722656 C 39.726562 166.265625 40.183594 164.980469 40.945312 164.089844 C 42.070312 162.78125 43.195312 161.476562 44.320312 160.167969 Z M 44.320312 160.167969 "/>
<path fill-rule="nonzero" fill="rgb(98.823529%, 38.431373%, 33.333333%)" fill-opacity="1" d="M 56.429688 166.199219 C 56.429688 164.089844 56.40625 158.886719 51.160156 158.886719 C 45.910156 158.886719 45.890625 164.066406 45.890625 166.199219 C 45.890625 168.355469 45.910156 173.382812 51.160156 173.382812 C 56.386719 173.382812 56.429688 168.375 56.429688 166.199219 Z M 51.160156 172.601562 C 50.375 172.601562 49.15625 172.121094 48.875 170.53125 C 48.675781 169.398438 48.675781 167.136719 48.675781 165.9375 C 48.675781 164.371094 48.675781 162.957031 48.851562 161.824219 C 49.113281 159.886719 50.636719 159.667969 51.160156 159.667969 C 51.964844 159.667969 52.859375 160.082031 53.273438 161.039062 C 53.640625 161.847656 53.640625 164.152344 53.640625 165.9375 C 53.640625 167.15625 53.640625 169.140625 53.488281 170.269531 C 53.183594 172.296875 51.8125 172.601562 51.160156 172.601562 Z M 51.160156 172.601562 "/>
<path fill-rule="nonzero" fill="rgb(98.823529%, 38.431373%, 33.333333%)" fill-opacity="1" d="M 69.367188 160.167969 C 69.582031 159.929688 69.582031 159.886719 69.582031 159.125 C 68.101562 159.125 66.621094 159.125 65.140625 159.125 C 64.640625 159.125 61.4375 159.015625 61.132812 158.929688 C 60.675781 158.839844 60.65625 158.644531 60.609375 158.429688 C 60.269531 158.429688 59.929688 158.429688 59.585938 158.429688 C 59.332031 160.269531 59.078125 162.113281 58.824219 163.957031 C 59.167969 163.957031 59.507812 163.957031 59.847656 163.957031 C 60.066406 162.304688 60.351562 162.019531 60.4375 161.976562 C 60.675781 161.847656 62.441406 161.847656 62.808594 161.847656 C 64.039062 161.847656 65.265625 161.847656 66.492188 161.847656 C 66.089844 162.316406 65.691406 162.789062 65.292969 163.261719 C 63.203125 165.699219 61.632812 168.636719 61.632812 171.859375 C 61.632812 173.382812 62.855469 173.382812 62.984375 173.382812 C 63.332031 173.382812 64.355469 173.273438 64.355469 171.839844 C 64.355469 171.503906 64.355469 171.171875 64.355469 170.835938 C 64.355469 169.792969 64.421875 168.746094 64.574219 167.722656 C 64.769531 166.265625 65.226562 164.980469 65.988281 164.089844 C 67.113281 162.78125 68.242188 161.476562 69.367188 160.167969 Z M 69.367188 160.167969 "/>
<path fill-rule="nonzero" fill="rgb(98.823529%, 38.431373%, 33.333333%)" fill-opacity="1" d="M 75.113281 171.445312 C 75.113281 170.511719 74.351562 169.75 73.414062 169.75 C 72.480469 169.75 71.71875 170.511719 71.71875 171.445312 C 71.71875 172.382812 72.480469 173.144531 73.414062 173.144531 C 74.351562 173.144531 75.113281 172.382812 75.113281 171.445312 Z M 75.113281 171.445312 "/>
<path fill-rule="nonzero" fill="rgb(98.823529%, 38.431373%, 33.333333%)" fill-opacity="1" d="M 84.617188 159.582031 C 84.617188 159.101562 84.617188 158.886719 84.054688 158.886719 C 83.8125 158.886719 83.769531 158.886719 83.574219 159.039062 C 81.898438 160.277344 79.652344 160.277344 79.195312 160.277344 C 79.050781 160.277344 78.90625 160.277344 78.761719 160.277344 C 78.761719 160.621094 78.761719 160.960938 78.761719 161.300781 C 78.90625 161.300781 79.050781 161.300781 79.195312 161.300781 C 79.546875 161.300781 80.742188 161.28125 82.027344 160.867188 C 82.027344 164.617188 82.027344 168.371094 82.027344 172.121094 C 81.019531 172.121094 80.007812 172.121094 79 172.121094 C 79 172.460938 79 172.804688 79 173.144531 C 79.957031 173.078125 82.265625 173.078125 83.335938 173.078125 C 84.402344 173.078125 86.710938 173.078125 87.667969 173.144531 C 87.667969 172.804688 87.667969 172.460938 87.667969 172.121094 C 86.652344 172.121094 85.636719 172.121094 84.617188 172.121094 C 84.617188 167.941406 84.617188 163.761719 84.617188 159.582031 Z M 84.617188 159.582031 "/>
<path fill-rule="nonzero" fill="rgb(98.823529%, 38.431373%, 33.333333%)" fill-opacity="1" d="M 97.140625 159.582031 C 97.140625 159.101562 97.140625 158.886719 96.574219 158.886719 C 96.335938 158.886719 96.292969 158.886719 96.09375 159.039062 C 94.417969 160.277344 92.175781 160.277344 91.71875 160.277344 C 91.574219 160.277344 91.429688 160.277344 91.28125 160.277344 C 91.28125 160.621094 91.28125 160.960938 91.28125 161.300781 C 91.429688 161.300781 91.574219 161.300781 91.71875 161.300781 C 92.066406 161.300781 93.265625 161.28125 94.550781 160.867188 C 94.550781 164.617188 94.550781 168.371094 94.550781 172.121094 C 93.539062 172.121094 92.53125 172.121094 91.523438 172.121094 C 91.523438 172.460938 91.523438 172.804688 91.523438 173.144531 C 92.480469 173.078125 94.789062 173.078125 95.855469 173.078125 C 96.921875 173.078125 99.230469 173.078125 100.191406 173.144531 C 100.191406 172.804688 100.191406 172.460938 100.191406 172.121094 C 99.171875 172.121094 98.15625 172.121094 97.140625 172.121094 C 97.140625 167.941406 97.140625 163.761719 97.140625 159.582031 Z M 97.140625 159.582031 "/>
<path fill-rule="nonzero" fill="rgb(98.823529%, 38.431373%, 33.333333%)" fill-opacity="1" d="M 106.613281 167.984375 C 106.613281 164.667969 106.613281 161.351562 106.613281 158.035156 C 105.328125 158.09375 104.042969 158.152344 102.757812 158.210938 C 102.757812 158.550781 102.757812 158.890625 102.757812 159.234375 C 104.109375 159.234375 104.261719 159.234375 104.261719 160.082031 C 104.261719 164.09375 104.261719 168.109375 104.261719 172.121094 C 103.761719 172.121094 103.261719 172.121094 102.757812 172.121094 C 102.757812 172.460938 102.757812 172.804688 102.757812 173.144531 C 103.566406 173.121094 104.589844 173.078125 105.371094 173.078125 C 106.179688 173.078125 107.222656 173.121094 108.007812 173.144531 C 108.007812 172.804688 108.007812 172.460938 108.007812 172.121094 C 107.507812 172.121094 107.007812 172.121094 106.503906 172.121094 C 106.503906 171.199219 106.503906 170.277344 106.503906 169.355469 C 107.136719 168.855469 107.3125 168.726562 107.746094 168.421875 C 108.480469 169.335938 109.210938 170.25 109.945312 171.164062 C 110.140625 171.425781 110.492188 171.859375 110.492188 171.925781 C 110.492188 172.121094 110.097656 172.121094 109.816406 172.121094 C 109.816406 172.460938 109.816406 172.804688 109.816406 173.144531 C 110.46875 173.101562 112.363281 173.078125 112.472656 173.078125 C 113.257812 173.078125 113.996094 173.101562 114.738281 173.144531 C 114.738281 172.804688 114.738281 172.460938 114.738281 172.121094 C 114.613281 172.121094 114.488281 172.121094 114.367188 172.121094 C 113.429688 172.121094 113.363281 172.035156 113.082031 171.6875 C 111.855469 170.15625 110.628906 168.625 109.402344 167.09375 C 110.34375 166.359375 111.289062 165.625 112.234375 164.894531 C 112.539062 164.652344 112.734375 164.5 114.191406 164.5 C 114.191406 164.160156 114.191406 163.820312 114.191406 163.480469 C 113.605469 163.542969 113.058594 163.542969 112.492188 163.542969 C 111.90625 163.542969 110.492188 163.5 109.988281 163.480469 C 109.988281 163.820312 109.988281 164.160156 109.988281 164.5 C 110.492188 164.5 110.554688 164.566406 110.730469 164.742188 C 109.359375 165.824219 107.984375 166.902344 106.613281 167.984375 Z M 106.613281 167.984375 "/>
<path fill-rule="nonzero" fill="rgb(98.823529%, 38.431373%, 33.333333%)" fill-opacity="1" d="M 121.726562 158.492188 C 121.488281 158.230469 121.464844 158.210938 121.007812 158.210938 C 119.34375 158.210938 117.683594 158.210938 116.019531 158.210938 C 116.019531 158.550781 116.019531 158.890625 116.019531 159.234375 C 116.804688 159.234375 117.589844 159.234375 118.371094 159.234375 C 118.371094 163.320312 118.371094 167.40625 118.371094 171.488281 C 118.371094 171.96875 118.351562 171.992188 117.742188 172.054688 C 117.21875 172.121094 117.175781 172.121094 116.566406 172.121094 C 116.382812 172.121094 116.203125 172.121094 116.019531 172.121094 C 116.019531 172.460938 116.019531 172.804688 116.019531 173.144531 C 116.847656 173.078125 118.089844 173.078125 118.9375 173.078125 C 119.851562 173.078125 120.984375 173.078125 121.878906 173.144531 C 121.878906 172.804688 121.878906 172.460938 121.878906 172.121094 C 121.695312 172.121094 121.515625 172.121094 121.335938 172.121094 C 120.941406 172.121094 120.570312 172.101562 120.179688 172.054688 C 119.546875 171.992188 119.527344 171.96875 119.527344 171.488281 C 119.527344 167.695312 119.527344 163.898438 119.527344 160.105469 C 123.140625 164.355469 126.757812 168.609375 130.371094 172.863281 C 130.589844 173.121094 130.609375 173.144531 130.960938 173.144531 C 131.546875 173.144531 131.546875 172.949219 131.546875 172.449219 C 131.546875 168.253906 131.546875 164.058594 131.546875 159.863281 C 131.546875 159.386719 131.570312 159.363281 132.179688 159.296875 C 132.703125 159.234375 132.746094 159.234375 133.355469 159.234375 C 133.535156 159.234375 133.71875 159.234375 133.898438 159.234375 C 133.898438 158.890625 133.898438 158.550781 133.898438 158.210938 C 133.070312 158.277344 131.832031 158.277344 130.980469 158.277344 C 130.066406 158.277344 128.933594 158.277344 128.042969 158.210938 C 128.042969 158.550781 128.042969 158.890625 128.042969 159.234375 C 128.222656 159.234375 128.40625 159.234375 128.585938 159.234375 C 128.976562 159.234375 129.347656 159.253906 129.738281 159.296875 C 130.371094 159.363281 130.394531 159.386719 130.394531 159.863281 C 130.394531 162.804688 130.394531 165.742188 130.394531 168.683594 C 127.503906 165.285156 124.613281 161.890625 121.726562 158.492188 Z M 121.726562 158.492188 "/>
<path fill-rule="nonzero" fill="rgb(16.078431%, 67.058824%, 79.215686%)" fill-opacity="1" d="M 208.921875 177.5625 C 208.921875 177.082031 208.921875 176.867188 208.359375 176.867188 C 208.117188 176.867188 208.074219 176.867188 207.878906 177.019531 C 206.203125 178.257812 203.957031 178.257812 203.5 178.257812 C 203.355469 178.257812 203.210938 178.257812 203.066406 178.257812 C 203.066406 178.601562 203.066406 178.941406 203.066406 179.28125 C 203.210938 179.28125 203.355469 179.28125 203.5 179.28125 C 203.851562 179.28125 205.046875 179.261719 206.332031 178.847656 C 206.332031 182.597656 206.332031 186.351562 206.332031 190.101562 C 205.324219 190.101562 204.3125 190.101562 203.304688 190.101562 C 203.304688 190.445312 203.304688 190.785156 203.304688 191.125 C 204.261719 191.058594 206.570312 191.058594 207.640625 191.058594 C 208.707031 191.058594 211.015625 191.058594 211.972656 191.125 C 211.972656 190.785156 211.972656 190.445312 211.972656 190.101562 C 210.957031 190.101562 209.941406 190.101562 208.921875 190.101562 C 208.921875 185.921875 208.921875 181.742188 208.921875 177.5625 Z M 208.921875 177.5625 "/>
<path fill-rule="nonzero" fill="rgb(16.078431%, 67.058824%, 79.215686%)" fill-opacity="1" d="M 225.257812 184.179688 C 225.257812 182.070312 225.234375 176.867188 219.988281 176.867188 C 214.738281 176.867188 214.714844 182.046875 214.714844 184.179688 C 214.714844 186.335938 214.738281 191.363281 219.988281 191.363281 C 225.214844 191.363281 225.257812 186.359375 225.257812 184.179688 Z M 219.988281 190.582031 C 219.203125 190.582031 217.984375 190.101562 217.699219 188.511719 C 217.503906 187.382812 217.503906 185.117188 217.503906 183.917969 C 217.503906 182.351562 217.503906 180.9375 217.679688 179.804688 C 217.9375 177.867188 219.464844 177.648438 219.988281 177.648438 C 220.792969 177.648438 221.683594 178.0625 222.097656 179.019531 C 222.46875 179.828125 222.46875 182.132812 222.46875 183.917969 C 222.46875 185.140625 222.46875 187.121094 222.316406 188.253906 C 222.011719 190.277344 220.640625 190.582031 219.988281 190.582031 Z M 219.988281 190.582031 "/>
<path fill-rule="nonzero" fill="rgb(16.078431%, 67.058824%, 79.215686%)" fill-opacity="1" d="M 237.777344 184.179688 C 237.777344 182.070312 237.757812 176.867188 232.507812 176.867188 C 227.261719 176.867188 227.238281 182.046875 227.238281 184.179688 C 227.238281 186.335938 227.261719 191.363281 232.507812 191.363281 C 237.734375 191.363281 237.777344 186.359375 237.777344 184.179688 Z M 232.507812 190.582031 C 231.722656 190.582031 230.503906 190.101562 230.222656 188.511719 C 230.027344 187.382812 230.027344 185.117188 230.027344 183.917969 C 230.027344 182.351562 230.027344 180.9375 230.199219 179.804688 C 230.460938 177.867188 231.984375 177.648438 232.507812 177.648438 C 233.3125 177.648438 234.207031 178.0625 234.621094 179.019531 C 234.992188 179.828125 234.992188 182.132812 234.992188 183.917969 C 234.992188 185.140625 234.992188 187.121094 234.839844 188.253906 C 234.535156 190.277344 233.160156 190.582031 232.507812 190.582031 Z M 232.507812 190.582031 "/>
<path fill-rule="nonzero" fill="rgb(16.078431%, 67.058824%, 79.215686%)" fill-opacity="1" d="M 250.300781 184.179688 C 250.300781 182.070312 250.277344 176.867188 245.03125 176.867188 C 239.78125 176.867188 239.761719 182.046875 239.761719 184.179688 C 239.761719 186.335938 239.78125 191.363281 245.03125 191.363281 C 250.257812 191.363281 250.300781 186.359375 250.300781 184.179688 Z M 245.03125 190.582031 C 244.246094 190.582031 243.027344 190.101562 242.742188 188.511719 C 242.546875 187.382812 242.546875 185.117188 242.546875 183.917969 C 242.546875 182.351562 242.546875 180.9375 242.722656 179.804688 C 242.984375 177.867188 244.507812 177.648438 245.03125 177.648438 C 245.835938 177.648438 246.730469 178.0625 247.140625 179.019531 C 247.511719 179.828125 247.511719 182.132812 247.511719 183.917969 C 247.511719 185.140625 247.511719 187.121094 247.359375 188.253906 C 247.054688 190.277344 245.683594 190.582031 245.03125 190.582031 Z M 245.03125 190.582031 "/>
<path fill-rule="nonzero" fill="rgb(16.078431%, 67.058824%, 79.215686%)" fill-opacity="1" d="M 256.464844 189.425781 C 256.464844 188.492188 255.699219 187.730469 254.765625 187.730469 C 253.828125 187.730469 253.066406 188.492188 253.066406 189.425781 C 253.066406 190.363281 253.828125 191.125 254.765625 191.125 C 255.699219 191.125 256.464844 190.363281 256.464844 189.425781 Z M 256.464844 189.425781 "/>
<path fill-rule="nonzero" fill="rgb(16.078431%, 67.058824%, 79.215686%)" fill-opacity="1" d="M 269.777344 184.179688 C 269.777344 182.070312 269.757812 176.867188 264.507812 176.867188 C 259.261719 176.867188 259.238281 182.046875 259.238281 184.179688 C 259.238281 186.335938 259.261719 191.363281 264.507812 191.363281 C 269.734375 191.363281 269.777344 186.359375 269.777344 184.179688 Z M 264.507812 190.582031 C 263.722656 190.582031 262.503906 190.101562 262.222656 188.511719 C 262.027344 187.382812 262.027344 185.117188 262.027344 183.917969 C 262.027344 182.351562 262.027344 180.9375 262.199219 179.804688 C 262.460938 177.867188 263.984375 177.648438 264.507812 177.648438 C 265.3125 177.648438 266.207031 178.0625 266.621094 179.019531 C 266.992188 179.828125 266.992188 182.132812 266.992188 183.917969 C 266.992188 185.140625 266.992188 187.121094 266.839844 188.253906 C 266.535156 190.277344 265.160156 190.582031 264.507812 190.582031 Z M 264.507812 190.582031 "/>
<path fill-rule="nonzero" fill="rgb(16.078431%, 67.058824%, 79.215686%)" fill-opacity="1" d="M 282.300781 184.179688 C 282.300781 182.070312 282.277344 176.867188 277.03125 176.867188 C 271.78125 176.867188 271.761719 182.046875 271.761719 184.179688 C 271.761719 186.335938 271.78125 191.363281 277.03125 191.363281 C 282.257812 191.363281 282.300781 186.359375 282.300781 184.179688 Z M 277.03125 190.582031 C 276.246094 190.582031 275.027344 190.101562 274.742188 188.511719 C 274.546875 187.382812 274.546875 185.117188 274.546875 183.917969 C 274.546875 182.351562 274.546875 180.9375 274.722656 179.804688 C 274.984375 177.867188 276.507812 177.648438 277.03125 177.648438 C 277.835938 177.648438 278.730469 178.0625 279.144531 179.019531 C 279.511719 179.828125 279.511719 182.132812 279.511719 183.917969 C 279.511719 185.140625 279.511719 187.121094 279.359375 188.253906 C 279.054688 190.277344 277.683594 190.582031 277.03125 190.582031 Z M 277.03125 190.582031 "/>
<path fill-rule="nonzero" fill="rgb(16.078431%, 67.058824%, 79.215686%)" fill-opacity="1" d="M 287.960938 185.964844 C 287.960938 182.648438 287.960938 179.332031 287.960938 176.015625 C 286.675781 176.074219 285.394531 176.132812 284.109375 176.191406 C 284.109375 176.53125 284.109375 176.875 284.109375 177.214844 C 285.457031 177.214844 285.609375 177.214844 285.609375 178.0625 C 285.609375 182.078125 285.609375 186.089844 285.609375 190.101562 C 285.109375 190.101562 284.609375 190.101562 284.109375 190.101562 C 284.109375 190.445312 284.109375 190.785156 284.109375 191.125 C 284.914062 191.105469 285.9375 191.058594 286.722656 191.058594 C 287.527344 191.058594 288.570312 191.105469 289.355469 191.125 C 289.355469 190.785156 289.355469 190.445312 289.355469 190.101562 C 288.855469 190.101562 288.355469 190.101562 287.855469 190.101562 C 287.855469 189.179688 287.855469 188.257812 287.855469 187.335938 C 288.484375 186.835938 288.660156 186.707031 289.09375 186.402344 C 289.828125 187.316406 290.5625 188.230469 291.292969 189.144531 C 291.492188 189.40625 291.839844 189.839844 291.839844 189.90625 C 291.839844 190.101562 291.445312 190.101562 291.164062 190.101562 C 291.164062 190.445312 291.164062 190.785156 291.164062 191.125 C 291.816406 191.082031 293.710938 191.058594 293.820312 191.058594 C 294.605469 191.058594 295.34375 191.082031 296.085938 191.125 C 296.085938 190.785156 296.085938 190.445312 296.085938 190.101562 C 295.960938 190.101562 295.839844 190.101562 295.714844 190.101562 C 294.777344 190.101562 294.714844 190.015625 294.429688 189.667969 C 293.203125 188.136719 291.976562 186.605469 290.75 185.074219 C 291.695312 184.339844 292.636719 183.609375 293.582031 182.875 C 293.886719 182.636719 294.082031 182.484375 295.539062 182.484375 C 295.539062 182.140625 295.539062 181.800781 295.539062 181.460938 C 294.953125 181.523438 294.410156 181.523438 293.84375 181.523438 C 293.253906 181.523438 291.839844 181.480469 291.335938 181.460938 C 291.335938 181.800781 291.335938 182.140625 291.335938 182.484375 C 291.839844 182.484375 291.902344 182.546875 292.078125 182.722656 C 290.707031 183.804688 289.335938 184.886719 287.960938 185.964844 Z M 287.960938 185.964844 "/>
<path fill-rule="nonzero" fill="rgb(16.078431%, 67.058824%, 79.215686%)" fill-opacity="1" d="M 303.074219 176.472656 C 302.835938 176.214844 302.8125 176.191406 302.355469 176.191406 C 300.695312 176.191406 299.03125 176.191406 297.367188 176.191406 C 297.367188 176.53125 297.367188 176.875 297.367188 177.214844 C 298.152344 177.214844 298.9375 177.214844 299.722656 177.214844 C 299.722656 181.300781 299.722656 185.386719 299.722656 189.472656 C 299.722656 189.949219 299.699219 189.972656 299.089844 190.039062 C 298.566406 190.101562 298.523438 190.101562 297.914062 190.101562 C 297.730469 190.101562 297.550781 190.101562 297.367188 190.101562 C 297.367188 190.445312 297.367188 190.785156 297.367188 191.125 C 298.195312 191.058594 299.4375 191.058594 300.285156 191.058594 C 301.203125 191.058594 302.335938 191.058594 303.226562 191.125 C 303.226562 190.785156 303.226562 190.445312 303.226562 190.101562 C 303.046875 190.101562 302.863281 190.101562 302.683594 190.101562 C 302.289062 190.101562 301.921875 190.082031 301.527344 190.039062 C 300.898438 189.972656 300.875 189.949219 300.875 189.472656 C 300.875 185.675781 300.875 181.878906 300.875 178.085938 C 304.488281 182.335938 308.105469 186.589844 311.71875 190.84375 C 311.9375 191.105469 311.960938 191.125 312.308594 191.125 C 312.894531 191.125 312.894531 190.929688 312.894531 190.429688 C 312.894531 186.234375 312.894531 182.039062 312.894531 177.847656 C 312.894531 177.367188 312.917969 177.34375 313.527344 177.28125 C 314.050781 177.214844 314.09375 177.214844 314.703125 177.214844 C 314.886719 177.214844 315.066406 177.214844 315.246094 177.214844 C 315.246094 176.875 315.246094 176.53125 315.246094 176.191406 C 314.421875 176.257812 313.179688 176.257812 312.328125 176.257812 C 311.414062 176.257812 310.28125 176.257812 309.390625 176.191406 C 309.390625 176.53125 309.390625 176.875 309.390625 177.214844 C 309.570312 177.214844 309.753906 177.214844 309.933594 177.214844 C 310.328125 177.214844 310.695312 177.234375 311.089844 177.28125 C 311.71875 177.34375 311.742188 177.367188 311.742188 177.847656 C 311.742188 180.785156 311.742188 183.722656 311.742188 186.664062 C 308.851562 183.265625 305.964844 179.871094 303.074219 176.472656 Z M 303.074219 176.472656 "/>
</svg>
