<?xml version="1.0" encoding="UTF-8"?>
<svg xmlns="http://www.w3.org/2000/svg" xmlns:xlink="http://www.w3.org/1999/xlink" width="409" height="245" viewBox="0 0 409 245">
<path fill="none" stroke-width="0.04" stroke-linecap="butt" stroke-linejoin="miter" stroke="rgb(0%, 0%, 0%)" stroke-opacity="1" stroke-miterlimit="10" d="M -0.926096 -0.87703 C 0.0739055 -0.210391 1.073907 0.456249 2.073908 1.122954 " transform="matrix(60.042899, 0, 0, -59.803197, 204.5, 122.5)"/>
<path fill-rule="nonzero" fill="rgb(0%, 0%, 0%)" fill-opacity="1" d="M 154.898438 174.949219 C 154.898438 173.363281 154.265625 171.84375 153.140625 170.722656 C 152.015625 169.601562 150.488281 168.96875 148.894531 168.96875 C 147.300781 168.96875 145.773438 169.601562 144.648438 170.722656 C 143.523438 171.84375 142.890625 173.363281 142.890625 174.949219 C 142.890625 176.535156 143.523438 178.058594 144.648438 179.179688 C 145.773438 180.300781 147.300781 180.929688 148.894531 180.929688 C 150.488281 180.929688 152.015625 180.300781 153.140625 179.179688 C 154.265625 178.058594 154.898438 176.535156 154.898438 174.949219 Z M 154.898438 174.949219 "/>
<path fill-rule="nonzero" fill="rgb(0%, 0%, 0%)" fill-opacity="1" d="M 335.027344 55.34375 C 335.027344 53.757812 334.394531 52.238281 333.269531 51.117188 C 332.140625 49.996094 330.613281 49.363281 329.023438 49.363281 C 327.429688 49.363281 325.902344 49.996094 324.777344 51.117188 C 323.652344 52.238281 323.019531 53.757812 323.019531 55.34375 C 323.019531 56.929688 323.652344 58.453125 324.777344 59.574219 C 325.902344 60.695312 327.429688 61.324219 329.023438 61.324219 C 330.613281 61.324219 332.140625 60.695312 333.269531 59.574219 C 334.394531 58.453125 335.027344 56.929688 335.027344 55.34375 Z M 335.027344 55.34375 "/>
<path fill-rule="nonzero" fill="rgb(0%, 0%, 0%)" fill-opacity="1" d="M 127.941406 143.582031 C 127.941406 143.085938 127.59375 142.6875 127.019531 142.6875 C 126.347656 142.6875 125.675781 143.332031 125.675781 144.003906 C 125.675781 144.476562 126.023438 144.898438 126.621094 144.898438 C 127.195312 144.898438 127.941406 144.328125 127.941406 143.582031 Z M 126.046875 152.917969 C 126.347656 152.195312 126.347656 152.148438 126.597656 151.476562 C 126.796875 150.980469 126.921875 150.632812 126.921875 150.160156 C 126.921875 149.042969 126.125 148.125 124.875 148.125 C 122.535156 148.125 121.585938 151.726562 121.585938 151.949219 C 121.585938 152.195312 121.835938 152.195312 121.886719 152.195312 C 122.136719 152.195312 122.160156 152.148438 122.285156 151.75 C 122.957031 149.417969 123.953125 148.671875 124.800781 148.671875 C 125 148.671875 125.425781 148.671875 125.425781 149.464844 C 125.425781 149.988281 125.25 150.507812 125.152344 150.757812 C 124.953125 151.402344 123.828125 154.28125 123.429688 155.347656 C 123.183594 155.996094 122.859375 156.8125 122.859375 157.335938 C 122.859375 158.503906 123.707031 159.371094 124.902344 159.371094 C 127.246094 159.371094 128.167969 155.769531 128.167969 155.546875 C 128.167969 155.300781 127.941406 155.300781 127.867188 155.300781 C 127.617188 155.300781 127.617188 155.375 127.492188 155.746094 C 127.046875 157.308594 126.222656 158.824219 124.953125 158.824219 C 124.527344 158.824219 124.351562 158.578125 124.351562 158.003906 C 124.351562 157.386719 124.503906 157.039062 125.078125 155.523438 C 125.398438 154.652344 125.722656 153.785156 126.046875 152.917969 Z M 126.046875 152.917969 "/>
<path fill-rule="nonzero" fill="rgb(0%, 0%, 0%)" fill-opacity="1" d="M 310.113281 21.566406 C 310.113281 21.097656 309.765625 20.675781 309.167969 20.675781 C 308.59375 20.675781 307.847656 21.246094 307.847656 21.988281 C 307.847656 22.484375 308.195312 22.882812 308.769531 22.882812 C 309.441406 22.882812 310.113281 22.238281 310.113281 21.566406 Z M 305.105469 38.324219 C 304.632812 40.210938 303.433594 41.625 302.039062 41.625 C 301.890625 41.625 301.515625 41.625 301.066406 41.402344 C 301.816406 41.230469 302.1875 40.582031 302.1875 40.085938 C 302.1875 39.691406 301.914062 39.21875 301.242188 39.21875 C 300.617188 39.21875 299.894531 39.738281 299.894531 40.632812 C 299.894531 41.625 300.894531 42.171875 302.089844 42.171875 C 303.835938 42.171875 306.152344 40.855469 306.773438 38.398438 C 307.539062 35.371094 308.304688 32.339844 309.066406 29.3125 C 309.191406 28.816406 309.191406 28.46875 309.191406 28.394531 C 309.191406 26.980469 308.144531 26.109375 306.898438 26.109375 C 304.359375 26.109375 302.9375 29.710938 302.9375 29.933594 C 302.9375 30.183594 303.1875 30.183594 303.234375 30.183594 C 303.460938 30.183594 303.484375 30.15625 303.683594 29.683594 C 304.308594 28.171875 305.453125 26.65625 306.824219 26.65625 C 307.175781 26.65625 307.621094 26.757812 307.621094 27.800781 C 307.621094 28.371094 307.546875 28.644531 307.449219 29.066406 C 306.667969 32.152344 305.886719 35.238281 305.105469 38.324219 Z M 305.105469 38.324219 "/>
<path fill="none" stroke-width="0.02" stroke-linecap="butt" stroke-linejoin="miter" stroke="rgb(60.392157%, 44.705882%, 67.45098%)" stroke-opacity="1" stroke-miterlimit="10" d="M -0.0940734 -0.322346 C -0.0662937 -0.303861 -0.0385141 -0.285311 -0.0107345 -0.266826 " transform="matrix(60.042899, 0, 0, -59.803197, 204.5, 122.5)"/>
<path fill="none" stroke-width="0.02" stroke-linecap="butt" stroke-linejoin="miter" stroke="rgb(60.392157%, 44.705882%, 67.45098%)" stroke-opacity="1" stroke-miterlimit="10" d="M 0.0774837 -0.207974 C 0.105263 -0.189489 0.133043 -0.170938 0.160823 -0.152453 " transform="matrix(60.042899, 0, 0, -59.803197, 204.5, 122.5)"/>
<path fill="none" stroke-width="0.02" stroke-linecap="butt" stroke-linejoin="miter" stroke="rgb(60.392157%, 44.705882%, 67.45098%)" stroke-opacity="1" stroke-miterlimit="10" d="M 0.249106 -0.0936013 C 0.276885 -0.0750509 0.304665 -0.0565657 0.332445 -0.0380153 " transform="matrix(60.042899, 0, 0, -59.803197, 204.5, 122.5)"/>
<path fill="none" stroke-width="0.02" stroke-linecap="butt" stroke-linejoin="miter" stroke="rgb(60.392157%, 44.705882%, 67.45098%)" stroke-opacity="1" stroke-miterlimit="10" d="M 0.420663 0.0207713 C 0.448442 0.0393217 0.476222 0.0578068 0.504002 0.0763572 " transform="matrix(60.042899, 0, 0, -59.803197, 204.5, 122.5)"/>
<path fill="none" stroke-width="0.02" stroke-linecap="butt" stroke-linejoin="miter" stroke="rgb(60.392157%, 44.705882%, 67.45098%)" stroke-opacity="1" stroke-miterlimit="10" d="M 0.59222 0.135144 C 0.619999 0.153694 0.647779 0.172179 0.675559 0.19073 " transform="matrix(60.042899, 0, 0, -59.803197, 204.5, 122.5)"/>
<path fill="none" stroke-width="0.02" stroke-linecap="butt" stroke-linejoin="miter" stroke="rgb(60.392157%, 44.705882%, 67.45098%)" stroke-opacity="1" stroke-miterlimit="10" d="M 0.763777 0.249516 C 0.791556 0.268067 0.819336 0.286552 0.847116 0.305102 " transform="matrix(60.042899, 0, 0, -59.803197, 204.5, 122.5)"/>
<path fill="none" stroke-width="0.02" stroke-linecap="butt" stroke-linejoin="miter" stroke="rgb(60.392157%, 44.705882%, 67.45098%)" stroke-opacity="1" stroke-miterlimit="10" d="M 0.935334 0.363889 C 0.963113 0.382439 0.990893 0.400924 1.018673 0.419475 " transform="matrix(60.042899, 0, 0, -59.803197, 204.5, 122.5)"/>
<path fill="none" stroke-width="0.02" stroke-linecap="butt" stroke-linejoin="miter" stroke="rgb(60.392157%, 44.705882%, 67.45098%)" stroke-opacity="1" stroke-miterlimit="10" d="M 1.106956 0.478327 C 1.134736 0.496812 1.16245 0.515362 1.19023 0.533847 " transform="matrix(60.042899, 0, 0, -59.803197, 204.5, 122.5)"/>
<path fill="none" stroke-width="0.02" stroke-linecap="butt" stroke-linejoin="miter" stroke="rgb(60.392157%, 44.705882%, 67.45098%)" stroke-opacity="1" stroke-miterlimit="10" d="M 1.278513 0.592699 C 1.306293 0.611184 1.334072 0.629735 1.361852 0.64822 " transform="matrix(60.042899, 0, 0, -59.803197, 204.5, 122.5)"/>
<path fill="none" stroke-width="0.02" stroke-linecap="butt" stroke-linejoin="miter" stroke="rgb(60.392157%, 44.705882%, 67.45098%)" stroke-opacity="1" stroke-miterlimit="10" d="M 1.45007 0.707072 C 1.47785 0.725557 1.505629 0.744107 1.533409 0.762592 " transform="matrix(60.042899, 0, 0, -59.803197, 204.5, 122.5)"/>
<path fill="none" stroke-width="0.02" stroke-linecap="butt" stroke-linejoin="miter" stroke="rgb(60.392157%, 44.705882%, 67.45098%)" stroke-opacity="1" stroke-miterlimit="10" d="M 1.621627 0.821444 C 1.649407 0.839929 1.677186 0.85848 1.704966 0.876965 " transform="matrix(60.042899, 0, 0, -59.803197, 204.5, 122.5)"/>
<path fill="none" stroke-width="0.02" stroke-linecap="butt" stroke-linejoin="miter" stroke="rgb(60.392157%, 44.705882%, 67.45098%)" stroke-opacity="1" stroke-miterlimit="10" d="M 1.793184 0.935817 C 1.820964 0.954302 1.848743 0.972852 1.876523 0.991338 " transform="matrix(60.042899, 0, 0, -59.803197, 204.5, 122.5)"/>
<path fill="none" stroke-width="0.02" stroke-linecap="butt" stroke-linejoin="miter" stroke="rgb(60.392157%, 44.705882%, 67.45098%)" stroke-opacity="1" stroke-miterlimit="10" d="M 1.964741 1.050189 C 1.992521 1.06874 2.0203 1.087225 2.04808 1.105775 " transform="matrix(60.042899, 0, 0, -59.803197, 204.5, 122.5)"/>
<path fill="none" stroke-width="0.02" stroke-linecap="butt" stroke-linejoin="miter" stroke="rgb(60.392157%, 44.705882%, 67.45098%)" stroke-opacity="1" stroke-miterlimit="10" d="M 2.136363 1.164562 C 2.164143 1.183112 2.191922 1.201598 2.219702 1.220148 " transform="matrix(60.042899, 0, 0, -59.803197, 204.5, 122.5)"/>
<path fill="none" stroke-width="0.02" stroke-linecap="butt" stroke-linejoin="miter" stroke="rgb(60.392157%, 44.705882%, 67.45098%)" stroke-opacity="1" stroke-miterlimit="10" d="M 2.30792 1.278935 C 2.3357 1.297485 2.363479 1.31597 2.391259 1.334521 " transform="matrix(60.042899, 0, 0, -59.803197, 204.5, 122.5)"/>
<path fill="none" stroke-width="0.02" stroke-linecap="butt" stroke-linejoin="miter" stroke="rgb(60.392157%, 44.705882%, 67.45098%)" stroke-opacity="1" stroke-miterlimit="10" d="M 2.479477 1.393307 C 2.507257 1.411858 2.535036 1.430343 2.562816 1.448893 " transform="matrix(60.042899, 0, 0, -59.803197, 204.5, 122.5)"/>
<path fill="none" stroke-width="0.02" stroke-linecap="butt" stroke-linejoin="miter" stroke="rgb(60.392157%, 44.705882%, 67.45098%)" stroke-opacity="1" stroke-miterlimit="10" d="M 2.651034 1.50768 C 2.678814 1.52623 2.706593 1.544715 2.734373 1.563266 " transform="matrix(60.042899, 0, 0, -59.803197, 204.5, 122.5)"/>
<path fill="none" stroke-width="0.02" stroke-linecap="butt" stroke-linejoin="miter" stroke="rgb(60.392157%, 44.705882%, 67.45098%)" stroke-opacity="1" stroke-miterlimit="10" d="M 2.822591 1.622118 C 2.850371 1.640603 2.87815 1.659153 2.90593 1.677638 " transform="matrix(60.042899, 0, 0, -59.803197, 204.5, 122.5)"/>
<path fill-rule="nonzero" fill="rgb(60.392157%, 44.705882%, 67.45098%)" fill-opacity="1" d="M 204.257812 141.777344 C 204.257812 140.351562 203.6875 138.980469 202.675781 137.972656 C 201.660156 136.960938 200.285156 136.394531 198.851562 136.394531 C 197.417969 136.394531 196.046875 136.960938 195.03125 137.972656 C 194.019531 138.980469 193.449219 140.351562 193.449219 141.777344 C 193.449219 143.207031 194.019531 144.574219 195.03125 145.582031 C 196.046875 146.59375 197.417969 147.160156 198.851562 147.160156 C 200.285156 147.160156 201.660156 146.59375 202.675781 145.582031 C 203.6875 144.574219 204.257812 143.207031 204.257812 141.777344 Z M 204.257812 141.777344 "/>
<path fill-rule="nonzero" fill="rgb(60.392157%, 44.705882%, 67.45098%)" fill-opacity="1" d="M 384.386719 22.171875 C 384.386719 20.746094 383.816406 19.375 382.800781 18.367188 C 381.789062 17.355469 380.414062 16.789062 378.980469 16.789062 C 377.546875 16.789062 376.171875 17.355469 375.160156 18.367188 C 374.148438 19.375 373.578125 20.746094 373.578125 22.171875 C 373.578125 23.597656 374.148438 24.96875 375.160156 25.976562 C 376.171875 26.988281 377.546875 27.554688 378.980469 27.554688 C 380.414062 27.554688 381.789062 26.988281 382.800781 25.976562 C 383.816406 24.96875 384.386719 23.597656 384.386719 22.171875 Z M 384.386719 22.171875 "/>
<path fill="none" stroke-width="0.04" stroke-linecap="butt" stroke-linejoin="miter" stroke="rgb(98.823529%, 38.431373%, 33.333333%)" stroke-opacity="1" stroke-miterlimit="10" d="M -1.326135 -0.87703 C -1.536792 -0.87703 -1.747449 -0.87703 -1.95817 -0.87703 " transform="matrix(60.042899, 0, 0, -59.803197, 204.5, 122.5)"/>
<path fill-rule="nonzero" fill="rgb(98.823529%, 38.431373%, 33.333333%)" fill-opacity="1" d="M 136.886719 174.949219 C 132.882812 173.207031 128.878906 171.460938 124.875 169.71875 C 124.875 173.207031 124.875 176.695312 124.875 180.183594 C 128.878906 178.441406 132.882812 176.695312 136.886719 174.949219 Z M 136.886719 174.949219 "/>
<path fill="none" stroke-width="0.04" stroke-linecap="butt" stroke-linejoin="miter" stroke="rgb(98.823529%, 38.431373%, 33.333333%)" stroke-opacity="1" stroke-miterlimit="10" d="M -0.926096 -1.27704 C -0.926096 -1.395267 -0.926096 -1.513558 -0.926096 -1.631785 " transform="matrix(60.042899, 0, 0, -59.803197, 204.5, 122.5)"/>
<path fill-rule="nonzero" fill="rgb(98.823529%, 38.431373%, 33.333333%)" fill-opacity="1" d="M 148.894531 186.910156 C 147.144531 190.898438 145.390625 194.886719 143.640625 198.871094 C 147.144531 198.871094 150.644531 198.871094 154.148438 198.871094 C 152.398438 194.886719 150.644531 190.898438 148.894531 186.910156 Z M 148.894531 186.910156 "/>
<path fill-rule="nonzero" fill="rgb(98.823529%, 38.431373%, 33.333333%)" fill-opacity="1" d="M 72.808594 167.328125 C 72.808594 167.230469 72.734375 167.082031 72.558594 167.082031 C 72.285156 167.082031 71.289062 168.074219 70.863281 168.792969 C 70.316406 167.453125 69.34375 167.054688 68.546875 167.054688 C 65.605469 167.054688 62.539062 170.730469 62.539062 174.332031 C 62.539062 176.761719 64.011719 178.300781 65.832031 178.300781 C 66.902344 178.300781 67.875 177.707031 68.769531 176.8125 C 68.546875 177.683594 67.726562 181.03125 67.648438 181.257812 C 67.449219 181.953125 67.25 182.050781 65.855469 182.074219 C 65.53125 182.074219 65.28125 182.074219 65.28125 182.570312 C 65.28125 182.597656 65.28125 182.84375 65.605469 182.84375 C 66.402344 182.84375 67.277344 182.769531 68.097656 182.769531 C 68.945312 182.769531 69.84375 182.84375 70.664062 182.84375 C 70.789062 182.84375 71.113281 182.84375 71.113281 182.347656 C 71.113281 182.074219 70.863281 182.074219 70.464844 182.074219 C 69.269531 182.074219 69.269531 181.902344 69.269531 181.679688 C 69.269531 181.503906 69.320312 181.355469 69.371094 181.132812 C 70.515625 176.53125 71.664062 171.929688 72.808594 167.328125 Z M 65.90625 177.757812 C 64.410156 177.757812 64.308594 175.84375 64.308594 175.421875 C 64.308594 174.230469 65.03125 171.523438 65.457031 170.484375 C 66.230469 168.644531 67.523438 167.601562 68.546875 167.601562 C 70.167969 167.601562 70.515625 169.613281 70.515625 169.789062 C 70.515625 169.9375 69.144531 175.371094 69.070312 175.472656 C 68.695312 176.167969 67.300781 177.757812 65.90625 177.757812 Z M 65.90625 177.757812 "/>
<path fill-rule="nonzero" fill="rgb(98.823529%, 38.431373%, 33.333333%)" fill-opacity="1" d="M 78.515625 170.699219 C 78.515625 170.230469 78.480469 170.214844 77.992188 170.214844 C 76.875 171.308594 75.285156 171.328125 74.570312 171.328125 C 74.570312 171.535156 74.570312 171.742188 74.570312 171.953125 C 74.992188 171.953125 76.140625 171.953125 77.101562 171.464844 C 77.101562 174.417969 77.101562 177.375 77.101562 180.328125 C 77.101562 180.902344 77.101562 181.128906 75.355469 181.128906 C 75.136719 181.128906 74.914062 181.128906 74.695312 181.128906 C 74.695312 181.335938 74.695312 181.542969 74.695312 181.753906 C 75.007812 181.734375 77.152344 181.683594 77.800781 181.683594 C 78.339844 181.683594 80.539062 181.734375 80.921875 181.753906 C 80.921875 181.542969 80.921875 181.335938 80.921875 181.128906 C 80.703125 181.128906 80.480469 181.128906 80.257812 181.128906 C 78.515625 181.128906 78.515625 180.902344 78.515625 180.328125 C 78.515625 177.117188 78.515625 173.910156 78.515625 170.699219 Z M 78.515625 170.699219 "/>
<path fill-rule="nonzero" fill="rgb(98.823529%, 38.431373%, 33.333333%)" fill-opacity="1" d="M 149.691406 226.335938 C 149.691406 226.238281 149.617188 226.089844 149.445312 226.089844 C 149.167969 226.089844 148.171875 227.082031 147.75 227.800781 C 147.199219 226.460938 146.226562 226.066406 145.429688 226.066406 C 142.488281 226.066406 139.425781 229.738281 139.425781 233.339844 C 139.425781 235.769531 140.894531 237.308594 142.714844 237.308594 C 143.785156 237.308594 144.757812 236.714844 145.65625 235.820312 C 145.429688 236.691406 144.609375 240.042969 144.535156 240.265625 C 144.332031 240.960938 144.132812 241.058594 142.738281 241.082031 C 142.414062 241.082031 142.164062 241.082031 142.164062 241.582031 C 142.164062 241.605469 142.164062 241.851562 142.488281 241.851562 C 143.289062 241.851562 144.160156 241.777344 144.980469 241.777344 C 145.828125 241.777344 146.726562 241.851562 147.550781 241.851562 C 147.671875 241.851562 147.996094 241.851562 147.996094 241.355469 C 147.996094 241.082031 147.75 241.082031 147.351562 241.082031 C 146.152344 241.082031 146.152344 240.910156 146.152344 240.6875 C 146.152344 240.511719 146.203125 240.363281 146.253906 240.140625 C 147.398438 235.539062 148.546875 230.9375 149.691406 226.335938 Z M 142.789062 236.765625 C 141.292969 236.765625 141.195312 234.851562 141.195312 234.429688 C 141.195312 233.238281 141.917969 230.535156 142.339844 229.492188 C 143.113281 227.652344 144.410156 226.609375 145.429688 226.609375 C 147.050781 226.609375 147.398438 228.621094 147.398438 228.796875 C 147.398438 228.945312 146.027344 234.382812 145.953125 234.480469 C 145.582031 235.175781 144.183594 236.765625 142.789062 236.765625 Z M 142.789062 236.765625 "/>
<path fill-rule="nonzero" fill="rgb(98.823529%, 38.431373%, 33.333333%)" fill-opacity="1" d="M 158.363281 237.597656 C 158.167969 237.597656 157.96875 237.597656 157.769531 237.597656 C 157.71875 237.980469 157.542969 239.007812 157.316406 239.179688 C 157.179688 239.285156 155.835938 239.285156 155.589844 239.285156 C 154.519531 239.285156 153.449219 239.285156 152.378906 239.285156 C 154.210938 237.667969 154.824219 237.179688 155.871094 236.363281 C 157.160156 235.339844 158.363281 234.261719 158.363281 232.609375 C 158.363281 230.507812 156.515625 229.222656 154.28125 229.222656 C 152.117188 229.222656 150.652344 230.734375 150.652344 232.332031 C 150.652344 233.21875 151.402344 233.304688 151.578125 233.304688 C 151.996094 233.304688 152.503906 233.011719 152.503906 232.386719 C 152.503906 232.074219 152.378906 231.464844 151.472656 231.464844 C 152.011719 230.230469 153.199219 229.847656 154.019531 229.847656 C 155.765625 229.847656 156.671875 231.203125 156.671875 232.609375 C 156.671875 234.121094 155.589844 235.320312 155.03125 235.949219 C 153.628906 237.324219 152.230469 238.703125 150.828125 240.082031 C 150.652344 240.238281 150.652344 240.273438 150.652344 240.761719 C 153.046875 240.761719 155.445312 240.761719 157.839844 240.761719 C 158.015625 239.707031 158.191406 238.652344 158.363281 237.597656 Z M 158.363281 237.597656 "/>
<path fill="none" stroke-width="0.04" stroke-linecap="butt" stroke-linejoin="miter" stroke="rgb(98.823529%, 38.431373%, 33.333333%)" stroke-opacity="1" stroke-miterlimit="10" d="M 1.673868 1.122954 C 1.463212 1.122954 1.252555 1.122954 1.041833 1.122954 " transform="matrix(60.042899, 0, 0, -59.803197, 204.5, 122.5)"/>
<path fill-rule="nonzero" fill="rgb(98.823529%, 38.431373%, 33.333333%)" fill-opacity="1" d="M 317.015625 55.34375 C 313.011719 53.601562 309.007812 51.855469 305.003906 50.113281 C 305.003906 53.601562 305.003906 57.089844 305.003906 60.578125 C 309.007812 58.832031 313.011719 57.089844 317.015625 55.34375 Z M 317.015625 55.34375 "/>
<path fill="none" stroke-width="0.04" stroke-linecap="butt" stroke-linejoin="miter" stroke="rgb(98.823529%, 38.431373%, 33.333333%)" stroke-opacity="1" stroke-miterlimit="10" d="M 2.073908 0.722944 C 2.073908 0.604718 2.073908 0.486492 2.073908 0.368265 " transform="matrix(60.042899, 0, 0, -59.803197, 204.5, 122.5)"/>
<path fill-rule="nonzero" fill="rgb(98.823529%, 38.431373%, 33.333333%)" fill-opacity="1" d="M 329.023438 67.304688 C 327.273438 71.292969 325.519531 75.277344 323.769531 79.265625 C 327.273438 79.265625 330.773438 79.265625 334.277344 79.265625 C 332.523438 75.277344 330.773438 71.292969 329.023438 67.304688 Z M 329.023438 67.304688 "/>
<path fill-rule="nonzero" fill="rgb(98.823529%, 38.431373%, 33.333333%)" fill-opacity="1" d="M 252.222656 47.722656 C 252.222656 47.625 252.148438 47.476562 251.972656 47.476562 C 251.699219 47.476562 250.703125 48.46875 250.277344 49.1875 C 249.730469 47.847656 248.757812 47.449219 247.960938 47.449219 C 245.019531 47.449219 241.953125 51.125 241.953125 54.722656 C 241.953125 57.15625 243.425781 58.695312 245.242188 58.695312 C 246.316406 58.695312 247.289062 58.101562 248.183594 57.207031 C 247.960938 58.074219 247.136719 61.425781 247.0625 61.648438 C 246.863281 62.34375 246.664062 62.445312 245.269531 62.46875 C 244.945312 62.46875 244.695312 62.46875 244.695312 62.964844 C 244.695312 62.992188 244.695312 63.238281 245.019531 63.238281 C 245.816406 63.238281 246.6875 63.164062 247.511719 63.164062 C 248.359375 63.164062 249.257812 63.238281 250.078125 63.238281 C 250.203125 63.238281 250.527344 63.238281 250.527344 62.742188 C 250.527344 62.46875 250.277344 62.46875 249.878906 62.46875 C 248.683594 62.46875 248.683594 62.296875 248.683594 62.070312 C 248.683594 61.898438 248.734375 61.75 248.78125 61.527344 C 249.929688 56.925781 251.074219 52.324219 252.222656 47.722656 Z M 245.320312 58.148438 C 243.824219 58.148438 243.722656 56.238281 243.722656 55.816406 C 243.722656 54.625 244.445312 51.917969 244.871094 50.875 C 245.640625 49.039062 246.9375 47.996094 247.960938 47.996094 C 249.582031 47.996094 249.929688 50.007812 249.929688 50.179688 C 249.929688 50.328125 248.558594 55.765625 248.484375 55.867188 C 248.109375 56.5625 246.714844 58.148438 245.320312 58.148438 Z M 245.320312 58.148438 "/>
<path fill-rule="nonzero" fill="rgb(98.823529%, 38.431373%, 33.333333%)" fill-opacity="1" d="M 256.847656 56.34375 C 258.207031 56.34375 259.183594 57.28125 259.183594 59.140625 C 259.183594 61.296875 257.929688 61.9375 256.917969 61.9375 C 256.21875 61.9375 254.683594 61.746094 253.949219 60.722656 C 254.769531 60.6875 254.960938 60.113281 254.960938 59.75 C 254.960938 59.191406 254.542969 58.792969 254.003906 58.792969 C 253.515625 58.792969 253.027344 59.089844 253.027344 59.800781 C 253.027344 61.433594 254.839844 62.492188 256.949219 62.492188 C 259.375 62.492188 261.050781 60.878906 261.050781 59.140625 C 261.050781 57.785156 259.933594 56.429688 258.015625 56.03125 C 259.847656 55.371094 260.511719 54.066406 260.511719 53.007812 C 260.511719 51.632812 258.921875 50.609375 256.984375 50.609375 C 255.050781 50.609375 253.566406 51.546875 253.566406 52.9375 C 253.566406 53.527344 253.949219 53.859375 254.472656 53.859375 C 255.015625 53.859375 255.363281 53.457031 255.363281 52.972656 C 255.363281 52.46875 255.015625 52.101562 254.472656 52.066406 C 255.085938 51.304688 256.289062 51.113281 256.933594 51.113281 C 257.71875 51.113281 258.816406 51.496094 258.816406 53.007812 C 258.816406 53.734375 258.574219 54.535156 258.121094 55.074219 C 257.542969 55.734375 257.054688 55.769531 256.183594 55.820312 C 255.746094 55.855469 255.710938 55.855469 255.625 55.875 C 255.589844 55.875 255.449219 55.90625 255.449219 56.097656 C 255.449219 56.34375 255.609375 56.34375 255.902344 56.34375 C 256.21875 56.34375 256.53125 56.34375 256.847656 56.34375 Z M 256.847656 56.34375 "/>
<path fill-rule="nonzero" fill="rgb(98.823529%, 38.431373%, 33.333333%)" fill-opacity="1" d="M 329.613281 106.730469 C 329.613281 106.632812 329.539062 106.484375 329.363281 106.484375 C 329.089844 106.484375 328.089844 107.476562 327.667969 108.195312 C 327.121094 106.855469 326.148438 106.457031 325.351562 106.457031 C 322.410156 106.457031 319.34375 110.132812 319.34375 113.730469 C 319.34375 116.164062 320.8125 117.703125 322.632812 117.703125 C 323.703125 117.703125 324.675781 117.109375 325.574219 116.214844 C 325.351562 117.082031 324.527344 120.433594 324.453125 120.65625 C 324.253906 121.351562 324.054688 121.453125 322.65625 121.476562 C 322.335938 121.476562 322.085938 121.476562 322.085938 121.972656 C 322.085938 122 322.085938 122.246094 322.410156 122.246094 C 323.207031 122.246094 324.078125 122.171875 324.902344 122.171875 C 325.75 122.171875 326.644531 122.246094 327.46875 122.246094 C 327.59375 122.246094 327.917969 122.246094 327.917969 121.75 C 327.917969 121.476562 327.667969 121.476562 327.269531 121.476562 C 326.074219 121.476562 326.074219 121.304688 326.074219 121.082031 C 326.074219 120.90625 326.121094 120.757812 326.171875 120.535156 C 327.320312 115.933594 328.464844 111.332031 329.613281 106.730469 Z M 322.707031 117.15625 C 321.210938 117.15625 321.113281 115.246094 321.113281 114.824219 C 321.113281 113.632812 321.835938 110.925781 322.257812 109.882812 C 323.03125 108.046875 324.328125 107.003906 325.351562 107.003906 C 326.96875 107.003906 327.320312 109.015625 327.320312 109.1875 C 327.320312 109.339844 325.949219 114.773438 325.875 114.875 C 325.5 115.570312 324.105469 117.15625 322.707031 117.15625 Z M 322.707031 117.15625 "/>
<path fill-rule="nonzero" fill="rgb(98.823529%, 38.431373%, 33.333333%)" fill-opacity="1" d="M 338.703125 118.304688 C 338.703125 118.097656 338.703125 117.886719 338.703125 117.679688 C 338.058594 117.679688 337.410156 117.679688 336.765625 117.679688 C 336.765625 115.097656 336.765625 112.511719 336.765625 109.929688 C 336.765625 109.5625 336.765625 109.441406 336.382812 109.441406 C 336.171875 109.441406 336.101562 109.441406 335.929688 109.6875 C 334.003906 112.351562 332.078125 115.015625 330.152344 117.679688 C 330.152344 117.886719 330.152344 118.097656 330.152344 118.304688 C 331.863281 118.304688 333.574219 118.304688 335.28125 118.304688 C 335.28125 118.78125 335.28125 119.253906 335.28125 119.730469 C 335.28125 120.320312 335.28125 120.527344 333.871094 120.527344 C 333.710938 120.527344 333.554688 120.527344 333.398438 120.527344 C 333.398438 120.738281 333.398438 120.945312 333.398438 121.15625 C 334.269531 121.121094 335.386719 121.085938 336.015625 121.085938 C 336.660156 121.085938 337.777344 121.121094 338.648438 121.15625 C 338.648438 120.945312 338.648438 120.738281 338.648438 120.527344 C 338.492188 120.527344 338.335938 120.527344 338.179688 120.527344 C 336.765625 120.527344 336.765625 120.320312 336.765625 119.730469 C 336.765625 119.253906 336.765625 118.78125 336.765625 118.304688 C 337.410156 118.304688 338.058594 118.304688 338.703125 118.304688 Z M 335.40625 111.320312 C 335.40625 113.4375 335.40625 115.558594 335.40625 117.679688 C 333.871094 117.679688 332.335938 117.679688 330.796875 117.679688 C 332.335938 115.558594 333.871094 113.4375 335.40625 111.320312 Z M 335.40625 111.320312 "/>
<path fill="none" stroke-width="0.04" stroke-linecap="butt" stroke-linejoin="miter" stroke="rgb(60.392157%, 44.705882%, 67.45098%)" stroke-opacity="1" stroke-miterlimit="10" d="M -0.926096 -0.87703 C -0.715439 -0.87703 -0.504717 -0.87703 -0.294061 -0.87703 " transform="matrix(60.042899, 0, 0, -59.803197, 204.5, 122.5)"/>
<path fill-rule="nonzero" fill="rgb(60.392157%, 44.705882%, 67.45098%)" fill-opacity="1" d="M 198.851562 174.949219 C 194.851562 173.207031 190.847656 171.460938 186.84375 169.71875 C 186.84375 173.207031 186.84375 176.695312 186.84375 180.183594 C 190.847656 178.441406 194.851562 176.695312 198.851562 174.949219 Z M 198.851562 174.949219 "/>
<path fill="none" stroke-width="0.04" stroke-linecap="butt" stroke-linejoin="miter" stroke="rgb(60.392157%, 44.705882%, 67.45098%)" stroke-opacity="1" stroke-miterlimit="10" d="M -0.926096 -0.87703 C -0.926096 -0.758804 -0.926096 -0.640578 -0.926096 -0.522351 " transform="matrix(60.042899, 0, 0, -59.803197, 204.5, 122.5)"/>
<path fill-rule="nonzero" fill="rgb(60.392157%, 44.705882%, 67.45098%)" fill-opacity="1" d="M 148.894531 141.777344 C 147.144531 145.765625 145.390625 149.75 143.640625 153.738281 C 147.144531 153.738281 150.644531 153.738281 154.148438 153.738281 C 152.398438 149.75 150.644531 145.765625 148.894531 141.777344 Z M 148.894531 141.777344 "/>
<path fill-rule="nonzero" fill="rgb(60.392157%, 44.705882%, 67.45098%)" fill-opacity="1" d="M 212.859375 177.183594 C 213.132812 178.203125 214.003906 178.847656 215.074219 178.847656 C 215.949219 178.847656 216.523438 178.277344 216.921875 177.484375 C 217.34375 176.589844 217.667969 175.074219 217.667969 175.027344 C 217.667969 174.777344 217.445312 174.777344 217.367188 174.777344 C 217.121094 174.777344 217.09375 174.875 217.019531 175.222656 C 216.671875 176.613281 216.199219 178.300781 215.152344 178.300781 C 214.628906 178.300781 214.378906 177.980469 214.378906 177.160156 C 214.378906 176.613281 214.675781 175.449219 214.875 174.578125 C 215.109375 173.683594 215.34375 172.792969 215.574219 171.898438 C 215.648438 171.523438 215.898438 170.582031 216 170.210938 C 216.121094 169.636719 216.371094 168.695312 216.371094 168.546875 C 216.371094 168.097656 216.023438 167.875 215.648438 167.875 C 215.523438 167.875 214.875 167.902344 214.675781 168.746094 C 214.203125 170.558594 213.105469 174.902344 212.808594 176.21875 C 212.78125 176.316406 211.785156 178.300781 209.964844 178.300781 C 208.671875 178.300781 208.421875 177.183594 208.421875 176.265625 C 208.421875 174.875 209.117188 172.914062 209.765625 171.203125 C 210.066406 170.457031 210.191406 170.109375 210.191406 169.636719 C 210.191406 168.519531 209.394531 167.601562 208.148438 167.601562 C 205.777344 167.601562 204.855469 171.203125 204.855469 171.425781 C 204.855469 171.675781 205.105469 171.675781 205.15625 171.675781 C 205.40625 171.675781 205.429688 171.625 205.554688 171.226562 C 206.179688 169.066406 207.125 168.148438 208.074219 168.148438 C 208.296875 168.148438 208.695312 168.171875 208.695312 168.96875 C 208.695312 169.5625 208.421875 170.285156 208.273438 170.65625 C 207.347656 173.113281 206.824219 174.652344 206.824219 175.871094 C 206.824219 178.226562 208.546875 178.847656 209.890625 178.847656 C 211.535156 178.847656 212.433594 177.730469 212.859375 177.183594 Z M 212.859375 177.183594 "/>
<path fill-rule="nonzero" fill="rgb(60.392157%, 44.705882%, 67.45098%)" fill-opacity="1" d="M 224.246094 171.246094 C 224.246094 170.777344 224.210938 170.761719 223.722656 170.761719 C 222.605469 171.855469 221.019531 171.871094 220.304688 171.871094 C 220.304688 172.082031 220.304688 172.289062 220.304688 172.5 C 220.722656 172.5 221.875 172.5 222.835938 172.011719 C 222.835938 174.964844 222.835938 177.921875 222.835938 180.875 C 222.835938 181.449219 222.835938 181.671875 221.089844 181.671875 C 220.867188 181.671875 220.648438 181.671875 220.425781 181.671875 C 220.425781 181.882812 220.425781 182.089844 220.425781 182.300781 C 220.742188 182.28125 222.886719 182.230469 223.53125 182.230469 C 224.074219 182.230469 226.269531 182.28125 226.65625 182.300781 C 226.65625 182.089844 226.65625 181.882812 226.65625 181.671875 C 226.433594 181.671875 226.214844 181.671875 225.992188 181.671875 C 224.246094 181.671875 224.246094 181.449219 224.246094 180.875 C 224.246094 177.664062 224.246094 174.457031 224.246094 171.246094 Z M 224.246094 171.246094 "/>
<path fill-rule="nonzero" fill="rgb(60.392157%, 44.705882%, 67.45098%)" fill-opacity="1" d="M 145.714844 130.683594 C 145.992188 131.703125 146.863281 132.347656 147.933594 132.347656 C 148.808594 132.347656 149.378906 131.777344 149.78125 130.980469 C 150.203125 130.089844 150.527344 128.574219 150.527344 128.523438 C 150.527344 128.277344 150.304688 128.277344 150.226562 128.277344 C 149.980469 128.277344 149.953125 128.375 149.878906 128.722656 C 149.53125 130.113281 149.054688 131.800781 148.007812 131.800781 C 147.488281 131.800781 147.238281 131.476562 147.238281 130.660156 C 147.238281 130.113281 147.535156 128.945312 147.734375 128.078125 C 147.96875 127.183594 148.199219 126.289062 148.433594 125.394531 C 148.507812 125.023438 148.757812 124.082031 148.855469 123.707031 C 148.980469 123.136719 149.230469 122.195312 149.230469 122.042969 C 149.230469 121.597656 148.882812 121.375 148.507812 121.375 C 148.382812 121.375 147.734375 121.398438 147.535156 122.242188 C 147.0625 124.054688 145.964844 128.398438 145.667969 129.714844 C 145.640625 129.816406 144.644531 131.800781 142.824219 131.800781 C 141.53125 131.800781 141.28125 130.683594 141.28125 129.765625 C 141.28125 128.375 141.976562 126.414062 142.625 124.699219 C 142.925781 123.957031 143.050781 123.609375 143.050781 123.136719 C 143.050781 122.019531 142.253906 121.101562 141.007812 121.101562 C 138.636719 121.101562 137.714844 124.699219 137.714844 124.925781 C 137.714844 125.171875 137.964844 125.171875 138.015625 125.171875 C 138.265625 125.171875 138.289062 125.125 138.414062 124.726562 C 139.035156 122.566406 139.984375 121.648438 140.929688 121.648438 C 141.15625 121.648438 141.554688 121.671875 141.554688 122.46875 C 141.554688 123.0625 141.28125 123.78125 141.128906 124.15625 C 140.207031 126.613281 139.683594 128.152344 139.683594 129.367188 C 139.683594 131.726562 141.40625 132.347656 142.75 132.347656 C 144.394531 132.347656 145.292969 131.230469 145.714844 130.683594 Z M 145.714844 130.683594 "/>
<path fill-rule="nonzero" fill="rgb(60.392157%, 44.705882%, 67.45098%)" fill-opacity="1" d="M 160.070312 132.636719 C 159.875 132.636719 159.675781 132.636719 159.480469 132.636719 C 159.425781 133.015625 159.253906 134.042969 159.023438 134.214844 C 158.886719 134.320312 157.542969 134.320312 157.296875 134.320312 C 156.226562 134.320312 155.15625 134.320312 154.085938 134.320312 C 155.917969 132.703125 156.53125 132.21875 157.578125 131.402344 C 158.867188 130.375 160.070312 129.296875 160.070312 127.648438 C 160.070312 125.546875 158.222656 124.257812 155.988281 124.257812 C 153.824219 124.257812 152.359375 125.769531 152.359375 127.371094 C 152.359375 128.257812 153.109375 128.34375 153.285156 128.34375 C 153.703125 128.34375 154.210938 128.046875 154.210938 127.421875 C 154.210938 127.109375 154.085938 126.5 153.179688 126.5 C 153.722656 125.265625 154.90625 124.882812 155.726562 124.882812 C 157.472656 124.882812 158.378906 126.238281 158.378906 127.648438 C 158.378906 129.160156 157.296875 130.359375 156.738281 130.984375 C 155.339844 132.363281 153.9375 133.742188 152.535156 135.121094 C 152.359375 135.277344 152.359375 135.3125 152.359375 135.796875 C 154.757812 135.796875 157.152344 135.796875 159.546875 135.796875 C 159.722656 134.742188 159.898438 133.6875 160.070312 132.636719 Z M 160.070312 132.636719 "/>
<path fill="none" stroke-width="0.04" stroke-linecap="butt" stroke-linejoin="miter" stroke="rgb(60.392157%, 44.705882%, 67.45098%)" stroke-opacity="1" stroke-miterlimit="10" d="M 2.073908 1.122954 C 2.284564 1.122954 2.495286 1.122954 2.705943 1.122954 " transform="matrix(60.042899, 0, 0, -59.803197, 204.5, 122.5)"/>
<path fill-rule="nonzero" fill="rgb(60.392157%, 44.705882%, 67.45098%)" fill-opacity="1" d="M 378.980469 55.34375 C 374.980469 53.601562 370.976562 51.855469 366.972656 50.113281 C 366.972656 53.601562 366.972656 57.089844 366.972656 60.578125 C 370.976562 58.832031 374.980469 57.089844 378.980469 55.34375 Z M 378.980469 55.34375 "/>
<path fill="none" stroke-width="0.04" stroke-linecap="butt" stroke-linejoin="miter" stroke="rgb(60.392157%, 44.705882%, 67.45098%)" stroke-opacity="1" stroke-miterlimit="10" d="M 2.073908 1.122954 C 2.073908 1.241181 2.073908 1.359407 2.073908 1.477633 " transform="matrix(60.042899, 0, 0, -59.803197, 204.5, 122.5)"/>
<path fill-rule="nonzero" fill="rgb(60.392157%, 44.705882%, 67.45098%)" fill-opacity="1" d="M 329.023438 22.171875 C 327.273438 26.160156 325.519531 30.144531 323.769531 34.132812 C 327.273438 34.132812 330.773438 34.132812 334.277344 34.132812 C 332.523438 30.144531 330.773438 26.160156 329.023438 22.171875 Z M 329.023438 22.171875 "/>
<path fill-rule="nonzero" fill="rgb(60.392157%, 44.705882%, 67.45098%)" fill-opacity="1" d="M 392.988281 57.40625 C 393.261719 58.421875 394.132812 59.066406 395.203125 59.066406 C 396.078125 59.066406 396.648438 58.496094 397.050781 57.703125 C 397.472656 56.808594 397.796875 55.292969 397.796875 55.246094 C 397.796875 54.996094 397.574219 54.996094 397.496094 54.996094 C 397.25 54.996094 397.222656 55.097656 397.148438 55.445312 C 396.800781 56.835938 396.328125 58.523438 395.28125 58.523438 C 394.757812 58.523438 394.507812 58.199219 394.507812 57.378906 C 394.507812 56.835938 394.804688 55.667969 395.003906 54.796875 C 395.238281 53.90625 395.46875 53.011719 395.703125 52.117188 C 395.777344 51.746094 396.027344 50.800781 396.128906 50.429688 C 396.25 49.859375 396.5 48.914062 396.5 48.765625 C 396.5 48.320312 396.152344 48.09375 395.777344 48.09375 C 395.652344 48.09375 395.003906 48.121094 394.804688 48.964844 C 394.332031 50.777344 393.234375 55.121094 392.9375 56.4375 C 392.910156 56.535156 391.914062 58.523438 390.09375 58.523438 C 388.800781 58.523438 388.550781 57.40625 388.550781 56.488281 C 388.550781 55.097656 389.246094 53.136719 389.894531 51.421875 C 390.195312 50.675781 390.320312 50.328125 390.320312 49.859375 C 390.320312 48.742188 389.523438 47.824219 388.277344 47.824219 C 385.90625 47.824219 384.984375 51.421875 384.984375 51.644531 C 384.984375 51.894531 385.234375 51.894531 385.285156 51.894531 C 385.535156 51.894531 385.558594 51.84375 385.683594 51.445312 C 386.308594 49.289062 387.253906 48.367188 388.199219 48.367188 C 388.425781 48.367188 388.824219 48.394531 388.824219 49.1875 C 388.824219 49.785156 388.550781 50.503906 388.402344 50.875 C 387.476562 53.332031 386.953125 54.871094 386.953125 56.089844 C 386.953125 58.449219 388.675781 59.066406 390.019531 59.066406 C 391.664062 59.066406 392.5625 57.953125 392.988281 57.40625 Z M 392.988281 57.40625 "/>
<path fill-rule="nonzero" fill="rgb(60.392157%, 44.705882%, 67.45098%)" fill-opacity="1" d="M 403.292969 56.714844 C 404.65625 56.714844 405.632812 57.652344 405.632812 59.511719 C 405.632812 61.667969 404.375 62.308594 403.363281 62.308594 C 402.667969 62.308594 401.128906 62.121094 400.398438 61.09375 C 401.21875 61.058594 401.410156 60.484375 401.410156 60.121094 C 401.410156 59.566406 400.992188 59.164062 400.449219 59.164062 C 399.960938 59.164062 399.472656 59.460938 399.472656 60.171875 C 399.472656 61.804688 401.289062 62.867188 403.398438 62.867188 C 405.824219 62.867188 407.5 61.25 407.5 59.511719 C 407.5 58.15625 406.382812 56.800781 404.464844 56.402344 C 406.296875 55.742188 406.957031 54.4375 406.957031 53.378906 C 406.957031 52.003906 405.371094 50.980469 403.433594 50.980469 C 401.496094 50.980469 400.015625 51.917969 400.015625 53.308594 C 400.015625 53.898438 400.398438 54.230469 400.921875 54.230469 C 401.460938 54.230469 401.8125 53.832031 401.8125 53.34375 C 401.8125 52.839844 401.460938 52.476562 400.921875 52.441406 C 401.53125 51.675781 402.734375 51.484375 403.382812 51.484375 C 404.167969 51.484375 405.265625 51.867188 405.265625 53.378906 C 405.265625 54.109375 405.019531 54.90625 404.566406 55.445312 C 403.992188 56.105469 403.503906 56.140625 402.632812 56.195312 C 402.195312 56.226562 402.160156 56.226562 402.074219 56.246094 C 402.039062 56.246094 401.898438 56.28125 401.898438 56.472656 C 401.898438 56.714844 402.054688 56.714844 402.351562 56.714844 C 402.667969 56.714844 402.980469 56.714844 403.292969 56.714844 Z M 403.292969 56.714844 "/>
<path fill-rule="nonzero" fill="rgb(60.392157%, 44.705882%, 67.45098%)" fill-opacity="1" d="M 325.636719 11.078125 C 325.910156 12.09375 326.78125 12.742188 327.855469 12.742188 C 328.726562 12.742188 329.300781 12.167969 329.699219 11.375 C 330.121094 10.480469 330.445312 8.96875 330.445312 8.917969 C 330.445312 8.667969 330.222656 8.667969 330.148438 8.667969 C 329.898438 8.667969 329.875 8.769531 329.796875 9.117188 C 329.449219 10.507812 328.976562 12.195312 327.929688 12.195312 C 327.40625 12.195312 327.15625 11.871094 327.15625 11.050781 C 327.15625 10.507812 327.457031 9.339844 327.65625 8.472656 C 327.886719 7.578125 328.121094 6.683594 328.351562 5.789062 C 328.425781 5.417969 328.675781 4.472656 328.777344 4.101562 C 328.902344 3.53125 329.148438 2.585938 329.148438 2.4375 C 329.148438 1.992188 328.800781 1.769531 328.425781 1.769531 C 328.304688 1.769531 327.65625 1.792969 327.457031 2.636719 C 326.980469 4.449219 325.886719 8.792969 325.585938 10.109375 C 325.5625 10.207031 324.5625 12.195312 322.746094 12.195312 C 321.449219 12.195312 321.199219 11.078125 321.199219 10.160156 C 321.199219 8.769531 321.898438 6.808594 322.546875 5.09375 C 322.84375 4.351562 322.96875 4.003906 322.96875 3.53125 C 322.96875 2.414062 322.171875 1.496094 320.925781 1.496094 C 318.558594 1.496094 317.636719 5.09375 317.636719 5.316406 C 317.636719 5.566406 317.882812 5.566406 317.933594 5.566406 C 318.183594 5.566406 318.207031 5.515625 318.332031 5.121094 C 318.957031 2.960938 319.902344 2.042969 320.851562 2.042969 C 321.074219 2.042969 321.472656 2.066406 321.472656 2.859375 C 321.472656 3.457031 321.199219 4.175781 321.050781 4.546875 C 320.128906 7.007812 319.605469 8.546875 319.605469 9.761719 C 319.605469 12.121094 321.324219 12.742188 322.671875 12.742188 C 324.316406 12.742188 325.210938 11.625 325.636719 11.078125 Z M 325.636719 11.078125 "/>
<path fill-rule="nonzero" fill="rgb(60.392157%, 44.705882%, 67.45098%)" fill-opacity="1" d="M 340.410156 13.339844 C 340.410156 13.132812 340.410156 12.925781 340.410156 12.714844 C 339.765625 12.714844 339.117188 12.714844 338.472656 12.714844 C 338.472656 10.132812 338.472656 7.550781 338.472656 4.964844 C 338.472656 4.601562 338.472656 4.480469 338.089844 4.480469 C 337.878906 4.480469 337.8125 4.480469 337.636719 4.722656 C 335.710938 7.386719 333.785156 10.050781 331.859375 12.714844 C 331.859375 12.925781 331.859375 13.132812 331.859375 13.339844 C 333.570312 13.339844 335.28125 13.339844 336.992188 13.339844 C 336.992188 13.816406 336.992188 14.292969 336.992188 14.765625 C 336.992188 15.355469 336.992188 15.566406 335.578125 15.566406 C 335.421875 15.566406 335.261719 15.566406 335.105469 15.566406 C 335.105469 15.773438 335.105469 15.984375 335.105469 16.191406 C 335.980469 16.15625 337.09375 16.121094 337.722656 16.121094 C 338.367188 16.121094 339.484375 16.15625 340.359375 16.191406 C 340.359375 15.984375 340.359375 15.773438 340.359375 15.566406 C 340.199219 15.566406 340.042969 15.566406 339.886719 15.566406 C 338.472656 15.566406 338.472656 15.355469 338.472656 14.765625 C 338.472656 14.292969 338.472656 13.816406 338.472656 13.339844 C 339.117188 13.339844 339.765625 13.339844 340.410156 13.339844 Z M 337.113281 6.355469 C 337.113281 8.476562 337.113281 10.597656 337.113281 12.714844 C 335.578125 12.714844 334.042969 12.714844 332.507812 12.714844 C 334.042969 10.597656 335.578125 8.476562 337.113281 6.355469 Z M 337.113281 6.355469 "/>
<path fill="none" stroke-width="0.03" stroke-linecap="butt" stroke-linejoin="miter" stroke="rgb(0%, 0%, 0%)" stroke-opacity="1" stroke-miterlimit="10" d="M -3.285216 -1.877055 C -2.972744 -1.877055 -2.660207 -1.877055 -2.347735 -1.877055 " transform="matrix(60.042899, 0, 0, -59.803197, 204.5, 122.5)"/>
<path fill-rule="nonzero" fill="rgb(0%, 0%, 0%)" fill-opacity="1" stroke-width="0.03" stroke-linecap="butt" stroke-linejoin="miter" stroke="rgb(0%, 0%, 0%)" stroke-opacity="1" stroke-miterlimit="10" d="M -2.285215 -1.877055 C -2.318525 -1.860399 -2.351899 -1.843743 -2.385209 -1.827087 C -2.372718 -1.843743 -2.360227 -1.860399 -2.347735 -1.877055 C -2.360227 -1.893711 -2.372718 -1.910368 -2.385209 -1.927089 C -2.351899 -1.910368 -2.318525 -1.893711 -2.285215 -1.877055 Z M -2.285215 -1.877055 " transform="matrix(60.042899, 0, 0, -59.803197, 204.5, 122.5)"/>
<path fill="none" stroke-width="0.03" stroke-linecap="butt" stroke-linejoin="miter" stroke="rgb(0%, 0%, 0%)" stroke-opacity="1" stroke-miterlimit="10" d="M -3.285216 -1.877055 C -3.285216 -1.564572 -3.285216 -1.252089 -3.285216 -0.93954 " transform="matrix(60.042899, 0, 0, -59.803197, 204.5, 122.5)"/>
<path fill-rule="nonzero" fill="rgb(0%, 0%, 0%)" fill-opacity="1" stroke-width="0.03" stroke-linecap="butt" stroke-linejoin="miter" stroke="rgb(0%, 0%, 0%)" stroke-opacity="1" stroke-miterlimit="10" d="M -3.285216 -0.87703 C -3.301871 -0.910408 -3.318526 -0.94372 -3.335246 -0.977033 C -3.318526 -0.964557 -3.301871 -0.952081 -3.285216 -0.93954 C -3.268561 -0.952081 -3.251907 -0.964557 -3.235187 -0.977033 C -3.251907 -0.94372 -3.268561 -0.910408 -3.285216 -0.87703 Z M -3.285216 -0.87703 " transform="matrix(60.042899, 0, 0, -59.803197, 204.5, 122.5)"/>
<path fill-rule="nonzero" fill="rgb(0%, 0%, 0%)" fill-opacity="1" d="M 10.25 234.753906 C 10.25 233.960938 9.933594 233.199219 9.367188 232.640625 C 8.804688 232.078125 8.042969 231.765625 7.246094 231.765625 C 6.449219 231.765625 5.6875 232.078125 5.125 232.640625 C 4.558594 233.199219 4.242188 233.960938 4.242188 234.753906 C 4.242188 235.546875 4.558594 236.308594 5.125 236.867188 C 5.6875 237.429688 6.449219 237.746094 7.246094 237.746094 C 8.042969 237.746094 8.804688 237.429688 9.367188 236.867188 C 9.933594 236.308594 10.25 235.546875 10.25 234.753906 Z M 10.25 234.753906 "/>
<path fill-rule="nonzero" fill="rgb(0%, 0%, 0%)" fill-opacity="1" d="M 80.386719 226.003906 C 79.273438 227.128906 78.160156 228.253906 77.046875 229.378906 C 77.195312 229.527344 77.34375 229.675781 77.496094 229.828125 C 78.457031 228.980469 79.421875 228.136719 80.386719 227.292969 C 81.339844 228.136719 82.296875 228.980469 83.25 229.828125 C 83.402344 229.675781 83.550781 229.527344 83.699219 229.378906 C 82.59375 228.253906 81.492188 227.128906 80.386719 226.003906 Z M 80.386719 226.003906 "/>
<path fill-rule="nonzero" fill="rgb(0%, 0%, 0%)" fill-opacity="1" d="M 80.894531 235.734375 C 81.042969 235.089844 81.617188 232.804688 83.363281 232.804688 C 83.488281 232.804688 84.085938 232.804688 84.609375 233.128906 C 83.910156 233.253906 83.414062 233.871094 83.414062 234.46875 C 83.414062 234.867188 83.6875 235.335938 84.359375 235.335938 C 84.90625 235.335938 85.707031 234.890625 85.707031 233.898438 C 85.707031 232.605469 84.234375 232.257812 83.386719 232.257812 C 81.941406 232.257812 81.070312 233.574219 80.769531 234.144531 C 80.148438 232.507812 78.800781 232.257812 78.078125 232.257812 C 75.488281 232.257812 74.066406 235.460938 74.066406 236.082031 C 74.066406 236.332031 74.316406 236.332031 74.363281 236.332031 C 74.566406 236.332031 74.640625 236.28125 74.6875 236.058594 C 75.535156 233.425781 77.179688 232.804688 78.027344 232.804688 C 78.503906 232.804688 79.375 233.027344 79.375 234.46875 C 79.375 235.238281 78.953125 236.902344 78.027344 240.378906 C 77.628906 241.917969 76.757812 242.957031 75.660156 242.957031 C 75.511719 242.957031 74.9375 242.957031 74.414062 242.636719 C 75.039062 242.511719 75.585938 241.992188 75.585938 241.296875 C 75.585938 240.625 75.039062 240.425781 74.664062 240.425781 C 73.917969 240.425781 73.292969 241.070312 73.292969 241.867188 C 73.292969 243.007812 74.539062 243.503906 75.636719 243.503906 C 77.28125 243.503906 78.179688 241.765625 78.253906 241.617188 C 78.550781 242.535156 79.449219 243.503906 80.945312 243.503906 C 83.511719 243.503906 84.933594 240.300781 84.933594 239.683594 C 84.933594 239.433594 84.707031 239.433594 84.632812 239.433594 C 84.410156 239.433594 84.359375 239.53125 84.308594 239.707031 C 83.488281 242.363281 81.792969 242.957031 80.996094 242.957031 C 80.023438 242.957031 79.625 242.164062 79.625 241.320312 C 79.625 240.773438 79.773438 240.226562 80.046875 239.136719 C 80.332031 238.003906 80.613281 236.867188 80.894531 235.734375 Z M 80.894531 235.734375 "/>
<path fill-rule="nonzero" fill="rgb(0%, 0%, 0%)" fill-opacity="1" d="M 8.71875 146.652344 C 7.605469 147.777344 6.492188 148.902344 5.378906 150.027344 C 5.53125 150.179688 5.679688 150.328125 5.828125 150.476562 C 6.792969 149.632812 7.757812 148.789062 8.71875 147.945312 C 9.675781 148.789062 10.632812 149.632812 11.585938 150.476562 C 11.734375 150.328125 11.886719 150.179688 12.035156 150.027344 C 10.929688 148.902344 9.824219 147.777344 8.71875 146.652344 Z M 8.71875 146.652344 "/>
<path fill-rule="nonzero" fill="rgb(0%, 0%, 0%)" fill-opacity="1" d="M 12.890625 154.421875 C 12.992188 154.074219 12.992188 154.027344 12.992188 153.851562 C 12.992188 153.40625 12.640625 153.183594 12.269531 153.183594 C 12.019531 153.183594 11.621094 153.332031 11.394531 153.703125 C 11.347656 153.828125 11.148438 154.597656 11.046875 155.042969 C 10.871094 155.6875 10.699219 156.359375 10.546875 157.03125 C 10.175781 158.519531 9.800781 160.007812 9.425781 161.5 C 9.328125 161.871094 8.253906 163.609375 6.609375 163.609375 C 5.339844 163.609375 5.066406 162.515625 5.066406 161.597656 C 5.066406 160.457031 5.488281 158.917969 6.335938 156.730469 C 6.734375 155.714844 6.835938 155.441406 6.835938 154.945312 C 6.835938 153.828125 6.039062 152.910156 4.792969 152.910156 C 2.421875 152.910156 1.5 156.507812 1.5 156.730469 C 1.5 156.980469 1.75 156.980469 1.800781 156.980469 C 2.050781 156.980469 2.074219 156.929688 2.199219 156.535156 C 2.871094 154.199219 3.867188 153.453125 4.714844 153.453125 C 4.914062 153.453125 5.339844 153.453125 5.339844 154.25 C 5.339844 154.871094 5.089844 155.515625 4.914062 155.988281 C 3.917969 158.617188 3.46875 160.035156 3.46875 161.199219 C 3.46875 163.410156 5.039062 164.15625 6.511719 164.15625 C 7.484375 164.15625 8.332031 163.734375 9.027344 163.039062 C 8.703125 164.328125 8.40625 165.542969 7.40625 166.859375 C 6.761719 167.703125 5.8125 168.425781 4.667969 168.425781 C 4.316406 168.425781 3.195312 168.351562 2.773438 167.382812 C 3.171875 167.382812 3.496094 167.382812 3.84375 167.082031 C 4.09375 166.859375 4.34375 166.539062 4.34375 166.066406 C 4.34375 165.296875 3.667969 165.195312 3.421875 165.195312 C 2.847656 165.195312 2.023438 165.59375 2.023438 166.8125 C 2.023438 168.050781 3.121094 168.96875 4.667969 168.96875 C 7.234375 168.96875 9.800781 166.710938 10.5 163.90625 C 11.296875 160.746094 12.09375 157.585938 12.890625 154.421875 Z M 12.890625 154.421875 "/>
<path fill="none" stroke-width="0.03" stroke-linecap="butt" stroke-linejoin="miter" stroke="rgb(46.666667%, 69.019608%, 36.470588%)" stroke-opacity="1" stroke-miterlimit="10" d="M 0.273893 -0.0770757 C 0.307202 -0.0770757 0.340577 -0.0770757 0.373886 -0.0770757 " transform="matrix(60.042899, 0, 0, -59.803197, 204.5, 122.5)"/>
<path fill="none" stroke-width="0.03" stroke-linecap="butt" stroke-linejoin="miter" stroke="rgb(46.666667%, 69.019608%, 36.470588%)" stroke-opacity="1" stroke-miterlimit="10" d="M 0.498927 -0.0770757 C 0.532237 -0.0770757 0.565546 -0.0770757 0.598921 -0.0770757 " transform="matrix(60.042899, 0, 0, -59.803197, 204.5, 122.5)"/>
<path fill="none" stroke-width="0.03" stroke-linecap="butt" stroke-linejoin="miter" stroke="rgb(46.666667%, 69.019608%, 36.470588%)" stroke-opacity="1" stroke-miterlimit="10" d="M 0.723896 -0.0770757 C 0.757206 -0.0770757 0.790581 -0.0770757 0.82389 -0.0770757 " transform="matrix(60.042899, 0, 0, -59.803197, 204.5, 122.5)"/>
<path fill="none" stroke-width="0.03" stroke-linecap="butt" stroke-linejoin="miter" stroke="rgb(46.666667%, 69.019608%, 36.470588%)" stroke-opacity="1" stroke-miterlimit="10" d="M 0.948866 -0.0770757 C 0.98224 -0.0770757 1.01555 -0.0770757 1.048925 -0.0770757 " transform="matrix(60.042899, 0, 0, -59.803197, 204.5, 122.5)"/>
<path fill="none" stroke-width="0.03" stroke-linecap="butt" stroke-linejoin="miter" stroke="rgb(46.666667%, 69.019608%, 36.470588%)" stroke-opacity="1" stroke-miterlimit="10" d="M 1.1739 -0.0770757 C 1.20721 -0.0770757 1.240584 -0.0770757 1.273894 -0.0770757 " transform="matrix(60.042899, 0, 0, -59.803197, 204.5, 122.5)"/>
<path fill="none" stroke-width="0.03" stroke-linecap="butt" stroke-linejoin="miter" stroke="rgb(46.666667%, 69.019608%, 36.470588%)" stroke-opacity="1" stroke-miterlimit="10" d="M 1.16284 -0.217837 C 1.16811 -0.184459 1.171493 -0.150755 1.172989 -0.11692 C 1.174486 -0.0831503 1.174095 -0.0492501 1.171818 -0.0154805 C 1.169476 0.0182892 1.165248 0.0518628 1.159132 0.0851752 C 1.153082 0.118422 1.14508 0.151343 1.135256 0.183741 C 1.125497 0.216139 1.113852 0.247949 1.10045 0.27904 C 1.087048 0.310132 1.071955 0.340374 1.05517 0.369768 C 1.03832 0.399161 1.019909 0.427574 0.999871 0.454877 C 0.979898 0.482181 0.958364 0.508308 0.935399 0.533194 " transform="matrix(60.042899, 0, 0, -59.803197, 204.5, 122.5)"/>
<path fill-rule="nonzero" fill="rgb(46.666667%, 69.019608%, 36.470588%)" fill-opacity="1" d="M 279.464844 146.597656 C 279.464844 144.960938 279.015625 141.507812 276.476562 141.507812 C 273.011719 141.507812 269.171875 148.507812 269.171875 154.195312 C 269.171875 156.527344 269.894531 159.28125 272.164062 159.28125 C 275.675781 159.28125 279.464844 152.160156 279.464844 146.597656 Z M 271.8125 150 C 272.238281 148.410156 272.734375 146.421875 273.734375 144.660156 C 274.40625 143.445312 275.328125 142.054688 276.449219 142.054688 C 277.671875 142.054688 277.820312 143.644531 277.820312 145.058594 C 277.820312 146.273438 277.621094 147.539062 277.023438 150 C 275.285156 150 273.550781 150 271.8125 150 Z M 276.796875 150.792969 C 276.523438 151.933594 276 154.046875 275.054688 155.832031 C 274.183594 157.519531 273.234375 158.738281 272.164062 158.738281 C 271.339844 158.738281 270.816406 158.015625 270.816406 155.707031 C 270.816406 154.664062 270.964844 153.226562 271.613281 150.792969 C 273.34375 150.792969 275.070312 150.792969 276.796875 150.792969 Z M 276.796875 150.792969 "/>
</svg>
