<?xml version="1.0" encoding="UTF-8"?>
<svg xmlns="http://www.w3.org/2000/svg" xmlns:xlink="http://www.w3.org/1999/xlink" width="618" height="76" viewBox="0 0 618 76">
<path fill="none" stroke-width="0.04" stroke-linecap="butt" stroke-linejoin="miter" stroke="rgb(0%, 0%, 0%)" stroke-opacity="1" stroke-miterlimit="10" d="M -1.571663 0.0333184 C 0.095049 0.0333184 1.761696 0.0333184 3.428344 0.0333184 " transform="matrix(59.960852, 0, 0, -59.557913, 309, 38)"/>
<path fill-rule="nonzero" fill="rgb(0%, 0%, 0%)" fill-opacity="1" d="M 220.757812 36.015625 C 220.757812 34.4375 220.128906 32.921875 219.003906 31.804688 C 217.878906 30.6875 216.355469 30.0625 214.761719 30.0625 C 213.171875 30.0625 211.648438 30.6875 210.523438 31.804688 C 209.398438 32.921875 208.765625 34.4375 208.765625 36.015625 C 208.765625 37.597656 209.398438 39.113281 210.523438 40.230469 C 211.648438 41.34375 213.171875 41.972656 214.761719 41.972656 C 216.355469 41.972656 217.878906 41.34375 219.003906 40.230469 C 220.128906 39.113281 220.757812 37.597656 220.757812 36.015625 Z M 220.757812 36.015625 "/>
<path fill-rule="nonzero" fill="rgb(0%, 0%, 0%)" fill-opacity="1" d="M 520.5625 36.015625 C 520.5625 34.4375 519.933594 32.921875 518.808594 31.804688 C 517.683594 30.6875 516.15625 30.0625 514.566406 30.0625 C 512.976562 30.0625 511.453125 30.6875 510.328125 31.804688 C 509.203125 32.921875 508.570312 34.4375 508.570312 36.015625 C 508.570312 37.597656 509.203125 39.113281 510.328125 40.230469 C 511.453125 41.34375 512.976562 41.972656 514.566406 41.972656 C 516.15625 41.972656 517.683594 41.34375 518.808594 40.230469 C 519.933594 39.113281 520.5625 37.597656 520.5625 36.015625 Z M 520.5625 36.015625 "/>
<path fill="none" stroke-width="0.04" stroke-linecap="butt" stroke-linejoin="miter" stroke="rgb(98.823529%, 38.431373%, 33.333333%)" stroke-opacity="1" stroke-miterlimit="10" d="M -3.271666 0.0333184 C -2.871665 0.0333184 -2.471665 0.0333184 -2.071664 0.0333184 " transform="matrix(59.960852, 0, 0, -59.557913, 309, 38)"/>
<path fill-rule="nonzero" fill="rgb(98.823529%, 38.431373%, 33.333333%)" fill-opacity="1" d="M 202.769531 36.015625 C 196.773438 33.535156 190.777344 31.054688 184.78125 28.574219 C 184.78125 33.535156 184.78125 38.5 184.78125 43.460938 C 190.777344 40.980469 196.773438 38.5 202.769531 36.015625 Z M 202.769531 36.015625 "/>
<path fill="none" stroke-width="0.04" stroke-linecap="butt" stroke-linejoin="miter" stroke="rgb(98.823529%, 38.431373%, 33.333333%)" stroke-opacity="1" stroke-miterlimit="10" d="M 3.628344 0.0333184 C 4.028344 0.0333184 4.428345 0.0333184 4.828346 0.0333184 " transform="matrix(59.960852, 0, 0, -59.557913, 309, 38)"/>
<path fill-rule="nonzero" fill="rgb(98.823529%, 38.431373%, 33.333333%)" fill-opacity="1" d="M 616.5 36.015625 C 610.503906 33.535156 604.507812 31.054688 598.511719 28.574219 C 598.511719 33.535156 598.511719 38.5 598.511719 43.460938 C 604.507812 40.980469 610.503906 38.5 616.5 36.015625 Z M 616.5 36.015625 "/>
<path fill-rule="nonzero" fill="rgb(0%, 0%, 0%)" fill-opacity="1" d="M 217.824219 4.777344 C 217.824219 4.28125 217.476562 3.886719 216.902344 3.886719 C 216.230469 3.886719 215.558594 4.53125 215.558594 5.199219 C 215.558594 5.667969 215.910156 6.085938 216.503906 6.085938 C 217.078125 6.085938 217.824219 5.519531 217.824219 4.777344 Z M 215.933594 14.074219 C 216.230469 13.355469 216.230469 13.304688 216.480469 12.640625 C 216.679688 12.144531 216.804688 11.796875 216.804688 11.328125 C 216.804688 10.214844 216.007812 9.300781 214.761719 9.300781 C 212.421875 9.300781 211.476562 12.886719 211.476562 13.109375 C 211.476562 13.355469 211.726562 13.355469 211.777344 13.355469 C 212.023438 13.355469 212.050781 13.304688 212.175781 12.910156 C 212.847656 10.585938 213.84375 9.84375 214.6875 9.84375 C 214.886719 9.84375 215.3125 9.84375 215.3125 10.636719 C 215.3125 11.15625 215.136719 11.675781 215.035156 11.921875 C 214.839844 12.566406 213.71875 15.433594 213.320312 16.496094 C 213.070312 17.136719 212.746094 17.953125 212.746094 18.472656 C 212.746094 19.636719 213.59375 20.5 214.789062 20.5 C 217.128906 20.5 218.046875 16.917969 218.046875 16.695312 C 218.046875 16.445312 217.824219 16.445312 217.75 16.445312 C 217.5 16.445312 217.5 16.519531 217.375 16.890625 C 216.929688 18.449219 216.105469 19.957031 214.839844 19.957031 C 214.414062 19.957031 214.242188 19.710938 214.242188 19.140625 C 214.242188 18.523438 214.390625 18.175781 214.960938 16.667969 C 215.285156 15.804688 215.609375 14.9375 215.933594 14.074219 Z M 215.933594 14.074219 "/>
<path fill-rule="nonzero" fill="rgb(0%, 0%, 0%)" fill-opacity="1" d="M 519.671875 2.378906 C 519.671875 1.910156 519.320312 1.488281 518.722656 1.488281 C 518.152344 1.488281 517.40625 2.058594 517.40625 2.800781 C 517.40625 3.292969 517.753906 3.6875 518.324219 3.6875 C 518.996094 3.6875 519.671875 3.046875 519.671875 2.378906 Z M 514.667969 19.066406 C 514.195312 20.945312 513 22.355469 511.605469 22.355469 C 511.457031 22.355469 511.082031 22.355469 510.636719 22.132812 C 511.382812 21.960938 511.753906 21.316406 511.753906 20.824219 C 511.753906 20.425781 511.480469 19.957031 510.808594 19.957031 C 510.1875 19.957031 509.464844 20.476562 509.464844 21.367188 C 509.464844 22.355469 510.460938 22.898438 511.65625 22.898438 C 513.398438 22.898438 515.710938 21.589844 516.335938 19.140625 C 517.097656 16.125 517.863281 13.109375 518.625 10.09375 C 518.75 9.597656 518.75 9.253906 518.75 9.179688 C 518.75 7.769531 517.703125 6.902344 516.460938 6.902344 C 513.921875 6.902344 512.5 10.488281 512.5 10.710938 C 512.5 10.957031 512.75 10.957031 512.800781 10.957031 C 513.023438 10.957031 513.050781 10.933594 513.25 10.464844 C 513.871094 8.957031 515.015625 7.445312 516.382812 7.445312 C 516.734375 7.445312 517.179688 7.546875 517.179688 8.585938 C 517.179688 9.152344 517.105469 9.425781 517.007812 9.84375 C 516.226562 12.917969 515.445312 15.992188 514.667969 19.066406 Z M 514.667969 19.066406 "/>
<path fill-rule="nonzero" fill="rgb(98.823529%, 38.431373%, 33.333333%)" fill-opacity="1" d="M 158.875 7.164062 C 158.875 7.066406 158.800781 6.917969 158.628906 6.917969 C 158.355469 6.917969 157.359375 7.90625 156.933594 8.625 C 156.386719 7.289062 155.417969 6.894531 154.621094 6.894531 C 151.683594 6.894531 148.621094 10.550781 148.621094 14.136719 C 148.621094 16.558594 150.089844 18.09375 151.90625 18.09375 C 152.976562 18.09375 153.949219 17.5 154.84375 16.609375 C 154.621094 17.472656 153.800781 20.8125 153.722656 21.035156 C 153.523438 21.726562 153.328125 21.824219 151.933594 21.851562 C 151.609375 21.851562 151.359375 21.851562 151.359375 22.34375 C 151.359375 22.371094 151.359375 22.617188 151.683594 22.617188 C 152.480469 22.617188 153.351562 22.542969 154.171875 22.542969 C 155.019531 22.542969 155.914062 22.617188 156.734375 22.617188 C 156.859375 22.617188 157.183594 22.617188 157.183594 22.121094 C 157.183594 21.851562 156.933594 21.851562 156.535156 21.851562 C 155.34375 21.851562 155.34375 21.675781 155.34375 21.453125 C 155.34375 21.28125 155.390625 21.132812 155.441406 20.910156 C 156.585938 16.328125 157.730469 11.746094 158.875 7.164062 Z M 151.980469 17.546875 C 150.488281 17.546875 150.390625 15.644531 150.390625 15.222656 C 150.390625 14.039062 151.109375 11.34375 151.535156 10.304688 C 152.304688 8.476562 153.601562 7.4375 154.621094 7.4375 C 156.238281 7.4375 156.585938 9.4375 156.585938 9.613281 C 156.585938 9.761719 155.21875 15.175781 155.144531 15.273438 C 154.769531 15.964844 153.375 17.546875 151.980469 17.546875 Z M 151.980469 17.546875 "/>
<path fill-rule="nonzero" fill="rgb(98.823529%, 38.431373%, 33.333333%)" fill-opacity="1" d="M 164.574219 10.523438 C 164.574219 10.054688 164.539062 10.039062 164.050781 10.039062 C 162.9375 11.128906 161.351562 11.144531 160.636719 11.144531 C 160.636719 11.351562 160.636719 11.558594 160.636719 11.769531 C 161.054688 11.769531 162.203125 11.769531 163.164062 11.285156 C 163.164062 14.226562 163.164062 17.167969 163.164062 20.109375 C 163.164062 20.679688 163.164062 20.90625 161.421875 20.90625 C 161.199219 20.90625 160.980469 20.90625 160.757812 20.90625 C 160.757812 21.113281 160.757812 21.320312 160.757812 21.527344 C 161.074219 21.511719 163.214844 21.460938 163.859375 21.460938 C 164.398438 21.460938 166.59375 21.511719 166.980469 21.527344 C 166.980469 21.320312 166.980469 21.113281 166.980469 20.90625 C 166.757812 20.90625 166.539062 20.90625 166.316406 20.90625 C 164.574219 20.90625 164.574219 20.679688 164.574219 20.109375 C 164.574219 16.914062 164.574219 13.71875 164.574219 10.523438 Z M 164.574219 10.523438 "/>
<path fill-rule="nonzero" fill="rgb(98.823529%, 38.431373%, 33.333333%)" fill-opacity="1" d="M 572.328125 7.164062 C 572.328125 7.066406 572.253906 6.917969 572.078125 6.917969 C 571.804688 6.917969 570.808594 7.90625 570.386719 8.625 C 569.839844 7.289062 568.867188 6.894531 568.070312 6.894531 C 565.132812 6.894531 562.074219 10.550781 562.074219 14.136719 C 562.074219 16.558594 563.542969 18.09375 565.359375 18.09375 C 566.429688 18.09375 567.398438 17.5 568.296875 16.609375 C 568.070312 17.472656 567.25 20.8125 567.175781 21.035156 C 566.976562 21.726562 566.777344 21.824219 565.382812 21.851562 C 565.058594 21.851562 564.8125 21.851562 564.8125 22.34375 C 564.8125 22.371094 564.8125 22.617188 565.132812 22.617188 C 565.929688 22.617188 566.800781 22.542969 567.625 22.542969 C 568.46875 22.542969 569.367188 22.617188 570.1875 22.617188 C 570.3125 22.617188 570.636719 22.617188 570.636719 22.121094 C 570.636719 21.851562 570.386719 21.851562 569.988281 21.851562 C 568.792969 21.851562 568.792969 21.675781 568.792969 21.453125 C 568.792969 21.28125 568.84375 21.132812 568.894531 20.910156 C 570.039062 16.328125 571.183594 11.746094 572.328125 7.164062 Z M 565.433594 17.546875 C 563.941406 17.546875 563.839844 15.644531 563.839844 15.222656 C 563.839844 14.039062 564.5625 11.34375 564.984375 10.304688 C 565.757812 8.476562 567.050781 7.4375 568.070312 7.4375 C 569.691406 7.4375 570.039062 9.4375 570.039062 9.613281 C 570.039062 9.761719 568.667969 15.175781 568.59375 15.273438 C 568.222656 15.964844 566.828125 17.546875 565.433594 17.546875 Z M 565.433594 17.546875 "/>
<path fill-rule="nonzero" fill="rgb(98.823529%, 38.431373%, 33.333333%)" fill-opacity="1" d="M 580.988281 18.378906 C 580.789062 18.378906 580.59375 18.378906 580.394531 18.378906 C 580.34375 18.761719 580.167969 19.78125 579.941406 19.953125 C 579.804688 20.058594 578.460938 20.058594 578.21875 20.058594 C 577.148438 20.058594 576.078125 20.058594 575.011719 20.058594 C 576.839844 18.449219 577.449219 17.964844 578.496094 17.148438 C 579.785156 16.128906 580.988281 15.054688 580.988281 13.414062 C 580.988281 11.316406 579.140625 10.039062 576.910156 10.039062 C 574.75 10.039062 573.285156 11.542969 573.285156 13.136719 C 573.285156 14.019531 574.035156 14.105469 574.210938 14.105469 C 574.628906 14.105469 575.132812 13.808594 575.132812 13.1875 C 575.132812 12.875 575.011719 12.269531 574.105469 12.269531 C 574.644531 11.042969 575.832031 10.660156 576.648438 10.660156 C 578.390625 10.660156 579.296875 12.011719 579.296875 13.414062 C 579.296875 14.917969 578.21875 16.113281 577.660156 16.734375 C 576.261719 18.109375 574.859375 19.480469 573.460938 20.855469 C 573.285156 21.007812 573.285156 21.042969 573.285156 21.527344 C 575.679688 21.527344 578.070312 21.527344 580.464844 21.527344 C 580.640625 20.480469 580.8125 19.429688 580.988281 18.378906 Z M 580.988281 18.378906 "/>
<path fill="none" stroke-width="0.02" stroke-linecap="butt" stroke-linejoin="miter" stroke="rgb(60.392157%, 44.705882%, 67.45098%)" stroke-opacity="1" stroke-miterlimit="10" d="M -0.571662 0.0333184 C -0.538307 0.0333184 -0.504952 0.0333184 -0.471662 0.0333184 " transform="matrix(59.960852, 0, 0, -59.557913, 309, 38)"/>
<path fill="none" stroke-width="0.02" stroke-linecap="butt" stroke-linejoin="miter" stroke="rgb(60.392157%, 44.705882%, 67.45098%)" stroke-opacity="1" stroke-miterlimit="10" d="M -0.367492 0.0333184 C -0.334137 0.0333184 -0.300782 0.0333184 -0.267492 0.0333184 " transform="matrix(59.960852, 0, 0, -59.557913, 309, 38)"/>
<path fill="none" stroke-width="0.02" stroke-linecap="butt" stroke-linejoin="miter" stroke="rgb(60.392157%, 44.705882%, 67.45098%)" stroke-opacity="1" stroke-miterlimit="10" d="M -0.163323 0.0333184 C -0.129968 0.0333184 -0.0966125 0.0333184 -0.0633226 0.0333184 " transform="matrix(59.960852, 0, 0, -59.557913, 309, 38)"/>
<path fill="none" stroke-width="0.02" stroke-linecap="butt" stroke-linejoin="miter" stroke="rgb(60.392157%, 44.705882%, 67.45098%)" stroke-opacity="1" stroke-miterlimit="10" d="M 0.040847 0.0333184 C 0.0742021 0.0333184 0.107557 0.0333184 0.140847 0.0333184 " transform="matrix(59.960852, 0, 0, -59.557913, 309, 38)"/>
<path fill="none" stroke-width="0.02" stroke-linecap="butt" stroke-linejoin="miter" stroke="rgb(60.392157%, 44.705882%, 67.45098%)" stroke-opacity="1" stroke-miterlimit="10" d="M 0.245017 0.0333184 C 0.278372 0.0333184 0.311727 0.0333184 0.345017 0.0333184 " transform="matrix(59.960852, 0, 0, -59.557913, 309, 38)"/>
<path fill="none" stroke-width="0.02" stroke-linecap="butt" stroke-linejoin="miter" stroke="rgb(60.392157%, 44.705882%, 67.45098%)" stroke-opacity="1" stroke-miterlimit="10" d="M 0.449186 0.0333184 C 0.482541 0.0333184 0.515831 0.0333184 0.549186 0.0333184 " transform="matrix(59.960852, 0, 0, -59.557913, 309, 38)"/>
<path fill="none" stroke-width="0.02" stroke-linecap="butt" stroke-linejoin="miter" stroke="rgb(60.392157%, 44.705882%, 67.45098%)" stroke-opacity="1" stroke-miterlimit="10" d="M 0.653356 0.0333184 C 0.686711 0.0333184 0.720001 0.0333184 0.753356 0.0333184 " transform="matrix(59.960852, 0, 0, -59.557913, 309, 38)"/>
<path fill="none" stroke-width="0.02" stroke-linecap="butt" stroke-linejoin="miter" stroke="rgb(60.392157%, 44.705882%, 67.45098%)" stroke-opacity="1" stroke-miterlimit="10" d="M 0.857526 0.0333184 C 0.890881 0.0333184 0.924171 0.0333184 0.957526 0.0333184 " transform="matrix(59.960852, 0, 0, -59.557913, 309, 38)"/>
<path fill="none" stroke-width="0.02" stroke-linecap="butt" stroke-linejoin="miter" stroke="rgb(60.392157%, 44.705882%, 67.45098%)" stroke-opacity="1" stroke-miterlimit="10" d="M 1.061695 0.0333184 C 1.09505 0.0333184 1.12834 0.0333184 1.161695 0.0333184 " transform="matrix(59.960852, 0, 0, -59.557913, 309, 38)"/>
<path fill="none" stroke-width="0.02" stroke-linecap="butt" stroke-linejoin="miter" stroke="rgb(60.392157%, 44.705882%, 67.45098%)" stroke-opacity="1" stroke-miterlimit="10" d="M 1.265865 0.0333184 C 1.29922 0.0333184 1.33251 0.0333184 1.365865 0.0333184 " transform="matrix(59.960852, 0, 0, -59.557913, 309, 38)"/>
<path fill="none" stroke-width="0.02" stroke-linecap="butt" stroke-linejoin="miter" stroke="rgb(60.392157%, 44.705882%, 67.45098%)" stroke-opacity="1" stroke-miterlimit="10" d="M 1.470035 0.0333184 C 1.50339 0.0333184 1.53668 0.0333184 1.570035 0.0333184 " transform="matrix(59.960852, 0, 0, -59.557913, 309, 38)"/>
<path fill="none" stroke-width="0.02" stroke-linecap="butt" stroke-linejoin="miter" stroke="rgb(60.392157%, 44.705882%, 67.45098%)" stroke-opacity="1" stroke-miterlimit="10" d="M 1.674204 0.0333184 C 1.707559 0.0333184 1.740849 0.0333184 1.774204 0.0333184 " transform="matrix(59.960852, 0, 0, -59.557913, 309, 38)"/>
<path fill="none" stroke-width="0.02" stroke-linecap="butt" stroke-linejoin="miter" stroke="rgb(60.392157%, 44.705882%, 67.45098%)" stroke-opacity="1" stroke-miterlimit="10" d="M 1.878374 0.0333184 C 1.911664 0.0333184 1.945019 0.0333184 1.978374 0.0333184 " transform="matrix(59.960852, 0, 0, -59.557913, 309, 38)"/>
<path fill="none" stroke-width="0.02" stroke-linecap="butt" stroke-linejoin="miter" stroke="rgb(60.392157%, 44.705882%, 67.45098%)" stroke-opacity="1" stroke-miterlimit="10" d="M 2.082544 0.0333184 C 2.115834 0.0333184 2.149189 0.0333184 2.182544 0.0333184 " transform="matrix(59.960852, 0, 0, -59.557913, 309, 38)"/>
<path fill="none" stroke-width="0.02" stroke-linecap="butt" stroke-linejoin="miter" stroke="rgb(60.392157%, 44.705882%, 67.45098%)" stroke-opacity="1" stroke-miterlimit="10" d="M 2.286713 0.0333184 C 2.320003 0.0333184 2.353358 0.0333184 2.386713 0.0333184 " transform="matrix(59.960852, 0, 0, -59.557913, 309, 38)"/>
<path fill="none" stroke-width="0.02" stroke-linecap="butt" stroke-linejoin="miter" stroke="rgb(60.392157%, 44.705882%, 67.45098%)" stroke-opacity="1" stroke-miterlimit="10" d="M 2.490883 0.0333184 C 2.524173 0.0333184 2.557528 0.0333184 2.590883 0.0333184 " transform="matrix(59.960852, 0, 0, -59.557913, 309, 38)"/>
<path fill="none" stroke-width="0.02" stroke-linecap="butt" stroke-linejoin="miter" stroke="rgb(60.392157%, 44.705882%, 67.45098%)" stroke-opacity="1" stroke-miterlimit="10" d="M 2.695053 0.0333184 C 2.728343 0.0333184 2.761698 0.0333184 2.795053 0.0333184 " transform="matrix(59.960852, 0, 0, -59.557913, 309, 38)"/>
<path fill="none" stroke-width="0.02" stroke-linecap="butt" stroke-linejoin="miter" stroke="rgb(60.392157%, 44.705882%, 67.45098%)" stroke-opacity="1" stroke-miterlimit="10" d="M 2.899222 0.0333184 C 2.932512 0.0333184 2.965867 0.0333184 2.999223 0.0333184 " transform="matrix(59.960852, 0, 0, -59.557913, 309, 38)"/>
<path fill="none" stroke-width="0.02" stroke-linecap="butt" stroke-linejoin="miter" stroke="rgb(60.392157%, 44.705882%, 67.45098%)" stroke-opacity="1" stroke-miterlimit="10" d="M 3.103392 0.0333184 C 3.136682 0.0333184 3.170037 0.0333184 3.203392 0.0333184 " transform="matrix(59.960852, 0, 0, -59.557913, 309, 38)"/>
<path fill="none" stroke-width="0.02" stroke-linecap="butt" stroke-linejoin="miter" stroke="rgb(60.392157%, 44.705882%, 67.45098%)" stroke-opacity="1" stroke-miterlimit="10" d="M 3.307497 0.0333184 C 3.340852 0.0333184 3.374207 0.0333184 3.407497 0.0333184 " transform="matrix(59.960852, 0, 0, -59.557913, 309, 38)"/>
<path fill="none" stroke-width="0.02" stroke-linecap="butt" stroke-linejoin="miter" stroke="rgb(60.392157%, 44.705882%, 67.45098%)" stroke-opacity="1" stroke-miterlimit="10" d="M 3.511666 0.0333184 C 3.545021 0.0333184 3.578376 0.0333184 3.611666 0.0333184 " transform="matrix(59.960852, 0, 0, -59.557913, 309, 38)"/>
<path fill="none" stroke-width="0.02" stroke-linecap="butt" stroke-linejoin="miter" stroke="rgb(60.392157%, 44.705882%, 67.45098%)" stroke-opacity="1" stroke-miterlimit="10" d="M 3.715836 0.0333184 C 3.749191 0.0333184 3.782546 0.0333184 3.815836 0.0333184 " transform="matrix(59.960852, 0, 0, -59.557913, 309, 38)"/>
<path fill="none" stroke-width="0.02" stroke-linecap="butt" stroke-linejoin="miter" stroke="rgb(60.392157%, 44.705882%, 67.45098%)" stroke-opacity="1" stroke-miterlimit="10" d="M 3.920006 0.0333184 C 3.953361 0.0333184 3.986716 0.0333184 4.020006 0.0333184 " transform="matrix(59.960852, 0, 0, -59.557913, 309, 38)"/>
<path fill="none" stroke-width="0.02" stroke-linecap="butt" stroke-linejoin="miter" stroke="rgb(60.392157%, 44.705882%, 67.45098%)" stroke-opacity="1" stroke-miterlimit="10" d="M 4.124175 0.0333184 C 4.15753 0.0333184 4.190885 0.0333184 4.224175 0.0333184 " transform="matrix(59.960852, 0, 0, -59.557913, 309, 38)"/>
<path fill="none" stroke-width="0.02" stroke-linecap="butt" stroke-linejoin="miter" stroke="rgb(60.392157%, 44.705882%, 67.45098%)" stroke-opacity="1" stroke-miterlimit="10" d="M 4.328345 0.0333184 C 4.3617 0.0333184 4.395055 0.0333184 4.428345 0.0333184 " transform="matrix(59.960852, 0, 0, -59.557913, 309, 38)"/>
<path fill-rule="nonzero" fill="rgb(60.392157%, 44.705882%, 67.45098%)" fill-opacity="1" d="M 280.121094 36.015625 C 280.121094 34.59375 279.550781 33.230469 278.539062 32.226562 C 277.527344 31.222656 276.15625 30.65625 274.722656 30.65625 C 273.292969 30.65625 271.921875 31.222656 270.910156 32.226562 C 269.894531 33.230469 269.328125 34.59375 269.328125 36.015625 C 269.328125 37.4375 269.894531 38.800781 270.910156 39.808594 C 271.921875 40.8125 273.292969 41.378906 274.722656 41.378906 C 276.15625 41.378906 277.527344 40.8125 278.539062 39.808594 C 279.550781 38.800781 280.121094 37.4375 280.121094 36.015625 Z M 280.121094 36.015625 "/>
<path fill-rule="nonzero" fill="rgb(60.392157%, 44.705882%, 67.45098%)" fill-opacity="1" d="M 579.925781 36.015625 C 579.925781 34.59375 579.355469 33.230469 578.34375 32.226562 C 577.332031 31.222656 575.960938 30.65625 574.527344 30.65625 C 573.097656 30.65625 571.722656 31.222656 570.710938 32.226562 C 569.699219 33.230469 569.132812 34.59375 569.132812 36.015625 C 569.132812 37.4375 569.699219 38.800781 570.710938 39.808594 C 571.722656 40.8125 573.097656 41.378906 574.527344 41.378906 C 575.960938 41.378906 577.332031 40.8125 578.34375 39.808594 C 579.355469 38.800781 579.925781 37.4375 579.925781 36.015625 Z M 579.925781 36.015625 "/>
<path fill="none" stroke-width="0.04" stroke-linecap="butt" stroke-linejoin="miter" stroke="rgb(60.392157%, 44.705882%, 67.45098%)" stroke-opacity="1" stroke-miterlimit="10" d="M -1.571663 -0.166723 C -1.304953 -0.166723 -1.038308 -0.166723 -0.771662 -0.166723 " transform="matrix(59.960852, 0, 0, -59.557913, 309, 38)"/>
<path fill-rule="nonzero" fill="rgb(60.392157%, 44.705882%, 67.45098%)" fill-opacity="1" d="M 274.722656 47.929688 C 270.726562 46.191406 266.730469 44.453125 262.730469 42.71875 C 262.730469 46.191406 262.730469 49.664062 262.730469 53.140625 C 266.730469 51.402344 270.726562 49.664062 274.722656 47.929688 Z M 274.722656 47.929688 "/>
<path fill="none" stroke-width="0.04" stroke-linecap="butt" stroke-linejoin="miter" stroke="rgb(60.392157%, 44.705882%, 67.45098%)" stroke-opacity="1" stroke-miterlimit="10" d="M 3.428344 -0.166723 C 3.695054 -0.166723 3.961699 -0.166723 4.228345 -0.166723 " transform="matrix(59.960852, 0, 0, -59.557913, 309, 38)"/>
<path fill-rule="nonzero" fill="rgb(60.392157%, 44.705882%, 67.45098%)" fill-opacity="1" d="M 574.527344 47.929688 C 570.53125 46.191406 566.535156 44.453125 562.535156 42.71875 C 562.535156 46.191406 562.535156 49.664062 562.535156 53.140625 C 566.535156 51.402344 570.53125 49.664062 574.527344 47.929688 Z M 574.527344 47.929688 "/>
<path fill-rule="nonzero" fill="rgb(60.392157%, 44.705882%, 67.45098%)" fill-opacity="1" d="M 241.847656 68.640625 C 242.125 69.652344 242.996094 70.296875 244.066406 70.296875 C 244.9375 70.296875 245.507812 69.726562 245.90625 68.9375 C 246.328125 68.046875 246.652344 66.539062 246.652344 66.488281 C 246.652344 66.242188 246.429688 66.242188 246.355469 66.242188 C 246.105469 66.242188 246.082031 66.339844 246.007812 66.6875 C 245.65625 68.070312 245.183594 69.75 244.140625 69.75 C 243.617188 69.75 243.367188 69.429688 243.367188 68.613281 C 243.367188 68.070312 243.667969 66.910156 243.867188 66.042969 C 244.097656 65.152344 244.332031 64.261719 244.5625 63.371094 C 244.636719 63.003906 244.886719 62.0625 244.984375 61.691406 C 245.109375 61.125 245.359375 60.183594 245.359375 60.035156 C 245.359375 59.589844 245.011719 59.367188 244.636719 59.367188 C 244.511719 59.367188 243.867188 59.390625 243.667969 60.234375 C 243.195312 62.039062 242.097656 66.363281 241.800781 67.675781 C 241.773438 67.773438 240.777344 69.75 238.960938 69.75 C 237.667969 69.75 237.417969 68.640625 237.417969 67.722656 C 237.417969 66.339844 238.117188 64.386719 238.761719 62.679688 C 239.0625 61.9375 239.1875 61.59375 239.1875 61.125 C 239.1875 60.011719 238.390625 59.097656 237.144531 59.097656 C 234.78125 59.097656 233.859375 62.679688 233.859375 62.902344 C 233.859375 63.152344 234.109375 63.152344 234.160156 63.152344 C 234.40625 63.152344 234.433594 63.101562 234.554688 62.707031 C 235.179688 60.554688 236.125 59.640625 237.070312 59.640625 C 237.292969 59.640625 237.691406 59.664062 237.691406 60.457031 C 237.691406 61.050781 237.417969 61.765625 237.269531 62.136719 C 236.347656 64.585938 235.824219 66.117188 235.824219 67.328125 C 235.824219 69.675781 237.542969 70.296875 238.886719 70.296875 C 240.53125 70.296875 241.425781 69.183594 241.847656 68.640625 Z M 241.847656 68.640625 "/>
<path fill-rule="nonzero" fill="rgb(60.392157%, 44.705882%, 67.45098%)" fill-opacity="1" d="M 253.222656 62.726562 C 253.222656 62.257812 253.1875 62.242188 252.699219 62.242188 C 251.585938 63.332031 250 63.347656 249.285156 63.347656 C 249.285156 63.554688 249.285156 63.761719 249.285156 63.972656 C 249.703125 63.972656 250.855469 63.972656 251.8125 63.488281 C 251.8125 66.429688 251.8125 69.371094 251.8125 72.3125 C 251.8125 72.882812 251.8125 73.109375 250.070312 73.109375 C 249.847656 73.109375 249.628906 73.109375 249.40625 73.109375 C 249.40625 73.316406 249.40625 73.523438 249.40625 73.730469 C 249.722656 73.714844 251.863281 73.664062 252.507812 73.664062 C 253.050781 73.664062 255.246094 73.714844 255.628906 73.730469 C 255.628906 73.523438 255.628906 73.316406 255.628906 73.109375 C 255.40625 73.109375 255.1875 73.109375 254.964844 73.109375 C 253.222656 73.109375 253.222656 72.882812 253.222656 72.3125 C 253.222656 69.117188 253.222656 65.921875 253.222656 62.726562 Z M 253.222656 62.726562 "/>
<path fill-rule="nonzero" fill="rgb(60.392157%, 44.705882%, 67.45098%)" fill-opacity="1" d="M 541.375 68.640625 C 541.648438 69.652344 542.519531 70.296875 543.589844 70.296875 C 544.460938 70.296875 545.035156 69.726562 545.433594 68.9375 C 545.855469 68.046875 546.179688 66.539062 546.179688 66.488281 C 546.179688 66.242188 545.953125 66.242188 545.878906 66.242188 C 545.632812 66.242188 545.605469 66.339844 545.53125 66.6875 C 545.183594 68.070312 544.710938 69.75 543.664062 69.75 C 543.140625 69.75 542.894531 69.429688 542.894531 68.613281 C 542.894531 68.070312 543.191406 66.910156 543.390625 66.042969 C 543.625 65.152344 543.855469 64.261719 544.089844 63.371094 C 544.164062 63.003906 544.410156 62.0625 544.511719 61.691406 C 544.636719 61.125 544.882812 60.183594 544.882812 60.035156 C 544.882812 59.589844 544.535156 59.367188 544.164062 59.367188 C 544.039062 59.367188 543.390625 59.390625 543.191406 60.234375 C 542.71875 62.039062 541.625 66.363281 541.324219 67.675781 C 541.300781 67.773438 540.304688 69.75 538.488281 69.75 C 537.195312 69.75 536.945312 68.640625 536.945312 67.722656 C 536.945312 66.339844 537.640625 64.386719 538.289062 62.679688 C 538.585938 61.9375 538.710938 61.59375 538.710938 61.125 C 538.710938 60.011719 537.914062 59.097656 536.671875 59.097656 C 534.304688 59.097656 533.386719 62.679688 533.386719 62.902344 C 533.386719 63.152344 533.632812 63.152344 533.683594 63.152344 C 533.933594 63.152344 533.957031 63.101562 534.082031 62.707031 C 534.703125 60.554688 535.648438 59.640625 536.597656 59.640625 C 536.820312 59.640625 537.21875 59.664062 537.21875 60.457031 C 537.21875 61.050781 536.945312 61.765625 536.796875 62.136719 C 535.875 64.585938 535.351562 66.117188 535.351562 67.328125 C 535.351562 69.675781 537.070312 70.296875 538.414062 70.296875 C 540.054688 70.296875 540.953125 69.183594 541.375 68.640625 Z M 541.375 68.640625 "/>
<path fill-rule="nonzero" fill="rgb(60.392157%, 44.705882%, 67.45098%)" fill-opacity="1" d="M 555.710938 70.582031 C 555.511719 70.582031 555.316406 70.582031 555.117188 70.582031 C 555.066406 70.964844 554.890625 71.984375 554.664062 72.15625 C 554.527344 72.261719 553.183594 72.261719 552.941406 72.261719 C 551.871094 72.261719 550.804688 72.261719 549.734375 72.261719 C 551.5625 70.652344 552.175781 70.167969 553.21875 69.351562 C 554.507812 68.332031 555.710938 67.257812 555.710938 65.617188 C 555.710938 63.519531 553.863281 62.242188 551.632812 62.242188 C 549.472656 62.242188 548.007812 63.746094 548.007812 65.339844 C 548.007812 66.222656 548.757812 66.308594 548.933594 66.308594 C 549.351562 66.308594 549.855469 66.011719 549.855469 65.390625 C 549.855469 65.078125 549.734375 64.472656 548.828125 64.472656 C 549.367188 63.246094 550.554688 62.863281 551.371094 62.863281 C 553.113281 62.863281 554.019531 64.214844 554.019531 65.617188 C 554.019531 67.121094 552.941406 68.316406 552.382812 68.9375 C 550.984375 70.3125 549.582031 71.683594 548.183594 73.058594 C 548.007812 73.210938 548.007812 73.246094 548.007812 73.730469 C 550.402344 73.730469 552.796875 73.730469 555.1875 73.730469 C 555.363281 72.683594 555.535156 71.632812 555.710938 70.582031 Z M 555.710938 70.582031 "/>
<path fill="none" stroke-width="0.03" stroke-linecap="butt" stroke-linejoin="miter" stroke="rgb(0%, 0%, 0%)" stroke-opacity="1" stroke-miterlimit="10" d="M -5.078379 -0.46672 C -4.76587 -0.46672 -4.453361 -0.46672 -4.140853 -0.46672 " transform="matrix(59.960852, 0, 0, -59.557913, 309, 38)"/>
<path fill-rule="nonzero" fill="rgb(0%, 0%, 0%)" fill-opacity="1" stroke-width="0.03" stroke-linecap="butt" stroke-linejoin="miter" stroke="rgb(0%, 0%, 0%)" stroke-opacity="1" stroke-miterlimit="10" d="M -4.078377 -0.46672 C -4.111667 -0.450061 -4.145022 -0.433402 -4.178377 -0.416677 C -4.165869 -0.433402 -4.153361 -0.450061 -4.140853 -0.46672 C -4.153361 -0.483379 -4.165869 -0.500039 -4.178377 -0.516698 C -4.145022 -0.500039 -4.111667 -0.483379 -4.078377 -0.46672 Z M -4.078377 -0.46672 " transform="matrix(59.960852, 0, 0, -59.557913, 309, 38)"/>
<path fill-rule="nonzero" fill="rgb(0%, 0%, 0%)" fill-opacity="1" d="M 7.496094 65.796875 C 7.496094 65.007812 7.179688 64.25 6.617188 63.691406 C 6.054688 63.132812 5.292969 62.816406 4.496094 62.816406 C 3.703125 62.816406 2.9375 63.132812 2.378906 63.691406 C 1.816406 64.25 1.5 65.007812 1.5 65.796875 C 1.5 66.585938 1.816406 67.34375 2.378906 67.902344 C 2.9375 68.460938 3.703125 68.773438 4.496094 68.773438 C 5.292969 68.773438 6.054688 68.460938 6.617188 67.902344 C 7.179688 67.34375 7.496094 66.585938 7.496094 65.796875 Z M 7.496094 65.796875 "/>
<path fill-rule="nonzero" fill="rgb(0%, 0%, 0%)" fill-opacity="1" d="M 77.535156 57.082031 C 76.425781 58.203125 75.3125 59.324219 74.199219 60.445312 C 74.351562 60.59375 74.5 60.742188 74.648438 60.886719 C 75.613281 60.046875 76.574219 59.207031 77.535156 58.367188 C 78.492188 59.207031 79.445312 60.046875 80.398438 60.886719 C 80.546875 60.742188 80.699219 60.59375 80.847656 60.445312 C 79.742188 59.324219 78.640625 58.203125 77.535156 57.082031 Z M 77.535156 57.082031 "/>
<path fill-rule="nonzero" fill="rgb(0%, 0%, 0%)" fill-opacity="1" d="M 78.046875 66.773438 C 78.195312 66.128906 78.765625 63.855469 80.507812 63.855469 C 80.632812 63.855469 81.230469 63.855469 81.753906 64.175781 C 81.058594 64.300781 80.558594 64.917969 80.558594 65.511719 C 80.558594 65.90625 80.832031 66.378906 81.503906 66.378906 C 82.054688 66.378906 82.847656 65.933594 82.847656 64.941406 C 82.847656 63.65625 81.382812 63.3125 80.535156 63.3125 C 79.089844 63.3125 78.21875 64.621094 77.921875 65.191406 C 77.300781 63.558594 75.953125 63.3125 75.234375 63.3125 C 72.644531 63.3125 71.226562 66.5 71.226562 67.117188 C 71.226562 67.367188 71.472656 67.367188 71.523438 67.367188 C 71.722656 67.367188 71.796875 67.316406 71.847656 67.09375 C 72.695312 64.472656 74.335938 63.855469 75.183594 63.855469 C 75.65625 63.855469 76.527344 64.078125 76.527344 65.511719 C 76.527344 66.277344 76.105469 67.933594 75.183594 71.394531 C 74.785156 72.929688 73.914062 73.96875 72.820312 73.96875 C 72.667969 73.96875 72.097656 73.96875 71.574219 73.644531 C 72.195312 73.523438 72.742188 73.003906 72.742188 72.3125 C 72.742188 71.644531 72.195312 71.445312 71.824219 71.445312 C 71.078125 71.445312 70.453125 72.089844 70.453125 72.878906 C 70.453125 74.015625 71.699219 74.511719 72.792969 74.511719 C 74.4375 74.511719 75.332031 72.78125 75.40625 72.632812 C 75.707031 73.546875 76.601562 74.511719 78.09375 74.511719 C 80.660156 74.511719 82.078125 71.320312 82.078125 70.703125 C 82.078125 70.457031 81.855469 70.457031 81.777344 70.457031 C 81.554688 70.457031 81.503906 70.554688 81.457031 70.726562 C 80.632812 73.375 78.941406 73.96875 78.144531 73.96875 C 77.175781 73.96875 76.777344 73.175781 76.777344 72.335938 C 76.777344 71.792969 76.925781 71.246094 77.199219 70.160156 C 77.480469 69.03125 77.761719 67.902344 78.046875 66.773438 Z M 78.046875 66.773438 "/>
</svg>
