<?xml version="1.0" encoding="UTF-8"?>
<svg xmlns="http://www.w3.org/2000/svg" xmlns:xlink="http://www.w3.org/1999/xlink" width="2577" height="338" viewBox="0 0 2577 338">
<defs>
<linearGradient id="linear-pattern-0" gradientUnits="userSpaceOnUse" x1="20.170413" y1="-2" x2="19.670413" y2="2">
<stop offset="0" stop-color="rgb(34.509804%, 76.862745%, 86.666667%)" stop-opacity="1"/>
<stop offset="1" stop-color="rgb(98.823529%, 38.431373%, 33.333333%)" stop-opacity="1"/>
</linearGradient>
</defs>
<path fill="none" stroke-width="0.2" stroke-linecap="butt" stroke-linejoin="miter" stroke="rgb(68.207159%, 56.726521%, 58.722518%)" stroke-opacity="1" stroke-miterlimit="10" d="M -21.004596 -2.300014 C -19.337916 -2.300014 -17.671236 -2.300014 -16.004556 -2.300014 " transform="matrix(60.034665, 0, 0, -59.823009, 1288.5, 169)"/>
<path fill="none" stroke-width="0.2" stroke-linecap="butt" stroke-linejoin="miter" stroke="rgb(69.335006%, 56.052563%, 57.787231%)" stroke-opacity="1" stroke-miterlimit="10" d="M -16.004556 -2.300014 C -14.33794 -2.300014 -12.67126 -2.300014 -11.00458 -2.300014 " transform="matrix(60.034665, 0, 0, -59.823009, 1288.5, 169)"/>
<path fill="none" stroke-width="0.2" stroke-linecap="butt" stroke-linejoin="miter" stroke="rgb(98.823529%, 38.431373%, 33.333333%)" stroke-opacity="1" stroke-miterlimit="10" d="M -11.00458 -2.300014 C -9.337899 -2.300014 -7.671284 -2.300014 -6.004604 -2.300014 " transform="matrix(60.034665, 0, 0, -59.823009, 1288.5, 169)"/>
<path fill="none" stroke-width="0.2" stroke-linecap="butt" stroke-linejoin="miter" stroke="rgb(55.976361%, 64.035171%, 68.865135%)" stroke-opacity="1" stroke-miterlimit="10" d="M -6.004604 -2.300014 C -4.337923 -2.300014 -2.671243 -2.300014 -1.004563 -2.300014 " transform="matrix(60.034665, 0, 0, -59.823009, 1288.5, 169)"/>
<path fill="none" stroke-width="0.2" stroke-linecap="butt" stroke-linejoin="miter" stroke="rgb(55.324256%, 64.424838%, 69.405898%)" stroke-opacity="1" stroke-miterlimit="10" d="M -1.004563 -2.300014 C 0.662052 -2.300014 2.328733 -2.300014 3.995413 -2.300014 " transform="matrix(60.034665, 0, 0, -59.823009, 1288.5, 169)"/>
<path fill="none" stroke-width="0.2" stroke-linecap="butt" stroke-linejoin="miter" stroke="rgb(96.881899%, 39.591615%, 34.943466%)" stroke-opacity="1" stroke-miterlimit="10" d="M 3.995413 -2.300014 C 5.662093 -2.300014 7.328774 -2.300014 8.995389 -2.300014 " transform="matrix(60.034665, 0, 0, -59.823009, 1288.5, 169)"/>
<path fill="none" stroke-width="0.2" stroke-linecap="butt" stroke-linejoin="miter" stroke="rgb(66.846702%, 57.539477%, 59.850702%)" stroke-opacity="1" stroke-miterlimit="10" d="M 8.995389 -2.300014 C 10.662069 -2.300014 12.32875 -2.300014 13.99543 -2.300014 " transform="matrix(60.034665, 0, 0, -59.823009, 1288.5, 169)"/>
<path fill="none" stroke-width="0.2" stroke-linecap="butt" stroke-linejoin="miter" stroke="rgb(71.32378%, 54.86415%, 56.138004%)" stroke-opacity="1" stroke-miterlimit="10" d="M 13.99543 -2.300014 C 15.66211 -2.300014 17.328725 -2.300014 18.995406 -2.300014 " transform="matrix(60.034665, 0, 0, -59.823009, 1288.5, 169)"/>
<path fill="none" stroke-width="0.2" stroke-linecap="butt" stroke-linejoin="miter" stroke="rgb(35.540574%, 76.246797%, 85.811882%)" stroke-opacity="1" stroke-miterlimit="10" d="M 18.995406 -2.300014 C 17.328725 -0.633313 15.66211 1.033322 13.99543 2.700022 " transform="matrix(60.034665, 0, 0, -59.823009, 1288.5, 169)"/>
<path fill="none" stroke-width="0.2" stroke-linecap="butt" stroke-linejoin="miter" stroke="rgb(34.600333%, 76.808648%, 86.591593%)" stroke-opacity="1" stroke-miterlimit="10" d="M 13.99543 2.700022 C 12.32875 2.700022 10.662069 2.700022 8.995389 2.700022 " transform="matrix(60.034665, 0, 0, -59.823009, 1288.5, 169)"/>
<path fill="none" stroke-width="0.2" stroke-linecap="butt" stroke-linejoin="miter" stroke="rgb(36.560877%, 75.637103%, 84.965775%)" stroke-opacity="1" stroke-miterlimit="10" d="M 8.995389 2.700022 C 7.328774 2.700022 5.662093 2.700022 3.995413 2.700022 " transform="matrix(60.034665, 0, 0, -59.823009, 1288.5, 169)"/>
<path fill="none" stroke-width="0.2" stroke-linecap="butt" stroke-linejoin="miter" stroke="rgb(35.707259%, 76.147191%, 85.673653%)" stroke-opacity="1" stroke-miterlimit="10" d="M 3.995413 2.700022 C 2.328733 2.700022 0.662052 2.700022 -1.004563 2.700022 " transform="matrix(60.034665, 0, 0, -59.823009, 1288.5, 169)"/>
<path fill="none" stroke-width="0.2" stroke-linecap="butt" stroke-linejoin="miter" stroke="rgb(35.336533%, 76.368723%, 85.981086%)" stroke-opacity="1" stroke-miterlimit="10" d="M -1.004563 2.700022 C -2.671243 2.700022 -4.337923 2.700022 -6.004604 2.700022 " transform="matrix(60.034665, 0, 0, -59.823009, 1288.5, 169)"/>
<path fill="none" stroke-width="0.2" stroke-linecap="butt" stroke-linejoin="miter" stroke="rgb(35.177944%, 76.463489%, 86.112597%)" stroke-opacity="1" stroke-miterlimit="10" d="M -6.004604 2.700022 C -7.671284 2.700022 -9.337899 2.700022 -11.00458 2.700022 " transform="matrix(60.034665, 0, 0, -59.823009, 1288.5, 169)"/>
<path fill="none" stroke-width="0.2" stroke-linecap="butt" stroke-linejoin="miter" stroke="rgb(62.514266%, 60.128371%, 63.443454%)" stroke-opacity="1" stroke-miterlimit="10" d="M -11.00458 2.700022 C -12.67126 2.700022 -14.33794 2.700022 -16.004556 2.700022 " transform="matrix(60.034665, 0, 0, -59.823009, 1288.5, 169)"/>
<path fill="none" stroke-width="0.2" stroke-linecap="butt" stroke-linejoin="miter" stroke="rgb(47.925004%, 68.846343%, 75.541865%)" stroke-opacity="1" stroke-miterlimit="10" d="M -16.004556 2.700022 C -17.671236 1.033322 -19.337916 -0.633313 -21.004596 -2.300014 " transform="matrix(60.034665, 0, 0, -59.823009, 1288.5, 169)"/>
<path fill="none" stroke-width="0.2" stroke-linecap="butt" stroke-linejoin="miter" stroke="rgb(50.217284%, 67.476567%, 73.64095%)" stroke-opacity="1" stroke-miterlimit="10" d="M -16.004556 -2.300014 C -16.004556 -0.633313 -16.004556 1.033322 -16.004556 2.700022 " transform="matrix(60.034665, 0, 0, -59.823009, 1288.5, 169)"/>
<path fill="none" stroke-width="0.2" stroke-linecap="butt" stroke-linejoin="miter" stroke="rgb(52.169246%, 66.310155%, 72.022255%)" stroke-opacity="1" stroke-miterlimit="10" d="M -11.00458 -2.300014 C -11.00458 -0.633313 -11.00458 1.033322 -11.00458 2.700022 " transform="matrix(60.034665, 0, 0, -59.823009, 1288.5, 169)"/>
<path fill="none" stroke-width="0.2" stroke-linecap="butt" stroke-linejoin="miter" stroke="rgb(54.163955%, 65.118191%, 70.368102%)" stroke-opacity="1" stroke-miterlimit="10" d="M -6.004604 -2.300014 C -6.004604 -0.633313 -6.004604 1.033322 -6.004604 2.700022 " transform="matrix(60.034665, 0, 0, -59.823009, 1288.5, 169)"/>
<path fill="none" stroke-width="0.2" stroke-linecap="butt" stroke-linejoin="miter" stroke="rgb(46.491986%, 69.70266%, 76.730223%)" stroke-opacity="1" stroke-miterlimit="10" d="M -1.004563 -2.300014 C -1.004563 -0.633313 -1.004563 1.033322 -1.004563 2.700022 " transform="matrix(60.034665, 0, 0, -59.823009, 1288.5, 169)"/>
<path fill="none" stroke-width="0.2" stroke-linecap="butt" stroke-linejoin="miter" stroke="rgb(61.923225%, 60.481554%, 63.933585%)" stroke-opacity="1" stroke-miterlimit="10" d="M 3.995413 -2.300014 C 3.995413 -0.633313 3.995413 1.033322 3.995413 2.700022 " transform="matrix(60.034665, 0, 0, -59.823009, 1288.5, 169)"/>
<path fill="none" stroke-width="0.2" stroke-linecap="butt" stroke-linejoin="miter" stroke="rgb(34.509804%, 76.862745%, 86.666667%)" stroke-opacity="1" stroke-miterlimit="10" d="M 8.995389 -2.300014 C 8.995389 -0.633313 8.995389 1.033322 8.995389 2.700022 " transform="matrix(60.034665, 0, 0, -59.823009, 1288.5, 169)"/>
<path fill="none" stroke-width="0.2" stroke-linecap="butt" stroke-linejoin="miter" stroke="rgb(38.026031%, 74.761587%, 83.750773%)" stroke-opacity="1" stroke-miterlimit="10" d="M 13.99543 -2.300014 C 13.99543 -0.633313 13.99543 1.033322 13.99543 2.700022 " transform="matrix(60.034665, 0, 0, -59.823009, 1288.5, 169)"/>
<path fill="none" stroke-width="0.2" stroke-linecap="butt" stroke-linejoin="miter" stroke="rgb(48.604203%, 68.440482%, 74.978628%)" stroke-opacity="1" stroke-miterlimit="10" d="M -11.00458 -2.300014 C -12.67126 -0.633313 -14.33794 1.033322 -16.004556 2.700022 " transform="matrix(60.034665, 0, 0, -59.823009, 1288.5, 169)"/>
<path fill="none" stroke-width="0.2" stroke-linecap="butt" stroke-linejoin="miter" stroke="rgb(56.119124%, 63.949861%, 68.746746%)" stroke-opacity="1" stroke-miterlimit="10" d="M -6.004604 -2.300014 C -7.671284 -0.633313 -9.337899 1.033322 -11.00458 2.700022 " transform="matrix(60.034665, 0, 0, -59.823009, 1288.5, 169)"/>
<path fill="none" stroke-width="0.2" stroke-linecap="butt" stroke-linejoin="miter" stroke="rgb(57.815549%, 62.936141%, 67.339951%)" stroke-opacity="1" stroke-miterlimit="10" d="M -1.004563 -2.300014 C -2.671243 -0.633313 -4.337923 1.033322 -6.004604 2.700022 " transform="matrix(60.034665, 0, 0, -59.823009, 1288.5, 169)"/>
<path fill="none" stroke-width="0.2" stroke-linecap="butt" stroke-linejoin="miter" stroke="rgb(46.262995%, 69.839497%, 76.920118%)" stroke-opacity="1" stroke-miterlimit="10" d="M -1.004563 -2.300014 C 0.662052 -0.633313 2.328733 1.033322 3.995413 2.700022 " transform="matrix(60.034665, 0, 0, -59.823009, 1288.5, 169)"/>
<path fill="none" stroke-width="0.2" stroke-linecap="butt" stroke-linejoin="miter" stroke="rgb(35.999008%, 75.972857%, 85.43172%)" stroke-opacity="1" stroke-miterlimit="10" d="M 3.995413 -2.300014 C 5.662093 -0.633313 7.328774 1.033322 8.995389 2.700022 " transform="matrix(60.034665, 0, 0, -59.823009, 1288.5, 169)"/>
<path fill="none" stroke-width="0.2" stroke-linecap="butt" stroke-linejoin="miter" stroke="rgb(35.808517%, 76.086685%, 85.589685%)" stroke-opacity="1" stroke-miterlimit="10" d="M 8.995389 -2.300014 C 10.662069 -0.633313 12.32875 1.033322 13.99543 2.700022 " transform="matrix(60.034665, 0, 0, -59.823009, 1288.5, 169)"/>
<path fill="none" stroke-width="0.04" stroke-linecap="butt" stroke-linejoin="miter" stroke="rgb(0%, 0%, 0%)" stroke-opacity="1" stroke-miterlimit="10" d="M -21.004596 -2.300014 C -21.10083 -2.466651 -21.197063 -2.633354 -21.293232 -2.799991 C -21.10083 -2.799991 -20.908363 -2.799991 -20.715896 -2.799991 C -20.81213 -2.633354 -20.908363 -2.466651 -21.004596 -2.300014 Z M -21.004596 -2.300014 " transform="matrix(60.034665, 0, 0, -59.823009, 1288.5, 169)"/>
<path fill="none" stroke-width="0.04" stroke-linecap="butt" stroke-linejoin="miter" stroke="rgb(0%, 0%, 0%)" stroke-opacity="1" stroke-miterlimit="10" d="M -20.571578 -2.799991 C -20.860279 -2.799991 -21.148914 -2.799991 -21.437615 -2.799991 " transform="matrix(60.034665, 0, 0, -59.823009, 1288.5, 169)"/>
<path fill="none" stroke-width="0.04" stroke-linecap="butt" stroke-linejoin="miter" stroke="rgb(0%, 0%, 0%)" stroke-opacity="1" stroke-miterlimit="10" d="M 19.245391 -2.54997 C 19.245391 -2.483694 19.219105 -2.420095 19.172192 -2.373212 C 19.125279 -2.326328 19.061709 -2.300014 18.995406 -2.300014 C 18.929103 -2.300014 18.865533 -2.326328 18.81862 -2.373212 C 18.771772 -2.420095 18.74542 -2.483694 18.74542 -2.54997 C 18.74542 -2.616311 18.771772 -2.679911 18.81862 -2.726794 C 18.865533 -2.773677 18.929103 -2.799991 18.995406 -2.799991 C 19.061709 -2.799991 19.125279 -2.773677 19.172192 -2.726794 C 19.219105 -2.679911 19.245391 -2.616311 19.245391 -2.54997 Z M 19.245391 -2.54997 " transform="matrix(60.034665, 0, 0, -59.823009, 1288.5, 169)"/>
<path fill="none" stroke-width="0.04" stroke-linecap="butt" stroke-linejoin="miter" stroke="rgb(0%, 0%, 0%)" stroke-opacity="1" stroke-miterlimit="10" d="M 19.370384 -2.799991 C 19.120399 -2.799991 18.870413 -2.799991 18.620427 -2.799991 " transform="matrix(60.034665, 0, 0, -59.823009, 1288.5, 169)"/>
<path fill-rule="nonzero" fill="rgb(0%, 0%, 0%)" fill-opacity="1" d="M 33.5 306.59375 C 33.5 305.007812 32.867188 303.484375 31.742188 302.363281 C 30.617188 301.242188 29.089844 300.609375 27.496094 300.609375 C 25.90625 300.609375 24.378906 301.242188 23.25 302.363281 C 22.125 303.484375 21.492188 305.007812 21.492188 306.59375 C 21.492188 308.179688 22.125 309.699219 23.25 310.824219 C 24.378906 311.945312 25.90625 312.574219 27.496094 312.574219 C 29.089844 312.574219 30.617188 311.945312 31.742188 310.824219 C 32.867188 309.699219 33.5 308.179688 33.5 306.59375 Z M 33.5 306.59375 "/>
<path fill-rule="nonzero" fill="rgb(0%, 0%, 0%)" fill-opacity="1" d="M 333.671875 306.59375 C 333.671875 305.007812 333.039062 303.484375 331.914062 302.363281 C 330.789062 301.242188 329.261719 300.609375 327.671875 300.609375 C 326.078125 300.609375 324.550781 301.242188 323.425781 302.363281 C 322.300781 303.484375 321.667969 305.007812 321.667969 306.59375 C 321.667969 308.179688 322.300781 309.699219 323.425781 310.824219 C 324.550781 311.945312 326.078125 312.574219 327.671875 312.574219 C 329.261719 312.574219 330.789062 311.945312 331.914062 310.824219 C 333.039062 309.699219 333.671875 308.179688 333.671875 306.59375 Z M 333.671875 306.59375 "/>
<path fill-rule="nonzero" fill="rgb(0%, 0%, 0%)" fill-opacity="1" d="M 633.847656 306.59375 C 633.847656 305.007812 633.214844 303.484375 632.089844 302.363281 C 630.960938 301.242188 629.433594 300.609375 627.84375 300.609375 C 626.25 300.609375 624.722656 301.242188 623.597656 302.363281 C 622.472656 303.484375 621.839844 305.007812 621.839844 306.59375 C 621.839844 308.179688 622.472656 309.699219 623.597656 310.824219 C 624.722656 311.945312 626.25 312.574219 627.84375 312.574219 C 629.433594 312.574219 630.960938 311.945312 632.089844 310.824219 C 633.214844 309.699219 633.847656 308.179688 633.847656 306.59375 Z M 633.847656 306.59375 "/>
<path fill-rule="nonzero" fill="rgb(0%, 0%, 0%)" fill-opacity="1" d="M 934.019531 306.59375 C 934.019531 305.007812 933.386719 303.484375 932.261719 302.363281 C 931.136719 301.242188 929.609375 300.609375 928.015625 300.609375 C 926.425781 300.609375 924.898438 301.242188 923.773438 302.363281 C 922.644531 303.484375 922.011719 305.007812 922.011719 306.59375 C 922.011719 308.179688 922.644531 309.699219 923.773438 310.824219 C 924.898438 311.945312 926.425781 312.574219 928.015625 312.574219 C 929.609375 312.574219 931.136719 311.945312 932.261719 310.824219 C 933.386719 309.699219 934.019531 308.179688 934.019531 306.59375 Z M 934.019531 306.59375 "/>
<path fill-rule="nonzero" fill="rgb(0%, 0%, 0%)" fill-opacity="1" d="M 1234.195312 306.59375 C 1234.195312 305.007812 1233.5625 303.484375 1232.433594 302.363281 C 1231.308594 301.242188 1229.78125 300.609375 1228.191406 300.609375 C 1226.597656 300.609375 1225.070312 301.242188 1223.945312 302.363281 C 1222.820312 303.484375 1222.1875 305.007812 1222.1875 306.59375 C 1222.1875 308.179688 1222.820312 309.699219 1223.945312 310.824219 C 1225.070312 311.945312 1226.597656 312.574219 1228.191406 312.574219 C 1229.78125 312.574219 1231.308594 311.945312 1232.433594 310.824219 C 1233.5625 309.699219 1234.195312 308.179688 1234.195312 306.59375 Z M 1234.195312 306.59375 "/>
<path fill-rule="nonzero" fill="rgb(0%, 0%, 0%)" fill-opacity="1" d="M 1534.367188 306.59375 C 1534.367188 305.007812 1533.734375 303.484375 1532.609375 302.363281 C 1531.484375 301.242188 1529.957031 300.609375 1528.363281 300.609375 C 1526.769531 300.609375 1525.242188 301.242188 1524.117188 302.363281 C 1522.992188 303.484375 1522.359375 305.007812 1522.359375 306.59375 C 1522.359375 308.179688 1522.992188 309.699219 1524.117188 310.824219 C 1525.242188 311.945312 1526.769531 312.574219 1528.363281 312.574219 C 1529.957031 312.574219 1531.484375 311.945312 1532.609375 310.824219 C 1533.734375 309.699219 1534.367188 308.179688 1534.367188 306.59375 Z M 1534.367188 306.59375 "/>
<path fill-rule="nonzero" fill="rgb(0%, 0%, 0%)" fill-opacity="1" d="M 1834.539062 306.59375 C 1834.539062 305.007812 1833.90625 303.484375 1832.78125 302.363281 C 1831.65625 301.242188 1830.128906 300.609375 1828.535156 300.609375 C 1826.945312 300.609375 1825.417969 301.242188 1824.292969 302.363281 C 1823.164062 303.484375 1822.53125 305.007812 1822.53125 306.59375 C 1822.53125 308.179688 1823.164062 309.699219 1824.292969 310.824219 C 1825.417969 311.945312 1826.945312 312.574219 1828.535156 312.574219 C 1830.128906 312.574219 1831.65625 311.945312 1832.78125 310.824219 C 1833.90625 309.699219 1834.539062 308.179688 1834.539062 306.59375 Z M 1834.539062 306.59375 "/>
<path fill-rule="nonzero" fill="rgb(0%, 0%, 0%)" fill-opacity="1" d="M 2134.714844 306.59375 C 2134.714844 305.007812 2134.082031 303.484375 2132.953125 302.363281 C 2131.828125 301.242188 2130.300781 300.609375 2128.710938 300.609375 C 2127.117188 300.609375 2125.589844 301.242188 2124.464844 302.363281 C 2123.339844 303.484375 2122.707031 305.007812 2122.707031 306.59375 C 2122.707031 308.179688 2123.339844 309.699219 2124.464844 310.824219 C 2125.589844 311.945312 2127.117188 312.574219 2128.710938 312.574219 C 2130.300781 312.574219 2131.828125 311.945312 2132.953125 310.824219 C 2134.082031 309.699219 2134.714844 308.179688 2134.714844 306.59375 Z M 2134.714844 306.59375 "/>
<path fill-rule="nonzero" fill="rgb(0%, 0%, 0%)" fill-opacity="1" d="M 2434.886719 306.59375 C 2434.886719 305.007812 2434.253906 303.484375 2433.128906 302.363281 C 2432.003906 301.242188 2430.476562 300.609375 2428.882812 300.609375 C 2427.289062 300.609375 2425.765625 301.242188 2424.636719 302.363281 C 2423.511719 303.484375 2422.878906 305.007812 2422.878906 306.59375 C 2422.878906 308.179688 2423.511719 309.699219 2424.636719 310.824219 C 2425.765625 311.945312 2427.289062 312.574219 2428.882812 312.574219 C 2430.476562 312.574219 2432.003906 311.945312 2433.128906 310.824219 C 2434.253906 309.699219 2434.886719 308.179688 2434.886719 306.59375 Z M 2434.886719 306.59375 "/>
<path fill-rule="nonzero" fill="rgb(0%, 0%, 0%)" fill-opacity="1" d="M 2134.714844 7.476562 C 2134.714844 5.890625 2134.082031 4.371094 2132.953125 3.246094 C 2131.828125 2.125 2130.300781 1.496094 2128.710938 1.496094 C 2127.117188 1.496094 2125.589844 2.125 2124.464844 3.246094 C 2123.339844 4.371094 2122.707031 5.890625 2122.707031 7.476562 C 2122.707031 9.066406 2123.339844 10.585938 2124.464844 11.707031 C 2125.589844 12.828125 2127.117188 13.460938 2128.710938 13.460938 C 2130.300781 13.460938 2131.828125 12.828125 2132.953125 11.707031 C 2134.082031 10.585938 2134.714844 9.066406 2134.714844 7.476562 Z M 2134.714844 7.476562 "/>
<path fill-rule="nonzero" fill="rgb(0%, 0%, 0%)" fill-opacity="1" d="M 1834.539062 7.476562 C 1834.539062 5.890625 1833.90625 4.371094 1832.78125 3.246094 C 1831.65625 2.125 1830.128906 1.496094 1828.535156 1.496094 C 1826.945312 1.496094 1825.417969 2.125 1824.292969 3.246094 C 1823.164062 4.371094 1822.53125 5.890625 1822.53125 7.476562 C 1822.53125 9.066406 1823.164062 10.585938 1824.292969 11.707031 C 1825.417969 12.828125 1826.945312 13.460938 1828.535156 13.460938 C 1830.128906 13.460938 1831.65625 12.828125 1832.78125 11.707031 C 1833.90625 10.585938 1834.539062 9.066406 1834.539062 7.476562 Z M 1834.539062 7.476562 "/>
<path fill-rule="nonzero" fill="rgb(0%, 0%, 0%)" fill-opacity="1" d="M 1534.367188 7.476562 C 1534.367188 5.890625 1533.734375 4.371094 1532.609375 3.246094 C 1531.484375 2.125 1529.957031 1.496094 1528.363281 1.496094 C 1526.769531 1.496094 1525.242188 2.125 1524.117188 3.246094 C 1522.992188 4.371094 1522.359375 5.890625 1522.359375 7.476562 C 1522.359375 9.066406 1522.992188 10.585938 1524.117188 11.707031 C 1525.242188 12.828125 1526.769531 13.460938 1528.363281 13.460938 C 1529.957031 13.460938 1531.484375 12.828125 1532.609375 11.707031 C 1533.734375 10.585938 1534.367188 9.066406 1534.367188 7.476562 Z M 1534.367188 7.476562 "/>
<path fill-rule="nonzero" fill="rgb(0%, 0%, 0%)" fill-opacity="1" d="M 1234.195312 7.476562 C 1234.195312 5.890625 1233.5625 4.371094 1232.433594 3.246094 C 1231.308594 2.125 1229.78125 1.496094 1228.191406 1.496094 C 1226.597656 1.496094 1225.070312 2.125 1223.945312 3.246094 C 1222.820312 4.371094 1222.1875 5.890625 1222.1875 7.476562 C 1222.1875 9.066406 1222.820312 10.585938 1223.945312 11.707031 C 1225.070312 12.828125 1226.597656 13.460938 1228.191406 13.460938 C 1229.78125 13.460938 1231.308594 12.828125 1232.433594 11.707031 C 1233.5625 10.585938 1234.195312 9.066406 1234.195312 7.476562 Z M 1234.195312 7.476562 "/>
<path fill-rule="nonzero" fill="rgb(0%, 0%, 0%)" fill-opacity="1" d="M 934.019531 7.476562 C 934.019531 5.890625 933.386719 4.371094 932.261719 3.246094 C 931.136719 2.125 929.609375 1.496094 928.015625 1.496094 C 926.425781 1.496094 924.898438 2.125 923.773438 3.246094 C 922.644531 4.371094 922.011719 5.890625 922.011719 7.476562 C 922.011719 9.066406 922.644531 10.585938 923.773438 11.707031 C 924.898438 12.828125 926.425781 13.460938 928.015625 13.460938 C 929.609375 13.460938 931.136719 12.828125 932.261719 11.707031 C 933.386719 10.585938 934.019531 9.066406 934.019531 7.476562 Z M 934.019531 7.476562 "/>
<path fill-rule="nonzero" fill="rgb(0%, 0%, 0%)" fill-opacity="1" d="M 633.847656 7.476562 C 633.847656 5.890625 633.214844 4.371094 632.089844 3.246094 C 630.960938 2.125 629.433594 1.496094 627.84375 1.496094 C 626.25 1.496094 624.722656 2.125 623.597656 3.246094 C 622.472656 4.371094 621.839844 5.890625 621.839844 7.476562 C 621.839844 9.066406 622.472656 10.585938 623.597656 11.707031 C 624.722656 12.828125 626.25 13.460938 627.84375 13.460938 C 629.433594 13.460938 630.960938 12.828125 632.089844 11.707031 C 633.214844 10.585938 633.847656 9.066406 633.847656 7.476562 Z M 633.847656 7.476562 "/>
<path fill-rule="nonzero" fill="rgb(0%, 0%, 0%)" fill-opacity="1" d="M 333.671875 7.476562 C 333.671875 5.890625 333.039062 4.371094 331.914062 3.246094 C 330.789062 2.125 329.261719 1.496094 327.671875 1.496094 C 326.078125 1.496094 324.550781 2.125 323.425781 3.246094 C 322.300781 4.371094 321.667969 5.890625 321.667969 7.476562 C 321.667969 9.066406 322.300781 10.585938 323.425781 11.707031 C 324.550781 12.828125 326.078125 13.460938 327.671875 13.460938 C 329.261719 13.460938 330.789062 12.828125 331.914062 11.707031 C 333.039062 10.585938 333.671875 9.066406 333.671875 7.476562 Z M 333.671875 7.476562 "/>
<path fill-rule="nonzero" fill="rgb(0%, 0%, 0%)" fill-opacity="1" d="M 28.59375 274.304688 C 28.628906 274.339844 28.652344 274.375 28.652344 274.398438 C 28.652344 274.410156 28.652344 274.457031 28.652344 274.539062 C 28.652344 279.421875 28.652344 284.304688 28.652344 289.1875 C 28.652344 289.808594 28.828125 290.207031 29.15625 290.382812 C 29.496094 290.542969 30.117188 290.648438 31.03125 290.683594 C 31.03125 290.796875 31.03125 290.910156 31.03125 291.023438 C 28.734375 291.023438 26.433594 291.023438 24.136719 291.023438 C 24.136719 290.902344 24.136719 290.78125 24.136719 290.660156 C 25.121094 290.613281 25.765625 290.472656 26.070312 290.253906 C 26.363281 290.042969 26.515625 289.5625 26.515625 288.839844 C 26.515625 285.082031 26.515625 281.320312 26.515625 277.5625 C 26.515625 277.179688 26.46875 276.875 26.375 276.675781 C 26.269531 276.476562 26.058594 276.371094 25.730469 276.371094 C 25.519531 276.371094 25.25 276.429688 24.910156 276.546875 C 24.570312 276.664062 24.253906 276.792969 23.960938 276.921875 C 23.960938 276.808594 23.960938 276.695312 23.960938 276.582031 C 25.457031 275.824219 26.957031 275.0625 28.453125 274.304688 C 28.5 274.304688 28.546875 274.304688 28.59375 274.304688 Z M 28.59375 274.304688 "/>
<path fill-rule="nonzero" fill="rgb(0%, 0%, 0%)" fill-opacity="1" d="M 346.132812 290.777344 C 349.109375 287.695312 351.125 285.425781 352.195312 283.988281 C 353.261719 282.542969 353.800781 281.140625 353.800781 279.761719 C 353.800781 278.558594 353.472656 277.644531 352.816406 277.015625 C 352.171875 276.394531 351.386719 276.078125 350.480469 276.078125 C 349.367188 276.078125 348.464844 276.476562 347.773438 277.292969 C 347.386719 277.738281 347.023438 278.429688 346.671875 279.351562 C 346.5 279.316406 346.328125 279.28125 346.15625 279.246094 C 346.554688 277.375 347.246094 276.078125 348.21875 275.355469 C 349.191406 274.628906 350.234375 274.269531 351.351562 274.269531 C 352.734375 274.269531 353.847656 274.699219 354.691406 275.554688 C 355.546875 276.417969 355.96875 277.480469 355.96875 278.730469 C 355.96875 280.0625 355.511719 281.335938 354.585938 282.574219 C 353.671875 283.816406 351.667969 286 348.59375 289.164062 C 350.460938 289.164062 352.332031 289.164062 354.199219 289.164062 C 354.984375 289.164062 355.535156 289.074219 355.851562 288.886719 C 356.167969 288.699219 356.519531 288.242188 356.917969 287.519531 C 357.023438 287.566406 357.128906 287.613281 357.234375 287.660156 C 356.785156 288.792969 356.335938 289.925781 355.886719 291.058594 C 352.636719 291.058594 349.382812 291.058594 346.132812 291.058594 C 346.132812 290.964844 346.132812 290.871094 346.132812 290.777344 Z M 346.132812 290.777344 "/>
<path fill-rule="nonzero" fill="rgb(0%, 0%, 0%)" fill-opacity="1" d="M 623.832031 288.890625 C 624.277344 288.890625 624.863281 289.125 625.605469 289.582031 C 626.34375 290.046875 626.964844 290.28125 627.480469 290.28125 C 628.617188 290.28125 629.472656 289.894531 630.023438 289.125 C 630.574219 288.355469 630.855469 287.523438 630.855469 286.625 C 630.855469 285.761719 630.621094 284.988281 630.175781 284.335938 C 629.425781 283.222656 628.148438 282.664062 626.34375 282.664062 C 626.238281 282.664062 626.132812 282.675781 626.039062 282.675781 C 625.945312 282.675781 625.828125 282.6875 625.699219 282.710938 C 625.691406 282.605469 625.683594 282.5 625.675781 282.394531 C 626.976562 281.914062 628.007812 281.378906 628.746094 280.769531 C 629.496094 280.164062 629.871094 279.355469 629.871094 278.363281 C 629.871094 277.476562 629.578125 276.796875 628.992188 276.34375 C 628.394531 275.875 627.726562 275.640625 626.964844 275.640625 C 626.074219 275.640625 625.289062 275.980469 624.59375 276.632812 C 624.21875 276.984375 623.820312 277.546875 623.386719 278.292969 C 623.261719 278.261719 623.136719 278.230469 623.011719 278.199219 C 623.339844 276.972656 623.9375 275.980469 624.828125 275.246094 C 625.722656 274.507812 626.742188 274.132812 627.914062 274.132812 C 629.15625 274.132812 630.117188 274.472656 630.796875 275.164062 C 631.476562 275.839844 631.816406 276.621094 631.816406 277.523438 C 631.816406 278.304688 631.535156 279.03125 630.972656 279.683594 C 630.65625 280.058594 630.164062 280.480469 629.496094 280.945312 C 630.28125 281.273438 630.902344 281.660156 631.371094 282.113281 C 632.265625 282.96875 632.710938 284.042969 632.710938 285.351562 C 632.710938 286.894531 632.101562 288.25 630.878906 289.429688 C 629.660156 290.597656 627.9375 291.191406 625.6875 291.191406 C 624.6875 291.191406 623.984375 291.042969 623.574219 290.75 C 623.175781 290.445312 622.976562 290.128906 622.976562 289.792969 C 622.976562 289.582031 623.035156 289.371094 623.175781 289.183594 C 623.304688 288.984375 623.527344 288.890625 623.832031 288.890625 Z M 623.832031 288.890625 "/>
<path fill-rule="nonzero" fill="rgb(0%, 0%, 0%)" fill-opacity="1" d="M 929.265625 276.804688 C 927.265625 279.621094 925.261719 282.4375 923.261719 285.25 C 925.261719 285.25 927.265625 285.25 929.265625 285.25 C 929.265625 282.4375 929.265625 279.621094 929.265625 276.804688 Z M 930.074219 274.304688 C 930.460938 274.304688 930.847656 274.304688 931.234375 274.304688 C 931.234375 277.953125 931.234375 281.601562 931.234375 285.25 C 932.082031 285.25 932.929688 285.25 933.78125 285.25 C 933.78125 285.792969 933.78125 286.335938 933.78125 286.875 C 932.929688 286.875 932.082031 286.875 931.234375 286.875 C 931.234375 288.257812 931.234375 289.640625 931.234375 291.023438 C 930.585938 291.023438 929.9375 291.023438 929.289062 291.023438 C 929.289062 289.640625 929.289062 288.257812 929.289062 286.875 C 926.945312 286.875 924.597656 286.875 922.253906 286.875 C 922.253906 286.335938 922.253906 285.792969 922.253906 285.25 C 924.859375 281.601562 927.46875 277.953125 930.074219 274.304688 Z M 930.074219 274.304688 "/>
<path fill-rule="nonzero" fill="rgb(0%, 0%, 0%)" fill-opacity="1" d="M 164.09375 288.597656 C 164.09375 285.773438 164.9375 283.292969 166.636719 281.15625 C 167.679688 279.847656 168.902344 278.796875 170.320312 278 C 170.398438 278.136719 170.476562 278.273438 170.554688 278.410156 C 169.242188 279.449219 168.300781 280.457031 167.738281 281.4375 C 166.753906 283.15625 166.261719 285.433594 166.261719 288.285156 C 166.261719 290.386719 166.449219 292.128906 166.824219 293.496094 C 167.480469 295.902344 168.726562 297.703125 170.554688 298.894531 C 170.449219 299.027344 170.34375 299.15625 170.238281 299.289062 C 169.230469 298.8125 168.148438 297.875 166.988281 296.484375 C 165.054688 294.171875 164.09375 291.542969 164.09375 288.597656 Z M 164.09375 288.597656 "/>
<path fill-rule="nonzero" fill="rgb(0%, 0%, 0%)" fill-opacity="1" d="M 179.347656 278.128906 C 179.382812 278.164062 179.40625 278.199219 179.40625 278.222656 C 179.40625 278.234375 179.40625 278.28125 179.40625 278.363281 C 179.40625 283.246094 179.40625 288.132812 179.40625 293.015625 C 179.40625 293.636719 179.582031 294.03125 179.910156 294.207031 C 180.25 294.371094 180.871094 294.476562 181.785156 294.511719 C 181.785156 294.625 181.785156 294.738281 181.785156 294.851562 C 179.488281 294.851562 177.191406 294.851562 174.890625 294.851562 C 174.890625 294.730469 174.890625 294.609375 174.890625 294.488281 C 175.878906 294.441406 176.523438 294.300781 176.828125 294.078125 C 177.121094 293.867188 177.273438 293.390625 177.273438 292.664062 C 177.273438 288.90625 177.273438 285.148438 177.273438 281.390625 C 177.273438 281.003906 177.226562 280.699219 177.132812 280.503906 C 177.027344 280.304688 176.816406 280.199219 176.488281 280.199219 C 176.277344 280.199219 176.007812 280.257812 175.667969 280.375 C 175.324219 280.492188 175.007812 280.617188 174.714844 280.746094 C 174.714844 280.632812 174.714844 280.523438 174.714844 280.410156 C 176.214844 279.648438 177.710938 278.890625 179.207031 278.128906 C 179.253906 278.128906 179.300781 278.128906 179.347656 278.128906 Z M 179.347656 278.128906 "/>
<path fill-rule="nonzero" fill="rgb(0%, 0%, 0%)" fill-opacity="1" d="M 191.074219 288.714844 C 191.074219 289.917969 190.921875 291.066406 190.605469 292.152344 C 190.289062 293.226562 189.820312 294.242188 189.210938 295.199219 C 188.5625 296.230469 187.707031 297.175781 186.628906 298.0625 C 185.925781 298.648438 185.328125 299.054688 184.847656 299.289062 C 184.769531 299.15625 184.691406 299.027344 184.613281 298.894531 C 185.867188 297.945312 186.78125 296.976562 187.367188 295.984375 C 188.386719 294.230469 188.902344 291.917969 188.902344 289.03125 C 188.902344 286.707031 188.667969 284.800781 188.1875 283.328125 C 187.53125 281.238281 186.335938 279.601562 184.613281 278.410156 C 184.71875 278.273438 184.824219 278.136719 184.929688 278 C 186.21875 278.714844 187.414062 279.800781 188.527344 281.238281 C 190.230469 283.46875 191.074219 285.957031 191.074219 288.714844 Z M 191.074219 288.714844 "/>
<path fill-rule="nonzero" fill="rgb(0%, 0%, 0%)" fill-opacity="1" d="M 464.265625 288.597656 C 464.265625 285.773438 465.109375 283.292969 466.8125 281.15625 C 467.855469 279.847656 469.074219 278.796875 470.492188 278 C 470.570312 278.136719 470.648438 278.273438 470.726562 278.410156 C 469.414062 279.449219 468.476562 280.457031 467.914062 281.4375 C 466.929688 283.15625 466.4375 285.433594 466.4375 288.285156 C 466.4375 290.386719 466.625 292.128906 467 293.496094 C 467.65625 295.902344 468.898438 297.703125 470.726562 298.894531 C 470.621094 299.027344 470.515625 299.15625 470.410156 299.289062 C 469.402344 298.8125 468.324219 297.875 467.164062 296.484375 C 465.226562 294.171875 464.265625 291.542969 464.265625 288.597656 Z M 464.265625 288.597656 "/>
<path fill-rule="nonzero" fill="rgb(0%, 0%, 0%)" fill-opacity="1" d="M 472.871094 294.570312 C 475.851562 291.484375 477.867188 289.21875 478.933594 287.78125 C 480.003906 286.332031 480.542969 284.929688 480.542969 283.550781 C 480.542969 282.347656 480.214844 281.4375 479.554688 280.804688 C 478.910156 280.1875 478.125 279.871094 477.222656 279.871094 C 476.109375 279.871094 475.207031 280.269531 474.515625 281.085938 C 474.128906 281.53125 473.765625 282.21875 473.414062 283.144531 C 473.242188 283.109375 473.070312 283.074219 472.894531 283.039062 C 473.296875 281.167969 473.988281 279.871094 474.960938 279.148438 C 475.933594 278.421875 476.976562 278.058594 478.089844 278.058594 C 479.472656 278.058594 480.589844 278.492188 481.433594 279.34375 C 482.289062 280.210938 482.710938 281.273438 482.710938 282.523438 C 482.710938 283.855469 482.253906 285.128906 481.328125 286.367188 C 480.414062 287.605469 478.40625 289.792969 475.335938 292.957031 C 477.203125 292.957031 479.070312 292.957031 480.941406 292.957031 C 481.726562 292.957031 482.277344 292.863281 482.59375 292.675781 C 482.910156 292.488281 483.261719 292.035156 483.660156 291.308594 C 483.765625 291.355469 483.871094 291.402344 483.976562 291.449219 C 483.527344 292.582031 483.078125 293.71875 482.628906 294.851562 C 479.375 294.851562 476.125 294.851562 472.871094 294.851562 C 472.871094 294.757812 472.871094 294.664062 472.871094 294.570312 Z M 472.871094 294.570312 "/>
<path fill-rule="nonzero" fill="rgb(0%, 0%, 0%)" fill-opacity="1" d="M 491.246094 288.714844 C 491.246094 289.917969 491.09375 291.066406 490.777344 292.152344 C 490.460938 293.226562 489.992188 294.242188 489.382812 295.199219 C 488.738281 296.230469 487.882812 297.175781 486.804688 298.0625 C 486.097656 298.648438 485.5 299.054688 485.019531 299.289062 C 484.941406 299.15625 484.863281 299.027344 484.785156 298.894531 C 486.039062 297.945312 486.957031 296.976562 487.542969 295.984375 C 488.5625 294.230469 489.078125 291.917969 489.078125 289.03125 C 489.078125 286.707031 488.84375 284.800781 488.363281 283.328125 C 487.707031 281.238281 486.507812 279.601562 484.785156 278.410156 C 484.890625 278.273438 484.996094 278.136719 485.101562 278 C 486.390625 278.714844 487.589844 279.800781 488.703125 281.238281 C 490.402344 283.46875 491.246094 285.957031 491.246094 288.714844 Z M 491.246094 288.714844 "/>
<path fill-rule="nonzero" fill="rgb(0%, 0%, 0%)" fill-opacity="1" d="M 782.449219 288.609375 C 782.449219 285.785156 783.292969 283.304688 784.996094 281.167969 C 786.039062 279.859375 787.257812 278.808594 788.675781 278.011719 C 788.753906 278.148438 788.832031 278.285156 788.910156 278.421875 C 787.597656 279.460938 786.660156 280.46875 786.097656 281.449219 C 785.113281 283.167969 784.621094 285.445312 784.621094 288.296875 C 784.621094 290.398438 784.808594 292.140625 785.183594 293.507812 C 785.839844 295.914062 787.082031 297.714844 788.910156 298.90625 C 788.804688 299.039062 788.699219 299.167969 788.59375 299.300781 C 787.585938 298.824219 786.507812 297.886719 785.347656 296.496094 C 783.410156 294.183594 782.449219 291.554688 782.449219 288.609375 Z M 782.449219 288.609375 "/>
<path fill-rule="nonzero" fill="rgb(0%, 0%, 0%)" fill-opacity="1" d="M 792.253906 292.746094 C 792.699219 292.746094 793.285156 292.980469 794.023438 293.4375 C 794.761719 293.902344 795.382812 294.136719 795.898438 294.136719 C 797.035156 294.136719 797.894531 293.753906 798.445312 292.980469 C 798.996094 292.210938 799.277344 291.378906 799.277344 290.480469 C 799.277344 289.617188 799.042969 288.84375 798.597656 288.191406 C 797.847656 287.082031 796.566406 286.519531 794.761719 286.519531 C 794.65625 286.519531 794.550781 286.53125 794.457031 286.53125 C 794.363281 286.53125 794.246094 286.542969 794.117188 286.566406 C 794.109375 286.460938 794.101562 286.355469 794.09375 286.25 C 795.394531 285.773438 796.425781 285.234375 797.164062 284.625 C 797.917969 284.019531 798.292969 283.210938 798.292969 282.21875 C 798.292969 281.332031 798 280.652344 797.410156 280.199219 C 796.8125 279.730469 796.144531 279.496094 795.382812 279.496094 C 794.492188 279.496094 793.707031 279.835938 793.015625 280.492188 C 792.640625 280.839844 792.242188 281.402344 791.808594 282.148438 C 791.683594 282.117188 791.558594 282.085938 791.433594 282.054688 C 791.761719 280.828125 792.359375 279.835938 793.25 279.101562 C 794.140625 278.363281 795.160156 277.988281 796.332031 277.988281 C 797.574219 277.988281 798.539062 278.328125 799.21875 279.019531 C 799.898438 279.695312 800.238281 280.480469 800.238281 281.378906 C 800.238281 282.160156 799.957031 282.886719 799.394531 283.539062 C 799.078125 283.914062 798.585938 284.335938 797.917969 284.800781 C 798.703125 285.128906 799.324219 285.515625 799.792969 285.96875 C 800.683594 286.824219 801.128906 287.898438 801.128906 289.207031 C 801.128906 290.75 800.519531 292.105469 799.300781 293.285156 C 798.082031 294.453125 796.355469 295.050781 794.105469 295.050781 C 793.109375 295.050781 792.40625 294.898438 791.996094 294.605469 C 791.597656 294.300781 791.398438 293.984375 791.398438 293.648438 C 791.398438 293.4375 791.457031 293.226562 791.597656 293.039062 C 791.726562 292.839844 791.949219 292.746094 792.253906 292.746094 Z M 792.253906 292.746094 "/>
<path fill-rule="nonzero" fill="rgb(0%, 0%, 0%)" fill-opacity="1" d="M 809.429688 288.726562 C 809.429688 289.929688 809.277344 291.078125 808.960938 292.164062 C 808.644531 293.238281 808.175781 294.253906 807.566406 295.210938 C 806.921875 296.242188 806.066406 297.1875 804.988281 298.074219 C 804.28125 298.660156 803.683594 299.066406 803.203125 299.300781 C 803.125 299.167969 803.046875 299.039062 802.96875 298.90625 C 804.222656 297.957031 805.140625 296.988281 805.726562 295.996094 C 806.746094 294.242188 807.261719 291.929688 807.261719 289.042969 C 807.261719 286.71875 807.027344 284.8125 806.546875 283.339844 C 805.890625 281.25 804.695312 279.613281 802.96875 278.421875 C 803.074219 278.285156 803.179688 278.148438 803.285156 278.011719 C 804.578125 278.726562 805.773438 279.8125 806.886719 281.25 C 808.585938 283.480469 809.429688 285.96875 809.429688 288.726562 Z M 809.429688 288.726562 "/>
<path fill-rule="nonzero" fill="rgb(0%, 0%, 0%)" fill-opacity="1" d="M 1046.601562 288.597656 C 1046.601562 285.773438 1047.445312 283.292969 1049.148438 281.15625 C 1050.191406 279.847656 1051.410156 278.796875 1052.828125 278 C 1052.90625 278.136719 1052.984375 278.273438 1053.0625 278.410156 C 1051.75 279.449219 1050.8125 280.457031 1050.25 281.4375 C 1049.265625 283.15625 1048.773438 285.433594 1048.773438 288.285156 C 1048.773438 290.386719 1048.960938 292.128906 1049.335938 293.496094 C 1049.992188 295.902344 1051.234375 297.703125 1053.0625 298.894531 C 1052.957031 299.027344 1052.851562 299.15625 1052.746094 299.289062 C 1051.738281 298.8125 1050.660156 297.875 1049.5 296.484375 C 1047.5625 294.171875 1046.601562 291.542969 1046.601562 288.597656 Z M 1046.601562 288.597656 "/>
<path fill-rule="nonzero" fill="rgb(0%, 0%, 0%)" fill-opacity="1" d="M 1061.753906 280.628906 C 1059.75 283.445312 1057.75 286.261719 1055.75 289.078125 C 1057.75 289.078125 1059.75 289.078125 1061.753906 289.078125 C 1061.753906 286.261719 1061.753906 283.445312 1061.753906 280.628906 Z M 1062.5625 278.128906 C 1062.949219 278.128906 1063.335938 278.128906 1063.722656 278.128906 C 1063.722656 281.78125 1063.722656 285.429688 1063.722656 289.078125 C 1064.570312 289.078125 1065.417969 289.078125 1066.265625 289.078125 C 1066.265625 289.621094 1066.265625 290.160156 1066.265625 290.703125 C 1065.417969 290.703125 1064.570312 290.703125 1063.722656 290.703125 C 1063.722656 292.085938 1063.722656 293.46875 1063.722656 294.851562 C 1063.074219 294.851562 1062.425781 294.851562 1061.777344 294.851562 C 1061.777344 293.46875 1061.777344 292.085938 1061.777344 290.703125 C 1059.429688 290.703125 1057.085938 290.703125 1054.738281 290.703125 C 1054.738281 290.160156 1054.738281 289.621094 1054.738281 289.078125 C 1057.347656 285.429688 1059.953125 281.78125 1062.5625 278.128906 Z M 1062.5625 278.128906 "/>
<path fill-rule="nonzero" fill="rgb(0%, 0%, 0%)" fill-opacity="1" d="M 1073.582031 288.714844 C 1073.582031 289.917969 1073.429688 291.066406 1073.113281 292.152344 C 1072.796875 293.226562 1072.328125 294.242188 1071.71875 295.199219 C 1071.074219 296.230469 1070.21875 297.175781 1069.140625 298.0625 C 1068.4375 298.648438 1067.835938 299.054688 1067.355469 299.289062 C 1067.277344 299.15625 1067.199219 299.027344 1067.121094 298.894531 C 1068.375 297.945312 1069.292969 296.976562 1069.878906 295.984375 C 1070.898438 294.230469 1071.414062 291.917969 1071.414062 289.03125 C 1071.414062 286.707031 1071.179688 284.800781 1070.699219 283.328125 C 1070.042969 281.238281 1068.847656 279.601562 1067.121094 278.410156 C 1067.226562 278.273438 1067.332031 278.136719 1067.4375 278 C 1068.730469 278.714844 1069.925781 279.800781 1071.039062 281.238281 C 1072.738281 283.46875 1073.582031 285.957031 1073.582031 288.714844 Z M 1073.582031 288.714844 "/>
<path fill-rule="nonzero" fill="rgb(0%, 0%, 0%)" fill-opacity="1" d="M 1388.800781 306.6875 C 1388.800781 303.859375 1389.644531 301.382812 1391.34375 299.242188 C 1392.386719 297.933594 1393.609375 296.882812 1395.027344 296.089844 C 1395.105469 296.226562 1395.183594 296.363281 1395.261719 296.496094 C 1393.949219 297.539062 1393.007812 298.542969 1392.445312 299.523438 C 1391.460938 301.242188 1390.96875 303.519531 1390.96875 306.371094 C 1390.96875 308.472656 1391.15625 310.214844 1391.53125 311.582031 C 1392.1875 313.988281 1393.433594 315.789062 1395.261719 316.980469 C 1395.15625 317.113281 1395.050781 317.246094 1394.945312 317.378906 C 1393.9375 316.898438 1392.855469 315.964844 1391.695312 314.574219 C 1389.761719 312.257812 1388.800781 309.628906 1388.800781 306.6875 Z M 1388.800781 306.6875 "/>
<path fill-rule="nonzero" fill="rgb(0%, 0%, 0%)" fill-opacity="1" d="M 1398.519531 310.707031 C 1398.988281 310.707031 1399.597656 310.972656 1400.351562 311.5 C 1401.101562 312.027344 1401.6875 312.28125 1402.097656 312.28125 C 1403.035156 312.28125 1403.84375 311.875 1404.546875 311.042969 C 1405.25 310.226562 1405.589844 309.210938 1405.589844 308.007812 C 1405.589844 305.902344 1404.476562 304.394531 1402.226562 303.472656 C 1400.984375 302.960938 1399.820312 302.703125 1398.742188 302.703125 C 1398.566406 302.703125 1398.449219 302.691406 1398.402344 302.679688 C 1398.355469 302.667969 1398.308594 302.632812 1398.238281 302.550781 C 1398.261719 302.492188 1398.273438 302.433594 1398.285156 302.386719 C 1398.296875 302.339844 1398.308594 302.304688 1398.332031 302.257812 C 1399.21875 300.324219 1400.109375 298.386719 1400.996094 296.449219 C 1402.742188 296.449219 1404.488281 296.449219 1406.234375 296.449219 C 1406.492188 296.449219 1406.695312 296.40625 1406.835938 296.3125 C 1406.976562 296.21875 1407.164062 296.054688 1407.398438 295.808594 C 1407.460938 295.867188 1407.523438 295.925781 1407.585938 295.984375 C 1407.269531 296.734375 1406.953125 297.488281 1406.636719 298.238281 C 1406.597656 298.308594 1406.515625 298.355469 1406.363281 298.378906 C 1406.222656 298.402344 1406.058594 298.402344 1405.882812 298.402344 C 1404.308594 298.402344 1402.734375 298.402344 1401.160156 298.402344 C 1400.816406 299.113281 1400.472656 299.828125 1400.128906 300.539062 C 1401.464844 300.761719 1402.4375 300.972656 1403.058594 301.183594 C 1404.078125 301.523438 1404.921875 302.023438 1405.613281 302.691406 C 1406.199219 303.261719 1406.636719 303.917969 1406.941406 304.628906 C 1407.246094 305.355469 1407.398438 306.113281 1407.398438 306.910156 C 1407.398438 308.707031 1406.753906 310.203125 1405.472656 311.40625 C 1404.183594 312.609375 1402.566406 313.207031 1400.597656 313.207031 C 1399.796875 313.207031 1399.164062 313.125 1398.671875 312.972656 C 1397.851562 312.726562 1397.453125 312.269531 1397.453125 311.628906 C 1397.453125 311.382812 1397.535156 311.160156 1397.710938 310.984375 C 1397.886719 310.800781 1398.15625 310.707031 1398.519531 310.707031 Z M 1398.519531 310.707031 "/>
<path fill-rule="nonzero" fill="rgb(0%, 0%, 0%)" fill-opacity="1" d="M 1415.78125 306.804688 C 1415.78125 308.007812 1415.628906 309.152344 1415.3125 310.238281 C 1414.996094 311.3125 1414.527344 312.328125 1413.917969 313.289062 C 1413.269531 314.316406 1412.414062 315.261719 1411.335938 316.152344 C 1410.632812 316.734375 1410.035156 317.144531 1409.554688 317.378906 C 1409.476562 317.246094 1409.398438 317.113281 1409.320312 316.980469 C 1410.574219 316.035156 1411.488281 315.0625 1412.074219 314.070312 C 1413.09375 312.316406 1413.613281 310.003906 1413.613281 307.117188 C 1413.613281 304.792969 1413.375 302.890625 1412.894531 301.417969 C 1412.238281 299.324219 1411.042969 297.691406 1409.320312 296.496094 C 1409.425781 296.363281 1409.53125 296.226562 1409.636719 296.089844 C 1410.925781 296.800781 1412.121094 297.886719 1413.234375 299.324219 C 1414.9375 301.558594 1415.78125 304.046875 1415.78125 306.804688 Z M 1415.78125 306.804688 "/>
<path fill-rule="nonzero" fill="url(#linear-pattern-0)" stroke-width="0.04" stroke-linecap="butt" stroke-linejoin="miter" stroke="rgb(100%, 100%, 100%)" stroke-opacity="1" stroke-miterlimit="10" d="M 20.170443 1.999975 C 20.003742 1.999975 19.837107 1.999975 19.670406 1.999975 C 19.670406 0.66668 19.670406 -0.66668 19.670406 -1.999975 C 19.837107 -1.999975 20.003742 -1.999975 20.170443 -1.999975 C 20.170443 -0.66668 20.170443 0.66668 20.170443 1.999975 Z M 20.170443 1.999975 " transform="matrix(60.034665, 0, 0, -59.823009, 1288.5, 169)"/>
<path fill-rule="nonzero" fill="rgb(0%, 0%, 0%)" fill-opacity="1" d="M 2525.160156 271.808594 C 2525.160156 271.941406 2525.160156 272.074219 2525.160156 272.207031 C 2523.394531 277.648438 2521.628906 283.089844 2519.863281 288.527344 C 2519.324219 288.527344 2518.789062 288.527344 2518.253906 288.527344 C 2519.90625 283.566406 2521.554688 278.605469 2523.203125 273.644531 C 2521.425781 273.644531 2519.648438 273.644531 2517.867188 273.644531 C 2517.082031 273.644531 2516.519531 273.773438 2516.167969 274.027344 C 2515.828125 274.285156 2515.382812 274.835938 2514.855469 275.664062 C 2514.714844 275.597656 2514.574219 275.53125 2514.433594 275.464844 C 2514.960938 274.167969 2515.289062 273.363281 2515.417969 273.058594 C 2515.535156 272.753906 2515.699219 272.335938 2515.910156 271.808594 C 2518.992188 271.808594 2522.078125 271.808594 2525.160156 271.808594 Z M 2525.160156 271.808594 "/>
<path fill-rule="nonzero" fill="rgb(0%, 0%, 0%)" fill-opacity="1" d="M 2530.027344 288.585938 C 2529.640625 288.585938 2529.300781 288.449219 2529.042969 288.179688 C 2528.773438 287.910156 2528.632812 287.582031 2528.632812 287.195312 C 2528.632812 286.824219 2528.773438 286.496094 2529.042969 286.226562 C 2529.3125 285.957031 2529.640625 285.832031 2530.027344 285.832031 C 2530.414062 285.832031 2530.730469 285.957031 2531 286.226562 C 2531.269531 286.496094 2531.410156 286.824219 2531.410156 287.195312 C 2531.410156 287.582031 2531.269531 287.910156 2531.011719 288.179688 C 2530.742188 288.449219 2530.414062 288.585938 2530.027344 288.585938 Z M 2530.027344 288.585938 "/>
<path fill-rule="nonzero" fill="rgb(0%, 0%, 0%)" fill-opacity="1" d="M 2538.234375 287.886719 C 2539.171875 287.886719 2539.890625 287.617188 2540.371094 287.105469 C 2540.851562 286.589844 2541.085938 285.933594 2541.085938 285.152344 C 2541.085938 284.265625 2540.828125 283.550781 2540.324219 283.003906 C 2539.820312 282.453125 2538.773438 281.636719 2537.191406 280.515625 C 2536.488281 280.957031 2535.984375 281.53125 2535.667969 282.21875 C 2535.351562 282.921875 2535.1875 283.597656 2535.1875 284.242188 C 2535.1875 285.351562 2535.480469 286.238281 2536.042969 286.894531 C 2536.617188 287.546875 2537.355469 287.886719 2538.234375 287.886719 Z M 2538.398438 278.585938 C 2539.160156 278.046875 2539.6875 277.59375 2539.984375 277.230469 C 2540.488281 276.609375 2540.746094 275.851562 2540.746094 274.964844 C 2540.746094 274.191406 2540.511719 273.539062 2540.03125 273 C 2539.546875 272.464844 2538.832031 272.195312 2537.859375 272.195312 C 2537.109375 272.195312 2536.488281 272.429688 2536.007812 272.894531 C 2535.515625 273.375 2535.269531 273.949219 2535.269531 274.613281 C 2535.269531 275.371094 2535.5625 276.085938 2536.136719 276.738281 C 2536.710938 277.394531 2537.460938 278 2538.398438 278.585938 Z M 2536.523438 280 C 2535.445312 279.136719 2534.707031 278.445312 2534.320312 277.941406 C 2533.722656 277.160156 2533.417969 276.296875 2533.417969 275.359375 C 2533.417969 274.285156 2533.863281 273.375 2534.753906 272.628906 C 2535.644531 271.878906 2536.804688 271.515625 2538.222656 271.515625 C 2539.535156 271.515625 2540.582031 271.867188 2541.355469 272.570312 C 2542.128906 273.28125 2542.515625 274.097656 2542.515625 275.035156 C 2542.515625 275.980469 2542.117188 276.832031 2541.332031 277.582031 C 2540.875 278.011719 2540.136719 278.515625 2539.113281 279.066406 C 2540.5 280.09375 2541.496094 280.980469 2542.09375 281.742188 C 2542.691406 282.5 2542.996094 283.398438 2542.996094 284.429688 C 2542.996094 285.597656 2542.550781 286.578125 2541.671875 287.371094 C 2540.78125 288.167969 2539.59375 288.5625 2538.117188 288.5625 C 2536.792969 288.5625 2535.65625 288.191406 2534.707031 287.464844 C 2533.757812 286.730469 2533.289062 285.761719 2533.289062 284.554688 C 2533.289062 283.527344 2533.617188 282.617188 2534.273438 281.835938 C 2534.707031 281.320312 2535.457031 280.710938 2536.523438 280 Z M 2536.523438 280 "/>
<path fill-rule="nonzero" fill="rgb(0%, 0%, 0%)" fill-opacity="1" d="M 2555.179688 271.808594 C 2555.179688 271.941406 2555.179688 272.074219 2555.179688 272.207031 C 2553.414062 277.648438 2551.644531 283.089844 2549.878906 288.527344 C 2549.34375 288.527344 2548.808594 288.527344 2548.273438 288.527344 C 2549.921875 283.566406 2551.570312 278.605469 2553.21875 273.644531 C 2551.441406 273.644531 2549.664062 273.644531 2547.886719 273.644531 C 2547.101562 273.644531 2546.535156 273.773438 2546.183594 274.027344 C 2545.84375 274.285156 2545.398438 274.835938 2544.871094 275.664062 C 2544.730469 275.597656 2544.589844 275.53125 2544.449219 275.464844 C 2544.976562 274.167969 2545.304688 273.363281 2545.433594 273.058594 C 2545.550781 272.753906 2545.714844 272.335938 2545.925781 271.808594 C 2549.011719 271.808594 2552.09375 271.808594 2555.179688 271.808594 Z M 2555.179688 271.808594 "/>
<path fill-rule="nonzero" fill="rgb(0%, 0%, 0%)" fill-opacity="1" d="M 2562.882812 271.808594 C 2563.386719 271.808594 2563.796875 271.867188 2564.113281 271.996094 C 2564.277344 272.066406 2564.453125 272.171875 2564.605469 272.3125 C 2564.761719 272.453125 2564.917969 272.59375 2565.074219 272.730469 C 2565.261719 272.894531 2565.53125 273 2565.871094 273.070312 C 2566.210938 273.140625 2566.5625 273.164062 2566.917969 273.164062 C 2567.855469 273.164062 2568.722656 272.941406 2569.507812 272.488281 C 2569.929688 272.253906 2570.375 271.902344 2570.84375 271.445312 C 2571.167969 271.445312 2571.492188 271.445312 2571.816406 271.445312 C 2568.605469 277.179688 2565.390625 282.914062 2562.179688 288.644531 C 2561.785156 288.644531 2561.390625 288.644531 2560.996094 288.644531 C 2563.898438 283.453125 2566.800781 278.261719 2569.707031 273.070312 C 2569.097656 273.351562 2568.640625 273.539062 2568.335938 273.632812 C 2568.03125 273.726562 2567.632812 273.761719 2567.140625 273.761719 C 2566.703125 273.761719 2566.316406 273.738281 2566 273.679688 C 2565.800781 273.644531 2565.589844 273.597656 2565.390625 273.539062 C 2565.460938 273.75 2565.507812 273.9375 2565.53125 274.074219 C 2565.554688 274.214844 2565.566406 274.4375 2565.566406 274.742188 C 2565.566406 276.203125 2565.074219 277.628906 2564.089844 279.019531 C 2563.105469 280.410156 2561.910156 281.097656 2560.480469 281.097656 C 2559.726562 281.097656 2559.035156 280.816406 2558.414062 280.234375 C 2557.792969 279.660156 2557.488281 278.820312 2557.488281 277.710938 C 2557.488281 276.367188 2558.039062 275.046875 2559.128906 273.75 C 2560.222656 272.453125 2561.464844 271.808594 2562.882812 271.808594 Z M 2570.738281 287.546875 C 2571.734375 287.546875 2572.625 286.90625 2573.421875 285.609375 C 2574.222656 284.3125 2574.621094 283.121094 2574.621094 282.019531 C 2574.621094 281.332031 2574.445312 280.804688 2574.117188 280.421875 C 2573.777344 280.035156 2573.339844 279.847656 2572.800781 279.847656 C 2571.839844 279.847656 2570.972656 280.582031 2570.222656 282.066406 C 2569.460938 283.539062 2569.085938 284.8125 2569.085938 285.898438 C 2569.085938 286.4375 2569.238281 286.847656 2569.542969 287.128906 C 2569.859375 287.40625 2570.257812 287.546875 2570.738281 287.546875 Z M 2567.1875 284.894531 C 2567.1875 283.492188 2567.75 282.171875 2568.863281 280.921875 C 2569.988281 279.683594 2571.230469 279.054688 2572.589844 279.054688 C 2573.292969 279.054688 2573.929688 279.261719 2574.46875 279.695312 C 2575.019531 280.117188 2575.289062 280.898438 2575.289062 282.042969 C 2575.289062 283.269531 2574.820312 284.613281 2573.894531 286.109375 C 2572.964844 287.59375 2571.734375 288.332031 2570.222656 288.332031 C 2569.402344 288.332031 2568.6875 288.050781 2568.089844 287.5 C 2567.492188 286.941406 2567.1875 286.074219 2567.1875 284.894531 Z M 2560.9375 280.246094 C 2561.933594 280.246094 2562.847656 279.648438 2563.679688 278.433594 C 2564.511719 277.230469 2564.933594 275.910156 2564.933594 274.484375 C 2564.933594 273.96875 2564.875 273.644531 2564.757812 273.492188 C 2564.652344 273.351562 2564.464844 273.246094 2564.183594 273.175781 C 2563.984375 273.128906 2563.761719 273.011719 2563.492188 272.824219 C 2563.234375 272.628906 2563.070312 272.535156 2563.011719 272.535156 C 2562.226562 272.535156 2561.417969 273.234375 2560.597656 274.648438 C 2559.773438 276.050781 2559.375 277.347656 2559.375 278.539062 C 2559.375 279.078125 2559.503906 279.484375 2559.75 279.789062 C 2560.007812 280.09375 2560.410156 280.246094 2560.9375 280.246094 Z M 2560.9375 280.246094 "/>
<path fill-rule="nonzero" fill="rgb(0%, 0%, 0%)" fill-opacity="1" d="M 2521.445312 52.007812 C 2519.441406 54.820312 2517.441406 57.636719 2515.441406 60.453125 C 2517.441406 60.453125 2519.441406 60.453125 2521.445312 60.453125 C 2521.445312 57.636719 2521.445312 54.820312 2521.445312 52.007812 Z M 2522.253906 49.507812 C 2522.640625 49.507812 2523.027344 49.507812 2523.414062 49.507812 C 2523.414062 53.15625 2523.414062 56.804688 2523.414062 60.453125 C 2524.261719 60.453125 2525.109375 60.453125 2525.957031 60.453125 C 2525.957031 60.996094 2525.957031 61.535156 2525.957031 62.078125 C 2525.109375 62.078125 2524.261719 62.078125 2523.414062 62.078125 C 2523.414062 63.460938 2523.414062 64.84375 2523.414062 66.226562 C 2522.765625 66.226562 2522.117188 66.226562 2521.46875 66.226562 C 2521.46875 64.84375 2521.46875 63.460938 2521.46875 62.078125 C 2519.121094 62.078125 2516.777344 62.078125 2514.433594 62.078125 C 2514.433594 61.535156 2514.433594 60.996094 2514.433594 60.453125 C 2517.039062 56.804688 2519.648438 53.15625 2522.253906 49.507812 Z M 2522.253906 49.507812 "/>
<path fill-rule="nonzero" fill="rgb(0%, 0%, 0%)" fill-opacity="1" d="M 2528.105469 64.109375 C 2528.550781 64.109375 2529.136719 64.34375 2529.875 64.800781 C 2530.613281 65.269531 2531.234375 65.5 2531.75 65.5 C 2532.886719 65.5 2533.746094 65.117188 2534.296875 64.34375 C 2534.847656 63.574219 2535.128906 62.742188 2535.128906 61.84375 C 2535.128906 60.980469 2534.894531 60.207031 2534.449219 59.554688 C 2533.699219 58.445312 2532.417969 57.882812 2530.613281 57.882812 C 2530.507812 57.882812 2530.402344 57.894531 2530.308594 57.894531 C 2530.214844 57.894531 2530.097656 57.90625 2529.96875 57.929688 C 2529.960938 57.824219 2529.953125 57.71875 2529.945312 57.613281 C 2531.246094 57.136719 2532.277344 56.597656 2533.015625 55.992188 C 2533.769531 55.382812 2534.144531 54.578125 2534.144531 53.582031 C 2534.144531 52.695312 2533.851562 52.019531 2533.265625 51.5625 C 2532.664062 51.09375 2531.996094 50.859375 2531.234375 50.859375 C 2530.34375 50.859375 2529.558594 51.199219 2528.867188 51.855469 C 2528.492188 52.203125 2528.09375 52.765625 2527.660156 53.511719 C 2527.535156 53.480469 2527.410156 53.453125 2527.285156 53.421875 C 2527.613281 52.191406 2528.210938 51.199219 2529.101562 50.464844 C 2529.992188 49.726562 2531.011719 49.355469 2532.183594 49.355469 C 2533.429688 49.355469 2534.390625 49.691406 2535.070312 50.382812 C 2535.75 51.058594 2536.089844 51.84375 2536.089844 52.742188 C 2536.089844 53.523438 2535.808594 54.25 2535.246094 54.902344 C 2534.929688 55.277344 2534.4375 55.699219 2533.769531 56.164062 C 2534.554688 56.492188 2535.175781 56.878906 2535.644531 57.335938 C 2536.535156 58.1875 2536.980469 59.261719 2536.980469 60.570312 C 2536.980469 62.113281 2536.371094 63.46875 2535.152344 64.648438 C 2533.933594 65.816406 2532.207031 66.414062 2529.957031 66.414062 C 2528.960938 66.414062 2528.257812 66.261719 2527.847656 65.96875 C 2527.449219 65.664062 2527.25 65.351562 2527.25 65.011719 C 2527.25 64.800781 2527.308594 64.589844 2527.449219 64.402344 C 2527.578125 64.203125 2527.800781 64.109375 2528.105469 64.109375 Z M 2528.105469 64.109375 "/>
<path fill-rule="nonzero" fill="rgb(0%, 0%, 0%)" fill-opacity="1" d="M 2542.246094 66.519531 C 2541.859375 66.519531 2541.519531 66.378906 2541.261719 66.109375 C 2540.992188 65.839844 2540.851562 65.511719 2540.851562 65.128906 C 2540.851562 64.753906 2540.992188 64.425781 2541.261719 64.15625 C 2541.53125 63.890625 2541.859375 63.761719 2542.246094 63.761719 C 2542.632812 63.761719 2542.949219 63.890625 2543.21875 64.15625 C 2543.488281 64.425781 2543.628906 64.753906 2543.628906 65.128906 C 2543.628906 65.511719 2543.488281 65.839844 2543.230469 66.109375 C 2542.960938 66.378906 2542.632812 66.519531 2542.246094 66.519531 Z M 2542.246094 66.519531 "/>
<path fill-rule="nonzero" fill="rgb(0%, 0%, 0%)" fill-opacity="1" d="M 2551.566406 49.507812 C 2551.601562 49.539062 2551.625 49.574219 2551.625 49.597656 C 2551.625 49.609375 2551.625 49.65625 2551.625 49.738281 C 2551.625 54.625 2551.625 59.507812 2551.625 64.390625 C 2551.625 65.011719 2551.800781 65.40625 2552.128906 65.582031 C 2552.46875 65.746094 2553.089844 65.851562 2554.007812 65.886719 C 2554.007812 66 2554.007812 66.113281 2554.007812 66.226562 C 2551.707031 66.226562 2549.410156 66.226562 2547.113281 66.226562 C 2547.113281 66.105469 2547.113281 65.984375 2547.113281 65.863281 C 2548.097656 65.816406 2548.742188 65.675781 2549.046875 65.453125 C 2549.339844 65.246094 2549.492188 64.765625 2549.492188 64.039062 C 2549.492188 60.28125 2549.492188 56.523438 2549.492188 52.765625 C 2549.492188 52.378906 2549.445312 52.078125 2549.351562 51.878906 C 2549.246094 51.679688 2549.035156 51.574219 2548.707031 51.574219 C 2548.496094 51.574219 2548.226562 51.632812 2547.886719 51.75 C 2547.546875 51.867188 2547.230469 51.996094 2546.9375 52.125 C 2546.9375 52.011719 2546.9375 51.898438 2546.9375 51.785156 C 2548.433594 51.023438 2549.929688 50.265625 2551.425781 49.507812 C 2551.472656 49.507812 2551.519531 49.507812 2551.566406 49.507812 Z M 2551.566406 49.507812 "/>
<path fill-rule="nonzero" fill="rgb(0%, 0%, 0%)" fill-opacity="1" d="M 2563.09375 49.738281 C 2563.597656 49.738281 2564.007812 49.796875 2564.324219 49.925781 C 2564.488281 49.996094 2564.664062 50.101562 2564.816406 50.242188 C 2564.972656 50.382812 2565.128906 50.523438 2565.285156 50.664062 C 2565.472656 50.828125 2565.742188 50.929688 2566.082031 51 C 2566.421875 51.070312 2566.773438 51.09375 2567.128906 51.09375 C 2568.066406 51.09375 2568.933594 50.871094 2569.71875 50.417969 C 2570.140625 50.183594 2570.585938 49.832031 2571.054688 49.378906 C 2571.378906 49.378906 2571.703125 49.378906 2572.027344 49.378906 C 2568.816406 55.109375 2565.601562 60.84375 2562.390625 66.578125 C 2561.996094 66.578125 2561.601562 66.578125 2561.207031 66.578125 C 2564.109375 61.386719 2567.015625 56.191406 2569.917969 51 C 2569.308594 51.28125 2568.851562 51.46875 2568.546875 51.5625 C 2568.242188 51.65625 2567.84375 51.691406 2567.351562 51.691406 C 2566.917969 51.691406 2566.527344 51.667969 2566.210938 51.609375 C 2566.011719 51.574219 2565.800781 51.527344 2565.601562 51.46875 C 2565.671875 51.679688 2565.71875 51.867188 2565.742188 52.007812 C 2565.765625 52.148438 2565.777344 52.367188 2565.777344 52.671875 C 2565.777344 54.132812 2565.285156 55.558594 2564.300781 56.949219 C 2563.316406 58.339844 2562.121094 59.027344 2560.691406 59.027344 C 2559.9375 59.027344 2559.246094 58.75 2558.625 58.164062 C 2558.003906 57.589844 2557.699219 56.75 2557.699219 55.640625 C 2557.699219 54.296875 2558.25 52.976562 2559.339844 51.679688 C 2560.433594 50.382812 2561.675781 49.738281 2563.09375 49.738281 Z M 2570.949219 65.476562 C 2571.945312 65.476562 2572.835938 64.835938 2573.636719 63.539062 C 2574.433594 62.242188 2574.832031 61.050781 2574.832031 59.953125 C 2574.832031 59.261719 2574.65625 58.738281 2574.328125 58.351562 C 2573.988281 57.964844 2573.550781 57.777344 2573.011719 57.777344 C 2572.050781 57.777344 2571.183594 58.515625 2570.433594 60 C 2569.671875 61.46875 2569.296875 62.742188 2569.296875 63.832031 C 2569.296875 64.367188 2569.449219 64.777344 2569.753906 65.058594 C 2570.070312 65.339844 2570.46875 65.476562 2570.949219 65.476562 Z M 2567.398438 62.824219 C 2567.398438 61.421875 2567.960938 60.101562 2569.074219 58.851562 C 2570.199219 57.613281 2571.441406 56.984375 2572.800781 56.984375 C 2573.503906 56.984375 2574.140625 57.195312 2574.679688 57.625 C 2575.230469 58.046875 2575.5 58.828125 2575.5 59.976562 C 2575.5 61.203125 2575.03125 62.546875 2574.105469 64.039062 C 2573.175781 65.523438 2571.945312 66.261719 2570.433594 66.261719 C 2569.613281 66.261719 2568.898438 65.980469 2568.300781 65.429688 C 2567.703125 64.871094 2567.398438 64.007812 2567.398438 62.824219 Z M 2561.148438 58.175781 C 2562.144531 58.175781 2563.058594 57.578125 2563.890625 56.363281 C 2564.722656 55.160156 2565.144531 53.839844 2565.144531 52.414062 C 2565.144531 51.902344 2565.085938 51.574219 2564.96875 51.421875 C 2564.863281 51.28125 2564.675781 51.175781 2564.394531 51.105469 C 2564.195312 51.058594 2563.972656 50.941406 2563.703125 50.757812 C 2563.445312 50.558594 2563.28125 50.464844 2563.222656 50.464844 C 2562.4375 50.464844 2561.628906 51.164062 2560.808594 52.578125 C 2559.984375 53.980469 2559.585938 55.277344 2559.585938 56.46875 C 2559.585938 57.007812 2559.714844 57.417969 2559.960938 57.71875 C 2560.222656 58.023438 2560.621094 58.175781 2561.148438 58.175781 Z M 2561.148438 58.175781 "/>
</svg>
