<?xml version="1.0" encoding="UTF-8"?>
<svg xmlns="http://www.w3.org/2000/svg" xmlns:xlink="http://www.w3.org/1999/xlink" width="674" height="436" viewBox="0 0 674 436">
<path fill="none" stroke-width="0.04" stroke-linecap="butt" stroke-linejoin="miter" stroke="rgb(0%, 0%, 0%)" stroke-opacity="1" stroke-miterlimit="10" d="M -5.156472 -1.487599 C -3.489798 -1.487599 -1.823124 -1.487599 -0.156515 -1.487599 " transform="matrix(60.023178, 0, 0, -59.932984, 337, 218)"/>
<path fill="none" stroke-width="0.04" stroke-linecap="butt" stroke-linejoin="miter" stroke="rgb(0%, 0%, 0%)" stroke-opacity="1" stroke-miterlimit="10" d="M -0.156515 -1.487599 C 1.510159 -1.487599 3.176833 -1.487599 4.843507 -1.487599 " transform="matrix(60.023178, 0, 0, -59.932984, 337, 218)"/>
<path fill="none" stroke-width="0.04" stroke-linecap="butt" stroke-linejoin="miter" stroke="rgb(0%, 0%, 0%)" stroke-opacity="1" stroke-miterlimit="10" d="M 4.843507 -1.487599 C 3.176833 0.179041 1.510159 1.845746 -0.156515 3.512387 " transform="matrix(60.023178, 0, 0, -59.932984, 337, 218)"/>
<path fill="none" stroke-width="0.04" stroke-linecap="butt" stroke-linejoin="miter" stroke="rgb(0%, 0%, 0%)" stroke-opacity="1" stroke-miterlimit="10" d="M -0.156515 3.512387 C -1.823124 1.845746 -3.489798 0.179041 -5.156472 -1.487599 " transform="matrix(60.023178, 0, 0, -59.932984, 337, 218)"/>
<path fill="none" stroke-width="0.04" stroke-linecap="butt" stroke-linejoin="miter" stroke="rgb(0%, 0%, 0%)" stroke-opacity="1" stroke-miterlimit="10" d="M -0.156515 -1.487599 C -0.156515 0.179041 -0.156515 1.845746 -0.156515 3.512387 " transform="matrix(60.023178, 0, 0, -59.932984, 337, 218)"/>
<path fill="none" stroke-width="0.04" stroke-linecap="butt" stroke-linejoin="miter" stroke="rgb(0%, 0%, 0%)" stroke-opacity="1" stroke-miterlimit="10" d="M -5.156472 -1.487599 C -5.252723 -1.654257 -5.34891 -1.820914 -5.445162 -1.987572 C -5.252723 -1.987572 -5.060285 -1.987572 -4.867781 -1.987572 C -4.964033 -1.820914 -5.060285 -1.654257 -5.156472 -1.487599 Z M -5.156472 -1.487599 " transform="matrix(60.023178, 0, 0, -59.932984, 337, 218)"/>
<path fill="none" stroke-width="0.04" stroke-linecap="butt" stroke-linejoin="miter" stroke="rgb(0%, 0%, 0%)" stroke-opacity="1" stroke-miterlimit="10" d="M -4.723501 -1.987572 C -5.012126 -1.987572 -5.300817 -1.987572 -5.589507 -1.987572 " transform="matrix(60.023178, 0, 0, -59.932984, 337, 218)"/>
<path fill="none" stroke-width="0.04" stroke-linecap="butt" stroke-linejoin="miter" stroke="rgb(0%, 0%, 0%)" stroke-opacity="1" stroke-miterlimit="10" d="M 5.09354 -1.737618 C 5.09354 -1.671268 5.067183 -1.60772 5.020261 -1.560858 C 4.973404 -1.513931 4.909822 -1.487599 4.843507 -1.487599 C 4.777191 -1.487599 4.713609 -1.513931 4.666752 -1.560858 C 4.61983 -1.60772 4.593538 -1.671268 4.593538 -1.737618 C 4.593538 -1.803903 4.61983 -1.867516 4.666752 -1.914378 C 4.713609 -1.96124 4.777191 -1.987572 4.843507 -1.987572 C 4.909822 -1.987572 4.973404 -1.96124 5.020261 -1.914378 C 5.067183 -1.867516 5.09354 -1.803903 5.09354 -1.737618 Z M 5.09354 -1.737618 " transform="matrix(60.023178, 0, 0, -59.932984, 337, 218)"/>
<path fill="none" stroke-width="0.04" stroke-linecap="butt" stroke-linejoin="miter" stroke="rgb(0%, 0%, 0%)" stroke-opacity="1" stroke-miterlimit="10" d="M 5.218492 -1.987572 C 4.968523 -1.987572 4.71849 -1.987572 4.468521 -1.987572 " transform="matrix(60.023178, 0, 0, -59.932984, 337, 218)"/>
<path fill-rule="nonzero" fill="rgb(0%, 0%, 0%)" fill-opacity="1" d="M 33.492188 307.15625 C 33.492188 305.566406 32.859375 304.042969 31.734375 302.917969 C 30.609375 301.792969 29.082031 301.164062 27.492188 301.164062 C 25.898438 301.164062 24.371094 301.792969 23.246094 302.917969 C 22.121094 304.042969 21.488281 305.566406 21.488281 307.15625 C 21.488281 308.746094 22.121094 310.269531 23.246094 311.394531 C 24.371094 312.519531 25.898438 313.148438 27.492188 313.148438 C 29.082031 313.148438 30.609375 312.519531 31.734375 311.394531 C 32.859375 310.269531 33.492188 308.746094 33.492188 307.15625 Z M 33.492188 307.15625 "/>
<path fill-rule="nonzero" fill="rgb(0%, 0%, 0%)" fill-opacity="1" d="M 333.609375 307.15625 C 333.609375 305.566406 332.976562 304.042969 331.851562 302.917969 C 330.726562 301.792969 329.199219 301.164062 327.605469 301.164062 C 326.015625 301.164062 324.488281 301.792969 323.363281 302.917969 C 322.238281 304.042969 321.605469 305.566406 321.605469 307.15625 C 321.605469 308.746094 322.238281 310.269531 323.363281 311.394531 C 324.488281 312.519531 326.015625 313.148438 327.605469 313.148438 C 329.199219 313.148438 330.726562 312.519531 331.851562 311.394531 C 332.976562 310.269531 333.609375 308.746094 333.609375 307.15625 Z M 333.609375 307.15625 "/>
<path fill-rule="nonzero" fill="rgb(0%, 0%, 0%)" fill-opacity="1" d="M 633.726562 307.15625 C 633.726562 305.566406 633.09375 304.042969 631.96875 302.917969 C 630.839844 301.792969 629.316406 301.164062 627.722656 301.164062 C 626.132812 301.164062 624.605469 301.792969 623.480469 302.917969 C 622.351562 304.042969 621.722656 305.566406 621.722656 307.15625 C 621.722656 308.746094 622.351562 310.269531 623.480469 311.394531 C 624.605469 312.519531 626.132812 313.148438 627.722656 313.148438 C 629.316406 313.148438 630.839844 312.519531 631.96875 311.394531 C 633.09375 310.269531 633.726562 308.746094 633.726562 307.15625 Z M 633.726562 307.15625 "/>
<path fill-rule="nonzero" fill="rgb(0%, 0%, 0%)" fill-opacity="1" d="M 333.609375 7.492188 C 333.609375 5.902344 332.976562 4.378906 331.851562 3.253906 C 330.726562 2.128906 329.199219 1.5 327.605469 1.5 C 326.015625 1.5 324.488281 2.128906 323.363281 3.253906 C 322.238281 4.378906 321.605469 5.902344 321.605469 7.492188 C 321.605469 9.082031 322.238281 10.605469 323.363281 11.730469 C 324.488281 12.851562 326.015625 13.484375 327.605469 13.484375 C 329.199219 13.484375 330.726562 12.851562 331.851562 11.730469 C 332.976562 10.605469 333.609375 9.082031 333.609375 7.492188 Z M 333.609375 7.492188 "/>
<path fill="none" stroke-width="0.04" stroke-linecap="butt" stroke-linejoin="miter" stroke="rgb(98.823529%, 38.431373%, 33.333333%)" stroke-opacity="1" stroke-miterlimit="10" d="M -0.156515 -1.487599 C -0.156515 -1.837599 -0.156515 -2.1876 -0.156515 -2.5376 " transform="matrix(60.023178, 0, 0, -59.932984, 337, 218)"/>
<path fill-rule="nonzero" fill="rgb(98.823529%, 38.431373%, 33.333333%)" fill-opacity="1" d="M 327.605469 397.054688 C 330.609375 388.066406 333.609375 379.074219 336.609375 370.085938 C 330.609375 370.085938 324.605469 370.085938 318.605469 370.085938 C 321.605469 379.074219 324.605469 388.066406 327.605469 397.054688 Z M 327.605469 397.054688 "/>
<path fill-rule="nonzero" fill="rgb(98.823529%, 38.431373%, 33.333333%)" fill-opacity="1" d="M 174.71875 357.316406 C 174.71875 356.308594 174.71875 355.304688 174.71875 354.296875 C 171.550781 354.296875 168.382812 354.296875 165.21875 354.296875 C 165.21875 355.304688 165.21875 356.308594 165.21875 357.316406 C 168.382812 357.316406 171.550781 357.316406 174.71875 357.316406 Z M 174.71875 357.316406 "/>
<path fill-rule="nonzero" fill="rgb(98.823529%, 38.431373%, 33.333333%)" fill-opacity="1" d="M 188.898438 353.273438 C 188.898438 353.5 188.898438 353.730469 188.898438 353.957031 C 188.898438 356.226562 188.617188 358.0625 188.152344 359.117188 C 187.621094 360.332031 186.28125 361.730469 184.132812 361.730469 C 183.574219 361.730469 182.453125 361.667969 181.515625 361.046875 C 181.890625 360.953125 183.042969 360.519531 183.042969 359.117188 C 183.042969 358.0625 182.328125 357.191406 181.113281 357.191406 C 179.898438 357.191406 179.148438 358 179.148438 359.179688 C 179.148438 361.296875 180.738281 363.070312 184.195312 363.070312 C 188.246094 363.070312 193.132812 360.457031 193.132812 352.496094 C 193.132812 350.410156 193.132812 342.355469 185.753906 342.355469 C 181.332031 342.355469 178.246094 344.875 178.246094 349.042969 C 178.246094 353.335938 181.332031 355.667969 185.160156 355.667969 C 186.25 355.667969 187.714844 355.449219 188.898438 353.273438 Z M 185.441406 354.546875 C 182.484375 354.546875 182.484375 352.214844 182.484375 349.105469 C 182.484375 346.058594 182.484375 343.570312 185.816406 343.570312 C 187.652344 343.570312 188.371094 345.21875 188.492188 345.527344 C 188.867188 346.554688 188.867188 348.359375 188.867188 349.417969 C 188.867188 351.375 188.058594 354.546875 185.441406 354.546875 Z M 185.441406 354.546875 "/>
<path fill-rule="nonzero" fill="rgb(98.823529%, 38.431373%, 33.333333%)" fill-opacity="1" d="M 210.761719 355.824219 C 210.273438 355.824219 209.785156 355.824219 209.296875 355.824219 C 209.207031 356.445312 208.925781 358.433594 208.488281 358.652344 C 208.144531 358.839844 205.808594 358.839844 205.3125 358.839844 C 203.785156 358.839844 202.261719 358.839844 200.734375 358.839844 C 202.199219 357.625 203.816406 356.289062 205.21875 355.261719 C 208.769531 352.652344 210.761719 351.1875 210.761719 348.234375 C 210.761719 344.65625 207.523438 342.355469 203.132812 342.355469 C 199.363281 342.355469 196.4375 344.285156 196.4375 347.082031 C 196.4375 348.917969 197.929688 349.386719 198.679688 349.386719 C 199.675781 349.386719 200.921875 348.699219 200.921875 347.144531 C 200.921875 345.527344 199.613281 345.03125 199.144531 344.90625 C 200.046875 344.160156 201.230469 343.820312 202.351562 343.820312 C 205.03125 343.820312 206.464844 345.933594 206.464844 348.265625 C 206.464844 350.410156 205.28125 352.527344 203.101562 354.734375 C 201.015625 356.859375 198.925781 358.984375 196.839844 361.109375 C 196.4375 361.484375 196.4375 361.542969 196.4375 362.167969 C 196.4375 362.351562 196.4375 362.539062 196.4375 362.726562 C 200.890625 362.726562 205.34375 362.726562 209.796875 362.726562 C 210.117188 360.425781 210.441406 358.125 210.761719 355.824219 Z M 210.761719 355.824219 "/>
<path fill-rule="nonzero" fill="rgb(98.823529%, 38.431373%, 33.333333%)" fill-opacity="1" d="M 218.765625 347.832031 C 218.269531 347.550781 217.394531 347.023438 217.394531 345.964844 C 217.394531 343.789062 220.199219 343.570312 221.445312 343.570312 C 224.0625 343.570312 225.617188 344.84375 225.617188 346.960938 C 225.617188 348.484375 224.808594 349.539062 223.4375 350.441406 C 221.882812 349.570312 220.324219 348.699219 218.765625 347.832031 Z M 224.808594 351.21875 C 226.988281 350.101562 227.953125 348.730469 227.953125 346.929688 C 227.953125 343.757812 225.121094 342.355469 221.570312 342.355469 C 217.242188 342.355469 215.058594 344.8125 215.058594 347.800781 C 215.058594 349.167969 215.621094 351.125 218.050781 352.496094 C 215.433594 353.644531 214.0625 355.417969 214.0625 357.71875 C 214.0625 361.484375 217.425781 363.070312 221.445312 363.070312 C 226.429688 363.070312 228.953125 360.332031 228.953125 356.910156 C 228.953125 353.550781 226.335938 352.089844 224.808594 351.21875 Z M 219.484375 353.335938 C 220.574219 353.894531 222.035156 354.734375 223.75 355.699219 C 225.121094 356.476562 226.273438 357.128906 226.273438 358.621094 C 226.273438 361.234375 223.34375 361.730469 221.570312 361.730469 C 218.519531 361.730469 216.742188 360.144531 216.742188 357.71875 C 216.742188 355.292969 218.394531 353.957031 219.484375 353.335938 Z M 219.484375 353.335938 "/>
<path fill-rule="nonzero" fill="rgb(98.823529%, 38.431373%, 33.333333%)" fill-opacity="1" d="M 246.578125 355.824219 C 246.089844 355.824219 245.605469 355.824219 245.117188 355.824219 C 245.023438 356.445312 244.742188 358.433594 244.304688 358.652344 C 243.964844 358.839844 241.628906 358.839844 241.128906 358.839844 C 239.601562 358.839844 238.078125 358.839844 236.550781 358.839844 C 238.015625 357.625 239.632812 356.289062 241.035156 355.261719 C 244.585938 352.652344 246.578125 351.1875 246.578125 348.234375 C 246.578125 344.65625 243.339844 342.355469 238.949219 342.355469 C 235.179688 342.355469 232.253906 344.285156 232.253906 347.082031 C 232.253906 348.917969 233.746094 349.386719 234.496094 349.386719 C 235.492188 349.386719 236.738281 348.699219 236.738281 347.144531 C 236.738281 345.527344 235.429688 345.03125 234.960938 344.90625 C 235.867188 344.160156 237.050781 343.820312 238.171875 343.820312 C 240.847656 343.820312 242.28125 345.933594 242.28125 348.265625 C 242.28125 350.410156 241.097656 352.527344 238.917969 354.734375 C 236.832031 356.859375 234.746094 358.984375 232.65625 361.109375 C 232.253906 361.484375 232.253906 361.542969 232.253906 362.167969 C 232.253906 362.351562 232.253906 362.539062 232.253906 362.726562 C 236.707031 362.726562 241.160156 362.726562 245.613281 362.726562 C 245.9375 360.425781 246.257812 358.125 246.578125 355.824219 Z M 246.578125 355.824219 "/>
<path fill-rule="nonzero" fill="rgb(98.823529%, 38.431373%, 33.333333%)" fill-opacity="1" d="M 255.765625 360.300781 C 255.765625 358.964844 254.675781 357.875 253.339844 357.875 C 252 357.875 250.910156 358.964844 250.910156 360.300781 C 250.910156 361.636719 252 362.726562 253.339844 362.726562 C 254.675781 362.726562 255.765625 361.636719 255.765625 360.300781 Z M 255.765625 360.300781 "/>
<path fill-rule="nonzero" fill="rgb(98.823529%, 38.431373%, 33.333333%)" fill-opacity="1" d="M 272.195312 357.875 C 273.203125 357.875 274.207031 357.875 275.214844 357.875 C 275.214844 357.386719 275.214844 356.902344 275.214844 356.414062 C 274.207031 356.414062 273.203125 356.414062 272.195312 356.414062 C 272.195312 352.050781 272.195312 347.683594 272.195312 343.320312 C 272.195312 342.480469 272.132812 342.324219 271.261719 342.324219 C 270.605469 342.324219 270.574219 342.355469 270.203125 342.824219 C 266.578125 347.351562 262.953125 351.882812 259.332031 356.414062 C 259.332031 356.902344 259.332031 357.386719 259.332031 357.875 C 262.320312 357.875 265.3125 357.875 268.300781 357.875 C 268.300781 359.003906 268.300781 360.136719 268.300781 361.265625 C 267.136719 361.265625 265.976562 361.265625 264.8125 361.265625 C 264.8125 361.753906 264.8125 362.238281 264.8125 362.726562 C 265.996094 362.632812 268.832031 362.632812 270.171875 362.632812 C 271.414062 362.632812 274.125 362.632812 275.214844 362.726562 C 275.214844 362.238281 275.214844 361.753906 275.214844 361.265625 C 274.207031 361.265625 273.203125 361.265625 272.195312 361.265625 C 272.195312 360.136719 272.195312 359.003906 272.195312 357.875 Z M 268.644531 356.414062 C 266.078125 356.414062 263.515625 356.414062 260.949219 356.414062 C 263.515625 353.199219 266.078125 349.988281 268.644531 346.773438 C 268.644531 349.988281 268.644531 353.199219 268.644531 356.414062 Z M 268.644531 356.414062 "/>
<path fill-rule="nonzero" fill="rgb(98.823529%, 38.431373%, 33.333333%)" fill-opacity="1" d="M 282.910156 355.355469 C 282.910156 350.617188 282.910156 345.882812 282.910156 341.144531 C 281.070312 341.226562 279.234375 341.308594 277.394531 341.394531 C 277.394531 341.878906 277.394531 342.367188 277.394531 342.855469 C 279.328125 342.855469 279.542969 342.855469 279.542969 344.066406 C 279.542969 349.800781 279.542969 355.53125 279.542969 361.265625 C 278.828125 361.265625 278.113281 361.265625 277.394531 361.265625 C 277.394531 361.753906 277.394531 362.238281 277.394531 362.726562 C 278.546875 362.695312 280.011719 362.632812 281.132812 362.632812 C 282.285156 362.632812 283.78125 362.695312 284.902344 362.726562 C 284.902344 362.238281 284.902344 361.753906 284.902344 361.265625 C 284.183594 361.265625 283.46875 361.265625 282.753906 361.265625 C 282.753906 359.949219 282.753906 358.632812 282.753906 357.316406 C 283.65625 356.601562 283.90625 356.414062 284.527344 355.976562 C 285.578125 357.285156 286.625 358.589844 287.671875 359.894531 C 287.953125 360.269531 288.453125 360.890625 288.453125 360.984375 C 288.453125 361.265625 287.890625 361.265625 287.488281 361.265625 C 287.488281 361.753906 287.488281 362.238281 287.488281 362.726562 C 288.421875 362.664062 291.128906 362.632812 291.285156 362.632812 C 292.40625 362.632812 293.464844 362.664062 294.527344 362.726562 C 294.527344 362.238281 294.527344 361.753906 294.527344 361.265625 C 294.347656 361.265625 294.171875 361.265625 293.996094 361.265625 C 292.65625 361.265625 292.5625 361.140625 292.160156 360.644531 C 290.402344 358.457031 288.648438 356.269531 286.894531 354.082031 C 288.246094 353.035156 289.59375 351.988281 290.945312 350.941406 C 291.378906 350.597656 291.660156 350.378906 293.746094 350.378906 C 293.746094 349.894531 293.746094 349.40625 293.746094 348.917969 C 292.90625 349.011719 292.128906 349.011719 291.316406 349.011719 C 290.476562 349.011719 288.453125 348.949219 287.734375 348.917969 C 287.734375 349.40625 287.734375 349.894531 287.734375 350.378906 C 288.453125 350.378906 288.546875 350.472656 288.796875 350.722656 C 286.832031 352.265625 284.871094 353.8125 282.910156 355.355469 Z M 282.910156 355.355469 "/>
<path fill-rule="nonzero" fill="rgb(98.823529%, 38.431373%, 33.333333%)" fill-opacity="1" d="M 304.519531 341.796875 C 304.179688 341.425781 304.148438 341.394531 303.492188 341.394531 C 301.117188 341.394531 298.738281 341.394531 296.363281 341.394531 C 296.363281 341.878906 296.363281 342.367188 296.363281 342.855469 C 297.484375 342.855469 298.605469 342.855469 299.726562 342.855469 C 299.726562 348.691406 299.726562 354.527344 299.726562 360.363281 C 299.726562 361.046875 299.695312 361.078125 298.820312 361.171875 C 298.074219 361.265625 298.011719 361.265625 297.140625 361.265625 C 296.878906 361.265625 296.621094 361.265625 296.363281 361.265625 C 296.363281 361.753906 296.363281 362.238281 296.363281 362.726562 C 297.542969 362.632812 299.320312 362.632812 300.535156 362.632812 C 301.84375 362.632812 303.460938 362.632812 304.738281 362.726562 C 304.738281 362.238281 304.738281 361.753906 304.738281 361.265625 C 304.480469 361.265625 304.21875 361.265625 303.960938 361.265625 C 303.398438 361.265625 302.871094 361.234375 302.308594 361.171875 C 301.40625 361.078125 301.375 361.046875 301.375 360.363281 C 301.375 354.941406 301.375 349.519531 301.375 344.097656 C 306.546875 350.171875 311.714844 356.246094 316.886719 362.320312 C 317.199219 362.695312 317.230469 362.726562 317.726562 362.726562 C 318.566406 362.726562 318.566406 362.445312 318.566406 361.730469 C 318.566406 355.738281 318.566406 349.746094 318.566406 343.757812 C 318.566406 343.070312 318.597656 343.042969 319.472656 342.949219 C 320.21875 342.855469 320.28125 342.855469 321.152344 342.855469 C 321.414062 342.855469 321.671875 342.855469 321.933594 342.855469 C 321.933594 342.367188 321.933594 341.878906 321.933594 341.394531 C 320.75 341.484375 318.972656 341.484375 317.757812 341.484375 C 316.449219 341.484375 314.832031 341.484375 313.554688 341.394531 C 313.554688 341.878906 313.554688 342.367188 313.554688 342.855469 C 313.8125 342.855469 314.074219 342.855469 314.332031 342.855469 C 314.894531 342.855469 315.421875 342.886719 315.984375 342.949219 C 316.886719 343.042969 316.917969 343.070312 316.917969 343.757812 C 316.917969 347.953125 316.917969 352.152344 316.917969 356.351562 C 312.785156 351.5 308.652344 346.648438 304.519531 341.796875 Z M 304.519531 341.796875 "/>
<path fill="none" stroke-width="0.04" stroke-linecap="butt" stroke-linejoin="miter" stroke="rgb(60.392157%, 44.705882%, 67.45098%)" stroke-opacity="1" stroke-miterlimit="10" d="M -5.156472 -1.487599 C -5.104864 -1.507739 -5.053191 -1.527878 -5.001518 -1.548018 " transform="matrix(60.023178, 0, 0, -59.932984, 337, 218)"/>
<path fill="none" stroke-width="0.04" stroke-linecap="butt" stroke-linejoin="miter" stroke="rgb(60.392157%, 44.705882%, 67.45098%)" stroke-opacity="1" stroke-miterlimit="10" d="M -4.836868 -1.612217 C -4.785261 -1.632357 -4.733588 -1.652497 -4.681915 -1.672636 " transform="matrix(60.023178, 0, 0, -59.932984, 337, 218)"/>
<path fill="none" stroke-width="0.04" stroke-linecap="butt" stroke-linejoin="miter" stroke="rgb(60.392157%, 44.705882%, 67.45098%)" stroke-opacity="1" stroke-miterlimit="10" d="M -4.517265 -1.736836 C -4.465658 -1.756975 -4.413985 -1.777115 -4.362312 -1.797255 " transform="matrix(60.023178, 0, 0, -59.932984, 337, 218)"/>
<path fill="none" stroke-width="0.04" stroke-linecap="butt" stroke-linejoin="miter" stroke="rgb(60.392157%, 44.705882%, 67.45098%)" stroke-opacity="1" stroke-miterlimit="10" d="M -4.197727 -1.861454 C -4.146055 -1.881594 -4.094382 -1.901733 -4.042709 -1.921873 " transform="matrix(60.023178, 0, 0, -59.932984, 337, 218)"/>
<path fill="none" stroke-width="0.04" stroke-linecap="butt" stroke-linejoin="miter" stroke="rgb(60.392157%, 44.705882%, 67.45098%)" stroke-opacity="1" stroke-miterlimit="10" d="M -3.878124 -1.986072 C -3.826452 -2.006212 -3.774779 -2.026352 -3.723171 -2.046492 " transform="matrix(60.023178, 0, 0, -59.932984, 337, 218)"/>
<path fill="none" stroke-width="0.04" stroke-linecap="butt" stroke-linejoin="miter" stroke="rgb(60.392157%, 44.705882%, 67.45098%)" stroke-opacity="1" stroke-miterlimit="10" d="M -3.558521 -2.110691 C -3.506848 -2.130831 -3.455176 -2.15097 -3.403568 -2.17111 " transform="matrix(60.023178, 0, 0, -59.932984, 337, 218)"/>
<path fill="none" stroke-width="0.04" stroke-linecap="butt" stroke-linejoin="miter" stroke="rgb(60.392157%, 44.705882%, 67.45098%)" stroke-opacity="1" stroke-miterlimit="10" d="M -3.238918 -2.235309 C -3.187245 -2.255449 -3.135573 -2.275589 -3.083965 -2.295728 " transform="matrix(60.023178, 0, 0, -59.932984, 337, 218)"/>
<path fill="none" stroke-width="0.04" stroke-linecap="butt" stroke-linejoin="miter" stroke="rgb(60.392157%, 44.705882%, 67.45098%)" stroke-opacity="1" stroke-miterlimit="10" d="M -2.919315 -2.359862 C -2.867642 -2.380002 -2.816035 -2.400142 -2.764362 -2.420281 " transform="matrix(60.023178, 0, 0, -59.932984, 337, 218)"/>
<path fill="none" stroke-width="0.04" stroke-linecap="butt" stroke-linejoin="miter" stroke="rgb(60.392157%, 44.705882%, 67.45098%)" stroke-opacity="1" stroke-miterlimit="10" d="M -2.599712 -2.484481 C -2.548039 -2.50462 -2.496431 -2.52476 -2.444759 -2.5449 " transform="matrix(60.023178, 0, 0, -59.932984, 337, 218)"/>
<path fill="none" stroke-width="0.04" stroke-linecap="butt" stroke-linejoin="miter" stroke="rgb(60.392157%, 44.705882%, 67.45098%)" stroke-opacity="1" stroke-miterlimit="10" d="M -2.280109 -2.609099 C -2.228436 -2.629239 -2.176828 -2.649378 -2.125156 -2.669518 " transform="matrix(60.023178, 0, 0, -59.932984, 337, 218)"/>
<path fill="none" stroke-width="0.04" stroke-linecap="butt" stroke-linejoin="miter" stroke="rgb(60.392157%, 44.705882%, 67.45098%)" stroke-opacity="1" stroke-miterlimit="10" d="M -1.960506 -2.733717 C -1.908898 -2.753857 -1.857225 -2.773997 -1.805553 -2.794136 " transform="matrix(60.023178, 0, 0, -59.932984, 337, 218)"/>
<path fill="none" stroke-width="0.04" stroke-linecap="butt" stroke-linejoin="miter" stroke="rgb(60.392157%, 44.705882%, 67.45098%)" stroke-opacity="1" stroke-miterlimit="10" d="M -1.640903 -2.858336 C -1.589295 -2.878475 -1.537622 -2.898615 -1.485949 -2.918755 " transform="matrix(60.023178, 0, 0, -59.932984, 337, 218)"/>
<path fill="none" stroke-width="0.04" stroke-linecap="butt" stroke-linejoin="miter" stroke="rgb(60.392157%, 44.705882%, 67.45098%)" stroke-opacity="1" stroke-miterlimit="10" d="M -1.321299 -2.982954 C -1.269692 -3.003094 -1.218019 -3.023234 -1.166346 -3.043373 " transform="matrix(60.023178, 0, 0, -59.932984, 337, 218)"/>
<path fill="none" stroke-width="0.04" stroke-linecap="butt" stroke-linejoin="miter" stroke="rgb(60.392157%, 44.705882%, 67.45098%)" stroke-opacity="1" stroke-miterlimit="10" d="M -1.001761 -3.107573 C -0.950089 -3.127712 -0.898416 -3.147852 -0.846808 -3.167992 " transform="matrix(60.023178, 0, 0, -59.932984, 337, 218)"/>
<path fill="none" stroke-width="0.04" stroke-linecap="butt" stroke-linejoin="miter" stroke="rgb(60.392157%, 44.705882%, 67.45098%)" stroke-opacity="1" stroke-miterlimit="10" d="M -0.682158 -3.232191 C -0.630486 -3.252331 -0.578813 -3.27247 -0.527205 -3.29261 " transform="matrix(60.023178, 0, 0, -59.932984, 337, 218)"/>
<path fill="none" stroke-width="0.04" stroke-linecap="butt" stroke-linejoin="miter" stroke="rgb(60.392157%, 44.705882%, 67.45098%)" stroke-opacity="1" stroke-miterlimit="10" d="M -0.362555 -3.356809 C -0.310883 -3.376949 -0.25921 -3.397089 -0.207602 -3.417228 " transform="matrix(60.023178, 0, 0, -59.932984, 337, 218)"/>
<path fill="none" stroke-width="0.04" stroke-linecap="butt" stroke-linejoin="miter" stroke="rgb(60.392157%, 44.705882%, 67.45098%)" stroke-opacity="1" stroke-miterlimit="10" d="M -0.0429522 -3.481428 C 0.00872059 -3.501567 0.0603283 -3.521707 0.112001 -3.541847 " transform="matrix(60.023178, 0, 0, -59.932984, 337, 218)"/>
<path fill="none" stroke-width="0.04" stroke-linecap="butt" stroke-linejoin="miter" stroke="rgb(60.392157%, 44.705882%, 67.45098%)" stroke-opacity="1" stroke-miterlimit="10" d="M 0.112001 -3.541847 C 0.165236 -3.521707 0.218405 -3.501567 0.27164 -3.481428 " transform="matrix(60.023178, 0, 0, -59.932984, 337, 218)"/>
<path fill="none" stroke-width="0.04" stroke-linecap="butt" stroke-linejoin="miter" stroke="rgb(60.392157%, 44.705882%, 67.45098%)" stroke-opacity="1" stroke-miterlimit="10" d="M 0.441236 -3.417228 C 0.49447 -3.397089 0.54764 -3.376949 0.600875 -3.356809 " transform="matrix(60.023178, 0, 0, -59.932984, 337, 218)"/>
<path fill="none" stroke-width="0.04" stroke-linecap="butt" stroke-linejoin="miter" stroke="rgb(60.392157%, 44.705882%, 67.45098%)" stroke-opacity="1" stroke-miterlimit="10" d="M 0.770471 -3.29261 C 0.823705 -3.27247 0.87694 -3.252331 0.930109 -3.232191 " transform="matrix(60.023178, 0, 0, -59.932984, 337, 218)"/>
<path fill="none" stroke-width="0.04" stroke-linecap="butt" stroke-linejoin="miter" stroke="rgb(60.392157%, 44.705882%, 67.45098%)" stroke-opacity="1" stroke-miterlimit="10" d="M 1.099705 -3.167992 C 1.15294 -3.147852 1.206175 -3.127712 1.259344 -3.107573 " transform="matrix(60.023178, 0, 0, -59.932984, 337, 218)"/>
<path fill="none" stroke-width="0.04" stroke-linecap="butt" stroke-linejoin="miter" stroke="rgb(60.392157%, 44.705882%, 67.45098%)" stroke-opacity="1" stroke-miterlimit="10" d="M 1.429005 -3.043373 C 1.482175 -3.023234 1.535409 -3.003094 1.588579 -2.982954 " transform="matrix(60.023178, 0, 0, -59.932984, 337, 218)"/>
<path fill="none" stroke-width="0.04" stroke-linecap="butt" stroke-linejoin="miter" stroke="rgb(60.392157%, 44.705882%, 67.45098%)" stroke-opacity="1" stroke-miterlimit="10" d="M 1.75824 -2.918755 C 1.81141 -2.898615 1.864644 -2.878475 1.917879 -2.858336 " transform="matrix(60.023178, 0, 0, -59.932984, 337, 218)"/>
<path fill="none" stroke-width="0.04" stroke-linecap="butt" stroke-linejoin="miter" stroke="rgb(60.392157%, 44.705882%, 67.45098%)" stroke-opacity="1" stroke-miterlimit="10" d="M 2.087475 -2.794136 C 2.140644 -2.773997 2.193879 -2.753857 2.247114 -2.733717 " transform="matrix(60.023178, 0, 0, -59.932984, 337, 218)"/>
<path fill="none" stroke-width="0.04" stroke-linecap="butt" stroke-linejoin="miter" stroke="rgb(60.392157%, 44.705882%, 67.45098%)" stroke-opacity="1" stroke-miterlimit="10" d="M 2.41671 -2.669518 C 2.469879 -2.649378 2.523114 -2.629239 2.576349 -2.609099 " transform="matrix(60.023178, 0, 0, -59.932984, 337, 218)"/>
<path fill="none" stroke-width="0.04" stroke-linecap="butt" stroke-linejoin="miter" stroke="rgb(60.392157%, 44.705882%, 67.45098%)" stroke-opacity="1" stroke-miterlimit="10" d="M 2.745944 -2.5449 C 2.799179 -2.52476 2.852349 -2.50462 2.905583 -2.484481 " transform="matrix(60.023178, 0, 0, -59.932984, 337, 218)"/>
<path fill="none" stroke-width="0.04" stroke-linecap="butt" stroke-linejoin="miter" stroke="rgb(60.392157%, 44.705882%, 67.45098%)" stroke-opacity="1" stroke-miterlimit="10" d="M 3.075179 -2.420281 C 3.128414 -2.400142 3.181583 -2.380002 3.234818 -2.359862 " transform="matrix(60.023178, 0, 0, -59.932984, 337, 218)"/>
<path fill="none" stroke-width="0.04" stroke-linecap="butt" stroke-linejoin="miter" stroke="rgb(60.392157%, 44.705882%, 67.45098%)" stroke-opacity="1" stroke-miterlimit="10" d="M 3.404414 -2.295728 C 3.457649 -2.275589 3.510818 -2.255449 3.564053 -2.235309 " transform="matrix(60.023178, 0, 0, -59.932984, 337, 218)"/>
<path fill="none" stroke-width="0.04" stroke-linecap="butt" stroke-linejoin="miter" stroke="rgb(60.392157%, 44.705882%, 67.45098%)" stroke-opacity="1" stroke-miterlimit="10" d="M 3.733649 -2.17111 C 3.786883 -2.15097 3.840053 -2.130831 3.893288 -2.110691 " transform="matrix(60.023178, 0, 0, -59.932984, 337, 218)"/>
<path fill="none" stroke-width="0.04" stroke-linecap="butt" stroke-linejoin="miter" stroke="rgb(60.392157%, 44.705882%, 67.45098%)" stroke-opacity="1" stroke-miterlimit="10" d="M 4.062884 -2.046492 C 4.116118 -2.026352 4.169353 -2.006212 4.222522 -1.986072 " transform="matrix(60.023178, 0, 0, -59.932984, 337, 218)"/>
<path fill="none" stroke-width="0.04" stroke-linecap="butt" stroke-linejoin="miter" stroke="rgb(60.392157%, 44.705882%, 67.45098%)" stroke-opacity="1" stroke-miterlimit="10" d="M 4.392118 -1.921873 C 4.445353 -1.901733 4.498588 -1.881594 4.551757 -1.861454 " transform="matrix(60.023178, 0, 0, -59.932984, 337, 218)"/>
<path fill="none" stroke-width="0.04" stroke-linecap="butt" stroke-linejoin="miter" stroke="rgb(60.392157%, 44.705882%, 67.45098%)" stroke-opacity="1" stroke-miterlimit="10" d="M 4.721353 -1.797255 C 4.774588 -1.777115 4.827823 -1.756975 4.880992 -1.736836 " transform="matrix(60.023178, 0, 0, -59.932984, 337, 218)"/>
<path fill="none" stroke-width="0.04" stroke-linecap="butt" stroke-linejoin="miter" stroke="rgb(60.392157%, 44.705882%, 67.45098%)" stroke-opacity="1" stroke-miterlimit="10" d="M 5.050653 -1.672636 C 5.103823 -1.652497 5.157057 -1.632357 5.210227 -1.612217 " transform="matrix(60.023178, 0, 0, -59.932984, 337, 218)"/>
<path fill="none" stroke-width="0.04" stroke-linecap="butt" stroke-linejoin="miter" stroke="rgb(60.392157%, 44.705882%, 67.45098%)" stroke-opacity="1" stroke-miterlimit="10" d="M 5.379888 -1.548018 C 5.433057 -1.527878 5.486292 -1.507739 5.539527 -1.487599 " transform="matrix(60.023178, 0, 0, -59.932984, 337, 218)"/>
<path fill="none" stroke-width="0.04" stroke-linecap="butt" stroke-linejoin="miter" stroke="rgb(60.392157%, 44.705882%, 67.45098%)" stroke-opacity="1" stroke-miterlimit="10" d="M 5.539527 -1.487599 C 5.502497 -1.459573 5.465467 -1.431547 5.428502 -1.403521 " transform="matrix(60.023178, 0, 0, -59.932984, 337, 218)"/>
<path fill="none" stroke-width="0.04" stroke-linecap="butt" stroke-linejoin="miter" stroke="rgb(60.392157%, 44.705882%, 67.45098%)" stroke-opacity="1" stroke-miterlimit="10" d="M 5.312661 -1.315793 C 5.275631 -1.287766 5.238666 -1.25974 5.201636 -1.231714 " transform="matrix(60.023178, 0, 0, -59.932984, 337, 218)"/>
<path fill="none" stroke-width="0.04" stroke-linecap="butt" stroke-linejoin="miter" stroke="rgb(60.392157%, 44.705882%, 67.45098%)" stroke-opacity="1" stroke-miterlimit="10" d="M 5.085796 -1.143921 C 5.048766 -1.115895 5.011801 -1.087869 4.974771 -1.059843 " transform="matrix(60.023178, 0, 0, -59.932984, 337, 218)"/>
<path fill="none" stroke-width="0.04" stroke-linecap="butt" stroke-linejoin="miter" stroke="rgb(60.392157%, 44.705882%, 67.45098%)" stroke-opacity="1" stroke-miterlimit="10" d="M 4.85893 -0.972114 C 4.821965 -0.944088 4.784935 -0.916062 4.747905 -0.888036 " transform="matrix(60.023178, 0, 0, -59.932984, 337, 218)"/>
<path fill="none" stroke-width="0.04" stroke-linecap="butt" stroke-linejoin="miter" stroke="rgb(60.392157%, 44.705882%, 67.45098%)" stroke-opacity="1" stroke-miterlimit="10" d="M 4.632065 -0.800308 C 4.5951 -0.772282 4.55807 -0.744256 4.521105 -0.71623 " transform="matrix(60.023178, 0, 0, -59.932984, 337, 218)"/>
<path fill="none" stroke-width="0.04" stroke-linecap="butt" stroke-linejoin="miter" stroke="rgb(60.392157%, 44.705882%, 67.45098%)" stroke-opacity="1" stroke-miterlimit="10" d="M 4.405264 -0.628501 C 4.368234 -0.600475 4.331204 -0.572449 4.29424 -0.544358 " transform="matrix(60.023178, 0, 0, -59.932984, 337, 218)"/>
<path fill="none" stroke-width="0.04" stroke-linecap="butt" stroke-linejoin="miter" stroke="rgb(60.392157%, 44.705882%, 67.45098%)" stroke-opacity="1" stroke-miterlimit="10" d="M 4.178399 -0.45663 C 4.141369 -0.428604 4.104404 -0.400578 4.067374 -0.372552 " transform="matrix(60.023178, 0, 0, -59.932984, 337, 218)"/>
<path fill="none" stroke-width="0.04" stroke-linecap="butt" stroke-linejoin="miter" stroke="rgb(60.392157%, 44.705882%, 67.45098%)" stroke-opacity="1" stroke-miterlimit="10" d="M 3.951533 -0.284823 C 3.914503 -0.256797 3.877539 -0.228771 3.840509 -0.200745 " transform="matrix(60.023178, 0, 0, -59.932984, 337, 218)"/>
<path fill="none" stroke-width="0.04" stroke-linecap="butt" stroke-linejoin="miter" stroke="rgb(60.392157%, 44.705882%, 67.45098%)" stroke-opacity="1" stroke-miterlimit="10" d="M 3.724668 -0.113017 C 3.687703 -0.0849908 3.650673 -0.0569647 3.613643 -0.0289386 " transform="matrix(60.023178, 0, 0, -59.932984, 337, 218)"/>
<path fill="none" stroke-width="0.04" stroke-linecap="butt" stroke-linejoin="miter" stroke="rgb(60.392157%, 44.705882%, 67.45098%)" stroke-opacity="1" stroke-miterlimit="10" d="M 3.497802 0.0588548 C 3.460838 0.0868809 3.423808 0.114907 3.386843 0.142933 " transform="matrix(60.023178, 0, 0, -59.932984, 337, 218)"/>
<path fill="none" stroke-width="0.04" stroke-linecap="butt" stroke-linejoin="miter" stroke="rgb(60.392157%, 44.705882%, 67.45098%)" stroke-opacity="1" stroke-miterlimit="10" d="M 3.271002 0.230661 C 3.233972 0.258687 3.196942 0.286713 3.159977 0.31474 " transform="matrix(60.023178, 0, 0, -59.932984, 337, 218)"/>
<path fill="none" stroke-width="0.04" stroke-linecap="butt" stroke-linejoin="miter" stroke="rgb(60.392157%, 44.705882%, 67.45098%)" stroke-opacity="1" stroke-miterlimit="10" d="M 3.044137 0.402468 C 3.007107 0.430494 2.970142 0.45852 2.933112 0.486546 " transform="matrix(60.023178, 0, 0, -59.932984, 337, 218)"/>
<path fill="none" stroke-width="0.04" stroke-linecap="butt" stroke-linejoin="miter" stroke="rgb(60.392157%, 44.705882%, 67.45098%)" stroke-opacity="1" stroke-miterlimit="10" d="M 2.817271 0.574274 C 2.780306 0.602366 2.743276 0.630392 2.706246 0.658418 " transform="matrix(60.023178, 0, 0, -59.932984, 337, 218)"/>
<path fill="none" stroke-width="0.04" stroke-linecap="butt" stroke-linejoin="miter" stroke="rgb(60.392157%, 44.705882%, 67.45098%)" stroke-opacity="1" stroke-miterlimit="10" d="M 2.590406 0.746146 C 2.553441 0.774172 2.516411 0.802198 2.479446 0.830224 " transform="matrix(60.023178, 0, 0, -59.932984, 337, 218)"/>
<path fill="none" stroke-width="0.04" stroke-linecap="butt" stroke-linejoin="miter" stroke="rgb(60.392157%, 44.705882%, 67.45098%)" stroke-opacity="1" stroke-miterlimit="10" d="M 2.363605 0.917952 C 2.326575 0.945978 2.289545 0.974005 2.25258 1.002031 " transform="matrix(60.023178, 0, 0, -59.932984, 337, 218)"/>
<path fill="none" stroke-width="0.04" stroke-linecap="butt" stroke-linejoin="miter" stroke="rgb(60.392157%, 44.705882%, 67.45098%)" stroke-opacity="1" stroke-miterlimit="10" d="M 2.13674 1.089759 C 2.09971 1.117785 2.062745 1.145811 2.025715 1.173837 " transform="matrix(60.023178, 0, 0, -59.932984, 337, 218)"/>
<path fill="none" stroke-width="0.04" stroke-linecap="butt" stroke-linejoin="miter" stroke="rgb(60.392157%, 44.705882%, 67.45098%)" stroke-opacity="1" stroke-miterlimit="10" d="M 1.909874 1.261631 C 1.872844 1.289657 1.835879 1.317683 1.798849 1.345709 " transform="matrix(60.023178, 0, 0, -59.932984, 337, 218)"/>
<path fill="none" stroke-width="0.04" stroke-linecap="butt" stroke-linejoin="miter" stroke="rgb(60.392157%, 44.705882%, 67.45098%)" stroke-opacity="1" stroke-miterlimit="10" d="M 1.683009 1.433437 C 1.646044 1.461463 1.609014 1.489489 1.571984 1.517515 " transform="matrix(60.023178, 0, 0, -59.932984, 337, 218)"/>
<path fill="none" stroke-width="0.04" stroke-linecap="butt" stroke-linejoin="miter" stroke="rgb(60.392157%, 44.705882%, 67.45098%)" stroke-opacity="1" stroke-miterlimit="10" d="M 1.456143 1.605243 C 1.419178 1.63327 1.382148 1.661296 1.345183 1.689322 " transform="matrix(60.023178, 0, 0, -59.932984, 337, 218)"/>
<path fill="none" stroke-width="0.04" stroke-linecap="butt" stroke-linejoin="miter" stroke="rgb(60.392157%, 44.705882%, 67.45098%)" stroke-opacity="1" stroke-miterlimit="10" d="M 1.229343 1.777115 C 1.192313 1.805141 1.155283 1.833167 1.118318 1.861193 " transform="matrix(60.023178, 0, 0, -59.932984, 337, 218)"/>
<path fill="none" stroke-width="0.04" stroke-linecap="butt" stroke-linejoin="miter" stroke="rgb(60.392157%, 44.705882%, 67.45098%)" stroke-opacity="1" stroke-miterlimit="10" d="M 1.002477 1.948922 C 0.965447 1.976948 0.928482 2.004974 0.891453 2.033 " transform="matrix(60.023178, 0, 0, -59.932984, 337, 218)"/>
<path fill="none" stroke-width="0.04" stroke-linecap="butt" stroke-linejoin="miter" stroke="rgb(60.392157%, 44.705882%, 67.45098%)" stroke-opacity="1" stroke-miterlimit="10" d="M 0.775612 2.120728 C 0.738582 2.148754 0.701617 2.17678 0.664587 2.204806 " transform="matrix(60.023178, 0, 0, -59.932984, 337, 218)"/>
<path fill="none" stroke-width="0.04" stroke-linecap="butt" stroke-linejoin="miter" stroke="rgb(60.392157%, 44.705882%, 67.45098%)" stroke-opacity="1" stroke-miterlimit="10" d="M 0.548746 2.292535 C 0.511781 2.320561 0.474751 2.348587 0.437722 2.376678 " transform="matrix(60.023178, 0, 0, -59.932984, 337, 218)"/>
<path fill="none" stroke-width="0.04" stroke-linecap="butt" stroke-linejoin="miter" stroke="rgb(60.392157%, 44.705882%, 67.45098%)" stroke-opacity="1" stroke-miterlimit="10" d="M 0.321881 2.464406 C 0.284916 2.492432 0.247886 2.520458 0.210921 2.548485 " transform="matrix(60.023178, 0, 0, -59.932984, 337, 218)"/>
<path fill="none" stroke-width="0.04" stroke-linecap="butt" stroke-linejoin="miter" stroke="rgb(60.392157%, 44.705882%, 67.45098%)" stroke-opacity="1" stroke-miterlimit="10" d="M 0.210921 2.548485 C 0.173631 2.520458 0.136341 2.492432 0.0990503 2.464406 " transform="matrix(60.023178, 0, 0, -59.932984, 337, 218)"/>
<path fill="none" stroke-width="0.04" stroke-linecap="butt" stroke-linejoin="miter" stroke="rgb(60.392157%, 44.705882%, 67.45098%)" stroke-opacity="1" stroke-miterlimit="10" d="M -0.0175713 2.376678 C -0.0548616 2.348587 -0.0921519 2.320561 -0.129442 2.292535 " transform="matrix(60.023178, 0, 0, -59.932984, 337, 218)"/>
<path fill="none" stroke-width="0.04" stroke-linecap="butt" stroke-linejoin="miter" stroke="rgb(60.392157%, 44.705882%, 67.45098%)" stroke-opacity="1" stroke-miterlimit="10" d="M -0.246129 2.204806 C -0.283354 2.17678 -0.320644 2.148754 -0.357935 2.120728 " transform="matrix(60.023178, 0, 0, -59.932984, 337, 218)"/>
<path fill="none" stroke-width="0.04" stroke-linecap="butt" stroke-linejoin="miter" stroke="rgb(60.392157%, 44.705882%, 67.45098%)" stroke-opacity="1" stroke-miterlimit="10" d="M -0.474621 2.033 C -0.511912 2.004974 -0.549137 1.976948 -0.586427 1.948922 " transform="matrix(60.023178, 0, 0, -59.932984, 337, 218)"/>
<path fill="none" stroke-width="0.04" stroke-linecap="butt" stroke-linejoin="miter" stroke="rgb(60.392157%, 44.705882%, 67.45098%)" stroke-opacity="1" stroke-miterlimit="10" d="M -0.703114 1.861193 C -0.740404 1.833167 -0.777629 1.805141 -0.81492 1.777115 " transform="matrix(60.023178, 0, 0, -59.932984, 337, 218)"/>
<path fill="none" stroke-width="0.04" stroke-linecap="butt" stroke-linejoin="miter" stroke="rgb(60.392157%, 44.705882%, 67.45098%)" stroke-opacity="1" stroke-miterlimit="10" d="M -0.931606 1.689322 C -0.968897 1.661296 -1.006187 1.63327 -1.043412 1.605243 " transform="matrix(60.023178, 0, 0, -59.932984, 337, 218)"/>
<path fill="none" stroke-width="0.04" stroke-linecap="butt" stroke-linejoin="miter" stroke="rgb(60.392157%, 44.705882%, 67.45098%)" stroke-opacity="1" stroke-miterlimit="10" d="M -1.160099 1.517515 C -1.197389 1.489489 -1.234679 1.461463 -1.27197 1.433437 " transform="matrix(60.023178, 0, 0, -59.932984, 337, 218)"/>
<path fill="none" stroke-width="0.04" stroke-linecap="butt" stroke-linejoin="miter" stroke="rgb(60.392157%, 44.705882%, 67.45098%)" stroke-opacity="1" stroke-miterlimit="10" d="M -1.388591 1.345709 C -1.425881 1.317683 -1.463172 1.289657 -1.500462 1.261631 " transform="matrix(60.023178, 0, 0, -59.932984, 337, 218)"/>
<path fill="none" stroke-width="0.04" stroke-linecap="butt" stroke-linejoin="miter" stroke="rgb(60.392157%, 44.705882%, 67.45098%)" stroke-opacity="1" stroke-miterlimit="10" d="M -1.617149 1.173837 C -1.654374 1.145811 -1.691664 1.117785 -1.728954 1.089759 " transform="matrix(60.023178, 0, 0, -59.932984, 337, 218)"/>
<path fill="none" stroke-width="0.04" stroke-linecap="butt" stroke-linejoin="miter" stroke="rgb(60.392157%, 44.705882%, 67.45098%)" stroke-opacity="1" stroke-miterlimit="10" d="M -1.845641 1.002031 C -1.882866 0.974005 -1.920157 0.945978 -1.957447 0.917952 " transform="matrix(60.023178, 0, 0, -59.932984, 337, 218)"/>
<path fill="none" stroke-width="0.04" stroke-linecap="butt" stroke-linejoin="miter" stroke="rgb(60.392157%, 44.705882%, 67.45098%)" stroke-opacity="1" stroke-miterlimit="10" d="M -2.074134 0.830224 C -2.111424 0.802198 -2.148649 0.774172 -2.185939 0.746146 " transform="matrix(60.023178, 0, 0, -59.932984, 337, 218)"/>
<path fill="none" stroke-width="0.04" stroke-linecap="butt" stroke-linejoin="miter" stroke="rgb(60.392157%, 44.705882%, 67.45098%)" stroke-opacity="1" stroke-miterlimit="10" d="M -2.302626 0.658418 C -2.339916 0.630392 -2.377207 0.602366 -2.414432 0.574274 " transform="matrix(60.023178, 0, 0, -59.932984, 337, 218)"/>
<path fill="none" stroke-width="0.04" stroke-linecap="butt" stroke-linejoin="miter" stroke="rgb(60.392157%, 44.705882%, 67.45098%)" stroke-opacity="1" stroke-miterlimit="10" d="M -2.531119 0.486546 C -2.568409 0.45852 -2.605699 0.430494 -2.642924 0.402468 " transform="matrix(60.023178, 0, 0, -59.932984, 337, 218)"/>
<path fill="none" stroke-width="0.04" stroke-linecap="butt" stroke-linejoin="miter" stroke="rgb(60.392157%, 44.705882%, 67.45098%)" stroke-opacity="1" stroke-miterlimit="10" d="M -2.759611 0.31474 C -2.796901 0.286713 -2.834192 0.258687 -2.871482 0.230661 " transform="matrix(60.023178, 0, 0, -59.932984, 337, 218)"/>
<path fill="none" stroke-width="0.04" stroke-linecap="butt" stroke-linejoin="miter" stroke="rgb(60.392157%, 44.705882%, 67.45098%)" stroke-opacity="1" stroke-miterlimit="10" d="M -2.988169 0.142933 C -3.025394 0.114907 -3.062684 0.0868809 -3.099974 0.0588548 " transform="matrix(60.023178, 0, 0, -59.932984, 337, 218)"/>
<path fill="none" stroke-width="0.04" stroke-linecap="butt" stroke-linejoin="miter" stroke="rgb(60.392157%, 44.705882%, 67.45098%)" stroke-opacity="1" stroke-miterlimit="10" d="M -3.216661 -0.0289386 C -3.253886 -0.0569647 -3.291177 -0.0849908 -3.328467 -0.113017 " transform="matrix(60.023178, 0, 0, -59.932984, 337, 218)"/>
<path fill="none" stroke-width="0.04" stroke-linecap="butt" stroke-linejoin="miter" stroke="rgb(60.392157%, 44.705882%, 67.45098%)" stroke-opacity="1" stroke-miterlimit="10" d="M -3.445154 -0.200745 C -3.482444 -0.228771 -3.519669 -0.256797 -3.556959 -0.284823 " transform="matrix(60.023178, 0, 0, -59.932984, 337, 218)"/>
<path fill="none" stroke-width="0.04" stroke-linecap="butt" stroke-linejoin="miter" stroke="rgb(60.392157%, 44.705882%, 67.45098%)" stroke-opacity="1" stroke-miterlimit="10" d="M -3.673646 -0.372552 C -3.710936 -0.400578 -3.748227 -0.428604 -3.785452 -0.45663 " transform="matrix(60.023178, 0, 0, -59.932984, 337, 218)"/>
<path fill="none" stroke-width="0.04" stroke-linecap="butt" stroke-linejoin="miter" stroke="rgb(60.392157%, 44.705882%, 67.45098%)" stroke-opacity="1" stroke-miterlimit="10" d="M -3.902138 -0.544358 C -3.939429 -0.572449 -3.976719 -0.600475 -4.013944 -0.628501 " transform="matrix(60.023178, 0, 0, -59.932984, 337, 218)"/>
<path fill="none" stroke-width="0.04" stroke-linecap="butt" stroke-linejoin="miter" stroke="rgb(60.392157%, 44.705882%, 67.45098%)" stroke-opacity="1" stroke-miterlimit="10" d="M -4.130631 -0.71623 C -4.167921 -0.744256 -4.205211 -0.772282 -4.242502 -0.800308 " transform="matrix(60.023178, 0, 0, -59.932984, 337, 218)"/>
<path fill="none" stroke-width="0.04" stroke-linecap="butt" stroke-linejoin="miter" stroke="rgb(60.392157%, 44.705882%, 67.45098%)" stroke-opacity="1" stroke-miterlimit="10" d="M -4.359188 -0.888036 C -4.396414 -0.916062 -4.433704 -0.944088 -4.470994 -0.972114 " transform="matrix(60.023178, 0, 0, -59.932984, 337, 218)"/>
<path fill="none" stroke-width="0.04" stroke-linecap="butt" stroke-linejoin="miter" stroke="rgb(60.392157%, 44.705882%, 67.45098%)" stroke-opacity="1" stroke-miterlimit="10" d="M -4.587681 -1.059843 C -4.624906 -1.087869 -4.662196 -1.115895 -4.699487 -1.143921 " transform="matrix(60.023178, 0, 0, -59.932984, 337, 218)"/>
<path fill="none" stroke-width="0.04" stroke-linecap="butt" stroke-linejoin="miter" stroke="rgb(60.392157%, 44.705882%, 67.45098%)" stroke-opacity="1" stroke-miterlimit="10" d="M -4.816173 -1.231714 C -4.853464 -1.25974 -4.890689 -1.287766 -4.927979 -1.315793 " transform="matrix(60.023178, 0, 0, -59.932984, 337, 218)"/>
<path fill="none" stroke-width="0.04" stroke-linecap="butt" stroke-linejoin="miter" stroke="rgb(60.392157%, 44.705882%, 67.45098%)" stroke-opacity="1" stroke-miterlimit="10" d="M -5.044666 -1.403521 C -5.081956 -1.431547 -5.119181 -1.459573 -5.156472 -1.487599 " transform="matrix(60.023178, 0, 0, -59.932984, 337, 218)"/>
<path fill="none" stroke-width="0.04" stroke-linecap="butt" stroke-linejoin="miter" stroke="rgb(60.392157%, 44.705882%, 67.45098%)" stroke-opacity="1" stroke-miterlimit="10" d="M 0.112001 -3.541847 C 0.112977 -3.482145 0.113953 -3.422377 0.11493 -3.362675 " transform="matrix(60.023178, 0, 0, -59.932984, 337, 218)"/>
<path fill="none" stroke-width="0.04" stroke-linecap="butt" stroke-linejoin="miter" stroke="rgb(60.392157%, 44.705882%, 67.45098%)" stroke-opacity="1" stroke-miterlimit="10" d="M 0.117988 -3.172358 C 0.118964 -3.112656 0.119941 -3.052954 0.120917 -2.993252 " transform="matrix(60.023178, 0, 0, -59.932984, 337, 218)"/>
<path fill="none" stroke-width="0.04" stroke-linecap="butt" stroke-linejoin="miter" stroke="rgb(60.392157%, 44.705882%, 67.45098%)" stroke-opacity="1" stroke-miterlimit="10" d="M 0.123976 -2.802935 C 0.124952 -2.743233 0.125928 -2.683531 0.126904 -2.623829 " transform="matrix(60.023178, 0, 0, -59.932984, 337, 218)"/>
<path fill="none" stroke-width="0.04" stroke-linecap="butt" stroke-linejoin="miter" stroke="rgb(60.392157%, 44.705882%, 67.45098%)" stroke-opacity="1" stroke-miterlimit="10" d="M 0.130028 -2.433447 C 0.131004 -2.373745 0.131915 -2.314043 0.132891 -2.254341 " transform="matrix(60.023178, 0, 0, -59.932984, 337, 218)"/>
<path fill="none" stroke-width="0.04" stroke-linecap="butt" stroke-linejoin="miter" stroke="rgb(60.392157%, 44.705882%, 67.45098%)" stroke-opacity="1" stroke-miterlimit="10" d="M 0.136015 -2.064024 C 0.136991 -2.004322 0.137968 -1.94462 0.138944 -1.884918 " transform="matrix(60.023178, 0, 0, -59.932984, 337, 218)"/>
<path fill="none" stroke-width="0.04" stroke-linecap="butt" stroke-linejoin="miter" stroke="rgb(60.392157%, 44.705882%, 67.45098%)" stroke-opacity="1" stroke-miterlimit="10" d="M 0.142002 -1.694601 C 0.142979 -1.634899 0.143955 -1.575132 0.144931 -1.51543 " transform="matrix(60.023178, 0, 0, -59.932984, 337, 218)"/>
<path fill="none" stroke-width="0.04" stroke-linecap="butt" stroke-linejoin="miter" stroke="rgb(60.392157%, 44.705882%, 67.45098%)" stroke-opacity="1" stroke-miterlimit="10" d="M 0.14799 -1.325113 C 0.148966 -1.265411 0.149942 -1.205709 0.150918 -1.146007 " transform="matrix(60.023178, 0, 0, -59.932984, 337, 218)"/>
<path fill="none" stroke-width="0.04" stroke-linecap="butt" stroke-linejoin="miter" stroke="rgb(60.392157%, 44.705882%, 67.45098%)" stroke-opacity="1" stroke-miterlimit="10" d="M 0.153977 -0.95569 C 0.154953 -0.895988 0.155929 -0.836286 0.156906 -0.776584 " transform="matrix(60.023178, 0, 0, -59.932984, 337, 218)"/>
<path fill="none" stroke-width="0.04" stroke-linecap="butt" stroke-linejoin="miter" stroke="rgb(60.392157%, 44.705882%, 67.45098%)" stroke-opacity="1" stroke-miterlimit="10" d="M 0.160029 -0.586267 C 0.16094 -0.5265 0.161917 -0.466797 0.162893 -0.407095 " transform="matrix(60.023178, 0, 0, -59.932984, 337, 218)"/>
<path fill="none" stroke-width="0.04" stroke-linecap="butt" stroke-linejoin="miter" stroke="rgb(60.392157%, 44.705882%, 67.45098%)" stroke-opacity="1" stroke-miterlimit="10" d="M 0.166017 -0.216779 C 0.166993 -0.157076 0.167969 -0.0973744 0.16888 -0.0376723 " transform="matrix(60.023178, 0, 0, -59.932984, 337, 218)"/>
<path fill="none" stroke-width="0.04" stroke-linecap="butt" stroke-linejoin="miter" stroke="rgb(60.392157%, 44.705882%, 67.45098%)" stroke-opacity="1" stroke-miterlimit="10" d="M 0.172004 0.152644 C 0.17298 0.212347 0.173956 0.272049 0.174932 0.331816 " transform="matrix(60.023178, 0, 0, -59.932984, 337, 218)"/>
<path fill="none" stroke-width="0.04" stroke-linecap="butt" stroke-linejoin="miter" stroke="rgb(60.392157%, 44.705882%, 67.45098%)" stroke-opacity="1" stroke-miterlimit="10" d="M 0.177991 0.522133 C 0.178967 0.581835 0.179944 0.641537 0.18092 0.701239 " transform="matrix(60.023178, 0, 0, -59.932984, 337, 218)"/>
<path fill="none" stroke-width="0.04" stroke-linecap="butt" stroke-linejoin="miter" stroke="rgb(60.392157%, 44.705882%, 67.45098%)" stroke-opacity="1" stroke-miterlimit="10" d="M 0.183978 0.891556 C 0.184955 0.951258 0.185931 1.01096 0.186907 1.070662 " transform="matrix(60.023178, 0, 0, -59.932984, 337, 218)"/>
<path fill="none" stroke-width="0.04" stroke-linecap="butt" stroke-linejoin="miter" stroke="rgb(60.392157%, 44.705882%, 67.45098%)" stroke-opacity="1" stroke-miterlimit="10" d="M 0.189966 1.260979 C 0.190942 1.320681 0.191918 1.380448 0.192894 1.44015 " transform="matrix(60.023178, 0, 0, -59.932984, 337, 218)"/>
<path fill="none" stroke-width="0.04" stroke-linecap="butt" stroke-linejoin="miter" stroke="rgb(60.392157%, 44.705882%, 67.45098%)" stroke-opacity="1" stroke-miterlimit="10" d="M 0.196018 1.630467 C 0.196994 1.690169 0.197905 1.749871 0.198882 1.809573 " transform="matrix(60.023178, 0, 0, -59.932984, 337, 218)"/>
<path fill="none" stroke-width="0.04" stroke-linecap="butt" stroke-linejoin="miter" stroke="rgb(60.392157%, 44.705882%, 67.45098%)" stroke-opacity="1" stroke-miterlimit="10" d="M 0.202005 1.99989 C 0.202981 2.059592 0.203958 2.119294 0.204869 2.178996 " transform="matrix(60.023178, 0, 0, -59.932984, 337, 218)"/>
<path fill="none" stroke-width="0.04" stroke-linecap="butt" stroke-linejoin="miter" stroke="rgb(60.392157%, 44.705882%, 67.45098%)" stroke-opacity="1" stroke-miterlimit="10" d="M 0.207993 2.369378 C 0.208969 2.42908 0.209945 2.488782 0.210921 2.548485 " transform="matrix(60.023178, 0, 0, -59.932984, 337, 218)"/>
<path fill-rule="nonzero" fill="rgb(60.392157%, 44.705882%, 67.45098%)" fill-opacity="1" d="M 30.492188 307.15625 C 30.492188 306.363281 30.175781 305.597656 29.613281 305.039062 C 29.050781 304.476562 28.289062 304.160156 27.492188 304.160156 C 26.695312 304.160156 25.933594 304.476562 25.371094 305.039062 C 24.804688 305.597656 24.488281 306.363281 24.488281 307.15625 C 24.488281 307.953125 24.804688 308.714844 25.371094 309.277344 C 25.933594 309.835938 26.695312 310.152344 27.492188 310.152344 C 28.289062 310.152344 29.050781 309.835938 29.613281 309.277344 C 30.175781 308.714844 30.492188 307.953125 30.492188 307.15625 Z M 30.492188 307.15625 "/>
<path fill-rule="nonzero" fill="rgb(60.392157%, 44.705882%, 67.45098%)" fill-opacity="1" d="M 346.722656 430.273438 C 346.722656 429.476562 346.40625 428.714844 345.84375 428.152344 C 345.28125 427.589844 344.519531 427.273438 343.722656 427.273438 C 342.925781 427.273438 342.164062 427.589844 341.601562 428.152344 C 341.039062 428.714844 340.722656 429.476562 340.722656 430.273438 C 340.722656 431.066406 341.039062 431.828125 341.601562 432.390625 C 342.164062 432.953125 342.925781 433.269531 343.722656 433.269531 C 344.519531 433.269531 345.28125 432.953125 345.84375 432.390625 C 346.40625 431.828125 346.722656 431.066406 346.722656 430.273438 Z M 346.722656 430.273438 "/>
<path fill-rule="nonzero" fill="rgb(60.392157%, 44.705882%, 67.45098%)" fill-opacity="1" d="M 672.5 307.15625 C 672.5 306.363281 672.183594 305.597656 671.621094 305.039062 C 671.058594 304.476562 670.292969 304.160156 669.5 304.160156 C 668.703125 304.160156 667.9375 304.476562 667.375 305.039062 C 666.8125 305.597656 666.496094 306.363281 666.496094 307.15625 C 666.496094 307.953125 666.8125 308.714844 667.375 309.277344 C 667.9375 309.835938 668.703125 310.152344 669.5 310.152344 C 670.292969 310.152344 671.058594 309.835938 671.621094 309.277344 C 672.183594 308.714844 672.5 307.953125 672.5 307.15625 Z M 672.5 307.15625 "/>
<path fill-rule="nonzero" fill="rgb(60.392157%, 44.705882%, 67.45098%)" fill-opacity="1" d="M 352.660156 65.261719 C 352.660156 64.46875 352.34375 63.707031 351.78125 63.144531 C 351.21875 62.582031 350.453125 62.265625 349.660156 62.265625 C 348.863281 62.265625 348.097656 62.582031 347.535156 63.144531 C 346.972656 63.707031 346.65625 64.46875 346.65625 65.261719 C 346.65625 66.058594 346.972656 66.820312 347.535156 67.382812 C 348.097656 67.941406 348.863281 68.257812 349.660156 68.257812 C 350.453125 68.257812 351.21875 67.941406 351.78125 67.382812 C 352.34375 66.820312 352.660156 66.058594 352.660156 65.261719 Z M 352.660156 65.261719 "/>
<path fill="none" stroke-width="0.04" stroke-linecap="butt" stroke-linejoin="miter" stroke="rgb(51.372549%, 75.686275%, 40.392157%)" stroke-opacity="1" stroke-miterlimit="10" d="M -5.156472 -1.487599 C -5.104799 -1.507934 -5.053191 -1.528269 -5.001518 -1.548605 " transform="matrix(60.023178, 0, 0, -59.932984, 337, 218)"/>
<path fill="none" stroke-width="0.04" stroke-linecap="butt" stroke-linejoin="miter" stroke="rgb(51.372549%, 75.686275%, 40.392157%)" stroke-opacity="1" stroke-miterlimit="10" d="M -4.836803 -1.613456 C -4.785196 -1.633791 -4.733523 -1.654126 -4.68185 -1.674461 " transform="matrix(60.023178, 0, 0, -59.932984, 337, 218)"/>
<path fill="none" stroke-width="0.04" stroke-linecap="butt" stroke-linejoin="miter" stroke="rgb(51.372549%, 75.686275%, 40.392157%)" stroke-opacity="1" stroke-miterlimit="10" d="M -4.5172 -1.739312 C -4.465528 -1.759648 -4.413855 -1.779983 -4.362182 -1.800318 " transform="matrix(60.023178, 0, 0, -59.932984, 337, 218)"/>
<path fill="none" stroke-width="0.04" stroke-linecap="butt" stroke-linejoin="miter" stroke="rgb(51.372549%, 75.686275%, 40.392157%)" stroke-opacity="1" stroke-miterlimit="10" d="M -4.197532 -1.865169 C -4.145859 -1.885504 -4.094187 -1.90584 -4.042514 -1.92624 " transform="matrix(60.023178, 0, 0, -59.932984, 337, 218)"/>
<path fill="none" stroke-width="0.04" stroke-linecap="butt" stroke-linejoin="miter" stroke="rgb(51.372549%, 75.686275%, 40.392157%)" stroke-opacity="1" stroke-miterlimit="10" d="M -3.877864 -1.991026 C -3.826191 -2.011361 -3.774518 -2.031696 -3.722911 -2.052097 " transform="matrix(60.023178, 0, 0, -59.932984, 337, 218)"/>
<path fill="none" stroke-width="0.04" stroke-linecap="butt" stroke-linejoin="miter" stroke="rgb(51.372549%, 75.686275%, 40.392157%)" stroke-opacity="1" stroke-miterlimit="10" d="M -3.558196 -2.116883 C -3.506523 -2.137218 -3.454915 -2.157618 -3.403243 -2.177953 " transform="matrix(60.023178, 0, 0, -59.932984, 337, 218)"/>
<path fill="none" stroke-width="0.04" stroke-linecap="butt" stroke-linejoin="miter" stroke="rgb(51.372549%, 75.686275%, 40.392157%)" stroke-opacity="1" stroke-miterlimit="10" d="M -3.238593 -2.242739 C -3.18692 -2.26314 -3.135247 -2.283475 -3.083574 -2.30381 " transform="matrix(60.023178, 0, 0, -59.932984, 337, 218)"/>
<path fill="none" stroke-width="0.04" stroke-linecap="butt" stroke-linejoin="miter" stroke="rgb(51.372549%, 75.686275%, 40.392157%)" stroke-opacity="1" stroke-miterlimit="10" d="M -2.918924 -2.368596 C -2.867252 -2.388996 -2.815579 -2.409332 -2.763906 -2.429667 " transform="matrix(60.023178, 0, 0, -59.932984, 337, 218)"/>
<path fill="none" stroke-width="0.04" stroke-linecap="butt" stroke-linejoin="miter" stroke="rgb(51.372549%, 75.686275%, 40.392157%)" stroke-opacity="1" stroke-miterlimit="10" d="M -2.599256 -2.494518 C -2.547584 -2.514853 -2.495911 -2.535188 -2.444238 -2.555524 " transform="matrix(60.023178, 0, 0, -59.932984, 337, 218)"/>
<path fill="none" stroke-width="0.04" stroke-linecap="butt" stroke-linejoin="miter" stroke="rgb(51.372549%, 75.686275%, 40.392157%)" stroke-opacity="1" stroke-miterlimit="10" d="M -2.279588 -2.620375 C -2.227915 -2.64071 -2.176308 -2.661045 -2.124635 -2.68138 " transform="matrix(60.023178, 0, 0, -59.932984, 337, 218)"/>
<path fill="none" stroke-width="0.04" stroke-linecap="butt" stroke-linejoin="miter" stroke="rgb(51.372549%, 75.686275%, 40.392157%)" stroke-opacity="1" stroke-miterlimit="10" d="M -1.95992 -2.746231 C -1.908312 -2.766567 -1.85664 -2.786902 -1.804967 -2.807237 " transform="matrix(60.023178, 0, 0, -59.932984, 337, 218)"/>
<path fill="none" stroke-width="0.04" stroke-linecap="butt" stroke-linejoin="miter" stroke="rgb(51.372549%, 75.686275%, 40.392157%)" stroke-opacity="1" stroke-miterlimit="10" d="M -1.640317 -2.872088 C -1.588644 -2.892423 -1.536971 -2.912759 -1.485299 -2.933094 " transform="matrix(60.023178, 0, 0, -59.932984, 337, 218)"/>
<path fill="none" stroke-width="0.04" stroke-linecap="butt" stroke-linejoin="miter" stroke="rgb(51.372549%, 75.686275%, 40.392157%)" stroke-opacity="1" stroke-miterlimit="10" d="M -1.320649 -2.997945 C -1.268976 -3.01828 -1.217303 -3.038615 -1.16563 -3.05895 " transform="matrix(60.023178, 0, 0, -59.932984, 337, 218)"/>
<path fill="none" stroke-width="0.04" stroke-linecap="butt" stroke-linejoin="miter" stroke="rgb(51.372549%, 75.686275%, 40.392157%)" stroke-opacity="1" stroke-miterlimit="10" d="M -1.000981 -3.123802 C -0.949308 -3.144137 -0.897635 -3.164472 -0.846027 -3.184807 " transform="matrix(60.023178, 0, 0, -59.932984, 337, 218)"/>
<path fill="none" stroke-width="0.04" stroke-linecap="butt" stroke-linejoin="miter" stroke="rgb(51.372549%, 75.686275%, 40.392157%)" stroke-opacity="1" stroke-miterlimit="10" d="M -0.681312 -3.249658 C -0.62964 -3.269994 -0.578032 -3.290329 -0.526359 -3.310664 " transform="matrix(60.023178, 0, 0, -59.932984, 337, 218)"/>
<path fill="none" stroke-width="0.04" stroke-linecap="butt" stroke-linejoin="miter" stroke="rgb(51.372549%, 75.686275%, 40.392157%)" stroke-opacity="1" stroke-miterlimit="10" d="M -0.361644 -3.375515 C -0.310036 -3.39585 -0.258364 -3.416185 -0.206691 -3.436521 " transform="matrix(60.023178, 0, 0, -59.932984, 337, 218)"/>
<path fill="none" stroke-width="0.04" stroke-linecap="butt" stroke-linejoin="miter" stroke="rgb(51.372549%, 75.686275%, 40.392157%)" stroke-opacity="1" stroke-miterlimit="10" d="M -0.0420411 -3.501372 C 0.0096317 -3.521707 0.0613044 -3.542042 0.112977 -3.562377 " transform="matrix(60.023178, 0, 0, -59.932984, 337, 218)"/>
<path fill="none" stroke-width="0.04" stroke-linecap="butt" stroke-linejoin="miter" stroke="rgb(51.372549%, 75.686275%, 40.392157%)" stroke-opacity="1" stroke-miterlimit="10" d="M 0.112977 -3.562377 C 0.166147 -3.542042 0.219381 -3.521707 0.272551 -3.501372 " transform="matrix(60.023178, 0, 0, -59.932984, 337, 218)"/>
<path fill="none" stroke-width="0.04" stroke-linecap="butt" stroke-linejoin="miter" stroke="rgb(51.372549%, 75.686275%, 40.392157%)" stroke-opacity="1" stroke-miterlimit="10" d="M 0.442147 -3.436521 C 0.495316 -3.416185 0.548551 -3.39585 0.601721 -3.375515 " transform="matrix(60.023178, 0, 0, -59.932984, 337, 218)"/>
<path fill="none" stroke-width="0.04" stroke-linecap="butt" stroke-linejoin="miter" stroke="rgb(51.372549%, 75.686275%, 40.392157%)" stroke-opacity="1" stroke-miterlimit="10" d="M 0.771317 -3.310664 C 0.824486 -3.290329 0.877721 -3.269994 0.93089 -3.249658 " transform="matrix(60.023178, 0, 0, -59.932984, 337, 218)"/>
<path fill="none" stroke-width="0.04" stroke-linecap="butt" stroke-linejoin="miter" stroke="rgb(51.372549%, 75.686275%, 40.392157%)" stroke-opacity="1" stroke-miterlimit="10" d="M 1.100486 -3.184807 C 1.153656 -3.164472 1.206891 -3.144137 1.26006 -3.123802 " transform="matrix(60.023178, 0, 0, -59.932984, 337, 218)"/>
<path fill="none" stroke-width="0.04" stroke-linecap="butt" stroke-linejoin="miter" stroke="rgb(51.372549%, 75.686275%, 40.392157%)" stroke-opacity="1" stroke-miterlimit="10" d="M 1.429656 -3.05895 C 1.482826 -3.038615 1.53606 -3.01828 1.58923 -2.997945 " transform="matrix(60.023178, 0, 0, -59.932984, 337, 218)"/>
<path fill="none" stroke-width="0.04" stroke-linecap="butt" stroke-linejoin="miter" stroke="rgb(51.372549%, 75.686275%, 40.392157%)" stroke-opacity="1" stroke-miterlimit="10" d="M 1.758826 -2.933094 C 1.811995 -2.912759 1.86523 -2.892423 1.9184 -2.872088 " transform="matrix(60.023178, 0, 0, -59.932984, 337, 218)"/>
<path fill="none" stroke-width="0.04" stroke-linecap="butt" stroke-linejoin="miter" stroke="rgb(51.372549%, 75.686275%, 40.392157%)" stroke-opacity="1" stroke-miterlimit="10" d="M 2.087995 -2.807237 C 2.141165 -2.786902 2.1944 -2.766567 2.247569 -2.746231 " transform="matrix(60.023178, 0, 0, -59.932984, 337, 218)"/>
<path fill="none" stroke-width="0.04" stroke-linecap="butt" stroke-linejoin="miter" stroke="rgb(51.372549%, 75.686275%, 40.392157%)" stroke-opacity="1" stroke-miterlimit="10" d="M 2.417165 -2.68138 C 2.470335 -2.661045 2.523569 -2.64071 2.576739 -2.620375 " transform="matrix(60.023178, 0, 0, -59.932984, 337, 218)"/>
<path fill="none" stroke-width="0.04" stroke-linecap="butt" stroke-linejoin="miter" stroke="rgb(51.372549%, 75.686275%, 40.392157%)" stroke-opacity="1" stroke-miterlimit="10" d="M 2.746335 -2.555524 C 2.799504 -2.535188 2.852739 -2.514853 2.905909 -2.494518 " transform="matrix(60.023178, 0, 0, -59.932984, 337, 218)"/>
<path fill="none" stroke-width="0.04" stroke-linecap="butt" stroke-linejoin="miter" stroke="rgb(51.372549%, 75.686275%, 40.392157%)" stroke-opacity="1" stroke-miterlimit="10" d="M 3.075505 -2.429667 C 3.128674 -2.409332 3.181909 -2.388996 3.235078 -2.368596 " transform="matrix(60.023178, 0, 0, -59.932984, 337, 218)"/>
<path fill="none" stroke-width="0.04" stroke-linecap="butt" stroke-linejoin="miter" stroke="rgb(51.372549%, 75.686275%, 40.392157%)" stroke-opacity="1" stroke-miterlimit="10" d="M 3.404674 -2.30381 C 3.457844 -2.283475 3.511079 -2.26314 3.564248 -2.242739 " transform="matrix(60.023178, 0, 0, -59.932984, 337, 218)"/>
<path fill="none" stroke-width="0.04" stroke-linecap="butt" stroke-linejoin="miter" stroke="rgb(51.372549%, 75.686275%, 40.392157%)" stroke-opacity="1" stroke-miterlimit="10" d="M 3.733844 -2.177953 C 3.787014 -2.157618 3.840248 -2.137218 3.893418 -2.116883 " transform="matrix(60.023178, 0, 0, -59.932984, 337, 218)"/>
<path fill="none" stroke-width="0.04" stroke-linecap="butt" stroke-linejoin="miter" stroke="rgb(51.372549%, 75.686275%, 40.392157%)" stroke-opacity="1" stroke-miterlimit="10" d="M 4.063014 -2.052097 C 4.116183 -2.031696 4.169418 -2.011361 4.222588 -1.991026 " transform="matrix(60.023178, 0, 0, -59.932984, 337, 218)"/>
<path fill="none" stroke-width="0.04" stroke-linecap="butt" stroke-linejoin="miter" stroke="rgb(51.372549%, 75.686275%, 40.392157%)" stroke-opacity="1" stroke-miterlimit="10" d="M 4.392184 -1.92624 C 4.445353 -1.90584 4.498588 -1.885504 4.551757 -1.865169 " transform="matrix(60.023178, 0, 0, -59.932984, 337, 218)"/>
<path fill="none" stroke-width="0.04" stroke-linecap="butt" stroke-linejoin="miter" stroke="rgb(51.372549%, 75.686275%, 40.392157%)" stroke-opacity="1" stroke-miterlimit="10" d="M 4.721353 -1.800318 C 4.774523 -1.779983 4.827757 -1.759648 4.880927 -1.739312 " transform="matrix(60.023178, 0, 0, -59.932984, 337, 218)"/>
<path fill="none" stroke-width="0.04" stroke-linecap="butt" stroke-linejoin="miter" stroke="rgb(51.372549%, 75.686275%, 40.392157%)" stroke-opacity="1" stroke-miterlimit="10" d="M 5.050523 -1.674461 C 5.103692 -1.654126 5.156927 -1.633791 5.210097 -1.613456 " transform="matrix(60.023178, 0, 0, -59.932984, 337, 218)"/>
<path fill="none" stroke-width="0.04" stroke-linecap="butt" stroke-linejoin="miter" stroke="rgb(51.372549%, 75.686275%, 40.392157%)" stroke-opacity="1" stroke-miterlimit="10" d="M 5.379693 -1.548605 C 5.432862 -1.528269 5.486097 -1.507934 5.539266 -1.487599 " transform="matrix(60.023178, 0, 0, -59.932984, 337, 218)"/>
<path fill="none" stroke-width="0.04" stroke-linecap="butt" stroke-linejoin="miter" stroke="rgb(51.372549%, 75.686275%, 40.392157%)" stroke-opacity="1" stroke-miterlimit="10" d="M 5.539266 -1.487599 C 5.502171 -1.459573 5.465076 -1.431547 5.427981 -1.403521 " transform="matrix(60.023178, 0, 0, -59.932984, 337, 218)"/>
<path fill="none" stroke-width="0.04" stroke-linecap="butt" stroke-linejoin="miter" stroke="rgb(51.372549%, 75.686275%, 40.392157%)" stroke-opacity="1" stroke-miterlimit="10" d="M 5.31188 -1.315793 C 5.274785 -1.287766 5.237625 -1.25974 5.20053 -1.231714 " transform="matrix(60.023178, 0, 0, -59.932984, 337, 218)"/>
<path fill="none" stroke-width="0.04" stroke-linecap="butt" stroke-linejoin="miter" stroke="rgb(51.372549%, 75.686275%, 40.392157%)" stroke-opacity="1" stroke-miterlimit="10" d="M 5.084429 -1.144051 C 5.047334 -1.116025 5.010239 -1.087999 4.973144 -1.059973 " transform="matrix(60.023178, 0, 0, -59.932984, 337, 218)"/>
<path fill="none" stroke-width="0.04" stroke-linecap="butt" stroke-linejoin="miter" stroke="rgb(51.372549%, 75.686275%, 40.392157%)" stroke-opacity="1" stroke-miterlimit="10" d="M 4.856978 -0.972245 C 4.819883 -0.944219 4.782788 -0.916193 4.745693 -0.888167 " transform="matrix(60.023178, 0, 0, -59.932984, 337, 218)"/>
<path fill="none" stroke-width="0.04" stroke-linecap="butt" stroke-linejoin="miter" stroke="rgb(51.372549%, 75.686275%, 40.392157%)" stroke-opacity="1" stroke-miterlimit="10" d="M 4.629592 -0.800438 C 4.592497 -0.772412 4.555337 -0.744386 4.518242 -0.71636 " transform="matrix(60.023178, 0, 0, -59.932984, 337, 218)"/>
<path fill="none" stroke-width="0.04" stroke-linecap="butt" stroke-linejoin="miter" stroke="rgb(51.372549%, 75.686275%, 40.392157%)" stroke-opacity="1" stroke-miterlimit="10" d="M 4.402141 -0.628632 C 4.365046 -0.600606 4.327951 -0.57258 4.290855 -0.544554 " transform="matrix(60.023178, 0, 0, -59.932984, 337, 218)"/>
<path fill="none" stroke-width="0.04" stroke-linecap="butt" stroke-linejoin="miter" stroke="rgb(51.372549%, 75.686275%, 40.392157%)" stroke-opacity="1" stroke-miterlimit="10" d="M 4.174689 -0.456825 C 4.137594 -0.428799 4.100499 -0.400838 4.063404 -0.372812 " transform="matrix(60.023178, 0, 0, -59.932984, 337, 218)"/>
<path fill="none" stroke-width="0.04" stroke-linecap="butt" stroke-linejoin="miter" stroke="rgb(51.372549%, 75.686275%, 40.392157%)" stroke-opacity="1" stroke-miterlimit="10" d="M 3.947303 -0.285084 C 3.910208 -0.257058 3.873113 -0.229032 3.835953 -0.201006 " transform="matrix(60.023178, 0, 0, -59.932984, 337, 218)"/>
<path fill="none" stroke-width="0.04" stroke-linecap="butt" stroke-linejoin="miter" stroke="rgb(51.372549%, 75.686275%, 40.392157%)" stroke-opacity="1" stroke-miterlimit="10" d="M 3.719852 -0.113278 C 3.682757 -0.0852515 3.645662 -0.0572254 3.608567 -0.0291993 " transform="matrix(60.023178, 0, 0, -59.932984, 337, 218)"/>
<path fill="none" stroke-width="0.04" stroke-linecap="butt" stroke-linejoin="miter" stroke="rgb(51.372549%, 75.686275%, 40.392157%)" stroke-opacity="1" stroke-miterlimit="10" d="M 3.492401 0.0585289 C 3.455306 0.086555 3.418211 0.114581 3.381116 0.142607 " transform="matrix(60.023178, 0, 0, -59.932984, 337, 218)"/>
<path fill="none" stroke-width="0.04" stroke-linecap="butt" stroke-linejoin="miter" stroke="rgb(51.372549%, 75.686275%, 40.392157%)" stroke-opacity="1" stroke-miterlimit="10" d="M 3.265015 0.230335 C 3.22792 0.258361 3.190825 0.286388 3.15373 0.314414 " transform="matrix(60.023178, 0, 0, -59.932984, 337, 218)"/>
<path fill="none" stroke-width="0.04" stroke-linecap="butt" stroke-linejoin="miter" stroke="rgb(51.372549%, 75.686275%, 40.392157%)" stroke-opacity="1" stroke-miterlimit="10" d="M 3.037564 0.402077 C 3.000469 0.430103 2.963373 0.458129 2.926278 0.486155 " transform="matrix(60.023178, 0, 0, -59.932984, 337, 218)"/>
<path fill="none" stroke-width="0.04" stroke-linecap="butt" stroke-linejoin="miter" stroke="rgb(51.372549%, 75.686275%, 40.392157%)" stroke-opacity="1" stroke-miterlimit="10" d="M 2.810112 0.573883 C 2.773017 0.601909 2.735922 0.629935 2.698827 0.657961 " transform="matrix(60.023178, 0, 0, -59.932984, 337, 218)"/>
<path fill="none" stroke-width="0.04" stroke-linecap="butt" stroke-linejoin="miter" stroke="rgb(51.372549%, 75.686275%, 40.392157%)" stroke-opacity="1" stroke-miterlimit="10" d="M 2.582726 0.74569 C 2.545631 0.773716 2.508536 0.801742 2.471441 0.829768 " transform="matrix(60.023178, 0, 0, -59.932984, 337, 218)"/>
<path fill="none" stroke-width="0.04" stroke-linecap="butt" stroke-linejoin="miter" stroke="rgb(51.372549%, 75.686275%, 40.392157%)" stroke-opacity="1" stroke-miterlimit="10" d="M 2.355275 0.917496 C 2.31818 0.945522 2.281085 0.973548 2.24399 1.001574 " transform="matrix(60.023178, 0, 0, -59.932984, 337, 218)"/>
<path fill="none" stroke-width="0.04" stroke-linecap="butt" stroke-linejoin="miter" stroke="rgb(51.372549%, 75.686275%, 40.392157%)" stroke-opacity="1" stroke-miterlimit="10" d="M 2.127824 1.089303 C 2.090729 1.117329 2.053634 1.14529 2.016539 1.173316 " transform="matrix(60.023178, 0, 0, -59.932984, 337, 218)"/>
<path fill="none" stroke-width="0.04" stroke-linecap="butt" stroke-linejoin="miter" stroke="rgb(51.372549%, 75.686275%, 40.392157%)" stroke-opacity="1" stroke-miterlimit="10" d="M 1.900438 1.261044 C 1.863343 1.28907 1.826248 1.317096 1.789153 1.345122 " transform="matrix(60.023178, 0, 0, -59.932984, 337, 218)"/>
<path fill="none" stroke-width="0.04" stroke-linecap="butt" stroke-linejoin="miter" stroke="rgb(51.372549%, 75.686275%, 40.392157%)" stroke-opacity="1" stroke-miterlimit="10" d="M 1.672987 1.43285 C 1.635891 1.460876 1.598796 1.488903 1.561701 1.516929 " transform="matrix(60.023178, 0, 0, -59.932984, 337, 218)"/>
<path fill="none" stroke-width="0.04" stroke-linecap="butt" stroke-linejoin="miter" stroke="rgb(51.372549%, 75.686275%, 40.392157%)" stroke-opacity="1" stroke-miterlimit="10" d="M 1.445535 1.604657 C 1.40844 1.632683 1.371345 1.660709 1.33425 1.688735 " transform="matrix(60.023178, 0, 0, -59.932984, 337, 218)"/>
<path fill="none" stroke-width="0.04" stroke-linecap="butt" stroke-linejoin="miter" stroke="rgb(51.372549%, 75.686275%, 40.392157%)" stroke-opacity="1" stroke-miterlimit="10" d="M 1.218149 1.776463 C 1.181054 1.804489 1.143959 1.832516 1.106864 1.860542 " transform="matrix(60.023178, 0, 0, -59.932984, 337, 218)"/>
<path fill="none" stroke-width="0.04" stroke-linecap="butt" stroke-linejoin="miter" stroke="rgb(51.372549%, 75.686275%, 40.392157%)" stroke-opacity="1" stroke-miterlimit="10" d="M 0.990698 1.948205 C 0.953603 1.976231 0.916508 2.004257 0.879413 2.032283 " transform="matrix(60.023178, 0, 0, -59.932984, 337, 218)"/>
<path fill="none" stroke-width="0.04" stroke-linecap="butt" stroke-linejoin="miter" stroke="rgb(51.372549%, 75.686275%, 40.392157%)" stroke-opacity="1" stroke-miterlimit="10" d="M 0.763247 2.120011 C 0.726152 2.148037 0.689057 2.176063 0.651962 2.204089 " transform="matrix(60.023178, 0, 0, -59.932984, 337, 218)"/>
<path fill="none" stroke-width="0.04" stroke-linecap="butt" stroke-linejoin="miter" stroke="rgb(51.372549%, 75.686275%, 40.392157%)" stroke-opacity="1" stroke-miterlimit="10" d="M 0.535861 2.291818 C 0.498766 2.319844 0.461671 2.34787 0.424576 2.375896 " transform="matrix(60.023178, 0, 0, -59.932984, 337, 218)"/>
<path fill="none" stroke-width="0.04" stroke-linecap="butt" stroke-linejoin="miter" stroke="rgb(51.372549%, 75.686275%, 40.392157%)" stroke-opacity="1" stroke-miterlimit="10" d="M 0.30841 2.463624 C 0.271314 2.49165 0.234219 2.519676 0.197124 2.547702 " transform="matrix(60.023178, 0, 0, -59.932984, 337, 218)"/>
<path fill="none" stroke-width="0.04" stroke-linecap="butt" stroke-linejoin="miter" stroke="rgb(51.372549%, 75.686275%, 40.392157%)" stroke-opacity="1" stroke-miterlimit="10" d="M 0.197124 2.547702 C 0.159964 2.519676 0.122739 2.49165 0.0855789 2.463624 " transform="matrix(60.023178, 0, 0, -59.932984, 337, 218)"/>
<path fill="none" stroke-width="0.04" stroke-linecap="butt" stroke-linejoin="miter" stroke="rgb(51.372549%, 75.686275%, 40.392157%)" stroke-opacity="1" stroke-miterlimit="10" d="M -0.0307824 2.375896 C -0.0679425 2.34787 -0.105168 2.319844 -0.142328 2.291818 " transform="matrix(60.023178, 0, 0, -59.932984, 337, 218)"/>
<path fill="none" stroke-width="0.04" stroke-linecap="butt" stroke-linejoin="miter" stroke="rgb(51.372549%, 75.686275%, 40.392157%)" stroke-opacity="1" stroke-miterlimit="10" d="M -0.258689 2.204089 C -0.295914 2.176063 -0.333074 2.148037 -0.370235 2.120011 " transform="matrix(60.023178, 0, 0, -59.932984, 337, 218)"/>
<path fill="none" stroke-width="0.04" stroke-linecap="butt" stroke-linejoin="miter" stroke="rgb(51.372549%, 75.686275%, 40.392157%)" stroke-opacity="1" stroke-miterlimit="10" d="M -0.486596 2.032283 C -0.523821 2.004257 -0.560981 1.976231 -0.598141 1.948205 " transform="matrix(60.023178, 0, 0, -59.932984, 337, 218)"/>
<path fill="none" stroke-width="0.04" stroke-linecap="butt" stroke-linejoin="miter" stroke="rgb(51.372549%, 75.686275%, 40.392157%)" stroke-opacity="1" stroke-miterlimit="10" d="M -0.714568 1.860542 C -0.751728 1.832516 -0.788888 1.804489 -0.826048 1.776463 " transform="matrix(60.023178, 0, 0, -59.932984, 337, 218)"/>
<path fill="none" stroke-width="0.04" stroke-linecap="butt" stroke-linejoin="miter" stroke="rgb(51.372549%, 75.686275%, 40.392157%)" stroke-opacity="1" stroke-miterlimit="10" d="M -0.942474 1.688735 C -0.979635 1.660709 -1.016795 1.632683 -1.05402 1.604657 " transform="matrix(60.023178, 0, 0, -59.932984, 337, 218)"/>
<path fill="none" stroke-width="0.04" stroke-linecap="butt" stroke-linejoin="miter" stroke="rgb(51.372549%, 75.686275%, 40.392157%)" stroke-opacity="1" stroke-miterlimit="10" d="M -1.170381 1.516929 C -1.207541 1.488903 -1.244701 1.460876 -1.281927 1.43285 " transform="matrix(60.023178, 0, 0, -59.932984, 337, 218)"/>
<path fill="none" stroke-width="0.04" stroke-linecap="butt" stroke-linejoin="miter" stroke="rgb(51.372549%, 75.686275%, 40.392157%)" stroke-opacity="1" stroke-miterlimit="10" d="M -1.398288 1.345122 C -1.435448 1.317096 -1.472673 1.28907 -1.509833 1.261044 " transform="matrix(60.023178, 0, 0, -59.932984, 337, 218)"/>
<path fill="none" stroke-width="0.04" stroke-linecap="butt" stroke-linejoin="miter" stroke="rgb(51.372549%, 75.686275%, 40.392157%)" stroke-opacity="1" stroke-miterlimit="10" d="M -1.626195 1.173316 C -1.663355 1.14529 -1.70058 1.117329 -1.73774 1.089303 " transform="matrix(60.023178, 0, 0, -59.932984, 337, 218)"/>
<path fill="none" stroke-width="0.04" stroke-linecap="butt" stroke-linejoin="miter" stroke="rgb(51.372549%, 75.686275%, 40.392157%)" stroke-opacity="1" stroke-miterlimit="10" d="M -1.854101 1.001574 C -1.891327 0.973548 -1.928487 0.945522 -1.965647 0.917496 " transform="matrix(60.023178, 0, 0, -59.932984, 337, 218)"/>
<path fill="none" stroke-width="0.04" stroke-linecap="butt" stroke-linejoin="miter" stroke="rgb(51.372549%, 75.686275%, 40.392157%)" stroke-opacity="1" stroke-miterlimit="10" d="M -2.082008 0.829768 C -2.119233 0.801742 -2.156394 0.773716 -2.193554 0.74569 " transform="matrix(60.023178, 0, 0, -59.932984, 337, 218)"/>
<path fill="none" stroke-width="0.04" stroke-linecap="butt" stroke-linejoin="miter" stroke="rgb(51.372549%, 75.686275%, 40.392157%)" stroke-opacity="1" stroke-miterlimit="10" d="M -2.30998 0.657961 C -2.34714 0.629935 -2.3843 0.601909 -2.42146 0.573883 " transform="matrix(60.023178, 0, 0, -59.932984, 337, 218)"/>
<path fill="none" stroke-width="0.04" stroke-linecap="butt" stroke-linejoin="miter" stroke="rgb(51.372549%, 75.686275%, 40.392157%)" stroke-opacity="1" stroke-miterlimit="10" d="M -2.537887 0.486155 C -2.575047 0.458129 -2.612207 0.430103 -2.649432 0.402077 " transform="matrix(60.023178, 0, 0, -59.932984, 337, 218)"/>
<path fill="none" stroke-width="0.04" stroke-linecap="butt" stroke-linejoin="miter" stroke="rgb(51.372549%, 75.686275%, 40.392157%)" stroke-opacity="1" stroke-miterlimit="10" d="M -2.765794 0.314414 C -2.802954 0.286388 -2.840114 0.258361 -2.877339 0.230335 " transform="matrix(60.023178, 0, 0, -59.932984, 337, 218)"/>
<path fill="none" stroke-width="0.04" stroke-linecap="butt" stroke-linejoin="miter" stroke="rgb(51.372549%, 75.686275%, 40.392157%)" stroke-opacity="1" stroke-miterlimit="10" d="M -2.9937 0.142607 C -3.03086 0.114581 -3.068086 0.086555 -3.105246 0.0585289 " transform="matrix(60.023178, 0, 0, -59.932984, 337, 218)"/>
<path fill="none" stroke-width="0.04" stroke-linecap="butt" stroke-linejoin="miter" stroke="rgb(51.372549%, 75.686275%, 40.392157%)" stroke-opacity="1" stroke-miterlimit="10" d="M -3.221607 -0.0291993 C -3.258767 -0.0572254 -3.295992 -0.0852515 -3.333153 -0.113278 " transform="matrix(60.023178, 0, 0, -59.932984, 337, 218)"/>
<path fill="none" stroke-width="0.04" stroke-linecap="butt" stroke-linejoin="miter" stroke="rgb(51.372549%, 75.686275%, 40.392157%)" stroke-opacity="1" stroke-miterlimit="10" d="M -3.449514 -0.201006 C -3.486739 -0.229032 -3.523899 -0.257058 -3.561059 -0.285084 " transform="matrix(60.023178, 0, 0, -59.932984, 337, 218)"/>
<path fill="none" stroke-width="0.04" stroke-linecap="butt" stroke-linejoin="miter" stroke="rgb(51.372549%, 75.686275%, 40.392157%)" stroke-opacity="1" stroke-miterlimit="10" d="M -3.677421 -0.372812 C -3.714646 -0.400838 -3.751806 -0.428799 -3.788966 -0.456825 " transform="matrix(60.023178, 0, 0, -59.932984, 337, 218)"/>
<path fill="none" stroke-width="0.04" stroke-linecap="butt" stroke-linejoin="miter" stroke="rgb(51.372549%, 75.686275%, 40.392157%)" stroke-opacity="1" stroke-miterlimit="10" d="M -3.905392 -0.544554 C -3.942553 -0.57258 -3.979713 -0.600606 -4.016873 -0.628632 " transform="matrix(60.023178, 0, 0, -59.932984, 337, 218)"/>
<path fill="none" stroke-width="0.04" stroke-linecap="butt" stroke-linejoin="miter" stroke="rgb(51.372549%, 75.686275%, 40.392157%)" stroke-opacity="1" stroke-miterlimit="10" d="M -4.133299 -0.71636 C -4.170459 -0.744386 -4.207619 -0.772412 -4.244845 -0.800438 " transform="matrix(60.023178, 0, 0, -59.932984, 337, 218)"/>
<path fill="none" stroke-width="0.04" stroke-linecap="butt" stroke-linejoin="miter" stroke="rgb(51.372549%, 75.686275%, 40.392157%)" stroke-opacity="1" stroke-miterlimit="10" d="M -4.361206 -0.888167 C -4.398366 -0.916193 -4.435526 -0.944219 -4.472751 -0.972245 " transform="matrix(60.023178, 0, 0, -59.932984, 337, 218)"/>
<path fill="none" stroke-width="0.04" stroke-linecap="butt" stroke-linejoin="miter" stroke="rgb(51.372549%, 75.686275%, 40.392157%)" stroke-opacity="1" stroke-miterlimit="10" d="M -4.589113 -1.059973 C -4.626273 -1.087999 -4.663498 -1.116025 -4.700658 -1.144051 " transform="matrix(60.023178, 0, 0, -59.932984, 337, 218)"/>
<path fill="none" stroke-width="0.04" stroke-linecap="butt" stroke-linejoin="miter" stroke="rgb(51.372549%, 75.686275%, 40.392157%)" stroke-opacity="1" stroke-miterlimit="10" d="M -4.817019 -1.231714 C -4.854245 -1.25974 -4.891405 -1.287766 -4.928565 -1.315793 " transform="matrix(60.023178, 0, 0, -59.932984, 337, 218)"/>
<path fill="none" stroke-width="0.04" stroke-linecap="butt" stroke-linejoin="miter" stroke="rgb(51.372549%, 75.686275%, 40.392157%)" stroke-opacity="1" stroke-miterlimit="10" d="M -5.044926 -1.403521 C -5.082151 -1.431547 -5.119311 -1.459573 -5.156472 -1.487599 " transform="matrix(60.023178, 0, 0, -59.932984, 337, 218)"/>
<path fill="none" stroke-width="0.04" stroke-linecap="butt" stroke-linejoin="miter" stroke="rgb(51.372549%, 75.686275%, 40.392157%)" stroke-opacity="1" stroke-miterlimit="10" d="M 0.112977 -3.562377 C 0.113758 -3.50248 0.114604 -3.442582 0.11545 -3.382684 " transform="matrix(60.023178, 0, 0, -59.932984, 337, 218)"/>
<path fill="none" stroke-width="0.04" stroke-linecap="butt" stroke-linejoin="miter" stroke="rgb(51.372549%, 75.686275%, 40.392157%)" stroke-opacity="1" stroke-miterlimit="10" d="M 0.118053 -3.191716 C 0.118899 -3.131818 0.119745 -3.071921 0.120526 -3.012023 " transform="matrix(60.023178, 0, 0, -59.932984, 337, 218)"/>
<path fill="none" stroke-width="0.04" stroke-linecap="butt" stroke-linejoin="miter" stroke="rgb(51.372549%, 75.686275%, 40.392157%)" stroke-opacity="1" stroke-miterlimit="10" d="M 0.123195 -2.82112 C 0.123976 -2.761222 0.124822 -2.701324 0.125668 -2.641362 " transform="matrix(60.023178, 0, 0, -59.932984, 337, 218)"/>
<path fill="none" stroke-width="0.04" stroke-linecap="butt" stroke-linejoin="miter" stroke="rgb(51.372549%, 75.686275%, 40.392157%)" stroke-opacity="1" stroke-miterlimit="10" d="M 0.128271 -2.450458 C 0.129117 -2.390561 0.129898 -2.330663 0.130744 -2.270765 " transform="matrix(60.023178, 0, 0, -59.932984, 337, 218)"/>
<path fill="none" stroke-width="0.04" stroke-linecap="butt" stroke-linejoin="miter" stroke="rgb(51.372549%, 75.686275%, 40.392157%)" stroke-opacity="1" stroke-miterlimit="10" d="M 0.133412 -2.079797 C 0.134193 -2.019899 0.135039 -1.960002 0.135885 -1.900104 " transform="matrix(60.023178, 0, 0, -59.932984, 337, 218)"/>
<path fill="none" stroke-width="0.04" stroke-linecap="butt" stroke-linejoin="miter" stroke="rgb(51.372549%, 75.686275%, 40.392157%)" stroke-opacity="1" stroke-miterlimit="10" d="M 0.138488 -1.709136 C 0.139334 -1.649238 0.140115 -1.58934 0.140961 -1.529443 " transform="matrix(60.023178, 0, 0, -59.932984, 337, 218)"/>
<path fill="none" stroke-width="0.04" stroke-linecap="butt" stroke-linejoin="miter" stroke="rgb(51.372549%, 75.686275%, 40.392157%)" stroke-opacity="1" stroke-miterlimit="10" d="M 0.143564 -1.338539 C 0.14441 -1.278577 0.145256 -1.218679 0.146102 -1.158781 " transform="matrix(60.023178, 0, 0, -59.932984, 337, 218)"/>
<path fill="none" stroke-width="0.04" stroke-linecap="butt" stroke-linejoin="miter" stroke="rgb(51.372549%, 75.686275%, 40.392157%)" stroke-opacity="1" stroke-miterlimit="10" d="M 0.148706 -0.967878 C 0.149552 -0.90798 0.150333 -0.848083 0.151179 -0.788185 " transform="matrix(60.023178, 0, 0, -59.932984, 337, 218)"/>
<path fill="none" stroke-width="0.04" stroke-linecap="butt" stroke-linejoin="miter" stroke="rgb(51.372549%, 75.686275%, 40.392157%)" stroke-opacity="1" stroke-miterlimit="10" d="M 0.153782 -0.597217 C 0.154628 -0.537319 0.155474 -0.477421 0.156255 -0.417524 " transform="matrix(60.023178, 0, 0, -59.932984, 337, 218)"/>
<path fill="none" stroke-width="0.04" stroke-linecap="butt" stroke-linejoin="miter" stroke="rgb(51.372549%, 75.686275%, 40.392157%)" stroke-opacity="1" stroke-miterlimit="10" d="M 0.158923 -0.226555 C 0.159769 -0.166657 0.16055 -0.10676 0.161396 -0.0468622 " transform="matrix(60.023178, 0, 0, -59.932984, 337, 218)"/>
<path fill="none" stroke-width="0.04" stroke-linecap="butt" stroke-linejoin="miter" stroke="rgb(51.372549%, 75.686275%, 40.392157%)" stroke-opacity="1" stroke-miterlimit="10" d="M 0.163999 0.144106 C 0.164845 0.204004 0.165691 0.263902 0.166472 0.323799 " transform="matrix(60.023178, 0, 0, -59.932984, 337, 218)"/>
<path fill="none" stroke-width="0.04" stroke-linecap="butt" stroke-linejoin="miter" stroke="rgb(51.372549%, 75.686275%, 40.392157%)" stroke-opacity="1" stroke-miterlimit="10" d="M 0.16914 0.514702 C 0.169921 0.574665 0.170767 0.634563 0.171613 0.694461 " transform="matrix(60.023178, 0, 0, -59.932984, 337, 218)"/>
<path fill="none" stroke-width="0.04" stroke-linecap="butt" stroke-linejoin="miter" stroke="rgb(51.372549%, 75.686275%, 40.392157%)" stroke-opacity="1" stroke-miterlimit="10" d="M 0.174217 0.885364 C 0.175063 0.945262 0.175909 1.005159 0.17669 1.065057 " transform="matrix(60.023178, 0, 0, -59.932984, 337, 218)"/>
<path fill="none" stroke-width="0.04" stroke-linecap="butt" stroke-linejoin="miter" stroke="rgb(51.372549%, 75.686275%, 40.392157%)" stroke-opacity="1" stroke-miterlimit="10" d="M 0.179358 1.256025 C 0.180139 1.315923 0.180985 1.375821 0.181831 1.435718 " transform="matrix(60.023178, 0, 0, -59.932984, 337, 218)"/>
<path fill="none" stroke-width="0.04" stroke-linecap="butt" stroke-linejoin="miter" stroke="rgb(51.372549%, 75.686275%, 40.392157%)" stroke-opacity="1" stroke-miterlimit="10" d="M 0.184434 1.626687 C 0.18528 1.686584 0.186061 1.746482 0.186907 1.80638 " transform="matrix(60.023178, 0, 0, -59.932984, 337, 218)"/>
<path fill="none" stroke-width="0.04" stroke-linecap="butt" stroke-linejoin="miter" stroke="rgb(51.372549%, 75.686275%, 40.392157%)" stroke-opacity="1" stroke-miterlimit="10" d="M 0.189575 1.997348 C 0.190356 2.057246 0.191202 2.117143 0.192048 2.177041 " transform="matrix(60.023178, 0, 0, -59.932984, 337, 218)"/>
<path fill="none" stroke-width="0.04" stroke-linecap="butt" stroke-linejoin="miter" stroke="rgb(51.372549%, 75.686275%, 40.392157%)" stroke-opacity="1" stroke-miterlimit="10" d="M 0.194651 2.367944 C 0.195497 2.427842 0.196278 2.487805 0.197124 2.547702 " transform="matrix(60.023178, 0, 0, -59.932984, 337, 218)"/>
<path fill-rule="nonzero" fill="rgb(51.372549%, 75.686275%, 40.392157%)" fill-opacity="1" d="M 30.492188 307.15625 C 30.492188 306.363281 30.175781 305.597656 29.613281 305.039062 C 29.050781 304.476562 28.289062 304.160156 27.492188 304.160156 C 26.695312 304.160156 25.933594 304.476562 25.371094 305.039062 C 24.804688 305.597656 24.488281 306.363281 24.488281 307.15625 C 24.488281 307.953125 24.804688 308.714844 25.371094 309.277344 C 25.933594 309.835938 26.695312 310.152344 27.492188 310.152344 C 28.289062 310.152344 29.050781 309.835938 29.613281 309.277344 C 30.175781 308.714844 30.492188 307.953125 30.492188 307.15625 Z M 30.492188 307.15625 "/>
<path fill-rule="nonzero" fill="rgb(51.372549%, 75.686275%, 40.392157%)" fill-opacity="1" d="M 346.78125 431.503906 C 346.78125 430.710938 346.464844 429.949219 345.902344 429.386719 C 345.339844 428.824219 344.578125 428.507812 343.78125 428.507812 C 342.984375 428.507812 342.222656 428.824219 341.660156 429.386719 C 341.09375 429.949219 340.777344 430.710938 340.777344 431.503906 C 340.777344 432.300781 341.09375 433.0625 341.660156 433.625 C 342.222656 434.1875 342.984375 434.5 343.78125 434.5 C 344.578125 434.5 345.339844 434.1875 345.902344 433.625 C 346.464844 433.0625 346.78125 432.300781 346.78125 431.503906 Z M 346.78125 431.503906 "/>
<path fill-rule="nonzero" fill="rgb(51.372549%, 75.686275%, 40.392157%)" fill-opacity="1" d="M 672.488281 307.15625 C 672.488281 306.363281 672.171875 305.597656 671.605469 305.039062 C 671.042969 304.476562 670.28125 304.160156 669.484375 304.160156 C 668.6875 304.160156 667.925781 304.476562 667.363281 305.039062 C 666.800781 305.597656 666.484375 306.363281 666.484375 307.15625 C 666.484375 307.953125 666.800781 308.714844 667.363281 309.277344 C 667.925781 309.835938 668.6875 310.152344 669.484375 310.152344 C 670.28125 310.152344 671.042969 309.835938 671.605469 309.277344 C 672.171875 308.714844 672.488281 307.953125 672.488281 307.15625 Z M 672.488281 307.15625 "/>
<path fill-rule="nonzero" fill="rgb(51.372549%, 75.686275%, 40.392157%)" fill-opacity="1" d="M 351.832031 65.308594 C 351.832031 64.515625 351.515625 63.753906 350.953125 63.191406 C 350.390625 62.628906 349.628906 62.3125 348.832031 62.3125 C 348.035156 62.3125 347.273438 62.628906 346.710938 63.191406 C 346.148438 63.753906 345.832031 64.515625 345.832031 65.308594 C 345.832031 66.105469 346.148438 66.867188 346.710938 67.429688 C 347.273438 67.992188 348.035156 68.308594 348.832031 68.308594 C 349.628906 68.308594 350.390625 67.992188 350.953125 67.429688 C 351.515625 66.867188 351.832031 66.105469 351.832031 65.308594 Z M 351.832031 65.308594 "/>
</svg>
