<?xml version="1.0" encoding="UTF-8"?>
<svg xmlns="http://www.w3.org/2000/svg" xmlns:xlink="http://www.w3.org/1999/xlink" width="677" height="444" viewBox="0 0 677 444">
<path fill="none" stroke-width="0.04" stroke-linecap="butt" stroke-linejoin="miter" stroke="rgb(0%, 0%, 0%)" stroke-opacity="1" stroke-miterlimit="10" d="M -5.18754 -1.419727 C -3.520838 -1.419727 -1.8542 -1.419727 -0.187498 -1.419727 " transform="matrix(59.958879, 0, 0, -59.91469, 338.5, 222)"/>
<path fill="none" stroke-width="0.04" stroke-linecap="butt" stroke-linejoin="miter" stroke="rgb(0%, 0%, 0%)" stroke-opacity="1" stroke-miterlimit="10" d="M -0.187498 -1.419727 C 1.479139 -1.419727 3.145841 -1.419727 4.812478 -1.419727 " transform="matrix(59.958879, 0, 0, -59.91469, 338.5, 222)"/>
<path fill="none" stroke-width="0.04" stroke-linecap="butt" stroke-linejoin="miter" stroke="rgb(0%, 0%, 0%)" stroke-opacity="1" stroke-miterlimit="10" d="M 4.812478 -1.419727 C 3.145841 0.246966 1.479139 1.913593 -0.187498 3.580286 " transform="matrix(59.958879, 0, 0, -59.91469, 338.5, 222)"/>
<path fill="none" stroke-width="0.04" stroke-linecap="butt" stroke-linejoin="miter" stroke="rgb(0%, 0%, 0%)" stroke-opacity="1" stroke-miterlimit="10" d="M -0.187498 3.580286 C -1.8542 1.913593 -3.520838 0.246966 -5.18754 -1.419727 " transform="matrix(59.958879, 0, 0, -59.91469, 338.5, 222)"/>
<path fill="none" stroke-width="0.04" stroke-linecap="butt" stroke-linejoin="miter" stroke="rgb(0%, 0%, 0%)" stroke-opacity="1" stroke-miterlimit="10" d="M -0.187498 -1.419727 C -0.187498 0.246966 -0.187498 1.913593 -0.187498 3.580286 " transform="matrix(59.958879, 0, 0, -59.91469, 338.5, 222)"/>
<path fill="none" stroke-width="0.04" stroke-linecap="butt" stroke-linejoin="miter" stroke="rgb(0%, 0%, 0%)" stroke-opacity="1" stroke-miterlimit="10" d="M -5.18754 -1.419727 C -5.283764 -1.58637 -5.379989 -1.753079 -5.476214 -1.919722 C -5.283764 -1.919722 -5.091315 -1.919722 -4.898865 -1.919722 C -4.99509 -1.753079 -5.091315 -1.58637 -5.18754 -1.419727 Z M -5.18754 -1.419727 " transform="matrix(59.958879, 0, 0, -59.91469, 338.5, 222)"/>
<path fill="none" stroke-width="0.04" stroke-linecap="butt" stroke-linejoin="miter" stroke="rgb(0%, 0%, 0%)" stroke-opacity="1" stroke-miterlimit="10" d="M -4.754496 -1.919722 C -5.04317 -1.919722 -5.331844 -1.919722 -5.620519 -1.919722 " transform="matrix(59.958879, 0, 0, -59.91469, 338.5, 222)"/>
<path fill="none" stroke-width="0.04" stroke-linecap="butt" stroke-linejoin="miter" stroke="rgb(0%, 0%, 0%)" stroke-opacity="1" stroke-miterlimit="10" d="M 5.062454 -1.669757 C 5.062454 -1.603452 5.036134 -1.53982 4.989227 -1.492943 C 4.942385 -1.446066 4.878799 -1.419727 4.812478 -1.419727 C 4.746156 -1.419727 4.682571 -1.446066 4.635729 -1.492943 C 4.588822 -1.53982 4.562502 -1.603452 4.562502 -1.669757 C 4.562502 -1.736062 4.588822 -1.799629 4.635729 -1.846506 C 4.682571 -1.893382 4.746156 -1.919722 4.812478 -1.919722 C 4.878799 -1.919722 4.942385 -1.893382 4.989227 -1.846506 C 5.036134 -1.799629 5.062454 -1.736062 5.062454 -1.669757 Z M 5.062454 -1.669757 " transform="matrix(59.958879, 0, 0, -59.91469, 338.5, 222)"/>
<path fill="none" stroke-width="0.04" stroke-linecap="butt" stroke-linejoin="miter" stroke="rgb(0%, 0%, 0%)" stroke-opacity="1" stroke-miterlimit="10" d="M 5.187475 -1.919722 C 4.937499 -1.919722 4.687457 -1.919722 4.437481 -1.919722 " transform="matrix(59.958879, 0, 0, -59.91469, 338.5, 222)"/>
<path fill-rule="nonzero" fill="rgb(0%, 0%, 0%)" fill-opacity="1" d="M 33.457031 307.0625 C 33.457031 305.472656 32.824219 303.949219 31.703125 302.828125 C 30.578125 301.703125 29.050781 301.070312 27.460938 301.070312 C 25.871094 301.070312 24.347656 301.703125 23.222656 302.828125 C 22.097656 303.949219 21.464844 305.472656 21.464844 307.0625 C 21.464844 308.652344 22.097656 310.175781 23.222656 311.300781 C 24.347656 312.421875 25.871094 313.054688 27.460938 313.054688 C 29.050781 313.054688 30.578125 312.421875 31.703125 311.300781 C 32.824219 310.175781 33.457031 308.652344 33.457031 307.0625 Z M 33.457031 307.0625 "/>
<path fill-rule="nonzero" fill="rgb(0%, 0%, 0%)" fill-opacity="1" d="M 333.253906 307.0625 C 333.253906 305.472656 332.621094 303.949219 331.496094 302.828125 C 330.371094 301.703125 328.847656 301.070312 327.257812 301.070312 C 325.667969 301.070312 324.140625 301.703125 323.015625 302.828125 C 321.890625 303.949219 321.261719 305.472656 321.261719 307.0625 C 321.261719 308.652344 321.890625 310.175781 323.015625 311.300781 C 324.140625 312.421875 325.667969 313.054688 327.257812 313.054688 C 328.847656 313.054688 330.371094 312.421875 331.496094 311.300781 C 332.621094 310.175781 333.253906 308.652344 333.253906 307.0625 Z M 333.253906 307.0625 "/>
<path fill-rule="nonzero" fill="rgb(0%, 0%, 0%)" fill-opacity="1" d="M 633.046875 307.0625 C 633.046875 305.472656 632.414062 303.949219 631.289062 302.828125 C 630.164062 301.703125 628.640625 301.070312 627.050781 301.070312 C 625.460938 301.070312 623.933594 301.703125 622.8125 302.828125 C 621.6875 303.949219 621.054688 305.472656 621.054688 307.0625 C 621.054688 308.652344 621.6875 310.175781 622.8125 311.300781 C 623.933594 312.421875 625.460938 313.054688 627.050781 313.054688 C 628.640625 313.054688 630.164062 312.421875 631.289062 311.300781 C 632.414062 310.175781 633.046875 308.652344 633.046875 307.0625 Z M 633.046875 307.0625 "/>
<path fill-rule="nonzero" fill="rgb(0%, 0%, 0%)" fill-opacity="1" d="M 333.253906 7.488281 C 333.253906 5.898438 332.621094 4.375 331.496094 3.253906 C 330.371094 2.128906 328.847656 1.496094 327.257812 1.496094 C 325.667969 1.496094 324.140625 2.128906 323.015625 3.253906 C 321.890625 4.375 321.261719 5.898438 321.261719 7.488281 C 321.261719 9.078125 321.890625 10.601562 323.015625 11.726562 C 324.140625 12.847656 325.667969 13.480469 327.257812 13.480469 C 328.847656 13.480469 330.371094 12.847656 331.496094 11.726562 C 332.621094 10.601562 333.253906 9.078125 333.253906 7.488281 Z M 333.253906 7.488281 "/>
<path fill="none" stroke-width="0.04" stroke-linecap="butt" stroke-linejoin="miter" stroke="rgb(98.823529%, 38.431373%, 33.333333%)" stroke-opacity="1" stroke-miterlimit="10" d="M -0.187498 -1.419727 C -0.187498 -1.769704 -0.187498 -2.119746 -0.187498 -2.469722 " transform="matrix(59.958879, 0, 0, -59.91469, 338.5, 222)"/>
<path fill-rule="nonzero" fill="rgb(98.823529%, 38.431373%, 33.333333%)" fill-opacity="1" d="M 327.257812 396.933594 C 330.253906 387.949219 333.253906 378.960938 336.25 369.972656 C 330.253906 369.972656 324.257812 369.972656 318.261719 369.972656 C 321.261719 378.960938 324.257812 387.949219 327.257812 396.933594 Z M 327.257812 396.933594 "/>
<path fill-rule="nonzero" fill="rgb(98.823529%, 38.431373%, 33.333333%)" fill-opacity="1" d="M 174.53125 357.207031 C 174.53125 356.199219 174.53125 355.195312 174.53125 354.191406 C 171.367188 354.191406 168.203125 354.191406 165.039062 354.191406 C 165.039062 355.195312 165.039062 356.199219 165.039062 357.207031 C 168.203125 357.207031 171.367188 357.207031 174.53125 357.207031 Z M 174.53125 357.207031 "/>
<path fill-rule="nonzero" fill="rgb(98.823529%, 38.431373%, 33.333333%)" fill-opacity="1" d="M 188.695312 353.164062 C 188.695312 353.394531 188.695312 353.621094 188.695312 353.847656 C 188.695312 356.117188 188.417969 357.953125 187.949219 359.007812 C 187.421875 360.222656 186.082031 361.621094 183.9375 361.621094 C 183.375 361.621094 182.257812 361.558594 181.324219 360.9375 C 181.695312 360.84375 182.847656 360.410156 182.847656 359.007812 C 182.847656 357.953125 182.132812 357.082031 180.917969 357.082031 C 179.703125 357.082031 178.957031 357.890625 178.957031 359.070312 C 178.957031 361.1875 180.546875 362.957031 184 362.957031 C 188.042969 362.957031 192.925781 360.347656 192.925781 352.386719 C 192.925781 350.304688 192.925781 342.253906 185.554688 342.253906 C 181.136719 342.253906 178.054688 344.769531 178.054688 348.9375 C 178.054688 353.226562 181.136719 355.558594 184.964844 355.558594 C 186.050781 355.558594 187.515625 355.339844 188.695312 353.164062 Z M 185.242188 354.4375 C 182.289062 354.4375 182.289062 352.109375 182.289062 349 C 182.289062 345.953125 182.289062 343.464844 185.617188 343.464844 C 187.453125 343.464844 188.167969 345.113281 188.292969 345.421875 C 188.664062 346.449219 188.664062 348.253906 188.664062 349.308594 C 188.664062 351.269531 187.855469 354.4375 185.242188 354.4375 Z M 185.242188 354.4375 "/>
<path fill-rule="nonzero" fill="rgb(98.823529%, 38.431373%, 33.333333%)" fill-opacity="1" d="M 210.535156 355.714844 C 210.050781 355.714844 209.5625 355.714844 209.074219 355.714844 C 208.980469 356.335938 208.703125 358.324219 208.265625 358.542969 C 207.921875 358.730469 205.589844 358.730469 205.09375 358.730469 C 203.566406 358.730469 202.042969 358.730469 200.519531 358.730469 C 201.980469 357.515625 203.597656 356.179688 205 355.15625 C 208.546875 352.542969 210.535156 351.082031 210.535156 348.128906 C 210.535156 344.554688 207.300781 342.253906 202.914062 342.253906 C 199.148438 342.253906 196.226562 344.179688 196.226562 346.976562 C 196.226562 348.8125 197.71875 349.277344 198.464844 349.277344 C 199.460938 349.277344 200.707031 348.59375 200.707031 347.039062 C 200.707031 345.421875 199.398438 344.925781 198.933594 344.800781 C 199.835938 344.054688 201.015625 343.714844 202.136719 343.714844 C 204.8125 343.714844 206.242188 345.828125 206.242188 348.160156 C 206.242188 350.304688 205.0625 352.417969 202.882812 354.625 C 200.796875 356.75 198.714844 358.875 196.628906 361 C 196.226562 361.371094 196.226562 361.433594 196.226562 362.054688 C 196.226562 362.242188 196.226562 362.429688 196.226562 362.617188 C 200.675781 362.617188 205.125 362.617188 209.574219 362.617188 C 209.894531 360.316406 210.214844 358.015625 210.535156 355.714844 Z M 210.535156 355.714844 "/>
<path fill-rule="nonzero" fill="rgb(98.823529%, 38.431373%, 33.333333%)" fill-opacity="1" d="M 218.53125 347.722656 C 218.035156 347.445312 217.164062 346.914062 217.164062 345.859375 C 217.164062 343.683594 219.964844 343.464844 221.207031 343.464844 C 223.820312 343.464844 225.378906 344.738281 225.378906 346.855469 C 225.378906 348.375 224.566406 349.433594 223.199219 350.335938 C 221.644531 349.464844 220.089844 348.59375 218.53125 347.722656 Z M 224.566406 351.113281 C 226.746094 349.992188 227.710938 348.625 227.710938 346.824219 C 227.710938 343.652344 224.878906 342.253906 221.332031 342.253906 C 217.007812 342.253906 214.832031 344.707031 214.832031 347.691406 C 214.832031 349.0625 215.390625 351.019531 217.816406 352.386719 C 215.203125 353.539062 213.835938 355.308594 213.835938 357.609375 C 213.835938 361.371094 217.195312 362.957031 221.207031 362.957031 C 226.1875 362.957031 228.707031 360.222656 228.707031 356.800781 C 228.707031 353.445312 226.09375 351.984375 224.566406 351.113281 Z M 219.25 353.226562 C 220.335938 353.785156 221.800781 354.625 223.511719 355.589844 C 224.878906 356.367188 226.03125 357.019531 226.03125 358.511719 C 226.03125 361.125 223.105469 361.621094 221.332031 361.621094 C 218.285156 361.621094 216.511719 360.035156 216.511719 357.609375 C 216.511719 355.183594 218.160156 353.847656 219.25 353.226562 Z M 219.25 353.226562 "/>
<path fill-rule="nonzero" fill="rgb(98.823529%, 38.431373%, 33.333333%)" fill-opacity="1" d="M 246.316406 355.714844 C 245.828125 355.714844 245.339844 355.714844 244.851562 355.714844 C 244.757812 356.335938 244.480469 358.324219 244.042969 358.542969 C 243.703125 358.730469 241.367188 358.730469 240.871094 358.730469 C 239.347656 358.730469 237.820312 358.730469 236.296875 358.730469 C 237.757812 357.515625 239.378906 356.179688 240.777344 355.15625 C 244.324219 352.542969 246.316406 351.082031 246.316406 348.128906 C 246.316406 344.554688 243.078125 342.253906 238.691406 342.253906 C 234.929688 342.253906 232.003906 344.179688 232.003906 346.976562 C 232.003906 348.8125 233.496094 349.277344 234.242188 349.277344 C 235.238281 349.277344 236.484375 348.59375 236.484375 347.039062 C 236.484375 345.421875 235.175781 344.925781 234.710938 344.800781 C 235.613281 344.054688 236.796875 343.714844 237.914062 343.714844 C 240.589844 343.714844 242.023438 345.828125 242.023438 348.160156 C 242.023438 350.304688 240.839844 352.417969 238.660156 354.625 C 236.578125 356.75 234.492188 358.875 232.410156 361 C 232.003906 361.371094 232.003906 361.433594 232.003906 362.054688 C 232.003906 362.242188 232.003906 362.429688 232.003906 362.617188 C 236.453125 362.617188 240.902344 362.617188 245.351562 362.617188 C 245.671875 360.316406 245.992188 358.015625 246.316406 355.714844 Z M 246.316406 355.714844 "/>
<path fill-rule="nonzero" fill="rgb(98.823529%, 38.431373%, 33.333333%)" fill-opacity="1" d="M 255.492188 360.191406 C 255.492188 358.855469 254.40625 357.765625 253.066406 357.765625 C 251.730469 357.765625 250.640625 358.855469 250.640625 360.191406 C 250.640625 361.527344 251.730469 362.617188 253.066406 362.617188 C 254.40625 362.617188 255.492188 361.527344 255.492188 360.191406 Z M 255.492188 360.191406 "/>
<path fill-rule="nonzero" fill="rgb(98.823529%, 38.431373%, 33.333333%)" fill-opacity="1" d="M 271.902344 357.765625 C 272.910156 357.765625 273.914062 357.765625 274.921875 357.765625 C 274.921875 357.277344 274.921875 356.792969 274.921875 356.304688 C 273.914062 356.304688 272.910156 356.304688 271.902344 356.304688 C 271.902344 351.941406 271.902344 347.578125 271.902344 343.214844 C 271.902344 342.375 271.839844 342.222656 270.96875 342.222656 C 270.316406 342.222656 270.285156 342.253906 269.910156 342.71875 C 266.292969 347.246094 262.671875 351.777344 259.054688 356.304688 C 259.054688 356.792969 259.054688 357.277344 259.054688 357.765625 C 262.039062 357.765625 265.027344 357.765625 268.015625 357.765625 C 268.015625 358.894531 268.015625 360.023438 268.015625 361.15625 C 266.851562 361.15625 265.691406 361.15625 264.53125 361.15625 C 264.53125 361.640625 264.53125 362.128906 264.53125 362.617188 C 265.710938 362.523438 268.542969 362.523438 269.878906 362.523438 C 271.125 362.523438 273.832031 362.523438 274.921875 362.617188 C 274.921875 362.128906 274.921875 361.640625 274.921875 361.15625 C 273.914062 361.15625 272.910156 361.15625 271.902344 361.15625 C 271.902344 360.023438 271.902344 358.894531 271.902344 357.765625 Z M 268.355469 356.304688 C 265.792969 356.304688 263.234375 356.304688 260.671875 356.304688 C 263.234375 353.09375 265.792969 349.878906 268.355469 346.667969 C 268.355469 349.878906 268.355469 353.09375 268.355469 356.304688 Z M 268.355469 356.304688 "/>
<path fill-rule="nonzero" fill="rgb(98.823529%, 38.431373%, 33.333333%)" fill-opacity="1" d="M 282.605469 355.246094 C 282.605469 350.511719 282.605469 345.777344 282.605469 341.039062 C 280.769531 341.121094 278.933594 341.207031 277.097656 341.289062 C 277.097656 341.777344 277.097656 342.261719 277.097656 342.75 C 279.027344 342.75 279.246094 342.75 279.246094 343.960938 C 279.246094 349.691406 279.246094 355.421875 279.246094 361.15625 C 278.53125 361.15625 277.8125 361.15625 277.097656 361.15625 C 277.097656 361.640625 277.097656 362.128906 277.097656 362.617188 C 278.25 362.585938 279.710938 362.523438 280.832031 362.523438 C 281.984375 362.523438 283.476562 362.585938 284.597656 362.617188 C 284.597656 362.128906 284.597656 361.640625 284.597656 361.15625 C 283.882812 361.15625 283.164062 361.15625 282.449219 361.15625 C 282.449219 359.839844 282.449219 358.523438 282.449219 357.207031 C 283.351562 356.492188 283.601562 356.304688 284.222656 355.871094 C 285.269531 357.175781 286.316406 358.480469 287.367188 359.785156 C 287.644531 360.160156 288.144531 360.78125 288.144531 360.875 C 288.144531 361.15625 287.582031 361.15625 287.179688 361.15625 C 287.179688 361.640625 287.179688 362.128906 287.179688 362.617188 C 288.113281 362.554688 290.820312 362.523438 290.972656 362.523438 C 292.09375 362.523438 293.152344 362.554688 294.210938 362.617188 C 294.210938 362.128906 294.210938 361.640625 294.210938 361.15625 C 294.035156 361.15625 293.859375 361.15625 293.679688 361.15625 C 292.34375 361.15625 292.25 361.03125 291.84375 360.53125 C 290.09375 358.347656 288.339844 356.160156 286.585938 353.972656 C 287.9375 352.925781 289.285156 351.878906 290.632812 350.832031 C 291.066406 350.492188 291.347656 350.273438 293.433594 350.273438 C 293.433594 349.785156 293.433594 349.300781 293.433594 348.8125 C 292.59375 348.90625 291.816406 348.90625 291.003906 348.90625 C 290.164062 348.90625 288.144531 348.84375 287.429688 348.8125 C 287.429688 349.300781 287.429688 349.785156 287.429688 350.273438 C 288.144531 350.273438 288.238281 350.367188 288.484375 350.617188 C 286.527344 352.160156 284.566406 353.703125 282.605469 355.246094 Z M 282.605469 355.246094 "/>
<path fill-rule="nonzero" fill="rgb(98.823529%, 38.431373%, 33.333333%)" fill-opacity="1" d="M 304.195312 341.691406 C 303.851562 341.320312 303.820312 341.289062 303.167969 341.289062 C 300.792969 341.289062 298.417969 341.289062 296.042969 341.289062 C 296.042969 341.777344 296.042969 342.261719 296.042969 342.75 C 297.164062 342.75 298.285156 342.75 299.402344 342.75 C 299.402344 348.585938 299.402344 354.417969 299.402344 360.253906 C 299.402344 360.9375 299.371094 360.96875 298.5 361.0625 C 297.753906 361.15625 297.691406 361.15625 296.820312 361.15625 C 296.5625 361.15625 296.304688 361.15625 296.042969 361.15625 C 296.042969 361.640625 296.042969 362.128906 296.042969 362.617188 C 297.226562 362.523438 299 362.523438 300.214844 362.523438 C 301.519531 362.523438 303.136719 362.523438 304.414062 362.617188 C 304.414062 362.128906 304.414062 361.640625 304.414062 361.15625 C 304.152344 361.15625 303.894531 361.15625 303.636719 361.15625 C 303.074219 361.15625 302.546875 361.125 301.984375 361.0625 C 301.085938 360.96875 301.054688 360.9375 301.054688 360.253906 C 301.054688 354.832031 301.054688 349.414062 301.054688 343.992188 C 306.21875 350.066406 311.382812 356.140625 316.546875 362.210938 C 316.859375 362.585938 316.890625 362.617188 317.386719 362.617188 C 318.226562 362.617188 318.226562 362.335938 318.226562 361.621094 C 318.226562 355.632812 318.226562 349.640625 318.226562 343.652344 C 318.226562 342.96875 318.257812 342.9375 319.128906 342.84375 C 319.875 342.75 319.9375 342.75 320.808594 342.75 C 321.066406 342.75 321.328125 342.75 321.585938 342.75 C 321.585938 342.261719 321.585938 341.777344 321.585938 341.289062 C 320.40625 341.382812 318.632812 341.382812 317.417969 341.382812 C 316.109375 341.382812 314.492188 341.382812 313.21875 341.289062 C 313.21875 341.777344 313.21875 342.261719 313.21875 342.75 C 313.476562 342.75 313.734375 342.75 313.996094 342.75 C 314.554688 342.75 315.085938 342.78125 315.644531 342.84375 C 316.546875 342.9375 316.578125 342.96875 316.578125 343.652344 C 316.578125 347.847656 316.578125 352.046875 316.578125 356.242188 C 312.449219 351.390625 308.324219 346.542969 304.195312 341.691406 Z M 304.195312 341.691406 "/>
<path fill="none" stroke-width="0.04" stroke-linecap="butt" stroke-linejoin="miter" stroke="rgb(60.392157%, 44.705882%, 67.45098%)" stroke-opacity="1" stroke-miterlimit="10" d="M -5.18754 -1.419727 C -5.135877 -1.439873 -5.084214 -1.460019 -5.032551 -1.480164 " transform="matrix(59.958879, 0, 0, -59.91469, 338.5, 222)"/>
<path fill="none" stroke-width="0.04" stroke-linecap="butt" stroke-linejoin="miter" stroke="rgb(60.392157%, 44.705882%, 67.45098%)" stroke-opacity="1" stroke-miterlimit="10" d="M -4.86792 -1.544318 C -4.816257 -1.564464 -4.764594 -1.58461 -4.712996 -1.604756 " transform="matrix(59.958879, 0, 0, -59.91469, 338.5, 222)"/>
<path fill="none" stroke-width="0.04" stroke-linecap="butt" stroke-linejoin="miter" stroke="rgb(60.392157%, 44.705882%, 67.45098%)" stroke-opacity="1" stroke-miterlimit="10" d="M -4.5483 -1.668975 C -4.496702 -1.68912 -4.445039 -1.709266 -4.393376 -1.729347 " transform="matrix(59.958879, 0, 0, -59.91469, 338.5, 222)"/>
<path fill="none" stroke-width="0.04" stroke-linecap="butt" stroke-linejoin="miter" stroke="rgb(60.392157%, 44.705882%, 67.45098%)" stroke-opacity="1" stroke-miterlimit="10" d="M -4.228745 -1.793566 C -4.177082 -1.813712 -4.125419 -1.833857 -4.073756 -1.854003 " transform="matrix(59.958879, 0, 0, -59.91469, 338.5, 222)"/>
<path fill="none" stroke-width="0.04" stroke-linecap="butt" stroke-linejoin="miter" stroke="rgb(60.392157%, 44.705882%, 67.45098%)" stroke-opacity="1" stroke-miterlimit="10" d="M -3.909124 -1.918157 C -3.857461 -1.938303 -3.805864 -1.958449 -3.754201 -1.978594 " transform="matrix(59.958879, 0, 0, -59.91469, 338.5, 222)"/>
<path fill="none" stroke-width="0.04" stroke-linecap="butt" stroke-linejoin="miter" stroke="rgb(60.392157%, 44.705882%, 67.45098%)" stroke-opacity="1" stroke-miterlimit="10" d="M -3.58957 -2.042813 C -3.537907 -2.062959 -3.486243 -2.083105 -3.43458 -2.103186 " transform="matrix(59.958879, 0, 0, -59.91469, 338.5, 222)"/>
<path fill="none" stroke-width="0.04" stroke-linecap="butt" stroke-linejoin="miter" stroke="rgb(60.392157%, 44.705882%, 67.45098%)" stroke-opacity="1" stroke-miterlimit="10" d="M -3.269949 -2.167405 C -3.218286 -2.18755 -3.166623 -2.207696 -3.11496 -2.227842 " transform="matrix(59.958879, 0, 0, -59.91469, 338.5, 222)"/>
<path fill="none" stroke-width="0.04" stroke-linecap="butt" stroke-linejoin="miter" stroke="rgb(60.392157%, 44.705882%, 67.45098%)" stroke-opacity="1" stroke-miterlimit="10" d="M -2.950329 -2.291996 C -2.898666 -2.312142 -2.847068 -2.332287 -2.795405 -2.352433 " transform="matrix(59.958879, 0, 0, -59.91469, 338.5, 222)"/>
<path fill="none" stroke-width="0.04" stroke-linecap="butt" stroke-linejoin="miter" stroke="rgb(60.392157%, 44.705882%, 67.45098%)" stroke-opacity="1" stroke-miterlimit="10" d="M -2.630774 -2.416652 C -2.579111 -2.436798 -2.527448 -2.456879 -2.475785 -2.477025 " transform="matrix(59.958879, 0, 0, -59.91469, 338.5, 222)"/>
<path fill="none" stroke-width="0.04" stroke-linecap="butt" stroke-linejoin="miter" stroke="rgb(60.392157%, 44.705882%, 67.45098%)" stroke-opacity="1" stroke-miterlimit="10" d="M -2.311154 -2.541243 C -2.259491 -2.561389 -2.207828 -2.581535 -2.15623 -2.601681 " transform="matrix(59.958879, 0, 0, -59.91469, 338.5, 222)"/>
<path fill="none" stroke-width="0.04" stroke-linecap="butt" stroke-linejoin="miter" stroke="rgb(60.392157%, 44.705882%, 67.45098%)" stroke-opacity="1" stroke-miterlimit="10" d="M -1.991534 -2.665835 C -1.939936 -2.68598 -1.888273 -2.706126 -1.83661 -2.726272 " transform="matrix(59.958879, 0, 0, -59.91469, 338.5, 222)"/>
<path fill="none" stroke-width="0.04" stroke-linecap="butt" stroke-linejoin="miter" stroke="rgb(60.392157%, 44.705882%, 67.45098%)" stroke-opacity="1" stroke-miterlimit="10" d="M -1.671979 -2.790491 C -1.620316 -2.810637 -1.568653 -2.830718 -1.51699 -2.850863 " transform="matrix(59.958879, 0, 0, -59.91469, 338.5, 222)"/>
<path fill="none" stroke-width="0.04" stroke-linecap="butt" stroke-linejoin="miter" stroke="rgb(60.392157%, 44.705882%, 67.45098%)" stroke-opacity="1" stroke-miterlimit="10" d="M -1.352359 -2.915082 C -1.300696 -2.935228 -1.249033 -2.955374 -1.197435 -2.97552 " transform="matrix(59.958879, 0, 0, -59.91469, 338.5, 222)"/>
<path fill="none" stroke-width="0.04" stroke-linecap="butt" stroke-linejoin="miter" stroke="rgb(60.392157%, 44.705882%, 67.45098%)" stroke-opacity="1" stroke-miterlimit="10" d="M -1.032804 -3.039673 C -0.981141 -3.059819 -0.929478 -3.079965 -0.877815 -3.100111 " transform="matrix(59.958879, 0, 0, -59.91469, 338.5, 222)"/>
<path fill="none" stroke-width="0.04" stroke-linecap="butt" stroke-linejoin="miter" stroke="rgb(60.392157%, 44.705882%, 67.45098%)" stroke-opacity="1" stroke-miterlimit="10" d="M -0.713184 -3.16433 C -0.661521 -3.184476 -0.609858 -3.204556 -0.558195 -3.224702 " transform="matrix(59.958879, 0, 0, -59.91469, 338.5, 222)"/>
<path fill="none" stroke-width="0.04" stroke-linecap="butt" stroke-linejoin="miter" stroke="rgb(60.392157%, 44.705882%, 67.45098%)" stroke-opacity="1" stroke-miterlimit="10" d="M -0.393564 -3.288921 C -0.341901 -3.309067 -0.290303 -3.329213 -0.23864 -3.349359 " transform="matrix(59.958879, 0, 0, -59.91469, 338.5, 222)"/>
<path fill="none" stroke-width="0.04" stroke-linecap="butt" stroke-linejoin="miter" stroke="rgb(60.392157%, 44.705882%, 67.45098%)" stroke-opacity="1" stroke-miterlimit="10" d="M -0.0740091 -3.413512 C -0.022346 -3.433658 0.029317 -3.453804 0.08098 -3.47395 " transform="matrix(59.958879, 0, 0, -59.91469, 338.5, 222)"/>
<path fill="none" stroke-width="0.04" stroke-linecap="butt" stroke-linejoin="miter" stroke="rgb(60.392157%, 44.705882%, 67.45098%)" stroke-opacity="1" stroke-miterlimit="10" d="M 0.08098 -3.47395 C 0.134207 -3.453804 0.187368 -3.433658 0.240595 -3.413512 " transform="matrix(59.958879, 0, 0, -59.91469, 338.5, 222)"/>
<path fill="none" stroke-width="0.04" stroke-linecap="butt" stroke-linejoin="miter" stroke="rgb(60.392157%, 44.705882%, 67.45098%)" stroke-opacity="1" stroke-miterlimit="10" d="M 0.410242 -3.349359 C 0.463404 -3.329213 0.51663 -3.309067 0.569857 -3.288921 " transform="matrix(59.958879, 0, 0, -59.91469, 338.5, 222)"/>
<path fill="none" stroke-width="0.04" stroke-linecap="butt" stroke-linejoin="miter" stroke="rgb(60.392157%, 44.705882%, 67.45098%)" stroke-opacity="1" stroke-miterlimit="10" d="M 0.739439 -3.224702 C 0.792666 -3.204556 0.845892 -3.184476 0.899054 -3.16433 " transform="matrix(59.958879, 0, 0, -59.91469, 338.5, 222)"/>
<path fill="none" stroke-width="0.04" stroke-linecap="butt" stroke-linejoin="miter" stroke="rgb(60.392157%, 44.705882%, 67.45098%)" stroke-opacity="1" stroke-miterlimit="10" d="M 1.068701 -3.100111 C 1.121928 -3.079965 1.175089 -3.059819 1.228316 -3.039673 " transform="matrix(59.958879, 0, 0, -59.91469, 338.5, 222)"/>
<path fill="none" stroke-width="0.04" stroke-linecap="butt" stroke-linejoin="miter" stroke="rgb(60.392157%, 44.705882%, 67.45098%)" stroke-opacity="1" stroke-miterlimit="10" d="M 1.397963 -2.97552 C 1.451125 -2.955374 1.504351 -2.935228 1.557578 -2.915082 " transform="matrix(59.958879, 0, 0, -59.91469, 338.5, 222)"/>
<path fill="none" stroke-width="0.04" stroke-linecap="butt" stroke-linejoin="miter" stroke="rgb(60.392157%, 44.705882%, 67.45098%)" stroke-opacity="1" stroke-miterlimit="10" d="M 1.72716 -2.850863 C 1.780387 -2.830718 1.833613 -2.810637 1.88684 -2.790491 " transform="matrix(59.958879, 0, 0, -59.91469, 338.5, 222)"/>
<path fill="none" stroke-width="0.04" stroke-linecap="butt" stroke-linejoin="miter" stroke="rgb(60.392157%, 44.705882%, 67.45098%)" stroke-opacity="1" stroke-miterlimit="10" d="M 2.056422 -2.726272 C 2.109649 -2.706126 2.16281 -2.68598 2.216037 -2.665835 " transform="matrix(59.958879, 0, 0, -59.91469, 338.5, 222)"/>
<path fill="none" stroke-width="0.04" stroke-linecap="butt" stroke-linejoin="miter" stroke="rgb(60.392157%, 44.705882%, 67.45098%)" stroke-opacity="1" stroke-miterlimit="10" d="M 2.385685 -2.601681 C 2.438846 -2.581535 2.492073 -2.561389 2.545299 -2.541243 " transform="matrix(59.958879, 0, 0, -59.91469, 338.5, 222)"/>
<path fill="none" stroke-width="0.04" stroke-linecap="butt" stroke-linejoin="miter" stroke="rgb(60.392157%, 44.705882%, 67.45098%)" stroke-opacity="1" stroke-miterlimit="10" d="M 2.714881 -2.477025 C 2.768108 -2.456879 2.821335 -2.436798 2.874561 -2.416652 " transform="matrix(59.958879, 0, 0, -59.91469, 338.5, 222)"/>
<path fill="none" stroke-width="0.04" stroke-linecap="butt" stroke-linejoin="miter" stroke="rgb(60.392157%, 44.705882%, 67.45098%)" stroke-opacity="1" stroke-miterlimit="10" d="M 3.044144 -2.352433 C 3.09737 -2.332287 3.150532 -2.312142 3.203758 -2.291996 " transform="matrix(59.958879, 0, 0, -59.91469, 338.5, 222)"/>
<path fill="none" stroke-width="0.04" stroke-linecap="butt" stroke-linejoin="miter" stroke="rgb(60.392157%, 44.705882%, 67.45098%)" stroke-opacity="1" stroke-miterlimit="10" d="M 3.373406 -2.227842 C 3.426567 -2.207696 3.479794 -2.18755 3.53302 -2.167405 " transform="matrix(59.958879, 0, 0, -59.91469, 338.5, 222)"/>
<path fill="none" stroke-width="0.04" stroke-linecap="butt" stroke-linejoin="miter" stroke="rgb(60.392157%, 44.705882%, 67.45098%)" stroke-opacity="1" stroke-miterlimit="10" d="M 3.702603 -2.103186 C 3.755829 -2.083105 3.809056 -2.062959 3.862282 -2.042813 " transform="matrix(59.958879, 0, 0, -59.91469, 338.5, 222)"/>
<path fill="none" stroke-width="0.04" stroke-linecap="butt" stroke-linejoin="miter" stroke="rgb(60.392157%, 44.705882%, 67.45098%)" stroke-opacity="1" stroke-miterlimit="10" d="M 4.031865 -1.978594 C 4.085091 -1.958449 4.138253 -1.938303 4.191479 -1.918157 " transform="matrix(59.958879, 0, 0, -59.91469, 338.5, 222)"/>
<path fill="none" stroke-width="0.04" stroke-linecap="butt" stroke-linejoin="miter" stroke="rgb(60.392157%, 44.705882%, 67.45098%)" stroke-opacity="1" stroke-miterlimit="10" d="M 4.361127 -1.854003 C 4.414288 -1.833857 4.467515 -1.813712 4.520742 -1.793566 " transform="matrix(59.958879, 0, 0, -59.91469, 338.5, 222)"/>
<path fill="none" stroke-width="0.04" stroke-linecap="butt" stroke-linejoin="miter" stroke="rgb(60.392157%, 44.705882%, 67.45098%)" stroke-opacity="1" stroke-miterlimit="10" d="M 4.690324 -1.729347 C 4.743551 -1.709266 4.796777 -1.68912 4.850004 -1.668975 " transform="matrix(59.958879, 0, 0, -59.91469, 338.5, 222)"/>
<path fill="none" stroke-width="0.04" stroke-linecap="butt" stroke-linejoin="miter" stroke="rgb(60.392157%, 44.705882%, 67.45098%)" stroke-opacity="1" stroke-miterlimit="10" d="M 5.019586 -1.604756 C 5.072813 -1.58461 5.126039 -1.564464 5.179201 -1.544318 " transform="matrix(59.958879, 0, 0, -59.91469, 338.5, 222)"/>
<path fill="none" stroke-width="0.04" stroke-linecap="butt" stroke-linejoin="miter" stroke="rgb(60.392157%, 44.705882%, 67.45098%)" stroke-opacity="1" stroke-miterlimit="10" d="M 5.348848 -1.480164 C 5.40201 -1.460019 5.455236 -1.439873 5.508463 -1.419727 " transform="matrix(59.958879, 0, 0, -59.91469, 338.5, 222)"/>
<path fill="none" stroke-width="0.04" stroke-linecap="butt" stroke-linejoin="miter" stroke="rgb(60.392157%, 44.705882%, 67.45098%)" stroke-opacity="1" stroke-miterlimit="10" d="M 5.508463 -1.419727 C 5.471458 -1.391692 5.434454 -1.363658 5.397449 -1.335623 " transform="matrix(59.958879, 0, 0, -59.91469, 338.5, 222)"/>
<path fill="none" stroke-width="0.04" stroke-linecap="butt" stroke-linejoin="miter" stroke="rgb(60.392157%, 44.705882%, 67.45098%)" stroke-opacity="1" stroke-miterlimit="10" d="M 5.281615 -1.247933 C 5.24461 -1.219899 5.207606 -1.191864 5.170601 -1.163829 " transform="matrix(59.958879, 0, 0, -59.91469, 338.5, 222)"/>
<path fill="none" stroke-width="0.04" stroke-linecap="butt" stroke-linejoin="miter" stroke="rgb(60.392157%, 44.705882%, 67.45098%)" stroke-opacity="1" stroke-miterlimit="10" d="M 5.054766 -1.076074 C 5.017762 -1.04804 4.980757 -1.020005 4.943753 -0.99197 " transform="matrix(59.958879, 0, 0, -59.91469, 338.5, 222)"/>
<path fill="none" stroke-width="0.04" stroke-linecap="butt" stroke-linejoin="miter" stroke="rgb(60.392157%, 44.705882%, 67.45098%)" stroke-opacity="1" stroke-miterlimit="10" d="M 4.827918 -0.904281 C 4.790914 -0.876246 4.753909 -0.848211 4.716905 -0.820177 " transform="matrix(59.958879, 0, 0, -59.91469, 338.5, 222)"/>
<path fill="none" stroke-width="0.04" stroke-linecap="butt" stroke-linejoin="miter" stroke="rgb(60.392157%, 44.705882%, 67.45098%)" stroke-opacity="1" stroke-miterlimit="10" d="M 4.60107 -0.732422 C 4.564066 -0.704387 4.527061 -0.676352 4.490056 -0.648318 " transform="matrix(59.958879, 0, 0, -59.91469, 338.5, 222)"/>
<path fill="none" stroke-width="0.04" stroke-linecap="butt" stroke-linejoin="miter" stroke="rgb(60.392157%, 44.705882%, 67.45098%)" stroke-opacity="1" stroke-miterlimit="10" d="M 4.374222 -0.560628 C 4.337217 -0.532593 4.300213 -0.504559 4.263208 -0.476524 " transform="matrix(59.958879, 0, 0, -59.91469, 338.5, 222)"/>
<path fill="none" stroke-width="0.04" stroke-linecap="butt" stroke-linejoin="miter" stroke="rgb(60.392157%, 44.705882%, 67.45098%)" stroke-opacity="1" stroke-miterlimit="10" d="M 4.147374 -0.388769 C 4.110369 -0.360734 4.073365 -0.3327 4.03636 -0.304665 " transform="matrix(59.958879, 0, 0, -59.91469, 338.5, 222)"/>
<path fill="none" stroke-width="0.04" stroke-linecap="butt" stroke-linejoin="miter" stroke="rgb(60.392157%, 44.705882%, 67.45098%)" stroke-opacity="1" stroke-miterlimit="10" d="M 3.920526 -0.216975 C 3.883521 -0.188941 3.846516 -0.160906 3.809512 -0.132871 " transform="matrix(59.958879, 0, 0, -59.91469, 338.5, 222)"/>
<path fill="none" stroke-width="0.04" stroke-linecap="butt" stroke-linejoin="miter" stroke="rgb(60.392157%, 44.705882%, 67.45098%)" stroke-opacity="1" stroke-miterlimit="10" d="M 3.693677 -0.0451162 C 3.656673 -0.0170816 3.619668 0.0109531 3.582664 0.0389877 " transform="matrix(59.958879, 0, 0, -59.91469, 338.5, 222)"/>
<path fill="none" stroke-width="0.04" stroke-linecap="butt" stroke-linejoin="miter" stroke="rgb(60.392157%, 44.705882%, 67.45098%)" stroke-opacity="1" stroke-miterlimit="10" d="M 3.466764 0.126678 C 3.429759 0.154712 3.39282 0.182747 3.355816 0.210781 " transform="matrix(59.958879, 0, 0, -59.91469, 338.5, 222)"/>
<path fill="none" stroke-width="0.04" stroke-linecap="butt" stroke-linejoin="miter" stroke="rgb(60.392157%, 44.705882%, 67.45098%)" stroke-opacity="1" stroke-miterlimit="10" d="M 3.239916 0.298536 C 3.202911 0.326571 3.165907 0.354606 3.128902 0.38264 " transform="matrix(59.958879, 0, 0, -59.91469, 338.5, 222)"/>
<path fill="none" stroke-width="0.04" stroke-linecap="butt" stroke-linejoin="miter" stroke="rgb(60.392157%, 44.705882%, 67.45098%)" stroke-opacity="1" stroke-miterlimit="10" d="M 3.013068 0.47033 C 2.976063 0.498365 2.939059 0.526399 2.902054 0.554434 " transform="matrix(59.958879, 0, 0, -59.91469, 338.5, 222)"/>
<path fill="none" stroke-width="0.04" stroke-linecap="butt" stroke-linejoin="miter" stroke="rgb(60.392157%, 44.705882%, 67.45098%)" stroke-opacity="1" stroke-miterlimit="10" d="M 2.786219 0.642189 C 2.749215 0.670224 2.71221 0.698258 2.675206 0.726293 " transform="matrix(59.958879, 0, 0, -59.91469, 338.5, 222)"/>
<path fill="none" stroke-width="0.04" stroke-linecap="butt" stroke-linejoin="miter" stroke="rgb(60.392157%, 44.705882%, 67.45098%)" stroke-opacity="1" stroke-miterlimit="10" d="M 2.559371 0.813983 C 2.522367 0.842018 2.485362 0.870052 2.448358 0.898087 " transform="matrix(59.958879, 0, 0, -59.91469, 338.5, 222)"/>
<path fill="none" stroke-width="0.04" stroke-linecap="butt" stroke-linejoin="miter" stroke="rgb(60.392157%, 44.705882%, 67.45098%)" stroke-opacity="1" stroke-miterlimit="10" d="M 2.332523 0.985842 C 2.295519 1.013876 2.258514 1.041911 2.22151 1.069946 " transform="matrix(59.958879, 0, 0, -59.91469, 338.5, 222)"/>
<path fill="none" stroke-width="0.04" stroke-linecap="butt" stroke-linejoin="miter" stroke="rgb(60.392157%, 44.705882%, 67.45098%)" stroke-opacity="1" stroke-miterlimit="10" d="M 2.105675 1.157636 C 2.06867 1.18567 2.031666 1.213705 1.994661 1.241739 " transform="matrix(59.958879, 0, 0, -59.91469, 338.5, 222)"/>
<path fill="none" stroke-width="0.04" stroke-linecap="butt" stroke-linejoin="miter" stroke="rgb(60.392157%, 44.705882%, 67.45098%)" stroke-opacity="1" stroke-miterlimit="10" d="M 1.878827 1.329494 C 1.841822 1.357529 1.804818 1.385564 1.767813 1.413533 " transform="matrix(59.958879, 0, 0, -59.91469, 338.5, 222)"/>
<path fill="none" stroke-width="0.04" stroke-linecap="butt" stroke-linejoin="miter" stroke="rgb(60.392157%, 44.705882%, 67.45098%)" stroke-opacity="1" stroke-miterlimit="10" d="M 1.651979 1.501288 C 1.614974 1.529323 1.577969 1.557358 1.540965 1.585392 " transform="matrix(59.958879, 0, 0, -59.91469, 338.5, 222)"/>
<path fill="none" stroke-width="0.04" stroke-linecap="butt" stroke-linejoin="miter" stroke="rgb(60.392157%, 44.705882%, 67.45098%)" stroke-opacity="1" stroke-miterlimit="10" d="M 1.42513 1.673147 C 1.388126 1.701182 1.351121 1.729216 1.314117 1.757186 " transform="matrix(59.958879, 0, 0, -59.91469, 338.5, 222)"/>
<path fill="none" stroke-width="0.04" stroke-linecap="butt" stroke-linejoin="miter" stroke="rgb(60.392157%, 44.705882%, 67.45098%)" stroke-opacity="1" stroke-miterlimit="10" d="M 1.198282 1.844941 C 1.161278 1.872976 1.124273 1.90101 1.087269 1.929045 " transform="matrix(59.958879, 0, 0, -59.91469, 338.5, 222)"/>
<path fill="none" stroke-width="0.04" stroke-linecap="butt" stroke-linejoin="miter" stroke="rgb(60.392157%, 44.705882%, 67.45098%)" stroke-opacity="1" stroke-miterlimit="10" d="M 0.971434 2.0168 C 0.934429 2.044834 0.897425 2.072869 0.86042 2.100839 " transform="matrix(59.958879, 0, 0, -59.91469, 338.5, 222)"/>
<path fill="none" stroke-width="0.04" stroke-linecap="butt" stroke-linejoin="miter" stroke="rgb(60.392157%, 44.705882%, 67.45098%)" stroke-opacity="1" stroke-miterlimit="10" d="M 0.744586 2.188594 C 0.707581 2.216628 0.670577 2.244663 0.633572 2.272698 " transform="matrix(59.958879, 0, 0, -59.91469, 338.5, 222)"/>
<path fill="none" stroke-width="0.04" stroke-linecap="butt" stroke-linejoin="miter" stroke="rgb(60.392157%, 44.705882%, 67.45098%)" stroke-opacity="1" stroke-miterlimit="10" d="M 0.517738 2.360453 C 0.480733 2.388487 0.443729 2.416522 0.406724 2.444491 " transform="matrix(59.958879, 0, 0, -59.91469, 338.5, 222)"/>
<path fill="none" stroke-width="0.04" stroke-linecap="butt" stroke-linejoin="miter" stroke="rgb(60.392157%, 44.705882%, 67.45098%)" stroke-opacity="1" stroke-miterlimit="10" d="M 0.290889 2.532246 C 0.253885 2.560281 0.21688 2.588316 0.179876 2.61635 " transform="matrix(59.958879, 0, 0, -59.91469, 338.5, 222)"/>
<path fill="none" stroke-width="0.04" stroke-linecap="butt" stroke-linejoin="miter" stroke="rgb(60.392157%, 44.705882%, 67.45098%)" stroke-opacity="1" stroke-miterlimit="10" d="M 0.179876 2.61635 C 0.142611 2.588316 0.105346 2.560281 0.0680154 2.532246 " transform="matrix(59.958879, 0, 0, -59.91469, 338.5, 222)"/>
<path fill="none" stroke-width="0.04" stroke-linecap="butt" stroke-linejoin="miter" stroke="rgb(60.392157%, 44.705882%, 67.45098%)" stroke-opacity="1" stroke-miterlimit="10" d="M -0.0486662 2.444491 C -0.0859313 2.416522 -0.123196 2.388487 -0.160462 2.360453 " transform="matrix(59.958879, 0, 0, -59.91469, 338.5, 222)"/>
<path fill="none" stroke-width="0.04" stroke-linecap="butt" stroke-linejoin="miter" stroke="rgb(60.392157%, 44.705882%, 67.45098%)" stroke-opacity="1" stroke-miterlimit="10" d="M -0.277143 2.272698 C -0.314408 2.244663 -0.351673 2.216628 -0.388938 2.188594 " transform="matrix(59.958879, 0, 0, -59.91469, 338.5, 222)"/>
<path fill="none" stroke-width="0.04" stroke-linecap="butt" stroke-linejoin="miter" stroke="rgb(60.392157%, 44.705882%, 67.45098%)" stroke-opacity="1" stroke-miterlimit="10" d="M -0.50562 2.100839 C -0.54295 2.072869 -0.580215 2.044834 -0.61748 2.0168 " transform="matrix(59.958879, 0, 0, -59.91469, 338.5, 222)"/>
<path fill="none" stroke-width="0.04" stroke-linecap="butt" stroke-linejoin="miter" stroke="rgb(60.392157%, 44.705882%, 67.45098%)" stroke-opacity="1" stroke-miterlimit="10" d="M -0.734162 1.929045 C -0.771427 1.90101 -0.808692 1.872976 -0.845957 1.844941 " transform="matrix(59.958879, 0, 0, -59.91469, 338.5, 222)"/>
<path fill="none" stroke-width="0.04" stroke-linecap="butt" stroke-linejoin="miter" stroke="rgb(60.392157%, 44.705882%, 67.45098%)" stroke-opacity="1" stroke-miterlimit="10" d="M -0.962639 1.757186 C -0.999904 1.729216 -1.037169 1.701182 -1.074499 1.673147 " transform="matrix(59.958879, 0, 0, -59.91469, 338.5, 222)"/>
<path fill="none" stroke-width="0.04" stroke-linecap="butt" stroke-linejoin="miter" stroke="rgb(60.392157%, 44.705882%, 67.45098%)" stroke-opacity="1" stroke-miterlimit="10" d="M -1.191181 1.585392 C -1.228446 1.557358 -1.265711 1.529323 -1.302976 1.501288 " transform="matrix(59.958879, 0, 0, -59.91469, 338.5, 222)"/>
<path fill="none" stroke-width="0.04" stroke-linecap="butt" stroke-linejoin="miter" stroke="rgb(60.392157%, 44.705882%, 67.45098%)" stroke-opacity="1" stroke-miterlimit="10" d="M -1.419658 1.413533 C -1.456923 1.385564 -1.494188 1.357529 -1.531453 1.329494 " transform="matrix(59.958879, 0, 0, -59.91469, 338.5, 222)"/>
<path fill="none" stroke-width="0.04" stroke-linecap="butt" stroke-linejoin="miter" stroke="rgb(60.392157%, 44.705882%, 67.45098%)" stroke-opacity="1" stroke-miterlimit="10" d="M -1.648135 1.241739 C -1.685465 1.213705 -1.72273 1.18567 -1.759995 1.157636 " transform="matrix(59.958879, 0, 0, -59.91469, 338.5, 222)"/>
<path fill="none" stroke-width="0.04" stroke-linecap="butt" stroke-linejoin="miter" stroke="rgb(60.392157%, 44.705882%, 67.45098%)" stroke-opacity="1" stroke-miterlimit="10" d="M -1.876677 1.069946 C -1.913942 1.041911 -1.951207 1.013876 -1.988472 0.985842 " transform="matrix(59.958879, 0, 0, -59.91469, 338.5, 222)"/>
<path fill="none" stroke-width="0.04" stroke-linecap="butt" stroke-linejoin="miter" stroke="rgb(60.392157%, 44.705882%, 67.45098%)" stroke-opacity="1" stroke-miterlimit="10" d="M -2.105154 0.898087 C -2.142419 0.870052 -2.179684 0.842018 -2.217014 0.813983 " transform="matrix(59.958879, 0, 0, -59.91469, 338.5, 222)"/>
<path fill="none" stroke-width="0.04" stroke-linecap="butt" stroke-linejoin="miter" stroke="rgb(60.392157%, 44.705882%, 67.45098%)" stroke-opacity="1" stroke-miterlimit="10" d="M -2.333696 0.726293 C -2.370961 0.698258 -2.408226 0.670224 -2.445491 0.642189 " transform="matrix(59.958879, 0, 0, -59.91469, 338.5, 222)"/>
<path fill="none" stroke-width="0.04" stroke-linecap="butt" stroke-linejoin="miter" stroke="rgb(60.392157%, 44.705882%, 67.45098%)" stroke-opacity="1" stroke-miterlimit="10" d="M -2.562173 0.554434 C -2.599438 0.526399 -2.636703 0.498365 -2.673968 0.47033 " transform="matrix(59.958879, 0, 0, -59.91469, 338.5, 222)"/>
<path fill="none" stroke-width="0.04" stroke-linecap="butt" stroke-linejoin="miter" stroke="rgb(60.392157%, 44.705882%, 67.45098%)" stroke-opacity="1" stroke-miterlimit="10" d="M -2.79065 0.38264 C -2.82798 0.354606 -2.865245 0.326571 -2.90251 0.298536 " transform="matrix(59.958879, 0, 0, -59.91469, 338.5, 222)"/>
<path fill="none" stroke-width="0.04" stroke-linecap="butt" stroke-linejoin="miter" stroke="rgb(60.392157%, 44.705882%, 67.45098%)" stroke-opacity="1" stroke-miterlimit="10" d="M -3.019192 0.210781 C -3.056457 0.182747 -3.093722 0.154712 -3.130987 0.126678 " transform="matrix(59.958879, 0, 0, -59.91469, 338.5, 222)"/>
<path fill="none" stroke-width="0.04" stroke-linecap="butt" stroke-linejoin="miter" stroke="rgb(60.392157%, 44.705882%, 67.45098%)" stroke-opacity="1" stroke-miterlimit="10" d="M -3.247669 0.0389877 C -3.284934 0.0109531 -3.322199 -0.0170816 -3.359529 -0.0451162 " transform="matrix(59.958879, 0, 0, -59.91469, 338.5, 222)"/>
<path fill="none" stroke-width="0.04" stroke-linecap="butt" stroke-linejoin="miter" stroke="rgb(60.392157%, 44.705882%, 67.45098%)" stroke-opacity="1" stroke-miterlimit="10" d="M -3.476211 -0.132871 C -3.513476 -0.160906 -3.550741 -0.188941 -3.588006 -0.216975 " transform="matrix(59.958879, 0, 0, -59.91469, 338.5, 222)"/>
<path fill="none" stroke-width="0.04" stroke-linecap="butt" stroke-linejoin="miter" stroke="rgb(60.392157%, 44.705882%, 67.45098%)" stroke-opacity="1" stroke-miterlimit="10" d="M -3.704687 -0.304665 C -3.741953 -0.3327 -3.779218 -0.360734 -3.816483 -0.388769 " transform="matrix(59.958879, 0, 0, -59.91469, 338.5, 222)"/>
<path fill="none" stroke-width="0.04" stroke-linecap="butt" stroke-linejoin="miter" stroke="rgb(60.392157%, 44.705882%, 67.45098%)" stroke-opacity="1" stroke-miterlimit="10" d="M -3.933164 -0.476524 C -3.970495 -0.504559 -4.00776 -0.532593 -4.045025 -0.560628 " transform="matrix(59.958879, 0, 0, -59.91469, 338.5, 222)"/>
<path fill="none" stroke-width="0.04" stroke-linecap="butt" stroke-linejoin="miter" stroke="rgb(60.392157%, 44.705882%, 67.45098%)" stroke-opacity="1" stroke-miterlimit="10" d="M -4.161706 -0.648318 C -4.198972 -0.676352 -4.236237 -0.704387 -4.273502 -0.732422 " transform="matrix(59.958879, 0, 0, -59.91469, 338.5, 222)"/>
<path fill="none" stroke-width="0.04" stroke-linecap="butt" stroke-linejoin="miter" stroke="rgb(60.392157%, 44.705882%, 67.45098%)" stroke-opacity="1" stroke-miterlimit="10" d="M -4.390183 -0.820177 C -4.427448 -0.848211 -4.464714 -0.876246 -4.502044 -0.904281 " transform="matrix(59.958879, 0, 0, -59.91469, 338.5, 222)"/>
<path fill="none" stroke-width="0.04" stroke-linecap="butt" stroke-linejoin="miter" stroke="rgb(60.392157%, 44.705882%, 67.45098%)" stroke-opacity="1" stroke-miterlimit="10" d="M -4.618725 -0.99197 C -4.65599 -1.020005 -4.693256 -1.04804 -4.730521 -1.076074 " transform="matrix(59.958879, 0, 0, -59.91469, 338.5, 222)"/>
<path fill="none" stroke-width="0.04" stroke-linecap="butt" stroke-linejoin="miter" stroke="rgb(60.392157%, 44.705882%, 67.45098%)" stroke-opacity="1" stroke-miterlimit="10" d="M -4.847202 -1.163829 C -4.884467 -1.191864 -4.921733 -1.219899 -4.958998 -1.247933 " transform="matrix(59.958879, 0, 0, -59.91469, 338.5, 222)"/>
<path fill="none" stroke-width="0.04" stroke-linecap="butt" stroke-linejoin="miter" stroke="rgb(60.392157%, 44.705882%, 67.45098%)" stroke-opacity="1" stroke-miterlimit="10" d="M -5.075679 -1.335623 C -5.112944 -1.363658 -5.150275 -1.391692 -5.18754 -1.419727 " transform="matrix(59.958879, 0, 0, -59.91469, 338.5, 222)"/>
<path fill="none" stroke-width="0.04" stroke-linecap="butt" stroke-linejoin="miter" stroke="rgb(60.392157%, 44.705882%, 67.45098%)" stroke-opacity="1" stroke-miterlimit="10" d="M 0.08098 -3.47395 C 0.0819572 -3.414229 0.0829344 -3.354509 0.0839117 -3.294854 " transform="matrix(59.958879, 0, 0, -59.91469, 338.5, 222)"/>
<path fill="none" stroke-width="0.04" stroke-linecap="butt" stroke-linejoin="miter" stroke="rgb(60.392157%, 44.705882%, 67.45098%)" stroke-opacity="1" stroke-miterlimit="10" d="M 0.0869737 -3.104479 C 0.0879509 -3.044824 0.0889281 -2.985104 0.0899054 -2.925383 " transform="matrix(59.958879, 0, 0, -59.91469, 338.5, 222)"/>
<path fill="none" stroke-width="0.04" stroke-linecap="butt" stroke-linejoin="miter" stroke="rgb(60.392157%, 44.705882%, 67.45098%)" stroke-opacity="1" stroke-miterlimit="10" d="M 0.0929674 -2.735074 C 0.0939446 -2.675353 0.0949218 -2.615633 0.0958991 -2.555913 " transform="matrix(59.958879, 0, 0, -59.91469, 338.5, 222)"/>
<path fill="none" stroke-width="0.04" stroke-linecap="butt" stroke-linejoin="miter" stroke="rgb(60.392157%, 44.705882%, 67.45098%)" stroke-opacity="1" stroke-miterlimit="10" d="M 0.0989611 -2.365603 C 0.0999383 -2.305883 0.100916 -2.246162 0.101893 -2.186507 " transform="matrix(59.958879, 0, 0, -59.91469, 338.5, 222)"/>
<path fill="none" stroke-width="0.04" stroke-linecap="butt" stroke-linejoin="miter" stroke="rgb(60.392157%, 44.705882%, 67.45098%)" stroke-opacity="1" stroke-miterlimit="10" d="M 0.104955 -1.996132 C 0.105932 -1.936477 0.106909 -1.876757 0.107886 -1.817037 " transform="matrix(59.958879, 0, 0, -59.91469, 338.5, 222)"/>
<path fill="none" stroke-width="0.04" stroke-linecap="butt" stroke-linejoin="miter" stroke="rgb(60.392157%, 44.705882%, 67.45098%)" stroke-opacity="1" stroke-miterlimit="10" d="M 0.110948 -1.626727 C 0.111926 -1.567007 0.112903 -1.507286 0.11388 -1.447566 " transform="matrix(59.958879, 0, 0, -59.91469, 338.5, 222)"/>
<path fill="none" stroke-width="0.04" stroke-linecap="butt" stroke-linejoin="miter" stroke="rgb(60.392157%, 44.705882%, 67.45098%)" stroke-opacity="1" stroke-miterlimit="10" d="M 0.116942 -1.257256 C 0.117919 -1.197536 0.118897 -1.137816 0.119874 -1.078161 " transform="matrix(59.958879, 0, 0, -59.91469, 338.5, 222)"/>
<path fill="none" stroke-width="0.04" stroke-linecap="butt" stroke-linejoin="miter" stroke="rgb(60.392157%, 44.705882%, 67.45098%)" stroke-opacity="1" stroke-miterlimit="10" d="M 0.122936 -0.887786 C 0.123913 -0.828131 0.12489 -0.76841 0.125868 -0.70869 " transform="matrix(59.958879, 0, 0, -59.91469, 338.5, 222)"/>
<path fill="none" stroke-width="0.04" stroke-linecap="butt" stroke-linejoin="miter" stroke="rgb(60.392157%, 44.705882%, 67.45098%)" stroke-opacity="1" stroke-miterlimit="10" d="M 0.128995 -0.51838 C 0.129907 -0.45866 0.130884 -0.39894 0.131861 -0.339219 " transform="matrix(59.958879, 0, 0, -59.91469, 338.5, 222)"/>
<path fill="none" stroke-width="0.04" stroke-linecap="butt" stroke-linejoin="miter" stroke="rgb(60.392157%, 44.705882%, 67.45098%)" stroke-opacity="1" stroke-miterlimit="10" d="M 0.134988 -0.14891 C 0.1359 -0.0891893 0.136878 -0.029469 0.137855 0.0301861 " transform="matrix(59.958879, 0, 0, -59.91469, 338.5, 222)"/>
<path fill="none" stroke-width="0.04" stroke-linecap="butt" stroke-linejoin="miter" stroke="rgb(60.392157%, 44.705882%, 67.45098%)" stroke-opacity="1" stroke-miterlimit="10" d="M 0.140982 0.220561 C 0.141959 0.280216 0.142871 0.339936 0.143849 0.399657 " transform="matrix(59.958879, 0, 0, -59.91469, 338.5, 222)"/>
<path fill="none" stroke-width="0.04" stroke-linecap="butt" stroke-linejoin="miter" stroke="rgb(60.392157%, 44.705882%, 67.45098%)" stroke-opacity="1" stroke-miterlimit="10" d="M 0.146976 0.589966 C 0.147953 0.649687 0.14893 0.709407 0.149842 0.769127 " transform="matrix(59.958879, 0, 0, -59.91469, 338.5, 222)"/>
<path fill="none" stroke-width="0.04" stroke-linecap="butt" stroke-linejoin="miter" stroke="rgb(60.392157%, 44.705882%, 67.45098%)" stroke-opacity="1" stroke-miterlimit="10" d="M 0.152969 0.959437 C 0.153947 1.019157 0.154924 1.078813 0.155836 1.138533 " transform="matrix(59.958879, 0, 0, -59.91469, 338.5, 222)"/>
<path fill="none" stroke-width="0.04" stroke-linecap="butt" stroke-linejoin="miter" stroke="rgb(60.392157%, 44.705882%, 67.45098%)" stroke-opacity="1" stroke-miterlimit="10" d="M 0.158963 1.328908 C 0.15994 1.388563 0.160918 1.448283 0.161895 1.508003 " transform="matrix(59.958879, 0, 0, -59.91469, 338.5, 222)"/>
<path fill="none" stroke-width="0.04" stroke-linecap="butt" stroke-linejoin="miter" stroke="rgb(60.392157%, 44.705882%, 67.45098%)" stroke-opacity="1" stroke-miterlimit="10" d="M 0.164957 1.698313 C 0.165934 1.758033 0.166911 1.817754 0.167889 1.877474 " transform="matrix(59.958879, 0, 0, -59.91469, 338.5, 222)"/>
<path fill="none" stroke-width="0.04" stroke-linecap="butt" stroke-linejoin="miter" stroke="rgb(60.392157%, 44.705882%, 67.45098%)" stroke-opacity="1" stroke-miterlimit="10" d="M 0.17095 2.067784 C 0.171928 2.127504 0.172905 2.187159 0.173882 2.24688 " transform="matrix(59.958879, 0, 0, -59.91469, 338.5, 222)"/>
<path fill="none" stroke-width="0.04" stroke-linecap="butt" stroke-linejoin="miter" stroke="rgb(60.392157%, 44.705882%, 67.45098%)" stroke-opacity="1" stroke-miterlimit="10" d="M 0.176944 2.437189 C 0.177921 2.49691 0.178899 2.55663 0.179876 2.61635 " transform="matrix(59.958879, 0, 0, -59.91469, 338.5, 222)"/>
<path fill-rule="nonzero" fill="rgb(60.392157%, 44.705882%, 67.45098%)" fill-opacity="1" d="M 30.460938 307.0625 C 30.460938 306.269531 30.144531 305.507812 29.582031 304.945312 C 29.019531 304.382812 28.257812 304.066406 27.460938 304.066406 C 26.667969 304.066406 25.902344 304.382812 25.34375 304.945312 C 24.78125 305.507812 24.464844 306.269531 24.464844 307.0625 C 24.464844 307.855469 24.78125 308.621094 25.34375 309.179688 C 25.902344 309.742188 26.667969 310.058594 27.460938 310.058594 C 28.257812 310.058594 29.019531 309.742188 29.582031 309.179688 C 30.144531 308.621094 30.460938 307.855469 30.460938 307.0625 Z M 30.460938 307.0625 "/>
<path fill-rule="nonzero" fill="rgb(60.392157%, 44.705882%, 67.45098%)" fill-opacity="1" d="M 346.351562 430.140625 C 346.351562 429.347656 346.035156 428.585938 345.476562 428.023438 C 344.914062 427.460938 344.148438 427.144531 343.355469 427.144531 C 342.558594 427.144531 341.796875 427.460938 341.234375 428.023438 C 340.671875 428.585938 340.355469 429.347656 340.355469 430.140625 C 340.355469 430.933594 340.671875 431.695312 341.234375 432.257812 C 341.796875 432.820312 342.558594 433.136719 343.355469 433.136719 C 344.148438 433.136719 344.914062 432.820312 345.476562 432.257812 C 346.035156 431.695312 346.351562 430.933594 346.351562 430.140625 Z M 346.351562 430.140625 "/>
<path fill-rule="nonzero" fill="rgb(60.392157%, 44.705882%, 67.45098%)" fill-opacity="1" d="M 671.777344 307.0625 C 671.777344 306.269531 671.464844 305.507812 670.902344 304.945312 C 670.339844 304.382812 669.574219 304.066406 668.78125 304.066406 C 667.984375 304.066406 667.222656 304.382812 666.660156 304.945312 C 666.097656 305.507812 665.78125 306.269531 665.78125 307.0625 C 665.78125 307.855469 666.097656 308.621094 666.660156 309.179688 C 667.222656 309.742188 667.984375 310.058594 668.78125 310.058594 C 669.574219 310.058594 670.339844 309.742188 670.902344 309.179688 C 671.464844 308.621094 671.777344 307.855469 671.777344 307.0625 Z M 671.777344 307.0625 "/>
<path fill-rule="nonzero" fill="rgb(60.392157%, 44.705882%, 67.45098%)" fill-opacity="1" d="M 352.28125 65.242188 C 352.28125 64.449219 351.964844 63.6875 351.402344 63.125 C 350.84375 62.5625 350.078125 62.246094 349.285156 62.246094 C 348.488281 62.246094 347.726562 62.5625 347.164062 63.125 C 346.601562 63.6875 346.285156 64.449219 346.285156 65.242188 C 346.285156 66.035156 346.601562 66.800781 347.164062 67.359375 C 347.726562 67.921875 348.488281 68.238281 349.285156 68.238281 C 350.078125 68.238281 350.84375 67.921875 351.402344 67.359375 C 351.964844 66.800781 352.28125 66.035156 352.28125 65.242188 Z M 352.28125 65.242188 "/>
<path fill="none" stroke-width="0.04" stroke-linecap="butt" stroke-linejoin="miter" stroke="rgb(51.372549%, 75.686275%, 40.392157%)" stroke-opacity="1" stroke-miterlimit="10" d="M -5.18754 -1.419727 C -5.134834 -1.441372 -5.082194 -1.463083 -5.029554 -1.484728 " transform="matrix(59.958879, 0, 0, -59.91469, 338.5, 222)"/>
<path fill="none" stroke-width="0.04" stroke-linecap="butt" stroke-linejoin="miter" stroke="rgb(51.372549%, 75.686275%, 40.392157%)" stroke-opacity="1" stroke-miterlimit="10" d="M -4.861665 -1.553837 C -4.809025 -1.575482 -4.756385 -1.597193 -4.703745 -1.618838 " transform="matrix(59.958879, 0, 0, -59.91469, 338.5, 222)"/>
<path fill="none" stroke-width="0.04" stroke-linecap="butt" stroke-linejoin="miter" stroke="rgb(51.372549%, 75.686275%, 40.392157%)" stroke-opacity="1" stroke-miterlimit="10" d="M -4.535856 -1.687947 C -4.483216 -1.709592 -4.43051 -1.731238 -4.37787 -1.752948 " transform="matrix(59.958879, 0, 0, -59.91469, 338.5, 222)"/>
<path fill="none" stroke-width="0.04" stroke-linecap="butt" stroke-linejoin="miter" stroke="rgb(51.372549%, 75.686275%, 40.392157%)" stroke-opacity="1" stroke-miterlimit="10" d="M -4.210047 -1.821992 C -4.157341 -1.843702 -4.104701 -1.865348 -4.052061 -1.887058 " transform="matrix(59.958879, 0, 0, -59.91469, 338.5, 222)"/>
<path fill="none" stroke-width="0.04" stroke-linecap="butt" stroke-linejoin="miter" stroke="rgb(51.372549%, 75.686275%, 40.392157%)" stroke-opacity="1" stroke-miterlimit="10" d="M -3.884172 -1.956102 C -3.831532 -1.977812 -3.778892 -1.999457 -3.726187 -2.021103 " transform="matrix(59.958879, 0, 0, -59.91469, 338.5, 222)"/>
<path fill="none" stroke-width="0.04" stroke-linecap="butt" stroke-linejoin="miter" stroke="rgb(51.372549%, 75.686275%, 40.392157%)" stroke-opacity="1" stroke-miterlimit="10" d="M -3.558363 -2.090212 C -3.505723 -2.111857 -3.453018 -2.133567 -3.400377 -2.155213 " transform="matrix(59.958879, 0, 0, -59.91469, 338.5, 222)"/>
<path fill="none" stroke-width="0.04" stroke-linecap="butt" stroke-linejoin="miter" stroke="rgb(51.372549%, 75.686275%, 40.392157%)" stroke-opacity="1" stroke-miterlimit="10" d="M -3.232554 -2.224321 C -3.179849 -2.245967 -3.127208 -2.267677 -3.074568 -2.289323 " transform="matrix(59.958879, 0, 0, -59.91469, 338.5, 222)"/>
<path fill="none" stroke-width="0.04" stroke-linecap="butt" stroke-linejoin="miter" stroke="rgb(51.372549%, 75.686275%, 40.392157%)" stroke-opacity="1" stroke-miterlimit="10" d="M -2.90668 -2.358366 C -2.854039 -2.380077 -2.801399 -2.401722 -2.748694 -2.423433 " transform="matrix(59.958879, 0, 0, -59.91469, 338.5, 222)"/>
<path fill="none" stroke-width="0.04" stroke-linecap="butt" stroke-linejoin="miter" stroke="rgb(51.372549%, 75.686275%, 40.392157%)" stroke-opacity="1" stroke-miterlimit="10" d="M -2.58087 -2.492476 C -2.52823 -2.514187 -2.475525 -2.535832 -2.422885 -2.557477 " transform="matrix(59.958879, 0, 0, -59.91469, 338.5, 222)"/>
<path fill="none" stroke-width="0.04" stroke-linecap="butt" stroke-linejoin="miter" stroke="rgb(51.372549%, 75.686275%, 40.392157%)" stroke-opacity="1" stroke-miterlimit="10" d="M -2.255061 -2.626586 C -2.202356 -2.648231 -2.149716 -2.669942 -2.097075 -2.691587 " transform="matrix(59.958879, 0, 0, -59.91469, 338.5, 222)"/>
<path fill="none" stroke-width="0.04" stroke-linecap="butt" stroke-linejoin="miter" stroke="rgb(51.372549%, 75.686275%, 40.392157%)" stroke-opacity="1" stroke-miterlimit="10" d="M -1.929187 -2.760696 C -1.876547 -2.782341 -1.823906 -2.804052 -1.771201 -2.825697 " transform="matrix(59.958879, 0, 0, -59.91469, 338.5, 222)"/>
<path fill="none" stroke-width="0.04" stroke-linecap="butt" stroke-linejoin="miter" stroke="rgb(51.372549%, 75.686275%, 40.392157%)" stroke-opacity="1" stroke-miterlimit="10" d="M -1.603378 -2.894806 C -1.550737 -2.916451 -1.498032 -2.938097 -1.445392 -2.959807 " transform="matrix(59.958879, 0, 0, -59.91469, 338.5, 222)"/>
<path fill="none" stroke-width="0.04" stroke-linecap="butt" stroke-linejoin="miter" stroke="rgb(51.372549%, 75.686275%, 40.392157%)" stroke-opacity="1" stroke-miterlimit="10" d="M -1.277568 -3.028851 C -1.224863 -3.050561 -1.172223 -3.072207 -1.119582 -3.093917 " transform="matrix(59.958879, 0, 0, -59.91469, 338.5, 222)"/>
<path fill="none" stroke-width="0.04" stroke-linecap="butt" stroke-linejoin="miter" stroke="rgb(51.372549%, 75.686275%, 40.392157%)" stroke-opacity="1" stroke-miterlimit="10" d="M -0.951694 -3.162961 C -0.899054 -3.184671 -0.846413 -3.206317 -0.793708 -3.227962 " transform="matrix(59.958879, 0, 0, -59.91469, 338.5, 222)"/>
<path fill="none" stroke-width="0.04" stroke-linecap="butt" stroke-linejoin="miter" stroke="rgb(51.372549%, 75.686275%, 40.392157%)" stroke-opacity="1" stroke-miterlimit="10" d="M -0.625885 -3.297071 C -0.573244 -3.318716 -0.520539 -3.340427 -0.467899 -3.362072 " transform="matrix(59.958879, 0, 0, -59.91469, 338.5, 222)"/>
<path fill="none" stroke-width="0.04" stroke-linecap="butt" stroke-linejoin="miter" stroke="rgb(51.372549%, 75.686275%, 40.392157%)" stroke-opacity="1" stroke-miterlimit="10" d="M -0.300075 -3.431181 C -0.24737 -3.452826 -0.19473 -3.474471 -0.14209 -3.496182 " transform="matrix(59.958879, 0, 0, -59.91469, 338.5, 222)"/>
<path fill="none" stroke-width="0.04" stroke-linecap="butt" stroke-linejoin="miter" stroke="rgb(51.372549%, 75.686275%, 40.392157%)" stroke-opacity="1" stroke-miterlimit="10" d="M 0.0257989 -3.565225 C 0.0784392 -3.586936 0.131079 -3.608581 0.183785 -3.630292 " transform="matrix(59.958879, 0, 0, -59.91469, 338.5, 222)"/>
<path fill="none" stroke-width="0.04" stroke-linecap="butt" stroke-linejoin="miter" stroke="rgb(51.372549%, 75.686275%, 40.392157%)" stroke-opacity="1" stroke-miterlimit="10" d="M 0.183785 -3.630292 C 0.236555 -3.608581 0.289391 -3.586936 0.342162 -3.565225 " transform="matrix(59.958879, 0, 0, -59.91469, 338.5, 222)"/>
<path fill="none" stroke-width="0.04" stroke-linecap="butt" stroke-linejoin="miter" stroke="rgb(51.372549%, 75.686275%, 40.392157%)" stroke-opacity="1" stroke-miterlimit="10" d="M 0.510506 -3.496182 C 0.563342 -3.474471 0.616178 -3.452826 0.668948 -3.431181 " transform="matrix(59.958879, 0, 0, -59.91469, 338.5, 222)"/>
<path fill="none" stroke-width="0.04" stroke-linecap="butt" stroke-linejoin="miter" stroke="rgb(51.372549%, 75.686275%, 40.392157%)" stroke-opacity="1" stroke-miterlimit="10" d="M 0.837293 -3.362072 C 0.890128 -3.340427 0.942899 -3.318716 0.995735 -3.297071 " transform="matrix(59.958879, 0, 0, -59.91469, 338.5, 222)"/>
<path fill="none" stroke-width="0.04" stroke-linecap="butt" stroke-linejoin="miter" stroke="rgb(51.372549%, 75.686275%, 40.392157%)" stroke-opacity="1" stroke-miterlimit="10" d="M 1.164079 -3.227962 C 1.216915 -3.206317 1.269685 -3.184671 1.322521 -3.162961 " transform="matrix(59.958879, 0, 0, -59.91469, 338.5, 222)"/>
<path fill="none" stroke-width="0.04" stroke-linecap="butt" stroke-linejoin="miter" stroke="rgb(51.372549%, 75.686275%, 40.392157%)" stroke-opacity="1" stroke-miterlimit="10" d="M 1.490866 -3.093917 C 1.543636 -3.072207 1.596472 -3.050561 1.649307 -3.028851 " transform="matrix(59.958879, 0, 0, -59.91469, 338.5, 222)"/>
<path fill="none" stroke-width="0.04" stroke-linecap="butt" stroke-linejoin="miter" stroke="rgb(51.372549%, 75.686275%, 40.392157%)" stroke-opacity="1" stroke-miterlimit="10" d="M 1.817587 -2.959807 C 1.870423 -2.938097 1.923258 -2.916451 1.976029 -2.894806 " transform="matrix(59.958879, 0, 0, -59.91469, 338.5, 222)"/>
<path fill="none" stroke-width="0.04" stroke-linecap="butt" stroke-linejoin="miter" stroke="rgb(51.372549%, 75.686275%, 40.392157%)" stroke-opacity="1" stroke-miterlimit="10" d="M 2.144373 -2.825697 C 2.197209 -2.804052 2.24998 -2.782341 2.302815 -2.760696 " transform="matrix(59.958879, 0, 0, -59.91469, 338.5, 222)"/>
<path fill="none" stroke-width="0.04" stroke-linecap="butt" stroke-linejoin="miter" stroke="rgb(51.372549%, 75.686275%, 40.392157%)" stroke-opacity="1" stroke-miterlimit="10" d="M 2.47116 -2.691587 C 2.523995 -2.669942 2.576766 -2.648231 2.629602 -2.626586 " transform="matrix(59.958879, 0, 0, -59.91469, 338.5, 222)"/>
<path fill="none" stroke-width="0.04" stroke-linecap="butt" stroke-linejoin="miter" stroke="rgb(51.372549%, 75.686275%, 40.392157%)" stroke-opacity="1" stroke-miterlimit="10" d="M 2.797946 -2.557477 C 2.850717 -2.535832 2.903552 -2.514187 2.956388 -2.492476 " transform="matrix(59.958879, 0, 0, -59.91469, 338.5, 222)"/>
<path fill="none" stroke-width="0.04" stroke-linecap="butt" stroke-linejoin="miter" stroke="rgb(51.372549%, 75.686275%, 40.392157%)" stroke-opacity="1" stroke-miterlimit="10" d="M 3.124733 -2.423433 C 3.177503 -2.401722 3.230339 -2.380077 3.283109 -2.358366 " transform="matrix(59.958879, 0, 0, -59.91469, 338.5, 222)"/>
<path fill="none" stroke-width="0.04" stroke-linecap="butt" stroke-linejoin="miter" stroke="rgb(51.372549%, 75.686275%, 40.392157%)" stroke-opacity="1" stroke-miterlimit="10" d="M 3.451454 -2.289323 C 3.50429 -2.267677 3.557125 -2.245967 3.609896 -2.224321 " transform="matrix(59.958879, 0, 0, -59.91469, 338.5, 222)"/>
<path fill="none" stroke-width="0.04" stroke-linecap="butt" stroke-linejoin="miter" stroke="rgb(51.372549%, 75.686275%, 40.392157%)" stroke-opacity="1" stroke-miterlimit="10" d="M 3.77824 -2.155213 C 3.831076 -2.133567 3.883847 -2.111857 3.936682 -2.090212 " transform="matrix(59.958879, 0, 0, -59.91469, 338.5, 222)"/>
<path fill="none" stroke-width="0.04" stroke-linecap="butt" stroke-linejoin="miter" stroke="rgb(51.372549%, 75.686275%, 40.392157%)" stroke-opacity="1" stroke-miterlimit="10" d="M 4.105027 -2.021103 C 4.157797 -1.999457 4.210633 -1.977812 4.263469 -1.956102 " transform="matrix(59.958879, 0, 0, -59.91469, 338.5, 222)"/>
<path fill="none" stroke-width="0.04" stroke-linecap="butt" stroke-linejoin="miter" stroke="rgb(51.372549%, 75.686275%, 40.392157%)" stroke-opacity="1" stroke-miterlimit="10" d="M 4.431813 -1.887058 C 4.484584 -1.865348 4.53742 -1.843702 4.59019 -1.821992 " transform="matrix(59.958879, 0, 0, -59.91469, 338.5, 222)"/>
<path fill="none" stroke-width="0.04" stroke-linecap="butt" stroke-linejoin="miter" stroke="rgb(51.372549%, 75.686275%, 40.392157%)" stroke-opacity="1" stroke-miterlimit="10" d="M 4.758535 -1.752948 C 4.81137 -1.731238 4.864206 -1.709592 4.916977 -1.687947 " transform="matrix(59.958879, 0, 0, -59.91469, 338.5, 222)"/>
<path fill="none" stroke-width="0.04" stroke-linecap="butt" stroke-linejoin="miter" stroke="rgb(51.372549%, 75.686275%, 40.392157%)" stroke-opacity="1" stroke-miterlimit="10" d="M 5.085321 -1.618838 C 5.138157 -1.597193 5.190927 -1.575482 5.243763 -1.553837 " transform="matrix(59.958879, 0, 0, -59.91469, 338.5, 222)"/>
<path fill="none" stroke-width="0.04" stroke-linecap="butt" stroke-linejoin="miter" stroke="rgb(51.372549%, 75.686275%, 40.392157%)" stroke-opacity="1" stroke-miterlimit="10" d="M 5.412108 -1.484728 C 5.464943 -1.463083 5.517714 -1.441372 5.57055 -1.419727 " transform="matrix(59.958879, 0, 0, -59.91469, 338.5, 222)"/>
<path fill="none" stroke-width="0.04" stroke-linecap="butt" stroke-linejoin="miter" stroke="rgb(51.372549%, 75.686275%, 40.392157%)" stroke-opacity="1" stroke-miterlimit="10" d="M 5.57055 -1.419727 C 5.533219 -1.394822 5.495824 -1.369917 5.458494 -1.345077 " transform="matrix(59.958879, 0, 0, -59.91469, 338.5, 222)"/>
<path fill="none" stroke-width="0.04" stroke-linecap="butt" stroke-linejoin="miter" stroke="rgb(51.372549%, 75.686275%, 40.392157%)" stroke-opacity="1" stroke-miterlimit="10" d="M 5.341617 -1.267101 C 5.304286 -1.242261 5.266956 -1.217356 5.229626 -1.192451 " transform="matrix(59.958879, 0, 0, -59.91469, 338.5, 222)"/>
<path fill="none" stroke-width="0.04" stroke-linecap="butt" stroke-linejoin="miter" stroke="rgb(51.372549%, 75.686275%, 40.392157%)" stroke-opacity="1" stroke-miterlimit="10" d="M 5.112684 -1.11454 C 5.075353 -1.089635 5.038023 -1.06473 5.000693 -1.039825 " transform="matrix(59.958879, 0, 0, -59.91469, 338.5, 222)"/>
<path fill="none" stroke-width="0.04" stroke-linecap="butt" stroke-linejoin="miter" stroke="rgb(51.372549%, 75.686275%, 40.392157%)" stroke-opacity="1" stroke-miterlimit="10" d="M 4.883816 -0.961915 C 4.84642 -0.937009 4.80909 -0.912104 4.77176 -0.887199 " transform="matrix(59.958879, 0, 0, -59.91469, 338.5, 222)"/>
<path fill="none" stroke-width="0.04" stroke-linecap="butt" stroke-linejoin="miter" stroke="rgb(51.372549%, 75.686275%, 40.392157%)" stroke-opacity="1" stroke-miterlimit="10" d="M 4.654883 -0.809289 C 4.617553 -0.784383 4.580157 -0.759543 4.542827 -0.734638 " transform="matrix(59.958879, 0, 0, -59.91469, 338.5, 222)"/>
<path fill="none" stroke-width="0.04" stroke-linecap="butt" stroke-linejoin="miter" stroke="rgb(51.372549%, 75.686275%, 40.392157%)" stroke-opacity="1" stroke-miterlimit="10" d="M 4.42595 -0.656663 C 4.38862 -0.631823 4.351289 -0.606918 4.313959 -0.582012 " transform="matrix(59.958879, 0, 0, -59.91469, 338.5, 222)"/>
<path fill="none" stroke-width="0.04" stroke-linecap="butt" stroke-linejoin="miter" stroke="rgb(51.372549%, 75.686275%, 40.392157%)" stroke-opacity="1" stroke-miterlimit="10" d="M 4.197017 -0.504102 C 4.159687 -0.479197 4.122357 -0.454292 4.085026 -0.429387 " transform="matrix(59.958879, 0, 0, -59.91469, 338.5, 222)"/>
<path fill="none" stroke-width="0.04" stroke-linecap="butt" stroke-linejoin="miter" stroke="rgb(51.372549%, 75.686275%, 40.392157%)" stroke-opacity="1" stroke-miterlimit="10" d="M 3.968149 -0.351476 C 3.930754 -0.326571 3.893424 -0.301666 3.856093 -0.276826 " transform="matrix(59.958879, 0, 0, -59.91469, 338.5, 222)"/>
<path fill="none" stroke-width="0.04" stroke-linecap="butt" stroke-linejoin="miter" stroke="rgb(51.372549%, 75.686275%, 40.392157%)" stroke-opacity="1" stroke-miterlimit="10" d="M 3.739216 -0.19885 C 3.701886 -0.17401 3.664556 -0.149105 3.62716 -0.1242 " transform="matrix(59.958879, 0, 0, -59.91469, 338.5, 222)"/>
<path fill="none" stroke-width="0.04" stroke-linecap="butt" stroke-linejoin="miter" stroke="rgb(51.372549%, 75.686275%, 40.392157%)" stroke-opacity="1" stroke-miterlimit="10" d="M 3.510283 -0.0462898 C 3.472953 -0.0213846 3.435623 0.00352063 3.398293 0.0284258 " transform="matrix(59.958879, 0, 0, -59.91469, 338.5, 222)"/>
<path fill="none" stroke-width="0.04" stroke-linecap="butt" stroke-linejoin="miter" stroke="rgb(51.372549%, 75.686275%, 40.392157%)" stroke-opacity="1" stroke-miterlimit="10" d="M 3.28135 0.106336 C 3.24402 0.131241 3.20669 0.156146 3.16936 0.181052 " transform="matrix(59.958879, 0, 0, -59.91469, 338.5, 222)"/>
<path fill="none" stroke-width="0.04" stroke-linecap="butt" stroke-linejoin="miter" stroke="rgb(51.372549%, 75.686275%, 40.392157%)" stroke-opacity="1" stroke-miterlimit="10" d="M 3.052483 0.258962 C 3.015087 0.283867 2.977757 0.308707 2.940427 0.333612 " transform="matrix(59.958879, 0, 0, -59.91469, 338.5, 222)"/>
<path fill="none" stroke-width="0.04" stroke-linecap="butt" stroke-linejoin="miter" stroke="rgb(51.372549%, 75.686275%, 40.392157%)" stroke-opacity="1" stroke-miterlimit="10" d="M 2.82355 0.411588 C 2.786219 0.436428 2.748889 0.461333 2.711494 0.486238 " transform="matrix(59.958879, 0, 0, -59.91469, 338.5, 222)"/>
<path fill="none" stroke-width="0.04" stroke-linecap="butt" stroke-linejoin="miter" stroke="rgb(51.372549%, 75.686275%, 40.392157%)" stroke-opacity="1" stroke-miterlimit="10" d="M 2.594617 0.564148 C 2.557287 0.589054 2.519956 0.613959 2.482626 0.638864 " transform="matrix(59.958879, 0, 0, -59.91469, 338.5, 222)"/>
<path fill="none" stroke-width="0.04" stroke-linecap="butt" stroke-linejoin="miter" stroke="rgb(51.372549%, 75.686275%, 40.392157%)" stroke-opacity="1" stroke-miterlimit="10" d="M 2.365684 0.716774 C 2.328354 0.74168 2.291023 0.766585 2.253693 0.791425 " transform="matrix(59.958879, 0, 0, -59.91469, 338.5, 222)"/>
<path fill="none" stroke-width="0.04" stroke-linecap="butt" stroke-linejoin="miter" stroke="rgb(51.372549%, 75.686275%, 40.392157%)" stroke-opacity="1" stroke-miterlimit="10" d="M 2.136816 0.8694 C 2.099421 0.89424 2.06209 0.919145 2.02476 0.944051 " transform="matrix(59.958879, 0, 0, -59.91469, 338.5, 222)"/>
<path fill="none" stroke-width="0.04" stroke-linecap="butt" stroke-linejoin="miter" stroke="rgb(51.372549%, 75.686275%, 40.392157%)" stroke-opacity="1" stroke-miterlimit="10" d="M 1.907883 1.021961 C 1.870553 1.046866 1.833223 1.071771 1.795827 1.096676 " transform="matrix(59.958879, 0, 0, -59.91469, 338.5, 222)"/>
<path fill="none" stroke-width="0.04" stroke-linecap="butt" stroke-linejoin="miter" stroke="rgb(51.372549%, 75.686275%, 40.392157%)" stroke-opacity="1" stroke-miterlimit="10" d="M 1.67895 1.174587 C 1.64162 1.199492 1.60429 1.224397 1.566959 1.249302 " transform="matrix(59.958879, 0, 0, -59.91469, 338.5, 222)"/>
<path fill="none" stroke-width="0.04" stroke-linecap="butt" stroke-linejoin="miter" stroke="rgb(51.372549%, 75.686275%, 40.392157%)" stroke-opacity="1" stroke-miterlimit="10" d="M 1.450017 1.327213 C 1.412687 1.352118 1.375357 1.376958 1.338026 1.401863 " transform="matrix(59.958879, 0, 0, -59.91469, 338.5, 222)"/>
<path fill="none" stroke-width="0.04" stroke-linecap="butt" stroke-linejoin="miter" stroke="rgb(51.372549%, 75.686275%, 40.392157%)" stroke-opacity="1" stroke-miterlimit="10" d="M 1.221149 1.479838 C 1.183754 1.504678 1.146424 1.529584 1.109093 1.554489 " transform="matrix(59.958879, 0, 0, -59.91469, 338.5, 222)"/>
<path fill="none" stroke-width="0.04" stroke-linecap="butt" stroke-linejoin="miter" stroke="rgb(51.372549%, 75.686275%, 40.392157%)" stroke-opacity="1" stroke-miterlimit="10" d="M 0.992216 1.632399 C 0.954886 1.657304 0.917556 1.68221 0.880161 1.707115 " transform="matrix(59.958879, 0, 0, -59.91469, 338.5, 222)"/>
<path fill="none" stroke-width="0.04" stroke-linecap="butt" stroke-linejoin="miter" stroke="rgb(51.372549%, 75.686275%, 40.392157%)" stroke-opacity="1" stroke-miterlimit="10" d="M 0.763284 1.785025 C 0.725953 1.80993 0.688623 1.834835 0.651293 1.859675 " transform="matrix(59.958879, 0, 0, -59.91469, 338.5, 222)"/>
<path fill="none" stroke-width="0.04" stroke-linecap="butt" stroke-linejoin="miter" stroke="rgb(51.372549%, 75.686275%, 40.392157%)" stroke-opacity="1" stroke-miterlimit="10" d="M 0.534351 1.937651 C 0.49702 1.962491 0.45969 1.987396 0.42236 2.012301 " transform="matrix(59.958879, 0, 0, -59.91469, 338.5, 222)"/>
<path fill="none" stroke-width="0.04" stroke-linecap="butt" stroke-linejoin="miter" stroke="rgb(51.372549%, 75.686275%, 40.392157%)" stroke-opacity="1" stroke-miterlimit="10" d="M 0.305483 2.090212 C 0.268153 2.115117 0.230757 2.140022 0.193427 2.164927 " transform="matrix(59.958879, 0, 0, -59.91469, 338.5, 222)"/>
<path fill="none" stroke-width="0.04" stroke-linecap="butt" stroke-linejoin="miter" stroke="rgb(51.372549%, 75.686275%, 40.392157%)" stroke-opacity="1" stroke-miterlimit="10" d="M 0.193427 2.164927 C 0.156097 2.140022 0.118701 2.115117 0.0813057 2.090212 " transform="matrix(59.958879, 0, 0, -59.91469, 338.5, 222)"/>
<path fill="none" stroke-width="0.04" stroke-linecap="butt" stroke-linejoin="miter" stroke="rgb(51.372549%, 75.686275%, 40.392157%)" stroke-opacity="1" stroke-miterlimit="10" d="M -0.0356364 2.012301 C -0.0730318 1.987396 -0.110362 1.962491 -0.147758 1.937651 " transform="matrix(59.958879, 0, 0, -59.91469, 338.5, 222)"/>
<path fill="none" stroke-width="0.04" stroke-linecap="butt" stroke-linejoin="miter" stroke="rgb(51.372549%, 75.686275%, 40.392157%)" stroke-opacity="1" stroke-miterlimit="10" d="M -0.2647 1.859675 C -0.302095 1.834835 -0.33949 1.80993 -0.376821 1.785025 " transform="matrix(59.958879, 0, 0, -59.91469, 338.5, 222)"/>
<path fill="none" stroke-width="0.04" stroke-linecap="butt" stroke-linejoin="miter" stroke="rgb(51.372549%, 75.686275%, 40.392157%)" stroke-opacity="1" stroke-miterlimit="10" d="M -0.493828 1.707115 C -0.531158 1.68221 -0.568554 1.657304 -0.605884 1.632399 " transform="matrix(59.958879, 0, 0, -59.91469, 338.5, 222)"/>
<path fill="none" stroke-width="0.04" stroke-linecap="butt" stroke-linejoin="miter" stroke="rgb(51.372549%, 75.686275%, 40.392157%)" stroke-opacity="1" stroke-miterlimit="10" d="M -0.722891 1.554489 C -0.760222 1.529584 -0.797617 1.504678 -0.835012 1.479838 " transform="matrix(59.958879, 0, 0, -59.91469, 338.5, 222)"/>
<path fill="none" stroke-width="0.04" stroke-linecap="butt" stroke-linejoin="miter" stroke="rgb(51.372549%, 75.686275%, 40.392157%)" stroke-opacity="1" stroke-miterlimit="10" d="M -0.951955 1.401863 C -0.98935 1.376958 -1.02668 1.352118 -1.064076 1.327213 " transform="matrix(59.958879, 0, 0, -59.91469, 338.5, 222)"/>
<path fill="none" stroke-width="0.04" stroke-linecap="butt" stroke-linejoin="miter" stroke="rgb(51.372549%, 75.686275%, 40.392157%)" stroke-opacity="1" stroke-miterlimit="10" d="M -1.181018 1.249302 C -1.218413 1.224397 -1.255809 1.199492 -1.293139 1.174587 " transform="matrix(59.958879, 0, 0, -59.91469, 338.5, 222)"/>
<path fill="none" stroke-width="0.04" stroke-linecap="butt" stroke-linejoin="miter" stroke="rgb(51.372549%, 75.686275%, 40.392157%)" stroke-opacity="1" stroke-miterlimit="10" d="M -1.410146 1.096676 C -1.447476 1.071771 -1.484872 1.046866 -1.522202 1.021961 " transform="matrix(59.958879, 0, 0, -59.91469, 338.5, 222)"/>
<path fill="none" stroke-width="0.04" stroke-linecap="butt" stroke-linejoin="miter" stroke="rgb(51.372549%, 75.686275%, 40.392157%)" stroke-opacity="1" stroke-miterlimit="10" d="M -1.639209 0.944051 C -1.676605 0.919145 -1.713935 0.89424 -1.75133 0.8694 " transform="matrix(59.958879, 0, 0, -59.91469, 338.5, 222)"/>
<path fill="none" stroke-width="0.04" stroke-linecap="butt" stroke-linejoin="miter" stroke="rgb(51.372549%, 75.686275%, 40.392157%)" stroke-opacity="1" stroke-miterlimit="10" d="M -1.868273 0.791425 C -1.905668 0.766585 -1.942998 0.74168 -1.980394 0.716774 " transform="matrix(59.958879, 0, 0, -59.91469, 338.5, 222)"/>
<path fill="none" stroke-width="0.04" stroke-linecap="butt" stroke-linejoin="miter" stroke="rgb(51.372549%, 75.686275%, 40.392157%)" stroke-opacity="1" stroke-miterlimit="10" d="M -2.097401 0.638864 C -2.134731 0.613959 -2.172127 0.589054 -2.209457 0.564148 " transform="matrix(59.958879, 0, 0, -59.91469, 338.5, 222)"/>
<path fill="none" stroke-width="0.04" stroke-linecap="butt" stroke-linejoin="miter" stroke="rgb(51.372549%, 75.686275%, 40.392157%)" stroke-opacity="1" stroke-miterlimit="10" d="M -2.326464 0.486238 C -2.363795 0.461333 -2.40119 0.436428 -2.438585 0.411588 " transform="matrix(59.958879, 0, 0, -59.91469, 338.5, 222)"/>
<path fill="none" stroke-width="0.04" stroke-linecap="butt" stroke-linejoin="miter" stroke="rgb(51.372549%, 75.686275%, 40.392157%)" stroke-opacity="1" stroke-miterlimit="10" d="M -2.555527 0.333612 C -2.592923 0.308707 -2.630253 0.283867 -2.667649 0.258962 " transform="matrix(59.958879, 0, 0, -59.91469, 338.5, 222)"/>
<path fill="none" stroke-width="0.04" stroke-linecap="butt" stroke-linejoin="miter" stroke="rgb(51.372549%, 75.686275%, 40.392157%)" stroke-opacity="1" stroke-miterlimit="10" d="M -2.784591 0.181052 C -2.821986 0.156146 -2.859316 0.131241 -2.896712 0.106336 " transform="matrix(59.958879, 0, 0, -59.91469, 338.5, 222)"/>
<path fill="none" stroke-width="0.04" stroke-linecap="butt" stroke-linejoin="miter" stroke="rgb(51.372549%, 75.686275%, 40.392157%)" stroke-opacity="1" stroke-miterlimit="10" d="M -3.013719 0.0284258 C -3.051049 0.00352063 -3.088445 -0.0213846 -3.125775 -0.0462898 " transform="matrix(59.958879, 0, 0, -59.91469, 338.5, 222)"/>
<path fill="none" stroke-width="0.04" stroke-linecap="butt" stroke-linejoin="miter" stroke="rgb(51.372549%, 75.686275%, 40.392157%)" stroke-opacity="1" stroke-miterlimit="10" d="M -3.242782 -0.1242 C -3.280113 -0.149105 -3.317508 -0.17401 -3.354903 -0.19885 " transform="matrix(59.958879, 0, 0, -59.91469, 338.5, 222)"/>
<path fill="none" stroke-width="0.04" stroke-linecap="butt" stroke-linejoin="miter" stroke="rgb(51.372549%, 75.686275%, 40.392157%)" stroke-opacity="1" stroke-miterlimit="10" d="M -3.471846 -0.276826 C -3.509241 -0.301666 -3.546571 -0.326571 -3.583967 -0.351476 " transform="matrix(59.958879, 0, 0, -59.91469, 338.5, 222)"/>
<path fill="none" stroke-width="0.04" stroke-linecap="butt" stroke-linejoin="miter" stroke="rgb(51.372549%, 75.686275%, 40.392157%)" stroke-opacity="1" stroke-miterlimit="10" d="M -3.700909 -0.429387 C -3.738304 -0.454292 -3.7757 -0.479197 -3.81303 -0.504102 " transform="matrix(59.958879, 0, 0, -59.91469, 338.5, 222)"/>
<path fill="none" stroke-width="0.04" stroke-linecap="butt" stroke-linejoin="miter" stroke="rgb(51.372549%, 75.686275%, 40.392157%)" stroke-opacity="1" stroke-miterlimit="10" d="M -3.930037 -0.582012 C -3.967368 -0.606918 -4.004763 -0.631823 -4.042093 -0.656663 " transform="matrix(59.958879, 0, 0, -59.91469, 338.5, 222)"/>
<path fill="none" stroke-width="0.04" stroke-linecap="butt" stroke-linejoin="miter" stroke="rgb(51.372549%, 75.686275%, 40.392157%)" stroke-opacity="1" stroke-miterlimit="10" d="M -4.1591 -0.734638 C -4.196496 -0.759543 -4.233826 -0.784383 -4.271222 -0.809289 " transform="matrix(59.958879, 0, 0, -59.91469, 338.5, 222)"/>
<path fill="none" stroke-width="0.04" stroke-linecap="butt" stroke-linejoin="miter" stroke="rgb(51.372549%, 75.686275%, 40.392157%)" stroke-opacity="1" stroke-miterlimit="10" d="M -4.388164 -0.887199 C -4.425559 -0.912104 -4.462889 -0.937009 -4.500285 -0.961915 " transform="matrix(59.958879, 0, 0, -59.91469, 338.5, 222)"/>
<path fill="none" stroke-width="0.04" stroke-linecap="butt" stroke-linejoin="miter" stroke="rgb(51.372549%, 75.686275%, 40.392157%)" stroke-opacity="1" stroke-miterlimit="10" d="M -4.617227 -1.039825 C -4.654622 -1.06473 -4.692018 -1.089635 -4.729348 -1.11454 " transform="matrix(59.958879, 0, 0, -59.91469, 338.5, 222)"/>
<path fill="none" stroke-width="0.04" stroke-linecap="butt" stroke-linejoin="miter" stroke="rgb(51.372549%, 75.686275%, 40.392157%)" stroke-opacity="1" stroke-miterlimit="10" d="M -4.846355 -1.192451 C -4.883686 -1.217356 -4.921081 -1.242261 -4.958411 -1.267101 " transform="matrix(59.958879, 0, 0, -59.91469, 338.5, 222)"/>
<path fill="none" stroke-width="0.04" stroke-linecap="butt" stroke-linejoin="miter" stroke="rgb(51.372549%, 75.686275%, 40.392157%)" stroke-opacity="1" stroke-miterlimit="10" d="M -5.075419 -1.345077 C -5.112814 -1.369917 -5.150144 -1.394822 -5.18754 -1.419727 " transform="matrix(59.958879, 0, 0, -59.91469, 338.5, 222)"/>
<path fill="none" stroke-width="0.04" stroke-linecap="butt" stroke-linejoin="miter" stroke="rgb(51.372549%, 75.686275%, 40.392157%)" stroke-opacity="1" stroke-miterlimit="10" d="M 0.183785 -3.630292 C 0.18385 -3.57344 0.18398 -3.516654 0.184045 -3.459802 " transform="matrix(59.958879, 0, 0, -59.91469, 338.5, 222)"/>
<path fill="none" stroke-width="0.04" stroke-linecap="butt" stroke-linejoin="miter" stroke="rgb(51.372549%, 75.686275%, 40.392157%)" stroke-opacity="1" stroke-miterlimit="10" d="M 0.184371 -3.27875 C 0.184436 -3.221899 0.184567 -3.165112 0.184632 -3.108261 " transform="matrix(59.958879, 0, 0, -59.91469, 338.5, 222)"/>
<path fill="none" stroke-width="0.04" stroke-linecap="butt" stroke-linejoin="miter" stroke="rgb(51.372549%, 75.686275%, 40.392157%)" stroke-opacity="1" stroke-miterlimit="10" d="M 0.184957 -2.927144 C 0.185023 -2.870357 0.185153 -2.813571 0.185218 -2.756719 " transform="matrix(59.958879, 0, 0, -59.91469, 338.5, 222)"/>
<path fill="none" stroke-width="0.04" stroke-linecap="butt" stroke-linejoin="miter" stroke="rgb(51.372549%, 75.686275%, 40.392157%)" stroke-opacity="1" stroke-miterlimit="10" d="M 0.185544 -2.575602 C 0.185609 -2.518816 0.185739 -2.462029 0.185804 -2.405178 " transform="matrix(59.958879, 0, 0, -59.91469, 338.5, 222)"/>
<path fill="none" stroke-width="0.04" stroke-linecap="butt" stroke-linejoin="miter" stroke="rgb(51.372549%, 75.686275%, 40.392157%)" stroke-opacity="1" stroke-miterlimit="10" d="M 0.18613 -2.224061 C 0.186195 -2.167274 0.186326 -2.110423 0.186391 -2.053636 " transform="matrix(59.958879, 0, 0, -59.91469, 338.5, 222)"/>
<path fill="none" stroke-width="0.04" stroke-linecap="butt" stroke-linejoin="miter" stroke="rgb(51.372549%, 75.686275%, 40.392157%)" stroke-opacity="1" stroke-miterlimit="10" d="M 0.186717 -1.872519 C 0.186782 -1.815733 0.186912 -1.758881 0.186977 -1.702095 " transform="matrix(59.958879, 0, 0, -59.91469, 338.5, 222)"/>
<path fill="none" stroke-width="0.04" stroke-linecap="butt" stroke-linejoin="miter" stroke="rgb(51.372549%, 75.686275%, 40.392157%)" stroke-opacity="1" stroke-miterlimit="10" d="M 0.187303 -1.520978 C 0.187368 -1.464191 0.187498 -1.40734 0.187563 -1.350553 " transform="matrix(59.958879, 0, 0, -59.91469, 338.5, 222)"/>
<path fill="none" stroke-width="0.04" stroke-linecap="butt" stroke-linejoin="miter" stroke="rgb(51.372549%, 75.686275%, 40.392157%)" stroke-opacity="1" stroke-miterlimit="10" d="M 0.187889 -1.169436 C 0.187954 -1.11265 0.188085 -1.055798 0.18815 -0.999012 " transform="matrix(59.958879, 0, 0, -59.91469, 338.5, 222)"/>
<path fill="none" stroke-width="0.04" stroke-linecap="butt" stroke-linejoin="miter" stroke="rgb(51.372549%, 75.686275%, 40.392157%)" stroke-opacity="1" stroke-miterlimit="10" d="M 0.188476 -0.817895 C 0.188541 -0.761108 0.188671 -0.704257 0.188736 -0.64747 " transform="matrix(59.958879, 0, 0, -59.91469, 338.5, 222)"/>
<path fill="none" stroke-width="0.04" stroke-linecap="butt" stroke-linejoin="miter" stroke="rgb(51.372549%, 75.686275%, 40.392157%)" stroke-opacity="1" stroke-miterlimit="10" d="M 0.189062 -0.466353 C 0.189127 -0.409567 0.189257 -0.352715 0.189322 -0.295929 " transform="matrix(59.958879, 0, 0, -59.91469, 338.5, 222)"/>
<path fill="none" stroke-width="0.04" stroke-linecap="butt" stroke-linejoin="miter" stroke="rgb(51.372549%, 75.686275%, 40.392157%)" stroke-opacity="1" stroke-miterlimit="10" d="M 0.189648 -0.114812 C 0.189713 -0.05796 0.189844 -0.00117354 0.189909 0.0556129 " transform="matrix(59.958879, 0, 0, -59.91469, 338.5, 222)"/>
<path fill="none" stroke-width="0.04" stroke-linecap="butt" stroke-linejoin="miter" stroke="rgb(51.372549%, 75.686275%, 40.392157%)" stroke-opacity="1" stroke-miterlimit="10" d="M 0.190235 0.23673 C 0.1903 0.293581 0.19043 0.350368 0.190495 0.407154 " transform="matrix(59.958879, 0, 0, -59.91469, 338.5, 222)"/>
<path fill="none" stroke-width="0.04" stroke-linecap="butt" stroke-linejoin="miter" stroke="rgb(51.372549%, 75.686275%, 40.392157%)" stroke-opacity="1" stroke-miterlimit="10" d="M 0.190821 0.588271 C 0.190886 0.645123 0.191016 0.701909 0.191081 0.758761 " transform="matrix(59.958879, 0, 0, -59.91469, 338.5, 222)"/>
<path fill="none" stroke-width="0.04" stroke-linecap="butt" stroke-linejoin="miter" stroke="rgb(51.372549%, 75.686275%, 40.392157%)" stroke-opacity="1" stroke-miterlimit="10" d="M 0.191407 0.939813 C 0.191472 0.996664 0.191603 1.053451 0.191668 1.110303 " transform="matrix(59.958879, 0, 0, -59.91469, 338.5, 222)"/>
<path fill="none" stroke-width="0.04" stroke-linecap="butt" stroke-linejoin="miter" stroke="rgb(51.372549%, 75.686275%, 40.392157%)" stroke-opacity="1" stroke-miterlimit="10" d="M 0.191994 1.291354 C 0.192059 1.348206 0.192189 1.404992 0.192254 1.461844 " transform="matrix(59.958879, 0, 0, -59.91469, 338.5, 222)"/>
<path fill="none" stroke-width="0.04" stroke-linecap="butt" stroke-linejoin="miter" stroke="rgb(51.372549%, 75.686275%, 40.392157%)" stroke-opacity="1" stroke-miterlimit="10" d="M 0.19258 1.642896 C 0.192645 1.699747 0.192775 1.756534 0.19284 1.813386 " transform="matrix(59.958879, 0, 0, -59.91469, 338.5, 222)"/>
<path fill="none" stroke-width="0.04" stroke-linecap="butt" stroke-linejoin="miter" stroke="rgb(51.372549%, 75.686275%, 40.392157%)" stroke-opacity="1" stroke-miterlimit="10" d="M 0.193166 1.994503 C 0.193231 2.051289 0.193362 2.108075 0.193427 2.164927 " transform="matrix(59.958879, 0, 0, -59.91469, 338.5, 222)"/>
<path fill-rule="nonzero" fill="rgb(51.372549%, 75.686275%, 40.392157%)" fill-opacity="1" d="M 30.460938 307.0625 C 30.460938 306.269531 30.144531 305.507812 29.582031 304.945312 C 29.019531 304.382812 28.257812 304.066406 27.460938 304.066406 C 26.667969 304.066406 25.902344 304.382812 25.34375 304.945312 C 24.78125 305.507812 24.464844 306.269531 24.464844 307.0625 C 24.464844 307.855469 24.78125 308.621094 25.34375 309.179688 C 25.902344 309.742188 26.667969 310.058594 27.460938 310.058594 C 28.257812 310.058594 29.019531 309.742188 29.582031 309.179688 C 30.144531 308.621094 30.460938 307.855469 30.460938 307.0625 Z M 30.460938 307.0625 "/>
<path fill-rule="nonzero" fill="rgb(51.372549%, 75.686275%, 40.392157%)" fill-opacity="1" d="M 352.515625 439.507812 C 352.515625 438.710938 352.199219 437.949219 351.636719 437.386719 C 351.074219 436.828125 350.3125 436.511719 349.519531 436.511719 C 348.722656 436.511719 347.960938 436.828125 347.398438 437.386719 C 346.835938 437.949219 346.519531 438.710938 346.519531 439.507812 C 346.519531 440.300781 346.835938 441.0625 347.398438 441.625 C 347.960938 442.1875 348.722656 442.503906 349.519531 442.503906 C 350.3125 442.503906 351.074219 442.1875 351.636719 441.625 C 352.199219 441.0625 352.515625 440.300781 352.515625 439.507812 Z M 352.515625 439.507812 "/>
<path fill-rule="nonzero" fill="rgb(51.372549%, 75.686275%, 40.392157%)" fill-opacity="1" d="M 675.5 307.0625 C 675.5 306.269531 675.183594 305.507812 674.621094 304.945312 C 674.0625 304.382812 673.296875 304.066406 672.503906 304.066406 C 671.707031 304.066406 670.945312 304.382812 670.382812 304.945312 C 669.820312 305.507812 669.503906 306.269531 669.503906 307.0625 C 669.503906 307.855469 669.820312 308.621094 670.382812 309.179688 C 670.945312 309.742188 671.707031 310.058594 672.503906 310.058594 C 673.296875 310.058594 674.0625 309.742188 674.621094 309.179688 C 675.183594 308.621094 675.5 307.855469 675.5 307.0625 Z M 675.5 307.0625 "/>
<path fill-rule="nonzero" fill="rgb(51.372549%, 75.686275%, 40.392157%)" fill-opacity="1" d="M 353.097656 92.289062 C 353.097656 91.496094 352.78125 90.734375 352.21875 90.171875 C 351.65625 89.609375 350.894531 89.292969 350.097656 89.292969 C 349.304688 89.292969 348.539062 89.609375 347.976562 90.171875 C 347.417969 90.734375 347.101562 91.496094 347.101562 92.289062 C 347.101562 93.085938 347.417969 93.847656 347.976562 94.40625 C 348.539062 94.96875 349.304688 95.285156 350.097656 95.285156 C 350.894531 95.285156 351.65625 94.96875 352.21875 94.40625 C 352.78125 93.847656 353.097656 93.085938 353.097656 92.289062 Z M 353.097656 92.289062 "/>
</svg>
