<?xml version="1.0" encoding="UTF-8"?>
<svg xmlns="http://www.w3.org/2000/svg" xmlns:xlink="http://www.w3.org/1999/xlink" width="677" height="443" viewBox="0 0 677 443">
<path fill="none" stroke-width="0.04" stroke-linecap="butt" stroke-linejoin="miter" stroke="rgb(0%, 0%, 0%)" stroke-opacity="1" stroke-miterlimit="10" d="M -5.185279 -1.428314 C -3.518589 -1.428314 -1.851964 -1.428314 -0.185275 -1.428314 " transform="matrix(59.98276, 0, 0, -59.918212, 338.5, 221.5)"/>
<path fill="none" stroke-width="0.04" stroke-linecap="butt" stroke-linejoin="miter" stroke="rgb(0%, 0%, 0%)" stroke-opacity="1" stroke-miterlimit="10" d="M -0.185275 -1.428314 C 1.481415 -1.428314 3.14804 -1.428314 4.81473 -1.428314 " transform="matrix(59.98276, 0, 0, -59.918212, 338.5, 221.5)"/>
<path fill="none" stroke-width="0.04" stroke-linecap="butt" stroke-linejoin="miter" stroke="rgb(0%, 0%, 0%)" stroke-opacity="1" stroke-miterlimit="10" d="M 4.81473 -1.428314 C 3.14804 0.238346 1.481415 1.905071 -0.185275 3.571731 " transform="matrix(59.98276, 0, 0, -59.918212, 338.5, 221.5)"/>
<path fill="none" stroke-width="0.04" stroke-linecap="butt" stroke-linejoin="miter" stroke="rgb(0%, 0%, 0%)" stroke-opacity="1" stroke-miterlimit="10" d="M -0.185275 3.571731 C -1.851964 1.905071 -3.518589 0.238346 -5.185279 -1.428314 " transform="matrix(59.98276, 0, 0, -59.918212, 338.5, 221.5)"/>
<path fill="none" stroke-width="0.04" stroke-linecap="butt" stroke-linejoin="miter" stroke="rgb(0%, 0%, 0%)" stroke-opacity="1" stroke-miterlimit="10" d="M -0.185275 -1.428314 C -0.185275 0.238346 -0.185275 1.905071 -0.185275 3.571731 " transform="matrix(59.98276, 0, 0, -59.918212, 338.5, 221.5)"/>
<path fill="none" stroke-width="0.04" stroke-linecap="butt" stroke-linejoin="miter" stroke="rgb(0%, 0%, 0%)" stroke-opacity="1" stroke-miterlimit="10" d="M -5.185279 -1.428314 C -5.281531 -1.594948 -5.377717 -1.761646 -5.473969 -1.92828 C -5.281531 -1.92828 -5.089027 -1.92828 -4.896589 -1.92828 C -4.992841 -1.761646 -5.089027 -1.594948 -5.185279 -1.428314 Z M -5.185279 -1.428314 " transform="matrix(59.98276, 0, 0, -59.918212, 338.5, 221.5)"/>
<path fill="none" stroke-width="0.04" stroke-linecap="butt" stroke-linejoin="miter" stroke="rgb(0%, 0%, 0%)" stroke-opacity="1" stroke-miterlimit="10" d="M -4.752277 -1.92828 C -5.040967 -1.92828 -5.329591 -1.92828 -5.618281 -1.92828 " transform="matrix(59.98276, 0, 0, -59.918212, 338.5, 221.5)"/>
<path fill="none" stroke-width="0.04" stroke-linecap="butt" stroke-linejoin="miter" stroke="rgb(0%, 0%, 0%)" stroke-opacity="1" stroke-miterlimit="10" d="M 5.064737 -1.678264 C 5.064737 -1.611963 5.038362 -1.5484 4.991473 -1.501526 C 4.944585 -1.454652 4.881025 -1.428314 4.81473 -1.428314 C 4.748435 -1.428314 4.68481 -1.454652 4.637921 -1.501526 C 4.591033 -1.5484 4.564723 -1.611963 4.564723 -1.678264 C 4.564723 -1.744631 4.591033 -1.808194 4.637921 -1.855068 C 4.68481 -1.901942 4.748435 -1.92828 4.81473 -1.92828 C 4.881025 -1.92828 4.944585 -1.901942 4.991473 -1.855068 C 5.038362 -1.808194 5.064737 -1.744631 5.064737 -1.678264 Z M 5.064737 -1.678264 " transform="matrix(59.98276, 0, 0, -59.918212, 338.5, 221.5)"/>
<path fill="none" stroke-width="0.04" stroke-linecap="butt" stroke-linejoin="miter" stroke="rgb(0%, 0%, 0%)" stroke-opacity="1" stroke-miterlimit="10" d="M 5.189707 -1.92828 C 4.939701 -1.92828 4.689694 -1.92828 4.439752 -1.92828 " transform="matrix(59.98276, 0, 0, -59.918212, 338.5, 221.5)"/>
<path fill-rule="nonzero" fill="rgb(0%, 0%, 0%)" fill-opacity="1" d="M 33.472656 307.082031 C 33.472656 305.492188 32.839844 303.96875 31.714844 302.84375 C 30.589844 301.71875 29.0625 301.089844 27.472656 301.089844 C 25.882812 301.089844 24.355469 301.71875 23.230469 302.84375 C 22.105469 303.96875 21.472656 305.492188 21.472656 307.082031 C 21.472656 308.671875 22.105469 310.195312 23.230469 311.316406 C 24.355469 312.441406 25.882812 313.074219 27.472656 313.074219 C 29.0625 313.074219 30.589844 312.441406 31.714844 311.316406 C 32.839844 310.195312 33.472656 308.671875 33.472656 307.082031 Z M 33.472656 307.082031 "/>
<path fill-rule="nonzero" fill="rgb(0%, 0%, 0%)" fill-opacity="1" d="M 333.386719 307.082031 C 333.386719 305.492188 332.753906 303.96875 331.628906 302.84375 C 330.503906 301.71875 328.976562 301.089844 327.386719 301.089844 C 325.796875 301.089844 324.269531 301.71875 323.144531 302.84375 C 322.019531 303.96875 321.386719 305.492188 321.386719 307.082031 C 321.386719 308.671875 322.019531 310.195312 323.144531 311.316406 C 324.269531 312.441406 325.796875 313.074219 327.386719 313.074219 C 328.976562 313.074219 330.503906 312.441406 331.628906 311.316406 C 332.753906 310.195312 333.386719 308.671875 333.386719 307.082031 Z M 333.386719 307.082031 "/>
<path fill-rule="nonzero" fill="rgb(0%, 0%, 0%)" fill-opacity="1" d="M 633.296875 307.082031 C 633.296875 305.492188 632.667969 303.96875 631.542969 302.84375 C 630.417969 301.71875 628.890625 301.089844 627.300781 301.089844 C 625.710938 301.089844 624.183594 301.71875 623.058594 302.84375 C 621.933594 303.96875 621.300781 305.492188 621.300781 307.082031 C 621.300781 308.671875 621.933594 310.195312 623.058594 311.316406 C 624.183594 312.441406 625.710938 313.074219 627.300781 313.074219 C 628.890625 313.074219 630.417969 312.441406 631.542969 311.316406 C 632.667969 310.195312 633.296875 308.671875 633.296875 307.082031 Z M 633.296875 307.082031 "/>
<path fill-rule="nonzero" fill="rgb(0%, 0%, 0%)" fill-opacity="1" d="M 333.386719 7.488281 C 333.386719 5.902344 332.753906 4.375 331.628906 3.253906 C 330.503906 2.128906 328.976562 1.496094 327.386719 1.496094 C 325.796875 1.496094 324.269531 2.128906 323.144531 3.253906 C 322.019531 4.375 321.386719 5.902344 321.386719 7.488281 C 321.386719 9.078125 322.019531 10.601562 323.144531 11.726562 C 324.269531 12.851562 325.796875 13.480469 327.386719 13.480469 C 328.976562 13.480469 330.503906 12.851562 331.628906 11.726562 C 332.753906 10.601562 333.386719 9.078125 333.386719 7.488281 Z M 333.386719 7.488281 "/>
<path fill="none" stroke-width="0.04" stroke-linecap="butt" stroke-linejoin="miter" stroke="rgb(98.823529%, 38.431373%, 33.333333%)" stroke-opacity="1" stroke-miterlimit="10" d="M -0.185275 -1.428314 C -0.185275 -1.77827 -0.185275 -2.128292 -0.185275 -2.478313 " transform="matrix(59.98276, 0, 0, -59.918212, 338.5, 221.5)"/>
<path fill-rule="nonzero" fill="rgb(98.823529%, 38.431373%, 33.333333%)" fill-opacity="1" d="M 327.386719 396.957031 C 330.386719 387.96875 333.386719 378.984375 336.382812 369.996094 C 330.386719 369.996094 324.386719 369.996094 318.390625 369.996094 C 321.386719 378.984375 324.386719 387.96875 327.386719 396.957031 Z M 327.386719 396.957031 "/>
<path fill-rule="nonzero" fill="rgb(98.823529%, 38.431373%, 33.333333%)" fill-opacity="1" d="M 174.601562 357.226562 C 174.601562 356.222656 174.601562 355.214844 174.601562 354.210938 C 171.433594 354.210938 168.269531 354.210938 165.105469 354.210938 C 165.105469 355.214844 165.105469 356.222656 165.105469 357.226562 C 168.269531 357.226562 171.433594 357.226562 174.601562 357.226562 Z M 174.601562 357.226562 "/>
<path fill-rule="nonzero" fill="rgb(98.823529%, 38.431373%, 33.333333%)" fill-opacity="1" d="M 188.773438 353.183594 C 188.773438 353.414062 188.773438 353.640625 188.773438 353.871094 C 188.773438 356.140625 188.492188 357.972656 188.023438 359.03125 C 187.496094 360.242188 186.15625 361.640625 184.007812 361.640625 C 183.449219 361.640625 182.328125 361.578125 181.394531 360.957031 C 181.769531 360.863281 182.921875 360.429688 182.921875 359.03125 C 182.921875 357.972656 182.203125 357.101562 180.992188 357.101562 C 179.777344 357.101562 179.03125 357.910156 179.03125 359.09375 C 179.03125 361.207031 180.617188 362.980469 184.070312 362.980469 C 188.117188 362.980469 193.003906 360.367188 193.003906 352.40625 C 193.003906 350.324219 193.003906 342.273438 185.628906 342.273438 C 181.207031 342.273438 178.128906 344.789062 178.128906 348.957031 C 178.128906 353.246094 181.207031 355.578125 185.035156 355.578125 C 186.125 355.578125 187.589844 355.363281 188.773438 353.183594 Z M 185.316406 354.460938 C 182.359375 354.460938 182.359375 352.128906 182.359375 349.019531 C 182.359375 345.972656 182.359375 343.484375 185.691406 343.484375 C 187.527344 343.484375 188.242188 345.132812 188.367188 345.445312 C 188.742188 346.46875 188.742188 348.273438 188.742188 349.332031 C 188.742188 351.289062 187.929688 354.460938 185.316406 354.460938 Z M 185.316406 354.460938 "/>
<path fill-rule="nonzero" fill="rgb(98.823529%, 38.431373%, 33.333333%)" fill-opacity="1" d="M 210.621094 355.734375 C 210.132812 355.734375 209.644531 355.734375 209.15625 355.734375 C 209.066406 356.355469 208.785156 358.347656 208.347656 358.5625 C 208.007812 358.75 205.671875 358.75 205.175781 358.75 C 203.648438 358.75 202.125 358.75 200.597656 358.75 C 202.0625 357.539062 203.679688 356.203125 205.082031 355.175781 C 208.628906 352.5625 210.621094 351.101562 210.621094 348.148438 C 210.621094 344.574219 207.382812 342.273438 202.996094 342.273438 C 199.230469 342.273438 196.304688 344.199219 196.304688 347 C 196.304688 348.832031 197.796875 349.300781 198.542969 349.300781 C 199.539062 349.300781 200.785156 348.613281 200.785156 347.058594 C 200.785156 345.445312 199.476562 344.945312 199.011719 344.820312 C 199.914062 344.074219 201.097656 343.734375 202.21875 343.734375 C 204.894531 343.734375 206.324219 345.847656 206.324219 348.179688 C 206.324219 350.324219 205.144531 352.4375 202.964844 354.648438 C 200.878906 356.769531 198.792969 358.894531 196.707031 361.019531 C 196.304688 361.394531 196.304688 361.457031 196.304688 362.078125 C 196.304688 362.265625 196.304688 362.449219 196.304688 362.636719 C 200.753906 362.636719 205.203125 362.636719 209.65625 362.636719 C 209.976562 360.335938 210.300781 358.035156 210.621094 355.734375 Z M 210.621094 355.734375 "/>
<path fill-rule="nonzero" fill="rgb(98.823529%, 38.431373%, 33.333333%)" fill-opacity="1" d="M 218.621094 347.746094 C 218.121094 347.464844 217.25 346.9375 217.25 345.878906 C 217.25 343.703125 220.050781 343.484375 221.296875 343.484375 C 223.910156 343.484375 225.46875 344.761719 225.46875 346.875 C 225.46875 348.398438 224.65625 349.453125 223.289062 350.355469 C 221.730469 349.484375 220.175781 348.613281 218.621094 347.746094 Z M 224.65625 351.132812 C 226.835938 350.015625 227.800781 348.644531 227.800781 346.84375 C 227.800781 343.671875 224.96875 342.273438 221.421875 342.273438 C 217.09375 342.273438 214.914062 344.730469 214.914062 347.714844 C 214.914062 349.082031 215.476562 351.039062 217.902344 352.40625 C 215.289062 353.558594 213.917969 355.332031 213.917969 357.632812 C 213.917969 361.394531 217.28125 362.980469 221.296875 362.980469 C 226.277344 362.980469 228.796875 360.242188 228.796875 356.824219 C 228.796875 353.464844 226.183594 352.003906 224.65625 351.132812 Z M 219.335938 353.246094 C 220.425781 353.808594 221.886719 354.648438 223.597656 355.609375 C 224.96875 356.386719 226.121094 357.039062 226.121094 358.53125 C 226.121094 361.144531 223.195312 361.640625 221.421875 361.640625 C 218.371094 361.640625 216.597656 360.054688 216.597656 357.632812 C 216.597656 355.207031 218.246094 353.871094 219.335938 353.246094 Z M 219.335938 353.246094 "/>
<path fill-rule="nonzero" fill="rgb(98.823529%, 38.431373%, 33.333333%)" fill-opacity="1" d="M 246.414062 355.734375 C 245.925781 355.734375 245.4375 355.734375 244.949219 355.734375 C 244.855469 356.355469 244.578125 358.347656 244.140625 358.5625 C 243.800781 358.75 241.464844 358.75 240.964844 358.75 C 239.441406 358.75 237.917969 358.75 236.390625 358.75 C 237.855469 357.539062 239.472656 356.203125 240.875 355.175781 C 244.421875 352.5625 246.414062 351.101562 246.414062 348.148438 C 246.414062 344.574219 243.175781 342.273438 238.789062 342.273438 C 235.023438 342.273438 232.097656 344.199219 232.097656 347 C 232.097656 348.832031 233.589844 349.300781 234.335938 349.300781 C 235.332031 349.300781 236.578125 348.613281 236.578125 347.058594 C 236.578125 345.445312 235.269531 344.945312 234.804688 344.820312 C 235.707031 344.074219 236.890625 343.734375 238.011719 343.734375 C 240.6875 343.734375 242.117188 345.847656 242.117188 348.179688 C 242.117188 350.324219 240.9375 352.4375 238.757812 354.648438 C 236.671875 356.769531 234.585938 358.894531 232.5 361.019531 C 232.097656 361.394531 232.097656 361.457031 232.097656 362.078125 C 232.097656 362.265625 232.097656 362.449219 232.097656 362.636719 C 236.546875 362.636719 240.996094 362.636719 245.449219 362.636719 C 245.769531 360.335938 246.09375 358.035156 246.414062 355.734375 Z M 246.414062 355.734375 "/>
<path fill-rule="nonzero" fill="rgb(98.823529%, 38.431373%, 33.333333%)" fill-opacity="1" d="M 255.59375 360.210938 C 255.59375 358.875 254.503906 357.785156 253.167969 357.785156 C 251.828125 357.785156 250.738281 358.875 250.738281 360.210938 C 250.738281 361.546875 251.828125 362.636719 253.167969 362.636719 C 254.503906 362.636719 255.59375 361.550781 255.59375 360.210938 Z M 255.59375 360.210938 "/>
<path fill-rule="nonzero" fill="rgb(98.823529%, 38.431373%, 33.333333%)" fill-opacity="1" d="M 272.011719 357.785156 C 273.019531 357.785156 274.023438 357.785156 275.03125 357.785156 C 275.03125 357.300781 275.03125 356.8125 275.03125 356.324219 C 274.023438 356.324219 273.019531 356.324219 272.011719 356.324219 C 272.011719 351.960938 272.011719 347.597656 272.011719 343.238281 C 272.011719 342.398438 271.949219 342.242188 271.078125 342.242188 C 270.425781 342.242188 270.394531 342.273438 270.019531 342.738281 C 266.398438 347.269531 262.777344 351.796875 259.15625 356.324219 C 259.15625 356.8125 259.15625 357.300781 259.15625 357.785156 C 262.144531 357.785156 265.132812 357.785156 268.121094 357.785156 C 268.121094 358.917969 268.121094 360.046875 268.121094 361.175781 C 266.957031 361.175781 265.796875 361.175781 264.636719 361.175781 C 264.636719 361.664062 264.636719 362.148438 264.636719 362.636719 C 265.816406 362.542969 268.648438 362.542969 269.988281 362.542969 C 271.234375 362.542969 273.941406 362.542969 275.03125 362.636719 C 275.03125 362.148438 275.03125 361.664062 275.03125 361.175781 C 274.023438 361.175781 273.019531 361.175781 272.011719 361.175781 C 272.011719 360.046875 272.011719 358.917969 272.011719 357.785156 Z M 268.464844 356.324219 C 265.902344 356.324219 263.339844 356.324219 260.777344 356.324219 C 263.339844 353.113281 265.902344 349.898438 268.464844 346.6875 C 268.464844 349.898438 268.464844 353.113281 268.464844 356.324219 Z M 268.464844 356.324219 "/>
<path fill-rule="nonzero" fill="rgb(98.823529%, 38.431373%, 33.333333%)" fill-opacity="1" d="M 282.71875 355.269531 C 282.71875 350.53125 282.71875 345.796875 282.71875 341.058594 C 280.882812 341.144531 279.046875 341.226562 277.207031 341.308594 C 277.207031 341.796875 277.207031 342.28125 277.207031 342.769531 C 279.136719 342.769531 279.355469 342.769531 279.355469 343.984375 C 279.355469 349.714844 279.355469 355.445312 279.355469 361.175781 C 278.640625 361.175781 277.925781 361.175781 277.207031 361.175781 C 277.207031 361.664062 277.207031 362.148438 277.207031 362.636719 C 278.359375 362.605469 279.824219 362.542969 280.945312 362.542969 C 282.09375 362.542969 283.589844 362.605469 284.710938 362.636719 C 284.710938 362.148438 284.710938 361.664062 284.710938 361.175781 C 283.992188 361.175781 283.277344 361.175781 282.5625 361.175781 C 282.5625 359.859375 282.5625 358.542969 282.5625 357.226562 C 283.464844 356.511719 283.714844 356.324219 284.335938 355.890625 C 285.382812 357.195312 286.433594 358.5 287.480469 359.808594 C 287.761719 360.179688 288.257812 360.800781 288.257812 360.894531 C 288.257812 361.175781 287.699219 361.175781 287.292969 361.175781 C 287.292969 361.664062 287.292969 362.148438 287.292969 362.636719 C 288.226562 362.574219 290.933594 362.542969 291.089844 362.542969 C 292.210938 362.542969 293.269531 362.574219 294.328125 362.636719 C 294.328125 362.148438 294.328125 361.664062 294.328125 361.175781 C 294.152344 361.175781 293.972656 361.175781 293.796875 361.175781 C 292.460938 361.175781 292.367188 361.050781 291.960938 360.554688 C 290.207031 358.367188 288.457031 356.179688 286.703125 353.992188 C 288.050781 352.945312 289.398438 351.898438 290.746094 350.855469 C 291.183594 350.511719 291.464844 350.292969 293.550781 350.292969 C 293.550781 349.808594 293.550781 349.320312 293.550781 348.832031 C 292.707031 348.925781 291.929688 348.925781 291.121094 348.925781 C 290.28125 348.925781 288.257812 348.863281 287.542969 348.832031 C 287.542969 349.320312 287.542969 349.808594 287.542969 350.292969 C 288.257812 350.292969 288.351562 350.386719 288.601562 350.636719 C 286.640625 352.179688 284.679688 353.722656 282.71875 355.269531 Z M 282.71875 355.269531 "/>
<path fill-rule="nonzero" fill="rgb(98.823529%, 38.431373%, 33.333333%)" fill-opacity="1" d="M 304.316406 341.710938 C 303.972656 341.339844 303.941406 341.308594 303.289062 341.308594 C 300.914062 341.308594 298.539062 341.308594 296.160156 341.308594 C 296.160156 341.796875 296.160156 342.28125 296.160156 342.769531 C 297.28125 342.769531 298.402344 342.769531 299.523438 342.769531 C 299.523438 348.605469 299.523438 354.4375 299.523438 360.273438 C 299.523438 360.957031 299.492188 360.988281 298.621094 361.082031 C 297.875 361.175781 297.8125 361.175781 296.941406 361.175781 C 296.679688 361.175781 296.421875 361.175781 296.160156 361.175781 C 296.160156 361.664062 296.160156 362.148438 296.160156 362.636719 C 297.34375 362.542969 299.117188 362.542969 300.332031 362.542969 C 301.640625 362.542969 303.257812 362.542969 304.535156 362.636719 C 304.535156 362.148438 304.535156 361.664062 304.535156 361.175781 C 304.273438 361.175781 304.015625 361.175781 303.757812 361.175781 C 303.195312 361.175781 302.667969 361.144531 302.105469 361.082031 C 301.203125 360.988281 301.171875 360.957031 301.171875 360.273438 C 301.171875 354.855469 301.171875 349.433594 301.171875 344.011719 C 306.339844 350.085938 311.507812 356.160156 316.671875 362.234375 C 316.984375 362.605469 317.015625 362.636719 317.511719 362.636719 C 318.351562 362.636719 318.351562 362.355469 318.351562 361.640625 C 318.351562 355.652344 318.351562 349.660156 318.351562 343.671875 C 318.351562 342.988281 318.382812 342.957031 319.257812 342.863281 C 320.003906 342.769531 320.066406 342.769531 320.9375 342.769531 C 321.195312 342.769531 321.457031 342.769531 321.714844 342.769531 C 321.714844 342.28125 321.714844 341.796875 321.714844 341.308594 C 320.53125 341.402344 318.757812 341.402344 317.542969 341.402344 C 316.238281 341.402344 314.617188 341.402344 313.34375 341.308594 C 313.34375 341.796875 313.34375 342.28125 313.34375 342.769531 C 313.601562 342.769531 313.859375 342.769531 314.121094 342.769531 C 314.679688 342.769531 315.210938 342.800781 315.769531 342.863281 C 316.671875 342.957031 316.703125 342.988281 316.703125 343.671875 C 316.703125 347.867188 316.703125 352.066406 316.703125 356.261719 C 312.574219 351.414062 308.445312 346.5625 304.316406 341.710938 Z M 304.316406 341.710938 "/>
<path fill="none" stroke-width="0.04" stroke-linecap="butt" stroke-linejoin="miter" stroke="rgb(60.392157%, 44.705882%, 67.45098%)" stroke-opacity="1" stroke-miterlimit="10" d="M -5.185279 -1.428314 C -5.133637 -1.448459 -5.081994 -1.468603 -5.030352 -1.488683 " transform="matrix(59.98276, 0, 0, -59.918212, 338.5, 221.5)"/>
<path fill="none" stroke-width="0.04" stroke-linecap="butt" stroke-linejoin="miter" stroke="rgb(60.392157%, 44.705882%, 67.45098%)" stroke-opacity="1" stroke-miterlimit="10" d="M -4.865656 -1.552898 C -4.814013 -1.573043 -4.762371 -1.593187 -4.710729 -1.613332 " transform="matrix(59.98276, 0, 0, -59.918212, 338.5, 221.5)"/>
<path fill="none" stroke-width="0.04" stroke-linecap="butt" stroke-linejoin="miter" stroke="rgb(60.392157%, 44.705882%, 67.45098%)" stroke-opacity="1" stroke-miterlimit="10" d="M -4.546098 -1.677547 C -4.494455 -1.697627 -4.442748 -1.717771 -4.391105 -1.737916 " transform="matrix(59.98276, 0, 0, -59.918212, 338.5, 221.5)"/>
<path fill="none" stroke-width="0.04" stroke-linecap="butt" stroke-linejoin="miter" stroke="rgb(60.392157%, 44.705882%, 67.45098%)" stroke-opacity="1" stroke-miterlimit="10" d="M -4.226475 -1.802131 C -4.174832 -1.822276 -4.12319 -1.84242 -4.071548 -1.862565 " transform="matrix(59.98276, 0, 0, -59.918212, 338.5, 221.5)"/>
<path fill="none" stroke-width="0.04" stroke-linecap="butt" stroke-linejoin="miter" stroke="rgb(60.392157%, 44.705882%, 67.45098%)" stroke-opacity="1" stroke-miterlimit="10" d="M -3.906917 -1.926715 C -3.855209 -1.94686 -3.803567 -1.967004 -3.751924 -1.987149 " transform="matrix(59.98276, 0, 0, -59.918212, 338.5, 221.5)"/>
<path fill="none" stroke-width="0.04" stroke-linecap="butt" stroke-linejoin="miter" stroke="rgb(60.392157%, 44.705882%, 67.45098%)" stroke-opacity="1" stroke-miterlimit="10" d="M -3.587294 -2.051364 C -3.535651 -2.071509 -3.484009 -2.091653 -3.432366 -2.111798 " transform="matrix(59.98276, 0, 0, -59.918212, 338.5, 221.5)"/>
<path fill="none" stroke-width="0.04" stroke-linecap="butt" stroke-linejoin="miter" stroke="rgb(60.392157%, 44.705882%, 67.45098%)" stroke-opacity="1" stroke-miterlimit="10" d="M -3.267671 -2.175948 C -3.216028 -2.196093 -3.164386 -2.216237 -3.112743 -2.236382 " transform="matrix(59.98276, 0, 0, -59.918212, 338.5, 221.5)"/>
<path fill="none" stroke-width="0.04" stroke-linecap="butt" stroke-linejoin="miter" stroke="rgb(60.392157%, 44.705882%, 67.45098%)" stroke-opacity="1" stroke-miterlimit="10" d="M -2.948113 -2.300597 C -2.89647 -2.320742 -2.844828 -2.340886 -2.79312 -2.361031 " transform="matrix(59.98276, 0, 0, -59.918212, 338.5, 221.5)"/>
<path fill="none" stroke-width="0.04" stroke-linecap="butt" stroke-linejoin="miter" stroke="rgb(60.392157%, 44.705882%, 67.45098%)" stroke-opacity="1" stroke-miterlimit="10" d="M -2.62849 -2.425181 C -2.576847 -2.445326 -2.525205 -2.46547 -2.473562 -2.485615 " transform="matrix(59.98276, 0, 0, -59.918212, 338.5, 221.5)"/>
<path fill="none" stroke-width="0.04" stroke-linecap="butt" stroke-linejoin="miter" stroke="rgb(60.392157%, 44.705882%, 67.45098%)" stroke-opacity="1" stroke-miterlimit="10" d="M -2.308932 -2.54983 C -2.257289 -2.569975 -2.205582 -2.590054 -2.153939 -2.610199 " transform="matrix(59.98276, 0, 0, -59.918212, 338.5, 221.5)"/>
<path fill="none" stroke-width="0.04" stroke-linecap="butt" stroke-linejoin="miter" stroke="rgb(60.392157%, 44.705882%, 67.45098%)" stroke-opacity="1" stroke-miterlimit="10" d="M -1.989309 -2.674414 C -1.937666 -2.694558 -1.886024 -2.714703 -1.834381 -2.734848 " transform="matrix(59.98276, 0, 0, -59.918212, 338.5, 221.5)"/>
<path fill="none" stroke-width="0.04" stroke-linecap="butt" stroke-linejoin="miter" stroke="rgb(60.392157%, 44.705882%, 67.45098%)" stroke-opacity="1" stroke-miterlimit="10" d="M -1.669685 -2.799063 C -1.618043 -2.819142 -1.566401 -2.839287 -1.514758 -2.859432 " transform="matrix(59.98276, 0, 0, -59.918212, 338.5, 221.5)"/>
<path fill="none" stroke-width="0.04" stroke-linecap="butt" stroke-linejoin="miter" stroke="rgb(60.392157%, 44.705882%, 67.45098%)" stroke-opacity="1" stroke-miterlimit="10" d="M -1.350128 -2.923647 C -1.298485 -2.943791 -1.246843 -2.963936 -1.195135 -2.984081 " transform="matrix(59.98276, 0, 0, -59.918212, 338.5, 221.5)"/>
<path fill="none" stroke-width="0.04" stroke-linecap="butt" stroke-linejoin="miter" stroke="rgb(60.392157%, 44.705882%, 67.45098%)" stroke-opacity="1" stroke-miterlimit="10" d="M -1.030504 -3.048231 C -0.978862 -3.068375 -0.92722 -3.08852 -0.875577 -3.108665 " transform="matrix(59.98276, 0, 0, -59.918212, 338.5, 221.5)"/>
<path fill="none" stroke-width="0.04" stroke-linecap="butt" stroke-linejoin="miter" stroke="rgb(60.392157%, 44.705882%, 67.45098%)" stroke-opacity="1" stroke-miterlimit="10" d="M -0.710946 -3.17288 C -0.659304 -3.193024 -0.607596 -3.213169 -0.555954 -3.233314 " transform="matrix(59.98276, 0, 0, -59.918212, 338.5, 221.5)"/>
<path fill="none" stroke-width="0.04" stroke-linecap="butt" stroke-linejoin="miter" stroke="rgb(60.392157%, 44.705882%, 67.45098%)" stroke-opacity="1" stroke-miterlimit="10" d="M -0.391323 -3.297464 C -0.339681 -3.317608 -0.288038 -3.337753 -0.236396 -3.357898 " transform="matrix(59.98276, 0, 0, -59.918212, 338.5, 221.5)"/>
<path fill="none" stroke-width="0.04" stroke-linecap="butt" stroke-linejoin="miter" stroke="rgb(60.392157%, 44.705882%, 67.45098%)" stroke-opacity="1" stroke-miterlimit="10" d="M -0.0717654 -3.422113 C -0.0200578 -3.442257 0.0315846 -3.462402 0.083227 -3.482481 " transform="matrix(59.98276, 0, 0, -59.918212, 338.5, 221.5)"/>
<path fill="none" stroke-width="0.04" stroke-linecap="butt" stroke-linejoin="miter" stroke="rgb(60.392157%, 44.705882%, 67.45098%)" stroke-opacity="1" stroke-miterlimit="10" d="M 0.083227 -3.482481 C 0.136432 -3.462402 0.189638 -3.442257 0.242843 -3.422113 " transform="matrix(59.98276, 0, 0, -59.918212, 338.5, 221.5)"/>
<path fill="none" stroke-width="0.04" stroke-linecap="butt" stroke-linejoin="miter" stroke="rgb(60.392157%, 44.705882%, 67.45098%)" stroke-opacity="1" stroke-miterlimit="10" d="M 0.412488 -3.357898 C 0.465694 -3.337753 0.518899 -3.317608 0.572104 -3.297464 " transform="matrix(59.98276, 0, 0, -59.918212, 338.5, 221.5)"/>
<path fill="none" stroke-width="0.04" stroke-linecap="butt" stroke-linejoin="miter" stroke="rgb(60.392157%, 44.705882%, 67.45098%)" stroke-opacity="1" stroke-miterlimit="10" d="M 0.741684 -3.233314 C 0.79489 -3.213169 0.848095 -3.193024 0.901301 -3.17288 " transform="matrix(59.98276, 0, 0, -59.918212, 338.5, 221.5)"/>
<path fill="none" stroke-width="0.04" stroke-linecap="butt" stroke-linejoin="miter" stroke="rgb(60.392157%, 44.705882%, 67.45098%)" stroke-opacity="1" stroke-miterlimit="10" d="M 1.070946 -3.108665 C 1.124151 -3.08852 1.177357 -3.068375 1.230562 -3.048231 " transform="matrix(59.98276, 0, 0, -59.918212, 338.5, 221.5)"/>
<path fill="none" stroke-width="0.04" stroke-linecap="butt" stroke-linejoin="miter" stroke="rgb(60.392157%, 44.705882%, 67.45098%)" stroke-opacity="1" stroke-miterlimit="10" d="M 1.400207 -2.984081 C 1.453412 -2.963936 1.506618 -2.943791 1.559823 -2.923647 " transform="matrix(59.98276, 0, 0, -59.918212, 338.5, 221.5)"/>
<path fill="none" stroke-width="0.04" stroke-linecap="butt" stroke-linejoin="miter" stroke="rgb(60.392157%, 44.705882%, 67.45098%)" stroke-opacity="1" stroke-miterlimit="10" d="M 1.729403 -2.859432 C 1.782609 -2.839287 1.835814 -2.819142 1.889084 -2.799063 " transform="matrix(59.98276, 0, 0, -59.918212, 338.5, 221.5)"/>
<path fill="none" stroke-width="0.04" stroke-linecap="butt" stroke-linejoin="miter" stroke="rgb(60.392157%, 44.705882%, 67.45098%)" stroke-opacity="1" stroke-miterlimit="10" d="M 2.058664 -2.734848 C 2.11187 -2.714703 2.165075 -2.694558 2.218281 -2.674414 " transform="matrix(59.98276, 0, 0, -59.918212, 338.5, 221.5)"/>
<path fill="none" stroke-width="0.04" stroke-linecap="butt" stroke-linejoin="miter" stroke="rgb(60.392157%, 44.705882%, 67.45098%)" stroke-opacity="1" stroke-miterlimit="10" d="M 2.387926 -2.610199 C 2.441131 -2.590054 2.494337 -2.569975 2.547542 -2.54983 " transform="matrix(59.98276, 0, 0, -59.918212, 338.5, 221.5)"/>
<path fill="none" stroke-width="0.04" stroke-linecap="butt" stroke-linejoin="miter" stroke="rgb(60.392157%, 44.705882%, 67.45098%)" stroke-opacity="1" stroke-miterlimit="10" d="M 2.717122 -2.485615 C 2.770327 -2.46547 2.823598 -2.445326 2.876803 -2.425181 " transform="matrix(59.98276, 0, 0, -59.918212, 338.5, 221.5)"/>
<path fill="none" stroke-width="0.04" stroke-linecap="butt" stroke-linejoin="miter" stroke="rgb(60.392157%, 44.705882%, 67.45098%)" stroke-opacity="1" stroke-miterlimit="10" d="M 3.046383 -2.361031 C 3.099589 -2.340886 3.152794 -2.320742 3.205999 -2.300597 " transform="matrix(59.98276, 0, 0, -59.918212, 338.5, 221.5)"/>
<path fill="none" stroke-width="0.04" stroke-linecap="butt" stroke-linejoin="miter" stroke="rgb(60.392157%, 44.705882%, 67.45098%)" stroke-opacity="1" stroke-miterlimit="10" d="M 3.375644 -2.236382 C 3.42885 -2.216237 3.482055 -2.196093 3.535261 -2.175948 " transform="matrix(59.98276, 0, 0, -59.918212, 338.5, 221.5)"/>
<path fill="none" stroke-width="0.04" stroke-linecap="butt" stroke-linejoin="miter" stroke="rgb(60.392157%, 44.705882%, 67.45098%)" stroke-opacity="1" stroke-miterlimit="10" d="M 3.704841 -2.111798 C 3.758111 -2.091653 3.811316 -2.071509 3.864522 -2.051364 " transform="matrix(59.98276, 0, 0, -59.918212, 338.5, 221.5)"/>
<path fill="none" stroke-width="0.04" stroke-linecap="butt" stroke-linejoin="miter" stroke="rgb(60.392157%, 44.705882%, 67.45098%)" stroke-opacity="1" stroke-miterlimit="10" d="M 4.034102 -1.987149 C 4.087307 -1.967004 4.140513 -1.94686 4.193718 -1.926715 " transform="matrix(59.98276, 0, 0, -59.918212, 338.5, 221.5)"/>
<path fill="none" stroke-width="0.04" stroke-linecap="butt" stroke-linejoin="miter" stroke="rgb(60.392157%, 44.705882%, 67.45098%)" stroke-opacity="1" stroke-miterlimit="10" d="M 4.363363 -1.862565 C 4.416569 -1.84242 4.469774 -1.822276 4.522979 -1.802131 " transform="matrix(59.98276, 0, 0, -59.918212, 338.5, 221.5)"/>
<path fill="none" stroke-width="0.04" stroke-linecap="butt" stroke-linejoin="miter" stroke="rgb(60.392157%, 44.705882%, 67.45098%)" stroke-opacity="1" stroke-miterlimit="10" d="M 4.692624 -1.737916 C 4.74583 -1.717771 4.799035 -1.697627 4.852241 -1.677547 " transform="matrix(59.98276, 0, 0, -59.918212, 338.5, 221.5)"/>
<path fill="none" stroke-width="0.04" stroke-linecap="butt" stroke-linejoin="miter" stroke="rgb(60.392157%, 44.705882%, 67.45098%)" stroke-opacity="1" stroke-miterlimit="10" d="M 5.021821 -1.613332 C 5.075026 -1.593187 5.128231 -1.573043 5.181437 -1.552898 " transform="matrix(59.98276, 0, 0, -59.918212, 338.5, 221.5)"/>
<path fill="none" stroke-width="0.04" stroke-linecap="butt" stroke-linejoin="miter" stroke="rgb(60.392157%, 44.705882%, 67.45098%)" stroke-opacity="1" stroke-miterlimit="10" d="M 5.351082 -1.488683 C 5.404287 -1.468603 5.457493 -1.448459 5.510698 -1.428314 " transform="matrix(59.98276, 0, 0, -59.918212, 338.5, 221.5)"/>
<path fill="none" stroke-width="0.04" stroke-linecap="butt" stroke-linejoin="miter" stroke="rgb(60.392157%, 44.705882%, 67.45098%)" stroke-opacity="1" stroke-miterlimit="10" d="M 5.510698 -1.428314 C 5.473708 -1.400281 5.436718 -1.372248 5.399663 -1.344215 " transform="matrix(59.98276, 0, 0, -59.918212, 338.5, 221.5)"/>
<path fill="none" stroke-width="0.04" stroke-linecap="butt" stroke-linejoin="miter" stroke="rgb(60.392157%, 44.705882%, 67.45098%)" stroke-opacity="1" stroke-miterlimit="10" d="M 5.283875 -1.256465 C 5.24682 -1.228432 5.20983 -1.200399 5.172841 -1.172366 " transform="matrix(59.98276, 0, 0, -59.918212, 338.5, 221.5)"/>
<path fill="none" stroke-width="0.04" stroke-linecap="butt" stroke-linejoin="miter" stroke="rgb(60.392157%, 44.705882%, 67.45098%)" stroke-opacity="1" stroke-miterlimit="10" d="M 5.056987 -1.084617 C 5.019997 -1.056583 4.983007 -1.028616 4.946018 -1.000583 " transform="matrix(59.98276, 0, 0, -59.918212, 338.5, 221.5)"/>
<path fill="none" stroke-width="0.04" stroke-linecap="butt" stroke-linejoin="miter" stroke="rgb(60.392157%, 44.705882%, 67.45098%)" stroke-opacity="1" stroke-miterlimit="10" d="M 4.830164 -0.912833 C 4.793174 -0.8848 4.756119 -0.856767 4.719129 -0.828734 " transform="matrix(59.98276, 0, 0, -59.918212, 338.5, 221.5)"/>
<path fill="none" stroke-width="0.04" stroke-linecap="butt" stroke-linejoin="miter" stroke="rgb(60.392157%, 44.705882%, 67.45098%)" stroke-opacity="1" stroke-miterlimit="10" d="M 4.603276 -0.740984 C 4.566286 -0.712951 4.529296 -0.684918 4.492306 -0.656885 " transform="matrix(59.98276, 0, 0, -59.918212, 338.5, 221.5)"/>
<path fill="none" stroke-width="0.04" stroke-linecap="butt" stroke-linejoin="miter" stroke="rgb(60.392157%, 44.705882%, 67.45098%)" stroke-opacity="1" stroke-miterlimit="10" d="M 4.376453 -0.569135 C 4.339463 -0.541167 4.302473 -0.513134 4.265418 -0.485101 " transform="matrix(59.98276, 0, 0, -59.918212, 338.5, 221.5)"/>
<path fill="none" stroke-width="0.04" stroke-linecap="butt" stroke-linejoin="miter" stroke="rgb(60.392157%, 44.705882%, 67.45098%)" stroke-opacity="1" stroke-miterlimit="10" d="M 4.14963 -0.397352 C 4.112575 -0.369319 4.075585 -0.341286 4.038595 -0.313253 " transform="matrix(59.98276, 0, 0, -59.918212, 338.5, 221.5)"/>
<path fill="none" stroke-width="0.04" stroke-linecap="butt" stroke-linejoin="miter" stroke="rgb(60.392157%, 44.705882%, 67.45098%)" stroke-opacity="1" stroke-miterlimit="10" d="M 3.922742 -0.225503 C 3.885752 -0.19747 3.848762 -0.169437 3.811707 -0.141404 " transform="matrix(59.98276, 0, 0, -59.918212, 338.5, 221.5)"/>
<path fill="none" stroke-width="0.04" stroke-linecap="butt" stroke-linejoin="miter" stroke="rgb(60.392157%, 44.705882%, 67.45098%)" stroke-opacity="1" stroke-miterlimit="10" d="M 3.695919 -0.0537191 C 3.658864 -0.0256861 3.621874 0.00234695 3.584884 0.03038 " transform="matrix(59.98276, 0, 0, -59.918212, 338.5, 221.5)"/>
<path fill="none" stroke-width="0.04" stroke-linecap="butt" stroke-linejoin="miter" stroke="rgb(60.392157%, 44.705882%, 67.45098%)" stroke-opacity="1" stroke-miterlimit="10" d="M 3.469031 0.11813 C 3.432041 0.146163 3.395051 0.174196 3.358061 0.202229 " transform="matrix(59.98276, 0, 0, -59.918212, 338.5, 221.5)"/>
<path fill="none" stroke-width="0.04" stroke-linecap="butt" stroke-linejoin="miter" stroke="rgb(60.392157%, 44.705882%, 67.45098%)" stroke-opacity="1" stroke-miterlimit="10" d="M 3.242208 0.289979 C 3.205218 0.318012 3.168163 0.346045 3.131173 0.374078 " transform="matrix(59.98276, 0, 0, -59.918212, 338.5, 221.5)"/>
<path fill="none" stroke-width="0.04" stroke-linecap="butt" stroke-linejoin="miter" stroke="rgb(60.392157%, 44.705882%, 67.45098%)" stroke-opacity="1" stroke-miterlimit="10" d="M 3.01532 0.461762 C 2.97833 0.489795 2.94134 0.517828 2.90435 0.545861 " transform="matrix(59.98276, 0, 0, -59.918212, 338.5, 221.5)"/>
<path fill="none" stroke-width="0.04" stroke-linecap="butt" stroke-linejoin="miter" stroke="rgb(60.392157%, 44.705882%, 67.45098%)" stroke-opacity="1" stroke-miterlimit="10" d="M 2.788497 0.633611 C 2.751507 0.661644 2.714452 0.689677 2.677462 0.71771 " transform="matrix(59.98276, 0, 0, -59.918212, 338.5, 221.5)"/>
<path fill="none" stroke-width="0.04" stroke-linecap="butt" stroke-linejoin="miter" stroke="rgb(60.392157%, 44.705882%, 67.45098%)" stroke-opacity="1" stroke-miterlimit="10" d="M 2.561608 0.80546 C 2.524619 0.833493 2.487629 0.861526 2.450639 0.889494 " transform="matrix(59.98276, 0, 0, -59.918212, 338.5, 221.5)"/>
<path fill="none" stroke-width="0.04" stroke-linecap="butt" stroke-linejoin="miter" stroke="rgb(60.392157%, 44.705882%, 67.45098%)" stroke-opacity="1" stroke-miterlimit="10" d="M 2.334785 0.977244 C 2.297796 1.005277 2.260806 1.03331 2.223751 1.061343 " transform="matrix(59.98276, 0, 0, -59.918212, 338.5, 221.5)"/>
<path fill="none" stroke-width="0.04" stroke-linecap="butt" stroke-linejoin="miter" stroke="rgb(60.392157%, 44.705882%, 67.45098%)" stroke-opacity="1" stroke-miterlimit="10" d="M 2.107962 1.149092 C 2.070908 1.177125 2.033918 1.205158 1.996928 1.233191 " transform="matrix(59.98276, 0, 0, -59.918212, 338.5, 221.5)"/>
<path fill="none" stroke-width="0.04" stroke-linecap="butt" stroke-linejoin="miter" stroke="rgb(60.392157%, 44.705882%, 67.45098%)" stroke-opacity="1" stroke-miterlimit="10" d="M 1.881074 1.320941 C 1.844085 1.348974 1.807095 1.376942 1.77004 1.404975 " transform="matrix(59.98276, 0, 0, -59.918212, 338.5, 221.5)"/>
<path fill="none" stroke-width="0.04" stroke-linecap="butt" stroke-linejoin="miter" stroke="rgb(60.392157%, 44.705882%, 67.45098%)" stroke-opacity="1" stroke-miterlimit="10" d="M 1.654251 1.492725 C 1.617196 1.520758 1.580207 1.548791 1.543217 1.576824 " transform="matrix(59.98276, 0, 0, -59.918212, 338.5, 221.5)"/>
<path fill="none" stroke-width="0.04" stroke-linecap="butt" stroke-linejoin="miter" stroke="rgb(60.392157%, 44.705882%, 67.45098%)" stroke-opacity="1" stroke-miterlimit="10" d="M 1.427363 1.664574 C 1.390373 1.692607 1.353384 1.72064 1.316394 1.748673 " transform="matrix(59.98276, 0, 0, -59.918212, 338.5, 221.5)"/>
<path fill="none" stroke-width="0.04" stroke-linecap="butt" stroke-linejoin="miter" stroke="rgb(60.392157%, 44.705882%, 67.45098%)" stroke-opacity="1" stroke-miterlimit="10" d="M 1.20054 1.836423 C 1.16355 1.864456 1.126496 1.892423 1.089506 1.920456 " transform="matrix(59.98276, 0, 0, -59.918212, 338.5, 221.5)"/>
<path fill="none" stroke-width="0.04" stroke-linecap="butt" stroke-linejoin="miter" stroke="rgb(60.392157%, 44.705882%, 67.45098%)" stroke-opacity="1" stroke-miterlimit="10" d="M 0.973652 2.008206 C 0.936662 2.036239 0.899673 2.064272 0.862683 2.092305 " transform="matrix(59.98276, 0, 0, -59.918212, 338.5, 221.5)"/>
<path fill="none" stroke-width="0.04" stroke-linecap="butt" stroke-linejoin="miter" stroke="rgb(60.392157%, 44.705882%, 67.45098%)" stroke-opacity="1" stroke-miterlimit="10" d="M 0.746829 2.180055 C 0.709839 2.208088 0.672784 2.236121 0.635795 2.264154 " transform="matrix(59.98276, 0, 0, -59.918212, 338.5, 221.5)"/>
<path fill="none" stroke-width="0.04" stroke-linecap="butt" stroke-linejoin="miter" stroke="rgb(60.392157%, 44.705882%, 67.45098%)" stroke-opacity="1" stroke-miterlimit="10" d="M 0.520006 2.351904 C 0.482951 2.379872 0.445961 2.407905 0.408972 2.435938 " transform="matrix(59.98276, 0, 0, -59.918212, 338.5, 221.5)"/>
<path fill="none" stroke-width="0.04" stroke-linecap="butt" stroke-linejoin="miter" stroke="rgb(60.392157%, 44.705882%, 67.45098%)" stroke-opacity="1" stroke-miterlimit="10" d="M 0.293118 2.523688 C 0.256128 2.551721 0.219138 2.579754 0.182084 2.607787 " transform="matrix(59.98276, 0, 0, -59.918212, 338.5, 221.5)"/>
<path fill="none" stroke-width="0.04" stroke-linecap="butt" stroke-linejoin="miter" stroke="rgb(60.392157%, 44.705882%, 67.45098%)" stroke-opacity="1" stroke-miterlimit="10" d="M 0.182084 2.607787 C 0.144833 2.579754 0.107583 2.551721 0.0702676 2.523688 " transform="matrix(59.98276, 0, 0, -59.918212, 338.5, 221.5)"/>
<path fill="none" stroke-width="0.04" stroke-linecap="butt" stroke-linejoin="miter" stroke="rgb(60.392157%, 44.705882%, 67.45098%)" stroke-opacity="1" stroke-miterlimit="10" d="M -0.0463675 2.435938 C -0.0836829 2.407905 -0.120933 2.379872 -0.158183 2.351904 " transform="matrix(59.98276, 0, 0, -59.918212, 338.5, 221.5)"/>
<path fill="none" stroke-width="0.04" stroke-linecap="butt" stroke-linejoin="miter" stroke="rgb(60.392157%, 44.705882%, 67.45098%)" stroke-opacity="1" stroke-miterlimit="10" d="M -0.274884 2.264154 C -0.312199 2.236121 -0.349449 2.208088 -0.3867 2.180055 " transform="matrix(59.98276, 0, 0, -59.918212, 338.5, 221.5)"/>
<path fill="none" stroke-width="0.04" stroke-linecap="butt" stroke-linejoin="miter" stroke="rgb(60.392157%, 44.705882%, 67.45098%)" stroke-opacity="1" stroke-miterlimit="10" d="M -0.5034 2.092305 C -0.54065 2.064272 -0.577966 2.036239 -0.615216 2.008206 " transform="matrix(59.98276, 0, 0, -59.918212, 338.5, 221.5)"/>
<path fill="none" stroke-width="0.04" stroke-linecap="butt" stroke-linejoin="miter" stroke="rgb(60.392157%, 44.705882%, 67.45098%)" stroke-opacity="1" stroke-miterlimit="10" d="M -0.731916 1.920456 C -0.769166 1.892423 -0.806417 1.864456 -0.843732 1.836423 " transform="matrix(59.98276, 0, 0, -59.918212, 338.5, 221.5)"/>
<path fill="none" stroke-width="0.04" stroke-linecap="butt" stroke-linejoin="miter" stroke="rgb(60.392157%, 44.705882%, 67.45098%)" stroke-opacity="1" stroke-miterlimit="10" d="M -0.960432 1.748673 C -0.997683 1.72064 -1.034933 1.692607 -1.072248 1.664574 " transform="matrix(59.98276, 0, 0, -59.918212, 338.5, 221.5)"/>
<path fill="none" stroke-width="0.04" stroke-linecap="butt" stroke-linejoin="miter" stroke="rgb(60.392157%, 44.705882%, 67.45098%)" stroke-opacity="1" stroke-miterlimit="10" d="M -1.188883 1.576824 C -1.226199 1.548791 -1.263449 1.520758 -1.300699 1.492725 " transform="matrix(59.98276, 0, 0, -59.918212, 338.5, 221.5)"/>
<path fill="none" stroke-width="0.04" stroke-linecap="butt" stroke-linejoin="miter" stroke="rgb(60.392157%, 44.705882%, 67.45098%)" stroke-opacity="1" stroke-miterlimit="10" d="M -1.417399 1.404975 C -1.454715 1.376942 -1.491965 1.348974 -1.529215 1.320941 " transform="matrix(59.98276, 0, 0, -59.918212, 338.5, 221.5)"/>
<path fill="none" stroke-width="0.04" stroke-linecap="butt" stroke-linejoin="miter" stroke="rgb(60.392157%, 44.705882%, 67.45098%)" stroke-opacity="1" stroke-miterlimit="10" d="M -1.645916 1.233191 C -1.683166 1.205158 -1.720481 1.177125 -1.757732 1.149092 " transform="matrix(59.98276, 0, 0, -59.918212, 338.5, 221.5)"/>
<path fill="none" stroke-width="0.04" stroke-linecap="butt" stroke-linejoin="miter" stroke="rgb(60.392157%, 44.705882%, 67.45098%)" stroke-opacity="1" stroke-miterlimit="10" d="M -1.874432 1.061343 C -1.911682 1.03331 -1.948932 1.005277 -1.986248 0.977244 " transform="matrix(59.98276, 0, 0, -59.918212, 338.5, 221.5)"/>
<path fill="none" stroke-width="0.04" stroke-linecap="butt" stroke-linejoin="miter" stroke="rgb(60.392157%, 44.705882%, 67.45098%)" stroke-opacity="1" stroke-miterlimit="10" d="M -2.102948 0.889494 C -2.140198 0.861526 -2.177449 0.833493 -2.214764 0.80546 " transform="matrix(59.98276, 0, 0, -59.918212, 338.5, 221.5)"/>
<path fill="none" stroke-width="0.04" stroke-linecap="butt" stroke-linejoin="miter" stroke="rgb(60.392157%, 44.705882%, 67.45098%)" stroke-opacity="1" stroke-miterlimit="10" d="M -2.331399 0.71771 C -2.368714 0.689677 -2.405965 0.661644 -2.443215 0.633611 " transform="matrix(59.98276, 0, 0, -59.918212, 338.5, 221.5)"/>
<path fill="none" stroke-width="0.04" stroke-linecap="butt" stroke-linejoin="miter" stroke="rgb(60.392157%, 44.705882%, 67.45098%)" stroke-opacity="1" stroke-miterlimit="10" d="M -2.559915 0.545861 C -2.597166 0.517828 -2.634481 0.489795 -2.671731 0.461762 " transform="matrix(59.98276, 0, 0, -59.918212, 338.5, 221.5)"/>
<path fill="none" stroke-width="0.04" stroke-linecap="butt" stroke-linejoin="miter" stroke="rgb(60.392157%, 44.705882%, 67.45098%)" stroke-opacity="1" stroke-miterlimit="10" d="M -2.788431 0.374078 C -2.825682 0.346045 -2.862997 0.318012 -2.900247 0.289979 " transform="matrix(59.98276, 0, 0, -59.918212, 338.5, 221.5)"/>
<path fill="none" stroke-width="0.04" stroke-linecap="butt" stroke-linejoin="miter" stroke="rgb(60.392157%, 44.705882%, 67.45098%)" stroke-opacity="1" stroke-miterlimit="10" d="M -3.016948 0.202229 C -3.054198 0.174196 -3.091448 0.146163 -3.128764 0.11813 " transform="matrix(59.98276, 0, 0, -59.918212, 338.5, 221.5)"/>
<path fill="none" stroke-width="0.04" stroke-linecap="butt" stroke-linejoin="miter" stroke="rgb(60.392157%, 44.705882%, 67.45098%)" stroke-opacity="1" stroke-miterlimit="10" d="M -3.245464 0.03038 C -3.282714 0.00234695 -3.319964 -0.0256861 -3.35728 -0.0537191 " transform="matrix(59.98276, 0, 0, -59.918212, 338.5, 221.5)"/>
<path fill="none" stroke-width="0.04" stroke-linecap="butt" stroke-linejoin="miter" stroke="rgb(60.392157%, 44.705882%, 67.45098%)" stroke-opacity="1" stroke-miterlimit="10" d="M -3.473915 -0.141404 C -3.51123 -0.169437 -3.548481 -0.19747 -3.585731 -0.225503 " transform="matrix(59.98276, 0, 0, -59.918212, 338.5, 221.5)"/>
<path fill="none" stroke-width="0.04" stroke-linecap="butt" stroke-linejoin="miter" stroke="rgb(60.392157%, 44.705882%, 67.45098%)" stroke-opacity="1" stroke-miterlimit="10" d="M -3.702431 -0.313253 C -3.739681 -0.341286 -3.776997 -0.369319 -3.814247 -0.397352 " transform="matrix(59.98276, 0, 0, -59.918212, 338.5, 221.5)"/>
<path fill="none" stroke-width="0.04" stroke-linecap="butt" stroke-linejoin="miter" stroke="rgb(60.392157%, 44.705882%, 67.45098%)" stroke-opacity="1" stroke-miterlimit="10" d="M -3.930947 -0.485101 C -3.968197 -0.513134 -4.005513 -0.541167 -4.042763 -0.569135 " transform="matrix(59.98276, 0, 0, -59.918212, 338.5, 221.5)"/>
<path fill="none" stroke-width="0.04" stroke-linecap="butt" stroke-linejoin="miter" stroke="rgb(60.392157%, 44.705882%, 67.45098%)" stroke-opacity="1" stroke-miterlimit="10" d="M -4.159463 -0.656885 C -4.196714 -0.684918 -4.233964 -0.712951 -4.271279 -0.740984 " transform="matrix(59.98276, 0, 0, -59.918212, 338.5, 221.5)"/>
<path fill="none" stroke-width="0.04" stroke-linecap="butt" stroke-linejoin="miter" stroke="rgb(60.392157%, 44.705882%, 67.45098%)" stroke-opacity="1" stroke-miterlimit="10" d="M -4.387914 -0.828734 C -4.42523 -0.856767 -4.46248 -0.8848 -4.499796 -0.912833 " transform="matrix(59.98276, 0, 0, -59.918212, 338.5, 221.5)"/>
<path fill="none" stroke-width="0.04" stroke-linecap="butt" stroke-linejoin="miter" stroke="rgb(60.392157%, 44.705882%, 67.45098%)" stroke-opacity="1" stroke-miterlimit="10" d="M -4.616431 -1.000583 C -4.653746 -1.028616 -4.690996 -1.056583 -4.728247 -1.084617 " transform="matrix(59.98276, 0, 0, -59.918212, 338.5, 221.5)"/>
<path fill="none" stroke-width="0.04" stroke-linecap="butt" stroke-linejoin="miter" stroke="rgb(60.392157%, 44.705882%, 67.45098%)" stroke-opacity="1" stroke-miterlimit="10" d="M -4.844947 -1.172366 C -4.882197 -1.200399 -4.919513 -1.228432 -4.956763 -1.256465 " transform="matrix(59.98276, 0, 0, -59.918212, 338.5, 221.5)"/>
<path fill="none" stroke-width="0.04" stroke-linecap="butt" stroke-linejoin="miter" stroke="rgb(60.392157%, 44.705882%, 67.45098%)" stroke-opacity="1" stroke-miterlimit="10" d="M -5.073463 -1.344215 C -5.110713 -1.372248 -5.148029 -1.400281 -5.185279 -1.428314 " transform="matrix(59.98276, 0, 0, -59.918212, 338.5, 221.5)"/>
<path fill="none" stroke-width="0.04" stroke-linecap="butt" stroke-linejoin="miter" stroke="rgb(60.392157%, 44.705882%, 67.45098%)" stroke-opacity="1" stroke-miterlimit="10" d="M 0.083227 -3.482481 C 0.0842039 -3.42283 0.0851807 -3.363113 0.0861576 -3.303396 " transform="matrix(59.98276, 0, 0, -59.918212, 338.5, 221.5)"/>
<path fill="none" stroke-width="0.04" stroke-linecap="butt" stroke-linejoin="miter" stroke="rgb(60.392157%, 44.705882%, 67.45098%)" stroke-opacity="1" stroke-miterlimit="10" d="M 0.0892183 -3.113033 C 0.0901952 -3.053381 0.091172 -2.993664 0.0921489 -2.933947 " transform="matrix(59.98276, 0, 0, -59.918212, 338.5, 221.5)"/>
<path fill="none" stroke-width="0.04" stroke-linecap="butt" stroke-linejoin="miter" stroke="rgb(60.392157%, 44.705882%, 67.45098%)" stroke-opacity="1" stroke-miterlimit="10" d="M 0.0952096 -2.743584 C 0.0961865 -2.683932 0.0971633 -2.624215 0.0981402 -2.564498 " transform="matrix(59.98276, 0, 0, -59.918212, 338.5, 221.5)"/>
<path fill="none" stroke-width="0.04" stroke-linecap="butt" stroke-linejoin="miter" stroke="rgb(60.392157%, 44.705882%, 67.45098%)" stroke-opacity="1" stroke-miterlimit="10" d="M 0.101201 -2.3742 C 0.102178 -2.314483 0.103155 -2.254766 0.104131 -2.195049 " transform="matrix(59.98276, 0, 0, -59.918212, 338.5, 221.5)"/>
<path fill="none" stroke-width="0.04" stroke-linecap="butt" stroke-linejoin="miter" stroke="rgb(60.392157%, 44.705882%, 67.45098%)" stroke-opacity="1" stroke-miterlimit="10" d="M 0.107192 -2.004751 C 0.108169 -1.945034 0.109146 -1.885317 0.110123 -1.825601 " transform="matrix(59.98276, 0, 0, -59.918212, 338.5, 221.5)"/>
<path fill="none" stroke-width="0.04" stroke-linecap="butt" stroke-linejoin="miter" stroke="rgb(60.392157%, 44.705882%, 67.45098%)" stroke-opacity="1" stroke-miterlimit="10" d="M 0.113184 -1.635302 C 0.11416 -1.575585 0.115137 -1.515868 0.116114 -1.456152 " transform="matrix(59.98276, 0, 0, -59.918212, 338.5, 221.5)"/>
<path fill="none" stroke-width="0.04" stroke-linecap="butt" stroke-linejoin="miter" stroke="rgb(60.392157%, 44.705882%, 67.45098%)" stroke-opacity="1" stroke-miterlimit="10" d="M 0.11924 -1.265853 C 0.120152 -1.206136 0.121129 -1.146419 0.122105 -1.086703 " transform="matrix(59.98276, 0, 0, -59.918212, 338.5, 221.5)"/>
<path fill="none" stroke-width="0.04" stroke-linecap="butt" stroke-linejoin="miter" stroke="rgb(60.392157%, 44.705882%, 67.45098%)" stroke-opacity="1" stroke-miterlimit="10" d="M 0.125231 -0.896404 C 0.126208 -0.836687 0.12712 -0.776971 0.128097 -0.717254 " transform="matrix(59.98276, 0, 0, -59.918212, 338.5, 221.5)"/>
<path fill="none" stroke-width="0.04" stroke-linecap="butt" stroke-linejoin="miter" stroke="rgb(60.392157%, 44.705882%, 67.45098%)" stroke-opacity="1" stroke-miterlimit="10" d="M 0.131223 -0.526955 C 0.132199 -0.467238 0.133176 -0.407522 0.134088 -0.347805 " transform="matrix(59.98276, 0, 0, -59.918212, 338.5, 221.5)"/>
<path fill="none" stroke-width="0.04" stroke-linecap="butt" stroke-linejoin="miter" stroke="rgb(60.392157%, 44.705882%, 67.45098%)" stroke-opacity="1" stroke-miterlimit="10" d="M 0.137214 -0.157506 C 0.138191 -0.0977896 0.139168 -0.0380727 0.140144 0.0216441 " transform="matrix(59.98276, 0, 0, -59.918212, 338.5, 221.5)"/>
<path fill="none" stroke-width="0.04" stroke-linecap="butt" stroke-linejoin="miter" stroke="rgb(60.392157%, 44.705882%, 67.45098%)" stroke-opacity="1" stroke-miterlimit="10" d="M 0.143205 0.211943 C 0.144182 0.271659 0.145159 0.331376 0.146136 0.391093 " transform="matrix(59.98276, 0, 0, -59.918212, 338.5, 221.5)"/>
<path fill="none" stroke-width="0.04" stroke-linecap="butt" stroke-linejoin="miter" stroke="rgb(60.392157%, 44.705882%, 67.45098%)" stroke-opacity="1" stroke-miterlimit="10" d="M 0.149197 0.581391 C 0.150173 0.641108 0.15115 0.700825 0.152127 0.760542 " transform="matrix(59.98276, 0, 0, -59.918212, 338.5, 221.5)"/>
<path fill="none" stroke-width="0.04" stroke-linecap="butt" stroke-linejoin="miter" stroke="rgb(60.392157%, 44.705882%, 67.45098%)" stroke-opacity="1" stroke-miterlimit="10" d="M 0.155188 0.95084 C 0.156165 1.010557 0.157142 1.070274 0.158118 1.129991 " transform="matrix(59.98276, 0, 0, -59.918212, 338.5, 221.5)"/>
<path fill="none" stroke-width="0.04" stroke-linecap="butt" stroke-linejoin="miter" stroke="rgb(60.392157%, 44.705882%, 67.45098%)" stroke-opacity="1" stroke-miterlimit="10" d="M 0.161179 1.320289 C 0.162156 1.380006 0.163133 1.439723 0.16411 1.49944 " transform="matrix(59.98276, 0, 0, -59.918212, 338.5, 221.5)"/>
<path fill="none" stroke-width="0.04" stroke-linecap="butt" stroke-linejoin="miter" stroke="rgb(60.392157%, 44.705882%, 67.45098%)" stroke-opacity="1" stroke-miterlimit="10" d="M 0.167236 1.689738 C 0.168147 1.749455 0.169124 1.809172 0.170101 1.868889 " transform="matrix(59.98276, 0, 0, -59.918212, 338.5, 221.5)"/>
<path fill="none" stroke-width="0.04" stroke-linecap="butt" stroke-linejoin="miter" stroke="rgb(60.392157%, 44.705882%, 67.45098%)" stroke-opacity="1" stroke-miterlimit="10" d="M 0.173227 2.059187 C 0.174204 2.118904 0.175115 2.178621 0.176092 2.238338 " transform="matrix(59.98276, 0, 0, -59.918212, 338.5, 221.5)"/>
<path fill="none" stroke-width="0.04" stroke-linecap="butt" stroke-linejoin="miter" stroke="rgb(60.392157%, 44.705882%, 67.45098%)" stroke-opacity="1" stroke-miterlimit="10" d="M 0.179218 2.428636 C 0.180195 2.488353 0.181172 2.54807 0.182084 2.607787 " transform="matrix(59.98276, 0, 0, -59.918212, 338.5, 221.5)"/>
<path fill-rule="nonzero" fill="rgb(60.392157%, 44.705882%, 67.45098%)" fill-opacity="1" d="M 30.472656 307.082031 C 30.472656 306.285156 30.15625 305.523438 29.59375 304.960938 C 29.03125 304.402344 28.269531 304.085938 27.472656 304.085938 C 26.675781 304.085938 25.914062 304.402344 25.351562 304.960938 C 24.789062 305.523438 24.472656 306.285156 24.472656 307.082031 C 24.472656 307.875 24.789062 308.636719 25.351562 309.199219 C 25.914062 309.761719 26.675781 310.078125 27.472656 310.078125 C 28.269531 310.078125 29.03125 309.761719 29.59375 309.199219 C 30.15625 308.636719 30.472656 307.875 30.472656 307.082031 Z M 30.472656 307.082031 "/>
<path fill-rule="nonzero" fill="rgb(60.392157%, 44.705882%, 67.45098%)" fill-opacity="1" d="M 346.492188 430.164062 C 346.492188 429.371094 346.175781 428.609375 345.613281 428.046875 C 345.050781 427.484375 344.289062 427.171875 343.492188 427.171875 C 342.695312 427.171875 341.933594 427.484375 341.371094 428.046875 C 340.808594 428.609375 340.492188 429.371094 340.492188 430.164062 C 340.492188 430.960938 340.808594 431.722656 341.371094 432.285156 C 341.933594 432.847656 342.695312 433.160156 343.492188 433.160156 C 344.289062 433.160156 345.050781 432.847656 345.613281 432.285156 C 346.175781 431.722656 346.492188 430.960938 346.492188 430.164062 Z M 346.492188 430.164062 "/>
<path fill-rule="nonzero" fill="rgb(60.392157%, 44.705882%, 67.45098%)" fill-opacity="1" d="M 672.046875 307.082031 C 672.046875 306.285156 671.730469 305.523438 671.167969 304.960938 C 670.605469 304.402344 669.84375 304.085938 669.046875 304.085938 C 668.253906 304.085938 667.488281 304.402344 666.925781 304.960938 C 666.363281 305.523438 666.046875 306.285156 666.046875 307.082031 C 666.046875 307.875 666.363281 308.636719 666.925781 309.199219 C 667.488281 309.761719 668.253906 310.078125 669.046875 310.078125 C 669.84375 310.078125 670.605469 309.761719 671.167969 309.199219 C 671.730469 308.636719 672.046875 307.875 672.046875 307.082031 Z M 672.046875 307.082031 "/>
<path fill-rule="nonzero" fill="rgb(60.392157%, 44.705882%, 67.45098%)" fill-opacity="1" d="M 352.421875 65.246094 C 352.421875 64.453125 352.105469 63.691406 351.542969 63.128906 C 350.980469 62.566406 350.21875 62.25 349.421875 62.25 C 348.628906 62.25 347.863281 62.566406 347.300781 63.128906 C 346.742188 63.691406 346.425781 64.453125 346.425781 65.246094 C 346.425781 66.039062 346.742188 66.804688 347.300781 67.363281 C 347.863281 67.925781 348.628906 68.242188 349.421875 68.242188 C 350.21875 68.242188 350.980469 67.925781 351.542969 67.363281 C 352.105469 66.804688 352.421875 66.039062 352.421875 65.246094 Z M 352.421875 65.246094 "/>
<path fill="none" stroke-width="0.04" stroke-linecap="butt" stroke-linejoin="miter" stroke="rgb(51.372549%, 75.686275%, 40.392157%)" stroke-opacity="1" stroke-miterlimit="10" d="M -5.185279 -1.428314 C -5.13266 -1.449828 -5.08004 -1.471276 -5.027421 -1.49279 " transform="matrix(59.98276, 0, 0, -59.918212, 338.5, 221.5)"/>
<path fill="none" stroke-width="0.04" stroke-linecap="butt" stroke-linejoin="miter" stroke="rgb(51.372549%, 75.686275%, 40.392157%)" stroke-opacity="1" stroke-miterlimit="10" d="M -4.859665 -1.561373 C -4.80698 -1.582887 -4.754361 -1.604335 -4.701742 -1.625849 " transform="matrix(59.98276, 0, 0, -59.918212, 338.5, 221.5)"/>
<path fill="none" stroke-width="0.04" stroke-linecap="butt" stroke-linejoin="miter" stroke="rgb(51.372549%, 75.686275%, 40.392157%)" stroke-opacity="1" stroke-miterlimit="10" d="M -4.533985 -1.694432 C -4.481366 -1.715881 -4.428746 -1.737394 -4.376127 -1.758908 " transform="matrix(59.98276, 0, 0, -59.918212, 338.5, 221.5)"/>
<path fill="none" stroke-width="0.04" stroke-linecap="butt" stroke-linejoin="miter" stroke="rgb(51.372549%, 75.686275%, 40.392157%)" stroke-opacity="1" stroke-miterlimit="10" d="M -4.208371 -1.827491 C -4.155751 -1.84894 -4.103132 -1.870453 -4.050448 -1.891967 " transform="matrix(59.98276, 0, 0, -59.918212, 338.5, 221.5)"/>
<path fill="none" stroke-width="0.04" stroke-linecap="butt" stroke-linejoin="miter" stroke="rgb(51.372549%, 75.686275%, 40.392157%)" stroke-opacity="1" stroke-miterlimit="10" d="M -3.882691 -1.96055 C -3.830072 -1.981999 -3.777453 -2.003512 -3.724833 -2.025026 " transform="matrix(59.98276, 0, 0, -59.918212, 338.5, 221.5)"/>
<path fill="none" stroke-width="0.04" stroke-linecap="butt" stroke-linejoin="miter" stroke="rgb(51.372549%, 75.686275%, 40.392157%)" stroke-opacity="1" stroke-miterlimit="10" d="M -3.557077 -2.093544 C -3.504457 -2.115058 -3.451838 -2.136571 -3.399219 -2.158085 " transform="matrix(59.98276, 0, 0, -59.918212, 338.5, 221.5)"/>
<path fill="none" stroke-width="0.04" stroke-linecap="butt" stroke-linejoin="miter" stroke="rgb(51.372549%, 75.686275%, 40.392157%)" stroke-opacity="1" stroke-miterlimit="10" d="M -3.231462 -2.226603 C -3.178843 -2.248117 -3.126159 -2.26963 -3.073539 -2.291144 " transform="matrix(59.98276, 0, 0, -59.918212, 338.5, 221.5)"/>
<path fill="none" stroke-width="0.04" stroke-linecap="butt" stroke-linejoin="miter" stroke="rgb(51.372549%, 75.686275%, 40.392157%)" stroke-opacity="1" stroke-miterlimit="10" d="M -2.905783 -2.359662 C -2.853164 -2.381176 -2.800544 -2.402689 -2.747925 -2.424203 " transform="matrix(59.98276, 0, 0, -59.918212, 338.5, 221.5)"/>
<path fill="none" stroke-width="0.04" stroke-linecap="butt" stroke-linejoin="miter" stroke="rgb(51.372549%, 75.686275%, 40.392157%)" stroke-opacity="1" stroke-miterlimit="10" d="M -2.580168 -2.492721 C -2.527549 -2.514235 -2.47493 -2.535748 -2.422245 -2.557262 " transform="matrix(59.98276, 0, 0, -59.918212, 338.5, 221.5)"/>
<path fill="none" stroke-width="0.04" stroke-linecap="butt" stroke-linejoin="miter" stroke="rgb(51.372549%, 75.686275%, 40.392157%)" stroke-opacity="1" stroke-miterlimit="10" d="M -2.254554 -2.62578 C -2.20187 -2.647294 -2.14925 -2.668807 -2.096631 -2.690321 " transform="matrix(59.98276, 0, 0, -59.918212, 338.5, 221.5)"/>
<path fill="none" stroke-width="0.04" stroke-linecap="butt" stroke-linejoin="miter" stroke="rgb(51.372549%, 75.686275%, 40.392157%)" stroke-opacity="1" stroke-miterlimit="10" d="M -1.928875 -2.758839 C -1.876255 -2.780353 -1.823636 -2.801866 -1.771017 -2.82338 " transform="matrix(59.98276, 0, 0, -59.918212, 338.5, 221.5)"/>
<path fill="none" stroke-width="0.04" stroke-linecap="butt" stroke-linejoin="miter" stroke="rgb(51.372549%, 75.686275%, 40.392157%)" stroke-opacity="1" stroke-miterlimit="10" d="M -1.60326 -2.891898 C -1.550641 -2.913411 -1.497956 -2.934925 -1.445337 -2.956439 " transform="matrix(59.98276, 0, 0, -59.918212, 338.5, 221.5)"/>
<path fill="none" stroke-width="0.04" stroke-linecap="butt" stroke-linejoin="miter" stroke="rgb(51.372549%, 75.686275%, 40.392157%)" stroke-opacity="1" stroke-miterlimit="10" d="M -1.277581 -3.024957 C -1.224961 -3.04647 -1.172342 -3.067984 -1.119723 -3.089498 " transform="matrix(59.98276, 0, 0, -59.918212, 338.5, 221.5)"/>
<path fill="none" stroke-width="0.04" stroke-linecap="butt" stroke-linejoin="miter" stroke="rgb(51.372549%, 75.686275%, 40.392157%)" stroke-opacity="1" stroke-miterlimit="10" d="M -0.951966 -3.158016 C -0.899347 -3.179529 -0.846728 -3.201043 -0.794108 -3.222557 " transform="matrix(59.98276, 0, 0, -59.918212, 338.5, 221.5)"/>
<path fill="none" stroke-width="0.04" stroke-linecap="butt" stroke-linejoin="miter" stroke="rgb(51.372549%, 75.686275%, 40.392157%)" stroke-opacity="1" stroke-miterlimit="10" d="M -0.626352 -3.291075 C -0.573667 -3.312588 -0.521048 -3.334102 -0.468429 -3.355616 " transform="matrix(59.98276, 0, 0, -59.918212, 338.5, 221.5)"/>
<path fill="none" stroke-width="0.04" stroke-linecap="butt" stroke-linejoin="miter" stroke="rgb(51.372549%, 75.686275%, 40.392157%)" stroke-opacity="1" stroke-miterlimit="10" d="M -0.300672 -3.424134 C -0.248053 -3.445647 -0.195434 -3.467161 -0.142814 -3.488675 " transform="matrix(59.98276, 0, 0, -59.918212, 338.5, 221.5)"/>
<path fill="none" stroke-width="0.04" stroke-linecap="butt" stroke-linejoin="miter" stroke="rgb(51.372549%, 75.686275%, 40.392157%)" stroke-opacity="1" stroke-miterlimit="10" d="M 0.0249421 -3.557193 C 0.0775613 -3.578706 0.130181 -3.60022 0.182865 -3.621734 " transform="matrix(59.98276, 0, 0, -59.918212, 338.5, 221.5)"/>
<path fill="none" stroke-width="0.04" stroke-linecap="butt" stroke-linejoin="miter" stroke="rgb(51.372549%, 75.686275%, 40.392157%)" stroke-opacity="1" stroke-miterlimit="10" d="M 0.182865 -3.621734 C 0.235615 -3.60022 0.288429 -3.578706 0.341244 -3.557193 " transform="matrix(59.98276, 0, 0, -59.918212, 338.5, 221.5)"/>
<path fill="none" stroke-width="0.04" stroke-linecap="butt" stroke-linejoin="miter" stroke="rgb(51.372549%, 75.686275%, 40.392157%)" stroke-opacity="1" stroke-miterlimit="10" d="M 0.509521 -3.488675 C 0.562336 -3.467161 0.615151 -3.445647 0.6679 -3.424134 " transform="matrix(59.98276, 0, 0, -59.918212, 338.5, 221.5)"/>
<path fill="none" stroke-width="0.04" stroke-linecap="butt" stroke-linejoin="miter" stroke="rgb(51.372549%, 75.686275%, 40.392157%)" stroke-opacity="1" stroke-miterlimit="10" d="M 0.836243 -3.355616 C 0.888992 -3.334102 0.941807 -3.312588 0.994622 -3.291075 " transform="matrix(59.98276, 0, 0, -59.918212, 338.5, 221.5)"/>
<path fill="none" stroke-width="0.04" stroke-linecap="butt" stroke-linejoin="miter" stroke="rgb(51.372549%, 75.686275%, 40.392157%)" stroke-opacity="1" stroke-miterlimit="10" d="M 1.162899 -3.222557 C 1.215714 -3.201043 1.268529 -3.179529 1.321278 -3.158016 " transform="matrix(59.98276, 0, 0, -59.918212, 338.5, 221.5)"/>
<path fill="none" stroke-width="0.04" stroke-linecap="butt" stroke-linejoin="miter" stroke="rgb(51.372549%, 75.686275%, 40.392157%)" stroke-opacity="1" stroke-miterlimit="10" d="M 1.489621 -3.089498 C 1.54237 -3.067984 1.595185 -3.04647 1.648 -3.024957 " transform="matrix(59.98276, 0, 0, -59.918212, 338.5, 221.5)"/>
<path fill="none" stroke-width="0.04" stroke-linecap="butt" stroke-linejoin="miter" stroke="rgb(51.372549%, 75.686275%, 40.392157%)" stroke-opacity="1" stroke-miterlimit="10" d="M 1.816277 -2.956439 C 1.869092 -2.934925 1.921906 -2.913411 1.974656 -2.891898 " transform="matrix(59.98276, 0, 0, -59.918212, 338.5, 221.5)"/>
<path fill="none" stroke-width="0.04" stroke-linecap="butt" stroke-linejoin="miter" stroke="rgb(51.372549%, 75.686275%, 40.392157%)" stroke-opacity="1" stroke-miterlimit="10" d="M 2.142999 -2.82338 C 2.195813 -2.801866 2.248563 -2.780353 2.301377 -2.758839 " transform="matrix(59.98276, 0, 0, -59.918212, 338.5, 221.5)"/>
<path fill="none" stroke-width="0.04" stroke-linecap="butt" stroke-linejoin="miter" stroke="rgb(51.372549%, 75.686275%, 40.392157%)" stroke-opacity="1" stroke-miterlimit="10" d="M 2.469655 -2.690321 C 2.52247 -2.668807 2.575284 -2.647294 2.628099 -2.62578 " transform="matrix(59.98276, 0, 0, -59.918212, 338.5, 221.5)"/>
<path fill="none" stroke-width="0.04" stroke-linecap="butt" stroke-linejoin="miter" stroke="rgb(51.372549%, 75.686275%, 40.392157%)" stroke-opacity="1" stroke-miterlimit="10" d="M 2.796376 -2.557262 C 2.849191 -2.535748 2.901941 -2.514235 2.954755 -2.492721 " transform="matrix(59.98276, 0, 0, -59.918212, 338.5, 221.5)"/>
<path fill="none" stroke-width="0.04" stroke-linecap="butt" stroke-linejoin="miter" stroke="rgb(51.372549%, 75.686275%, 40.392157%)" stroke-opacity="1" stroke-miterlimit="10" d="M 3.123033 -2.424203 C 3.175847 -2.402689 3.228662 -2.381176 3.281477 -2.359662 " transform="matrix(59.98276, 0, 0, -59.918212, 338.5, 221.5)"/>
<path fill="none" stroke-width="0.04" stroke-linecap="butt" stroke-linejoin="miter" stroke="rgb(51.372549%, 75.686275%, 40.392157%)" stroke-opacity="1" stroke-miterlimit="10" d="M 3.449754 -2.291144 C 3.502569 -2.26963 3.555318 -2.248117 3.608133 -2.226603 " transform="matrix(59.98276, 0, 0, -59.918212, 338.5, 221.5)"/>
<path fill="none" stroke-width="0.04" stroke-linecap="butt" stroke-linejoin="miter" stroke="rgb(51.372549%, 75.686275%, 40.392157%)" stroke-opacity="1" stroke-miterlimit="10" d="M 3.776411 -2.158085 C 3.829225 -2.136571 3.88204 -2.115058 3.934855 -2.093544 " transform="matrix(59.98276, 0, 0, -59.918212, 338.5, 221.5)"/>
<path fill="none" stroke-width="0.04" stroke-linecap="butt" stroke-linejoin="miter" stroke="rgb(51.372549%, 75.686275%, 40.392157%)" stroke-opacity="1" stroke-miterlimit="10" d="M 4.103132 -2.025026 C 4.155947 -2.003512 4.208696 -1.981999 4.261511 -1.96055 " transform="matrix(59.98276, 0, 0, -59.918212, 338.5, 221.5)"/>
<path fill="none" stroke-width="0.04" stroke-linecap="butt" stroke-linejoin="miter" stroke="rgb(51.372549%, 75.686275%, 40.392157%)" stroke-opacity="1" stroke-miterlimit="10" d="M 4.429788 -1.891967 C 4.482603 -1.870453 4.535418 -1.84894 4.588232 -1.827491 " transform="matrix(59.98276, 0, 0, -59.918212, 338.5, 221.5)"/>
<path fill="none" stroke-width="0.04" stroke-linecap="butt" stroke-linejoin="miter" stroke="rgb(51.372549%, 75.686275%, 40.392157%)" stroke-opacity="1" stroke-miterlimit="10" d="M 4.75651 -1.758908 C 4.809325 -1.737394 4.862139 -1.715881 4.914889 -1.694432 " transform="matrix(59.98276, 0, 0, -59.918212, 338.5, 221.5)"/>
<path fill="none" stroke-width="0.04" stroke-linecap="butt" stroke-linejoin="miter" stroke="rgb(51.372549%, 75.686275%, 40.392157%)" stroke-opacity="1" stroke-miterlimit="10" d="M 5.083231 -1.625849 C 5.135981 -1.604335 5.188796 -1.582887 5.24161 -1.561373 " transform="matrix(59.98276, 0, 0, -59.918212, 338.5, 221.5)"/>
<path fill="none" stroke-width="0.04" stroke-linecap="butt" stroke-linejoin="miter" stroke="rgb(51.372549%, 75.686275%, 40.392157%)" stroke-opacity="1" stroke-miterlimit="10" d="M 5.409888 -1.49279 C 5.462702 -1.471276 5.515517 -1.449828 5.568267 -1.428314 " transform="matrix(59.98276, 0, 0, -59.918212, 338.5, 221.5)"/>
<path fill="none" stroke-width="0.04" stroke-linecap="butt" stroke-linejoin="miter" stroke="rgb(51.372549%, 75.686275%, 40.392157%)" stroke-opacity="1" stroke-miterlimit="10" d="M 5.568267 -1.428314 C 5.530951 -1.403345 5.493636 -1.378442 5.45632 -1.353473 " transform="matrix(59.98276, 0, 0, -59.918212, 338.5, 221.5)"/>
<path fill="none" stroke-width="0.04" stroke-linecap="butt" stroke-linejoin="miter" stroke="rgb(51.372549%, 75.686275%, 40.392157%)" stroke-opacity="1" stroke-miterlimit="10" d="M 5.33949 -1.275437 C 5.302175 -1.250468 5.264859 -1.225564 5.227544 -1.200595 " transform="matrix(59.98276, 0, 0, -59.918212, 338.5, 221.5)"/>
<path fill="none" stroke-width="0.04" stroke-linecap="butt" stroke-linejoin="miter" stroke="rgb(51.372549%, 75.686275%, 40.392157%)" stroke-opacity="1" stroke-miterlimit="10" d="M 5.110713 -1.122559 C 5.073398 -1.097655 5.036082 -1.072686 4.998767 -1.047782 " transform="matrix(59.98276, 0, 0, -59.918212, 338.5, 221.5)"/>
<path fill="none" stroke-width="0.04" stroke-linecap="butt" stroke-linejoin="miter" stroke="rgb(51.372549%, 75.686275%, 40.392157%)" stroke-opacity="1" stroke-miterlimit="10" d="M 4.881937 -0.969681 C 4.844621 -0.944777 4.807306 -0.919809 4.76999 -0.894905 " transform="matrix(59.98276, 0, 0, -59.918212, 338.5, 221.5)"/>
<path fill="none" stroke-width="0.04" stroke-linecap="butt" stroke-linejoin="miter" stroke="rgb(51.372549%, 75.686275%, 40.392157%)" stroke-opacity="1" stroke-miterlimit="10" d="M 4.65316 -0.816804 C 4.615845 -0.7919 4.578464 -0.766996 4.541149 -0.742027 " transform="matrix(59.98276, 0, 0, -59.918212, 338.5, 221.5)"/>
<path fill="none" stroke-width="0.04" stroke-linecap="butt" stroke-linejoin="miter" stroke="rgb(51.372549%, 75.686275%, 40.392157%)" stroke-opacity="1" stroke-miterlimit="10" d="M 4.424318 -0.663991 C 4.387003 -0.639022 4.349687 -0.614118 4.312372 -0.589149 " transform="matrix(59.98276, 0, 0, -59.918212, 338.5, 221.5)"/>
<path fill="none" stroke-width="0.04" stroke-linecap="butt" stroke-linejoin="miter" stroke="rgb(51.372549%, 75.686275%, 40.392157%)" stroke-opacity="1" stroke-miterlimit="10" d="M 4.195541 -0.511113 C 4.158226 -0.486144 4.120911 -0.461241 4.083595 -0.436272 " transform="matrix(59.98276, 0, 0, -59.918212, 338.5, 221.5)"/>
<path fill="none" stroke-width="0.04" stroke-linecap="butt" stroke-linejoin="miter" stroke="rgb(51.372549%, 75.686275%, 40.392157%)" stroke-opacity="1" stroke-miterlimit="10" d="M 3.966765 -0.358236 C 3.929449 -0.333332 3.892134 -0.308363 3.854819 -0.283459 " transform="matrix(59.98276, 0, 0, -59.918212, 338.5, 221.5)"/>
<path fill="none" stroke-width="0.04" stroke-linecap="butt" stroke-linejoin="miter" stroke="rgb(51.372549%, 75.686275%, 40.392157%)" stroke-opacity="1" stroke-miterlimit="10" d="M 3.737988 -0.205358 C 3.700673 -0.180454 3.663357 -0.155485 3.626042 -0.130582 " transform="matrix(59.98276, 0, 0, -59.918212, 338.5, 221.5)"/>
<path fill="none" stroke-width="0.04" stroke-linecap="butt" stroke-linejoin="miter" stroke="rgb(51.372549%, 75.686275%, 40.392157%)" stroke-opacity="1" stroke-miterlimit="10" d="M 3.509211 -0.0524804 C 3.471896 -0.0275767 3.434516 -0.00260772 3.3972 0.022296 " transform="matrix(59.98276, 0, 0, -59.918212, 338.5, 221.5)"/>
<path fill="none" stroke-width="0.04" stroke-linecap="butt" stroke-linejoin="miter" stroke="rgb(51.372549%, 75.686275%, 40.392157%)" stroke-opacity="1" stroke-miterlimit="10" d="M 3.28037 0.100332 C 3.243054 0.125301 3.205739 0.150205 3.168423 0.175174 " transform="matrix(59.98276, 0, 0, -59.918212, 338.5, 221.5)"/>
<path fill="none" stroke-width="0.04" stroke-linecap="butt" stroke-linejoin="miter" stroke="rgb(51.372549%, 75.686275%, 40.392157%)" stroke-opacity="1" stroke-miterlimit="10" d="M 3.051593 0.25321 C 3.014278 0.278179 2.976962 0.303082 2.939647 0.328051 " transform="matrix(59.98276, 0, 0, -59.918212, 338.5, 221.5)"/>
<path fill="none" stroke-width="0.04" stroke-linecap="butt" stroke-linejoin="miter" stroke="rgb(51.372549%, 75.686275%, 40.392157%)" stroke-opacity="1" stroke-miterlimit="10" d="M 2.822816 0.406087 C 2.785501 0.430991 2.748185 0.45596 2.71087 0.480864 " transform="matrix(59.98276, 0, 0, -59.918212, 338.5, 221.5)"/>
<path fill="none" stroke-width="0.04" stroke-linecap="butt" stroke-linejoin="miter" stroke="rgb(51.372549%, 75.686275%, 40.392157%)" stroke-opacity="1" stroke-miterlimit="10" d="M 2.59404 0.558965 C 2.556724 0.583869 2.519409 0.608838 2.482093 0.633741 " transform="matrix(59.98276, 0, 0, -59.918212, 338.5, 221.5)"/>
<path fill="none" stroke-width="0.04" stroke-linecap="butt" stroke-linejoin="miter" stroke="rgb(51.372549%, 75.686275%, 40.392157%)" stroke-opacity="1" stroke-miterlimit="10" d="M 2.365263 0.711843 C 2.327948 0.736746 2.290632 0.761715 2.253252 0.786619 " transform="matrix(59.98276, 0, 0, -59.918212, 338.5, 221.5)"/>
<path fill="none" stroke-width="0.04" stroke-linecap="butt" stroke-linejoin="miter" stroke="rgb(51.372549%, 75.686275%, 40.392157%)" stroke-opacity="1" stroke-miterlimit="10" d="M 2.136486 0.864655 C 2.099106 0.889624 2.06179 0.914528 2.024475 0.939497 " transform="matrix(59.98276, 0, 0, -59.918212, 338.5, 221.5)"/>
<path fill="none" stroke-width="0.04" stroke-linecap="butt" stroke-linejoin="miter" stroke="rgb(51.372549%, 75.686275%, 40.392157%)" stroke-opacity="1" stroke-miterlimit="10" d="M 1.907644 1.017533 C 1.870329 1.042502 1.833014 1.067406 1.795698 1.092374 " transform="matrix(59.98276, 0, 0, -59.918212, 338.5, 221.5)"/>
<path fill="none" stroke-width="0.04" stroke-linecap="butt" stroke-linejoin="miter" stroke="rgb(51.372549%, 75.686275%, 40.392157%)" stroke-opacity="1" stroke-miterlimit="10" d="M 1.678868 1.170411 C 1.641552 1.195314 1.604237 1.220283 1.566922 1.245187 " transform="matrix(59.98276, 0, 0, -59.918212, 338.5, 221.5)"/>
<path fill="none" stroke-width="0.04" stroke-linecap="butt" stroke-linejoin="miter" stroke="rgb(51.372549%, 75.686275%, 40.392157%)" stroke-opacity="1" stroke-miterlimit="10" d="M 1.450091 1.323288 C 1.412776 1.348192 1.37546 1.373161 1.338145 1.398065 " transform="matrix(59.98276, 0, 0, -59.918212, 338.5, 221.5)"/>
<path fill="none" stroke-width="0.04" stroke-linecap="butt" stroke-linejoin="miter" stroke="rgb(51.372549%, 75.686275%, 40.392157%)" stroke-opacity="1" stroke-miterlimit="10" d="M 1.221314 1.476166 C 1.183999 1.50107 1.146684 1.526039 1.109368 1.550942 " transform="matrix(59.98276, 0, 0, -59.918212, 338.5, 221.5)"/>
<path fill="none" stroke-width="0.04" stroke-linecap="butt" stroke-linejoin="miter" stroke="rgb(51.372549%, 75.686275%, 40.392157%)" stroke-opacity="1" stroke-miterlimit="10" d="M 0.992538 1.628978 C 0.955157 1.653947 0.917842 1.678851 0.880526 1.70382 " transform="matrix(59.98276, 0, 0, -59.918212, 338.5, 221.5)"/>
<path fill="none" stroke-width="0.04" stroke-linecap="butt" stroke-linejoin="miter" stroke="rgb(51.372549%, 75.686275%, 40.392157%)" stroke-opacity="1" stroke-miterlimit="10" d="M 0.763696 1.781856 C 0.726381 1.806825 0.689065 1.831729 0.65175 1.856698 " transform="matrix(59.98276, 0, 0, -59.918212, 338.5, 221.5)"/>
<path fill="none" stroke-width="0.04" stroke-linecap="butt" stroke-linejoin="miter" stroke="rgb(51.372549%, 75.686275%, 40.392157%)" stroke-opacity="1" stroke-miterlimit="10" d="M 0.534919 1.934734 C 0.497604 1.959637 0.460289 1.984606 0.422973 2.00951 " transform="matrix(59.98276, 0, 0, -59.918212, 338.5, 221.5)"/>
<path fill="none" stroke-width="0.04" stroke-linecap="butt" stroke-linejoin="miter" stroke="rgb(51.372549%, 75.686275%, 40.392157%)" stroke-opacity="1" stroke-miterlimit="10" d="M 0.306143 2.087611 C 0.268827 2.112515 0.231512 2.137484 0.194196 2.162388 " transform="matrix(59.98276, 0, 0, -59.918212, 338.5, 221.5)"/>
<path fill="none" stroke-width="0.04" stroke-linecap="butt" stroke-linejoin="miter" stroke="rgb(51.372549%, 75.686275%, 40.392157%)" stroke-opacity="1" stroke-miterlimit="10" d="M 0.194196 2.162388 C 0.156816 2.137484 0.119435 2.112515 0.08212 2.087611 " transform="matrix(59.98276, 0, 0, -59.918212, 338.5, 221.5)"/>
<path fill="none" stroke-width="0.04" stroke-linecap="butt" stroke-linejoin="miter" stroke="rgb(51.372549%, 75.686275%, 40.392157%)" stroke-opacity="1" stroke-miterlimit="10" d="M -0.0348407 2.00951 C -0.0722213 1.984606 -0.109537 1.959637 -0.146917 1.934734 " transform="matrix(59.98276, 0, 0, -59.918212, 338.5, 221.5)"/>
<path fill="none" stroke-width="0.04" stroke-linecap="butt" stroke-linejoin="miter" stroke="rgb(51.372549%, 75.686275%, 40.392157%)" stroke-opacity="1" stroke-miterlimit="10" d="M -0.263878 1.856698 C -0.301193 1.831729 -0.338574 1.806825 -0.375954 1.781856 " transform="matrix(59.98276, 0, 0, -59.918212, 338.5, 221.5)"/>
<path fill="none" stroke-width="0.04" stroke-linecap="butt" stroke-linejoin="miter" stroke="rgb(51.372549%, 75.686275%, 40.392157%)" stroke-opacity="1" stroke-miterlimit="10" d="M -0.49285 1.70382 C -0.53023 1.678851 -0.567611 1.653947 -0.604926 1.628978 " transform="matrix(59.98276, 0, 0, -59.918212, 338.5, 221.5)"/>
<path fill="none" stroke-width="0.04" stroke-linecap="butt" stroke-linejoin="miter" stroke="rgb(51.372549%, 75.686275%, 40.392157%)" stroke-opacity="1" stroke-miterlimit="10" d="M -0.721887 1.550942 C -0.759268 1.526039 -0.796583 1.50107 -0.833964 1.476166 " transform="matrix(59.98276, 0, 0, -59.918212, 338.5, 221.5)"/>
<path fill="none" stroke-width="0.04" stroke-linecap="butt" stroke-linejoin="miter" stroke="rgb(51.372549%, 75.686275%, 40.392157%)" stroke-opacity="1" stroke-miterlimit="10" d="M -0.950924 1.398065 C -0.98824 1.373161 -1.02562 1.348192 -1.063001 1.323288 " transform="matrix(59.98276, 0, 0, -59.918212, 338.5, 221.5)"/>
<path fill="none" stroke-width="0.04" stroke-linecap="butt" stroke-linejoin="miter" stroke="rgb(51.372549%, 75.686275%, 40.392157%)" stroke-opacity="1" stroke-miterlimit="10" d="M -1.179896 1.245187 C -1.217277 1.220283 -1.254657 1.195314 -1.291973 1.170411 " transform="matrix(59.98276, 0, 0, -59.918212, 338.5, 221.5)"/>
<path fill="none" stroke-width="0.04" stroke-linecap="butt" stroke-linejoin="miter" stroke="rgb(51.372549%, 75.686275%, 40.392157%)" stroke-opacity="1" stroke-miterlimit="10" d="M -1.408933 1.092374 C -1.446314 1.067406 -1.483629 1.042502 -1.52101 1.017533 " transform="matrix(59.98276, 0, 0, -59.918212, 338.5, 221.5)"/>
<path fill="none" stroke-width="0.04" stroke-linecap="butt" stroke-linejoin="miter" stroke="rgb(51.372549%, 75.686275%, 40.392157%)" stroke-opacity="1" stroke-miterlimit="10" d="M -1.637971 0.939497 C -1.675286 0.914528 -1.712667 0.889624 -1.750047 0.864655 " transform="matrix(59.98276, 0, 0, -59.918212, 338.5, 221.5)"/>
<path fill="none" stroke-width="0.04" stroke-linecap="butt" stroke-linejoin="miter" stroke="rgb(51.372549%, 75.686275%, 40.392157%)" stroke-opacity="1" stroke-miterlimit="10" d="M -1.866943 0.786619 C -1.904323 0.761715 -1.941704 0.736746 -1.979019 0.711843 " transform="matrix(59.98276, 0, 0, -59.918212, 338.5, 221.5)"/>
<path fill="none" stroke-width="0.04" stroke-linecap="butt" stroke-linejoin="miter" stroke="rgb(51.372549%, 75.686275%, 40.392157%)" stroke-opacity="1" stroke-miterlimit="10" d="M -2.09598 0.633741 C -2.13336 0.608838 -2.170676 0.583869 -2.208056 0.558965 " transform="matrix(59.98276, 0, 0, -59.918212, 338.5, 221.5)"/>
<path fill="none" stroke-width="0.04" stroke-linecap="butt" stroke-linejoin="miter" stroke="rgb(51.372549%, 75.686275%, 40.392157%)" stroke-opacity="1" stroke-miterlimit="10" d="M -2.325017 0.480864 C -2.362332 0.45596 -2.399713 0.430991 -2.437093 0.406087 " transform="matrix(59.98276, 0, 0, -59.918212, 338.5, 221.5)"/>
<path fill="none" stroke-width="0.04" stroke-linecap="butt" stroke-linejoin="miter" stroke="rgb(51.372549%, 75.686275%, 40.392157%)" stroke-opacity="1" stroke-miterlimit="10" d="M -2.553989 0.328051 C -2.59137 0.303082 -2.62875 0.278179 -2.666066 0.25321 " transform="matrix(59.98276, 0, 0, -59.918212, 338.5, 221.5)"/>
<path fill="none" stroke-width="0.04" stroke-linecap="butt" stroke-linejoin="miter" stroke="rgb(51.372549%, 75.686275%, 40.392157%)" stroke-opacity="1" stroke-miterlimit="10" d="M -2.783026 0.175174 C -2.820407 0.150205 -2.857722 0.125301 -2.895103 0.100332 " transform="matrix(59.98276, 0, 0, -59.918212, 338.5, 221.5)"/>
<path fill="none" stroke-width="0.04" stroke-linecap="butt" stroke-linejoin="miter" stroke="rgb(51.372549%, 75.686275%, 40.392157%)" stroke-opacity="1" stroke-miterlimit="10" d="M -3.012063 0.022296 C -3.049379 -0.00260772 -3.086759 -0.0275767 -3.12414 -0.0524804 " transform="matrix(59.98276, 0, 0, -59.918212, 338.5, 221.5)"/>
<path fill="none" stroke-width="0.04" stroke-linecap="butt" stroke-linejoin="miter" stroke="rgb(51.372549%, 75.686275%, 40.392157%)" stroke-opacity="1" stroke-miterlimit="10" d="M -3.241101 -0.130582 C -3.278416 -0.155485 -3.315796 -0.180454 -3.353112 -0.205358 " transform="matrix(59.98276, 0, 0, -59.918212, 338.5, 221.5)"/>
<path fill="none" stroke-width="0.04" stroke-linecap="butt" stroke-linejoin="miter" stroke="rgb(51.372549%, 75.686275%, 40.392157%)" stroke-opacity="1" stroke-miterlimit="10" d="M -3.470073 -0.283459 C -3.507453 -0.308363 -3.544769 -0.333332 -3.582149 -0.358236 " transform="matrix(59.98276, 0, 0, -59.918212, 338.5, 221.5)"/>
<path fill="none" stroke-width="0.04" stroke-linecap="butt" stroke-linejoin="miter" stroke="rgb(51.372549%, 75.686275%, 40.392157%)" stroke-opacity="1" stroke-miterlimit="10" d="M -3.69911 -0.436272 C -3.73649 -0.461241 -3.773806 -0.486144 -3.811186 -0.511113 " transform="matrix(59.98276, 0, 0, -59.918212, 338.5, 221.5)"/>
<path fill="none" stroke-width="0.04" stroke-linecap="butt" stroke-linejoin="miter" stroke="rgb(51.372549%, 75.686275%, 40.392157%)" stroke-opacity="1" stroke-miterlimit="10" d="M -3.928147 -0.589149 C -3.965462 -0.614118 -4.002843 -0.639022 -4.040223 -0.663991 " transform="matrix(59.98276, 0, 0, -59.918212, 338.5, 221.5)"/>
<path fill="none" stroke-width="0.04" stroke-linecap="butt" stroke-linejoin="miter" stroke="rgb(51.372549%, 75.686275%, 40.392157%)" stroke-opacity="1" stroke-miterlimit="10" d="M -4.157119 -0.742027 C -4.1945 -0.766996 -4.23188 -0.7919 -4.269195 -0.816804 " transform="matrix(59.98276, 0, 0, -59.918212, 338.5, 221.5)"/>
<path fill="none" stroke-width="0.04" stroke-linecap="butt" stroke-linejoin="miter" stroke="rgb(51.372549%, 75.686275%, 40.392157%)" stroke-opacity="1" stroke-miterlimit="10" d="M -4.386156 -0.894905 C -4.423537 -0.919809 -4.460852 -0.944777 -4.498233 -0.969681 " transform="matrix(59.98276, 0, 0, -59.918212, 338.5, 221.5)"/>
<path fill="none" stroke-width="0.04" stroke-linecap="butt" stroke-linejoin="miter" stroke="rgb(51.372549%, 75.686275%, 40.392157%)" stroke-opacity="1" stroke-miterlimit="10" d="M -4.615193 -1.047782 C -4.652509 -1.072686 -4.689889 -1.097655 -4.72727 -1.122559 " transform="matrix(59.98276, 0, 0, -59.918212, 338.5, 221.5)"/>
<path fill="none" stroke-width="0.04" stroke-linecap="butt" stroke-linejoin="miter" stroke="rgb(51.372549%, 75.686275%, 40.392157%)" stroke-opacity="1" stroke-miterlimit="10" d="M -4.844165 -1.200595 C -4.881546 -1.225564 -4.918926 -1.250468 -4.956242 -1.275437 " transform="matrix(59.98276, 0, 0, -59.918212, 338.5, 221.5)"/>
<path fill="none" stroke-width="0.04" stroke-linecap="butt" stroke-linejoin="miter" stroke="rgb(51.372549%, 75.686275%, 40.392157%)" stroke-opacity="1" stroke-miterlimit="10" d="M -5.073203 -1.353473 C -5.110583 -1.378442 -5.147898 -1.403345 -5.185279 -1.428314 " transform="matrix(59.98276, 0, 0, -59.918212, 338.5, 221.5)"/>
<path fill="none" stroke-width="0.04" stroke-linecap="butt" stroke-linejoin="miter" stroke="rgb(51.372549%, 75.686275%, 40.392157%)" stroke-opacity="1" stroke-miterlimit="10" d="M 0.182865 -3.621734 C 0.18293 -3.565016 0.18306 -3.508298 0.183191 -3.45158 " transform="matrix(59.98276, 0, 0, -59.918212, 338.5, 221.5)"/>
<path fill="none" stroke-width="0.04" stroke-linecap="butt" stroke-linejoin="miter" stroke="rgb(51.372549%, 75.686275%, 40.392157%)" stroke-opacity="1" stroke-miterlimit="10" d="M 0.183516 -3.2708 C 0.183647 -3.214147 0.183777 -3.157429 0.183842 -3.100711 " transform="matrix(59.98276, 0, 0, -59.918212, 338.5, 221.5)"/>
<path fill="none" stroke-width="0.04" stroke-linecap="butt" stroke-linejoin="miter" stroke="rgb(51.372549%, 75.686275%, 40.392157%)" stroke-opacity="1" stroke-miterlimit="10" d="M 0.184233 -2.919931 C 0.184298 -2.863278 0.184428 -2.80656 0.184558 -2.749842 " transform="matrix(59.98276, 0, 0, -59.918212, 338.5, 221.5)"/>
<path fill="none" stroke-width="0.04" stroke-linecap="butt" stroke-linejoin="miter" stroke="rgb(51.372549%, 75.686275%, 40.392157%)" stroke-opacity="1" stroke-miterlimit="10" d="M 0.184884 -2.569062 C 0.185014 -2.512344 0.185144 -2.455691 0.185209 -2.398973 " transform="matrix(59.98276, 0, 0, -59.918212, 338.5, 221.5)"/>
<path fill="none" stroke-width="0.04" stroke-linecap="butt" stroke-linejoin="miter" stroke="rgb(51.372549%, 75.686275%, 40.392157%)" stroke-opacity="1" stroke-miterlimit="10" d="M 0.1856 -2.218193 C 0.18573 -2.161475 0.185796 -2.104822 0.185926 -2.048104 " transform="matrix(59.98276, 0, 0, -59.918212, 338.5, 221.5)"/>
<path fill="none" stroke-width="0.04" stroke-linecap="butt" stroke-linejoin="miter" stroke="rgb(51.372549%, 75.686275%, 40.392157%)" stroke-opacity="1" stroke-miterlimit="10" d="M 0.186251 -1.867324 C 0.186382 -1.810606 0.186512 -1.753888 0.186642 -1.697235 " transform="matrix(59.98276, 0, 0, -59.918212, 338.5, 221.5)"/>
<path fill="none" stroke-width="0.04" stroke-linecap="butt" stroke-linejoin="miter" stroke="rgb(51.372549%, 75.686275%, 40.392157%)" stroke-opacity="1" stroke-miterlimit="10" d="M 0.186968 -1.516455 C 0.187098 -1.459737 0.187163 -1.403019 0.187293 -1.346367 " transform="matrix(59.98276, 0, 0, -59.918212, 338.5, 221.5)"/>
<path fill="none" stroke-width="0.04" stroke-linecap="butt" stroke-linejoin="miter" stroke="rgb(51.372549%, 75.686275%, 40.392157%)" stroke-opacity="1" stroke-miterlimit="10" d="M 0.187684 -1.165586 C 0.187749 -1.108868 0.18788 -1.05215 0.18801 -0.995498 " transform="matrix(59.98276, 0, 0, -59.918212, 338.5, 221.5)"/>
<path fill="none" stroke-width="0.04" stroke-linecap="butt" stroke-linejoin="miter" stroke="rgb(51.372549%, 75.686275%, 40.392157%)" stroke-opacity="1" stroke-miterlimit="10" d="M 0.188335 -0.814717 C 0.188466 -0.757999 0.188596 -0.701281 0.188661 -0.644564 " transform="matrix(59.98276, 0, 0, -59.918212, 338.5, 221.5)"/>
<path fill="none" stroke-width="0.04" stroke-linecap="butt" stroke-linejoin="miter" stroke="rgb(51.372549%, 75.686275%, 40.392157%)" stroke-opacity="1" stroke-miterlimit="10" d="M 0.189052 -0.463848 C 0.189117 -0.40713 0.189247 -0.350413 0.189377 -0.293695 " transform="matrix(59.98276, 0, 0, -59.918212, 338.5, 221.5)"/>
<path fill="none" stroke-width="0.04" stroke-linecap="butt" stroke-linejoin="miter" stroke="rgb(51.372549%, 75.686275%, 40.392157%)" stroke-opacity="1" stroke-miterlimit="10" d="M 0.189703 -0.11298 C 0.189833 -0.0562616 0.189963 0.000456351 0.190029 0.0571743 " transform="matrix(59.98276, 0, 0, -59.918212, 338.5, 221.5)"/>
<path fill="none" stroke-width="0.04" stroke-linecap="butt" stroke-linejoin="miter" stroke="rgb(51.372549%, 75.686275%, 40.392157%)" stroke-opacity="1" stroke-miterlimit="10" d="M 0.190419 0.237889 C 0.19055 0.294607 0.190615 0.351325 0.190745 0.408043 " transform="matrix(59.98276, 0, 0, -59.918212, 338.5, 221.5)"/>
<path fill="none" stroke-width="0.04" stroke-linecap="butt" stroke-linejoin="miter" stroke="rgb(51.372549%, 75.686275%, 40.392157%)" stroke-opacity="1" stroke-miterlimit="10" d="M 0.191071 0.588758 C 0.191201 0.645476 0.191331 0.702194 0.191461 0.758912 " transform="matrix(59.98276, 0, 0, -59.918212, 338.5, 221.5)"/>
<path fill="none" stroke-width="0.04" stroke-linecap="butt" stroke-linejoin="miter" stroke="rgb(51.372549%, 75.686275%, 40.392157%)" stroke-opacity="1" stroke-miterlimit="10" d="M 0.191787 0.939627 C 0.191917 0.996345 0.191982 1.053063 0.192112 1.109781 " transform="matrix(59.98276, 0, 0, -59.918212, 338.5, 221.5)"/>
<path fill="none" stroke-width="0.04" stroke-linecap="butt" stroke-linejoin="miter" stroke="rgb(51.372549%, 75.686275%, 40.392157%)" stroke-opacity="1" stroke-miterlimit="10" d="M 0.192503 1.290561 C 0.192568 1.347214 0.192699 1.403932 0.192829 1.46065 " transform="matrix(59.98276, 0, 0, -59.918212, 338.5, 221.5)"/>
<path fill="none" stroke-width="0.04" stroke-linecap="butt" stroke-linejoin="miter" stroke="rgb(51.372549%, 75.686275%, 40.392157%)" stroke-opacity="1" stroke-miterlimit="10" d="M 0.193154 1.64143 C 0.193285 1.698083 0.19335 1.754801 0.19348 1.811519 " transform="matrix(59.98276, 0, 0, -59.918212, 338.5, 221.5)"/>
<path fill="none" stroke-width="0.04" stroke-linecap="butt" stroke-linejoin="miter" stroke="rgb(51.372549%, 75.686275%, 40.392157%)" stroke-opacity="1" stroke-miterlimit="10" d="M 0.193871 1.992299 C 0.193936 2.049017 0.194066 2.10567 0.194196 2.162388 " transform="matrix(59.98276, 0, 0, -59.918212, 338.5, 221.5)"/>
<path fill-rule="nonzero" fill="rgb(51.372549%, 75.686275%, 40.392157%)" fill-opacity="1" d="M 30.472656 307.082031 C 30.472656 306.285156 30.15625 305.523438 29.59375 304.960938 C 29.03125 304.402344 28.269531 304.085938 27.472656 304.085938 C 26.675781 304.085938 25.914062 304.402344 25.351562 304.960938 C 24.789062 305.523438 24.472656 306.285156 24.472656 307.082031 C 24.472656 307.875 24.789062 308.636719 25.351562 309.199219 C 25.914062 309.761719 26.675781 310.078125 27.472656 310.078125 C 28.269531 310.078125 29.03125 309.761719 29.59375 309.199219 C 30.15625 308.636719 30.472656 307.875 30.472656 307.082031 Z M 30.472656 307.082031 "/>
<path fill-rule="nonzero" fill="rgb(51.372549%, 75.686275%, 40.392157%)" fill-opacity="1" d="M 352.464844 438.507812 C 352.464844 437.710938 352.148438 436.949219 351.585938 436.386719 C 351.023438 435.824219 350.261719 435.511719 349.46875 435.511719 C 348.671875 435.511719 347.910156 435.824219 347.347656 436.386719 C 346.785156 436.949219 346.46875 437.710938 346.46875 438.507812 C 346.46875 439.300781 346.785156 440.0625 347.347656 440.625 C 347.910156 441.1875 348.671875 441.503906 349.46875 441.503906 C 350.261719 441.503906 351.023438 441.1875 351.585938 440.625 C 352.148438 440.0625 352.464844 439.300781 352.464844 438.507812 Z M 352.464844 438.507812 "/>
<path fill-rule="nonzero" fill="rgb(51.372549%, 75.686275%, 40.392157%)" fill-opacity="1" d="M 675.5 307.082031 C 675.5 306.285156 675.183594 305.523438 674.621094 304.960938 C 674.058594 304.402344 673.296875 304.085938 672.5 304.085938 C 671.707031 304.085938 670.941406 304.402344 670.378906 304.960938 C 669.816406 305.523438 669.503906 306.285156 669.503906 307.082031 C 669.503906 307.875 669.816406 308.636719 670.378906 309.199219 C 670.941406 309.761719 671.707031 310.078125 672.5 310.078125 C 673.296875 310.078125 674.058594 309.761719 674.621094 309.199219 C 675.183594 308.636719 675.5 307.875 675.5 307.082031 Z M 675.5 307.082031 "/>
<path fill-rule="nonzero" fill="rgb(51.372549%, 75.686275%, 40.392157%)" fill-opacity="1" d="M 353.148438 91.933594 C 353.148438 91.136719 352.832031 90.375 352.269531 89.8125 C 351.707031 89.253906 350.941406 88.9375 350.148438 88.9375 C 349.351562 88.9375 348.589844 89.253906 348.027344 89.8125 C 347.464844 90.375 347.148438 91.136719 347.148438 91.933594 C 347.148438 92.726562 347.464844 93.488281 348.027344 94.050781 C 348.589844 94.613281 349.351562 94.929688 350.148438 94.929688 C 350.941406 94.929688 351.707031 94.613281 352.269531 94.050781 C 352.832031 93.488281 353.148438 92.726562 353.148438 91.933594 Z M 353.148438 91.933594 "/>
</svg>
