<?xml version="1.0" encoding="UTF-8"?>
<svg xmlns="http://www.w3.org/2000/svg" xmlns:xlink="http://www.w3.org/1999/xlink" width="677" height="443" viewBox="0 0 677 443">
<path fill="none" stroke-width="0.04" stroke-linecap="butt" stroke-linejoin="miter" stroke="rgb(0%, 0%, 0%)" stroke-opacity="1" stroke-miterlimit="10" d="M -5.185848 -1.428964 C -3.519127 -1.428964 -1.85247 -1.428964 -0.185814 -1.428964 " transform="matrix(59.976927, 0, 0, -59.929246, 338.5, 221.5)"/>
<path fill="none" stroke-width="0.04" stroke-linecap="butt" stroke-linejoin="miter" stroke="rgb(0%, 0%, 0%)" stroke-opacity="1" stroke-miterlimit="10" d="M -0.185814 -1.428964 C 1.480843 -1.428964 3.147499 -1.428964 4.814156 -1.428964 " transform="matrix(59.976927, 0, 0, -59.929246, 338.5, 221.5)"/>
<path fill="none" stroke-width="0.04" stroke-linecap="butt" stroke-linejoin="miter" stroke="rgb(0%, 0%, 0%)" stroke-opacity="1" stroke-miterlimit="10" d="M 4.814156 -1.428964 C 3.147499 0.237715 1.480843 1.904329 -0.185814 3.571008 " transform="matrix(59.976927, 0, 0, -59.929246, 338.5, 221.5)"/>
<path fill="none" stroke-width="0.04" stroke-linecap="butt" stroke-linejoin="miter" stroke="rgb(0%, 0%, 0%)" stroke-opacity="1" stroke-miterlimit="10" d="M -0.185814 3.571008 C -1.85247 1.904329 -3.519127 0.237715 -5.185848 -1.428964 " transform="matrix(59.976927, 0, 0, -59.929246, 338.5, 221.5)"/>
<path fill="none" stroke-width="0.04" stroke-linecap="butt" stroke-linejoin="miter" stroke="rgb(0%, 0%, 0%)" stroke-opacity="1" stroke-miterlimit="10" d="M -0.185814 -1.428964 C -0.185814 0.237715 -0.185814 1.904329 -0.185814 3.571008 " transform="matrix(59.976927, 0, 0, -59.929246, 338.5, 221.5)"/>
<path fill="none" stroke-width="0.04" stroke-linecap="butt" stroke-linejoin="miter" stroke="rgb(0%, 0%, 0%)" stroke-opacity="1" stroke-miterlimit="10" d="M -5.185848 -1.428964 C -5.282044 -1.595632 -5.378305 -1.7623 -5.474501 -1.928967 C -5.282044 -1.928967 -5.089587 -1.928967 -4.897131 -1.928967 C -4.993392 -1.7623 -5.089587 -1.595632 -5.185848 -1.428964 Z M -5.185848 -1.428964 " transform="matrix(59.976927, 0, 0, -59.929246, 338.5, 221.5)"/>
<path fill="none" stroke-width="0.04" stroke-linecap="butt" stroke-linejoin="miter" stroke="rgb(0%, 0%, 0%)" stroke-opacity="1" stroke-miterlimit="10" d="M -4.752804 -1.928967 C -5.041457 -1.928967 -5.330175 -1.928967 -5.618827 -1.928967 " transform="matrix(59.976927, 0, 0, -59.929246, 338.5, 221.5)"/>
<path fill="none" stroke-width="0.04" stroke-linecap="butt" stroke-linejoin="miter" stroke="rgb(0%, 0%, 0%)" stroke-opacity="1" stroke-miterlimit="10" d="M 5.064187 -1.678998 C 5.064187 -1.612644 5.03781 -1.549092 4.990982 -1.502227 C 4.944089 -1.455297 4.880458 -1.428964 4.814156 -1.428964 C 4.747854 -1.428964 4.684288 -1.455297 4.637395 -1.502227 C 4.590502 -1.549092 4.56419 -1.612644 4.56419 -1.678998 C 4.56419 -1.745287 4.590502 -1.808839 4.637395 -1.855769 C 4.684288 -1.902634 4.747854 -1.928967 4.814156 -1.928967 C 4.880458 -1.928967 4.944089 -1.902634 4.990982 -1.855769 C 5.03781 -1.808839 5.064187 -1.745287 5.064187 -1.678998 Z M 5.064187 -1.678998 " transform="matrix(59.976927, 0, 0, -59.929246, 338.5, 221.5)"/>
<path fill="none" stroke-width="0.04" stroke-linecap="butt" stroke-linejoin="miter" stroke="rgb(0%, 0%, 0%)" stroke-opacity="1" stroke-miterlimit="10" d="M 5.18917 -1.928967 C 4.939204 -1.928967 4.689173 -1.928967 4.439207 -1.928967 " transform="matrix(59.976927, 0, 0, -59.929246, 338.5, 221.5)"/>
<path fill-rule="nonzero" fill="rgb(0%, 0%, 0%)" fill-opacity="1" d="M 33.46875 307.136719 C 33.46875 305.546875 32.835938 304.023438 31.710938 302.898438 C 30.585938 301.777344 29.0625 301.144531 27.46875 301.144531 C 25.878906 301.144531 24.355469 301.777344 23.230469 302.898438 C 22.105469 304.023438 21.472656 305.546875 21.472656 307.136719 C 21.472656 308.726562 22.105469 310.25 23.230469 311.375 C 24.355469 312.5 25.878906 313.128906 27.46875 313.128906 C 29.0625 313.128906 30.585938 312.5 31.710938 311.375 C 32.835938 310.25 33.46875 308.726562 33.46875 307.136719 Z M 33.46875 307.136719 "/>
<path fill-rule="nonzero" fill="rgb(0%, 0%, 0%)" fill-opacity="1" d="M 333.351562 307.136719 C 333.351562 305.546875 332.71875 304.023438 331.597656 302.898438 C 330.472656 301.777344 328.945312 301.144531 327.355469 301.144531 C 325.765625 301.144531 324.238281 301.777344 323.113281 302.898438 C 321.988281 304.023438 321.355469 305.546875 321.355469 307.136719 C 321.355469 308.726562 321.988281 310.25 323.113281 311.375 C 324.238281 312.5 325.765625 313.128906 327.355469 313.128906 C 328.945312 313.128906 330.472656 312.5 331.597656 311.375 C 332.71875 310.25 333.351562 308.726562 333.351562 307.136719 Z M 333.351562 307.136719 "/>
<path fill-rule="nonzero" fill="rgb(0%, 0%, 0%)" fill-opacity="1" d="M 633.238281 307.136719 C 633.238281 305.546875 632.605469 304.023438 631.480469 302.898438 C 630.355469 301.777344 628.832031 301.144531 627.238281 301.144531 C 625.648438 301.144531 624.125 301.777344 623 302.898438 C 621.875 304.023438 621.242188 305.546875 621.242188 307.136719 C 621.242188 308.726562 621.875 310.25 623 311.375 C 624.125 312.5 625.648438 313.128906 627.238281 313.128906 C 628.832031 313.128906 630.355469 312.5 631.480469 311.375 C 632.605469 310.25 633.238281 308.726562 633.238281 307.136719 Z M 633.238281 307.136719 "/>
<path fill-rule="nonzero" fill="rgb(0%, 0%, 0%)" fill-opacity="1" d="M 333.351562 7.492188 C 333.351562 5.902344 332.71875 4.378906 331.597656 3.253906 C 330.472656 2.128906 328.945312 1.5 327.355469 1.5 C 325.765625 1.5 324.238281 2.128906 323.113281 3.253906 C 321.988281 4.378906 321.355469 5.902344 321.355469 7.492188 C 321.355469 9.082031 321.988281 10.605469 323.113281 11.730469 C 324.238281 12.851562 325.765625 13.484375 327.355469 13.484375 C 328.945312 13.484375 330.472656 12.851562 331.597656 11.730469 C 332.71875 10.605469 333.351562 9.082031 333.351562 7.492188 Z M 333.351562 7.492188 "/>
<path fill="none" stroke-width="0.04" stroke-linecap="butt" stroke-linejoin="miter" stroke="rgb(98.823529%, 38.431373%, 33.333333%)" stroke-opacity="1" stroke-miterlimit="10" d="M -0.185814 -1.428964 C -0.185814 -1.778986 -0.185814 -2.128943 -0.185814 -2.478965 " transform="matrix(59.976927, 0, 0, -59.929246, 338.5, 221.5)"/>
<path fill-rule="nonzero" fill="rgb(98.823529%, 38.431373%, 33.333333%)" fill-opacity="1" d="M 327.355469 397.03125 C 330.355469 388.042969 333.351562 379.050781 336.351562 370.0625 C 330.355469 370.0625 324.355469 370.0625 318.359375 370.0625 C 321.355469 379.050781 324.355469 388.042969 327.355469 397.03125 Z M 327.355469 397.03125 "/>
<path fill-rule="nonzero" fill="rgb(98.823529%, 38.431373%, 33.333333%)" fill-opacity="1" d="M 174.582031 357.292969 C 174.582031 356.289062 174.582031 355.28125 174.582031 354.277344 C 171.417969 354.277344 168.253906 354.277344 165.089844 354.277344 C 165.089844 355.28125 165.089844 356.289062 165.089844 357.292969 C 168.253906 357.292969 171.417969 357.292969 174.582031 357.292969 Z M 174.582031 357.292969 "/>
<path fill-rule="nonzero" fill="rgb(98.823529%, 38.431373%, 33.333333%)" fill-opacity="1" d="M 188.753906 353.25 C 188.753906 353.476562 188.753906 353.707031 188.753906 353.933594 C 188.753906 356.203125 188.472656 358.039062 188.007812 359.097656 C 187.476562 360.308594 186.140625 361.707031 183.992188 361.707031 C 183.429688 361.707031 182.3125 361.648438 181.378906 361.023438 C 181.75 360.929688 182.902344 360.496094 182.902344 359.097656 C 182.902344 358.039062 182.1875 357.167969 180.972656 357.167969 C 179.757812 357.167969 179.011719 357.976562 179.011719 359.160156 C 179.011719 361.273438 180.597656 363.046875 184.054688 363.046875 C 188.097656 363.046875 192.984375 360.433594 192.984375 352.472656 C 192.984375 350.390625 192.984375 342.335938 185.609375 342.335938 C 181.191406 342.335938 178.109375 344.855469 178.109375 349.019531 C 178.109375 353.3125 181.191406 355.644531 185.019531 355.644531 C 186.109375 355.644531 187.570312 355.425781 188.753906 353.25 Z M 185.296875 354.527344 C 182.34375 354.527344 182.34375 352.191406 182.34375 349.082031 C 182.34375 346.035156 182.34375 343.546875 185.671875 343.546875 C 187.507812 343.546875 188.222656 345.195312 188.347656 345.507812 C 188.722656 346.535156 188.722656 348.335938 188.722656 349.394531 C 188.722656 351.355469 187.914062 354.527344 185.296875 354.527344 Z M 185.296875 354.527344 "/>
<path fill-rule="nonzero" fill="rgb(98.823529%, 38.431373%, 33.333333%)" fill-opacity="1" d="M 210.601562 355.800781 C 210.113281 355.800781 209.625 355.800781 209.136719 355.800781 C 209.042969 356.421875 208.765625 358.414062 208.328125 358.628906 C 207.984375 358.816406 205.652344 358.816406 205.152344 358.816406 C 203.628906 358.816406 202.105469 358.816406 200.578125 358.816406 C 202.042969 357.605469 203.660156 356.265625 205.0625 355.242188 C 208.609375 352.628906 210.601562 351.167969 210.601562 348.210938 C 210.601562 344.636719 207.363281 342.335938 202.976562 342.335938 C 199.210938 342.335938 196.285156 344.261719 196.285156 347.0625 C 196.285156 348.898438 197.777344 349.363281 198.523438 349.363281 C 199.519531 349.363281 200.765625 348.679688 200.765625 347.125 C 200.765625 345.507812 199.457031 345.011719 198.992188 344.886719 C 199.894531 344.140625 201.078125 343.796875 202.199219 343.796875 C 204.875 343.796875 206.304688 345.910156 206.304688 348.242188 C 206.304688 350.390625 205.121094 352.503906 202.945312 354.710938 C 200.859375 356.835938 198.773438 358.960938 196.6875 361.085938 C 196.285156 361.460938 196.285156 361.523438 196.285156 362.144531 C 196.285156 362.332031 196.285156 362.515625 196.285156 362.703125 C 200.734375 362.703125 205.183594 362.703125 209.636719 362.703125 C 209.957031 360.402344 210.277344 358.101562 210.601562 355.800781 Z M 210.601562 355.800781 "/>
<path fill-rule="nonzero" fill="rgb(98.823529%, 38.431373%, 33.333333%)" fill-opacity="1" d="M 218.597656 347.808594 C 218.101562 347.527344 217.230469 347 217.230469 345.941406 C 217.230469 343.765625 220.03125 343.546875 221.273438 343.546875 C 223.890625 343.546875 225.445312 344.824219 225.445312 346.9375 C 225.445312 348.460938 224.636719 349.519531 223.265625 350.421875 C 221.710938 349.550781 220.15625 348.679688 218.597656 347.808594 Z M 224.636719 351.199219 C 226.8125 350.078125 227.777344 348.710938 227.777344 346.90625 C 227.777344 343.734375 224.945312 342.335938 221.398438 342.335938 C 217.074219 342.335938 214.894531 344.792969 214.894531 347.777344 C 214.894531 349.144531 215.453125 351.105469 217.882812 352.472656 C 215.269531 353.625 213.898438 355.394531 213.898438 357.695312 C 213.898438 361.460938 217.261719 363.046875 221.273438 363.046875 C 226.253906 363.046875 228.773438 360.308594 228.773438 356.890625 C 228.773438 353.53125 226.160156 352.070312 224.636719 351.199219 Z M 219.3125 353.3125 C 220.402344 353.871094 221.867188 354.710938 223.578125 355.675781 C 224.945312 356.453125 226.097656 357.105469 226.097656 358.597656 C 226.097656 361.210938 223.171875 361.707031 221.398438 361.707031 C 218.347656 361.707031 216.574219 360.121094 216.574219 357.695312 C 216.574219 355.273438 218.226562 353.933594 219.3125 353.3125 Z M 219.3125 353.3125 "/>
<path fill-rule="nonzero" fill="rgb(98.823529%, 38.431373%, 33.333333%)" fill-opacity="1" d="M 246.390625 355.800781 C 245.902344 355.800781 245.414062 355.800781 244.925781 355.800781 C 244.832031 356.421875 244.554688 358.414062 244.117188 358.628906 C 243.773438 358.816406 241.441406 358.816406 240.941406 358.816406 C 239.417969 358.816406 237.894531 358.816406 236.367188 358.816406 C 237.832031 357.605469 239.449219 356.265625 240.851562 355.242188 C 244.398438 352.628906 246.390625 351.167969 246.390625 348.210938 C 246.390625 344.636719 243.152344 342.335938 238.765625 342.335938 C 235 342.335938 232.074219 344.261719 232.074219 347.0625 C 232.074219 348.898438 233.566406 349.363281 234.3125 349.363281 C 235.308594 349.363281 236.554688 348.679688 236.554688 347.125 C 236.554688 345.507812 235.25 345.011719 234.78125 344.886719 C 235.683594 344.140625 236.867188 343.796875 237.988281 343.796875 C 240.664062 343.796875 242.09375 345.910156 242.09375 348.242188 C 242.09375 350.390625 240.914062 352.503906 238.734375 354.710938 C 236.648438 356.835938 234.5625 358.960938 232.476562 361.085938 C 232.074219 361.460938 232.074219 361.523438 232.074219 362.144531 C 232.074219 362.332031 232.074219 362.515625 232.074219 362.703125 C 236.523438 362.703125 240.972656 362.703125 245.425781 362.703125 C 245.746094 360.402344 246.066406 358.101562 246.390625 355.800781 Z M 246.390625 355.800781 "/>
<path fill-rule="nonzero" fill="rgb(98.823529%, 38.431373%, 33.333333%)" fill-opacity="1" d="M 255.570312 360.277344 C 255.570312 358.941406 254.480469 357.851562 253.144531 357.851562 C 251.804688 357.851562 250.714844 358.941406 250.714844 360.277344 C 250.714844 361.617188 251.804688 362.703125 253.144531 362.703125 C 254.480469 362.703125 255.570312 361.617188 255.570312 360.277344 Z M 255.570312 360.277344 "/>
<path fill-rule="nonzero" fill="rgb(98.823529%, 38.431373%, 33.333333%)" fill-opacity="1" d="M 271.984375 357.851562 C 272.992188 357.851562 273.996094 357.851562 275.003906 357.851562 C 275.003906 357.367188 275.003906 356.878906 275.003906 356.390625 C 273.996094 356.390625 272.992188 356.390625 271.984375 356.390625 C 271.984375 352.027344 271.984375 347.664062 271.984375 343.300781 C 271.984375 342.460938 271.921875 342.304688 271.050781 342.304688 C 270.398438 342.304688 270.367188 342.335938 269.992188 342.800781 C 266.371094 347.332031 262.753906 351.863281 259.132812 356.390625 C 259.132812 356.878906 259.132812 357.367188 259.132812 357.851562 C 262.121094 357.851562 265.105469 357.851562 268.09375 357.851562 C 268.09375 358.984375 268.09375 360.113281 268.09375 361.242188 C 266.933594 361.242188 265.769531 361.242188 264.609375 361.242188 C 264.609375 361.730469 264.609375 362.214844 264.609375 362.703125 C 265.792969 362.609375 268.625 362.609375 269.960938 362.609375 C 271.207031 362.609375 273.914062 362.609375 275.003906 362.703125 C 275.003906 362.214844 275.003906 361.730469 275.003906 361.242188 C 273.996094 361.242188 272.992188 361.242188 271.984375 361.242188 C 271.984375 360.113281 271.984375 358.984375 271.984375 357.851562 Z M 268.4375 356.390625 C 265.875 356.390625 263.3125 356.390625 260.75 356.390625 C 263.3125 353.179688 265.875 349.964844 268.4375 346.75 C 268.4375 349.964844 268.4375 353.179688 268.4375 356.390625 Z M 268.4375 356.390625 "/>
<path fill-rule="nonzero" fill="rgb(98.823529%, 38.431373%, 33.333333%)" fill-opacity="1" d="M 282.691406 355.332031 C 282.691406 350.597656 282.691406 345.859375 282.691406 341.121094 C 280.855469 341.207031 279.019531 341.289062 277.183594 341.371094 C 277.183594 341.859375 277.183594 342.347656 277.183594 342.832031 C 279.113281 342.832031 279.328125 342.832031 279.328125 344.046875 C 279.328125 349.777344 279.328125 355.511719 279.328125 361.242188 C 278.613281 361.242188 277.898438 361.242188 277.183594 361.242188 C 277.183594 361.730469 277.183594 362.214844 277.183594 362.703125 C 278.332031 362.671875 279.796875 362.609375 280.917969 362.609375 C 282.066406 362.609375 283.5625 362.671875 284.683594 362.703125 C 284.683594 362.214844 284.683594 361.730469 284.683594 361.242188 C 283.964844 361.242188 283.25 361.242188 282.535156 361.242188 C 282.535156 359.925781 282.535156 358.609375 282.535156 357.292969 C 283.4375 356.578125 283.6875 356.390625 284.308594 355.957031 C 285.355469 357.261719 286.402344 358.566406 287.453125 359.875 C 287.730469 360.246094 288.230469 360.867188 288.230469 360.960938 C 288.230469 361.242188 287.667969 361.242188 287.265625 361.242188 C 287.265625 361.730469 287.265625 362.214844 287.265625 362.703125 C 288.199219 362.640625 290.90625 362.609375 291.0625 362.609375 C 292.183594 362.609375 293.242188 362.640625 294.296875 362.703125 C 294.296875 362.214844 294.296875 361.730469 294.296875 361.242188 C 294.121094 361.242188 293.945312 361.242188 293.769531 361.242188 C 292.429688 361.242188 292.339844 361.117188 291.933594 360.621094 C 290.179688 358.433594 288.425781 356.246094 286.675781 354.058594 C 288.023438 353.011719 289.371094 351.964844 290.71875 350.917969 C 291.15625 350.574219 291.4375 350.359375 293.519531 350.359375 C 293.519531 349.871094 293.519531 349.382812 293.519531 348.898438 C 292.679688 348.988281 291.902344 348.988281 291.09375 348.988281 C 290.253906 348.988281 288.230469 348.929688 287.515625 348.898438 C 287.515625 349.382812 287.515625 349.871094 287.515625 350.359375 C 288.230469 350.359375 288.324219 350.453125 288.574219 350.699219 C 286.613281 352.246094 284.652344 353.789062 282.691406 355.332031 Z M 282.691406 355.332031 "/>
<path fill-rule="nonzero" fill="rgb(98.823529%, 38.431373%, 33.333333%)" fill-opacity="1" d="M 304.285156 341.777344 C 303.945312 341.402344 303.914062 341.371094 303.261719 341.371094 C 300.882812 341.371094 298.507812 341.371094 296.132812 341.371094 C 296.132812 341.859375 296.132812 342.347656 296.132812 342.832031 C 297.253906 342.832031 298.375 342.832031 299.492188 342.832031 C 299.492188 348.667969 299.492188 354.503906 299.492188 360.339844 C 299.492188 361.023438 299.464844 361.054688 298.589844 361.148438 C 297.84375 361.242188 297.78125 361.242188 296.910156 361.242188 C 296.652344 361.242188 296.390625 361.242188 296.132812 361.242188 C 296.132812 361.730469 296.132812 362.214844 296.132812 362.703125 C 297.316406 362.609375 299.089844 362.609375 300.304688 362.609375 C 301.609375 362.609375 303.230469 362.609375 304.503906 362.703125 C 304.503906 362.214844 304.503906 361.730469 304.503906 361.242188 C 304.246094 361.242188 303.984375 361.242188 303.726562 361.242188 C 303.167969 361.242188 302.636719 361.210938 302.078125 361.148438 C 301.175781 361.054688 301.144531 361.023438 301.144531 360.339844 C 301.144531 354.917969 301.144531 349.5 301.144531 344.078125 C 306.308594 350.152344 311.476562 356.226562 316.640625 362.300781 C 316.953125 362.671875 316.984375 362.703125 317.480469 362.703125 C 318.324219 362.703125 318.324219 362.425781 318.324219 361.707031 C 318.324219 355.71875 318.324219 349.726562 318.324219 343.734375 C 318.324219 343.050781 318.355469 343.019531 319.226562 342.925781 C 319.972656 342.832031 320.035156 342.832031 320.90625 342.832031 C 321.164062 342.832031 321.425781 342.832031 321.683594 342.832031 C 321.683594 342.347656 321.683594 341.859375 321.683594 341.371094 C 320.5 341.464844 318.726562 341.464844 317.511719 341.464844 C 316.207031 341.464844 314.589844 341.464844 313.3125 341.371094 C 313.3125 341.859375 313.3125 342.347656 313.3125 342.832031 C 313.570312 342.832031 313.832031 342.832031 314.089844 342.832031 C 314.648438 342.832031 315.179688 342.863281 315.738281 342.925781 C 316.640625 343.019531 316.671875 343.050781 316.671875 343.734375 C 316.671875 347.933594 316.671875 352.132812 316.671875 356.328125 C 312.542969 351.476562 308.414062 346.625 304.285156 341.777344 Z M 304.285156 341.777344 "/>
<path fill="none" stroke-width="0.04" stroke-linecap="butt" stroke-linejoin="miter" stroke="rgb(60.392157%, 44.705882%, 67.45098%)" stroke-opacity="1" stroke-miterlimit="10" d="M -5.185848 -1.428964 C -5.134201 -1.449105 -5.082488 -1.469246 -5.030841 -1.489387 " transform="matrix(59.976927, 0, 0, -59.929246, 338.5, 221.5)"/>
<path fill="none" stroke-width="0.04" stroke-linecap="butt" stroke-linejoin="miter" stroke="rgb(60.392157%, 44.705882%, 67.45098%)" stroke-opacity="1" stroke-miterlimit="10" d="M -4.866259 -1.55359 C -4.814547 -1.573731 -4.762899 -1.593872 -4.711252 -1.614013 " transform="matrix(59.976927, 0, 0, -59.929246, 338.5, 221.5)"/>
<path fill="none" stroke-width="0.04" stroke-linecap="butt" stroke-linejoin="miter" stroke="rgb(60.392157%, 44.705882%, 67.45098%)" stroke-opacity="1" stroke-miterlimit="10" d="M -4.546605 -1.678216 C -4.494958 -1.698357 -4.44331 -1.718498 -4.391663 -1.738639 " transform="matrix(59.976927, 0, 0, -59.929246, 338.5, 221.5)"/>
<path fill="none" stroke-width="0.04" stroke-linecap="butt" stroke-linejoin="miter" stroke="rgb(60.392157%, 44.705882%, 67.45098%)" stroke-opacity="1" stroke-miterlimit="10" d="M -4.227016 -1.802842 C -4.175369 -1.822983 -4.123721 -1.843059 -4.072074 -1.8632 " transform="matrix(59.976927, 0, 0, -59.929246, 338.5, 221.5)"/>
<path fill="none" stroke-width="0.04" stroke-linecap="butt" stroke-linejoin="miter" stroke="rgb(60.392157%, 44.705882%, 67.45098%)" stroke-opacity="1" stroke-miterlimit="10" d="M -3.907427 -1.927403 C -3.85578 -1.947544 -3.804132 -1.967685 -3.752485 -1.987826 " transform="matrix(59.976927, 0, 0, -59.929246, 338.5, 221.5)"/>
<path fill="none" stroke-width="0.04" stroke-linecap="butt" stroke-linejoin="miter" stroke="rgb(60.392157%, 44.705882%, 67.45098%)" stroke-opacity="1" stroke-miterlimit="10" d="M -3.587838 -2.052029 C -3.536191 -2.07217 -3.484543 -2.092311 -3.432896 -2.112452 " transform="matrix(59.976927, 0, 0, -59.929246, 338.5, 221.5)"/>
<path fill="none" stroke-width="0.04" stroke-linecap="butt" stroke-linejoin="miter" stroke="rgb(60.392157%, 44.705882%, 67.45098%)" stroke-opacity="1" stroke-miterlimit="10" d="M -3.268249 -2.176655 C -3.216602 -2.196796 -3.164954 -2.216937 -3.113307 -2.237078 " transform="matrix(59.976927, 0, 0, -59.929246, 338.5, 221.5)"/>
<path fill="none" stroke-width="0.04" stroke-linecap="butt" stroke-linejoin="miter" stroke="rgb(60.392157%, 44.705882%, 67.45098%)" stroke-opacity="1" stroke-miterlimit="10" d="M -2.94866 -2.301281 C -2.897012 -2.321422 -2.845365 -2.341563 -2.793718 -2.361704 " transform="matrix(59.976927, 0, 0, -59.929246, 338.5, 221.5)"/>
<path fill="none" stroke-width="0.04" stroke-linecap="butt" stroke-linejoin="miter" stroke="rgb(60.392157%, 44.705882%, 67.45098%)" stroke-opacity="1" stroke-miterlimit="10" d="M -2.629071 -2.425842 C -2.577423 -2.445983 -2.525776 -2.466124 -2.474129 -2.486265 " transform="matrix(59.976927, 0, 0, -59.929246, 338.5, 221.5)"/>
<path fill="none" stroke-width="0.04" stroke-linecap="butt" stroke-linejoin="miter" stroke="rgb(60.392157%, 44.705882%, 67.45098%)" stroke-opacity="1" stroke-miterlimit="10" d="M -2.309482 -2.550469 C -2.257834 -2.570609 -2.206187 -2.59075 -2.154474 -2.610891 " transform="matrix(59.976927, 0, 0, -59.929246, 338.5, 221.5)"/>
<path fill="none" stroke-width="0.04" stroke-linecap="butt" stroke-linejoin="miter" stroke="rgb(60.392157%, 44.705882%, 67.45098%)" stroke-opacity="1" stroke-miterlimit="10" d="M -1.989893 -2.675095 C -1.93818 -2.695236 -1.886533 -2.715377 -1.834885 -2.735517 " transform="matrix(59.976927, 0, 0, -59.929246, 338.5, 221.5)"/>
<path fill="none" stroke-width="0.04" stroke-linecap="butt" stroke-linejoin="miter" stroke="rgb(60.392157%, 44.705882%, 67.45098%)" stroke-opacity="1" stroke-miterlimit="10" d="M -1.670239 -2.799721 C -1.618591 -2.819862 -1.566944 -2.840003 -1.515296 -2.860144 " transform="matrix(59.976927, 0, 0, -59.929246, 338.5, 221.5)"/>
<path fill="none" stroke-width="0.04" stroke-linecap="butt" stroke-linejoin="miter" stroke="rgb(60.392157%, 44.705882%, 67.45098%)" stroke-opacity="1" stroke-miterlimit="10" d="M -1.35065 -2.924347 C -1.299002 -2.944488 -1.247355 -2.964629 -1.195707 -2.98477 " transform="matrix(59.976927, 0, 0, -59.929246, 338.5, 221.5)"/>
<path fill="none" stroke-width="0.04" stroke-linecap="butt" stroke-linejoin="miter" stroke="rgb(60.392157%, 44.705882%, 67.45098%)" stroke-opacity="1" stroke-miterlimit="10" d="M -1.031061 -3.048908 C -0.979413 -3.069049 -0.927766 -3.08919 -0.876118 -3.109331 " transform="matrix(59.976927, 0, 0, -59.929246, 338.5, 221.5)"/>
<path fill="none" stroke-width="0.04" stroke-linecap="butt" stroke-linejoin="miter" stroke="rgb(60.392157%, 44.705882%, 67.45098%)" stroke-opacity="1" stroke-miterlimit="10" d="M -0.711472 -3.173534 C -0.659824 -3.193675 -0.608177 -3.213816 -0.556529 -3.233957 " transform="matrix(59.976927, 0, 0, -59.929246, 338.5, 221.5)"/>
<path fill="none" stroke-width="0.04" stroke-linecap="butt" stroke-linejoin="miter" stroke="rgb(60.392157%, 44.705882%, 67.45098%)" stroke-opacity="1" stroke-miterlimit="10" d="M -0.391882 -3.29816 C -0.340235 -3.318301 -0.288588 -3.338442 -0.23694 -3.358583 " transform="matrix(59.976927, 0, 0, -59.929246, 338.5, 221.5)"/>
<path fill="none" stroke-width="0.04" stroke-linecap="butt" stroke-linejoin="miter" stroke="rgb(60.392157%, 44.705882%, 67.45098%)" stroke-opacity="1" stroke-miterlimit="10" d="M -0.0722934 -3.422786 C -0.020646 -3.442927 0.0310015 -3.463068 0.082649 -3.483209 " transform="matrix(59.976927, 0, 0, -59.929246, 338.5, 221.5)"/>
<path fill="none" stroke-width="0.04" stroke-linecap="butt" stroke-linejoin="miter" stroke="rgb(60.392157%, 44.705882%, 67.45098%)" stroke-opacity="1" stroke-miterlimit="10" d="M 0.082649 -3.483209 C 0.13586 -3.463068 0.18907 -3.442927 0.242281 -3.422786 " transform="matrix(59.976927, 0, 0, -59.929246, 338.5, 221.5)"/>
<path fill="none" stroke-width="0.04" stroke-linecap="butt" stroke-linejoin="miter" stroke="rgb(60.392157%, 44.705882%, 67.45098%)" stroke-opacity="1" stroke-miterlimit="10" d="M 0.411942 -3.358583 C 0.465153 -3.338442 0.518363 -3.318301 0.571574 -3.29816 " transform="matrix(59.976927, 0, 0, -59.929246, 338.5, 221.5)"/>
<path fill="none" stroke-width="0.04" stroke-linecap="butt" stroke-linejoin="miter" stroke="rgb(60.392157%, 44.705882%, 67.45098%)" stroke-opacity="1" stroke-miterlimit="10" d="M 0.74117 -3.233957 C 0.794381 -3.213816 0.847592 -3.193675 0.900802 -3.173534 " transform="matrix(59.976927, 0, 0, -59.929246, 338.5, 221.5)"/>
<path fill="none" stroke-width="0.04" stroke-linecap="butt" stroke-linejoin="miter" stroke="rgb(60.392157%, 44.705882%, 67.45098%)" stroke-opacity="1" stroke-miterlimit="10" d="M 1.070399 -3.109331 C 1.123609 -3.08919 1.17682 -3.069049 1.23003 -3.048908 " transform="matrix(59.976927, 0, 0, -59.929246, 338.5, 221.5)"/>
<path fill="none" stroke-width="0.04" stroke-linecap="butt" stroke-linejoin="miter" stroke="rgb(60.392157%, 44.705882%, 67.45098%)" stroke-opacity="1" stroke-miterlimit="10" d="M 1.399627 -2.98477 C 1.452837 -2.964629 1.506048 -2.944488 1.559258 -2.924347 " transform="matrix(59.976927, 0, 0, -59.929246, 338.5, 221.5)"/>
<path fill="none" stroke-width="0.04" stroke-linecap="butt" stroke-linejoin="miter" stroke="rgb(60.392157%, 44.705882%, 67.45098%)" stroke-opacity="1" stroke-miterlimit="10" d="M 1.728855 -2.860144 C 1.782066 -2.840003 1.835276 -2.819862 1.888487 -2.799721 " transform="matrix(59.976927, 0, 0, -59.929246, 338.5, 221.5)"/>
<path fill="none" stroke-width="0.04" stroke-linecap="butt" stroke-linejoin="miter" stroke="rgb(60.392157%, 44.705882%, 67.45098%)" stroke-opacity="1" stroke-miterlimit="10" d="M 2.058148 -2.735517 C 2.111359 -2.715377 2.164569 -2.695236 2.21778 -2.675095 " transform="matrix(59.976927, 0, 0, -59.929246, 338.5, 221.5)"/>
<path fill="none" stroke-width="0.04" stroke-linecap="butt" stroke-linejoin="miter" stroke="rgb(60.392157%, 44.705882%, 67.45098%)" stroke-opacity="1" stroke-miterlimit="10" d="M 2.387376 -2.610891 C 2.440587 -2.59075 2.493798 -2.570609 2.547008 -2.550469 " transform="matrix(59.976927, 0, 0, -59.929246, 338.5, 221.5)"/>
<path fill="none" stroke-width="0.04" stroke-linecap="butt" stroke-linejoin="miter" stroke="rgb(60.392157%, 44.705882%, 67.45098%)" stroke-opacity="1" stroke-miterlimit="10" d="M 2.716605 -2.486265 C 2.769815 -2.466124 2.823026 -2.445983 2.876236 -2.425842 " transform="matrix(59.976927, 0, 0, -59.929246, 338.5, 221.5)"/>
<path fill="none" stroke-width="0.04" stroke-linecap="butt" stroke-linejoin="miter" stroke="rgb(60.392157%, 44.705882%, 67.45098%)" stroke-opacity="1" stroke-miterlimit="10" d="M 3.045833 -2.361704 C 3.099043 -2.341563 3.152254 -2.321422 3.205464 -2.301281 " transform="matrix(59.976927, 0, 0, -59.929246, 338.5, 221.5)"/>
<path fill="none" stroke-width="0.04" stroke-linecap="butt" stroke-linejoin="miter" stroke="rgb(60.392157%, 44.705882%, 67.45098%)" stroke-opacity="1" stroke-miterlimit="10" d="M 3.375061 -2.237078 C 3.428271 -2.216937 3.481482 -2.196796 3.534693 -2.176655 " transform="matrix(59.976927, 0, 0, -59.929246, 338.5, 221.5)"/>
<path fill="none" stroke-width="0.04" stroke-linecap="butt" stroke-linejoin="miter" stroke="rgb(60.392157%, 44.705882%, 67.45098%)" stroke-opacity="1" stroke-miterlimit="10" d="M 3.704289 -2.112452 C 3.7575 -2.092311 3.81071 -2.07217 3.863986 -2.052029 " transform="matrix(59.976927, 0, 0, -59.929246, 338.5, 221.5)"/>
<path fill="none" stroke-width="0.04" stroke-linecap="butt" stroke-linejoin="miter" stroke="rgb(60.392157%, 44.705882%, 67.45098%)" stroke-opacity="1" stroke-miterlimit="10" d="M 4.033582 -1.987826 C 4.086793 -1.967685 4.140004 -1.947544 4.193214 -1.927403 " transform="matrix(59.976927, 0, 0, -59.929246, 338.5, 221.5)"/>
<path fill="none" stroke-width="0.04" stroke-linecap="butt" stroke-linejoin="miter" stroke="rgb(60.392157%, 44.705882%, 67.45098%)" stroke-opacity="1" stroke-miterlimit="10" d="M 4.362811 -1.8632 C 4.416021 -1.843059 4.469232 -1.822983 4.522442 -1.802842 " transform="matrix(59.976927, 0, 0, -59.929246, 338.5, 221.5)"/>
<path fill="none" stroke-width="0.04" stroke-linecap="butt" stroke-linejoin="miter" stroke="rgb(60.392157%, 44.705882%, 67.45098%)" stroke-opacity="1" stroke-miterlimit="10" d="M 4.692039 -1.738639 C 4.745249 -1.718498 4.79846 -1.698357 4.85167 -1.678216 " transform="matrix(59.976927, 0, 0, -59.929246, 338.5, 221.5)"/>
<path fill="none" stroke-width="0.04" stroke-linecap="butt" stroke-linejoin="miter" stroke="rgb(60.392157%, 44.705882%, 67.45098%)" stroke-opacity="1" stroke-miterlimit="10" d="M 5.021267 -1.614013 C 5.074477 -1.593872 5.127688 -1.573731 5.180899 -1.55359 " transform="matrix(59.976927, 0, 0, -59.929246, 338.5, 221.5)"/>
<path fill="none" stroke-width="0.04" stroke-linecap="butt" stroke-linejoin="miter" stroke="rgb(60.392157%, 44.705882%, 67.45098%)" stroke-opacity="1" stroke-miterlimit="10" d="M 5.350495 -1.489387 C 5.403706 -1.469246 5.456916 -1.449105 5.510127 -1.428964 " transform="matrix(59.976927, 0, 0, -59.929246, 338.5, 221.5)"/>
<path fill="none" stroke-width="0.04" stroke-linecap="butt" stroke-linejoin="miter" stroke="rgb(60.392157%, 44.705882%, 67.45098%)" stroke-opacity="1" stroke-miterlimit="10" d="M 5.510127 -1.428964 C 5.473133 -1.400936 5.43614 -1.372908 5.399147 -1.34488 " transform="matrix(59.976927, 0, 0, -59.929246, 338.5, 221.5)"/>
<path fill="none" stroke-width="0.04" stroke-linecap="butt" stroke-linejoin="miter" stroke="rgb(60.392157%, 44.705882%, 67.45098%)" stroke-opacity="1" stroke-miterlimit="10" d="M 5.283282 -1.257147 C 5.246288 -1.229119 5.209295 -1.201091 5.172302 -1.173063 " transform="matrix(59.976927, 0, 0, -59.929246, 338.5, 221.5)"/>
<path fill="none" stroke-width="0.04" stroke-linecap="butt" stroke-linejoin="miter" stroke="rgb(60.392157%, 44.705882%, 67.45098%)" stroke-opacity="1" stroke-miterlimit="10" d="M 5.056437 -1.085329 C 5.019443 -1.057301 4.98245 -1.029274 4.945456 -1.001246 " transform="matrix(59.976927, 0, 0, -59.929246, 338.5, 221.5)"/>
<path fill="none" stroke-width="0.04" stroke-linecap="butt" stroke-linejoin="miter" stroke="rgb(60.392157%, 44.705882%, 67.45098%)" stroke-opacity="1" stroke-miterlimit="10" d="M 4.829592 -0.913512 C 4.792598 -0.885484 4.755605 -0.857456 4.718611 -0.829429 " transform="matrix(59.976927, 0, 0, -59.929246, 338.5, 221.5)"/>
<path fill="none" stroke-width="0.04" stroke-linecap="butt" stroke-linejoin="miter" stroke="rgb(60.392157%, 44.705882%, 67.45098%)" stroke-opacity="1" stroke-miterlimit="10" d="M 4.602747 -0.741695 C 4.565753 -0.713667 4.52876 -0.685639 4.491766 -0.657611 " transform="matrix(59.976927, 0, 0, -59.929246, 338.5, 221.5)"/>
<path fill="none" stroke-width="0.04" stroke-linecap="butt" stroke-linejoin="miter" stroke="rgb(60.392157%, 44.705882%, 67.45098%)" stroke-opacity="1" stroke-miterlimit="10" d="M 4.375902 -0.569878 C 4.338908 -0.54185 4.301915 -0.513822 4.264856 -0.485729 " transform="matrix(59.976927, 0, 0, -59.929246, 338.5, 221.5)"/>
<path fill="none" stroke-width="0.04" stroke-linecap="butt" stroke-linejoin="miter" stroke="rgb(60.392157%, 44.705882%, 67.45098%)" stroke-opacity="1" stroke-miterlimit="10" d="M 4.149056 -0.397995 C 4.112063 -0.369968 4.07507 -0.34194 4.038011 -0.313912 " transform="matrix(59.976927, 0, 0, -59.929246, 338.5, 221.5)"/>
<path fill="none" stroke-width="0.04" stroke-linecap="butt" stroke-linejoin="miter" stroke="rgb(60.392157%, 44.705882%, 67.45098%)" stroke-opacity="1" stroke-miterlimit="10" d="M 3.922211 -0.226178 C 3.885218 -0.19815 3.84816 -0.170122 3.811166 -0.142095 " transform="matrix(59.976927, 0, 0, -59.929246, 338.5, 221.5)"/>
<path fill="none" stroke-width="0.04" stroke-linecap="butt" stroke-linejoin="miter" stroke="rgb(60.392157%, 44.705882%, 67.45098%)" stroke-opacity="1" stroke-miterlimit="10" d="M 3.695366 -0.054361 C 3.658373 -0.0263331 3.621314 0.00169471 3.584321 0.0297225 " transform="matrix(59.976927, 0, 0, -59.929246, 338.5, 221.5)"/>
<path fill="none" stroke-width="0.04" stroke-linecap="butt" stroke-linejoin="miter" stroke="rgb(60.392157%, 44.705882%, 67.45098%)" stroke-opacity="1" stroke-miterlimit="10" d="M 3.468521 0.117456 C 3.431463 0.145484 3.394469 0.173512 3.357476 0.20154 " transform="matrix(59.976927, 0, 0, -59.929246, 338.5, 221.5)"/>
<path fill="none" stroke-width="0.04" stroke-linecap="butt" stroke-linejoin="miter" stroke="rgb(60.392157%, 44.705882%, 67.45098%)" stroke-opacity="1" stroke-miterlimit="10" d="M 3.241611 0.289273 C 3.204618 0.317301 3.167624 0.345329 3.130631 0.373357 " transform="matrix(59.976927, 0, 0, -59.929246, 338.5, 221.5)"/>
<path fill="none" stroke-width="0.04" stroke-linecap="butt" stroke-linejoin="miter" stroke="rgb(60.392157%, 44.705882%, 67.45098%)" stroke-opacity="1" stroke-miterlimit="10" d="M 3.014766 0.461091 C 2.977773 0.489118 2.940779 0.517146 2.903786 0.545174 " transform="matrix(59.976927, 0, 0, -59.929246, 338.5, 221.5)"/>
<path fill="none" stroke-width="0.04" stroke-linecap="butt" stroke-linejoin="miter" stroke="rgb(60.392157%, 44.705882%, 67.45098%)" stroke-opacity="1" stroke-miterlimit="10" d="M 2.787921 0.632908 C 2.750928 0.660936 2.713934 0.688963 2.676941 0.716991 " transform="matrix(59.976927, 0, 0, -59.929246, 338.5, 221.5)"/>
<path fill="none" stroke-width="0.04" stroke-linecap="butt" stroke-linejoin="miter" stroke="rgb(60.392157%, 44.705882%, 67.45098%)" stroke-opacity="1" stroke-miterlimit="10" d="M 2.561076 0.80479 C 2.524083 0.832818 2.487089 0.860846 2.450096 0.888874 " transform="matrix(59.976927, 0, 0, -59.929246, 338.5, 221.5)"/>
<path fill="none" stroke-width="0.04" stroke-linecap="butt" stroke-linejoin="miter" stroke="rgb(60.392157%, 44.705882%, 67.45098%)" stroke-opacity="1" stroke-miterlimit="10" d="M 2.334231 0.976607 C 2.297238 1.004635 2.260244 1.032663 2.223251 1.060691 " transform="matrix(59.976927, 0, 0, -59.929246, 338.5, 221.5)"/>
<path fill="none" stroke-width="0.04" stroke-linecap="butt" stroke-linejoin="miter" stroke="rgb(60.392157%, 44.705882%, 67.45098%)" stroke-opacity="1" stroke-miterlimit="10" d="M 2.107386 1.148425 C 2.070393 1.176452 2.033399 1.20448 1.996341 1.232508 " transform="matrix(59.976927, 0, 0, -59.929246, 338.5, 221.5)"/>
<path fill="none" stroke-width="0.04" stroke-linecap="butt" stroke-linejoin="miter" stroke="rgb(60.392157%, 44.705882%, 67.45098%)" stroke-opacity="1" stroke-miterlimit="10" d="M 1.880541 1.320242 C 1.843547 1.34827 1.806554 1.376297 1.769496 1.404325 " transform="matrix(59.976927, 0, 0, -59.929246, 338.5, 221.5)"/>
<path fill="none" stroke-width="0.04" stroke-linecap="butt" stroke-linejoin="miter" stroke="rgb(60.392157%, 44.705882%, 67.45098%)" stroke-opacity="1" stroke-miterlimit="10" d="M 1.653696 1.492059 C 1.616702 1.520087 1.579644 1.548115 1.542651 1.576142 " transform="matrix(59.976927, 0, 0, -59.929246, 338.5, 221.5)"/>
<path fill="none" stroke-width="0.04" stroke-linecap="butt" stroke-linejoin="miter" stroke="rgb(60.392157%, 44.705882%, 67.45098%)" stroke-opacity="1" stroke-miterlimit="10" d="M 1.426851 1.663876 C 1.389857 1.691904 1.352799 1.719932 1.315805 1.74796 " transform="matrix(59.976927, 0, 0, -59.929246, 338.5, 221.5)"/>
<path fill="none" stroke-width="0.04" stroke-linecap="butt" stroke-linejoin="miter" stroke="rgb(60.392157%, 44.705882%, 67.45098%)" stroke-opacity="1" stroke-miterlimit="10" d="M 1.200006 1.835693 C 1.162947 1.863721 1.125954 1.891749 1.08896 1.919777 " transform="matrix(59.976927, 0, 0, -59.929246, 338.5, 221.5)"/>
<path fill="none" stroke-width="0.04" stroke-linecap="butt" stroke-linejoin="miter" stroke="rgb(60.392157%, 44.705882%, 67.45098%)" stroke-opacity="1" stroke-miterlimit="10" d="M 0.973096 2.007511 C 0.936102 2.035538 0.899109 2.063566 0.862115 2.091594 " transform="matrix(59.976927, 0, 0, -59.929246, 338.5, 221.5)"/>
<path fill="none" stroke-width="0.04" stroke-linecap="butt" stroke-linejoin="miter" stroke="rgb(60.392157%, 44.705882%, 67.45098%)" stroke-opacity="1" stroke-miterlimit="10" d="M 0.746251 2.179393 C 0.709257 2.207421 0.672264 2.235449 0.63527 2.263476 " transform="matrix(59.976927, 0, 0, -59.929246, 338.5, 221.5)"/>
<path fill="none" stroke-width="0.04" stroke-linecap="butt" stroke-linejoin="miter" stroke="rgb(60.392157%, 44.705882%, 67.45098%)" stroke-opacity="1" stroke-miterlimit="10" d="M 0.519405 2.35121 C 0.482412 2.379238 0.445419 2.407266 0.408425 2.435294 " transform="matrix(59.976927, 0, 0, -59.929246, 338.5, 221.5)"/>
<path fill="none" stroke-width="0.04" stroke-linecap="butt" stroke-linejoin="miter" stroke="rgb(60.392157%, 44.705882%, 67.45098%)" stroke-opacity="1" stroke-miterlimit="10" d="M 0.29256 2.523027 C 0.255567 2.551055 0.218574 2.579083 0.18158 2.607111 " transform="matrix(59.976927, 0, 0, -59.929246, 338.5, 221.5)"/>
<path fill="none" stroke-width="0.04" stroke-linecap="butt" stroke-linejoin="miter" stroke="rgb(60.392157%, 44.705882%, 67.45098%)" stroke-opacity="1" stroke-miterlimit="10" d="M 0.18158 2.607111 C 0.144261 2.579083 0.107007 2.551055 0.0697534 2.523027 " transform="matrix(59.976927, 0, 0, -59.929246, 338.5, 221.5)"/>
<path fill="none" stroke-width="0.04" stroke-linecap="butt" stroke-linejoin="miter" stroke="rgb(60.392157%, 44.705882%, 67.45098%)" stroke-opacity="1" stroke-miterlimit="10" d="M -0.0469582 2.435294 C -0.0842121 2.407266 -0.121466 2.379238 -0.158785 2.35121 " transform="matrix(59.976927, 0, 0, -59.929246, 338.5, 221.5)"/>
<path fill="none" stroke-width="0.04" stroke-linecap="butt" stroke-linejoin="miter" stroke="rgb(60.392157%, 44.705882%, 67.45098%)" stroke-opacity="1" stroke-miterlimit="10" d="M -0.275431 2.263476 C -0.31275 2.235449 -0.350004 2.207421 -0.387258 2.179393 " transform="matrix(59.976927, 0, 0, -59.929246, 338.5, 221.5)"/>
<path fill="none" stroke-width="0.04" stroke-linecap="butt" stroke-linejoin="miter" stroke="rgb(60.392157%, 44.705882%, 67.45098%)" stroke-opacity="1" stroke-miterlimit="10" d="M -0.50397 2.091594 C -0.541224 2.063566 -0.578478 2.035538 -0.615797 2.007511 " transform="matrix(59.976927, 0, 0, -59.929246, 338.5, 221.5)"/>
<path fill="none" stroke-width="0.04" stroke-linecap="butt" stroke-linejoin="miter" stroke="rgb(60.392157%, 44.705882%, 67.45098%)" stroke-opacity="1" stroke-miterlimit="10" d="M -0.732443 1.919777 C -0.769697 1.891749 -0.807016 1.863721 -0.84427 1.835693 " transform="matrix(59.976927, 0, 0, -59.929246, 338.5, 221.5)"/>
<path fill="none" stroke-width="0.04" stroke-linecap="butt" stroke-linejoin="miter" stroke="rgb(60.392157%, 44.705882%, 67.45098%)" stroke-opacity="1" stroke-miterlimit="10" d="M -0.960982 1.74796 C -0.998235 1.719932 -1.035489 1.691904 -1.072743 1.663876 " transform="matrix(59.976927, 0, 0, -59.929246, 338.5, 221.5)"/>
<path fill="none" stroke-width="0.04" stroke-linecap="butt" stroke-linejoin="miter" stroke="rgb(60.392157%, 44.705882%, 67.45098%)" stroke-opacity="1" stroke-miterlimit="10" d="M -1.189455 1.576142 C -1.226709 1.548115 -1.264028 1.520087 -1.301282 1.492059 " transform="matrix(59.976927, 0, 0, -59.929246, 338.5, 221.5)"/>
<path fill="none" stroke-width="0.04" stroke-linecap="butt" stroke-linejoin="miter" stroke="rgb(60.392157%, 44.705882%, 67.45098%)" stroke-opacity="1" stroke-miterlimit="10" d="M -1.417928 1.404325 C -1.455247 1.376297 -1.492501 1.34827 -1.529755 1.320242 " transform="matrix(59.976927, 0, 0, -59.929246, 338.5, 221.5)"/>
<path fill="none" stroke-width="0.04" stroke-linecap="butt" stroke-linejoin="miter" stroke="rgb(60.392157%, 44.705882%, 67.45098%)" stroke-opacity="1" stroke-miterlimit="10" d="M -1.646466 1.232508 C -1.68372 1.20448 -1.721039 1.176452 -1.758293 1.148425 " transform="matrix(59.976927, 0, 0, -59.929246, 338.5, 221.5)"/>
<path fill="none" stroke-width="0.04" stroke-linecap="butt" stroke-linejoin="miter" stroke="rgb(60.392157%, 44.705882%, 67.45098%)" stroke-opacity="1" stroke-miterlimit="10" d="M -1.87494 1.060691 C -1.912259 1.032663 -1.949513 1.004635 -1.986767 0.976607 " transform="matrix(59.976927, 0, 0, -59.929246, 338.5, 221.5)"/>
<path fill="none" stroke-width="0.04" stroke-linecap="butt" stroke-linejoin="miter" stroke="rgb(60.392157%, 44.705882%, 67.45098%)" stroke-opacity="1" stroke-miterlimit="10" d="M -2.103478 0.888874 C -2.140732 0.860846 -2.177986 0.832818 -2.215305 0.80479 " transform="matrix(59.976927, 0, 0, -59.929246, 338.5, 221.5)"/>
<path fill="none" stroke-width="0.04" stroke-linecap="butt" stroke-linejoin="miter" stroke="rgb(60.392157%, 44.705882%, 67.45098%)" stroke-opacity="1" stroke-miterlimit="10" d="M -2.331951 0.716991 C -2.36927 0.688963 -2.406524 0.660936 -2.443778 0.632908 " transform="matrix(59.976927, 0, 0, -59.929246, 338.5, 221.5)"/>
<path fill="none" stroke-width="0.04" stroke-linecap="butt" stroke-linejoin="miter" stroke="rgb(60.392157%, 44.705882%, 67.45098%)" stroke-opacity="1" stroke-miterlimit="10" d="M -2.56049 0.545174 C -2.597744 0.517146 -2.634998 0.489118 -2.672317 0.461091 " transform="matrix(59.976927, 0, 0, -59.929246, 338.5, 221.5)"/>
<path fill="none" stroke-width="0.04" stroke-linecap="butt" stroke-linejoin="miter" stroke="rgb(60.392157%, 44.705882%, 67.45098%)" stroke-opacity="1" stroke-miterlimit="10" d="M -2.788963 0.373357 C -2.826217 0.345329 -2.863536 0.317301 -2.90079 0.289273 " transform="matrix(59.976927, 0, 0, -59.929246, 338.5, 221.5)"/>
<path fill="none" stroke-width="0.04" stroke-linecap="butt" stroke-linejoin="miter" stroke="rgb(60.392157%, 44.705882%, 67.45098%)" stroke-opacity="1" stroke-miterlimit="10" d="M -3.017502 0.20154 C -3.054755 0.173512 -3.092009 0.145484 -3.129328 0.117456 " transform="matrix(59.976927, 0, 0, -59.929246, 338.5, 221.5)"/>
<path fill="none" stroke-width="0.04" stroke-linecap="butt" stroke-linejoin="miter" stroke="rgb(60.392157%, 44.705882%, 67.45098%)" stroke-opacity="1" stroke-miterlimit="10" d="M -3.245975 0.0297225 C -3.283229 0.00169471 -3.320548 -0.0263331 -3.357802 -0.054361 " transform="matrix(59.976927, 0, 0, -59.929246, 338.5, 221.5)"/>
<path fill="none" stroke-width="0.04" stroke-linecap="butt" stroke-linejoin="miter" stroke="rgb(60.392157%, 44.705882%, 67.45098%)" stroke-opacity="1" stroke-miterlimit="10" d="M -3.474513 -0.142095 C -3.511767 -0.170122 -3.549021 -0.19815 -3.586275 -0.226178 " transform="matrix(59.976927, 0, 0, -59.929246, 338.5, 221.5)"/>
<path fill="none" stroke-width="0.04" stroke-linecap="butt" stroke-linejoin="miter" stroke="rgb(60.392157%, 44.705882%, 67.45098%)" stroke-opacity="1" stroke-miterlimit="10" d="M -3.702986 -0.313912 C -3.74024 -0.34194 -3.777559 -0.369968 -3.814813 -0.397995 " transform="matrix(59.976927, 0, 0, -59.929246, 338.5, 221.5)"/>
<path fill="none" stroke-width="0.04" stroke-linecap="butt" stroke-linejoin="miter" stroke="rgb(60.392157%, 44.705882%, 67.45098%)" stroke-opacity="1" stroke-miterlimit="10" d="M -3.93146 -0.485729 C -3.968779 -0.513822 -4.006033 -0.54185 -4.043287 -0.569878 " transform="matrix(59.976927, 0, 0, -59.929246, 338.5, 221.5)"/>
<path fill="none" stroke-width="0.04" stroke-linecap="butt" stroke-linejoin="miter" stroke="rgb(60.392157%, 44.705882%, 67.45098%)" stroke-opacity="1" stroke-miterlimit="10" d="M -4.159998 -0.657611 C -4.197252 -0.685639 -4.234571 -0.713667 -4.271825 -0.741695 " transform="matrix(59.976927, 0, 0, -59.929246, 338.5, 221.5)"/>
<path fill="none" stroke-width="0.04" stroke-linecap="butt" stroke-linejoin="miter" stroke="rgb(60.392157%, 44.705882%, 67.45098%)" stroke-opacity="1" stroke-miterlimit="10" d="M -4.388471 -0.829429 C -4.42579 -0.857456 -4.463044 -0.885484 -4.500298 -0.913512 " transform="matrix(59.976927, 0, 0, -59.929246, 338.5, 221.5)"/>
<path fill="none" stroke-width="0.04" stroke-linecap="butt" stroke-linejoin="miter" stroke="rgb(60.392157%, 44.705882%, 67.45098%)" stroke-opacity="1" stroke-miterlimit="10" d="M -4.61701 -1.001246 C -4.654264 -1.029274 -4.691518 -1.057301 -4.728837 -1.085329 " transform="matrix(59.976927, 0, 0, -59.929246, 338.5, 221.5)"/>
<path fill="none" stroke-width="0.04" stroke-linecap="butt" stroke-linejoin="miter" stroke="rgb(60.392157%, 44.705882%, 67.45098%)" stroke-opacity="1" stroke-miterlimit="10" d="M -4.845483 -1.173063 C -4.882802 -1.201091 -4.920056 -1.229119 -4.95731 -1.257147 " transform="matrix(59.976927, 0, 0, -59.929246, 338.5, 221.5)"/>
<path fill="none" stroke-width="0.04" stroke-linecap="butt" stroke-linejoin="miter" stroke="rgb(60.392157%, 44.705882%, 67.45098%)" stroke-opacity="1" stroke-miterlimit="10" d="M -5.074022 -1.34488 C -5.111275 -1.372908 -5.148529 -1.400936 -5.185848 -1.428964 " transform="matrix(59.976927, 0, 0, -59.929246, 338.5, 221.5)"/>
<path fill="none" stroke-width="0.04" stroke-linecap="butt" stroke-linejoin="miter" stroke="rgb(60.392157%, 44.705882%, 67.45098%)" stroke-opacity="1" stroke-miterlimit="10" d="M 0.082649 -3.483209 C 0.0836259 -3.423503 0.0846028 -3.363797 0.0855798 -3.304092 " transform="matrix(59.976927, 0, 0, -59.929246, 338.5, 221.5)"/>
<path fill="none" stroke-width="0.04" stroke-linecap="butt" stroke-linejoin="miter" stroke="rgb(60.392157%, 44.705882%, 67.45098%)" stroke-opacity="1" stroke-miterlimit="10" d="M 0.0886409 -3.113763 C 0.0896178 -3.054057 0.0905947 -2.994351 0.0915717 -2.934646 " transform="matrix(59.976927, 0, 0, -59.929246, 338.5, 221.5)"/>
<path fill="none" stroke-width="0.04" stroke-linecap="butt" stroke-linejoin="miter" stroke="rgb(60.392157%, 44.705882%, 67.45098%)" stroke-opacity="1" stroke-miterlimit="10" d="M 0.0946979 -2.744317 C 0.0956097 -2.684611 0.0965866 -2.624905 0.0975636 -2.565199 " transform="matrix(59.976927, 0, 0, -59.929246, 338.5, 221.5)"/>
<path fill="none" stroke-width="0.04" stroke-linecap="butt" stroke-linejoin="miter" stroke="rgb(60.392157%, 44.705882%, 67.45098%)" stroke-opacity="1" stroke-miterlimit="10" d="M 0.10069 -2.374871 C 0.101667 -2.315165 0.102579 -2.255459 0.103555 -2.195753 " transform="matrix(59.976927, 0, 0, -59.929246, 338.5, 221.5)"/>
<path fill="none" stroke-width="0.04" stroke-linecap="butt" stroke-linejoin="miter" stroke="rgb(60.392157%, 44.705882%, 67.45098%)" stroke-opacity="1" stroke-miterlimit="10" d="M 0.106682 -2.005425 C 0.107659 -1.945719 0.108636 -1.886013 0.109547 -1.826242 " transform="matrix(59.976927, 0, 0, -59.929246, 338.5, 221.5)"/>
<path fill="none" stroke-width="0.04" stroke-linecap="butt" stroke-linejoin="miter" stroke="rgb(60.392157%, 44.705882%, 67.45098%)" stroke-opacity="1" stroke-miterlimit="10" d="M 0.112674 -1.635979 C 0.11365 -1.576273 0.114627 -1.516567 0.115604 -1.456796 " transform="matrix(59.976927, 0, 0, -59.929246, 338.5, 221.5)"/>
<path fill="none" stroke-width="0.04" stroke-linecap="butt" stroke-linejoin="miter" stroke="rgb(60.392157%, 44.705882%, 67.45098%)" stroke-opacity="1" stroke-miterlimit="10" d="M 0.118665 -1.266533 C 0.119642 -1.206827 0.120619 -1.147056 0.121596 -1.08735 " transform="matrix(59.976927, 0, 0, -59.929246, 338.5, 221.5)"/>
<path fill="none" stroke-width="0.04" stroke-linecap="butt" stroke-linejoin="miter" stroke="rgb(60.392157%, 44.705882%, 67.45098%)" stroke-opacity="1" stroke-miterlimit="10" d="M 0.124657 -0.897087 C 0.125634 -0.837316 0.126611 -0.77761 0.127588 -0.717904 " transform="matrix(59.976927, 0, 0, -59.929246, 338.5, 221.5)"/>
<path fill="none" stroke-width="0.04" stroke-linecap="butt" stroke-linejoin="miter" stroke="rgb(60.392157%, 44.705882%, 67.45098%)" stroke-opacity="1" stroke-miterlimit="10" d="M 0.130649 -0.52764 C 0.131626 -0.467869 0.132603 -0.408164 0.13358 -0.348458 " transform="matrix(59.976927, 0, 0, -59.929246, 338.5, 221.5)"/>
<path fill="none" stroke-width="0.04" stroke-linecap="butt" stroke-linejoin="miter" stroke="rgb(60.392157%, 44.705882%, 67.45098%)" stroke-opacity="1" stroke-miterlimit="10" d="M 0.136641 -0.158129 C 0.137618 -0.0984234 0.138595 -0.0387175 0.139572 0.0209883 " transform="matrix(59.976927, 0, 0, -59.929246, 338.5, 221.5)"/>
<path fill="none" stroke-width="0.04" stroke-linecap="butt" stroke-linejoin="miter" stroke="rgb(60.392157%, 44.705882%, 67.45098%)" stroke-opacity="1" stroke-miterlimit="10" d="M 0.142633 0.211317 C 0.14361 0.271023 0.144587 0.330729 0.145564 0.390434 " transform="matrix(59.976927, 0, 0, -59.929246, 338.5, 221.5)"/>
<path fill="none" stroke-width="0.04" stroke-linecap="butt" stroke-linejoin="miter" stroke="rgb(60.392157%, 44.705882%, 67.45098%)" stroke-opacity="1" stroke-miterlimit="10" d="M 0.14869 0.580763 C 0.149602 0.640469 0.150579 0.700175 0.151556 0.75988 " transform="matrix(59.976927, 0, 0, -59.929246, 338.5, 221.5)"/>
<path fill="none" stroke-width="0.04" stroke-linecap="butt" stroke-linejoin="miter" stroke="rgb(60.392157%, 44.705882%, 67.45098%)" stroke-opacity="1" stroke-miterlimit="10" d="M 0.154682 0.950209 C 0.155659 1.009915 0.156571 1.069621 0.157548 1.129327 " transform="matrix(59.976927, 0, 0, -59.929246, 338.5, 221.5)"/>
<path fill="none" stroke-width="0.04" stroke-linecap="butt" stroke-linejoin="miter" stroke="rgb(60.392157%, 44.705882%, 67.45098%)" stroke-opacity="1" stroke-miterlimit="10" d="M 0.160674 1.319655 C 0.161651 1.379361 0.162563 1.439067 0.163539 1.498773 " transform="matrix(59.976927, 0, 0, -59.929246, 338.5, 221.5)"/>
<path fill="none" stroke-width="0.04" stroke-linecap="butt" stroke-linejoin="miter" stroke="rgb(60.392157%, 44.705882%, 67.45098%)" stroke-opacity="1" stroke-miterlimit="10" d="M 0.166666 1.689101 C 0.167643 1.748807 0.16862 1.808513 0.169531 1.868219 " transform="matrix(59.976927, 0, 0, -59.929246, 338.5, 221.5)"/>
<path fill="none" stroke-width="0.04" stroke-linecap="butt" stroke-linejoin="miter" stroke="rgb(60.392157%, 44.705882%, 67.45098%)" stroke-opacity="1" stroke-miterlimit="10" d="M 0.172658 2.058547 C 0.173634 2.118253 0.174611 2.177959 0.175588 2.237665 " transform="matrix(59.976927, 0, 0, -59.929246, 338.5, 221.5)"/>
<path fill="none" stroke-width="0.04" stroke-linecap="butt" stroke-linejoin="miter" stroke="rgb(60.392157%, 44.705882%, 67.45098%)" stroke-opacity="1" stroke-miterlimit="10" d="M 0.178649 2.427993 C 0.179626 2.487699 0.180603 2.547405 0.18158 2.607111 " transform="matrix(59.976927, 0, 0, -59.929246, 338.5, 221.5)"/>
<path fill-rule="nonzero" fill="rgb(60.392157%, 44.705882%, 67.45098%)" fill-opacity="1" d="M 30.46875 307.136719 C 30.46875 306.34375 30.152344 305.582031 29.589844 305.019531 C 29.027344 304.457031 28.265625 304.140625 27.46875 304.140625 C 26.675781 304.140625 25.910156 304.457031 25.351562 305.019531 C 24.789062 305.582031 24.472656 306.34375 24.472656 307.136719 C 24.472656 307.933594 24.789062 308.695312 25.351562 309.257812 C 25.910156 309.816406 26.675781 310.132812 27.46875 310.132812 C 28.265625 310.132812 29.027344 309.816406 29.589844 309.257812 C 30.152344 308.695312 30.46875 307.933594 30.46875 307.136719 Z M 30.46875 307.136719 "/>
<path fill-rule="nonzero" fill="rgb(60.392157%, 44.705882%, 67.45098%)" fill-opacity="1" d="M 346.457031 430.246094 C 346.457031 429.449219 346.140625 428.6875 345.578125 428.125 C 345.015625 427.5625 344.253906 427.25 343.457031 427.25 C 342.664062 427.25 341.898438 427.5625 341.335938 428.125 C 340.777344 428.6875 340.460938 429.449219 340.460938 430.246094 C 340.460938 431.039062 340.777344 431.800781 341.335938 432.363281 C 341.898438 432.925781 342.664062 433.242188 343.457031 433.242188 C 344.253906 433.242188 345.015625 432.925781 345.578125 432.363281 C 346.140625 431.800781 346.457031 431.039062 346.457031 430.246094 Z M 346.457031 430.246094 "/>
<path fill-rule="nonzero" fill="rgb(60.392157%, 44.705882%, 67.45098%)" fill-opacity="1" d="M 671.980469 307.136719 C 671.980469 306.34375 671.664062 305.582031 671.101562 305.019531 C 670.539062 304.457031 669.777344 304.140625 668.980469 304.140625 C 668.1875 304.140625 667.425781 304.457031 666.863281 305.019531 C 666.300781 305.582031 665.984375 306.34375 665.984375 307.136719 C 665.984375 307.933594 666.300781 308.695312 666.863281 309.257812 C 667.425781 309.816406 668.1875 310.132812 668.980469 310.132812 C 669.777344 310.132812 670.539062 309.816406 671.101562 309.257812 C 671.664062 308.695312 671.980469 307.933594 671.980469 307.136719 Z M 671.980469 307.136719 "/>
<path fill-rule="nonzero" fill="rgb(60.392157%, 44.705882%, 67.45098%)" fill-opacity="1" d="M 352.386719 65.257812 C 352.386719 64.464844 352.074219 63.703125 351.511719 63.140625 C 350.949219 62.578125 350.183594 62.261719 349.390625 62.261719 C 348.59375 62.261719 347.832031 62.578125 347.269531 63.140625 C 346.707031 63.703125 346.390625 64.464844 346.390625 65.257812 C 346.390625 66.054688 346.707031 66.816406 347.269531 67.378906 C 347.832031 67.9375 348.59375 68.253906 349.390625 68.253906 C 350.183594 68.253906 350.949219 67.9375 351.511719 67.378906 C 352.074219 66.816406 352.386719 66.054688 352.386719 65.257812 Z M 352.386719 65.257812 "/>
<path fill="none" stroke-width="0.04" stroke-linecap="butt" stroke-linejoin="miter" stroke="rgb(51.372549%, 75.686275%, 40.392157%)" stroke-opacity="1" stroke-miterlimit="10" d="M -5.185848 -1.428964 C -5.133159 -1.450473 -5.080534 -1.471983 -5.02791 -1.493428 " transform="matrix(59.976927, 0, 0, -59.929246, 338.5, 221.5)"/>
<path fill="none" stroke-width="0.04" stroke-linecap="butt" stroke-linejoin="miter" stroke="rgb(51.372549%, 75.686275%, 40.392157%)" stroke-opacity="1" stroke-miterlimit="10" d="M -4.860137 -1.561933 C -4.807448 -1.583443 -4.754823 -1.604953 -4.702199 -1.626397 " transform="matrix(59.976927, 0, 0, -59.929246, 338.5, 221.5)"/>
<path fill="none" stroke-width="0.04" stroke-linecap="butt" stroke-linejoin="miter" stroke="rgb(51.372549%, 75.686275%, 40.392157%)" stroke-opacity="1" stroke-miterlimit="10" d="M -4.534361 -1.694902 C -4.481736 -1.716412 -4.429112 -1.737922 -4.376488 -1.759366 " transform="matrix(59.976927, 0, 0, -59.929246, 338.5, 221.5)"/>
<path fill="none" stroke-width="0.04" stroke-linecap="butt" stroke-linejoin="miter" stroke="rgb(51.372549%, 75.686275%, 40.392157%)" stroke-opacity="1" stroke-miterlimit="10" d="M -4.20865 -1.827872 C -4.156025 -1.849381 -4.103401 -1.870891 -4.050776 -1.892336 " transform="matrix(59.976927, 0, 0, -59.929246, 338.5, 221.5)"/>
<path fill="none" stroke-width="0.04" stroke-linecap="butt" stroke-linejoin="miter" stroke="rgb(51.372549%, 75.686275%, 40.392157%)" stroke-opacity="1" stroke-miterlimit="10" d="M -3.882939 -1.960841 C -3.830314 -1.982351 -3.77769 -2.00386 -3.725 -2.02537 " transform="matrix(59.976927, 0, 0, -59.929246, 338.5, 221.5)"/>
<path fill="none" stroke-width="0.04" stroke-linecap="butt" stroke-linejoin="miter" stroke="rgb(51.372549%, 75.686275%, 40.392157%)" stroke-opacity="1" stroke-miterlimit="10" d="M -3.557227 -2.093875 C -3.504603 -2.11532 -3.451979 -2.13683 -3.399289 -2.158339 " transform="matrix(59.976927, 0, 0, -59.929246, 338.5, 221.5)"/>
<path fill="none" stroke-width="0.04" stroke-linecap="butt" stroke-linejoin="miter" stroke="rgb(51.372549%, 75.686275%, 40.392157%)" stroke-opacity="1" stroke-miterlimit="10" d="M -3.231516 -2.226845 C -3.178892 -2.248289 -3.126267 -2.269799 -3.073578 -2.291309 " transform="matrix(59.976927, 0, 0, -59.929246, 338.5, 221.5)"/>
<path fill="none" stroke-width="0.04" stroke-linecap="butt" stroke-linejoin="miter" stroke="rgb(51.372549%, 75.686275%, 40.392157%)" stroke-opacity="1" stroke-miterlimit="10" d="M -2.905805 -2.359814 C -2.853181 -2.381259 -2.800491 -2.402768 -2.747867 -2.424278 " transform="matrix(59.976927, 0, 0, -59.929246, 338.5, 221.5)"/>
<path fill="none" stroke-width="0.04" stroke-linecap="butt" stroke-linejoin="miter" stroke="rgb(51.372549%, 75.686275%, 40.392157%)" stroke-opacity="1" stroke-miterlimit="10" d="M -2.580094 -2.492783 C -2.527469 -2.514228 -2.47478 -2.535738 -2.422155 -2.557247 " transform="matrix(59.976927, 0, 0, -59.929246, 338.5, 221.5)"/>
<path fill="none" stroke-width="0.04" stroke-linecap="butt" stroke-linejoin="miter" stroke="rgb(51.372549%, 75.686275%, 40.392157%)" stroke-opacity="1" stroke-miterlimit="10" d="M -2.254383 -2.625753 C -2.201693 -2.647197 -2.149069 -2.668707 -2.096444 -2.690217 " transform="matrix(59.976927, 0, 0, -59.929246, 338.5, 221.5)"/>
<path fill="none" stroke-width="0.04" stroke-linecap="butt" stroke-linejoin="miter" stroke="rgb(51.372549%, 75.686275%, 40.392157%)" stroke-opacity="1" stroke-miterlimit="10" d="M -1.928671 -2.758722 C -1.875982 -2.780232 -1.823357 -2.801676 -1.770733 -2.823186 " transform="matrix(59.976927, 0, 0, -59.929246, 338.5, 221.5)"/>
<path fill="none" stroke-width="0.04" stroke-linecap="butt" stroke-linejoin="miter" stroke="rgb(51.372549%, 75.686275%, 40.392157%)" stroke-opacity="1" stroke-miterlimit="10" d="M -1.60296 -2.891691 C -1.550271 -2.913201 -1.497646 -2.934646 -1.445022 -2.956155 " transform="matrix(59.976927, 0, 0, -59.929246, 338.5, 221.5)"/>
<path fill="none" stroke-width="0.04" stroke-linecap="butt" stroke-linejoin="miter" stroke="rgb(51.372549%, 75.686275%, 40.392157%)" stroke-opacity="1" stroke-miterlimit="10" d="M -1.277184 -3.024661 C -1.224559 -3.04617 -1.171935 -3.067615 -1.119311 -3.089125 " transform="matrix(59.976927, 0, 0, -59.929246, 338.5, 221.5)"/>
<path fill="none" stroke-width="0.04" stroke-linecap="butt" stroke-linejoin="miter" stroke="rgb(51.372549%, 75.686275%, 40.392157%)" stroke-opacity="1" stroke-miterlimit="10" d="M -0.951473 -3.15763 C -0.898848 -3.17914 -0.846224 -3.200584 -0.793599 -3.222094 " transform="matrix(59.976927, 0, 0, -59.929246, 338.5, 221.5)"/>
<path fill="none" stroke-width="0.04" stroke-linecap="butt" stroke-linejoin="miter" stroke="rgb(51.372549%, 75.686275%, 40.392157%)" stroke-opacity="1" stroke-miterlimit="10" d="M -0.625761 -3.290599 C -0.573137 -3.312109 -0.520513 -3.333619 -0.467823 -3.355063 " transform="matrix(59.976927, 0, 0, -59.929246, 338.5, 221.5)"/>
<path fill="none" stroke-width="0.04" stroke-linecap="butt" stroke-linejoin="miter" stroke="rgb(51.372549%, 75.686275%, 40.392157%)" stroke-opacity="1" stroke-miterlimit="10" d="M -0.30005 -3.423568 C -0.247426 -3.445078 -0.194801 -3.466588 -0.142112 -3.488032 " transform="matrix(59.976927, 0, 0, -59.929246, 338.5, 221.5)"/>
<path fill="none" stroke-width="0.04" stroke-linecap="butt" stroke-linejoin="miter" stroke="rgb(51.372549%, 75.686275%, 40.392157%)" stroke-opacity="1" stroke-miterlimit="10" d="M 0.0256609 -3.556538 C 0.0782853 -3.578047 0.130975 -3.599557 0.183599 -3.621002 " transform="matrix(59.976927, 0, 0, -59.929246, 338.5, 221.5)"/>
<path fill="none" stroke-width="0.04" stroke-linecap="butt" stroke-linejoin="miter" stroke="rgb(51.372549%, 75.686275%, 40.392157%)" stroke-opacity="1" stroke-miterlimit="10" d="M 0.183599 -3.621002 C 0.236354 -3.599557 0.289174 -3.578047 0.341993 -3.556538 " transform="matrix(59.976927, 0, 0, -59.929246, 338.5, 221.5)"/>
<path fill="none" stroke-width="0.04" stroke-linecap="butt" stroke-linejoin="miter" stroke="rgb(51.372549%, 75.686275%, 40.392157%)" stroke-opacity="1" stroke-miterlimit="10" d="M 0.510287 -3.488032 C 0.563042 -3.466588 0.615862 -3.445078 0.668682 -3.423568 " transform="matrix(59.976927, 0, 0, -59.929246, 338.5, 221.5)"/>
<path fill="none" stroke-width="0.04" stroke-linecap="butt" stroke-linejoin="miter" stroke="rgb(51.372549%, 75.686275%, 40.392157%)" stroke-opacity="1" stroke-miterlimit="10" d="M 0.83691 -3.355063 C 0.88973 -3.333619 0.94255 -3.312109 0.995305 -3.290599 " transform="matrix(59.976927, 0, 0, -59.929246, 338.5, 221.5)"/>
<path fill="none" stroke-width="0.04" stroke-linecap="butt" stroke-linejoin="miter" stroke="rgb(51.372549%, 75.686275%, 40.392157%)" stroke-opacity="1" stroke-miterlimit="10" d="M 1.163599 -3.222094 C 1.216418 -3.200584 1.269238 -3.17914 1.321993 -3.15763 " transform="matrix(59.976927, 0, 0, -59.929246, 338.5, 221.5)"/>
<path fill="none" stroke-width="0.04" stroke-linecap="butt" stroke-linejoin="miter" stroke="rgb(51.372549%, 75.686275%, 40.392157%)" stroke-opacity="1" stroke-miterlimit="10" d="M 1.490287 -3.089125 C 1.543106 -3.067615 1.595861 -3.04617 1.648681 -3.024661 " transform="matrix(59.976927, 0, 0, -59.929246, 338.5, 221.5)"/>
<path fill="none" stroke-width="0.04" stroke-linecap="butt" stroke-linejoin="miter" stroke="rgb(51.372549%, 75.686275%, 40.392157%)" stroke-opacity="1" stroke-miterlimit="10" d="M 1.816975 -2.956155 C 1.869795 -2.934646 1.922549 -2.913201 1.975369 -2.891691 " transform="matrix(59.976927, 0, 0, -59.929246, 338.5, 221.5)"/>
<path fill="none" stroke-width="0.04" stroke-linecap="butt" stroke-linejoin="miter" stroke="rgb(51.372549%, 75.686275%, 40.392157%)" stroke-opacity="1" stroke-miterlimit="10" d="M 2.143663 -2.823186 C 2.196483 -2.801676 2.249237 -2.780232 2.302057 -2.758722 " transform="matrix(59.976927, 0, 0, -59.929246, 338.5, 221.5)"/>
<path fill="none" stroke-width="0.04" stroke-linecap="butt" stroke-linejoin="miter" stroke="rgb(51.372549%, 75.686275%, 40.392157%)" stroke-opacity="1" stroke-miterlimit="10" d="M 2.470351 -2.690217 C 2.523106 -2.668707 2.575925 -2.647197 2.628745 -2.625753 " transform="matrix(59.976927, 0, 0, -59.929246, 338.5, 221.5)"/>
<path fill="none" stroke-width="0.04" stroke-linecap="butt" stroke-linejoin="miter" stroke="rgb(51.372549%, 75.686275%, 40.392157%)" stroke-opacity="1" stroke-miterlimit="10" d="M 2.797039 -2.557247 C 2.849794 -2.535738 2.902614 -2.514228 2.955433 -2.492783 " transform="matrix(59.976927, 0, 0, -59.929246, 338.5, 221.5)"/>
<path fill="none" stroke-width="0.04" stroke-linecap="butt" stroke-linejoin="miter" stroke="rgb(51.372549%, 75.686275%, 40.392157%)" stroke-opacity="1" stroke-miterlimit="10" d="M 3.123662 -2.424278 C 3.176482 -2.402768 3.229302 -2.381259 3.282056 -2.359814 " transform="matrix(59.976927, 0, 0, -59.929246, 338.5, 221.5)"/>
<path fill="none" stroke-width="0.04" stroke-linecap="butt" stroke-linejoin="miter" stroke="rgb(51.372549%, 75.686275%, 40.392157%)" stroke-opacity="1" stroke-miterlimit="10" d="M 3.45035 -2.291309 C 3.50317 -2.269799 3.55599 -2.248289 3.608745 -2.226845 " transform="matrix(59.976927, 0, 0, -59.929246, 338.5, 221.5)"/>
<path fill="none" stroke-width="0.04" stroke-linecap="butt" stroke-linejoin="miter" stroke="rgb(51.372549%, 75.686275%, 40.392157%)" stroke-opacity="1" stroke-miterlimit="10" d="M 3.777038 -2.158339 C 3.829858 -2.13683 3.882678 -2.11532 3.935433 -2.093875 " transform="matrix(59.976927, 0, 0, -59.929246, 338.5, 221.5)"/>
<path fill="none" stroke-width="0.04" stroke-linecap="butt" stroke-linejoin="miter" stroke="rgb(51.372549%, 75.686275%, 40.392157%)" stroke-opacity="1" stroke-miterlimit="10" d="M 4.103727 -2.02537 C 4.156546 -2.00386 4.209301 -1.982351 4.262121 -1.960841 " transform="matrix(59.976927, 0, 0, -59.929246, 338.5, 221.5)"/>
<path fill="none" stroke-width="0.04" stroke-linecap="butt" stroke-linejoin="miter" stroke="rgb(51.372549%, 75.686275%, 40.392157%)" stroke-opacity="1" stroke-miterlimit="10" d="M 4.430415 -1.892336 C 4.483234 -1.870891 4.535989 -1.849381 4.588809 -1.827872 " transform="matrix(59.976927, 0, 0, -59.929246, 338.5, 221.5)"/>
<path fill="none" stroke-width="0.04" stroke-linecap="butt" stroke-linejoin="miter" stroke="rgb(51.372549%, 75.686275%, 40.392157%)" stroke-opacity="1" stroke-miterlimit="10" d="M 4.757103 -1.759366 C 4.809857 -1.737922 4.862677 -1.716412 4.915497 -1.694902 " transform="matrix(59.976927, 0, 0, -59.929246, 338.5, 221.5)"/>
<path fill="none" stroke-width="0.04" stroke-linecap="butt" stroke-linejoin="miter" stroke="rgb(51.372549%, 75.686275%, 40.392157%)" stroke-opacity="1" stroke-miterlimit="10" d="M 5.083791 -1.626397 C 5.136546 -1.604953 5.189365 -1.583443 5.242185 -1.561933 " transform="matrix(59.976927, 0, 0, -59.929246, 338.5, 221.5)"/>
<path fill="none" stroke-width="0.04" stroke-linecap="butt" stroke-linejoin="miter" stroke="rgb(51.372549%, 75.686275%, 40.392157%)" stroke-opacity="1" stroke-miterlimit="10" d="M 5.410479 -1.493428 C 5.463234 -1.471983 5.516054 -1.450473 5.568808 -1.428964 " transform="matrix(59.976927, 0, 0, -59.929246, 338.5, 221.5)"/>
<path fill="none" stroke-width="0.04" stroke-linecap="butt" stroke-linejoin="miter" stroke="rgb(51.372549%, 75.686275%, 40.392157%)" stroke-opacity="1" stroke-miterlimit="10" d="M 5.568808 -1.428964 C 5.531424 -1.404065 5.49404 -1.3791 5.456591 -1.354201 " transform="matrix(59.976927, 0, 0, -59.929246, 338.5, 221.5)"/>
<path fill="none" stroke-width="0.04" stroke-linecap="butt" stroke-linejoin="miter" stroke="rgb(51.372549%, 75.686275%, 40.392157%)" stroke-opacity="1" stroke-miterlimit="10" d="M 5.339488 -1.276114 C 5.302104 -1.251215 5.26472 -1.226251 5.227271 -1.201352 " transform="matrix(59.976927, 0, 0, -59.929246, 338.5, 221.5)"/>
<path fill="none" stroke-width="0.04" stroke-linecap="butt" stroke-linejoin="miter" stroke="rgb(51.372549%, 75.686275%, 40.392157%)" stroke-opacity="1" stroke-miterlimit="10" d="M 5.110168 -1.123265 C 5.072784 -1.098366 5.0354 -1.073401 4.997951 -1.048437 " transform="matrix(59.976927, 0, 0, -59.929246, 338.5, 221.5)"/>
<path fill="none" stroke-width="0.04" stroke-linecap="butt" stroke-linejoin="miter" stroke="rgb(51.372549%, 75.686275%, 40.392157%)" stroke-opacity="1" stroke-miterlimit="10" d="M 4.880848 -0.970415 C 4.843464 -0.945451 4.80608 -0.920552 4.768631 -0.895587 " transform="matrix(59.976927, 0, 0, -59.929246, 338.5, 221.5)"/>
<path fill="none" stroke-width="0.04" stroke-linecap="butt" stroke-linejoin="miter" stroke="rgb(51.372549%, 75.686275%, 40.392157%)" stroke-opacity="1" stroke-miterlimit="10" d="M 4.651528 -0.817566 C 4.614144 -0.792601 4.57676 -0.767702 4.539311 -0.742738 " transform="matrix(59.976927, 0, 0, -59.929246, 338.5, 221.5)"/>
<path fill="none" stroke-width="0.04" stroke-linecap="butt" stroke-linejoin="miter" stroke="rgb(51.372549%, 75.686275%, 40.392157%)" stroke-opacity="1" stroke-miterlimit="10" d="M 4.422208 -0.664716 C 4.384824 -0.639752 4.34744 -0.614853 4.309991 -0.589888 " transform="matrix(59.976927, 0, 0, -59.929246, 338.5, 221.5)"/>
<path fill="none" stroke-width="0.04" stroke-linecap="butt" stroke-linejoin="miter" stroke="rgb(51.372549%, 75.686275%, 40.392157%)" stroke-opacity="1" stroke-miterlimit="10" d="M 4.192954 -0.511867 C 4.155504 -0.486902 4.11812 -0.462003 4.080671 -0.437039 " transform="matrix(59.976927, 0, 0, -59.929246, 338.5, 221.5)"/>
<path fill="none" stroke-width="0.04" stroke-linecap="butt" stroke-linejoin="miter" stroke="rgb(51.372549%, 75.686275%, 40.392157%)" stroke-opacity="1" stroke-miterlimit="10" d="M 3.963634 -0.359017 C 3.926184 -0.334053 3.8888 -0.309154 3.851351 -0.284189 " transform="matrix(59.976927, 0, 0, -59.929246, 338.5, 221.5)"/>
<path fill="none" stroke-width="0.04" stroke-linecap="butt" stroke-linejoin="miter" stroke="rgb(51.372549%, 75.686275%, 40.392157%)" stroke-opacity="1" stroke-miterlimit="10" d="M 3.734314 -0.206168 C 3.696864 -0.181203 3.65948 -0.156304 3.622031 -0.13134 " transform="matrix(59.976927, 0, 0, -59.929246, 338.5, 221.5)"/>
<path fill="none" stroke-width="0.04" stroke-linecap="butt" stroke-linejoin="miter" stroke="rgb(51.372549%, 75.686275%, 40.392157%)" stroke-opacity="1" stroke-miterlimit="10" d="M 3.504994 -0.0533181 C 3.467544 -0.0283537 3.43016 -0.00345459 3.392711 0.0215097 " transform="matrix(59.976927, 0, 0, -59.929246, 338.5, 221.5)"/>
<path fill="none" stroke-width="0.04" stroke-linecap="butt" stroke-linejoin="miter" stroke="rgb(51.372549%, 75.686275%, 40.392157%)" stroke-opacity="1" stroke-miterlimit="10" d="M 3.275674 0.0995314 C 3.238224 0.124496 3.20084 0.14946 3.163456 0.174359 " transform="matrix(59.976927, 0, 0, -59.929246, 338.5, 221.5)"/>
<path fill="none" stroke-width="0.04" stroke-linecap="butt" stroke-linejoin="miter" stroke="rgb(51.372549%, 75.686275%, 40.392157%)" stroke-opacity="1" stroke-miterlimit="10" d="M 3.046354 0.252446 C 3.008904 0.277345 2.97152 0.30231 2.934136 0.327209 " transform="matrix(59.976927, 0, 0, -59.929246, 338.5, 221.5)"/>
<path fill="none" stroke-width="0.04" stroke-linecap="butt" stroke-linejoin="miter" stroke="rgb(51.372549%, 75.686275%, 40.392157%)" stroke-opacity="1" stroke-miterlimit="10" d="M 2.817034 0.405296 C 2.779585 0.430195 2.7422 0.455159 2.704816 0.480058 " transform="matrix(59.976927, 0, 0, -59.929246, 338.5, 221.5)"/>
<path fill="none" stroke-width="0.04" stroke-linecap="butt" stroke-linejoin="miter" stroke="rgb(51.372549%, 75.686275%, 40.392157%)" stroke-opacity="1" stroke-miterlimit="10" d="M 2.587714 0.558145 C 2.550265 0.583044 2.51288 0.608009 2.475496 0.632908 " transform="matrix(59.976927, 0, 0, -59.929246, 338.5, 221.5)"/>
<path fill="none" stroke-width="0.04" stroke-linecap="butt" stroke-linejoin="miter" stroke="rgb(51.372549%, 75.686275%, 40.392157%)" stroke-opacity="1" stroke-miterlimit="10" d="M 2.358394 0.710995 C 2.320945 0.735894 2.28356 0.760858 2.246176 0.785757 " transform="matrix(59.976927, 0, 0, -59.929246, 338.5, 221.5)"/>
<path fill="none" stroke-width="0.04" stroke-linecap="butt" stroke-linejoin="miter" stroke="rgb(51.372549%, 75.686275%, 40.392157%)" stroke-opacity="1" stroke-miterlimit="10" d="M 2.129074 0.863844 C 2.091625 0.888743 2.05424 0.913708 2.016856 0.938607 " transform="matrix(59.976927, 0, 0, -59.929246, 338.5, 221.5)"/>
<path fill="none" stroke-width="0.04" stroke-linecap="butt" stroke-linejoin="miter" stroke="rgb(51.372549%, 75.686275%, 40.392157%)" stroke-opacity="1" stroke-miterlimit="10" d="M 1.899754 1.016694 C 1.862305 1.041593 1.824921 1.066557 1.787536 1.091456 " transform="matrix(59.976927, 0, 0, -59.929246, 338.5, 221.5)"/>
<path fill="none" stroke-width="0.04" stroke-linecap="butt" stroke-linejoin="miter" stroke="rgb(51.372549%, 75.686275%, 40.392157%)" stroke-opacity="1" stroke-miterlimit="10" d="M 1.670434 1.169543 C 1.632985 1.194442 1.595601 1.219407 1.558216 1.244371 " transform="matrix(59.976927, 0, 0, -59.929246, 338.5, 221.5)"/>
<path fill="none" stroke-width="0.04" stroke-linecap="butt" stroke-linejoin="miter" stroke="rgb(51.372549%, 75.686275%, 40.392157%)" stroke-opacity="1" stroke-miterlimit="10" d="M 1.441114 1.322393 C 1.403665 1.347357 1.366281 1.372256 1.328896 1.397221 " transform="matrix(59.976927, 0, 0, -59.929246, 338.5, 221.5)"/>
<path fill="none" stroke-width="0.04" stroke-linecap="butt" stroke-linejoin="miter" stroke="rgb(51.372549%, 75.686275%, 40.392157%)" stroke-opacity="1" stroke-miterlimit="10" d="M 1.211794 1.475242 C 1.174345 1.500207 1.136961 1.525106 1.099576 1.55007 " transform="matrix(59.976927, 0, 0, -59.929246, 338.5, 221.5)"/>
<path fill="none" stroke-width="0.04" stroke-linecap="butt" stroke-linejoin="miter" stroke="rgb(51.372549%, 75.686275%, 40.392157%)" stroke-opacity="1" stroke-miterlimit="10" d="M 0.982474 1.628092 C 0.945025 1.653056 0.907641 1.677955 0.870257 1.70292 " transform="matrix(59.976927, 0, 0, -59.929246, 338.5, 221.5)"/>
<path fill="none" stroke-width="0.04" stroke-linecap="butt" stroke-linejoin="miter" stroke="rgb(51.372549%, 75.686275%, 40.392157%)" stroke-opacity="1" stroke-miterlimit="10" d="M 0.753154 1.780941 C 0.715705 1.805906 0.678321 1.830805 0.640937 1.855769 " transform="matrix(59.976927, 0, 0, -59.929246, 338.5, 221.5)"/>
<path fill="none" stroke-width="0.04" stroke-linecap="butt" stroke-linejoin="miter" stroke="rgb(51.372549%, 75.686275%, 40.392157%)" stroke-opacity="1" stroke-miterlimit="10" d="M 0.523834 1.933791 C 0.486385 1.958755 0.449001 1.983654 0.411617 2.008619 " transform="matrix(59.976927, 0, 0, -59.929246, 338.5, 221.5)"/>
<path fill="none" stroke-width="0.04" stroke-linecap="butt" stroke-linejoin="miter" stroke="rgb(51.372549%, 75.686275%, 40.392157%)" stroke-opacity="1" stroke-miterlimit="10" d="M 0.294514 2.08664 C 0.257065 2.111605 0.219681 2.136504 0.182297 2.161468 " transform="matrix(59.976927, 0, 0, -59.929246, 338.5, 221.5)"/>
<path fill="none" stroke-width="0.04" stroke-linecap="butt" stroke-linejoin="miter" stroke="rgb(51.372549%, 75.686275%, 40.392157%)" stroke-opacity="1" stroke-miterlimit="10" d="M 0.182297 2.161468 C 0.144978 2.136504 0.107724 2.111605 0.0704047 2.08664 " transform="matrix(59.976927, 0, 0, -59.929246, 338.5, 221.5)"/>
<path fill="none" stroke-width="0.04" stroke-linecap="butt" stroke-linejoin="miter" stroke="rgb(51.372549%, 75.686275%, 40.392157%)" stroke-opacity="1" stroke-miterlimit="10" d="M -0.0462417 2.008619 C -0.0835608 1.983654 -0.120815 1.958755 -0.158069 1.933791 " transform="matrix(59.976927, 0, 0, -59.929246, 338.5, 221.5)"/>
<path fill="none" stroke-width="0.04" stroke-linecap="butt" stroke-linejoin="miter" stroke="rgb(51.372549%, 75.686275%, 40.392157%)" stroke-opacity="1" stroke-miterlimit="10" d="M -0.27478 1.855769 C -0.312099 1.830805 -0.349353 1.805906 -0.386607 1.780941 " transform="matrix(59.976927, 0, 0, -59.929246, 338.5, 221.5)"/>
<path fill="none" stroke-width="0.04" stroke-linecap="butt" stroke-linejoin="miter" stroke="rgb(51.372549%, 75.686275%, 40.392157%)" stroke-opacity="1" stroke-miterlimit="10" d="M -0.503319 1.70292 C -0.540638 1.677955 -0.577892 1.653056 -0.615145 1.628092 " transform="matrix(59.976927, 0, 0, -59.929246, 338.5, 221.5)"/>
<path fill="none" stroke-width="0.04" stroke-linecap="butt" stroke-linejoin="miter" stroke="rgb(51.372549%, 75.686275%, 40.392157%)" stroke-opacity="1" stroke-miterlimit="10" d="M -0.731857 1.55007 C -0.769111 1.525106 -0.80643 1.500207 -0.843684 1.475242 " transform="matrix(59.976927, 0, 0, -59.929246, 338.5, 221.5)"/>
<path fill="none" stroke-width="0.04" stroke-linecap="butt" stroke-linejoin="miter" stroke="rgb(51.372549%, 75.686275%, 40.392157%)" stroke-opacity="1" stroke-miterlimit="10" d="M -0.960395 1.397221 C -0.997649 1.372256 -1.034968 1.347357 -1.072222 1.322393 " transform="matrix(59.976927, 0, 0, -59.929246, 338.5, 221.5)"/>
<path fill="none" stroke-width="0.04" stroke-linecap="butt" stroke-linejoin="miter" stroke="rgb(51.372549%, 75.686275%, 40.392157%)" stroke-opacity="1" stroke-miterlimit="10" d="M -1.188934 1.244371 C -1.226188 1.219407 -1.263507 1.194442 -1.300761 1.169543 " transform="matrix(59.976927, 0, 0, -59.929246, 338.5, 221.5)"/>
<path fill="none" stroke-width="0.04" stroke-linecap="butt" stroke-linejoin="miter" stroke="rgb(51.372549%, 75.686275%, 40.392157%)" stroke-opacity="1" stroke-miterlimit="10" d="M -1.417472 1.091456 C -1.454726 1.066557 -1.492045 1.041593 -1.529299 1.016694 " transform="matrix(59.976927, 0, 0, -59.929246, 338.5, 221.5)"/>
<path fill="none" stroke-width="0.04" stroke-linecap="butt" stroke-linejoin="miter" stroke="rgb(51.372549%, 75.686275%, 40.392157%)" stroke-opacity="1" stroke-miterlimit="10" d="M -1.646011 0.938607 C -1.683264 0.913708 -1.720518 0.888743 -1.757837 0.863844 " transform="matrix(59.976927, 0, 0, -59.929246, 338.5, 221.5)"/>
<path fill="none" stroke-width="0.04" stroke-linecap="butt" stroke-linejoin="miter" stroke="rgb(51.372549%, 75.686275%, 40.392157%)" stroke-opacity="1" stroke-miterlimit="10" d="M -1.874549 0.785757 C -1.911803 0.760858 -1.949057 0.735894 -1.986376 0.710995 " transform="matrix(59.976927, 0, 0, -59.929246, 338.5, 221.5)"/>
<path fill="none" stroke-width="0.04" stroke-linecap="butt" stroke-linejoin="miter" stroke="rgb(51.372549%, 75.686275%, 40.392157%)" stroke-opacity="1" stroke-miterlimit="10" d="M -2.103087 0.632908 C -2.140341 0.608009 -2.177595 0.583044 -2.214914 0.558145 " transform="matrix(59.976927, 0, 0, -59.929246, 338.5, 221.5)"/>
<path fill="none" stroke-width="0.04" stroke-linecap="butt" stroke-linejoin="miter" stroke="rgb(51.372549%, 75.686275%, 40.392157%)" stroke-opacity="1" stroke-miterlimit="10" d="M -2.331561 0.480058 C -2.36888 0.455159 -2.406134 0.430195 -2.443453 0.405296 " transform="matrix(59.976927, 0, 0, -59.929246, 338.5, 221.5)"/>
<path fill="none" stroke-width="0.04" stroke-linecap="butt" stroke-linejoin="miter" stroke="rgb(51.372549%, 75.686275%, 40.392157%)" stroke-opacity="1" stroke-miterlimit="10" d="M -2.560099 0.327209 C -2.597418 0.30231 -2.634672 0.277345 -2.671991 0.252446 " transform="matrix(59.976927, 0, 0, -59.929246, 338.5, 221.5)"/>
<path fill="none" stroke-width="0.04" stroke-linecap="butt" stroke-linejoin="miter" stroke="rgb(51.372549%, 75.686275%, 40.392157%)" stroke-opacity="1" stroke-miterlimit="10" d="M -2.788637 0.174359 C -2.825957 0.14946 -2.86321 0.124496 -2.900464 0.0995314 " transform="matrix(59.976927, 0, 0, -59.929246, 338.5, 221.5)"/>
<path fill="none" stroke-width="0.04" stroke-linecap="butt" stroke-linejoin="miter" stroke="rgb(51.372549%, 75.686275%, 40.392157%)" stroke-opacity="1" stroke-miterlimit="10" d="M -3.017176 0.0215097 C -3.054495 -0.00345459 -3.091749 -0.0283537 -3.129003 -0.0533181 " transform="matrix(59.976927, 0, 0, -59.929246, 338.5, 221.5)"/>
<path fill="none" stroke-width="0.04" stroke-linecap="butt" stroke-linejoin="miter" stroke="rgb(51.372549%, 75.686275%, 40.392157%)" stroke-opacity="1" stroke-miterlimit="10" d="M -3.245714 -0.13134 C -3.283033 -0.156304 -3.320287 -0.181203 -3.357541 -0.206168 " transform="matrix(59.976927, 0, 0, -59.929246, 338.5, 221.5)"/>
<path fill="none" stroke-width="0.04" stroke-linecap="butt" stroke-linejoin="miter" stroke="rgb(51.372549%, 75.686275%, 40.392157%)" stroke-opacity="1" stroke-miterlimit="10" d="M -3.474253 -0.284189 C -3.511507 -0.309154 -3.548826 -0.334053 -3.58608 -0.359017 " transform="matrix(59.976927, 0, 0, -59.929246, 338.5, 221.5)"/>
<path fill="none" stroke-width="0.04" stroke-linecap="butt" stroke-linejoin="miter" stroke="rgb(51.372549%, 75.686275%, 40.392157%)" stroke-opacity="1" stroke-miterlimit="10" d="M -3.702791 -0.437039 C -3.740045 -0.462003 -3.777364 -0.486902 -3.814618 -0.511867 " transform="matrix(59.976927, 0, 0, -59.929246, 338.5, 221.5)"/>
<path fill="none" stroke-width="0.04" stroke-linecap="butt" stroke-linejoin="miter" stroke="rgb(51.372549%, 75.686275%, 40.392157%)" stroke-opacity="1" stroke-miterlimit="10" d="M -3.93133 -0.589888 C -3.968583 -0.614853 -4.005902 -0.639752 -4.043156 -0.664716 " transform="matrix(59.976927, 0, 0, -59.929246, 338.5, 221.5)"/>
<path fill="none" stroke-width="0.04" stroke-linecap="butt" stroke-linejoin="miter" stroke="rgb(51.372549%, 75.686275%, 40.392157%)" stroke-opacity="1" stroke-miterlimit="10" d="M -4.159868 -0.742738 C -4.197122 -0.767702 -4.234441 -0.792601 -4.271695 -0.817566 " transform="matrix(59.976927, 0, 0, -59.929246, 338.5, 221.5)"/>
<path fill="none" stroke-width="0.04" stroke-linecap="butt" stroke-linejoin="miter" stroke="rgb(51.372549%, 75.686275%, 40.392157%)" stroke-opacity="1" stroke-miterlimit="10" d="M -4.388406 -0.895587 C -4.42566 -0.920552 -4.462914 -0.945451 -4.500233 -0.970415 " transform="matrix(59.976927, 0, 0, -59.929246, 338.5, 221.5)"/>
<path fill="none" stroke-width="0.04" stroke-linecap="butt" stroke-linejoin="miter" stroke="rgb(51.372549%, 75.686275%, 40.392157%)" stroke-opacity="1" stroke-miterlimit="10" d="M -4.616945 -1.048437 C -4.654199 -1.073401 -4.691453 -1.098366 -4.728772 -1.123265 " transform="matrix(59.976927, 0, 0, -59.929246, 338.5, 221.5)"/>
<path fill="none" stroke-width="0.04" stroke-linecap="butt" stroke-linejoin="miter" stroke="rgb(51.372549%, 75.686275%, 40.392157%)" stroke-opacity="1" stroke-miterlimit="10" d="M -4.845483 -1.201352 C -4.882737 -1.226251 -4.919991 -1.251215 -4.95731 -1.276114 " transform="matrix(59.976927, 0, 0, -59.929246, 338.5, 221.5)"/>
<path fill="none" stroke-width="0.04" stroke-linecap="butt" stroke-linejoin="miter" stroke="rgb(51.372549%, 75.686275%, 40.392157%)" stroke-opacity="1" stroke-miterlimit="10" d="M -5.073956 -1.354201 C -5.111275 -1.3791 -5.148529 -1.404065 -5.185848 -1.428964 " transform="matrix(59.976927, 0, 0, -59.929246, 338.5, 221.5)"/>
<path fill="none" stroke-width="0.04" stroke-linecap="butt" stroke-linejoin="miter" stroke="rgb(51.372549%, 75.686275%, 40.392157%)" stroke-opacity="1" stroke-miterlimit="10" d="M 0.183599 -3.621002 C 0.183599 -3.564359 0.183534 -3.507652 0.183534 -3.450944 " transform="matrix(59.976927, 0, 0, -59.929246, 338.5, 221.5)"/>
<path fill="none" stroke-width="0.04" stroke-linecap="butt" stroke-linejoin="miter" stroke="rgb(51.372549%, 75.686275%, 40.392157%)" stroke-opacity="1" stroke-miterlimit="10" d="M 0.183534 -3.270263 C 0.183469 -3.213555 0.183469 -3.156848 0.183469 -3.100205 " transform="matrix(59.976927, 0, 0, -59.929246, 338.5, 221.5)"/>
<path fill="none" stroke-width="0.04" stroke-linecap="butt" stroke-linejoin="miter" stroke="rgb(51.372549%, 75.686275%, 40.392157%)" stroke-opacity="1" stroke-miterlimit="10" d="M 0.183404 -2.919458 C 0.183404 -2.862751 0.183404 -2.806109 0.183404 -2.749401 " transform="matrix(59.976927, 0, 0, -59.929246, 338.5, 221.5)"/>
<path fill="none" stroke-width="0.04" stroke-linecap="butt" stroke-linejoin="miter" stroke="rgb(51.372549%, 75.686275%, 40.392157%)" stroke-opacity="1" stroke-miterlimit="10" d="M 0.183339 -2.568719 C 0.183339 -2.512012 0.183339 -2.455304 0.183339 -2.398597 " transform="matrix(59.976927, 0, 0, -59.929246, 338.5, 221.5)"/>
<path fill="none" stroke-width="0.04" stroke-linecap="butt" stroke-linejoin="miter" stroke="rgb(51.372549%, 75.686275%, 40.392157%)" stroke-opacity="1" stroke-miterlimit="10" d="M 0.183274 -2.217915 C 0.183274 -2.161207 0.183208 -2.104565 0.183208 -2.047858 " transform="matrix(59.976927, 0, 0, -59.929246, 338.5, 221.5)"/>
<path fill="none" stroke-width="0.04" stroke-linecap="butt" stroke-linejoin="miter" stroke="rgb(51.372549%, 75.686275%, 40.392157%)" stroke-opacity="1" stroke-miterlimit="10" d="M 0.183208 -1.867176 C 0.183143 -1.810468 0.183143 -1.753761 0.183143 -1.697053 " transform="matrix(59.976927, 0, 0, -59.929246, 338.5, 221.5)"/>
<path fill="none" stroke-width="0.04" stroke-linecap="butt" stroke-linejoin="miter" stroke="rgb(51.372549%, 75.686275%, 40.392157%)" stroke-opacity="1" stroke-miterlimit="10" d="M 0.183078 -1.516371 C 0.183078 -1.459664 0.183078 -1.402956 0.183078 -1.346314 " transform="matrix(59.976927, 0, 0, -59.929246, 338.5, 221.5)"/>
<path fill="none" stroke-width="0.04" stroke-linecap="butt" stroke-linejoin="miter" stroke="rgb(51.372549%, 75.686275%, 40.392157%)" stroke-opacity="1" stroke-miterlimit="10" d="M 0.183013 -1.165567 C 0.183013 -1.108925 0.183013 -1.052217 0.183013 -0.99551 " transform="matrix(59.976927, 0, 0, -59.929246, 338.5, 221.5)"/>
<path fill="none" stroke-width="0.04" stroke-linecap="butt" stroke-linejoin="miter" stroke="rgb(51.372549%, 75.686275%, 40.392157%)" stroke-opacity="1" stroke-miterlimit="10" d="M 0.182948 -0.814828 C 0.182948 -0.758121 0.182948 -0.701413 0.182883 -0.644771 " transform="matrix(59.976927, 0, 0, -59.929246, 338.5, 221.5)"/>
<path fill="none" stroke-width="0.04" stroke-linecap="butt" stroke-linejoin="miter" stroke="rgb(51.372549%, 75.686275%, 40.392157%)" stroke-opacity="1" stroke-miterlimit="10" d="M 0.182883 -0.464024 C 0.182883 -0.407381 0.182818 -0.350674 0.182818 -0.293966 " transform="matrix(59.976927, 0, 0, -59.929246, 338.5, 221.5)"/>
<path fill="none" stroke-width="0.04" stroke-linecap="butt" stroke-linejoin="miter" stroke="rgb(51.372549%, 75.686275%, 40.392157%)" stroke-opacity="1" stroke-miterlimit="10" d="M 0.182818 -0.113285 C 0.182753 -0.0565771 0.182753 0.000130362 0.182753 0.0568379 " transform="matrix(59.976927, 0, 0, -59.929246, 338.5, 221.5)"/>
<path fill="none" stroke-width="0.04" stroke-linecap="butt" stroke-linejoin="miter" stroke="rgb(51.372549%, 75.686275%, 40.392157%)" stroke-opacity="1" stroke-miterlimit="10" d="M 0.182687 0.23752 C 0.182687 0.294227 0.182687 0.350869 0.182687 0.407577 " transform="matrix(59.976927, 0, 0, -59.929246, 338.5, 221.5)"/>
<path fill="none" stroke-width="0.04" stroke-linecap="butt" stroke-linejoin="miter" stroke="rgb(51.372549%, 75.686275%, 40.392157%)" stroke-opacity="1" stroke-miterlimit="10" d="M 0.182622 0.588259 C 0.182622 0.644966 0.182622 0.701674 0.182622 0.758381 " transform="matrix(59.976927, 0, 0, -59.929246, 338.5, 221.5)"/>
<path fill="none" stroke-width="0.04" stroke-linecap="butt" stroke-linejoin="miter" stroke="rgb(51.372549%, 75.686275%, 40.392157%)" stroke-opacity="1" stroke-miterlimit="10" d="M 0.182557 0.939063 C 0.182557 0.995771 0.182492 1.052413 0.182492 1.10912 " transform="matrix(59.976927, 0, 0, -59.929246, 338.5, 221.5)"/>
<path fill="none" stroke-width="0.04" stroke-linecap="butt" stroke-linejoin="miter" stroke="rgb(51.372549%, 75.686275%, 40.392157%)" stroke-opacity="1" stroke-miterlimit="10" d="M 0.182492 1.289867 C 0.182427 1.34651 0.182427 1.403217 0.182427 1.459925 " transform="matrix(59.976927, 0, 0, -59.929246, 338.5, 221.5)"/>
<path fill="none" stroke-width="0.04" stroke-linecap="butt" stroke-linejoin="miter" stroke="rgb(51.372549%, 75.686275%, 40.392157%)" stroke-opacity="1" stroke-miterlimit="10" d="M 0.182362 1.640607 C 0.182362 1.697314 0.182362 1.754022 0.182362 1.810664 " transform="matrix(59.976927, 0, 0, -59.929246, 338.5, 221.5)"/>
<path fill="none" stroke-width="0.04" stroke-linecap="butt" stroke-linejoin="miter" stroke="rgb(51.372549%, 75.686275%, 40.392157%)" stroke-opacity="1" stroke-miterlimit="10" d="M 0.182297 1.991411 C 0.182297 2.048053 0.182297 2.104761 0.182297 2.161468 " transform="matrix(59.976927, 0, 0, -59.929246, 338.5, 221.5)"/>
<path fill-rule="nonzero" fill="rgb(51.372549%, 75.686275%, 40.392157%)" fill-opacity="1" d="M 30.46875 307.136719 C 30.46875 306.34375 30.152344 305.582031 29.589844 305.019531 C 29.027344 304.457031 28.265625 304.140625 27.46875 304.140625 C 26.675781 304.140625 25.910156 304.457031 25.351562 305.019531 C 24.789062 305.582031 24.472656 306.34375 24.472656 307.136719 C 24.472656 307.933594 24.789062 308.695312 25.351562 309.257812 C 25.910156 309.816406 26.675781 310.132812 27.46875 310.132812 C 28.265625 310.132812 29.027344 309.816406 29.589844 309.257812 C 30.152344 308.695312 30.46875 307.933594 30.46875 307.136719 Z M 30.46875 307.136719 "/>
<path fill-rule="nonzero" fill="rgb(51.372549%, 75.686275%, 40.392157%)" fill-opacity="1" d="M 352.507812 438.503906 C 352.507812 437.710938 352.195312 436.949219 351.632812 436.386719 C 351.070312 435.824219 350.304688 435.507812 349.511719 435.507812 C 348.714844 435.507812 347.953125 435.824219 347.390625 436.386719 C 346.828125 436.949219 346.511719 437.710938 346.511719 438.503906 C 346.511719 439.300781 346.828125 440.0625 347.390625 440.625 C 347.953125 441.1875 348.714844 441.5 349.511719 441.5 C 350.304688 441.5 351.070312 441.1875 351.632812 440.625 C 352.195312 440.0625 352.507812 439.300781 352.507812 438.503906 Z M 352.507812 438.503906 "/>
<path fill-rule="nonzero" fill="rgb(51.372549%, 75.686275%, 40.392157%)" fill-opacity="1" d="M 675.5 307.136719 C 675.5 306.34375 675.183594 305.582031 674.621094 305.019531 C 674.058594 304.457031 673.296875 304.140625 672.5 304.140625 C 671.707031 304.140625 670.945312 304.457031 670.382812 305.019531 C 669.820312 305.582031 669.503906 306.34375 669.503906 307.136719 C 669.503906 307.933594 669.820312 308.695312 670.382812 309.257812 C 670.945312 309.816406 671.707031 310.132812 672.5 310.132812 C 673.296875 310.132812 674.058594 309.816406 674.621094 309.257812 C 675.183594 308.695312 675.5 307.933594 675.5 307.136719 Z M 675.5 307.136719 "/>
<path fill-rule="nonzero" fill="rgb(51.372549%, 75.686275%, 40.392157%)" fill-opacity="1" d="M 352.429688 91.964844 C 352.429688 91.171875 352.113281 90.410156 351.550781 89.847656 C 350.992188 89.285156 350.226562 88.96875 349.433594 88.96875 C 348.636719 88.96875 347.875 89.285156 347.3125 89.847656 C 346.75 90.410156 346.433594 91.171875 346.433594 91.964844 C 346.433594 92.761719 346.75 93.523438 347.3125 94.085938 C 347.875 94.644531 348.636719 94.960938 349.433594 94.960938 C 350.226562 94.960938 350.992188 94.644531 351.550781 94.085938 C 352.113281 93.523438 352.429688 92.761719 352.429688 91.964844 Z M 352.429688 91.964844 "/>
</svg>
