<?xml version="1.0" encoding="UTF-8"?>
<svg xmlns="http://www.w3.org/2000/svg" xmlns:xlink="http://www.w3.org/1999/xlink" width="674" height="445" viewBox="0 0 674 445">
<path fill="none" stroke-width="0.04" stroke-linecap="butt" stroke-linejoin="miter" stroke="rgb(0%, 0%, 0%)" stroke-opacity="1" stroke-miterlimit="10" d="M -5.156472 -1.414078 C -3.489798 -1.414078 -1.823124 -1.414078 -0.156515 -1.414078 " transform="matrix(60.023178, 0, 0, -59.957891, 337, 222.5)"/>
<path fill="none" stroke-width="0.04" stroke-linecap="butt" stroke-linejoin="miter" stroke="rgb(0%, 0%, 0%)" stroke-opacity="1" stroke-miterlimit="10" d="M -0.156515 -1.414078 C 1.510159 -1.414078 3.176833 -1.414078 4.843507 -1.414078 " transform="matrix(60.023178, 0, 0, -59.957891, 337, 222.5)"/>
<path fill="none" stroke-width="0.04" stroke-linecap="butt" stroke-linejoin="miter" stroke="rgb(0%, 0%, 0%)" stroke-opacity="1" stroke-miterlimit="10" d="M 4.843507 -1.414078 C 3.176833 0.252586 1.510159 1.919251 -0.156515 3.585915 " transform="matrix(60.023178, 0, 0, -59.957891, 337, 222.5)"/>
<path fill="none" stroke-width="0.04" stroke-linecap="butt" stroke-linejoin="miter" stroke="rgb(0%, 0%, 0%)" stroke-opacity="1" stroke-miterlimit="10" d="M -0.156515 3.585915 C -1.823124 1.919251 -3.489798 0.252586 -5.156472 -1.414078 " transform="matrix(60.023178, 0, 0, -59.957891, 337, 222.5)"/>
<path fill="none" stroke-width="0.04" stroke-linecap="butt" stroke-linejoin="miter" stroke="rgb(0%, 0%, 0%)" stroke-opacity="1" stroke-miterlimit="10" d="M -0.156515 -1.414078 C -0.156515 0.252586 -0.156515 1.919251 -0.156515 3.585915 " transform="matrix(60.023178, 0, 0, -59.957891, 337, 222.5)"/>
<path fill="none" stroke-width="0.04" stroke-linecap="butt" stroke-linejoin="miter" stroke="rgb(0%, 0%, 0%)" stroke-opacity="1" stroke-miterlimit="10" d="M -5.156472 -1.414078 C -5.252723 -1.580732 -5.34891 -1.747385 -5.445162 -1.914039 C -5.252723 -1.914039 -5.060285 -1.914039 -4.867781 -1.914039 C -4.964033 -1.747385 -5.060285 -1.580732 -5.156472 -1.414078 Z M -5.156472 -1.414078 " transform="matrix(60.023178, 0, 0, -59.957891, 337, 222.5)"/>
<path fill="none" stroke-width="0.04" stroke-linecap="butt" stroke-linejoin="miter" stroke="rgb(0%, 0%, 0%)" stroke-opacity="1" stroke-miterlimit="10" d="M -4.723501 -1.914039 C -5.012126 -1.914039 -5.300817 -1.914039 -5.589507 -1.914039 " transform="matrix(60.023178, 0, 0, -59.957891, 337, 222.5)"/>
<path fill="none" stroke-width="0.04" stroke-linecap="butt" stroke-linejoin="miter" stroke="rgb(0%, 0%, 0%)" stroke-opacity="1" stroke-miterlimit="10" d="M 5.09354 -1.664058 C 5.09354 -1.597736 5.067183 -1.53415 5.020261 -1.487307 C 4.973404 -1.440399 4.909822 -1.414078 4.843507 -1.414078 C 4.777191 -1.414078 4.713609 -1.440399 4.666752 -1.487307 C 4.61983 -1.53415 4.593538 -1.597736 4.593538 -1.664058 C 4.593538 -1.730381 4.61983 -1.793967 4.666752 -1.84081 C 4.713609 -1.887718 4.777191 -1.914039 4.843507 -1.914039 C 4.909822 -1.914039 4.973404 -1.887718 5.020261 -1.84081 C 5.067183 -1.793967 5.09354 -1.730381 5.09354 -1.664058 Z M 5.09354 -1.664058 " transform="matrix(60.023178, 0, 0, -59.957891, 337, 222.5)"/>
<path fill="none" stroke-width="0.04" stroke-linecap="butt" stroke-linejoin="miter" stroke="rgb(0%, 0%, 0%)" stroke-opacity="1" stroke-miterlimit="10" d="M 5.218492 -1.914039 C 4.968523 -1.914039 4.71849 -1.914039 4.468521 -1.914039 " transform="matrix(60.023178, 0, 0, -59.957891, 337, 222.5)"/>
<path fill-rule="nonzero" fill="rgb(0%, 0%, 0%)" fill-opacity="1" d="M 33.492188 307.285156 C 33.492188 305.695312 32.859375 304.167969 31.734375 303.042969 C 30.609375 301.921875 29.082031 301.289062 27.492188 301.289062 C 25.898438 301.289062 24.371094 301.921875 23.246094 303.042969 C 22.121094 304.167969 21.488281 305.695312 21.488281 307.285156 C 21.488281 308.875 22.121094 310.398438 23.246094 311.523438 C 24.371094 312.648438 25.898438 313.28125 27.492188 313.28125 C 29.082031 313.28125 30.609375 312.648438 31.734375 311.523438 C 32.859375 310.398438 33.492188 308.875 33.492188 307.285156 Z M 33.492188 307.285156 "/>
<path fill-rule="nonzero" fill="rgb(0%, 0%, 0%)" fill-opacity="1" d="M 333.609375 307.285156 C 333.609375 305.695312 332.976562 304.167969 331.851562 303.042969 C 330.726562 301.921875 329.199219 301.289062 327.605469 301.289062 C 326.015625 301.289062 324.488281 301.921875 323.363281 303.042969 C 322.238281 304.167969 321.605469 305.695312 321.605469 307.285156 C 321.605469 308.875 322.238281 310.398438 323.363281 311.523438 C 324.488281 312.648438 326.015625 313.28125 327.605469 313.28125 C 329.199219 313.28125 330.726562 312.648438 331.851562 311.523438 C 332.976562 310.398438 333.609375 308.875 333.609375 307.285156 Z M 333.609375 307.285156 "/>
<path fill-rule="nonzero" fill="rgb(0%, 0%, 0%)" fill-opacity="1" d="M 633.726562 307.285156 C 633.726562 305.695312 633.09375 304.167969 631.96875 303.042969 C 630.839844 301.921875 629.316406 301.289062 627.722656 301.289062 C 626.132812 301.289062 624.605469 301.921875 623.480469 303.042969 C 622.351562 304.167969 621.722656 305.695312 621.722656 307.285156 C 621.722656 308.875 622.351562 310.398438 623.480469 311.523438 C 624.605469 312.648438 626.132812 313.28125 627.722656 313.28125 C 629.316406 313.28125 630.839844 312.648438 631.96875 311.523438 C 633.09375 310.398438 633.726562 308.875 633.726562 307.285156 Z M 633.726562 307.285156 "/>
<path fill-rule="nonzero" fill="rgb(0%, 0%, 0%)" fill-opacity="1" d="M 333.609375 7.496094 C 333.609375 5.90625 332.976562 4.378906 331.851562 3.253906 C 330.726562 2.128906 329.199219 1.5 327.605469 1.5 C 326.015625 1.5 324.488281 2.128906 323.363281 3.253906 C 322.238281 4.378906 321.605469 5.90625 321.605469 7.496094 C 321.605469 9.085938 322.238281 10.609375 323.363281 11.734375 C 324.488281 12.859375 326.015625 13.492188 327.605469 13.492188 C 329.199219 13.492188 330.726562 12.859375 331.851562 11.734375 C 332.976562 10.609375 333.609375 9.085938 333.609375 7.496094 Z M 333.609375 7.496094 "/>
<path fill="none" stroke-width="0.04" stroke-linecap="butt" stroke-linejoin="miter" stroke="rgb(98.823529%, 38.431373%, 33.333333%)" stroke-opacity="1" stroke-miterlimit="10" d="M -0.156515 -1.414078 C -0.156515 -1.764064 -0.156515 -2.114049 -0.156515 -2.464034 " transform="matrix(60.023178, 0, 0, -59.957891, 337, 222.5)"/>
<path fill-rule="nonzero" fill="rgb(98.823529%, 38.431373%, 33.333333%)" fill-opacity="1" d="M 327.605469 397.222656 C 330.609375 388.226562 333.609375 379.234375 336.609375 370.238281 C 330.609375 370.238281 324.605469 370.238281 318.605469 370.238281 C 321.605469 379.234375 324.605469 388.226562 327.605469 397.222656 Z M 327.605469 397.222656 "/>
<path fill-rule="nonzero" fill="rgb(98.823529%, 38.431373%, 33.333333%)" fill-opacity="1" d="M 174.71875 357.464844 C 174.71875 356.457031 174.71875 355.453125 174.71875 354.445312 C 171.550781 354.445312 168.382812 354.445312 165.21875 354.445312 C 165.21875 355.453125 165.21875 356.457031 165.21875 357.464844 C 168.382812 357.464844 171.550781 357.464844 174.71875 357.464844 Z M 174.71875 357.464844 "/>
<path fill-rule="nonzero" fill="rgb(98.823529%, 38.431373%, 33.333333%)" fill-opacity="1" d="M 188.898438 353.417969 C 188.898438 353.648438 188.898438 353.875 188.898438 354.105469 C 188.898438 356.375 188.617188 358.210938 188.152344 359.269531 C 187.621094 360.480469 186.28125 361.882812 184.132812 361.882812 C 183.574219 361.882812 182.453125 361.820312 181.515625 361.195312 C 181.890625 361.105469 183.042969 360.667969 183.042969 359.269531 C 183.042969 358.210938 182.328125 357.339844 181.113281 357.339844 C 179.898438 357.339844 179.148438 358.148438 179.148438 359.332031 C 179.148438 361.445312 180.738281 363.21875 184.195312 363.21875 C 188.246094 363.21875 193.132812 360.605469 193.132812 352.640625 C 193.132812 350.558594 193.132812 342.5 185.753906 342.5 C 181.332031 342.5 178.246094 345.019531 178.246094 349.1875 C 178.246094 353.480469 181.332031 355.816406 185.160156 355.816406 C 186.25 355.816406 187.714844 355.597656 188.898438 353.417969 Z M 185.441406 354.695312 C 182.484375 354.695312 182.484375 352.363281 182.484375 349.25 C 182.484375 346.203125 182.484375 343.710938 185.816406 343.710938 C 187.652344 343.710938 188.371094 345.363281 188.492188 345.671875 C 188.867188 346.699219 188.867188 348.503906 188.867188 349.5625 C 188.867188 351.523438 188.058594 354.695312 185.441406 354.695312 Z M 185.441406 354.695312 "/>
<path fill-rule="nonzero" fill="rgb(98.823529%, 38.431373%, 33.333333%)" fill-opacity="1" d="M 210.761719 355.96875 C 210.273438 355.96875 209.785156 355.96875 209.296875 355.96875 C 209.207031 356.59375 208.925781 358.582031 208.488281 358.800781 C 208.144531 358.988281 205.808594 358.988281 205.3125 358.988281 C 203.785156 358.988281 202.261719 358.988281 200.734375 358.988281 C 202.199219 357.773438 203.816406 356.4375 205.21875 355.410156 C 208.769531 352.796875 210.761719 351.335938 210.761719 348.378906 C 210.761719 344.800781 207.523438 342.5 203.132812 342.5 C 199.363281 342.5 196.4375 344.429688 196.4375 347.226562 C 196.4375 349.0625 197.929688 349.53125 198.679688 349.53125 C 199.675781 349.53125 200.921875 348.847656 200.921875 347.289062 C 200.921875 345.671875 199.613281 345.175781 199.144531 345.050781 C 200.046875 344.304688 201.230469 343.960938 202.351562 343.960938 C 205.03125 343.960938 206.464844 346.078125 206.464844 348.410156 C 206.464844 350.558594 205.28125 352.671875 203.101562 354.882812 C 201.015625 357.007812 198.925781 359.132812 196.839844 361.257812 C 196.4375 361.632812 196.4375 361.695312 196.4375 362.316406 C 196.4375 362.503906 196.4375 362.691406 196.4375 362.878906 C 200.890625 362.878906 205.34375 362.878906 209.796875 362.878906 C 210.117188 360.574219 210.441406 358.273438 210.761719 355.96875 Z M 210.761719 355.96875 "/>
<path fill-rule="nonzero" fill="rgb(98.823529%, 38.431373%, 33.333333%)" fill-opacity="1" d="M 218.765625 347.976562 C 218.269531 347.695312 217.394531 347.164062 217.394531 346.109375 C 217.394531 343.929688 220.199219 343.710938 221.445312 343.710938 C 224.0625 343.710938 225.617188 344.988281 225.617188 347.105469 C 225.617188 348.628906 224.808594 349.6875 223.4375 350.589844 C 221.882812 349.71875 220.324219 348.847656 218.765625 347.976562 Z M 224.808594 351.367188 C 226.988281 350.246094 227.953125 348.878906 227.953125 347.074219 C 227.953125 343.898438 225.121094 342.5 221.570312 342.5 C 217.242188 342.5 215.058594 344.957031 215.058594 347.945312 C 215.058594 349.3125 215.621094 351.273438 218.050781 352.640625 C 215.433594 353.792969 214.0625 355.566406 214.0625 357.867188 C 214.0625 361.632812 217.425781 363.21875 221.445312 363.21875 C 226.429688 363.21875 228.953125 360.480469 228.953125 357.058594 C 228.953125 353.699219 226.335938 352.238281 224.808594 351.367188 Z M 219.484375 353.480469 C 220.574219 354.042969 222.035156 354.882812 223.75 355.847656 C 225.121094 356.625 226.273438 357.277344 226.273438 358.769531 C 226.273438 361.382812 223.34375 361.882812 221.570312 361.882812 C 218.519531 361.882812 216.742188 360.292969 216.742188 357.867188 C 216.742188 355.441406 218.394531 354.105469 219.484375 353.480469 Z M 219.484375 353.480469 "/>
<path fill-rule="nonzero" fill="rgb(98.823529%, 38.431373%, 33.333333%)" fill-opacity="1" d="M 246.578125 355.96875 C 246.089844 355.96875 245.605469 355.96875 245.117188 355.96875 C 245.023438 356.59375 244.742188 358.582031 244.304688 358.800781 C 243.964844 358.988281 241.628906 358.988281 241.128906 358.988281 C 239.601562 358.988281 238.078125 358.988281 236.550781 358.988281 C 238.015625 357.773438 239.632812 356.4375 241.035156 355.410156 C 244.585938 352.796875 246.578125 351.335938 246.578125 348.378906 C 246.578125 344.800781 243.339844 342.5 238.949219 342.5 C 235.179688 342.5 232.253906 344.429688 232.253906 347.226562 C 232.253906 349.0625 233.746094 349.53125 234.496094 349.53125 C 235.492188 349.53125 236.738281 348.847656 236.738281 347.289062 C 236.738281 345.671875 235.429688 345.175781 234.960938 345.050781 C 235.867188 344.304688 237.050781 343.960938 238.171875 343.960938 C 240.847656 343.960938 242.28125 346.078125 242.28125 348.410156 C 242.28125 350.558594 241.097656 352.671875 238.917969 354.882812 C 236.832031 357.007812 234.746094 359.132812 232.65625 361.257812 C 232.253906 361.632812 232.253906 361.695312 232.253906 362.316406 C 232.253906 362.503906 232.253906 362.691406 232.253906 362.878906 C 236.707031 362.878906 241.160156 362.878906 245.613281 362.878906 C 245.9375 360.574219 246.257812 358.273438 246.578125 355.96875 Z M 246.578125 355.96875 "/>
<path fill-rule="nonzero" fill="rgb(98.823529%, 38.431373%, 33.333333%)" fill-opacity="1" d="M 255.765625 360.449219 C 255.765625 359.113281 254.675781 358.023438 253.339844 358.023438 C 252 358.023438 250.910156 359.113281 250.910156 360.449219 C 250.910156 361.789062 252 362.878906 253.339844 362.878906 C 254.675781 362.878906 255.765625 361.789062 255.765625 360.449219 Z M 255.765625 360.449219 "/>
<path fill-rule="nonzero" fill="rgb(98.823529%, 38.431373%, 33.333333%)" fill-opacity="1" d="M 272.195312 358.023438 C 273.203125 358.023438 274.207031 358.023438 275.214844 358.023438 C 275.214844 357.535156 275.214844 357.050781 275.214844 356.5625 C 274.207031 356.5625 273.203125 356.5625 272.195312 356.5625 C 272.195312 352.195312 272.195312 347.828125 272.195312 343.464844 C 272.195312 342.625 272.132812 342.46875 271.261719 342.46875 C 270.605469 342.46875 270.574219 342.5 270.203125 342.964844 C 266.578125 347.496094 262.953125 352.03125 259.332031 356.5625 C 259.332031 357.050781 259.332031 357.535156 259.332031 358.023438 C 262.320312 358.023438 265.3125 358.023438 268.300781 358.023438 C 268.300781 359.152344 268.300781 360.285156 268.300781 361.414062 C 267.136719 361.414062 265.976562 361.414062 264.8125 361.414062 C 264.8125 361.902344 264.8125 362.390625 264.8125 362.878906 C 265.996094 362.785156 268.832031 362.785156 270.171875 362.785156 C 271.414062 362.785156 274.125 362.785156 275.214844 362.878906 C 275.214844 362.390625 275.214844 361.902344 275.214844 361.414062 C 274.207031 361.414062 273.203125 361.414062 272.195312 361.414062 C 272.195312 360.285156 272.195312 359.152344 272.195312 358.023438 Z M 268.644531 356.5625 C 266.078125 356.5625 263.515625 356.5625 260.949219 356.5625 C 263.515625 353.347656 266.078125 350.132812 268.644531 346.917969 C 268.644531 350.132812 268.644531 353.347656 268.644531 356.5625 Z M 268.644531 356.5625 "/>
<path fill-rule="nonzero" fill="rgb(98.823529%, 38.431373%, 33.333333%)" fill-opacity="1" d="M 282.910156 355.503906 C 282.910156 350.765625 282.910156 346.023438 282.910156 341.285156 C 281.070312 341.367188 279.234375 341.453125 277.394531 341.535156 C 277.394531 342.023438 277.394531 342.507812 277.394531 342.996094 C 279.328125 342.996094 279.542969 342.996094 279.542969 344.210938 C 279.542969 349.945312 279.542969 355.679688 279.542969 361.414062 C 278.828125 361.414062 278.113281 361.414062 277.394531 361.414062 C 277.394531 361.902344 277.394531 362.390625 277.394531 362.878906 C 278.546875 362.847656 280.011719 362.785156 281.132812 362.785156 C 282.285156 362.785156 283.78125 362.847656 284.902344 362.878906 C 284.902344 362.390625 284.902344 361.902344 284.902344 361.414062 C 284.183594 361.414062 283.46875 361.414062 282.753906 361.414062 C 282.753906 360.097656 282.753906 358.78125 282.753906 357.464844 C 283.65625 356.75 283.90625 356.5625 284.527344 356.125 C 285.578125 357.433594 286.625 358.738281 287.671875 360.046875 C 287.953125 360.417969 288.453125 361.042969 288.453125 361.136719 C 288.453125 361.414062 287.890625 361.414062 287.488281 361.414062 C 287.488281 361.902344 287.488281 362.390625 287.488281 362.878906 C 288.421875 362.816406 291.128906 362.785156 291.285156 362.785156 C 292.40625 362.785156 293.464844 362.816406 294.527344 362.878906 C 294.527344 362.390625 294.527344 361.902344 294.527344 361.414062 C 294.347656 361.414062 294.171875 361.414062 293.996094 361.414062 C 292.65625 361.414062 292.5625 361.289062 292.160156 360.792969 C 290.402344 358.605469 288.648438 356.417969 286.894531 354.226562 C 288.246094 353.179688 289.59375 352.132812 290.945312 351.085938 C 291.378906 350.742188 291.660156 350.527344 293.746094 350.527344 C 293.746094 350.039062 293.746094 349.550781 293.746094 349.0625 C 292.90625 349.15625 292.128906 349.15625 291.316406 349.15625 C 290.476562 349.15625 288.453125 349.09375 287.734375 349.0625 C 287.734375 349.550781 287.734375 350.039062 287.734375 350.527344 C 288.453125 350.527344 288.546875 350.621094 288.796875 350.867188 C 286.832031 352.414062 284.871094 353.957031 282.910156 355.503906 Z M 282.910156 355.503906 "/>
<path fill-rule="nonzero" fill="rgb(98.823529%, 38.431373%, 33.333333%)" fill-opacity="1" d="M 304.519531 341.9375 C 304.179688 341.566406 304.148438 341.535156 303.492188 341.535156 C 301.117188 341.535156 298.738281 341.535156 296.363281 341.535156 C 296.363281 342.023438 296.363281 342.507812 296.363281 342.996094 C 297.484375 342.996094 298.605469 342.996094 299.726562 342.996094 C 299.726562 348.835938 299.726562 354.675781 299.726562 360.511719 C 299.726562 361.195312 299.695312 361.226562 298.820312 361.320312 C 298.074219 361.414062 298.011719 361.414062 297.140625 361.414062 C 296.878906 361.414062 296.621094 361.414062 296.363281 361.414062 C 296.363281 361.902344 296.363281 362.390625 296.363281 362.878906 C 297.542969 362.785156 299.320312 362.785156 300.535156 362.785156 C 301.84375 362.785156 303.460938 362.785156 304.738281 362.878906 C 304.738281 362.390625 304.738281 361.902344 304.738281 361.414062 C 304.480469 361.414062 304.21875 361.414062 303.960938 361.414062 C 303.398438 361.414062 302.871094 361.382812 302.308594 361.320312 C 301.40625 361.226562 301.375 361.195312 301.375 360.511719 C 301.375 355.089844 301.375 349.664062 301.375 344.242188 C 306.546875 350.320312 311.714844 356.394531 316.886719 362.472656 C 317.199219 362.847656 317.230469 362.878906 317.726562 362.878906 C 318.566406 362.878906 318.566406 362.597656 318.566406 361.882812 C 318.566406 355.886719 318.566406 349.894531 318.566406 343.898438 C 318.566406 343.214844 318.597656 343.183594 319.472656 343.089844 C 320.21875 342.996094 320.28125 342.996094 321.152344 342.996094 C 321.414062 342.996094 321.671875 342.996094 321.933594 342.996094 C 321.933594 342.507812 321.933594 342.023438 321.933594 341.535156 C 320.75 341.628906 318.972656 341.628906 317.757812 341.628906 C 316.449219 341.628906 314.832031 341.628906 313.554688 341.535156 C 313.554688 342.023438 313.554688 342.507812 313.554688 342.996094 C 313.8125 342.996094 314.074219 342.996094 314.332031 342.996094 C 314.894531 342.996094 315.421875 343.027344 315.984375 343.089844 C 316.886719 343.183594 316.917969 343.214844 316.917969 343.898438 C 316.917969 348.097656 316.917969 352.300781 316.917969 356.5 C 312.785156 351.644531 308.652344 346.792969 304.519531 341.9375 Z M 304.519531 341.9375 "/>
<path fill="none" stroke-width="0.04" stroke-linecap="butt" stroke-linejoin="miter" stroke="rgb(60.392157%, 44.705882%, 67.45098%)" stroke-opacity="1" stroke-miterlimit="10" d="M -5.156472 -1.414078 C -5.104864 -1.43421 -5.053191 -1.454341 -5.001518 -1.474472 " transform="matrix(60.023178, 0, 0, -59.957891, 337, 222.5)"/>
<path fill="none" stroke-width="0.04" stroke-linecap="butt" stroke-linejoin="miter" stroke="rgb(60.392157%, 44.705882%, 67.45098%)" stroke-opacity="1" stroke-miterlimit="10" d="M -4.836868 -1.538645 C -4.785261 -1.558841 -4.733588 -1.578973 -4.681915 -1.599104 " transform="matrix(60.023178, 0, 0, -59.957891, 337, 222.5)"/>
<path fill="none" stroke-width="0.04" stroke-linecap="butt" stroke-linejoin="miter" stroke="rgb(60.392157%, 44.705882%, 67.45098%)" stroke-opacity="1" stroke-miterlimit="10" d="M -4.517265 -1.663277 C -4.465658 -1.683408 -4.413985 -1.703539 -4.362312 -1.723736 " transform="matrix(60.023178, 0, 0, -59.957891, 337, 222.5)"/>
<path fill="none" stroke-width="0.04" stroke-linecap="butt" stroke-linejoin="miter" stroke="rgb(60.392157%, 44.705882%, 67.45098%)" stroke-opacity="1" stroke-miterlimit="10" d="M -4.197727 -1.787908 C -4.146055 -1.80804 -4.094382 -1.828171 -4.042709 -1.848302 " transform="matrix(60.023178, 0, 0, -59.957891, 337, 222.5)"/>
<path fill="none" stroke-width="0.04" stroke-linecap="butt" stroke-linejoin="miter" stroke="rgb(60.392157%, 44.705882%, 67.45098%)" stroke-opacity="1" stroke-miterlimit="10" d="M -3.878124 -1.91254 C -3.826452 -1.932671 -3.774779 -1.952803 -3.723171 -1.972934 " transform="matrix(60.023178, 0, 0, -59.957891, 337, 222.5)"/>
<path fill="none" stroke-width="0.04" stroke-linecap="butt" stroke-linejoin="miter" stroke="rgb(60.392157%, 44.705882%, 67.45098%)" stroke-opacity="1" stroke-miterlimit="10" d="M -3.558521 -2.037107 C -3.506848 -2.057238 -3.455176 -2.077435 -3.403568 -2.097566 " transform="matrix(60.023178, 0, 0, -59.957891, 337, 222.5)"/>
<path fill="none" stroke-width="0.04" stroke-linecap="butt" stroke-linejoin="miter" stroke="rgb(60.392157%, 44.705882%, 67.45098%)" stroke-opacity="1" stroke-miterlimit="10" d="M -3.238918 -2.161739 C -3.187245 -2.18187 -3.135573 -2.202001 -3.083965 -2.222132 " transform="matrix(60.023178, 0, 0, -59.957891, 337, 222.5)"/>
<path fill="none" stroke-width="0.04" stroke-linecap="butt" stroke-linejoin="miter" stroke="rgb(60.392157%, 44.705882%, 67.45098%)" stroke-opacity="1" stroke-miterlimit="10" d="M -2.919315 -2.28637 C -2.867642 -2.306502 -2.816035 -2.326633 -2.764362 -2.346764 " transform="matrix(60.023178, 0, 0, -59.957891, 337, 222.5)"/>
<path fill="none" stroke-width="0.04" stroke-linecap="butt" stroke-linejoin="miter" stroke="rgb(60.392157%, 44.705882%, 67.45098%)" stroke-opacity="1" stroke-miterlimit="10" d="M -2.599712 -2.410937 C -2.548039 -2.431133 -2.496431 -2.451265 -2.444759 -2.471396 " transform="matrix(60.023178, 0, 0, -59.957891, 337, 222.5)"/>
<path fill="none" stroke-width="0.04" stroke-linecap="butt" stroke-linejoin="miter" stroke="rgb(60.392157%, 44.705882%, 67.45098%)" stroke-opacity="1" stroke-miterlimit="10" d="M -2.280109 -2.535569 C -2.228436 -2.5557 -2.176828 -2.575831 -2.125156 -2.595963 " transform="matrix(60.023178, 0, 0, -59.957891, 337, 222.5)"/>
<path fill="none" stroke-width="0.04" stroke-linecap="butt" stroke-linejoin="miter" stroke="rgb(60.392157%, 44.705882%, 67.45098%)" stroke-opacity="1" stroke-miterlimit="10" d="M -1.960506 -2.6602 C -1.908898 -2.680332 -1.857225 -2.700463 -1.805553 -2.720594 " transform="matrix(60.023178, 0, 0, -59.957891, 337, 222.5)"/>
<path fill="none" stroke-width="0.04" stroke-linecap="butt" stroke-linejoin="miter" stroke="rgb(60.392157%, 44.705882%, 67.45098%)" stroke-opacity="1" stroke-miterlimit="10" d="M -1.640903 -2.784767 C -1.589295 -2.804963 -1.537622 -2.825095 -1.485949 -2.845226 " transform="matrix(60.023178, 0, 0, -59.957891, 337, 222.5)"/>
<path fill="none" stroke-width="0.04" stroke-linecap="butt" stroke-linejoin="miter" stroke="rgb(60.392157%, 44.705882%, 67.45098%)" stroke-opacity="1" stroke-miterlimit="10" d="M -1.321299 -2.909399 C -1.269692 -2.92953 -1.218019 -2.949661 -1.166346 -2.969858 " transform="matrix(60.023178, 0, 0, -59.957891, 337, 222.5)"/>
<path fill="none" stroke-width="0.04" stroke-linecap="butt" stroke-linejoin="miter" stroke="rgb(60.392157%, 44.705882%, 67.45098%)" stroke-opacity="1" stroke-miterlimit="10" d="M -1.001761 -3.03403 C -0.950089 -3.054162 -0.898416 -3.074293 -0.846808 -3.094424 " transform="matrix(60.023178, 0, 0, -59.957891, 337, 222.5)"/>
<path fill="none" stroke-width="0.04" stroke-linecap="butt" stroke-linejoin="miter" stroke="rgb(60.392157%, 44.705882%, 67.45098%)" stroke-opacity="1" stroke-miterlimit="10" d="M -0.682158 -3.158662 C -0.630486 -3.178793 -0.578813 -3.198925 -0.527205 -3.219056 " transform="matrix(60.023178, 0, 0, -59.957891, 337, 222.5)"/>
<path fill="none" stroke-width="0.04" stroke-linecap="butt" stroke-linejoin="miter" stroke="rgb(60.392157%, 44.705882%, 67.45098%)" stroke-opacity="1" stroke-miterlimit="10" d="M -0.362555 -3.283229 C -0.310883 -3.30336 -0.25921 -3.323556 -0.207602 -3.343688 " transform="matrix(60.023178, 0, 0, -59.957891, 337, 222.5)"/>
<path fill="none" stroke-width="0.04" stroke-linecap="butt" stroke-linejoin="miter" stroke="rgb(60.392157%, 44.705882%, 67.45098%)" stroke-opacity="1" stroke-miterlimit="10" d="M -0.0429522 -3.40786 C 0.00872059 -3.427992 0.0603283 -3.448123 0.112001 -3.468254 " transform="matrix(60.023178, 0, 0, -59.957891, 337, 222.5)"/>
<path fill="none" stroke-width="0.04" stroke-linecap="butt" stroke-linejoin="miter" stroke="rgb(60.392157%, 44.705882%, 67.45098%)" stroke-opacity="1" stroke-miterlimit="10" d="M 0.112001 -3.468254 C 0.165236 -3.448123 0.218405 -3.427992 0.27164 -3.40786 " transform="matrix(60.023178, 0, 0, -59.957891, 337, 222.5)"/>
<path fill="none" stroke-width="0.04" stroke-linecap="butt" stroke-linejoin="miter" stroke="rgb(60.392157%, 44.705882%, 67.45098%)" stroke-opacity="1" stroke-miterlimit="10" d="M 0.441236 -3.343688 C 0.49447 -3.323556 0.54764 -3.30336 0.600875 -3.283229 " transform="matrix(60.023178, 0, 0, -59.957891, 337, 222.5)"/>
<path fill="none" stroke-width="0.04" stroke-linecap="butt" stroke-linejoin="miter" stroke="rgb(60.392157%, 44.705882%, 67.45098%)" stroke-opacity="1" stroke-miterlimit="10" d="M 0.770471 -3.219056 C 0.823705 -3.198925 0.87694 -3.178793 0.930109 -3.158662 " transform="matrix(60.023178, 0, 0, -59.957891, 337, 222.5)"/>
<path fill="none" stroke-width="0.04" stroke-linecap="butt" stroke-linejoin="miter" stroke="rgb(60.392157%, 44.705882%, 67.45098%)" stroke-opacity="1" stroke-miterlimit="10" d="M 1.099705 -3.094424 C 1.15294 -3.074293 1.206175 -3.054162 1.259344 -3.03403 " transform="matrix(60.023178, 0, 0, -59.957891, 337, 222.5)"/>
<path fill="none" stroke-width="0.04" stroke-linecap="butt" stroke-linejoin="miter" stroke="rgb(60.392157%, 44.705882%, 67.45098%)" stroke-opacity="1" stroke-miterlimit="10" d="M 1.429005 -2.969858 C 1.482175 -2.949661 1.535409 -2.92953 1.588579 -2.909399 " transform="matrix(60.023178, 0, 0, -59.957891, 337, 222.5)"/>
<path fill="none" stroke-width="0.04" stroke-linecap="butt" stroke-linejoin="miter" stroke="rgb(60.392157%, 44.705882%, 67.45098%)" stroke-opacity="1" stroke-miterlimit="10" d="M 1.75824 -2.845226 C 1.81141 -2.825095 1.864644 -2.804963 1.917879 -2.784767 " transform="matrix(60.023178, 0, 0, -59.957891, 337, 222.5)"/>
<path fill="none" stroke-width="0.04" stroke-linecap="butt" stroke-linejoin="miter" stroke="rgb(60.392157%, 44.705882%, 67.45098%)" stroke-opacity="1" stroke-miterlimit="10" d="M 2.087475 -2.720594 C 2.140644 -2.700463 2.193879 -2.680332 2.247114 -2.6602 " transform="matrix(60.023178, 0, 0, -59.957891, 337, 222.5)"/>
<path fill="none" stroke-width="0.04" stroke-linecap="butt" stroke-linejoin="miter" stroke="rgb(60.392157%, 44.705882%, 67.45098%)" stroke-opacity="1" stroke-miterlimit="10" d="M 2.41671 -2.595963 C 2.469879 -2.575831 2.523114 -2.5557 2.576349 -2.535569 " transform="matrix(60.023178, 0, 0, -59.957891, 337, 222.5)"/>
<path fill="none" stroke-width="0.04" stroke-linecap="butt" stroke-linejoin="miter" stroke="rgb(60.392157%, 44.705882%, 67.45098%)" stroke-opacity="1" stroke-miterlimit="10" d="M 2.745944 -2.471396 C 2.799179 -2.451265 2.852349 -2.431133 2.905583 -2.410937 " transform="matrix(60.023178, 0, 0, -59.957891, 337, 222.5)"/>
<path fill="none" stroke-width="0.04" stroke-linecap="butt" stroke-linejoin="miter" stroke="rgb(60.392157%, 44.705882%, 67.45098%)" stroke-opacity="1" stroke-miterlimit="10" d="M 3.075179 -2.346764 C 3.128414 -2.326633 3.181583 -2.306502 3.234818 -2.28637 " transform="matrix(60.023178, 0, 0, -59.957891, 337, 222.5)"/>
<path fill="none" stroke-width="0.04" stroke-linecap="butt" stroke-linejoin="miter" stroke="rgb(60.392157%, 44.705882%, 67.45098%)" stroke-opacity="1" stroke-miterlimit="10" d="M 3.404414 -2.222132 C 3.457649 -2.202001 3.510818 -2.18187 3.564053 -2.161739 " transform="matrix(60.023178, 0, 0, -59.957891, 337, 222.5)"/>
<path fill="none" stroke-width="0.04" stroke-linecap="butt" stroke-linejoin="miter" stroke="rgb(60.392157%, 44.705882%, 67.45098%)" stroke-opacity="1" stroke-miterlimit="10" d="M 3.733649 -2.097566 C 3.786883 -2.077435 3.840053 -2.057238 3.893288 -2.037107 " transform="matrix(60.023178, 0, 0, -59.957891, 337, 222.5)"/>
<path fill="none" stroke-width="0.04" stroke-linecap="butt" stroke-linejoin="miter" stroke="rgb(60.392157%, 44.705882%, 67.45098%)" stroke-opacity="1" stroke-miterlimit="10" d="M 4.062884 -1.972934 C 4.116118 -1.952803 4.169353 -1.932671 4.222522 -1.91254 " transform="matrix(60.023178, 0, 0, -59.957891, 337, 222.5)"/>
<path fill="none" stroke-width="0.04" stroke-linecap="butt" stroke-linejoin="miter" stroke="rgb(60.392157%, 44.705882%, 67.45098%)" stroke-opacity="1" stroke-miterlimit="10" d="M 4.392118 -1.848302 C 4.445353 -1.828171 4.498588 -1.80804 4.551757 -1.787908 " transform="matrix(60.023178, 0, 0, -59.957891, 337, 222.5)"/>
<path fill="none" stroke-width="0.04" stroke-linecap="butt" stroke-linejoin="miter" stroke="rgb(60.392157%, 44.705882%, 67.45098%)" stroke-opacity="1" stroke-miterlimit="10" d="M 4.721353 -1.723736 C 4.774588 -1.703539 4.827823 -1.683408 4.880992 -1.663277 " transform="matrix(60.023178, 0, 0, -59.957891, 337, 222.5)"/>
<path fill="none" stroke-width="0.04" stroke-linecap="butt" stroke-linejoin="miter" stroke="rgb(60.392157%, 44.705882%, 67.45098%)" stroke-opacity="1" stroke-miterlimit="10" d="M 5.050653 -1.599104 C 5.103823 -1.578973 5.157057 -1.558841 5.210227 -1.538645 " transform="matrix(60.023178, 0, 0, -59.957891, 337, 222.5)"/>
<path fill="none" stroke-width="0.04" stroke-linecap="butt" stroke-linejoin="miter" stroke="rgb(60.392157%, 44.705882%, 67.45098%)" stroke-opacity="1" stroke-miterlimit="10" d="M 5.379888 -1.474472 C 5.433057 -1.454341 5.486292 -1.43421 5.539527 -1.414078 " transform="matrix(60.023178, 0, 0, -59.957891, 337, 222.5)"/>
<path fill="none" stroke-width="0.04" stroke-linecap="butt" stroke-linejoin="miter" stroke="rgb(60.392157%, 44.705882%, 67.45098%)" stroke-opacity="1" stroke-miterlimit="10" d="M 5.539527 -1.414078 C 5.502497 -1.386064 5.465467 -1.357984 5.428502 -1.32997 " transform="matrix(60.023178, 0, 0, -59.957891, 337, 222.5)"/>
<path fill="none" stroke-width="0.04" stroke-linecap="butt" stroke-linejoin="miter" stroke="rgb(60.392157%, 44.705882%, 67.45098%)" stroke-opacity="1" stroke-miterlimit="10" d="M 5.312661 -1.242213 C 5.275631 -1.214199 5.238666 -1.186184 5.201636 -1.15817 " transform="matrix(60.023178, 0, 0, -59.957891, 337, 222.5)"/>
<path fill="none" stroke-width="0.04" stroke-linecap="butt" stroke-linejoin="miter" stroke="rgb(60.392157%, 44.705882%, 67.45098%)" stroke-opacity="1" stroke-miterlimit="10" d="M 5.085796 -1.070413 C 5.048766 -1.042398 5.011801 -1.014384 4.974771 -0.986304 " transform="matrix(60.023178, 0, 0, -59.957891, 337, 222.5)"/>
<path fill="none" stroke-width="0.04" stroke-linecap="butt" stroke-linejoin="miter" stroke="rgb(60.392157%, 44.705882%, 67.45098%)" stroke-opacity="1" stroke-miterlimit="10" d="M 4.85893 -0.898612 C 4.821965 -0.870533 4.784935 -0.842518 4.747905 -0.814504 " transform="matrix(60.023178, 0, 0, -59.957891, 337, 222.5)"/>
<path fill="none" stroke-width="0.04" stroke-linecap="butt" stroke-linejoin="miter" stroke="rgb(60.392157%, 44.705882%, 67.45098%)" stroke-opacity="1" stroke-miterlimit="10" d="M 4.632065 -0.726747 C 4.5951 -0.698733 4.55807 -0.670718 4.521105 -0.642704 " transform="matrix(60.023178, 0, 0, -59.957891, 337, 222.5)"/>
<path fill="none" stroke-width="0.04" stroke-linecap="butt" stroke-linejoin="miter" stroke="rgb(60.392157%, 44.705882%, 67.45098%)" stroke-opacity="1" stroke-miterlimit="10" d="M 4.405264 -0.554947 C 4.368234 -0.526932 4.331204 -0.498853 4.29424 -0.470838 " transform="matrix(60.023178, 0, 0, -59.957891, 337, 222.5)"/>
<path fill="none" stroke-width="0.04" stroke-linecap="butt" stroke-linejoin="miter" stroke="rgb(60.392157%, 44.705882%, 67.45098%)" stroke-opacity="1" stroke-miterlimit="10" d="M 4.178399 -0.383081 C 4.141369 -0.355067 4.104404 -0.327052 4.067374 -0.299038 " transform="matrix(60.023178, 0, 0, -59.957891, 337, 222.5)"/>
<path fill="none" stroke-width="0.04" stroke-linecap="butt" stroke-linejoin="miter" stroke="rgb(60.392157%, 44.705882%, 67.45098%)" stroke-opacity="1" stroke-miterlimit="10" d="M 3.951533 -0.211281 C 3.914503 -0.183267 3.877539 -0.155252 3.840509 -0.127173 " transform="matrix(60.023178, 0, 0, -59.957891, 337, 222.5)"/>
<path fill="none" stroke-width="0.04" stroke-linecap="butt" stroke-linejoin="miter" stroke="rgb(60.392157%, 44.705882%, 67.45098%)" stroke-opacity="1" stroke-miterlimit="10" d="M 3.724668 -0.0394808 C 3.687703 -0.0114012 3.650673 0.0166132 3.613643 0.0446277 " transform="matrix(60.023178, 0, 0, -59.957891, 337, 222.5)"/>
<path fill="none" stroke-width="0.04" stroke-linecap="butt" stroke-linejoin="miter" stroke="rgb(60.392157%, 44.705882%, 67.45098%)" stroke-opacity="1" stroke-miterlimit="10" d="M 3.497802 0.132385 C 3.460838 0.160399 3.423808 0.188413 3.386843 0.216428 " transform="matrix(60.023178, 0, 0, -59.957891, 337, 222.5)"/>
<path fill="none" stroke-width="0.04" stroke-linecap="butt" stroke-linejoin="miter" stroke="rgb(60.392157%, 44.705882%, 67.45098%)" stroke-opacity="1" stroke-miterlimit="10" d="M 3.271002 0.304185 C 3.233972 0.332199 3.196942 0.360279 3.159977 0.388293 " transform="matrix(60.023178, 0, 0, -59.957891, 337, 222.5)"/>
<path fill="none" stroke-width="0.04" stroke-linecap="butt" stroke-linejoin="miter" stroke="rgb(60.392157%, 44.705882%, 67.45098%)" stroke-opacity="1" stroke-miterlimit="10" d="M 3.044137 0.47605 C 3.007107 0.504065 2.970142 0.532079 2.933112 0.560094 " transform="matrix(60.023178, 0, 0, -59.957891, 337, 222.5)"/>
<path fill="none" stroke-width="0.04" stroke-linecap="butt" stroke-linejoin="miter" stroke="rgb(60.392157%, 44.705882%, 67.45098%)" stroke-opacity="1" stroke-miterlimit="10" d="M 2.817271 0.647851 C 2.780306 0.675865 2.743276 0.703879 2.706246 0.731959 " transform="matrix(60.023178, 0, 0, -59.957891, 337, 222.5)"/>
<path fill="none" stroke-width="0.04" stroke-linecap="butt" stroke-linejoin="miter" stroke="rgb(60.392157%, 44.705882%, 67.45098%)" stroke-opacity="1" stroke-miterlimit="10" d="M 2.590406 0.819651 C 2.553441 0.84773 2.516411 0.875745 2.479446 0.903759 " transform="matrix(60.023178, 0, 0, -59.957891, 337, 222.5)"/>
<path fill="none" stroke-width="0.04" stroke-linecap="butt" stroke-linejoin="miter" stroke="rgb(60.392157%, 44.705882%, 67.45098%)" stroke-opacity="1" stroke-miterlimit="10" d="M 2.363605 0.991516 C 2.326575 1.019531 2.289545 1.047545 2.25258 1.07556 " transform="matrix(60.023178, 0, 0, -59.957891, 337, 222.5)"/>
<path fill="none" stroke-width="0.04" stroke-linecap="butt" stroke-linejoin="miter" stroke="rgb(60.392157%, 44.705882%, 67.45098%)" stroke-opacity="1" stroke-miterlimit="10" d="M 2.13674 1.163316 C 2.09971 1.191331 2.062745 1.21941 2.025715 1.247425 " transform="matrix(60.023178, 0, 0, -59.957891, 337, 222.5)"/>
<path fill="none" stroke-width="0.04" stroke-linecap="butt" stroke-linejoin="miter" stroke="rgb(60.392157%, 44.705882%, 67.45098%)" stroke-opacity="1" stroke-miterlimit="10" d="M 1.909874 1.335182 C 1.872844 1.363196 1.835879 1.391211 1.798849 1.419225 " transform="matrix(60.023178, 0, 0, -59.957891, 337, 222.5)"/>
<path fill="none" stroke-width="0.04" stroke-linecap="butt" stroke-linejoin="miter" stroke="rgb(60.392157%, 44.705882%, 67.45098%)" stroke-opacity="1" stroke-miterlimit="10" d="M 1.683009 1.506982 C 1.646044 1.534997 1.609014 1.563011 1.571984 1.591091 " transform="matrix(60.023178, 0, 0, -59.957891, 337, 222.5)"/>
<path fill="none" stroke-width="0.04" stroke-linecap="butt" stroke-linejoin="miter" stroke="rgb(60.392157%, 44.705882%, 67.45098%)" stroke-opacity="1" stroke-miterlimit="10" d="M 1.456143 1.678782 C 1.419178 1.706862 1.382148 1.734876 1.345183 1.762891 " transform="matrix(60.023178, 0, 0, -59.957891, 337, 222.5)"/>
<path fill="none" stroke-width="0.04" stroke-linecap="butt" stroke-linejoin="miter" stroke="rgb(60.392157%, 44.705882%, 67.45098%)" stroke-opacity="1" stroke-miterlimit="10" d="M 1.229343 1.850648 C 1.192313 1.878662 1.155283 1.906677 1.118318 1.934691 " transform="matrix(60.023178, 0, 0, -59.957891, 337, 222.5)"/>
<path fill="none" stroke-width="0.04" stroke-linecap="butt" stroke-linejoin="miter" stroke="rgb(60.392157%, 44.705882%, 67.45098%)" stroke-opacity="1" stroke-miterlimit="10" d="M 1.002477 2.022448 C 0.965447 2.050462 0.928482 2.078477 0.891453 2.106557 " transform="matrix(60.023178, 0, 0, -59.957891, 337, 222.5)"/>
<path fill="none" stroke-width="0.04" stroke-linecap="butt" stroke-linejoin="miter" stroke="rgb(60.392157%, 44.705882%, 67.45098%)" stroke-opacity="1" stroke-miterlimit="10" d="M 0.775612 2.194248 C 0.738582 2.222328 0.701617 2.250342 0.664587 2.278357 " transform="matrix(60.023178, 0, 0, -59.957891, 337, 222.5)"/>
<path fill="none" stroke-width="0.04" stroke-linecap="butt" stroke-linejoin="miter" stroke="rgb(60.392157%, 44.705882%, 67.45098%)" stroke-opacity="1" stroke-miterlimit="10" d="M 0.548746 2.366114 C 0.511781 2.394128 0.474751 2.422143 0.437722 2.450157 " transform="matrix(60.023178, 0, 0, -59.957891, 337, 222.5)"/>
<path fill="none" stroke-width="0.04" stroke-linecap="butt" stroke-linejoin="miter" stroke="rgb(60.392157%, 44.705882%, 67.45098%)" stroke-opacity="1" stroke-miterlimit="10" d="M 0.321881 2.537914 C 0.284916 2.565928 0.247886 2.594008 0.210921 2.622022 " transform="matrix(60.023178, 0, 0, -59.957891, 337, 222.5)"/>
<path fill="none" stroke-width="0.04" stroke-linecap="butt" stroke-linejoin="miter" stroke="rgb(60.392157%, 44.705882%, 67.45098%)" stroke-opacity="1" stroke-miterlimit="10" d="M 0.210921 2.622022 C 0.173631 2.594008 0.136341 2.565928 0.0990503 2.537914 " transform="matrix(60.023178, 0, 0, -59.957891, 337, 222.5)"/>
<path fill="none" stroke-width="0.04" stroke-linecap="butt" stroke-linejoin="miter" stroke="rgb(60.392157%, 44.705882%, 67.45098%)" stroke-opacity="1" stroke-miterlimit="10" d="M -0.0175713 2.450157 C -0.0548616 2.422143 -0.0921519 2.394128 -0.129442 2.366114 " transform="matrix(60.023178, 0, 0, -59.957891, 337, 222.5)"/>
<path fill="none" stroke-width="0.04" stroke-linecap="butt" stroke-linejoin="miter" stroke="rgb(60.392157%, 44.705882%, 67.45098%)" stroke-opacity="1" stroke-miterlimit="10" d="M -0.246129 2.278357 C -0.283354 2.250342 -0.320644 2.222328 -0.357935 2.194248 " transform="matrix(60.023178, 0, 0, -59.957891, 337, 222.5)"/>
<path fill="none" stroke-width="0.04" stroke-linecap="butt" stroke-linejoin="miter" stroke="rgb(60.392157%, 44.705882%, 67.45098%)" stroke-opacity="1" stroke-miterlimit="10" d="M -0.474621 2.106557 C -0.511912 2.078477 -0.549137 2.050462 -0.586427 2.022448 " transform="matrix(60.023178, 0, 0, -59.957891, 337, 222.5)"/>
<path fill="none" stroke-width="0.04" stroke-linecap="butt" stroke-linejoin="miter" stroke="rgb(60.392157%, 44.705882%, 67.45098%)" stroke-opacity="1" stroke-miterlimit="10" d="M -0.703114 1.934691 C -0.740404 1.906677 -0.777629 1.878662 -0.81492 1.850648 " transform="matrix(60.023178, 0, 0, -59.957891, 337, 222.5)"/>
<path fill="none" stroke-width="0.04" stroke-linecap="butt" stroke-linejoin="miter" stroke="rgb(60.392157%, 44.705882%, 67.45098%)" stroke-opacity="1" stroke-miterlimit="10" d="M -0.931606 1.762891 C -0.968897 1.734876 -1.006187 1.706862 -1.043412 1.678782 " transform="matrix(60.023178, 0, 0, -59.957891, 337, 222.5)"/>
<path fill="none" stroke-width="0.04" stroke-linecap="butt" stroke-linejoin="miter" stroke="rgb(60.392157%, 44.705882%, 67.45098%)" stroke-opacity="1" stroke-miterlimit="10" d="M -1.160099 1.591091 C -1.197389 1.563011 -1.234679 1.534997 -1.27197 1.506982 " transform="matrix(60.023178, 0, 0, -59.957891, 337, 222.5)"/>
<path fill="none" stroke-width="0.04" stroke-linecap="butt" stroke-linejoin="miter" stroke="rgb(60.392157%, 44.705882%, 67.45098%)" stroke-opacity="1" stroke-miterlimit="10" d="M -1.388591 1.419225 C -1.425881 1.391211 -1.463172 1.363196 -1.500462 1.335182 " transform="matrix(60.023178, 0, 0, -59.957891, 337, 222.5)"/>
<path fill="none" stroke-width="0.04" stroke-linecap="butt" stroke-linejoin="miter" stroke="rgb(60.392157%, 44.705882%, 67.45098%)" stroke-opacity="1" stroke-miterlimit="10" d="M -1.617149 1.247425 C -1.654374 1.21941 -1.691664 1.191331 -1.728954 1.163316 " transform="matrix(60.023178, 0, 0, -59.957891, 337, 222.5)"/>
<path fill="none" stroke-width="0.04" stroke-linecap="butt" stroke-linejoin="miter" stroke="rgb(60.392157%, 44.705882%, 67.45098%)" stroke-opacity="1" stroke-miterlimit="10" d="M -1.845641 1.07556 C -1.882866 1.047545 -1.920157 1.019531 -1.957447 0.991516 " transform="matrix(60.023178, 0, 0, -59.957891, 337, 222.5)"/>
<path fill="none" stroke-width="0.04" stroke-linecap="butt" stroke-linejoin="miter" stroke="rgb(60.392157%, 44.705882%, 67.45098%)" stroke-opacity="1" stroke-miterlimit="10" d="M -2.074134 0.903759 C -2.111424 0.875745 -2.148649 0.84773 -2.185939 0.819651 " transform="matrix(60.023178, 0, 0, -59.957891, 337, 222.5)"/>
<path fill="none" stroke-width="0.04" stroke-linecap="butt" stroke-linejoin="miter" stroke="rgb(60.392157%, 44.705882%, 67.45098%)" stroke-opacity="1" stroke-miterlimit="10" d="M -2.302626 0.731959 C -2.339916 0.703879 -2.377207 0.675865 -2.414432 0.647851 " transform="matrix(60.023178, 0, 0, -59.957891, 337, 222.5)"/>
<path fill="none" stroke-width="0.04" stroke-linecap="butt" stroke-linejoin="miter" stroke="rgb(60.392157%, 44.705882%, 67.45098%)" stroke-opacity="1" stroke-miterlimit="10" d="M -2.531119 0.560094 C -2.568409 0.532079 -2.605699 0.504065 -2.642924 0.47605 " transform="matrix(60.023178, 0, 0, -59.957891, 337, 222.5)"/>
<path fill="none" stroke-width="0.04" stroke-linecap="butt" stroke-linejoin="miter" stroke="rgb(60.392157%, 44.705882%, 67.45098%)" stroke-opacity="1" stroke-miterlimit="10" d="M -2.759611 0.388293 C -2.796901 0.360279 -2.834192 0.332199 -2.871482 0.304185 " transform="matrix(60.023178, 0, 0, -59.957891, 337, 222.5)"/>
<path fill="none" stroke-width="0.04" stroke-linecap="butt" stroke-linejoin="miter" stroke="rgb(60.392157%, 44.705882%, 67.45098%)" stroke-opacity="1" stroke-miterlimit="10" d="M -2.988169 0.216428 C -3.025394 0.188413 -3.062684 0.160399 -3.099974 0.132385 " transform="matrix(60.023178, 0, 0, -59.957891, 337, 222.5)"/>
<path fill="none" stroke-width="0.04" stroke-linecap="butt" stroke-linejoin="miter" stroke="rgb(60.392157%, 44.705882%, 67.45098%)" stroke-opacity="1" stroke-miterlimit="10" d="M -3.216661 0.0446277 C -3.253886 0.0166132 -3.291177 -0.0114012 -3.328467 -0.0394808 " transform="matrix(60.023178, 0, 0, -59.957891, 337, 222.5)"/>
<path fill="none" stroke-width="0.04" stroke-linecap="butt" stroke-linejoin="miter" stroke="rgb(60.392157%, 44.705882%, 67.45098%)" stroke-opacity="1" stroke-miterlimit="10" d="M -3.445154 -0.127173 C -3.482444 -0.155252 -3.519669 -0.183267 -3.556959 -0.211281 " transform="matrix(60.023178, 0, 0, -59.957891, 337, 222.5)"/>
<path fill="none" stroke-width="0.04" stroke-linecap="butt" stroke-linejoin="miter" stroke="rgb(60.392157%, 44.705882%, 67.45098%)" stroke-opacity="1" stroke-miterlimit="10" d="M -3.673646 -0.299038 C -3.710936 -0.327052 -3.748227 -0.355067 -3.785452 -0.383081 " transform="matrix(60.023178, 0, 0, -59.957891, 337, 222.5)"/>
<path fill="none" stroke-width="0.04" stroke-linecap="butt" stroke-linejoin="miter" stroke="rgb(60.392157%, 44.705882%, 67.45098%)" stroke-opacity="1" stroke-miterlimit="10" d="M -3.902138 -0.470838 C -3.939429 -0.498853 -3.976719 -0.526932 -4.013944 -0.554947 " transform="matrix(60.023178, 0, 0, -59.957891, 337, 222.5)"/>
<path fill="none" stroke-width="0.04" stroke-linecap="butt" stroke-linejoin="miter" stroke="rgb(60.392157%, 44.705882%, 67.45098%)" stroke-opacity="1" stroke-miterlimit="10" d="M -4.130631 -0.642704 C -4.167921 -0.670718 -4.205211 -0.698733 -4.242502 -0.726747 " transform="matrix(60.023178, 0, 0, -59.957891, 337, 222.5)"/>
<path fill="none" stroke-width="0.04" stroke-linecap="butt" stroke-linejoin="miter" stroke="rgb(60.392157%, 44.705882%, 67.45098%)" stroke-opacity="1" stroke-miterlimit="10" d="M -4.359188 -0.814504 C -4.396414 -0.842518 -4.433704 -0.870533 -4.470994 -0.898612 " transform="matrix(60.023178, 0, 0, -59.957891, 337, 222.5)"/>
<path fill="none" stroke-width="0.04" stroke-linecap="butt" stroke-linejoin="miter" stroke="rgb(60.392157%, 44.705882%, 67.45098%)" stroke-opacity="1" stroke-miterlimit="10" d="M -4.587681 -0.986304 C -4.624906 -1.014384 -4.662196 -1.042398 -4.699487 -1.070413 " transform="matrix(60.023178, 0, 0, -59.957891, 337, 222.5)"/>
<path fill="none" stroke-width="0.04" stroke-linecap="butt" stroke-linejoin="miter" stroke="rgb(60.392157%, 44.705882%, 67.45098%)" stroke-opacity="1" stroke-miterlimit="10" d="M -4.816173 -1.15817 C -4.853464 -1.186184 -4.890689 -1.214199 -4.927979 -1.242213 " transform="matrix(60.023178, 0, 0, -59.957891, 337, 222.5)"/>
<path fill="none" stroke-width="0.04" stroke-linecap="butt" stroke-linejoin="miter" stroke="rgb(60.392157%, 44.705882%, 67.45098%)" stroke-opacity="1" stroke-miterlimit="10" d="M -5.044666 -1.32997 C -5.081956 -1.357984 -5.119181 -1.386064 -5.156472 -1.414078 " transform="matrix(60.023178, 0, 0, -59.957891, 337, 222.5)"/>
<path fill="none" stroke-width="0.04" stroke-linecap="butt" stroke-linejoin="miter" stroke="rgb(60.392157%, 44.705882%, 67.45098%)" stroke-opacity="1" stroke-miterlimit="10" d="M 0.112001 -3.468254 C 0.112977 -3.408577 0.113953 -3.348835 0.11493 -3.289157 " transform="matrix(60.023178, 0, 0, -59.957891, 337, 222.5)"/>
<path fill="none" stroke-width="0.04" stroke-linecap="butt" stroke-linejoin="miter" stroke="rgb(60.392157%, 44.705882%, 67.45098%)" stroke-opacity="1" stroke-miterlimit="10" d="M 0.117988 -3.098855 C 0.118964 -3.039112 0.119941 -2.979435 0.120917 -2.919692 " transform="matrix(60.023178, 0, 0, -59.957891, 337, 222.5)"/>
<path fill="none" stroke-width="0.04" stroke-linecap="butt" stroke-linejoin="miter" stroke="rgb(60.392157%, 44.705882%, 67.45098%)" stroke-opacity="1" stroke-miterlimit="10" d="M 0.123976 -2.72939 C 0.124952 -2.669647 0.125928 -2.60997 0.126904 -2.550227 " transform="matrix(60.023178, 0, 0, -59.957891, 337, 222.5)"/>
<path fill="none" stroke-width="0.04" stroke-linecap="butt" stroke-linejoin="miter" stroke="rgb(60.392157%, 44.705882%, 67.45098%)" stroke-opacity="1" stroke-miterlimit="10" d="M 0.130028 -2.359924 C 0.131004 -2.300247 0.131915 -2.240505 0.132891 -2.180827 " transform="matrix(60.023178, 0, 0, -59.957891, 337, 222.5)"/>
<path fill="none" stroke-width="0.04" stroke-linecap="butt" stroke-linejoin="miter" stroke="rgb(60.392157%, 44.705882%, 67.45098%)" stroke-opacity="1" stroke-miterlimit="10" d="M 0.136015 -1.990459 C 0.136991 -1.930782 0.137968 -1.87104 0.138944 -1.811362 " transform="matrix(60.023178, 0, 0, -59.957891, 337, 222.5)"/>
<path fill="none" stroke-width="0.04" stroke-linecap="butt" stroke-linejoin="miter" stroke="rgb(60.392157%, 44.705882%, 67.45098%)" stroke-opacity="1" stroke-miterlimit="10" d="M 0.142002 -1.62106 C 0.142979 -1.561317 0.143955 -1.50164 0.144931 -1.441897 " transform="matrix(60.023178, 0, 0, -59.957891, 337, 222.5)"/>
<path fill="none" stroke-width="0.04" stroke-linecap="butt" stroke-linejoin="miter" stroke="rgb(60.392157%, 44.705882%, 67.45098%)" stroke-opacity="1" stroke-miterlimit="10" d="M 0.14799 -1.251595 C 0.148966 -1.191852 0.149942 -1.132175 0.150918 -1.072497 " transform="matrix(60.023178, 0, 0, -59.957891, 337, 222.5)"/>
<path fill="none" stroke-width="0.04" stroke-linecap="butt" stroke-linejoin="miter" stroke="rgb(60.392157%, 44.705882%, 67.45098%)" stroke-opacity="1" stroke-miterlimit="10" d="M 0.153977 -0.88213 C 0.154953 -0.822452 0.155929 -0.76271 0.156906 -0.703032 " transform="matrix(60.023178, 0, 0, -59.957891, 337, 222.5)"/>
<path fill="none" stroke-width="0.04" stroke-linecap="butt" stroke-linejoin="miter" stroke="rgb(60.392157%, 44.705882%, 67.45098%)" stroke-opacity="1" stroke-miterlimit="10" d="M 0.160029 -0.512664 C 0.16094 -0.452987 0.161917 -0.39331 0.162893 -0.333567 " transform="matrix(60.023178, 0, 0, -59.957891, 337, 222.5)"/>
<path fill="none" stroke-width="0.04" stroke-linecap="butt" stroke-linejoin="miter" stroke="rgb(60.392157%, 44.705882%, 67.45098%)" stroke-opacity="1" stroke-miterlimit="10" d="M 0.166017 -0.143265 C 0.166993 -0.0835222 0.167969 -0.0238449 0.16888 0.0358976 " transform="matrix(60.023178, 0, 0, -59.957891, 337, 222.5)"/>
<path fill="none" stroke-width="0.04" stroke-linecap="butt" stroke-linejoin="miter" stroke="rgb(60.392157%, 44.705882%, 67.45098%)" stroke-opacity="1" stroke-miterlimit="10" d="M 0.172004 0.2262 C 0.17298 0.285878 0.173956 0.34562 0.174932 0.405297 " transform="matrix(60.023178, 0, 0, -59.957891, 337, 222.5)"/>
<path fill="none" stroke-width="0.04" stroke-linecap="butt" stroke-linejoin="miter" stroke="rgb(60.392157%, 44.705882%, 67.45098%)" stroke-opacity="1" stroke-miterlimit="10" d="M 0.177991 0.595665 C 0.178967 0.655343 0.179944 0.715085 0.18092 0.774762 " transform="matrix(60.023178, 0, 0, -59.957891, 337, 222.5)"/>
<path fill="none" stroke-width="0.04" stroke-linecap="butt" stroke-linejoin="miter" stroke="rgb(60.392157%, 44.705882%, 67.45098%)" stroke-opacity="1" stroke-miterlimit="10" d="M 0.183978 0.965065 C 0.184955 1.024808 0.185931 1.084485 0.186907 1.144228 " transform="matrix(60.023178, 0, 0, -59.957891, 337, 222.5)"/>
<path fill="none" stroke-width="0.04" stroke-linecap="butt" stroke-linejoin="miter" stroke="rgb(60.392157%, 44.705882%, 67.45098%)" stroke-opacity="1" stroke-miterlimit="10" d="M 0.189966 1.33453 C 0.190942 1.394273 0.191918 1.45395 0.192894 1.513693 " transform="matrix(60.023178, 0, 0, -59.957891, 337, 222.5)"/>
<path fill="none" stroke-width="0.04" stroke-linecap="butt" stroke-linejoin="miter" stroke="rgb(60.392157%, 44.705882%, 67.45098%)" stroke-opacity="1" stroke-miterlimit="10" d="M 0.196018 1.703995 C 0.196994 1.763673 0.197905 1.823415 0.198882 1.883092 " transform="matrix(60.023178, 0, 0, -59.957891, 337, 222.5)"/>
<path fill="none" stroke-width="0.04" stroke-linecap="butt" stroke-linejoin="miter" stroke="rgb(60.392157%, 44.705882%, 67.45098%)" stroke-opacity="1" stroke-miterlimit="10" d="M 0.202005 2.07346 C 0.202981 2.133138 0.203958 2.19288 0.204869 2.252557 " transform="matrix(60.023178, 0, 0, -59.957891, 337, 222.5)"/>
<path fill="none" stroke-width="0.04" stroke-linecap="butt" stroke-linejoin="miter" stroke="rgb(60.392157%, 44.705882%, 67.45098%)" stroke-opacity="1" stroke-miterlimit="10" d="M 0.207993 2.44286 C 0.208969 2.502603 0.209945 2.56228 0.210921 2.622022 " transform="matrix(60.023178, 0, 0, -59.957891, 337, 222.5)"/>
<path fill-rule="nonzero" fill="rgb(60.392157%, 44.705882%, 67.45098%)" fill-opacity="1" d="M 30.492188 307.285156 C 30.492188 306.488281 30.175781 305.726562 29.613281 305.164062 C 29.050781 304.601562 28.289062 304.285156 27.492188 304.285156 C 26.695312 304.285156 25.933594 304.601562 25.371094 305.164062 C 24.804688 305.726562 24.488281 306.488281 24.488281 307.285156 C 24.488281 308.078125 24.804688 308.84375 25.371094 309.402344 C 25.933594 309.964844 26.695312 310.28125 27.492188 310.28125 C 28.289062 310.28125 29.050781 309.964844 29.613281 309.402344 C 30.175781 308.84375 30.492188 308.078125 30.492188 307.285156 Z M 30.492188 307.285156 "/>
<path fill-rule="nonzero" fill="rgb(60.392157%, 44.705882%, 67.45098%)" fill-opacity="1" d="M 346.722656 430.449219 C 346.722656 429.65625 346.40625 428.894531 345.84375 428.332031 C 345.28125 427.769531 344.519531 427.453125 343.722656 427.453125 C 342.925781 427.453125 342.164062 427.769531 341.601562 428.332031 C 341.039062 428.894531 340.722656 429.65625 340.722656 430.449219 C 340.722656 431.246094 341.039062 432.007812 341.601562 432.570312 C 342.164062 433.132812 342.925781 433.449219 343.722656 433.449219 C 344.519531 433.449219 345.28125 433.132812 345.84375 432.570312 C 346.40625 432.007812 346.722656 431.246094 346.722656 430.449219 Z M 346.722656 430.449219 "/>
<path fill-rule="nonzero" fill="rgb(60.392157%, 44.705882%, 67.45098%)" fill-opacity="1" d="M 672.5 307.285156 C 672.5 306.488281 672.183594 305.726562 671.621094 305.164062 C 671.058594 304.601562 670.292969 304.285156 669.5 304.285156 C 668.703125 304.285156 667.9375 304.601562 667.375 305.164062 C 666.8125 305.726562 666.496094 306.488281 666.496094 307.285156 C 666.496094 308.078125 666.8125 308.84375 667.375 309.402344 C 667.9375 309.964844 668.703125 310.28125 669.5 310.28125 C 670.292969 310.28125 671.058594 309.964844 671.621094 309.402344 C 672.183594 308.84375 672.5 308.078125 672.5 307.285156 Z M 672.5 307.285156 "/>
<path fill-rule="nonzero" fill="rgb(60.392157%, 44.705882%, 67.45098%)" fill-opacity="1" d="M 352.660156 65.289062 C 352.660156 64.496094 352.34375 63.730469 351.78125 63.167969 C 351.21875 62.609375 350.453125 62.292969 349.660156 62.292969 C 348.863281 62.292969 348.097656 62.609375 347.535156 63.167969 C 346.972656 63.730469 346.65625 64.496094 346.65625 65.289062 C 346.65625 66.085938 346.972656 66.847656 347.535156 67.410156 C 348.097656 67.972656 348.863281 68.289062 349.660156 68.289062 C 350.453125 68.289062 351.21875 67.972656 351.78125 67.410156 C 352.34375 66.847656 352.660156 66.085938 352.660156 65.289062 Z M 352.660156 65.289062 "/>
<path fill="none" stroke-width="0.04" stroke-linecap="butt" stroke-linejoin="miter" stroke="rgb(51.372549%, 75.686275%, 40.392157%)" stroke-opacity="1" stroke-miterlimit="10" d="M -5.156472 -1.414078 C -5.104278 -1.435838 -5.05215 -1.457598 -4.999957 -1.479424 " transform="matrix(60.023178, 0, 0, -59.957891, 337, 222.5)"/>
<path fill="none" stroke-width="0.04" stroke-linecap="butt" stroke-linejoin="miter" stroke="rgb(51.372549%, 75.686275%, 40.392157%)" stroke-opacity="1" stroke-miterlimit="10" d="M -4.833615 -1.548873 C -4.781421 -1.570634 -4.729228 -1.592394 -4.677034 -1.614219 " transform="matrix(60.023178, 0, 0, -59.957891, 337, 222.5)"/>
<path fill="none" stroke-width="0.04" stroke-linecap="butt" stroke-linejoin="miter" stroke="rgb(51.372549%, 75.686275%, 40.392157%)" stroke-opacity="1" stroke-miterlimit="10" d="M -4.510757 -1.683603 C -4.458564 -1.705429 -4.406371 -1.727189 -4.354177 -1.748949 " transform="matrix(60.023178, 0, 0, -59.957891, 337, 222.5)"/>
<path fill="none" stroke-width="0.04" stroke-linecap="butt" stroke-linejoin="miter" stroke="rgb(51.372549%, 75.686275%, 40.392157%)" stroke-opacity="1" stroke-miterlimit="10" d="M -4.187835 -1.818399 C -4.135707 -1.840224 -4.083514 -1.861984 -4.03132 -1.883744 " transform="matrix(60.023178, 0, 0, -59.957891, 337, 222.5)"/>
<path fill="none" stroke-width="0.04" stroke-linecap="butt" stroke-linejoin="miter" stroke="rgb(51.372549%, 75.686275%, 40.392157%)" stroke-opacity="1" stroke-miterlimit="10" d="M -3.864978 -1.953194 C -3.812785 -1.974954 -3.760592 -1.996779 -3.708463 -2.018539 " transform="matrix(60.023178, 0, 0, -59.957891, 337, 222.5)"/>
<path fill="none" stroke-width="0.04" stroke-linecap="butt" stroke-linejoin="miter" stroke="rgb(51.372549%, 75.686275%, 40.392157%)" stroke-opacity="1" stroke-miterlimit="10" d="M -3.542121 -2.087989 C -3.489928 -2.109749 -3.437734 -2.131574 -3.385541 -2.153334 " transform="matrix(60.023178, 0, 0, -59.957891, 337, 222.5)"/>
<path fill="none" stroke-width="0.04" stroke-linecap="butt" stroke-linejoin="miter" stroke="rgb(51.372549%, 75.686275%, 40.392157%)" stroke-opacity="1" stroke-miterlimit="10" d="M -3.219264 -2.222784 C -3.167071 -2.244544 -3.114877 -2.266304 -3.062684 -2.288129 " transform="matrix(60.023178, 0, 0, -59.957891, 337, 222.5)"/>
<path fill="none" stroke-width="0.04" stroke-linecap="butt" stroke-linejoin="miter" stroke="rgb(51.372549%, 75.686275%, 40.392157%)" stroke-opacity="1" stroke-miterlimit="10" d="M -2.896342 -2.357514 C -2.844149 -2.379339 -2.79202 -2.401099 -2.739827 -2.422859 " transform="matrix(60.023178, 0, 0, -59.957891, 337, 222.5)"/>
<path fill="none" stroke-width="0.04" stroke-linecap="butt" stroke-linejoin="miter" stroke="rgb(51.372549%, 75.686275%, 40.392157%)" stroke-opacity="1" stroke-miterlimit="10" d="M -2.573485 -2.492309 C -2.521292 -2.514134 -2.469098 -2.535894 -2.41697 -2.557654 " transform="matrix(60.023178, 0, 0, -59.957891, 337, 222.5)"/>
<path fill="none" stroke-width="0.04" stroke-linecap="butt" stroke-linejoin="miter" stroke="rgb(51.372549%, 75.686275%, 40.392157%)" stroke-opacity="1" stroke-miterlimit="10" d="M -2.250628 -2.627104 C -2.198435 -2.648864 -2.146241 -2.670689 -2.094048 -2.69245 " transform="matrix(60.023178, 0, 0, -59.957891, 337, 222.5)"/>
<path fill="none" stroke-width="0.04" stroke-linecap="butt" stroke-linejoin="miter" stroke="rgb(51.372549%, 75.686275%, 40.392157%)" stroke-opacity="1" stroke-miterlimit="10" d="M -1.927706 -2.761899 C -1.875578 -2.783659 -1.823384 -2.805485 -1.771191 -2.827245 " transform="matrix(60.023178, 0, 0, -59.957891, 337, 222.5)"/>
<path fill="none" stroke-width="0.04" stroke-linecap="butt" stroke-linejoin="miter" stroke="rgb(51.372549%, 75.686275%, 40.392157%)" stroke-opacity="1" stroke-miterlimit="10" d="M -1.604849 -2.896694 C -1.552655 -2.918454 -1.500527 -2.940215 -1.448334 -2.96204 " transform="matrix(60.023178, 0, 0, -59.957891, 337, 222.5)"/>
<path fill="none" stroke-width="0.04" stroke-linecap="butt" stroke-linejoin="miter" stroke="rgb(51.372549%, 75.686275%, 40.392157%)" stroke-opacity="1" stroke-miterlimit="10" d="M -1.281992 -3.031424 C -1.229798 -3.05325 -1.177605 -3.07501 -1.125412 -3.096835 " transform="matrix(60.023178, 0, 0, -59.957891, 337, 222.5)"/>
<path fill="none" stroke-width="0.04" stroke-linecap="butt" stroke-linejoin="miter" stroke="rgb(51.372549%, 75.686275%, 40.392157%)" stroke-opacity="1" stroke-miterlimit="10" d="M -0.959135 -3.16622 C -0.906941 -3.188045 -0.854748 -3.209805 -0.802555 -3.231565 " transform="matrix(60.023178, 0, 0, -59.957891, 337, 222.5)"/>
<path fill="none" stroke-width="0.04" stroke-linecap="butt" stroke-linejoin="miter" stroke="rgb(51.372549%, 75.686275%, 40.392157%)" stroke-opacity="1" stroke-miterlimit="10" d="M -0.636213 -3.301015 C -0.584084 -3.322775 -0.531891 -3.3446 -0.479698 -3.36636 " transform="matrix(60.023178, 0, 0, -59.957891, 337, 222.5)"/>
<path fill="none" stroke-width="0.04" stroke-linecap="butt" stroke-linejoin="miter" stroke="rgb(51.372549%, 75.686275%, 40.392157%)" stroke-opacity="1" stroke-miterlimit="10" d="M -0.313356 -3.43581 C -0.261162 -3.45757 -0.208969 -3.479395 -0.15684 -3.501155 " transform="matrix(60.023178, 0, 0, -59.957891, 337, 222.5)"/>
<path fill="none" stroke-width="0.04" stroke-linecap="butt" stroke-linejoin="miter" stroke="rgb(51.372549%, 75.686275%, 40.392157%)" stroke-opacity="1" stroke-miterlimit="10" d="M 0.00950154 -3.570605 C 0.0616949 -3.592365 0.113888 -3.614125 0.166082 -3.63595 " transform="matrix(60.023178, 0, 0, -59.957891, 337, 222.5)"/>
<path fill="none" stroke-width="0.04" stroke-linecap="butt" stroke-linejoin="miter" stroke="rgb(51.372549%, 75.686275%, 40.392157%)" stroke-opacity="1" stroke-miterlimit="10" d="M 0.166082 -3.63595 C 0.21808 -3.614125 0.270143 -3.592365 0.322206 -3.570605 " transform="matrix(60.023178, 0, 0, -59.957891, 337, 222.5)"/>
<path fill="none" stroke-width="0.04" stroke-linecap="butt" stroke-linejoin="miter" stroke="rgb(51.372549%, 75.686275%, 40.392157%)" stroke-opacity="1" stroke-miterlimit="10" d="M 0.488158 -3.501155 C 0.540221 -3.479395 0.592219 -3.45757 0.644282 -3.43581 " transform="matrix(60.023178, 0, 0, -59.957891, 337, 222.5)"/>
<path fill="none" stroke-width="0.04" stroke-linecap="butt" stroke-linejoin="miter" stroke="rgb(51.372549%, 75.686275%, 40.392157%)" stroke-opacity="1" stroke-miterlimit="10" d="M 0.810234 -3.36636 C 0.862297 -3.3446 0.914295 -3.322775 0.966358 -3.301015 " transform="matrix(60.023178, 0, 0, -59.957891, 337, 222.5)"/>
<path fill="none" stroke-width="0.04" stroke-linecap="butt" stroke-linejoin="miter" stroke="rgb(51.372549%, 75.686275%, 40.392157%)" stroke-opacity="1" stroke-miterlimit="10" d="M 1.13231 -3.231565 C 1.184373 -3.209805 1.236436 -3.188045 1.288435 -3.16622 " transform="matrix(60.023178, 0, 0, -59.957891, 337, 222.5)"/>
<path fill="none" stroke-width="0.04" stroke-linecap="butt" stroke-linejoin="miter" stroke="rgb(51.372549%, 75.686275%, 40.392157%)" stroke-opacity="1" stroke-miterlimit="10" d="M 1.454386 -3.096835 C 1.506449 -3.07501 1.558513 -3.05325 1.610576 -3.031424 " transform="matrix(60.023178, 0, 0, -59.957891, 337, 222.5)"/>
<path fill="none" stroke-width="0.04" stroke-linecap="butt" stroke-linejoin="miter" stroke="rgb(51.372549%, 75.686275%, 40.392157%)" stroke-opacity="1" stroke-miterlimit="10" d="M 1.776462 -2.96204 C 1.828525 -2.940215 1.880589 -2.918454 1.932652 -2.896694 " transform="matrix(60.023178, 0, 0, -59.957891, 337, 222.5)"/>
<path fill="none" stroke-width="0.04" stroke-linecap="butt" stroke-linejoin="miter" stroke="rgb(51.372549%, 75.686275%, 40.392157%)" stroke-opacity="1" stroke-miterlimit="10" d="M 2.098538 -2.827245 C 2.150602 -2.805485 2.202665 -2.783659 2.254728 -2.761899 " transform="matrix(60.023178, 0, 0, -59.957891, 337, 222.5)"/>
<path fill="none" stroke-width="0.04" stroke-linecap="butt" stroke-linejoin="miter" stroke="rgb(51.372549%, 75.686275%, 40.392157%)" stroke-opacity="1" stroke-miterlimit="10" d="M 2.420614 -2.69245 C 2.472678 -2.670689 2.524741 -2.648864 2.576804 -2.627104 " transform="matrix(60.023178, 0, 0, -59.957891, 337, 222.5)"/>
<path fill="none" stroke-width="0.04" stroke-linecap="butt" stroke-linejoin="miter" stroke="rgb(51.372549%, 75.686275%, 40.392157%)" stroke-opacity="1" stroke-miterlimit="10" d="M 2.74269 -2.557654 C 2.794754 -2.535894 2.846817 -2.514134 2.89888 -2.492309 " transform="matrix(60.023178, 0, 0, -59.957891, 337, 222.5)"/>
<path fill="none" stroke-width="0.04" stroke-linecap="butt" stroke-linejoin="miter" stroke="rgb(51.372549%, 75.686275%, 40.392157%)" stroke-opacity="1" stroke-miterlimit="10" d="M 3.064767 -2.422859 C 3.11683 -2.401099 3.168893 -2.379339 3.220956 -2.357514 " transform="matrix(60.023178, 0, 0, -59.957891, 337, 222.5)"/>
<path fill="none" stroke-width="0.04" stroke-linecap="butt" stroke-linejoin="miter" stroke="rgb(51.372549%, 75.686275%, 40.392157%)" stroke-opacity="1" stroke-miterlimit="10" d="M 3.386908 -2.288129 C 3.438906 -2.266304 3.490969 -2.244544 3.543032 -2.222784 " transform="matrix(60.023178, 0, 0, -59.957891, 337, 222.5)"/>
<path fill="none" stroke-width="0.04" stroke-linecap="butt" stroke-linejoin="miter" stroke="rgb(51.372549%, 75.686275%, 40.392157%)" stroke-opacity="1" stroke-miterlimit="10" d="M 3.708984 -2.153334 C 3.760982 -2.131574 3.813045 -2.109749 3.865108 -2.087989 " transform="matrix(60.023178, 0, 0, -59.957891, 337, 222.5)"/>
<path fill="none" stroke-width="0.04" stroke-linecap="butt" stroke-linejoin="miter" stroke="rgb(51.372549%, 75.686275%, 40.392157%)" stroke-opacity="1" stroke-miterlimit="10" d="M 4.03106 -2.018539 C 4.083123 -1.996779 4.135121 -1.974954 4.187185 -1.953194 " transform="matrix(60.023178, 0, 0, -59.957891, 337, 222.5)"/>
<path fill="none" stroke-width="0.04" stroke-linecap="butt" stroke-linejoin="miter" stroke="rgb(51.372549%, 75.686275%, 40.392157%)" stroke-opacity="1" stroke-miterlimit="10" d="M 4.353136 -1.883744 C 4.405199 -1.861984 4.457263 -1.840224 4.509261 -1.818399 " transform="matrix(60.023178, 0, 0, -59.957891, 337, 222.5)"/>
<path fill="none" stroke-width="0.04" stroke-linecap="butt" stroke-linejoin="miter" stroke="rgb(51.372549%, 75.686275%, 40.392157%)" stroke-opacity="1" stroke-miterlimit="10" d="M 4.675212 -1.748949 C 4.727275 -1.727189 4.779339 -1.705429 4.831337 -1.683603 " transform="matrix(60.023178, 0, 0, -59.957891, 337, 222.5)"/>
<path fill="none" stroke-width="0.04" stroke-linecap="butt" stroke-linejoin="miter" stroke="rgb(51.372549%, 75.686275%, 40.392157%)" stroke-opacity="1" stroke-miterlimit="10" d="M 4.997288 -1.614219 C 5.049352 -1.592394 5.101415 -1.570634 5.153478 -1.548873 " transform="matrix(60.023178, 0, 0, -59.957891, 337, 222.5)"/>
<path fill="none" stroke-width="0.04" stroke-linecap="butt" stroke-linejoin="miter" stroke="rgb(51.372549%, 75.686275%, 40.392157%)" stroke-opacity="1" stroke-miterlimit="10" d="M 5.319364 -1.479424 C 5.371428 -1.457598 5.423491 -1.435838 5.475554 -1.414078 " transform="matrix(60.023178, 0, 0, -59.957891, 337, 222.5)"/>
<path fill="none" stroke-width="0.04" stroke-linecap="butt" stroke-linejoin="miter" stroke="rgb(51.372549%, 75.686275%, 40.392157%)" stroke-opacity="1" stroke-miterlimit="10" d="M 5.475554 -1.414078 C 5.43937 -1.386976 5.403121 -1.359939 5.366937 -1.332836 " transform="matrix(60.023178, 0, 0, -59.957891, 337, 222.5)"/>
<path fill="none" stroke-width="0.04" stroke-linecap="butt" stroke-linejoin="miter" stroke="rgb(51.372549%, 75.686275%, 40.392157%)" stroke-opacity="1" stroke-miterlimit="10" d="M 5.2537 -1.248076 C 5.217516 -1.220974 5.181332 -1.193937 5.145083 -1.166835 " transform="matrix(60.023178, 0, 0, -59.957891, 337, 222.5)"/>
<path fill="none" stroke-width="0.04" stroke-linecap="butt" stroke-linejoin="miter" stroke="rgb(51.372549%, 75.686275%, 40.392157%)" stroke-opacity="1" stroke-miterlimit="10" d="M 5.031845 -1.082075 C 4.995661 -1.054972 4.959477 -1.027935 4.923293 -1.000833 " transform="matrix(60.023178, 0, 0, -59.957891, 337, 222.5)"/>
<path fill="none" stroke-width="0.04" stroke-linecap="butt" stroke-linejoin="miter" stroke="rgb(51.372549%, 75.686275%, 40.392157%)" stroke-opacity="1" stroke-miterlimit="10" d="M 4.809991 -0.916073 C 4.773807 -0.88897 4.737623 -0.861933 4.701439 -0.834831 " transform="matrix(60.023178, 0, 0, -59.957891, 337, 222.5)"/>
<path fill="none" stroke-width="0.04" stroke-linecap="butt" stroke-linejoin="miter" stroke="rgb(51.372549%, 75.686275%, 40.392157%)" stroke-opacity="1" stroke-miterlimit="10" d="M 4.588136 -0.750071 C 4.551953 -0.722968 4.515769 -0.695931 4.479585 -0.668829 " transform="matrix(60.023178, 0, 0, -59.957891, 337, 222.5)"/>
<path fill="none" stroke-width="0.04" stroke-linecap="butt" stroke-linejoin="miter" stroke="rgb(51.372549%, 75.686275%, 40.392157%)" stroke-opacity="1" stroke-miterlimit="10" d="M 4.366282 -0.584069 C 4.330098 -0.556966 4.293914 -0.529929 4.25773 -0.502827 " transform="matrix(60.023178, 0, 0, -59.957891, 337, 222.5)"/>
<path fill="none" stroke-width="0.04" stroke-linecap="butt" stroke-linejoin="miter" stroke="rgb(51.372549%, 75.686275%, 40.392157%)" stroke-opacity="1" stroke-miterlimit="10" d="M 4.144428 -0.418067 C 4.108244 -0.390964 4.07206 -0.363927 4.035876 -0.336825 " transform="matrix(60.023178, 0, 0, -59.957891, 337, 222.5)"/>
<path fill="none" stroke-width="0.04" stroke-linecap="butt" stroke-linejoin="miter" stroke="rgb(51.372549%, 75.686275%, 40.392157%)" stroke-opacity="1" stroke-miterlimit="10" d="M 3.922573 -0.252065 C 3.886389 -0.224963 3.850205 -0.197925 3.814021 -0.170823 " transform="matrix(60.023178, 0, 0, -59.957891, 337, 222.5)"/>
<path fill="none" stroke-width="0.04" stroke-linecap="butt" stroke-linejoin="miter" stroke="rgb(51.372549%, 75.686275%, 40.392157%)" stroke-opacity="1" stroke-miterlimit="10" d="M 3.700719 -0.086063 C 3.664535 -0.0589607 3.628351 -0.0319234 3.592167 -0.00482109 " transform="matrix(60.023178, 0, 0, -59.957891, 337, 222.5)"/>
<path fill="none" stroke-width="0.04" stroke-linecap="butt" stroke-linejoin="miter" stroke="rgb(51.372549%, 75.686275%, 40.392157%)" stroke-opacity="1" stroke-miterlimit="10" d="M 3.478864 0.0799389 C 3.442681 0.107041 3.406497 0.134078 3.370313 0.161181 " transform="matrix(60.023178, 0, 0, -59.957891, 337, 222.5)"/>
<path fill="none" stroke-width="0.04" stroke-linecap="butt" stroke-linejoin="miter" stroke="rgb(51.372549%, 75.686275%, 40.392157%)" stroke-opacity="1" stroke-miterlimit="10" d="M 3.25701 0.245941 C 3.220826 0.273043 3.184642 0.30008 3.148458 0.327183 " transform="matrix(60.023178, 0, 0, -59.957891, 337, 222.5)"/>
<path fill="none" stroke-width="0.04" stroke-linecap="butt" stroke-linejoin="miter" stroke="rgb(51.372549%, 75.686275%, 40.392157%)" stroke-opacity="1" stroke-miterlimit="10" d="M 3.035156 0.411943 C 2.998972 0.439045 2.962788 0.466082 2.926604 0.493185 " transform="matrix(60.023178, 0, 0, -59.957891, 337, 222.5)"/>
<path fill="none" stroke-width="0.04" stroke-linecap="butt" stroke-linejoin="miter" stroke="rgb(51.372549%, 75.686275%, 40.392157%)" stroke-opacity="1" stroke-miterlimit="10" d="M 2.813301 0.577945 C 2.777117 0.604982 2.740933 0.632084 2.704749 0.659187 " transform="matrix(60.023178, 0, 0, -59.957891, 337, 222.5)"/>
<path fill="none" stroke-width="0.04" stroke-linecap="butt" stroke-linejoin="miter" stroke="rgb(51.372549%, 75.686275%, 40.392157%)" stroke-opacity="1" stroke-miterlimit="10" d="M 2.591447 0.743947 C 2.555263 0.770984 2.519079 0.798086 2.482895 0.825189 " transform="matrix(60.023178, 0, 0, -59.957891, 337, 222.5)"/>
<path fill="none" stroke-width="0.04" stroke-linecap="butt" stroke-linejoin="miter" stroke="rgb(51.372549%, 75.686275%, 40.392157%)" stroke-opacity="1" stroke-miterlimit="10" d="M 2.369658 0.909949 C 2.333408 0.936986 2.297225 0.964088 2.261041 0.99119 " transform="matrix(60.023178, 0, 0, -59.957891, 337, 222.5)"/>
<path fill="none" stroke-width="0.04" stroke-linecap="butt" stroke-linejoin="miter" stroke="rgb(51.372549%, 75.686275%, 40.392157%)" stroke-opacity="1" stroke-miterlimit="10" d="M 2.147803 1.07595 C 2.111619 1.102988 2.07537 1.13009 2.039186 1.157192 " transform="matrix(60.023178, 0, 0, -59.957891, 337, 222.5)"/>
<path fill="none" stroke-width="0.04" stroke-linecap="butt" stroke-linejoin="miter" stroke="rgb(51.372549%, 75.686275%, 40.392157%)" stroke-opacity="1" stroke-miterlimit="10" d="M 1.925949 1.241952 C 1.889765 1.26899 1.853581 1.296092 1.817332 1.323194 " transform="matrix(60.023178, 0, 0, -59.957891, 337, 222.5)"/>
<path fill="none" stroke-width="0.04" stroke-linecap="butt" stroke-linejoin="miter" stroke="rgb(51.372549%, 75.686275%, 40.392157%)" stroke-opacity="1" stroke-miterlimit="10" d="M 1.704094 1.407954 C 1.66791 1.434991 1.631726 1.462094 1.595542 1.489196 " transform="matrix(60.023178, 0, 0, -59.957891, 337, 222.5)"/>
<path fill="none" stroke-width="0.04" stroke-linecap="butt" stroke-linejoin="miter" stroke="rgb(51.372549%, 75.686275%, 40.392157%)" stroke-opacity="1" stroke-miterlimit="10" d="M 1.48224 1.573956 C 1.446056 1.600993 1.409872 1.628096 1.373688 1.655198 " transform="matrix(60.023178, 0, 0, -59.957891, 337, 222.5)"/>
<path fill="none" stroke-width="0.04" stroke-linecap="butt" stroke-linejoin="miter" stroke="rgb(51.372549%, 75.686275%, 40.392157%)" stroke-opacity="1" stroke-miterlimit="10" d="M 1.260386 1.739958 C 1.224202 1.766995 1.188018 1.794098 1.151834 1.821135 " transform="matrix(60.023178, 0, 0, -59.957891, 337, 222.5)"/>
<path fill="none" stroke-width="0.04" stroke-linecap="butt" stroke-linejoin="miter" stroke="rgb(51.372549%, 75.686275%, 40.392157%)" stroke-opacity="1" stroke-miterlimit="10" d="M 1.038531 1.90596 C 1.002347 1.932997 0.966163 1.9601 0.929979 1.987137 " transform="matrix(60.023178, 0, 0, -59.957891, 337, 222.5)"/>
<path fill="none" stroke-width="0.04" stroke-linecap="butt" stroke-linejoin="miter" stroke="rgb(51.372549%, 75.686275%, 40.392157%)" stroke-opacity="1" stroke-miterlimit="10" d="M 0.816677 2.071962 C 0.780493 2.098999 0.744309 2.126102 0.708125 2.153139 " transform="matrix(60.023178, 0, 0, -59.957891, 337, 222.5)"/>
<path fill="none" stroke-width="0.04" stroke-linecap="butt" stroke-linejoin="miter" stroke="rgb(51.372549%, 75.686275%, 40.392157%)" stroke-opacity="1" stroke-miterlimit="10" d="M 0.594822 2.237964 C 0.558638 2.265001 0.522454 2.292103 0.48627 2.319141 " transform="matrix(60.023178, 0, 0, -59.957891, 337, 222.5)"/>
<path fill="none" stroke-width="0.04" stroke-linecap="butt" stroke-linejoin="miter" stroke="rgb(51.372549%, 75.686275%, 40.392157%)" stroke-opacity="1" stroke-miterlimit="10" d="M 0.372968 2.403901 C 0.336784 2.431003 0.3006 2.458105 0.264416 2.485143 " transform="matrix(60.023178, 0, 0, -59.957891, 337, 222.5)"/>
<path fill="none" stroke-width="0.04" stroke-linecap="butt" stroke-linejoin="miter" stroke="rgb(51.372549%, 75.686275%, 40.392157%)" stroke-opacity="1" stroke-miterlimit="10" d="M 0.264416 2.485143 C 0.226735 2.458105 0.18912 2.431003 0.151504 2.403901 " transform="matrix(60.023178, 0, 0, -59.957891, 337, 222.5)"/>
<path fill="none" stroke-width="0.04" stroke-linecap="butt" stroke-linejoin="miter" stroke="rgb(51.372549%, 75.686275%, 40.392157%)" stroke-opacity="1" stroke-miterlimit="10" d="M 0.0336459 2.319141 C -0.0040349 2.292103 -0.0416506 2.265001 -0.0793313 2.237964 " transform="matrix(60.023178, 0, 0, -59.957891, 337, 222.5)"/>
<path fill="none" stroke-width="0.04" stroke-linecap="butt" stroke-linejoin="miter" stroke="rgb(51.372549%, 75.686275%, 40.392157%)" stroke-opacity="1" stroke-miterlimit="10" d="M -0.197124 2.153139 C -0.234805 2.126102 -0.272421 2.098999 -0.310102 2.071962 " transform="matrix(60.023178, 0, 0, -59.957891, 337, 222.5)"/>
<path fill="none" stroke-width="0.04" stroke-linecap="butt" stroke-linejoin="miter" stroke="rgb(51.372549%, 75.686275%, 40.392157%)" stroke-opacity="1" stroke-miterlimit="10" d="M -0.42796 1.987137 C -0.465575 1.9601 -0.503191 1.932997 -0.540872 1.90596 " transform="matrix(60.023178, 0, 0, -59.957891, 337, 222.5)"/>
<path fill="none" stroke-width="0.04" stroke-linecap="butt" stroke-linejoin="miter" stroke="rgb(51.372549%, 75.686275%, 40.392157%)" stroke-opacity="1" stroke-miterlimit="10" d="M -0.65873 1.821135 C -0.696346 1.794098 -0.734026 1.766995 -0.771642 1.739958 " transform="matrix(60.023178, 0, 0, -59.957891, 337, 222.5)"/>
<path fill="none" stroke-width="0.04" stroke-linecap="butt" stroke-linejoin="miter" stroke="rgb(51.372549%, 75.686275%, 40.392157%)" stroke-opacity="1" stroke-miterlimit="10" d="M -0.8895 1.655198 C -0.927116 1.628096 -0.964797 1.600993 -1.002412 1.573956 " transform="matrix(60.023178, 0, 0, -59.957891, 337, 222.5)"/>
<path fill="none" stroke-width="0.04" stroke-linecap="butt" stroke-linejoin="miter" stroke="rgb(51.372549%, 75.686275%, 40.392157%)" stroke-opacity="1" stroke-miterlimit="10" d="M -1.12027 1.489196 C -1.157951 1.462094 -1.195567 1.434991 -1.233182 1.407954 " transform="matrix(60.023178, 0, 0, -59.957891, 337, 222.5)"/>
<path fill="none" stroke-width="0.04" stroke-linecap="butt" stroke-linejoin="miter" stroke="rgb(51.372549%, 75.686275%, 40.392157%)" stroke-opacity="1" stroke-miterlimit="10" d="M -1.351041 1.323194 C -1.388721 1.296092 -1.426337 1.26899 -1.464018 1.241952 " transform="matrix(60.023178, 0, 0, -59.957891, 337, 222.5)"/>
<path fill="none" stroke-width="0.04" stroke-linecap="butt" stroke-linejoin="miter" stroke="rgb(51.372549%, 75.686275%, 40.392157%)" stroke-opacity="1" stroke-miterlimit="10" d="M -1.581811 1.157192 C -1.619492 1.13009 -1.657107 1.102988 -1.694788 1.07595 " transform="matrix(60.023178, 0, 0, -59.957891, 337, 222.5)"/>
<path fill="none" stroke-width="0.04" stroke-linecap="butt" stroke-linejoin="miter" stroke="rgb(51.372549%, 75.686275%, 40.392157%)" stroke-opacity="1" stroke-miterlimit="10" d="M -1.812646 0.99119 C -1.850262 0.964088 -1.887877 0.936986 -1.925558 0.909949 " transform="matrix(60.023178, 0, 0, -59.957891, 337, 222.5)"/>
<path fill="none" stroke-width="0.04" stroke-linecap="butt" stroke-linejoin="miter" stroke="rgb(51.372549%, 75.686275%, 40.392157%)" stroke-opacity="1" stroke-miterlimit="10" d="M -2.043416 0.825189 C -2.081032 0.798086 -2.118713 0.770984 -2.156328 0.743947 " transform="matrix(60.023178, 0, 0, -59.957891, 337, 222.5)"/>
<path fill="none" stroke-width="0.04" stroke-linecap="butt" stroke-linejoin="miter" stroke="rgb(51.372549%, 75.686275%, 40.392157%)" stroke-opacity="1" stroke-miterlimit="10" d="M -2.274187 0.659187 C -2.311802 0.632084 -2.349483 0.604982 -2.387099 0.577945 " transform="matrix(60.023178, 0, 0, -59.957891, 337, 222.5)"/>
<path fill="none" stroke-width="0.04" stroke-linecap="butt" stroke-linejoin="miter" stroke="rgb(51.372549%, 75.686275%, 40.392157%)" stroke-opacity="1" stroke-miterlimit="10" d="M -2.504957 0.493185 C -2.542638 0.466082 -2.580253 0.439045 -2.617869 0.411943 " transform="matrix(60.023178, 0, 0, -59.957891, 337, 222.5)"/>
<path fill="none" stroke-width="0.04" stroke-linecap="butt" stroke-linejoin="miter" stroke="rgb(51.372549%, 75.686275%, 40.392157%)" stroke-opacity="1" stroke-miterlimit="10" d="M -2.735727 0.327183 C -2.773408 0.30008 -2.811023 0.273043 -2.848704 0.245941 " transform="matrix(60.023178, 0, 0, -59.957891, 337, 222.5)"/>
<path fill="none" stroke-width="0.04" stroke-linecap="butt" stroke-linejoin="miter" stroke="rgb(51.372549%, 75.686275%, 40.392157%)" stroke-opacity="1" stroke-miterlimit="10" d="M -2.966497 0.161181 C -3.004178 0.134078 -3.041794 0.107041 -3.079474 0.0799389 " transform="matrix(60.023178, 0, 0, -59.957891, 337, 222.5)"/>
<path fill="none" stroke-width="0.04" stroke-linecap="butt" stroke-linejoin="miter" stroke="rgb(51.372549%, 75.686275%, 40.392157%)" stroke-opacity="1" stroke-miterlimit="10" d="M -3.197333 -0.00482109 C -3.234948 -0.0319234 -3.272564 -0.0589607 -3.310245 -0.086063 " transform="matrix(60.023178, 0, 0, -59.957891, 337, 222.5)"/>
<path fill="none" stroke-width="0.04" stroke-linecap="butt" stroke-linejoin="miter" stroke="rgb(51.372549%, 75.686275%, 40.392157%)" stroke-opacity="1" stroke-miterlimit="10" d="M -3.428103 -0.170823 C -3.465718 -0.197925 -3.503399 -0.224963 -3.541015 -0.252065 " transform="matrix(60.023178, 0, 0, -59.957891, 337, 222.5)"/>
<path fill="none" stroke-width="0.04" stroke-linecap="butt" stroke-linejoin="miter" stroke="rgb(51.372549%, 75.686275%, 40.392157%)" stroke-opacity="1" stroke-miterlimit="10" d="M -3.658873 -0.336825 C -3.696489 -0.363927 -3.734169 -0.390964 -3.771785 -0.418067 " transform="matrix(60.023178, 0, 0, -59.957891, 337, 222.5)"/>
<path fill="none" stroke-width="0.04" stroke-linecap="butt" stroke-linejoin="miter" stroke="rgb(51.372549%, 75.686275%, 40.392157%)" stroke-opacity="1" stroke-miterlimit="10" d="M -3.889643 -0.502827 C -3.927259 -0.529929 -3.96494 -0.556966 -4.002555 -0.584069 " transform="matrix(60.023178, 0, 0, -59.957891, 337, 222.5)"/>
<path fill="none" stroke-width="0.04" stroke-linecap="butt" stroke-linejoin="miter" stroke="rgb(51.372549%, 75.686275%, 40.392157%)" stroke-opacity="1" stroke-miterlimit="10" d="M -4.120413 -0.668829 C -4.158094 -0.695931 -4.19571 -0.722968 -4.233391 -0.750071 " transform="matrix(60.023178, 0, 0, -59.957891, 337, 222.5)"/>
<path fill="none" stroke-width="0.04" stroke-linecap="butt" stroke-linejoin="miter" stroke="rgb(51.372549%, 75.686275%, 40.392157%)" stroke-opacity="1" stroke-miterlimit="10" d="M -4.351184 -0.834831 C -4.388864 -0.861933 -4.42648 -0.88897 -4.464161 -0.916073 " transform="matrix(60.023178, 0, 0, -59.957891, 337, 222.5)"/>
<path fill="none" stroke-width="0.04" stroke-linecap="butt" stroke-linejoin="miter" stroke="rgb(51.372549%, 75.686275%, 40.392157%)" stroke-opacity="1" stroke-miterlimit="10" d="M -4.582019 -1.000833 C -4.619635 -1.027935 -4.65725 -1.054972 -4.694931 -1.082075 " transform="matrix(60.023178, 0, 0, -59.957891, 337, 222.5)"/>
<path fill="none" stroke-width="0.04" stroke-linecap="butt" stroke-linejoin="miter" stroke="rgb(51.372549%, 75.686275%, 40.392157%)" stroke-opacity="1" stroke-miterlimit="10" d="M -4.812789 -1.166835 C -4.850405 -1.193937 -4.888086 -1.220974 -4.925701 -1.248076 " transform="matrix(60.023178, 0, 0, -59.957891, 337, 222.5)"/>
<path fill="none" stroke-width="0.04" stroke-linecap="butt" stroke-linejoin="miter" stroke="rgb(51.372549%, 75.686275%, 40.392157%)" stroke-opacity="1" stroke-miterlimit="10" d="M -5.043559 -1.332836 C -5.081175 -1.359939 -5.118856 -1.386976 -5.156472 -1.414078 " transform="matrix(60.023178, 0, 0, -59.957891, 337, 222.5)"/>
<path fill="none" stroke-width="0.04" stroke-linecap="butt" stroke-linejoin="miter" stroke="rgb(51.372549%, 75.686275%, 40.392157%)" stroke-opacity="1" stroke-miterlimit="10" d="M 0.166082 -3.63595 C 0.166993 -3.575947 0.167969 -3.515944 0.168945 -3.455876 " transform="matrix(60.023178, 0, 0, -59.957891, 337, 222.5)"/>
<path fill="none" stroke-width="0.04" stroke-linecap="butt" stroke-linejoin="miter" stroke="rgb(51.372549%, 75.686275%, 40.392157%)" stroke-opacity="1" stroke-miterlimit="10" d="M 0.172004 -3.264596 C 0.17298 -3.204593 0.173956 -3.14459 0.174932 -3.084587 " transform="matrix(60.023178, 0, 0, -59.957891, 337, 222.5)"/>
<path fill="none" stroke-width="0.04" stroke-linecap="butt" stroke-linejoin="miter" stroke="rgb(51.372549%, 75.686275%, 40.392157%)" stroke-opacity="1" stroke-miterlimit="10" d="M 0.177991 -2.893307 C 0.178967 -2.833304 0.179944 -2.773301 0.180855 -2.713297 " transform="matrix(60.023178, 0, 0, -59.957891, 337, 222.5)"/>
<path fill="none" stroke-width="0.04" stroke-linecap="butt" stroke-linejoin="miter" stroke="rgb(51.372549%, 75.686275%, 40.392157%)" stroke-opacity="1" stroke-miterlimit="10" d="M 0.183978 -2.522017 C 0.18489 -2.461949 0.185866 -2.401946 0.186842 -2.341943 " transform="matrix(60.023178, 0, 0, -59.957891, 337, 222.5)"/>
<path fill="none" stroke-width="0.04" stroke-linecap="butt" stroke-linejoin="miter" stroke="rgb(51.372549%, 75.686275%, 40.392157%)" stroke-opacity="1" stroke-miterlimit="10" d="M 0.189901 -2.150663 C 0.190877 -2.09066 0.191853 -2.030657 0.192829 -1.970654 " transform="matrix(60.023178, 0, 0, -59.957891, 337, 222.5)"/>
<path fill="none" stroke-width="0.04" stroke-linecap="butt" stroke-linejoin="miter" stroke="rgb(51.372549%, 75.686275%, 40.392157%)" stroke-opacity="1" stroke-miterlimit="10" d="M 0.195888 -1.779374 C 0.196864 -1.719371 0.19784 -1.659303 0.198751 -1.5993 " transform="matrix(60.023178, 0, 0, -59.957891, 337, 222.5)"/>
<path fill="none" stroke-width="0.04" stroke-linecap="butt" stroke-linejoin="miter" stroke="rgb(51.372549%, 75.686275%, 40.392157%)" stroke-opacity="1" stroke-miterlimit="10" d="M 0.201875 -1.408019 C 0.202786 -1.348016 0.203762 -1.288013 0.204739 -1.22801 " transform="matrix(60.023178, 0, 0, -59.957891, 337, 222.5)"/>
<path fill="none" stroke-width="0.04" stroke-linecap="butt" stroke-linejoin="miter" stroke="rgb(51.372549%, 75.686275%, 40.392157%)" stroke-opacity="1" stroke-miterlimit="10" d="M 0.207797 -1.03673 C 0.208774 -0.976727 0.20975 -0.916724 0.210726 -0.856656 " transform="matrix(60.023178, 0, 0, -59.957891, 337, 222.5)"/>
<path fill="none" stroke-width="0.04" stroke-linecap="butt" stroke-linejoin="miter" stroke="rgb(51.372549%, 75.686275%, 40.392157%)" stroke-opacity="1" stroke-miterlimit="10" d="M 0.213785 -0.665376 C 0.214761 -0.605373 0.215737 -0.54537 0.216648 -0.485367 " transform="matrix(60.023178, 0, 0, -59.957891, 337, 222.5)"/>
<path fill="none" stroke-width="0.04" stroke-linecap="butt" stroke-linejoin="miter" stroke="rgb(51.372549%, 75.686275%, 40.392157%)" stroke-opacity="1" stroke-miterlimit="10" d="M 0.219772 -0.294087 C 0.220748 -0.234084 0.221659 -0.174081 0.222635 -0.114077 " transform="matrix(60.023178, 0, 0, -59.957891, 337, 222.5)"/>
<path fill="none" stroke-width="0.04" stroke-linecap="butt" stroke-linejoin="miter" stroke="rgb(51.372549%, 75.686275%, 40.392157%)" stroke-opacity="1" stroke-miterlimit="10" d="M 0.225694 0.0772026 C 0.22667 0.137271 0.227646 0.197274 0.228623 0.257277 " transform="matrix(60.023178, 0, 0, -59.957891, 337, 222.5)"/>
<path fill="none" stroke-width="0.04" stroke-linecap="butt" stroke-linejoin="miter" stroke="rgb(51.372549%, 75.686275%, 40.392157%)" stroke-opacity="1" stroke-miterlimit="10" d="M 0.231681 0.448557 C 0.232658 0.50856 0.233634 0.568563 0.23461 0.628566 " transform="matrix(60.023178, 0, 0, -59.957891, 337, 222.5)"/>
<path fill="none" stroke-width="0.04" stroke-linecap="butt" stroke-linejoin="miter" stroke="rgb(51.372549%, 75.686275%, 40.392157%)" stroke-opacity="1" stroke-miterlimit="10" d="M 0.237669 0.819846 C 0.238645 0.879849 0.239556 0.939917 0.240532 0.999921 " transform="matrix(60.023178, 0, 0, -59.957891, 337, 222.5)"/>
<path fill="none" stroke-width="0.04" stroke-linecap="butt" stroke-linejoin="miter" stroke="rgb(51.372549%, 75.686275%, 40.392157%)" stroke-opacity="1" stroke-miterlimit="10" d="M 0.243591 1.191201 C 0.244567 1.251204 0.245543 1.311207 0.246519 1.37121 " transform="matrix(60.023178, 0, 0, -59.957891, 337, 222.5)"/>
<path fill="none" stroke-width="0.04" stroke-linecap="butt" stroke-linejoin="miter" stroke="rgb(51.372549%, 75.686275%, 40.392157%)" stroke-opacity="1" stroke-miterlimit="10" d="M 0.249578 1.56249 C 0.250554 1.622493 0.25153 1.682496 0.252507 1.742564 " transform="matrix(60.023178, 0, 0, -59.957891, 337, 222.5)"/>
<path fill="none" stroke-width="0.04" stroke-linecap="butt" stroke-linejoin="miter" stroke="rgb(51.372549%, 75.686275%, 40.392157%)" stroke-opacity="1" stroke-miterlimit="10" d="M 0.255565 1.933844 C 0.256542 1.993847 0.257453 2.05385 0.258429 2.113853 " transform="matrix(60.023178, 0, 0, -59.957891, 337, 222.5)"/>
<path fill="none" stroke-width="0.04" stroke-linecap="butt" stroke-linejoin="miter" stroke="rgb(51.372549%, 75.686275%, 40.392157%)" stroke-opacity="1" stroke-miterlimit="10" d="M 0.261488 2.305133 C 0.262464 2.365136 0.26344 2.42514 0.264416 2.485143 " transform="matrix(60.023178, 0, 0, -59.957891, 337, 222.5)"/>
<path fill-rule="nonzero" fill="rgb(51.372549%, 75.686275%, 40.392157%)" fill-opacity="1" d="M 30.492188 307.285156 C 30.492188 306.488281 30.175781 305.726562 29.613281 305.164062 C 29.050781 304.601562 28.289062 304.285156 27.492188 304.285156 C 26.695312 304.285156 25.933594 304.601562 25.371094 305.164062 C 24.804688 305.726562 24.488281 306.488281 24.488281 307.285156 C 24.488281 308.078125 24.804688 308.84375 25.371094 309.402344 C 25.933594 309.964844 26.695312 310.28125 27.492188 310.28125 C 28.289062 310.28125 29.050781 309.964844 29.613281 309.402344 C 30.175781 308.84375 30.492188 308.078125 30.492188 307.285156 Z M 30.492188 307.285156 "/>
<path fill-rule="nonzero" fill="rgb(51.372549%, 75.686275%, 40.392157%)" fill-opacity="1" d="M 349.96875 440.503906 C 349.96875 439.707031 349.652344 438.945312 349.089844 438.382812 C 348.527344 437.820312 347.761719 437.503906 346.96875 437.503906 C 346.171875 437.503906 345.40625 437.820312 344.84375 438.382812 C 344.28125 438.945312 343.964844 439.707031 343.964844 440.503906 C 343.964844 441.296875 344.28125 442.0625 344.84375 442.621094 C 345.40625 443.183594 346.171875 443.5 346.96875 443.5 C 347.761719 443.5 348.527344 443.183594 349.089844 442.621094 C 349.652344 442.0625 349.96875 441.296875 349.96875 440.503906 Z M 349.96875 440.503906 "/>
<path fill-rule="nonzero" fill="rgb(51.372549%, 75.686275%, 40.392157%)" fill-opacity="1" d="M 668.660156 307.285156 C 668.660156 306.488281 668.34375 305.726562 667.78125 305.164062 C 667.21875 304.601562 666.453125 304.285156 665.660156 304.285156 C 664.863281 304.285156 664.097656 304.601562 663.535156 305.164062 C 662.972656 305.726562 662.65625 306.488281 662.65625 307.285156 C 662.65625 308.078125 662.972656 308.84375 663.535156 309.402344 C 664.097656 309.964844 664.863281 310.28125 665.660156 310.28125 C 666.453125 310.28125 667.21875 309.964844 667.78125 309.402344 C 668.34375 308.84375 668.660156 308.078125 668.660156 307.285156 Z M 668.660156 307.285156 "/>
<path fill-rule="nonzero" fill="rgb(51.372549%, 75.686275%, 40.392157%)" fill-opacity="1" d="M 355.871094 73.496094 C 355.871094 72.699219 355.554688 71.9375 354.992188 71.375 C 354.429688 70.8125 353.667969 70.496094 352.871094 70.496094 C 352.074219 70.496094 351.3125 70.8125 350.75 71.375 C 350.1875 71.9375 349.871094 72.699219 349.871094 73.496094 C 349.871094 74.289062 350.1875 75.050781 350.75 75.613281 C 351.3125 76.175781 352.074219 76.492188 352.871094 76.492188 C 353.667969 76.492188 354.429688 76.175781 354.992188 75.613281 C 355.554688 75.050781 355.871094 74.289062 355.871094 73.496094 Z M 355.871094 73.496094 "/>
</svg>
