<?xml version="1.0" encoding="UTF-8"?>
<svg xmlns="http://www.w3.org/2000/svg" xmlns:xlink="http://www.w3.org/1999/xlink" width="854" height="480" viewBox="0 0 854 480">
<path fill="none" stroke-width="0.05" stroke-linecap="butt" stroke-linejoin="miter" stroke="rgb(0%, 0%, 0%)" stroke-opacity="1" stroke-miterlimit="10" d="M -9.883945 -1.748437 C -8.550612 -1.748437 -7.217278 -1.748437 -5.883945 -1.748437 " transform="matrix(60.046875, 0, 0, -60, 427, 240)"/>
<path fill="none" stroke-width="0.05" stroke-linecap="butt" stroke-linejoin="miter" stroke="rgb(0%, 0%, 0%)" stroke-opacity="1" stroke-miterlimit="10" d="M -5.883945 -1.748437 C -4.550612 -1.748437 -3.217278 -1.748437 -1.883945 -1.748437 " transform="matrix(60.046875, 0, 0, -60, 427, 240)"/>
<path fill="none" stroke-width="0.05" stroke-linecap="butt" stroke-linejoin="miter" stroke="rgb(0%, 0%, 0%)" stroke-opacity="1" stroke-miterlimit="10" d="M -1.883945 -1.748437 C -0.550612 -1.748437 0.782722 -1.748437 2.116055 -1.748437 " transform="matrix(60.046875, 0, 0, -60, 427, 240)"/>
<path fill="none" stroke-width="0.05" stroke-linecap="butt" stroke-linejoin="miter" stroke="rgb(0%, 0%, 0%)" stroke-opacity="1" stroke-miterlimit="10" d="M 2.116055 -1.748437 C 3.449388 -1.748437 4.782722 -1.748437 6.116055 -1.748437 " transform="matrix(60.046875, 0, 0, -60, 427, 240)"/>
<path fill="none" stroke-width="0.05" stroke-linecap="butt" stroke-linejoin="miter" stroke="rgb(0%, 0%, 0%)" stroke-opacity="1" stroke-miterlimit="10" d="M 6.116055 -1.748437 C 7.449388 -1.748437 8.782722 -1.748437 10.116055 -1.748437 " transform="matrix(60.046875, 0, 0, -60, 427, 240)"/>
<path fill="none" stroke-width="0.05" stroke-linecap="butt" stroke-linejoin="miter" stroke="rgb(0%, 0%, 0%)" stroke-opacity="1" stroke-miterlimit="10" d="M -9.883945 4.251563 C -8.550612 4.251563 -7.217278 4.251563 -5.883945 4.251563 " transform="matrix(60.046875, 0, 0, -60, 427, 240)"/>
<path fill="none" stroke-width="0.05" stroke-linecap="butt" stroke-linejoin="miter" stroke="rgb(0%, 0%, 0%)" stroke-opacity="1" stroke-miterlimit="10" d="M -5.883945 4.251563 C -4.550612 4.251563 -3.217278 4.251563 -1.883945 4.251563 " transform="matrix(60.046875, 0, 0, -60, 427, 240)"/>
<path fill="none" stroke-width="0.05" stroke-linecap="butt" stroke-linejoin="miter" stroke="rgb(0%, 0%, 0%)" stroke-opacity="1" stroke-miterlimit="10" d="M -1.883945 4.251563 C -0.550612 4.251563 0.782722 4.251563 2.116055 4.251563 " transform="matrix(60.046875, 0, 0, -60, 427, 240)"/>
<path fill="none" stroke-width="0.05" stroke-linecap="butt" stroke-linejoin="miter" stroke="rgb(0%, 0%, 0%)" stroke-opacity="1" stroke-miterlimit="10" d="M 2.116055 4.251563 C 3.449388 4.251563 4.782722 4.251563 6.116055 4.251563 " transform="matrix(60.046875, 0, 0, -60, 427, 240)"/>
<path fill="none" stroke-width="0.05" stroke-linecap="butt" stroke-linejoin="miter" stroke="rgb(0%, 0%, 0%)" stroke-opacity="1" stroke-miterlimit="10" d="M 6.116055 4.251563 C 7.449388 4.251563 8.782722 4.251563 10.116055 4.251563 " transform="matrix(60.046875, 0, 0, -60, 427, 240)"/>
<path fill="none" stroke-width="0.05" stroke-linecap="butt" stroke-linejoin="miter" stroke="rgb(0%, 0%, 0%)" stroke-opacity="1" stroke-miterlimit="10" d="M -5.883945 -1.748437 C -5.883945 0.251562 -5.883945 2.251563 -5.883945 4.251563 " transform="matrix(60.046875, 0, 0, -60, 427, 240)"/>
<path fill="none" stroke-width="0.05" stroke-linecap="butt" stroke-linejoin="miter" stroke="rgb(0%, 0%, 0%)" stroke-opacity="1" stroke-miterlimit="10" d="M -1.883945 -1.748437 C -1.883945 0.251562 -1.883945 2.251563 -1.883945 4.251563 " transform="matrix(60.046875, 0, 0, -60, 427, 240)"/>
<path fill="none" stroke-width="0.05" stroke-linecap="butt" stroke-linejoin="miter" stroke="rgb(0%, 0%, 0%)" stroke-opacity="1" stroke-miterlimit="10" d="M 2.116055 -1.748437 C 2.116055 0.251562 2.116055 2.251563 2.116055 4.251563 " transform="matrix(60.046875, 0, 0, -60, 427, 240)"/>
<path fill="none" stroke-width="0.05" stroke-linecap="butt" stroke-linejoin="miter" stroke="rgb(0%, 0%, 0%)" stroke-opacity="1" stroke-miterlimit="10" d="M 6.116055 -1.748437 C 6.116055 0.251562 6.116055 2.251563 6.116055 4.251563 " transform="matrix(60.046875, 0, 0, -60, 427, 240)"/>
<path fill="none" stroke-width="0.05" stroke-linecap="butt" stroke-linejoin="miter" stroke="rgb(0%, 0%, 0%)" stroke-opacity="1" stroke-miterlimit="10" d="M -5.883945 -1.748437 C -7.217278 0.251562 -8.550612 2.251563 -9.883945 4.251563 " transform="matrix(60.046875, 0, 0, -60, 427, 240)"/>
<path fill="none" stroke-width="0.05" stroke-linecap="butt" stroke-linejoin="miter" stroke="rgb(0%, 0%, 0%)" stroke-opacity="1" stroke-miterlimit="10" d="M -1.883945 -1.748437 C -3.217278 0.251562 -4.550612 2.251563 -5.883945 4.251563 " transform="matrix(60.046875, 0, 0, -60, 427, 240)"/>
<path fill="none" stroke-width="0.05" stroke-linecap="butt" stroke-linejoin="miter" stroke="rgb(0%, 0%, 0%)" stroke-opacity="1" stroke-miterlimit="10" d="M 2.116055 -1.748437 C 0.782722 0.251562 -0.550612 2.251563 -1.883945 4.251563 " transform="matrix(60.046875, 0, 0, -60, 427, 240)"/>
<path fill="none" stroke-width="0.05" stroke-linecap="butt" stroke-linejoin="miter" stroke="rgb(0%, 0%, 0%)" stroke-opacity="1" stroke-miterlimit="10" d="M -1.883945 -1.748437 C -0.550612 0.251562 0.782722 2.251563 2.116055 4.251563 " transform="matrix(60.046875, 0, 0, -60, 427, 240)"/>
<path fill="none" stroke-width="0.05" stroke-linecap="butt" stroke-linejoin="miter" stroke="rgb(0%, 0%, 0%)" stroke-opacity="1" stroke-miterlimit="10" d="M 2.116055 -1.748437 C 3.449388 0.251562 4.782722 2.251563 6.116055 4.251563 " transform="matrix(60.046875, 0, 0, -60, 427, 240)"/>
<path fill="none" stroke-width="0.05" stroke-linecap="butt" stroke-linejoin="miter" stroke="rgb(0%, 0%, 0%)" stroke-opacity="1" stroke-miterlimit="10" d="M 6.116055 -1.748437 C 7.449388 0.251562 8.782722 2.251563 10.116055 4.251563 " transform="matrix(60.046875, 0, 0, -60, 427, 240)"/>
<path fill-rule="nonzero" fill="rgb(0%, 0%, 0%)" fill-opacity="1" d="M 82.691406 344.90625 C 82.691406 342.519531 81.742188 340.230469 80.054688 338.542969 C 78.367188 336.855469 76.074219 335.90625 73.6875 335.90625 C 71.296875 335.90625 69.007812 336.855469 67.316406 338.542969 C 65.628906 340.230469 64.679688 342.519531 64.679688 344.90625 C 64.679688 347.292969 65.628906 349.582031 67.316406 351.269531 C 69.007812 352.957031 71.296875 353.90625 73.6875 353.90625 C 76.074219 353.90625 78.367188 352.957031 80.054688 351.269531 C 81.742188 349.582031 82.691406 347.292969 82.691406 344.90625 Z M 82.691406 344.90625 "/>
<path fill-rule="nonzero" fill="rgb(0%, 0%, 0%)" fill-opacity="1" d="M 322.878906 344.90625 C 322.878906 342.519531 321.929688 340.230469 320.242188 338.542969 C 318.554688 336.855469 316.261719 335.90625 313.875 335.90625 C 311.484375 335.90625 309.195312 336.855469 307.503906 338.542969 C 305.816406 340.230469 304.867188 342.519531 304.867188 344.90625 C 304.867188 347.292969 305.816406 349.582031 307.503906 351.269531 C 309.195312 352.957031 311.484375 353.90625 313.875 353.90625 C 316.261719 353.90625 318.554688 352.957031 320.242188 351.269531 C 321.929688 349.582031 322.878906 347.292969 322.878906 344.90625 Z M 322.878906 344.90625 "/>
<path fill-rule="nonzero" fill="rgb(0%, 0%, 0%)" fill-opacity="1" d="M 563.066406 344.90625 C 563.066406 342.519531 562.117188 340.230469 560.429688 338.542969 C 558.742188 336.855469 556.449219 335.90625 554.0625 335.90625 C 551.671875 335.90625 549.382812 336.855469 547.691406 338.542969 C 546.003906 340.230469 545.054688 342.519531 545.054688 344.90625 C 545.054688 347.292969 546.003906 349.582031 547.691406 351.269531 C 549.382812 352.957031 551.671875 353.90625 554.0625 353.90625 C 556.449219 353.90625 558.742188 352.957031 560.429688 351.269531 C 562.117188 349.582031 563.066406 347.292969 563.066406 344.90625 Z M 563.066406 344.90625 "/>
<path fill-rule="nonzero" fill="rgb(0%, 0%, 0%)" fill-opacity="1" d="M 803.253906 344.90625 C 803.253906 342.519531 802.304688 340.230469 800.617188 338.542969 C 798.929688 336.855469 796.636719 335.90625 794.25 335.90625 C 791.859375 335.90625 789.570312 336.855469 787.878906 338.542969 C 786.191406 340.230469 785.242188 342.519531 785.242188 344.90625 C 785.242188 347.292969 786.191406 349.582031 787.878906 351.269531 C 789.570312 352.957031 791.859375 353.90625 794.25 353.90625 C 796.636719 353.90625 798.929688 352.957031 800.617188 351.269531 C 802.304688 349.582031 803.253906 347.292969 803.253906 344.90625 Z M 803.253906 344.90625 "/>
<path fill="none" stroke-width="0.04" stroke-linecap="butt" stroke-linejoin="miter" stroke="rgb(60.392157%, 44.705882%, 67.45098%)" stroke-opacity="1" stroke-miterlimit="10" d="M -7.565639 -3.404492 C -7.479899 -3.420573 -7.394158 -3.436589 -7.308483 -3.452669 " transform="matrix(60.046875, 0, 0, -60, 427, 240)"/>
<path fill="none" stroke-width="0.04" stroke-linecap="butt" stroke-linejoin="miter" stroke="rgb(60.392157%, 44.705882%, 67.45098%)" stroke-opacity="1" stroke-miterlimit="10" d="M -7.014572 -3.507682 C -6.928897 -3.523763 -6.843156 -3.539844 -6.757416 -3.555859 " transform="matrix(60.046875, 0, 0, -60, 427, 240)"/>
<path fill="none" stroke-width="0.04" stroke-linecap="butt" stroke-linejoin="miter" stroke="rgb(60.392157%, 44.705882%, 67.45098%)" stroke-opacity="1" stroke-miterlimit="10" d="M -6.46357 -3.610937 C -6.37783 -3.626953 -6.292155 -3.643034 -6.206414 -3.659049 " transform="matrix(60.046875, 0, 0, -60, 427, 240)"/>
<path fill="none" stroke-width="0.04" stroke-linecap="butt" stroke-linejoin="miter" stroke="rgb(60.392157%, 44.705882%, 67.45098%)" stroke-opacity="1" stroke-miterlimit="10" d="M -5.912568 -3.714128 C -5.826828 -3.730143 -5.741088 -3.746224 -5.655412 -3.762305 " transform="matrix(60.046875, 0, 0, -60, 427, 240)"/>
<path fill="none" stroke-width="0.04" stroke-linecap="butt" stroke-linejoin="miter" stroke="rgb(60.392157%, 44.705882%, 67.45098%)" stroke-opacity="1" stroke-miterlimit="10" d="M -5.655412 -3.762305 C -5.568111 -3.773503 -5.480809 -3.784766 -5.393508 -3.795964 " transform="matrix(60.046875, 0, 0, -60, 427, 240)"/>
<path fill="none" stroke-width="0.04" stroke-linecap="butt" stroke-linejoin="miter" stroke="rgb(60.392157%, 44.705882%, 67.45098%)" stroke-opacity="1" stroke-miterlimit="10" d="M -5.094197 -3.834505 C -5.006896 -3.845768 -4.919594 -3.856966 -4.832292 -3.868229 " transform="matrix(60.046875, 0, 0, -60, 427, 240)"/>
<path fill="none" stroke-width="0.04" stroke-linecap="butt" stroke-linejoin="miter" stroke="rgb(60.392157%, 44.705882%, 67.45098%)" stroke-opacity="1" stroke-miterlimit="10" d="M -4.532982 -3.906706 C -4.44568 -3.917969 -4.358379 -3.929232 -4.271077 -3.94043 " transform="matrix(60.046875, 0, 0, -60, 427, 240)"/>
<path fill="none" stroke-width="0.04" stroke-linecap="butt" stroke-linejoin="miter" stroke="rgb(60.392157%, 44.705882%, 67.45098%)" stroke-opacity="1" stroke-miterlimit="10" d="M -3.971702 -3.978971 C -3.8844 -3.990169 -3.797099 -4.001432 -3.709797 -4.01263 " transform="matrix(60.046875, 0, 0, -60, 427, 240)"/>
<path fill="none" stroke-width="0.04" stroke-linecap="butt" stroke-linejoin="miter" stroke="rgb(60.392157%, 44.705882%, 67.45098%)" stroke-opacity="1" stroke-miterlimit="10" d="M -3.410487 -4.051172 C -3.323185 -4.062435 -3.235883 -4.073633 -3.148582 -4.084896 " transform="matrix(60.046875, 0, 0, -60, 427, 240)"/>
<path fill="none" stroke-width="0.04" stroke-linecap="butt" stroke-linejoin="miter" stroke="rgb(60.392157%, 44.705882%, 67.45098%)" stroke-opacity="1" stroke-miterlimit="10" d="M -2.849271 -4.123437 C -2.76197 -4.134635 -2.674668 -4.145898 -2.587367 -4.157096 " transform="matrix(60.046875, 0, 0, -60, 427, 240)"/>
<path fill="none" stroke-width="0.04" stroke-linecap="butt" stroke-linejoin="miter" stroke="rgb(60.392157%, 44.705882%, 67.45098%)" stroke-opacity="1" stroke-miterlimit="10" d="M -2.288056 -4.195638 C -2.200755 -4.206836 -2.113453 -4.218099 -2.026151 -4.229362 " transform="matrix(60.046875, 0, 0, -60, 427, 240)"/>
<path fill="none" stroke-width="0.04" stroke-linecap="butt" stroke-linejoin="miter" stroke="rgb(60.392157%, 44.705882%, 67.45098%)" stroke-opacity="1" stroke-miterlimit="10" d="M -1.726841 -4.267839 C -1.639539 -4.279102 -1.552238 -4.290299 -1.464936 -4.301562 " transform="matrix(60.046875, 0, 0, -60, 427, 240)"/>
<path fill="none" stroke-width="0.04" stroke-linecap="butt" stroke-linejoin="miter" stroke="rgb(60.392157%, 44.705882%, 67.45098%)" stroke-opacity="1" stroke-miterlimit="10" d="M -1.464936 -4.301562 C -1.376854 -4.301562 -1.288707 -4.301562 -1.200625 -4.301562 " transform="matrix(60.046875, 0, 0, -60, 427, 240)"/>
<path fill="none" stroke-width="0.04" stroke-linecap="butt" stroke-linejoin="miter" stroke="rgb(60.392157%, 44.705882%, 67.45098%)" stroke-opacity="1" stroke-miterlimit="10" d="M -0.898582 -4.301562 C -0.8105 -4.301562 -0.722417 -4.301562 -0.634335 -4.301562 " transform="matrix(60.046875, 0, 0, -60, 427, 240)"/>
<path fill="none" stroke-width="0.04" stroke-linecap="butt" stroke-linejoin="miter" stroke="rgb(60.392157%, 44.705882%, 67.45098%)" stroke-opacity="1" stroke-miterlimit="10" d="M -0.332292 -4.301562 C -0.24421 -4.301562 -0.156063 -4.301562 -0.0679807 -4.301562 " transform="matrix(60.046875, 0, 0, -60, 427, 240)"/>
<path fill="none" stroke-width="0.04" stroke-linecap="butt" stroke-linejoin="miter" stroke="rgb(60.392157%, 44.705882%, 67.45098%)" stroke-opacity="1" stroke-miterlimit="10" d="M 0.234062 -4.301562 C 0.322144 -4.301562 0.410226 -4.301562 0.498309 -4.301562 " transform="matrix(60.046875, 0, 0, -60, 427, 240)"/>
<path fill="none" stroke-width="0.04" stroke-linecap="butt" stroke-linejoin="miter" stroke="rgb(60.392157%, 44.705882%, 67.45098%)" stroke-opacity="1" stroke-miterlimit="10" d="M 0.800351 -4.301562 C 0.888499 -4.301562 0.976581 -4.301562 1.064663 -4.301562 " transform="matrix(60.046875, 0, 0, -60, 427, 240)"/>
<path fill="none" stroke-width="0.04" stroke-linecap="butt" stroke-linejoin="miter" stroke="rgb(60.392157%, 44.705882%, 67.45098%)" stroke-opacity="1" stroke-miterlimit="10" d="M 1.366706 -4.301562 C 1.454788 -4.301562 1.54287 -4.301562 1.631017 -4.301562 " transform="matrix(60.046875, 0, 0, -60, 427, 240)"/>
<path fill="none" stroke-width="0.04" stroke-linecap="butt" stroke-linejoin="miter" stroke="rgb(60.392157%, 44.705882%, 67.45098%)" stroke-opacity="1" stroke-miterlimit="10" d="M 1.93306 -4.301562 C 2.021142 -4.301562 2.109225 -4.301562 2.197307 -4.301562 " transform="matrix(60.046875, 0, 0, -60, 427, 240)"/>
<path fill="none" stroke-width="0.04" stroke-linecap="butt" stroke-linejoin="miter" stroke="rgb(60.392157%, 44.705882%, 67.45098%)" stroke-opacity="1" stroke-miterlimit="10" d="M 2.499349 -4.301562 C 2.587432 -4.301562 2.675579 -4.301562 2.763661 -4.301562 " transform="matrix(60.046875, 0, 0, -60, 427, 240)"/>
<path fill="none" stroke-width="0.04" stroke-linecap="butt" stroke-linejoin="miter" stroke="rgb(60.392157%, 44.705882%, 67.45098%)" stroke-opacity="1" stroke-miterlimit="10" d="M 2.763661 -4.301562 C 2.850963 -4.290299 2.938264 -4.279102 3.025566 -4.267839 " transform="matrix(60.046875, 0, 0, -60, 427, 240)"/>
<path fill="none" stroke-width="0.04" stroke-linecap="butt" stroke-linejoin="miter" stroke="rgb(60.392157%, 44.705882%, 67.45098%)" stroke-opacity="1" stroke-miterlimit="10" d="M 3.324876 -4.229362 C 3.412178 -4.218099 3.49948 -4.206836 3.586781 -4.195638 " transform="matrix(60.046875, 0, 0, -60, 427, 240)"/>
<path fill="none" stroke-width="0.04" stroke-linecap="butt" stroke-linejoin="miter" stroke="rgb(60.392157%, 44.705882%, 67.45098%)" stroke-opacity="1" stroke-miterlimit="10" d="M 3.886092 -4.157096 C 3.973393 -4.145898 4.060695 -4.134635 4.147996 -4.123437 " transform="matrix(60.046875, 0, 0, -60, 427, 240)"/>
<path fill="none" stroke-width="0.04" stroke-linecap="butt" stroke-linejoin="miter" stroke="rgb(60.392157%, 44.705882%, 67.45098%)" stroke-opacity="1" stroke-miterlimit="10" d="M 4.447307 -4.084896 C 4.534608 -4.073633 4.62191 -4.062435 4.709212 -4.051172 " transform="matrix(60.046875, 0, 0, -60, 427, 240)"/>
<path fill="none" stroke-width="0.04" stroke-linecap="butt" stroke-linejoin="miter" stroke="rgb(60.392157%, 44.705882%, 67.45098%)" stroke-opacity="1" stroke-miterlimit="10" d="M 5.008522 -4.01263 C 5.095824 -4.001432 5.183125 -3.990169 5.270427 -3.978971 " transform="matrix(60.046875, 0, 0, -60, 427, 240)"/>
<path fill="none" stroke-width="0.04" stroke-linecap="butt" stroke-linejoin="miter" stroke="rgb(60.392157%, 44.705882%, 67.45098%)" stroke-opacity="1" stroke-miterlimit="10" d="M 5.569737 -3.94043 C 5.657039 -3.929232 5.74434 -3.917969 5.831642 -3.906706 " transform="matrix(60.046875, 0, 0, -60, 427, 240)"/>
<path fill="none" stroke-width="0.04" stroke-linecap="butt" stroke-linejoin="miter" stroke="rgb(60.392157%, 44.705882%, 67.45098%)" stroke-opacity="1" stroke-miterlimit="10" d="M 6.131017 -3.868229 C 6.218319 -3.856966 6.305621 -3.845768 6.392922 -3.834505 " transform="matrix(60.046875, 0, 0, -60, 427, 240)"/>
<path fill="none" stroke-width="0.04" stroke-linecap="butt" stroke-linejoin="miter" stroke="rgb(60.392157%, 44.705882%, 67.45098%)" stroke-opacity="1" stroke-miterlimit="10" d="M 6.692233 -3.795964 C 6.779534 -3.784766 6.866836 -3.773503 6.954137 -3.762305 " transform="matrix(60.046875, 0, 0, -60, 427, 240)"/>
<path fill="none" stroke-width="0.04" stroke-linecap="butt" stroke-linejoin="miter" stroke="rgb(60.392157%, 44.705882%, 67.45098%)" stroke-opacity="1" stroke-miterlimit="10" d="M 6.954137 -3.762305 C 7.039813 -3.746224 7.125553 -3.730143 7.211293 -3.714128 " transform="matrix(60.046875, 0, 0, -60, 427, 240)"/>
<path fill="none" stroke-width="0.04" stroke-linecap="butt" stroke-linejoin="miter" stroke="rgb(60.392157%, 44.705882%, 67.45098%)" stroke-opacity="1" stroke-miterlimit="10" d="M 7.505139 -3.659049 C 7.59088 -3.643034 7.676555 -3.626953 7.762295 -3.610937 " transform="matrix(60.046875, 0, 0, -60, 427, 240)"/>
<path fill="none" stroke-width="0.04" stroke-linecap="butt" stroke-linejoin="miter" stroke="rgb(60.392157%, 44.705882%, 67.45098%)" stroke-opacity="1" stroke-miterlimit="10" d="M -7.796903 2.841732 C -7.717538 2.82207 -7.638173 2.802474 -7.558808 2.782812 " transform="matrix(60.046875, 0, 0, -60, 427, 240)"/>
<path fill="none" stroke-width="0.04" stroke-linecap="butt" stroke-linejoin="miter" stroke="rgb(60.392157%, 44.705882%, 67.45098%)" stroke-opacity="1" stroke-miterlimit="10" d="M -7.28669 2.71556 C -7.207325 2.695898 -7.12796 2.676302 -7.048595 2.656641 " transform="matrix(60.046875, 0, 0, -60, 427, 240)"/>
<path fill="none" stroke-width="0.04" stroke-linecap="butt" stroke-linejoin="miter" stroke="rgb(60.392157%, 44.705882%, 67.45098%)" stroke-opacity="1" stroke-miterlimit="10" d="M -6.776477 2.589388 C -6.697112 2.569727 -6.617747 2.55013 -6.538381 2.530534 " transform="matrix(60.046875, 0, 0, -60, 427, 240)"/>
<path fill="none" stroke-width="0.04" stroke-linecap="butt" stroke-linejoin="miter" stroke="rgb(60.392157%, 44.705882%, 67.45098%)" stroke-opacity="1" stroke-miterlimit="10" d="M -6.266263 2.463216 C -6.186898 2.44362 -6.107533 2.423958 -6.028168 2.404362 " transform="matrix(60.046875, 0, 0, -60, 427, 240)"/>
<path fill="none" stroke-width="0.04" stroke-linecap="butt" stroke-linejoin="miter" stroke="rgb(60.392157%, 44.705882%, 67.45098%)" stroke-opacity="1" stroke-miterlimit="10" d="M -5.756115 2.337044 C -5.67675 2.317448 -5.597385 2.297786 -5.51802 2.27819 " transform="matrix(60.046875, 0, 0, -60, 427, 240)"/>
<path fill="none" stroke-width="0.04" stroke-linecap="butt" stroke-linejoin="miter" stroke="rgb(60.392157%, 44.705882%, 67.45098%)" stroke-opacity="1" stroke-miterlimit="10" d="M -5.245902 2.210872 C -5.166537 2.191276 -5.087171 2.171615 -5.007806 2.152018 " transform="matrix(60.046875, 0, 0, -60, 427, 240)"/>
<path fill="none" stroke-width="0.04" stroke-linecap="butt" stroke-linejoin="miter" stroke="rgb(60.392157%, 44.705882%, 67.45098%)" stroke-opacity="1" stroke-miterlimit="10" d="M -5.007806 2.152018 C -4.929222 2.142578 -4.850638 2.133073 -4.772053 2.123633 " transform="matrix(60.046875, 0, 0, -60, 427, 240)"/>
<path fill="none" stroke-width="0.04" stroke-linecap="butt" stroke-linejoin="miter" stroke="rgb(60.392157%, 44.705882%, 67.45098%)" stroke-opacity="1" stroke-miterlimit="10" d="M -4.502667 2.091276 C -4.424083 2.081836 -4.345563 2.072331 -4.266979 2.062891 " transform="matrix(60.046875, 0, 0, -60, 427, 240)"/>
<path fill="none" stroke-width="0.04" stroke-linecap="butt" stroke-linejoin="miter" stroke="rgb(60.392157%, 44.705882%, 67.45098%)" stroke-opacity="1" stroke-miterlimit="10" d="M -3.997593 2.030534 C -3.919009 2.021094 -3.840424 2.011589 -3.76184 2.002148 " transform="matrix(60.046875, 0, 0, -60, 427, 240)"/>
<path fill="none" stroke-width="0.04" stroke-linecap="butt" stroke-linejoin="miter" stroke="rgb(60.392157%, 44.705882%, 67.45098%)" stroke-opacity="1" stroke-miterlimit="10" d="M -3.492454 1.969792 C -3.413934 1.960286 -3.33535 1.950846 -3.256766 1.941406 " transform="matrix(60.046875, 0, 0, -60, 427, 240)"/>
<path fill="none" stroke-width="0.04" stroke-linecap="butt" stroke-linejoin="miter" stroke="rgb(60.392157%, 44.705882%, 67.45098%)" stroke-opacity="1" stroke-miterlimit="10" d="M -2.98738 1.909049 C -2.908795 1.899544 -2.830211 1.890104 -2.751691 1.880664 " transform="matrix(60.046875, 0, 0, -60, 427, 240)"/>
<path fill="none" stroke-width="0.04" stroke-linecap="butt" stroke-linejoin="miter" stroke="rgb(60.392157%, 44.705882%, 67.45098%)" stroke-opacity="1" stroke-miterlimit="10" d="M -2.482305 1.848307 C -2.403721 1.838802 -2.325137 1.829362 -2.246552 1.819922 " transform="matrix(60.046875, 0, 0, -60, 427, 240)"/>
<path fill="none" stroke-width="0.04" stroke-linecap="butt" stroke-linejoin="miter" stroke="rgb(60.392157%, 44.705882%, 67.45098%)" stroke-opacity="1" stroke-miterlimit="10" d="M -1.977166 1.7875 C -1.898582 1.77806 -1.819997 1.76862 -1.741478 1.75918 " transform="matrix(60.046875, 0, 0, -60, 427, 240)"/>
<path fill="none" stroke-width="0.04" stroke-linecap="butt" stroke-linejoin="miter" stroke="rgb(60.392157%, 44.705882%, 67.45098%)" stroke-opacity="1" stroke-miterlimit="10" d="M -1.472092 1.726758 C -1.393508 1.717318 -1.314923 1.707878 -1.236339 1.698437 " transform="matrix(60.046875, 0, 0, -60, 427, 240)"/>
<path fill="none" stroke-width="0.04" stroke-linecap="butt" stroke-linejoin="miter" stroke="rgb(60.392157%, 44.705882%, 67.45098%)" stroke-opacity="1" stroke-miterlimit="10" d="M -1.236339 1.698437 C -1.157754 1.698437 -1.079235 1.698437 -1.000651 1.698437 " transform="matrix(60.046875, 0, 0, -60, 427, 240)"/>
<path fill="none" stroke-width="0.04" stroke-linecap="butt" stroke-linejoin="miter" stroke="rgb(60.392157%, 44.705882%, 67.45098%)" stroke-opacity="1" stroke-miterlimit="10" d="M -0.731265 1.698437 C -0.65268 1.698437 -0.574096 1.698437 -0.495511 1.698437 " transform="matrix(60.046875, 0, 0, -60, 427, 240)"/>
<path fill="none" stroke-width="0.04" stroke-linecap="butt" stroke-linejoin="miter" stroke="rgb(60.392157%, 44.705882%, 67.45098%)" stroke-opacity="1" stroke-miterlimit="10" d="M -0.226125 1.698437 C -0.147606 1.698437 -0.0690216 1.698437 0.00956284 1.698437 " transform="matrix(60.046875, 0, 0, -60, 427, 240)"/>
<path fill="none" stroke-width="0.04" stroke-linecap="butt" stroke-linejoin="miter" stroke="rgb(60.392157%, 44.705882%, 67.45098%)" stroke-opacity="1" stroke-miterlimit="10" d="M 0.278949 1.698437 C 0.357533 1.698437 0.436118 1.698437 0.514637 1.698437 " transform="matrix(60.046875, 0, 0, -60, 427, 240)"/>
<path fill="none" stroke-width="0.04" stroke-linecap="butt" stroke-linejoin="miter" stroke="rgb(60.392157%, 44.705882%, 67.45098%)" stroke-opacity="1" stroke-miterlimit="10" d="M 0.784023 1.698437 C 0.862607 1.698437 0.941192 1.698437 1.019776 1.698437 " transform="matrix(60.046875, 0, 0, -60, 427, 240)"/>
<path fill="none" stroke-width="0.04" stroke-linecap="butt" stroke-linejoin="miter" stroke="rgb(60.392157%, 44.705882%, 67.45098%)" stroke-opacity="1" stroke-miterlimit="10" d="M 1.289162 1.698437 C 1.367747 1.698437 1.446266 1.698437 1.52485 1.698437 " transform="matrix(60.046875, 0, 0, -60, 427, 240)"/>
<path fill="none" stroke-width="0.04" stroke-linecap="butt" stroke-linejoin="miter" stroke="rgb(60.392157%, 44.705882%, 67.45098%)" stroke-opacity="1" stroke-miterlimit="10" d="M 1.794236 1.698437 C 1.872821 1.698437 1.951405 1.698437 2.02999 1.698437 " transform="matrix(60.046875, 0, 0, -60, 427, 240)"/>
<path fill="none" stroke-width="0.04" stroke-linecap="butt" stroke-linejoin="miter" stroke="rgb(60.392157%, 44.705882%, 67.45098%)" stroke-opacity="1" stroke-miterlimit="10" d="M 2.299375 1.698437 C 2.37796 1.698437 2.456479 1.698437 2.535064 1.698437 " transform="matrix(60.046875, 0, 0, -60, 427, 240)"/>
<path fill="none" stroke-width="0.04" stroke-linecap="butt" stroke-linejoin="miter" stroke="rgb(60.392157%, 44.705882%, 67.45098%)" stroke-opacity="1" stroke-miterlimit="10" d="M 2.535064 1.698437 C 2.613648 1.707878 2.692233 1.717318 2.770817 1.726758 " transform="matrix(60.046875, 0, 0, -60, 427, 240)"/>
<path fill="none" stroke-width="0.04" stroke-linecap="butt" stroke-linejoin="miter" stroke="rgb(60.392157%, 44.705882%, 67.45098%)" stroke-opacity="1" stroke-miterlimit="10" d="M 3.040203 1.75918 C 3.118722 1.76862 3.197307 1.77806 3.275891 1.7875 " transform="matrix(60.046875, 0, 0, -60, 427, 240)"/>
<path fill="none" stroke-width="0.04" stroke-linecap="butt" stroke-linejoin="miter" stroke="rgb(60.392157%, 44.705882%, 67.45098%)" stroke-opacity="1" stroke-miterlimit="10" d="M 3.545277 1.819922 C 3.623862 1.829362 3.702446 1.838802 3.780965 1.848307 " transform="matrix(60.046875, 0, 0, -60, 427, 240)"/>
<path fill="none" stroke-width="0.04" stroke-linecap="butt" stroke-linejoin="miter" stroke="rgb(60.392157%, 44.705882%, 67.45098%)" stroke-opacity="1" stroke-miterlimit="10" d="M 4.050351 1.880664 C 4.128936 1.890104 4.20752 1.899544 4.286105 1.909049 " transform="matrix(60.046875, 0, 0, -60, 427, 240)"/>
<path fill="none" stroke-width="0.04" stroke-linecap="butt" stroke-linejoin="miter" stroke="rgb(60.392157%, 44.705882%, 67.45098%)" stroke-opacity="1" stroke-miterlimit="10" d="M 4.555491 1.941406 C 4.634075 1.950846 4.712594 1.960286 4.791179 1.969792 " transform="matrix(60.046875, 0, 0, -60, 427, 240)"/>
<path fill="none" stroke-width="0.04" stroke-linecap="butt" stroke-linejoin="miter" stroke="rgb(60.392157%, 44.705882%, 67.45098%)" stroke-opacity="1" stroke-miterlimit="10" d="M 5.060565 2.002148 C 5.139149 2.011589 5.217734 2.021094 5.296318 2.030534 " transform="matrix(60.046875, 0, 0, -60, 427, 240)"/>
<path fill="none" stroke-width="0.04" stroke-linecap="butt" stroke-linejoin="miter" stroke="rgb(60.392157%, 44.705882%, 67.45098%)" stroke-opacity="1" stroke-miterlimit="10" d="M 5.565704 2.062891 C 5.644288 2.072331 5.722808 2.081836 5.801392 2.091276 " transform="matrix(60.046875, 0, 0, -60, 427, 240)"/>
<path fill="none" stroke-width="0.04" stroke-linecap="butt" stroke-linejoin="miter" stroke="rgb(60.392157%, 44.705882%, 67.45098%)" stroke-opacity="1" stroke-miterlimit="10" d="M 6.070778 2.123633 C 6.149362 2.133073 6.227947 2.142578 6.306531 2.152018 " transform="matrix(60.046875, 0, 0, -60, 427, 240)"/>
<path fill="none" stroke-width="0.04" stroke-linecap="butt" stroke-linejoin="miter" stroke="rgb(60.392157%, 44.705882%, 67.45098%)" stroke-opacity="1" stroke-miterlimit="10" d="M 6.306531 2.152018 C 6.385896 2.171615 6.465262 2.191276 6.544627 2.210872 " transform="matrix(60.046875, 0, 0, -60, 427, 240)"/>
<path fill="none" stroke-width="0.04" stroke-linecap="butt" stroke-linejoin="miter" stroke="rgb(60.392157%, 44.705882%, 67.45098%)" stroke-opacity="1" stroke-miterlimit="10" d="M 6.81668 2.27819 C 6.896045 2.297786 6.97541 2.317448 7.054775 2.337044 " transform="matrix(60.046875, 0, 0, -60, 427, 240)"/>
<path fill="none" stroke-width="0.04" stroke-linecap="butt" stroke-linejoin="miter" stroke="rgb(60.392157%, 44.705882%, 67.45098%)" stroke-opacity="1" stroke-miterlimit="10" d="M 7.326893 2.404362 C 7.406258 2.423958 7.485623 2.44362 7.564988 2.463216 " transform="matrix(60.046875, 0, 0, -60, 427, 240)"/>
<path fill="none" stroke-width="0.04" stroke-linecap="butt" stroke-linejoin="miter" stroke="rgb(60.392157%, 44.705882%, 67.45098%)" stroke-opacity="1" stroke-miterlimit="10" d="M -5.655412 -3.762305 C -5.646435 -3.680143 -5.637393 -3.597982 -5.628415 -3.515885 " transform="matrix(60.046875, 0, 0, -60, 427, 240)"/>
<path fill="none" stroke-width="0.04" stroke-linecap="butt" stroke-linejoin="miter" stroke="rgb(60.392157%, 44.705882%, 67.45098%)" stroke-opacity="1" stroke-miterlimit="10" d="M -5.599011 -3.247005 C -5.589969 -3.164909 -5.580991 -3.082747 -5.572014 -3.000586 " transform="matrix(60.046875, 0, 0, -60, 427, 240)"/>
<path fill="none" stroke-width="0.04" stroke-linecap="butt" stroke-linejoin="miter" stroke="rgb(60.392157%, 44.705882%, 67.45098%)" stroke-opacity="1" stroke-miterlimit="10" d="M -5.542545 -2.731771 C -5.533568 -2.649609 -5.52459 -2.567448 -5.515548 -2.485352 " transform="matrix(60.046875, 0, 0, -60, 427, 240)"/>
<path fill="none" stroke-width="0.04" stroke-linecap="butt" stroke-linejoin="miter" stroke="rgb(60.392157%, 44.705882%, 67.45098%)" stroke-opacity="1" stroke-miterlimit="10" d="M -5.486144 -2.216536 C -5.477166 -2.134375 -5.468124 -2.052214 -5.459147 -1.970052 " transform="matrix(60.046875, 0, 0, -60, 427, 240)"/>
<path fill="none" stroke-width="0.04" stroke-linecap="butt" stroke-linejoin="miter" stroke="rgb(60.392157%, 44.705882%, 67.45098%)" stroke-opacity="1" stroke-miterlimit="10" d="M -5.429742 -1.701237 C -5.4207 -1.619076 -5.411723 -1.536979 -5.402745 -1.454818 " transform="matrix(60.046875, 0, 0, -60, 427, 240)"/>
<path fill="none" stroke-width="0.04" stroke-linecap="butt" stroke-linejoin="miter" stroke="rgb(60.392157%, 44.705882%, 67.45098%)" stroke-opacity="1" stroke-miterlimit="10" d="M -5.373276 -1.186003 C -5.364299 -1.103841 -5.355321 -1.02168 -5.346344 -0.939583 " transform="matrix(60.046875, 0, 0, -60, 427, 240)"/>
<path fill="none" stroke-width="0.04" stroke-linecap="butt" stroke-linejoin="miter" stroke="rgb(60.392157%, 44.705882%, 67.45098%)" stroke-opacity="1" stroke-miterlimit="10" d="M -5.316875 -0.670703 C -5.307897 -0.588607 -5.298855 -0.506445 -5.289878 -0.424284 " transform="matrix(60.046875, 0, 0, -60, 427, 240)"/>
<path fill="none" stroke-width="0.04" stroke-linecap="butt" stroke-linejoin="miter" stroke="rgb(60.392157%, 44.705882%, 67.45098%)" stroke-opacity="1" stroke-miterlimit="10" d="M -5.260474 -0.155469 C -5.251431 -0.0733073 -5.242454 0.00878906 -5.233476 0.0909505 " transform="matrix(60.046875, 0, 0, -60, 427, 240)"/>
<path fill="none" stroke-width="0.04" stroke-linecap="butt" stroke-linejoin="miter" stroke="rgb(60.392157%, 44.705882%, 67.45098%)" stroke-opacity="1" stroke-miterlimit="10" d="M -5.204007 0.359766 C -5.19503 0.441927 -5.186053 0.524089 -5.177075 0.60625 " transform="matrix(60.046875, 0, 0, -60, 427, 240)"/>
<path fill="none" stroke-width="0.04" stroke-linecap="butt" stroke-linejoin="miter" stroke="rgb(60.392157%, 44.705882%, 67.45098%)" stroke-opacity="1" stroke-miterlimit="10" d="M -5.147606 0.875065 C -5.138629 0.957227 -5.129651 1.039323 -5.120609 1.121484 " transform="matrix(60.046875, 0, 0, -60, 427, 240)"/>
<path fill="none" stroke-width="0.04" stroke-linecap="butt" stroke-linejoin="miter" stroke="rgb(60.392157%, 44.705882%, 67.45098%)" stroke-opacity="1" stroke-miterlimit="10" d="M -5.091205 1.390299 C -5.082162 1.472461 -5.073185 1.554622 -5.064208 1.636719 " transform="matrix(60.046875, 0, 0, -60, 427, 240)"/>
<path fill="none" stroke-width="0.04" stroke-linecap="butt" stroke-linejoin="miter" stroke="rgb(60.392157%, 44.705882%, 67.45098%)" stroke-opacity="1" stroke-miterlimit="10" d="M -5.034738 1.905599 C -5.025761 1.987695 -5.016784 2.069857 -5.007806 2.152018 " transform="matrix(60.046875, 0, 0, -60, 427, 240)"/>
<path fill="none" stroke-width="0.04" stroke-linecap="butt" stroke-linejoin="miter" stroke="rgb(60.392157%, 44.705882%, 67.45098%)" stroke-opacity="1" stroke-miterlimit="10" d="M -1.464936 -4.301562 C -1.461749 -4.218229 -1.458561 -4.134896 -1.455373 -4.051562 " transform="matrix(60.046875, 0, 0, -60, 427, 240)"/>
<path fill="none" stroke-width="0.04" stroke-linecap="butt" stroke-linejoin="miter" stroke="rgb(60.392157%, 44.705882%, 67.45098%)" stroke-opacity="1" stroke-miterlimit="10" d="M -1.44503 -3.778841 C -1.441842 -3.695508 -1.438655 -3.612174 -1.435467 -3.528841 " transform="matrix(60.046875, 0, 0, -60, 427, 240)"/>
<path fill="none" stroke-width="0.04" stroke-linecap="butt" stroke-linejoin="miter" stroke="rgb(60.392157%, 44.705882%, 67.45098%)" stroke-opacity="1" stroke-miterlimit="10" d="M -1.425124 -3.25612 C -1.421936 -3.172786 -1.418748 -3.089453 -1.415561 -3.00612 " transform="matrix(60.046875, 0, 0, -60, 427, 240)"/>
<path fill="none" stroke-width="0.04" stroke-linecap="butt" stroke-linejoin="miter" stroke="rgb(60.392157%, 44.705882%, 67.45098%)" stroke-opacity="1" stroke-miterlimit="10" d="M -1.405217 -2.733398 C -1.40203 -2.650065 -1.398842 -2.566732 -1.395654 -2.483398 " transform="matrix(60.046875, 0, 0, -60, 427, 240)"/>
<path fill="none" stroke-width="0.04" stroke-linecap="butt" stroke-linejoin="miter" stroke="rgb(60.392157%, 44.705882%, 67.45098%)" stroke-opacity="1" stroke-miterlimit="10" d="M -1.385246 -2.210677 C -1.382123 -2.127344 -1.378936 -2.04401 -1.375748 -1.960677 " transform="matrix(60.046875, 0, 0, -60, 427, 240)"/>
<path fill="none" stroke-width="0.04" stroke-linecap="butt" stroke-linejoin="miter" stroke="rgb(60.392157%, 44.705882%, 67.45098%)" stroke-opacity="1" stroke-miterlimit="10" d="M -1.36534 -1.687956 C -1.362217 -1.604622 -1.359029 -1.521289 -1.355842 -1.437956 " transform="matrix(60.046875, 0, 0, -60, 427, 240)"/>
<path fill="none" stroke-width="0.04" stroke-linecap="butt" stroke-linejoin="miter" stroke="rgb(60.392157%, 44.705882%, 67.45098%)" stroke-opacity="1" stroke-miterlimit="10" d="M -1.345433 -1.165169 C -1.342246 -1.081836 -1.339123 -0.998503 -1.335935 -0.915169 " transform="matrix(60.046875, 0, 0, -60, 427, 240)"/>
<path fill="none" stroke-width="0.04" stroke-linecap="butt" stroke-linejoin="miter" stroke="rgb(60.392157%, 44.705882%, 67.45098%)" stroke-opacity="1" stroke-miterlimit="10" d="M -1.325527 -0.642448 C -1.322339 -0.559115 -1.319152 -0.475781 -1.316029 -0.392448 " transform="matrix(60.046875, 0, 0, -60, 427, 240)"/>
<path fill="none" stroke-width="0.04" stroke-linecap="butt" stroke-linejoin="miter" stroke="rgb(60.392157%, 44.705882%, 67.45098%)" stroke-opacity="1" stroke-miterlimit="10" d="M -1.305621 -0.119727 C -1.302433 -0.0363932 -1.299245 0.0469401 -1.296123 0.130273 " transform="matrix(60.046875, 0, 0, -60, 427, 240)"/>
<path fill="none" stroke-width="0.04" stroke-linecap="butt" stroke-linejoin="miter" stroke="rgb(60.392157%, 44.705882%, 67.45098%)" stroke-opacity="1" stroke-miterlimit="10" d="M -1.285714 0.402995 C -1.282527 0.486328 -1.279339 0.569661 -1.276151 0.652995 " transform="matrix(60.046875, 0, 0, -60, 427, 240)"/>
<path fill="none" stroke-width="0.04" stroke-linecap="butt" stroke-linejoin="miter" stroke="rgb(60.392157%, 44.705882%, 67.45098%)" stroke-opacity="1" stroke-miterlimit="10" d="M -1.265808 0.925716 C -1.26262 1.009049 -1.259433 1.092383 -1.256245 1.175716 " transform="matrix(60.046875, 0, 0, -60, 427, 240)"/>
<path fill="none" stroke-width="0.04" stroke-linecap="butt" stroke-linejoin="miter" stroke="rgb(60.392157%, 44.705882%, 67.45098%)" stroke-opacity="1" stroke-miterlimit="10" d="M -1.245902 1.448437 C -1.242714 1.531771 -1.239526 1.615104 -1.236339 1.698437 " transform="matrix(60.046875, 0, 0, -60, 427, 240)"/>
<path fill="none" stroke-width="0.04" stroke-linecap="butt" stroke-linejoin="miter" stroke="rgb(60.392157%, 44.705882%, 67.45098%)" stroke-opacity="1" stroke-miterlimit="10" d="M 2.763661 -4.301562 C 2.760474 -4.218229 2.757286 -4.134896 2.754098 -4.051562 " transform="matrix(60.046875, 0, 0, -60, 427, 240)"/>
<path fill="none" stroke-width="0.04" stroke-linecap="butt" stroke-linejoin="miter" stroke="rgb(60.392157%, 44.705882%, 67.45098%)" stroke-opacity="1" stroke-miterlimit="10" d="M 2.743755 -3.778841 C 2.740567 -3.695508 2.73738 -3.612174 2.734192 -3.528841 " transform="matrix(60.046875, 0, 0, -60, 427, 240)"/>
<path fill="none" stroke-width="0.04" stroke-linecap="butt" stroke-linejoin="miter" stroke="rgb(60.392157%, 44.705882%, 67.45098%)" stroke-opacity="1" stroke-miterlimit="10" d="M 2.723849 -3.25612 C 2.720661 -3.172786 2.717473 -3.089453 2.714286 -3.00612 " transform="matrix(60.046875, 0, 0, -60, 427, 240)"/>
<path fill="none" stroke-width="0.04" stroke-linecap="butt" stroke-linejoin="miter" stroke="rgb(60.392157%, 44.705882%, 67.45098%)" stroke-opacity="1" stroke-miterlimit="10" d="M 2.703877 -2.733398 C 2.700755 -2.650065 2.697567 -2.566732 2.694379 -2.483398 " transform="matrix(60.046875, 0, 0, -60, 427, 240)"/>
<path fill="none" stroke-width="0.04" stroke-linecap="butt" stroke-linejoin="miter" stroke="rgb(60.392157%, 44.705882%, 67.45098%)" stroke-opacity="1" stroke-miterlimit="10" d="M 2.683971 -2.210677 C 2.680848 -2.127344 2.677661 -2.04401 2.674473 -1.960677 " transform="matrix(60.046875, 0, 0, -60, 427, 240)"/>
<path fill="none" stroke-width="0.04" stroke-linecap="butt" stroke-linejoin="miter" stroke="rgb(60.392157%, 44.705882%, 67.45098%)" stroke-opacity="1" stroke-miterlimit="10" d="M 2.664065 -1.687956 C 2.660877 -1.604622 2.657754 -1.521289 2.654567 -1.437956 " transform="matrix(60.046875, 0, 0, -60, 427, 240)"/>
<path fill="none" stroke-width="0.04" stroke-linecap="butt" stroke-linejoin="miter" stroke="rgb(60.392157%, 44.705882%, 67.45098%)" stroke-opacity="1" stroke-miterlimit="10" d="M 2.644158 -1.165169 C 2.640971 -1.081836 2.637783 -0.998503 2.63466 -0.915169 " transform="matrix(60.046875, 0, 0, -60, 427, 240)"/>
<path fill="none" stroke-width="0.04" stroke-linecap="butt" stroke-linejoin="miter" stroke="rgb(60.392157%, 44.705882%, 67.45098%)" stroke-opacity="1" stroke-miterlimit="10" d="M 2.624252 -0.642448 C 2.621064 -0.559115 2.617877 -0.475781 2.614754 -0.392448 " transform="matrix(60.046875, 0, 0, -60, 427, 240)"/>
<path fill="none" stroke-width="0.04" stroke-linecap="butt" stroke-linejoin="miter" stroke="rgb(60.392157%, 44.705882%, 67.45098%)" stroke-opacity="1" stroke-miterlimit="10" d="M 2.604346 -0.119727 C 2.601158 -0.0363932 2.59797 0.0469401 2.594783 0.130273 " transform="matrix(60.046875, 0, 0, -60, 427, 240)"/>
<path fill="none" stroke-width="0.04" stroke-linecap="butt" stroke-linejoin="miter" stroke="rgb(60.392157%, 44.705882%, 67.45098%)" stroke-opacity="1" stroke-miterlimit="10" d="M 2.584439 0.402995 C 2.581252 0.486328 2.578064 0.569661 2.574876 0.652995 " transform="matrix(60.046875, 0, 0, -60, 427, 240)"/>
<path fill="none" stroke-width="0.04" stroke-linecap="butt" stroke-linejoin="miter" stroke="rgb(60.392157%, 44.705882%, 67.45098%)" stroke-opacity="1" stroke-miterlimit="10" d="M 2.564533 0.925716 C 2.561345 1.009049 2.558158 1.092383 2.55497 1.175716 " transform="matrix(60.046875, 0, 0, -60, 427, 240)"/>
<path fill="none" stroke-width="0.04" stroke-linecap="butt" stroke-linejoin="miter" stroke="rgb(60.392157%, 44.705882%, 67.45098%)" stroke-opacity="1" stroke-miterlimit="10" d="M 2.544627 1.448437 C 2.541439 1.531771 2.538251 1.615104 2.535064 1.698437 " transform="matrix(60.046875, 0, 0, -60, 427, 240)"/>
<path fill="none" stroke-width="0.04" stroke-linecap="butt" stroke-linejoin="miter" stroke="rgb(60.392157%, 44.705882%, 67.45098%)" stroke-opacity="1" stroke-miterlimit="10" d="M 6.954137 -3.762305 C 6.945095 -3.680143 6.936118 -3.597982 6.92714 -3.515885 " transform="matrix(60.046875, 0, 0, -60, 427, 240)"/>
<path fill="none" stroke-width="0.04" stroke-linecap="butt" stroke-linejoin="miter" stroke="rgb(60.392157%, 44.705882%, 67.45098%)" stroke-opacity="1" stroke-miterlimit="10" d="M 6.897671 -3.247005 C 6.888694 -3.164909 6.879716 -3.082747 6.870739 -3.000586 " transform="matrix(60.046875, 0, 0, -60, 427, 240)"/>
<path fill="none" stroke-width="0.04" stroke-linecap="butt" stroke-linejoin="miter" stroke="rgb(60.392157%, 44.705882%, 67.45098%)" stroke-opacity="1" stroke-miterlimit="10" d="M 6.84127 -2.731771 C 6.832292 -2.649609 6.823315 -2.567448 6.814273 -2.485352 " transform="matrix(60.046875, 0, 0, -60, 427, 240)"/>
<path fill="none" stroke-width="0.04" stroke-linecap="butt" stroke-linejoin="miter" stroke="rgb(60.392157%, 44.705882%, 67.45098%)" stroke-opacity="1" stroke-miterlimit="10" d="M 6.784869 -2.216536 C 6.775891 -2.134375 6.766849 -2.052214 6.757871 -1.970052 " transform="matrix(60.046875, 0, 0, -60, 427, 240)"/>
<path fill="none" stroke-width="0.04" stroke-linecap="butt" stroke-linejoin="miter" stroke="rgb(60.392157%, 44.705882%, 67.45098%)" stroke-opacity="1" stroke-miterlimit="10" d="M 6.728467 -1.701237 C 6.719425 -1.619076 6.710448 -1.536979 6.70147 -1.454818 " transform="matrix(60.046875, 0, 0, -60, 427, 240)"/>
<path fill="none" stroke-width="0.04" stroke-linecap="butt" stroke-linejoin="miter" stroke="rgb(60.392157%, 44.705882%, 67.45098%)" stroke-opacity="1" stroke-miterlimit="10" d="M 6.672001 -1.186003 C 6.663024 -1.103841 6.654046 -1.02168 6.645004 -0.939583 " transform="matrix(60.046875, 0, 0, -60, 427, 240)"/>
<path fill="none" stroke-width="0.04" stroke-linecap="butt" stroke-linejoin="miter" stroke="rgb(60.392157%, 44.705882%, 67.45098%)" stroke-opacity="1" stroke-miterlimit="10" d="M 6.6156 -0.670703 C 6.606622 -0.588607 6.59758 -0.506445 6.588603 -0.424284 " transform="matrix(60.046875, 0, 0, -60, 427, 240)"/>
<path fill="none" stroke-width="0.04" stroke-linecap="butt" stroke-linejoin="miter" stroke="rgb(60.392157%, 44.705882%, 67.45098%)" stroke-opacity="1" stroke-miterlimit="10" d="M 6.559199 -0.155469 C 6.550156 -0.0733073 6.541179 0.00878906 6.532201 0.0909505 " transform="matrix(60.046875, 0, 0, -60, 427, 240)"/>
<path fill="none" stroke-width="0.04" stroke-linecap="butt" stroke-linejoin="miter" stroke="rgb(60.392157%, 44.705882%, 67.45098%)" stroke-opacity="1" stroke-miterlimit="10" d="M 6.502732 0.359766 C 6.493755 0.441927 6.484778 0.524089 6.475735 0.60625 " transform="matrix(60.046875, 0, 0, -60, 427, 240)"/>
<path fill="none" stroke-width="0.04" stroke-linecap="butt" stroke-linejoin="miter" stroke="rgb(60.392157%, 44.705882%, 67.45098%)" stroke-opacity="1" stroke-miterlimit="10" d="M 6.446331 0.875065 C 6.437354 0.957227 6.428311 1.039323 6.419334 1.121484 " transform="matrix(60.046875, 0, 0, -60, 427, 240)"/>
<path fill="none" stroke-width="0.04" stroke-linecap="butt" stroke-linejoin="miter" stroke="rgb(60.392157%, 44.705882%, 67.45098%)" stroke-opacity="1" stroke-miterlimit="10" d="M 6.38993 1.390299 C 6.380887 1.472461 6.37191 1.554622 6.362933 1.636719 " transform="matrix(60.046875, 0, 0, -60, 427, 240)"/>
<path fill="none" stroke-width="0.04" stroke-linecap="butt" stroke-linejoin="miter" stroke="rgb(60.392157%, 44.705882%, 67.45098%)" stroke-opacity="1" stroke-miterlimit="10" d="M 6.333463 1.905599 C 6.324486 1.987695 6.315509 2.069857 6.306531 2.152018 " transform="matrix(60.046875, 0, 0, -60, 427, 240)"/>
<path fill="none" stroke-width="0.04" stroke-linecap="butt" stroke-linejoin="miter" stroke="rgb(60.392157%, 44.705882%, 67.45098%)" stroke-opacity="1" stroke-miterlimit="10" d="M -5.655412 -3.762305 C -5.690541 -3.686133 -5.72567 -3.609896 -5.760799 -3.533724 " transform="matrix(60.046875, 0, 0, -60, 427, 240)"/>
<path fill="none" stroke-width="0.04" stroke-linecap="butt" stroke-linejoin="miter" stroke="rgb(60.392157%, 44.705882%, 67.45098%)" stroke-opacity="1" stroke-miterlimit="10" d="M -5.873731 -3.288867 C -5.90886 -3.212695 -5.943989 -3.136523 -5.979118 -3.060352 " transform="matrix(60.046875, 0, 0, -60, 427, 240)"/>
<path fill="none" stroke-width="0.04" stroke-linecap="butt" stroke-linejoin="miter" stroke="rgb(60.392157%, 44.705882%, 67.45098%)" stroke-opacity="1" stroke-miterlimit="10" d="M -6.09205 -2.81543 C -6.127179 -2.739258 -6.162308 -2.663086 -6.197437 -2.586914 " transform="matrix(60.046875, 0, 0, -60, 427, 240)"/>
<path fill="none" stroke-width="0.04" stroke-linecap="butt" stroke-linejoin="miter" stroke="rgb(60.392157%, 44.705882%, 67.45098%)" stroke-opacity="1" stroke-miterlimit="10" d="M -6.31037 -2.342057 C -6.345498 -2.265885 -6.380627 -2.189648 -6.415756 -2.113477 " transform="matrix(60.046875, 0, 0, -60, 427, 240)"/>
<path fill="none" stroke-width="0.04" stroke-linecap="butt" stroke-linejoin="miter" stroke="rgb(60.392157%, 44.705882%, 67.45098%)" stroke-opacity="1" stroke-miterlimit="10" d="M -6.528689 -1.86862 C -6.563817 -1.792448 -6.598946 -1.716276 -6.634075 -1.640104 " transform="matrix(60.046875, 0, 0, -60, 427, 240)"/>
<path fill="none" stroke-width="0.04" stroke-linecap="butt" stroke-linejoin="miter" stroke="rgb(60.392157%, 44.705882%, 67.45098%)" stroke-opacity="1" stroke-miterlimit="10" d="M -6.747008 -1.395247 C -6.782136 -1.31901 -6.817265 -1.242839 -6.852394 -1.166667 " transform="matrix(60.046875, 0, 0, -60, 427, 240)"/>
<path fill="none" stroke-width="0.04" stroke-linecap="butt" stroke-linejoin="miter" stroke="rgb(60.392157%, 44.705882%, 67.45098%)" stroke-opacity="1" stroke-miterlimit="10" d="M -6.965327 -0.92181 C -7.000455 -0.845638 -7.035584 -0.769466 -7.070713 -0.693229 " transform="matrix(60.046875, 0, 0, -60, 427, 240)"/>
<path fill="none" stroke-width="0.04" stroke-linecap="butt" stroke-linejoin="miter" stroke="rgb(60.392157%, 44.705882%, 67.45098%)" stroke-opacity="1" stroke-miterlimit="10" d="M -7.183646 -0.448372 C -7.218774 -0.372201 -7.253903 -0.296029 -7.289032 -0.219857 " transform="matrix(60.046875, 0, 0, -60, 427, 240)"/>
<path fill="none" stroke-width="0.04" stroke-linecap="butt" stroke-linejoin="miter" stroke="rgb(60.392157%, 44.705882%, 67.45098%)" stroke-opacity="1" stroke-miterlimit="10" d="M -7.401965 0.025 C -7.437093 0.101237 -7.472222 0.177409 -7.507351 0.253581 " transform="matrix(60.046875, 0, 0, -60, 427, 240)"/>
<path fill="none" stroke-width="0.04" stroke-linecap="butt" stroke-linejoin="miter" stroke="rgb(60.392157%, 44.705882%, 67.45098%)" stroke-opacity="1" stroke-miterlimit="10" d="M -7.620284 0.498438 C -7.655412 0.574609 -7.690541 0.650781 -7.72567 0.726953 " transform="matrix(60.046875, 0, 0, -60, 427, 240)"/>
<path fill="none" stroke-width="0.04" stroke-linecap="butt" stroke-linejoin="miter" stroke="rgb(60.392157%, 44.705882%, 67.45098%)" stroke-opacity="1" stroke-miterlimit="10" d="M -1.464936 -4.301562 C -1.504294 -4.229883 -1.543651 -4.158138 -1.583008 -4.086458 " transform="matrix(60.046875, 0, 0, -60, 427, 240)"/>
<path fill="none" stroke-width="0.04" stroke-linecap="butt" stroke-linejoin="miter" stroke="rgb(60.392157%, 44.705882%, 67.45098%)" stroke-opacity="1" stroke-miterlimit="10" d="M -1.709537 -3.85599 C -1.748894 -3.784245 -1.788251 -3.712565 -1.827674 -3.64082 " transform="matrix(60.046875, 0, 0, -60, 427, 240)"/>
<path fill="none" stroke-width="0.04" stroke-linecap="butt" stroke-linejoin="miter" stroke="rgb(60.392157%, 44.705882%, 67.45098%)" stroke-opacity="1" stroke-miterlimit="10" d="M -1.954202 -3.410352 C -1.99356 -3.338672 -2.032917 -3.266927 -2.072274 -3.195247 " transform="matrix(60.046875, 0, 0, -60, 427, 240)"/>
<path fill="none" stroke-width="0.04" stroke-linecap="butt" stroke-linejoin="miter" stroke="rgb(60.392157%, 44.705882%, 67.45098%)" stroke-opacity="1" stroke-miterlimit="10" d="M -2.198803 -2.964779 C -2.23816 -2.893034 -2.277518 -2.821354 -2.316875 -2.749609 " transform="matrix(60.046875, 0, 0, -60, 427, 240)"/>
<path fill="none" stroke-width="0.04" stroke-linecap="butt" stroke-linejoin="miter" stroke="rgb(60.392157%, 44.705882%, 67.45098%)" stroke-opacity="1" stroke-miterlimit="10" d="M -2.443404 -2.519141 C -2.482826 -2.447461 -2.522183 -2.375716 -2.56154 -2.304036 " transform="matrix(60.046875, 0, 0, -60, 427, 240)"/>
<path fill="none" stroke-width="0.04" stroke-linecap="butt" stroke-linejoin="miter" stroke="rgb(60.392157%, 44.705882%, 67.45098%)" stroke-opacity="1" stroke-miterlimit="10" d="M -2.688069 -2.073568 C -2.727426 -2.001823 -2.766784 -1.930143 -2.806141 -1.858398 " transform="matrix(60.046875, 0, 0, -60, 427, 240)"/>
<path fill="none" stroke-width="0.04" stroke-linecap="butt" stroke-linejoin="miter" stroke="rgb(60.392157%, 44.705882%, 67.45098%)" stroke-opacity="1" stroke-miterlimit="10" d="M -2.93267 -1.62793 C -2.972027 -1.55625 -3.011384 -1.484505 -3.050807 -1.412826 " transform="matrix(60.046875, 0, 0, -60, 427, 240)"/>
<path fill="none" stroke-width="0.04" stroke-linecap="butt" stroke-linejoin="miter" stroke="rgb(60.392157%, 44.705882%, 67.45098%)" stroke-opacity="1" stroke-miterlimit="10" d="M -3.177335 -1.182357 C -3.216693 -1.110612 -3.25605 -1.038932 -3.295407 -0.967187 " transform="matrix(60.046875, 0, 0, -60, 427, 240)"/>
<path fill="none" stroke-width="0.04" stroke-linecap="butt" stroke-linejoin="miter" stroke="rgb(60.392157%, 44.705882%, 67.45098%)" stroke-opacity="1" stroke-miterlimit="10" d="M -3.421936 -0.736719 C -3.461293 -0.665039 -3.500651 -0.593294 -3.540008 -0.521615 " transform="matrix(60.046875, 0, 0, -60, 427, 240)"/>
<path fill="none" stroke-width="0.04" stroke-linecap="butt" stroke-linejoin="miter" stroke="rgb(60.392157%, 44.705882%, 67.45098%)" stroke-opacity="1" stroke-miterlimit="10" d="M -3.666537 -0.291146 C -3.705894 -0.219401 -3.745316 -0.147721 -3.784673 -0.0760417 " transform="matrix(60.046875, 0, 0, -60, 427, 240)"/>
<path fill="none" stroke-width="0.04" stroke-linecap="butt" stroke-linejoin="miter" stroke="rgb(60.392157%, 44.705882%, 67.45098%)" stroke-opacity="1" stroke-miterlimit="10" d="M -3.911202 0.154492 C -3.950559 0.226172 -3.989917 0.297852 -4.029274 0.369596 " transform="matrix(60.046875, 0, 0, -60, 427, 240)"/>
<path fill="none" stroke-width="0.04" stroke-linecap="butt" stroke-linejoin="miter" stroke="rgb(60.392157%, 44.705882%, 67.45098%)" stroke-opacity="1" stroke-miterlimit="10" d="M -4.155803 0.600065 C -4.19516 0.67181 -4.234517 0.74349 -4.273875 0.815169 " transform="matrix(60.046875, 0, 0, -60, 427, 240)"/>
<path fill="none" stroke-width="0.04" stroke-linecap="butt" stroke-linejoin="miter" stroke="rgb(60.392157%, 44.705882%, 67.45098%)" stroke-opacity="1" stroke-miterlimit="10" d="M -4.400468 1.045703 C -4.439826 1.117383 -4.479183 1.189062 -4.51854 1.260807 " transform="matrix(60.046875, 0, 0, -60, 427, 240)"/>
<path fill="none" stroke-width="0.04" stroke-linecap="butt" stroke-linejoin="miter" stroke="rgb(60.392157%, 44.705882%, 67.45098%)" stroke-opacity="1" stroke-miterlimit="10" d="M -4.645069 1.491276 C -4.684426 1.562956 -4.723784 1.634701 -4.763141 1.70638 " transform="matrix(60.046875, 0, 0, -60, 427, 240)"/>
<path fill="none" stroke-width="0.04" stroke-linecap="butt" stroke-linejoin="miter" stroke="rgb(60.392157%, 44.705882%, 67.45098%)" stroke-opacity="1" stroke-miterlimit="10" d="M -4.88967 1.936914 C -4.929027 2.008594 -4.968449 2.080273 -5.007806 2.152018 " transform="matrix(60.046875, 0, 0, -60, 427, 240)"/>
<path fill="none" stroke-width="0.04" stroke-linecap="butt" stroke-linejoin="miter" stroke="rgb(60.392157%, 44.705882%, 67.45098%)" stroke-opacity="1" stroke-miterlimit="10" d="M 2.763661 -4.301562 C 2.71923 -4.234896 2.674733 -4.168229 2.630302 -4.101562 " transform="matrix(60.046875, 0, 0, -60, 427, 240)"/>
<path fill="none" stroke-width="0.04" stroke-linecap="butt" stroke-linejoin="miter" stroke="rgb(60.392157%, 44.705882%, 67.45098%)" stroke-opacity="1" stroke-miterlimit="10" d="M 2.487445 -3.887305 C 2.443013 -3.820638 2.398582 -3.753971 2.35415 -3.687305 " transform="matrix(60.046875, 0, 0, -60, 427, 240)"/>
<path fill="none" stroke-width="0.04" stroke-linecap="butt" stroke-linejoin="miter" stroke="rgb(60.392157%, 44.705882%, 67.45098%)" stroke-opacity="1" stroke-miterlimit="10" d="M 2.211293 -3.472982 C 2.166797 -3.406315 2.122365 -3.339648 2.077934 -3.272982 " transform="matrix(60.046875, 0, 0, -60, 427, 240)"/>
<path fill="none" stroke-width="0.04" stroke-linecap="butt" stroke-linejoin="miter" stroke="rgb(60.392157%, 44.705882%, 67.45098%)" stroke-opacity="1" stroke-miterlimit="10" d="M 1.935077 -3.058724 C 1.890645 -2.992057 1.846214 -2.925391 1.801717 -2.858724 " transform="matrix(60.046875, 0, 0, -60, 427, 240)"/>
<path fill="none" stroke-width="0.04" stroke-linecap="butt" stroke-linejoin="miter" stroke="rgb(60.392157%, 44.705882%, 67.45098%)" stroke-opacity="1" stroke-miterlimit="10" d="M 1.65886 -2.644401 C 1.614429 -2.577734 1.569997 -2.511068 1.525566 -2.444401 " transform="matrix(60.046875, 0, 0, -60, 427, 240)"/>
<path fill="none" stroke-width="0.04" stroke-linecap="butt" stroke-linejoin="miter" stroke="rgb(60.392157%, 44.705882%, 67.45098%)" stroke-opacity="1" stroke-miterlimit="10" d="M 1.382709 -2.230143 C 1.338277 -2.163477 1.293781 -2.09681 1.249349 -2.030143 " transform="matrix(60.046875, 0, 0, -60, 427, 240)"/>
<path fill="none" stroke-width="0.04" stroke-linecap="butt" stroke-linejoin="miter" stroke="rgb(60.392157%, 44.705882%, 67.45098%)" stroke-opacity="1" stroke-miterlimit="10" d="M 1.106492 -1.81582 C 1.062061 -1.749154 1.017629 -1.682487 0.973198 -1.61582 " transform="matrix(60.046875, 0, 0, -60, 427, 240)"/>
<path fill="none" stroke-width="0.04" stroke-linecap="butt" stroke-linejoin="miter" stroke="rgb(60.392157%, 44.705882%, 67.45098%)" stroke-opacity="1" stroke-miterlimit="10" d="M 0.830341 -1.401562 C 0.785844 -1.334896 0.741413 -1.268229 0.696982 -1.201562 " transform="matrix(60.046875, 0, 0, -60, 427, 240)"/>
<path fill="none" stroke-width="0.04" stroke-linecap="butt" stroke-linejoin="miter" stroke="rgb(60.392157%, 44.705882%, 67.45098%)" stroke-opacity="1" stroke-miterlimit="10" d="M 0.554124 -0.987305 C 0.509693 -0.920638 0.465262 -0.853971 0.420765 -0.787305 " transform="matrix(60.046875, 0, 0, -60, 427, 240)"/>
<path fill="none" stroke-width="0.04" stroke-linecap="butt" stroke-linejoin="miter" stroke="rgb(60.392157%, 44.705882%, 67.45098%)" stroke-opacity="1" stroke-miterlimit="10" d="M 0.277908 -0.572982 C 0.233476 -0.506315 0.189045 -0.439648 0.144614 -0.372982 " transform="matrix(60.046875, 0, 0, -60, 427, 240)"/>
<path fill="none" stroke-width="0.04" stroke-linecap="butt" stroke-linejoin="miter" stroke="rgb(60.392157%, 44.705882%, 67.45098%)" stroke-opacity="1" stroke-miterlimit="10" d="M 0.00175644 -0.158724 C -0.042675 -0.0920573 -0.0871715 -0.0253906 -0.131603 0.041276 " transform="matrix(60.046875, 0, 0, -60, 427, 240)"/>
<path fill="none" stroke-width="0.04" stroke-linecap="butt" stroke-linejoin="miter" stroke="rgb(60.392157%, 44.705882%, 67.45098%)" stroke-opacity="1" stroke-miterlimit="10" d="M -0.27446 0.255599 C -0.318891 0.322266 -0.363323 0.388932 -0.407754 0.455599 " transform="matrix(60.046875, 0, 0, -60, 427, 240)"/>
<path fill="none" stroke-width="0.04" stroke-linecap="butt" stroke-linejoin="miter" stroke="rgb(60.392157%, 44.705882%, 67.45098%)" stroke-opacity="1" stroke-miterlimit="10" d="M -0.550612 0.669857 C -0.595108 0.736523 -0.639539 0.80319 -0.683971 0.869857 " transform="matrix(60.046875, 0, 0, -60, 427, 240)"/>
<path fill="none" stroke-width="0.04" stroke-linecap="butt" stroke-linejoin="miter" stroke="rgb(60.392157%, 44.705882%, 67.45098%)" stroke-opacity="1" stroke-miterlimit="10" d="M -0.826828 1.08418 C -0.871259 1.150846 -0.915691 1.217513 -0.960187 1.28418 " transform="matrix(60.046875, 0, 0, -60, 427, 240)"/>
<path fill="none" stroke-width="0.04" stroke-linecap="butt" stroke-linejoin="miter" stroke="rgb(60.392157%, 44.705882%, 67.45098%)" stroke-opacity="1" stroke-miterlimit="10" d="M -1.103044 1.498438 C -1.147476 1.565104 -1.191907 1.631771 -1.236339 1.698437 " transform="matrix(60.046875, 0, 0, -60, 427, 240)"/>
<path fill="none" stroke-width="0.04" stroke-linecap="butt" stroke-linejoin="miter" stroke="rgb(60.392157%, 44.705882%, 67.45098%)" stroke-opacity="1" stroke-miterlimit="10" d="M -1.464936 -4.301562 C -1.420505 -4.234896 -1.376008 -4.168229 -1.331577 -4.101562 " transform="matrix(60.046875, 0, 0, -60, 427, 240)"/>
<path fill="none" stroke-width="0.04" stroke-linecap="butt" stroke-linejoin="miter" stroke="rgb(60.392157%, 44.705882%, 67.45098%)" stroke-opacity="1" stroke-miterlimit="10" d="M -1.18872 -3.887305 C -1.144288 -3.820638 -1.099857 -3.753971 -1.055425 -3.687305 " transform="matrix(60.046875, 0, 0, -60, 427, 240)"/>
<path fill="none" stroke-width="0.04" stroke-linecap="butt" stroke-linejoin="miter" stroke="rgb(60.392157%, 44.705882%, 67.45098%)" stroke-opacity="1" stroke-miterlimit="10" d="M -0.912568 -3.472982 C -0.868072 -3.406315 -0.82364 -3.339648 -0.779209 -3.272982 " transform="matrix(60.046875, 0, 0, -60, 427, 240)"/>
<path fill="none" stroke-width="0.04" stroke-linecap="butt" stroke-linejoin="miter" stroke="rgb(60.392157%, 44.705882%, 67.45098%)" stroke-opacity="1" stroke-miterlimit="10" d="M -0.636352 -3.058724 C -0.59192 -2.992057 -0.547489 -2.925391 -0.502992 -2.858724 " transform="matrix(60.046875, 0, 0, -60, 427, 240)"/>
<path fill="none" stroke-width="0.04" stroke-linecap="butt" stroke-linejoin="miter" stroke="rgb(60.392157%, 44.705882%, 67.45098%)" stroke-opacity="1" stroke-miterlimit="10" d="M -0.360135 -2.644401 C -0.315704 -2.577734 -0.271272 -2.511068 -0.226841 -2.444401 " transform="matrix(60.046875, 0, 0, -60, 427, 240)"/>
<path fill="none" stroke-width="0.04" stroke-linecap="butt" stroke-linejoin="miter" stroke="rgb(60.392157%, 44.705882%, 67.45098%)" stroke-opacity="1" stroke-miterlimit="10" d="M -0.0839839 -2.230143 C -0.0395524 -2.163477 0.00494405 -2.09681 0.0493755 -2.030143 " transform="matrix(60.046875, 0, 0, -60, 427, 240)"/>
<path fill="none" stroke-width="0.04" stroke-linecap="butt" stroke-linejoin="miter" stroke="rgb(60.392157%, 44.705882%, 67.45098%)" stroke-opacity="1" stroke-miterlimit="10" d="M 0.192233 -1.81582 C 0.236664 -1.749154 0.281095 -1.682487 0.325527 -1.61582 " transform="matrix(60.046875, 0, 0, -60, 427, 240)"/>
<path fill="none" stroke-width="0.04" stroke-linecap="butt" stroke-linejoin="miter" stroke="rgb(60.392157%, 44.705882%, 67.45098%)" stroke-opacity="1" stroke-miterlimit="10" d="M 0.468384 -1.401562 C 0.512881 -1.334896 0.557312 -1.268229 0.601743 -1.201562 " transform="matrix(60.046875, 0, 0, -60, 427, 240)"/>
<path fill="none" stroke-width="0.04" stroke-linecap="butt" stroke-linejoin="miter" stroke="rgb(60.392157%, 44.705882%, 67.45098%)" stroke-opacity="1" stroke-miterlimit="10" d="M 0.744601 -0.987305 C 0.789032 -0.920638 0.833463 -0.853971 0.87796 -0.787305 " transform="matrix(60.046875, 0, 0, -60, 427, 240)"/>
<path fill="none" stroke-width="0.04" stroke-linecap="butt" stroke-linejoin="miter" stroke="rgb(60.392157%, 44.705882%, 67.45098%)" stroke-opacity="1" stroke-miterlimit="10" d="M 1.020817 -0.572982 C 1.065249 -0.506315 1.10968 -0.439648 1.154111 -0.372982 " transform="matrix(60.046875, 0, 0, -60, 427, 240)"/>
<path fill="none" stroke-width="0.04" stroke-linecap="butt" stroke-linejoin="miter" stroke="rgb(60.392157%, 44.705882%, 67.45098%)" stroke-opacity="1" stroke-miterlimit="10" d="M 1.296969 -0.158724 C 1.3414 -0.0920573 1.385896 -0.0253906 1.430328 0.041276 " transform="matrix(60.046875, 0, 0, -60, 427, 240)"/>
<path fill="none" stroke-width="0.04" stroke-linecap="butt" stroke-linejoin="miter" stroke="rgb(60.392157%, 44.705882%, 67.45098%)" stroke-opacity="1" stroke-miterlimit="10" d="M 1.573185 0.255599 C 1.617616 0.322266 1.662048 0.388932 1.706479 0.455599 " transform="matrix(60.046875, 0, 0, -60, 427, 240)"/>
<path fill="none" stroke-width="0.04" stroke-linecap="butt" stroke-linejoin="miter" stroke="rgb(60.392157%, 44.705882%, 67.45098%)" stroke-opacity="1" stroke-miterlimit="10" d="M 1.849336 0.669857 C 1.893833 0.736523 1.938264 0.80319 1.982696 0.869857 " transform="matrix(60.046875, 0, 0, -60, 427, 240)"/>
<path fill="none" stroke-width="0.04" stroke-linecap="butt" stroke-linejoin="miter" stroke="rgb(60.392157%, 44.705882%, 67.45098%)" stroke-opacity="1" stroke-miterlimit="10" d="M 2.125553 1.08418 C 2.169984 1.150846 2.214416 1.217513 2.258912 1.28418 " transform="matrix(60.046875, 0, 0, -60, 427, 240)"/>
<path fill="none" stroke-width="0.04" stroke-linecap="butt" stroke-linejoin="miter" stroke="rgb(60.392157%, 44.705882%, 67.45098%)" stroke-opacity="1" stroke-miterlimit="10" d="M 2.401769 1.498438 C 2.446201 1.565104 2.490632 1.631771 2.535064 1.698437 " transform="matrix(60.046875, 0, 0, -60, 427, 240)"/>
<path fill="none" stroke-width="0.04" stroke-linecap="butt" stroke-linejoin="miter" stroke="rgb(60.392157%, 44.705882%, 67.45098%)" stroke-opacity="1" stroke-miterlimit="10" d="M 2.763661 -4.301562 C 2.803018 -4.229883 2.842376 -4.158138 2.881733 -4.086458 " transform="matrix(60.046875, 0, 0, -60, 427, 240)"/>
<path fill="none" stroke-width="0.04" stroke-linecap="butt" stroke-linejoin="miter" stroke="rgb(60.392157%, 44.705882%, 67.45098%)" stroke-opacity="1" stroke-miterlimit="10" d="M 3.008262 -3.85599 C 3.047619 -3.784245 3.086976 -3.712565 3.126334 -3.64082 " transform="matrix(60.046875, 0, 0, -60, 427, 240)"/>
<path fill="none" stroke-width="0.04" stroke-linecap="butt" stroke-linejoin="miter" stroke="rgb(60.392157%, 44.705882%, 67.45098%)" stroke-opacity="1" stroke-miterlimit="10" d="M 3.252927 -3.410352 C 3.292285 -3.338672 3.331642 -3.266927 3.370999 -3.195247 " transform="matrix(60.046875, 0, 0, -60, 427, 240)"/>
<path fill="none" stroke-width="0.04" stroke-linecap="butt" stroke-linejoin="miter" stroke="rgb(60.392157%, 44.705882%, 67.45098%)" stroke-opacity="1" stroke-miterlimit="10" d="M 3.497528 -2.964779 C 3.536885 -2.893034 3.576243 -2.821354 3.6156 -2.749609 " transform="matrix(60.046875, 0, 0, -60, 427, 240)"/>
<path fill="none" stroke-width="0.04" stroke-linecap="butt" stroke-linejoin="miter" stroke="rgb(60.392157%, 44.705882%, 67.45098%)" stroke-opacity="1" stroke-miterlimit="10" d="M 3.742129 -2.519141 C 3.781486 -2.447461 3.820908 -2.375716 3.860265 -2.304036 " transform="matrix(60.046875, 0, 0, -60, 427, 240)"/>
<path fill="none" stroke-width="0.04" stroke-linecap="butt" stroke-linejoin="miter" stroke="rgb(60.392157%, 44.705882%, 67.45098%)" stroke-opacity="1" stroke-miterlimit="10" d="M 3.986794 -2.073568 C 4.026151 -2.001823 4.065509 -1.930143 4.104866 -1.858398 " transform="matrix(60.046875, 0, 0, -60, 427, 240)"/>
<path fill="none" stroke-width="0.04" stroke-linecap="butt" stroke-linejoin="miter" stroke="rgb(60.392157%, 44.705882%, 67.45098%)" stroke-opacity="1" stroke-miterlimit="10" d="M 4.231395 -1.62793 C 4.270752 -1.55625 4.310109 -1.484505 4.349467 -1.412826 " transform="matrix(60.046875, 0, 0, -60, 427, 240)"/>
<path fill="none" stroke-width="0.04" stroke-linecap="butt" stroke-linejoin="miter" stroke="rgb(60.392157%, 44.705882%, 67.45098%)" stroke-opacity="1" stroke-miterlimit="10" d="M 4.475995 -1.182357 C 4.515418 -1.110612 4.554775 -1.038932 4.594132 -0.967187 " transform="matrix(60.046875, 0, 0, -60, 427, 240)"/>
<path fill="none" stroke-width="0.04" stroke-linecap="butt" stroke-linejoin="miter" stroke="rgb(60.392157%, 44.705882%, 67.45098%)" stroke-opacity="1" stroke-miterlimit="10" d="M 4.720661 -0.736719 C 4.760018 -0.665039 4.799375 -0.593294 4.838733 -0.521615 " transform="matrix(60.046875, 0, 0, -60, 427, 240)"/>
<path fill="none" stroke-width="0.04" stroke-linecap="butt" stroke-linejoin="miter" stroke="rgb(60.392157%, 44.705882%, 67.45098%)" stroke-opacity="1" stroke-miterlimit="10" d="M 4.965262 -0.291146 C 5.004619 -0.219401 5.043976 -0.147721 5.083398 -0.0760417 " transform="matrix(60.046875, 0, 0, -60, 427, 240)"/>
<path fill="none" stroke-width="0.04" stroke-linecap="butt" stroke-linejoin="miter" stroke="rgb(60.392157%, 44.705882%, 67.45098%)" stroke-opacity="1" stroke-miterlimit="10" d="M 5.209927 0.154492 C 5.249284 0.226172 5.288642 0.297852 5.327999 0.369596 " transform="matrix(60.046875, 0, 0, -60, 427, 240)"/>
<path fill="none" stroke-width="0.04" stroke-linecap="butt" stroke-linejoin="miter" stroke="rgb(60.392157%, 44.705882%, 67.45098%)" stroke-opacity="1" stroke-miterlimit="10" d="M 5.454528 0.600065 C 5.493885 0.67181 5.533242 0.74349 5.5726 0.815169 " transform="matrix(60.046875, 0, 0, -60, 427, 240)"/>
<path fill="none" stroke-width="0.04" stroke-linecap="butt" stroke-linejoin="miter" stroke="rgb(60.392157%, 44.705882%, 67.45098%)" stroke-opacity="1" stroke-miterlimit="10" d="M 5.699128 1.045703 C 5.738551 1.117383 5.777908 1.189062 5.817265 1.260807 " transform="matrix(60.046875, 0, 0, -60, 427, 240)"/>
<path fill="none" stroke-width="0.04" stroke-linecap="butt" stroke-linejoin="miter" stroke="rgb(60.392157%, 44.705882%, 67.45098%)" stroke-opacity="1" stroke-miterlimit="10" d="M 5.943794 1.491276 C 5.983151 1.562956 6.022508 1.634701 6.061866 1.70638 " transform="matrix(60.046875, 0, 0, -60, 427, 240)"/>
<path fill="none" stroke-width="0.04" stroke-linecap="butt" stroke-linejoin="miter" stroke="rgb(60.392157%, 44.705882%, 67.45098%)" stroke-opacity="1" stroke-miterlimit="10" d="M 6.188394 1.936914 C 6.227752 2.008594 6.267109 2.080273 6.306531 2.152018 " transform="matrix(60.046875, 0, 0, -60, 427, 240)"/>
<path fill="none" stroke-width="0.04" stroke-linecap="butt" stroke-linejoin="miter" stroke="rgb(60.392157%, 44.705882%, 67.45098%)" stroke-opacity="1" stroke-miterlimit="10" d="M 6.954137 -3.762305 C 6.989266 -3.686133 7.024395 -3.609896 7.059524 -3.533724 " transform="matrix(60.046875, 0, 0, -60, 427, 240)"/>
<path fill="none" stroke-width="0.04" stroke-linecap="butt" stroke-linejoin="miter" stroke="rgb(60.392157%, 44.705882%, 67.45098%)" stroke-opacity="1" stroke-miterlimit="10" d="M 7.172456 -3.288867 C 7.207585 -3.212695 7.242714 -3.136523 7.277843 -3.060352 " transform="matrix(60.046875, 0, 0, -60, 427, 240)"/>
<path fill="none" stroke-width="0.04" stroke-linecap="butt" stroke-linejoin="miter" stroke="rgb(60.392157%, 44.705882%, 67.45098%)" stroke-opacity="1" stroke-miterlimit="10" d="M 7.390775 -2.81543 C 7.425904 -2.739258 7.461033 -2.663086 7.496162 -2.586914 " transform="matrix(60.046875, 0, 0, -60, 427, 240)"/>
<path fill="none" stroke-width="0.04" stroke-linecap="butt" stroke-linejoin="miter" stroke="rgb(60.392157%, 44.705882%, 67.45098%)" stroke-opacity="1" stroke-miterlimit="10" d="M 7.609094 -2.342057 C 7.644223 -2.265885 7.679352 -2.189648 7.714481 -2.113477 " transform="matrix(60.046875, 0, 0, -60, 427, 240)"/>
<path fill-rule="nonzero" fill="rgb(60.392157%, 44.705882%, 67.45098%)" fill-opacity="1" d="M 93.414062 465.738281 C 93.414062 464.144531 92.78125 462.621094 91.65625 461.496094 C 90.53125 460.371094 89.003906 459.738281 87.410156 459.738281 C 85.816406 459.738281 84.289062 460.371094 83.164062 461.496094 C 82.039062 462.621094 81.40625 464.144531 81.40625 465.738281 C 81.40625 467.328125 82.039062 468.855469 83.164062 469.980469 C 84.289062 471.105469 85.816406 471.738281 87.410156 471.738281 C 89.003906 471.738281 90.53125 471.105469 91.65625 469.980469 C 92.78125 468.855469 93.414062 467.328125 93.414062 465.738281 Z M 93.414062 465.738281 "/>
<path fill-rule="nonzero" fill="rgb(60.392157%, 44.705882%, 67.45098%)" fill-opacity="1" d="M 850.578125 465.738281 C 850.578125 464.144531 849.945312 462.621094 848.820312 461.496094 C 847.691406 460.371094 846.164062 459.738281 844.574219 459.738281 C 842.980469 459.738281 841.453125 460.371094 840.328125 461.496094 C 839.199219 462.621094 838.570312 464.144531 838.570312 465.738281 C 838.570312 467.328125 839.199219 468.855469 840.328125 469.980469 C 841.453125 471.105469 842.980469 471.738281 844.574219 471.738281 C 846.164062 471.738281 847.691406 471.105469 848.820312 469.980469 C 849.945312 468.855469 850.578125 467.328125 850.578125 465.738281 Z M 850.578125 465.738281 "/>
<path fill-rule="nonzero" fill="rgb(60.392157%, 44.705882%, 67.45098%)" fill-opacity="1" d="M 132.304688 110.878906 C 132.304688 109.289062 131.671875 107.761719 130.542969 106.636719 C 129.417969 105.511719 127.890625 104.878906 126.296875 104.878906 C 124.707031 104.878906 123.179688 105.511719 122.050781 106.636719 C 120.925781 107.761719 120.292969 109.289062 120.292969 110.878906 C 120.292969 112.472656 120.925781 113.996094 122.050781 115.121094 C 123.179688 116.246094 124.707031 116.878906 126.296875 116.878906 C 127.890625 116.878906 129.417969 116.246094 130.542969 115.121094 C 131.671875 113.996094 132.304688 112.472656 132.304688 110.878906 Z M 132.304688 110.878906 "/>
<path fill-rule="nonzero" fill="rgb(60.392157%, 44.705882%, 67.45098%)" fill-opacity="1" d="M 358.765625 138.09375 C 358.765625 136.503906 358.132812 134.976562 357.007812 133.851562 C 355.878906 132.726562 354.351562 132.09375 352.761719 132.09375 C 351.167969 132.09375 349.640625 132.726562 348.515625 133.851562 C 347.386719 134.976562 346.757812 136.503906 346.757812 138.09375 C 346.757812 139.683594 347.386719 141.210938 348.515625 142.335938 C 349.640625 143.460938 351.167969 144.09375 352.761719 144.09375 C 354.351562 144.09375 355.878906 143.460938 357.007812 142.335938 C 358.132812 141.210938 358.765625 139.683594 358.765625 138.09375 Z M 358.765625 138.09375 "/>
<path fill-rule="nonzero" fill="rgb(60.392157%, 44.705882%, 67.45098%)" fill-opacity="1" d="M 585.226562 138.09375 C 585.226562 136.503906 584.59375 134.976562 583.46875 133.851562 C 582.34375 132.726562 580.816406 132.09375 579.222656 132.09375 C 577.628906 132.09375 576.101562 132.726562 574.976562 133.851562 C 573.851562 134.976562 573.21875 136.503906 573.21875 138.09375 C 573.21875 139.683594 573.851562 141.210938 574.976562 142.335938 C 576.101562 143.460938 577.628906 144.09375 579.222656 144.09375 C 580.816406 144.09375 582.34375 143.460938 583.46875 142.335938 C 584.59375 141.210938 585.226562 139.683594 585.226562 138.09375 Z M 585.226562 138.09375 "/>
<path fill-rule="nonzero" fill="rgb(60.392157%, 44.705882%, 67.45098%)" fill-opacity="1" d="M 811.691406 110.878906 C 811.691406 109.289062 811.058594 107.761719 809.933594 106.636719 C 808.804688 105.511719 807.277344 104.878906 805.6875 104.878906 C 804.09375 104.878906 802.566406 105.511719 801.441406 106.636719 C 800.3125 107.761719 799.679688 109.289062 799.679688 110.878906 C 799.679688 112.472656 800.3125 113.996094 801.441406 115.121094 C 802.566406 116.246094 804.09375 116.878906 805.6875 116.878906 C 807.277344 116.878906 808.804688 116.246094 809.933594 115.121094 C 811.058594 113.996094 811.691406 112.472656 811.691406 110.878906 Z M 811.691406 110.878906 "/>
</svg>
