<?xml version="1.0" encoding="UTF-8"?>
<svg xmlns="http://www.w3.org/2000/svg" xmlns:xlink="http://www.w3.org/1999/xlink" width="674" height="465" viewBox="0 0 674 465">
<path fill="none" stroke-width="0.04" stroke-linecap="butt" stroke-linejoin="miter" stroke="rgb(0%, 0%, 0%)" stroke-opacity="1" stroke-miterlimit="10" d="M -5.156472 -1.243243 C -3.489798 -1.243243 -1.823124 -1.243243 -0.156515 -1.243243 " transform="matrix(60.023178, 0, 0, -59.895667, 337, 232.5)"/>
<path fill="none" stroke-width="0.04" stroke-linecap="butt" stroke-linejoin="miter" stroke="rgb(0%, 0%, 0%)" stroke-opacity="1" stroke-miterlimit="10" d="M -0.156515 -1.243243 C 1.510159 -1.243243 3.176833 -1.243243 4.843507 -1.243243 " transform="matrix(60.023178, 0, 0, -59.895667, 337, 232.5)"/>
<path fill="none" stroke-width="0.04" stroke-linecap="butt" stroke-linejoin="miter" stroke="rgb(0%, 0%, 0%)" stroke-opacity="1" stroke-miterlimit="10" d="M 4.843507 -1.243243 C 3.176833 0.423392 1.510159 2.090093 -0.156515 3.756728 " transform="matrix(60.023178, 0, 0, -59.895667, 337, 232.5)"/>
<path fill="none" stroke-width="0.04" stroke-linecap="butt" stroke-linejoin="miter" stroke="rgb(0%, 0%, 0%)" stroke-opacity="1" stroke-miterlimit="10" d="M -0.156515 3.756728 C -1.823124 2.090093 -3.489798 0.423392 -5.156472 -1.243243 " transform="matrix(60.023178, 0, 0, -59.895667, 337, 232.5)"/>
<path fill="none" stroke-width="0.04" stroke-linecap="butt" stroke-linejoin="miter" stroke="rgb(0%, 0%, 0%)" stroke-opacity="1" stroke-miterlimit="10" d="M -0.156515 -1.243243 C -0.156515 0.423392 -0.156515 2.090093 -0.156515 3.756728 " transform="matrix(60.023178, 0, 0, -59.895667, 337, 232.5)"/>
<path fill="none" stroke-width="0.04" stroke-linecap="butt" stroke-linejoin="miter" stroke="rgb(0%, 0%, 0%)" stroke-opacity="1" stroke-miterlimit="10" d="M -5.156472 -1.243243 C -5.252723 -1.409939 -5.34891 -1.57657 -5.445162 -1.743266 C -5.252723 -1.743266 -5.060285 -1.743266 -4.867781 -1.743266 C -4.964033 -1.57657 -5.060285 -1.409939 -5.156472 -1.243243 Z M -5.156472 -1.243243 " transform="matrix(60.023178, 0, 0, -59.895667, 337, 232.5)"/>
<path fill="none" stroke-width="0.04" stroke-linecap="butt" stroke-linejoin="miter" stroke="rgb(0%, 0%, 0%)" stroke-opacity="1" stroke-miterlimit="10" d="M -4.723501 -1.743266 C -5.012126 -1.743266 -5.300817 -1.743266 -5.589507 -1.743266 " transform="matrix(60.023178, 0, 0, -59.895667, 337, 232.5)"/>
<path fill="none" stroke-width="0.04" stroke-linecap="butt" stroke-linejoin="miter" stroke="rgb(0%, 0%, 0%)" stroke-opacity="1" stroke-miterlimit="10" d="M 5.09354 -1.493222 C 5.09354 -1.42696 5.067183 -1.363373 5.020261 -1.316482 C 4.973404 -1.26959 4.909822 -1.243243 4.843507 -1.243243 C 4.777191 -1.243243 4.713609 -1.26959 4.666752 -1.316482 C 4.61983 -1.363373 4.593538 -1.42696 4.593538 -1.493222 C 4.593538 -1.559548 4.61983 -1.623135 4.666752 -1.670026 C 4.713609 -1.716918 4.777191 -1.743266 4.843507 -1.743266 C 4.909822 -1.743266 4.973404 -1.716918 5.020261 -1.670026 C 5.067183 -1.623135 5.09354 -1.559548 5.09354 -1.493222 Z M 5.09354 -1.493222 " transform="matrix(60.023178, 0, 0, -59.895667, 337, 232.5)"/>
<path fill="none" stroke-width="0.04" stroke-linecap="butt" stroke-linejoin="miter" stroke="rgb(0%, 0%, 0%)" stroke-opacity="1" stroke-miterlimit="10" d="M 5.218492 -1.743266 C 4.968523 -1.743266 4.71849 -1.743266 4.468521 -1.743266 " transform="matrix(60.023178, 0, 0, -59.895667, 337, 232.5)"/>
<path fill-rule="nonzero" fill="rgb(0%, 0%, 0%)" fill-opacity="1" d="M 33.492188 306.964844 C 33.492188 305.375 32.859375 303.851562 31.734375 302.730469 C 30.609375 301.605469 29.082031 300.976562 27.492188 300.976562 C 25.898438 300.976562 24.371094 301.605469 23.246094 302.730469 C 22.121094 303.851562 21.488281 305.375 21.488281 306.964844 C 21.488281 308.554688 22.121094 310.078125 23.246094 311.199219 C 24.371094 312.324219 25.898438 312.953125 27.492188 312.953125 C 29.082031 312.953125 30.609375 312.324219 31.734375 311.199219 C 32.859375 310.078125 33.492188 308.554688 33.492188 306.964844 Z M 33.492188 306.964844 "/>
<path fill-rule="nonzero" fill="rgb(0%, 0%, 0%)" fill-opacity="1" d="M 333.609375 306.964844 C 333.609375 305.375 332.976562 303.851562 331.851562 302.730469 C 330.726562 301.605469 329.199219 300.976562 327.605469 300.976562 C 326.015625 300.976562 324.488281 301.605469 323.363281 302.730469 C 322.238281 303.851562 321.605469 305.375 321.605469 306.964844 C 321.605469 308.554688 322.238281 310.078125 323.363281 311.199219 C 324.488281 312.324219 326.015625 312.953125 327.605469 312.953125 C 329.199219 312.953125 330.726562 312.324219 331.851562 311.199219 C 332.976562 310.078125 333.609375 308.554688 333.609375 306.964844 Z M 333.609375 306.964844 "/>
<path fill-rule="nonzero" fill="rgb(0%, 0%, 0%)" fill-opacity="1" d="M 633.726562 306.964844 C 633.726562 305.375 633.09375 303.851562 631.96875 302.730469 C 630.839844 301.605469 629.316406 300.976562 627.722656 300.976562 C 626.132812 300.976562 624.605469 301.605469 623.480469 302.730469 C 622.351562 303.851562 621.722656 305.375 621.722656 306.964844 C 621.722656 308.554688 622.351562 310.078125 623.480469 311.199219 C 624.605469 312.324219 626.132812 312.953125 627.722656 312.953125 C 629.316406 312.953125 630.839844 312.324219 631.96875 311.199219 C 633.09375 310.078125 633.726562 308.554688 633.726562 306.964844 Z M 633.726562 306.964844 "/>
<path fill-rule="nonzero" fill="rgb(0%, 0%, 0%)" fill-opacity="1" d="M 333.609375 7.488281 C 333.609375 5.898438 332.976562 4.375 331.851562 3.25 C 330.726562 2.128906 329.199219 1.496094 327.605469 1.496094 C 326.015625 1.496094 324.488281 2.128906 323.363281 3.25 C 322.238281 4.375 321.605469 5.898438 321.605469 7.488281 C 321.605469 9.074219 322.238281 10.597656 323.363281 11.722656 C 324.488281 12.84375 326.015625 13.476562 327.605469 13.476562 C 329.199219 13.476562 330.726562 12.84375 331.851562 11.722656 C 332.976562 10.597656 333.609375 9.074219 333.609375 7.488281 Z M 333.609375 7.488281 "/>
<path fill="none" stroke-width="0.04" stroke-linecap="butt" stroke-linejoin="miter" stroke="rgb(98.823529%, 38.431373%, 33.333333%)" stroke-opacity="1" stroke-miterlimit="10" d="M -0.156515 -1.243243 C -0.156515 -1.593265 -0.156515 -1.943223 -0.156515 -2.293245 " transform="matrix(60.023178, 0, 0, -59.895667, 337, 232.5)"/>
<path fill-rule="nonzero" fill="rgb(98.823529%, 38.431373%, 33.333333%)" fill-opacity="1" d="M 327.605469 396.808594 C 330.609375 387.824219 333.609375 378.839844 336.609375 369.855469 C 330.609375 369.855469 324.605469 369.855469 318.605469 369.855469 C 321.605469 378.839844 324.605469 387.824219 327.605469 396.808594 Z M 327.605469 396.808594 "/>
<path fill-rule="nonzero" fill="rgb(98.823529%, 38.431373%, 33.333333%)" fill-opacity="1" d="M 174.71875 357.09375 C 174.71875 356.089844 174.71875 355.082031 174.71875 354.078125 C 171.550781 354.078125 168.382812 354.078125 165.21875 354.078125 C 165.21875 355.082031 165.21875 356.089844 165.21875 357.09375 C 168.382812 357.09375 171.550781 357.09375 174.71875 357.09375 Z M 174.71875 357.09375 "/>
<path fill-rule="nonzero" fill="rgb(98.823529%, 38.431373%, 33.333333%)" fill-opacity="1" d="M 188.898438 353.050781 C 188.898438 353.28125 188.898438 353.507812 188.898438 353.734375 C 188.898438 356.003906 188.617188 357.839844 188.152344 358.894531 C 187.621094 360.109375 186.28125 361.507812 184.132812 361.507812 C 183.574219 361.507812 182.453125 361.445312 181.515625 360.824219 C 181.890625 360.730469 183.042969 360.292969 183.042969 358.894531 C 183.042969 357.839844 182.328125 356.96875 181.113281 356.96875 C 179.898438 356.96875 179.148438 357.777344 179.148438 358.957031 C 179.148438 361.070312 180.738281 362.84375 184.195312 362.84375 C 188.246094 362.84375 193.132812 360.230469 193.132812 352.277344 C 193.132812 350.191406 193.132812 342.144531 185.753906 342.144531 C 181.332031 342.144531 178.246094 344.660156 178.246094 348.824219 C 178.246094 353.113281 181.332031 355.445312 185.160156 355.445312 C 186.25 355.445312 187.714844 355.226562 188.898438 353.050781 Z M 185.441406 354.328125 C 182.484375 354.328125 182.484375 351.996094 182.484375 348.886719 C 182.484375 345.84375 182.484375 343.355469 185.816406 343.355469 C 187.652344 343.355469 188.371094 345.003906 188.492188 345.3125 C 188.867188 346.339844 188.867188 348.140625 188.867188 349.199219 C 188.867188 351.15625 188.058594 354.328125 185.441406 354.328125 Z M 185.441406 354.328125 "/>
<path fill-rule="nonzero" fill="rgb(98.823529%, 38.431373%, 33.333333%)" fill-opacity="1" d="M 210.761719 355.601562 C 210.273438 355.601562 209.785156 355.601562 209.296875 355.601562 C 209.207031 356.222656 208.925781 358.210938 208.488281 358.429688 C 208.144531 358.617188 205.808594 358.617188 205.3125 358.617188 C 203.785156 358.617188 202.261719 358.617188 200.734375 358.617188 C 202.199219 357.402344 203.816406 356.066406 205.21875 355.042969 C 208.769531 352.429688 210.761719 350.96875 210.761719 348.019531 C 210.761719 344.445312 207.523438 342.144531 203.132812 342.144531 C 199.363281 342.144531 196.4375 344.070312 196.4375 346.867188 C 196.4375 348.703125 197.929688 349.167969 198.679688 349.167969 C 199.675781 349.167969 200.921875 348.484375 200.921875 346.929688 C 200.921875 345.3125 199.613281 344.816406 199.144531 344.691406 C 200.046875 343.945312 201.230469 343.605469 202.351562 343.605469 C 205.03125 343.605469 206.464844 345.71875 206.464844 348.046875 C 206.464844 350.191406 205.28125 352.304688 203.101562 354.511719 C 201.015625 356.636719 198.925781 358.761719 196.839844 360.882812 C 196.4375 361.257812 196.4375 361.320312 196.4375 361.941406 C 196.4375 362.128906 196.4375 362.3125 196.4375 362.5 C 200.890625 362.5 205.34375 362.5 209.796875 362.5 C 210.117188 360.199219 210.441406 357.902344 210.761719 355.601562 Z M 210.761719 355.601562 "/>
<path fill-rule="nonzero" fill="rgb(98.823529%, 38.431373%, 33.333333%)" fill-opacity="1" d="M 218.765625 347.613281 C 218.269531 347.332031 217.394531 346.804688 217.394531 345.75 C 217.394531 343.574219 220.199219 343.355469 221.445312 343.355469 C 224.0625 343.355469 225.617188 344.628906 225.617188 346.742188 C 225.617188 348.265625 224.808594 349.324219 223.4375 350.222656 C 221.882812 349.355469 220.324219 348.484375 218.765625 347.613281 Z M 224.808594 351 C 226.988281 349.882812 227.953125 348.515625 227.953125 346.710938 C 227.953125 343.542969 225.121094 342.144531 221.570312 342.144531 C 217.242188 342.144531 215.058594 344.597656 215.058594 347.582031 C 215.058594 348.949219 215.621094 350.90625 218.050781 352.277344 C 215.433594 353.425781 214.0625 355.195312 214.0625 357.496094 C 214.0625 361.257812 217.425781 362.84375 221.445312 362.84375 C 226.429688 362.84375 228.953125 360.109375 228.953125 356.6875 C 228.953125 353.332031 226.335938 351.871094 224.808594 351 Z M 219.484375 353.113281 C 220.574219 353.675781 222.035156 354.511719 223.75 355.476562 C 225.121094 356.253906 226.273438 356.90625 226.273438 358.398438 C 226.273438 361.007812 223.34375 361.507812 221.570312 361.507812 C 218.519531 361.507812 216.742188 359.921875 216.742188 357.496094 C 216.742188 355.074219 218.394531 353.734375 219.484375 353.113281 Z M 219.484375 353.113281 "/>
<path fill-rule="nonzero" fill="rgb(98.823529%, 38.431373%, 33.333333%)" fill-opacity="1" d="M 246.578125 355.601562 C 246.089844 355.601562 245.605469 355.601562 245.117188 355.601562 C 245.023438 356.222656 244.742188 358.210938 244.304688 358.429688 C 243.964844 358.617188 241.628906 358.617188 241.128906 358.617188 C 239.601562 358.617188 238.078125 358.617188 236.550781 358.617188 C 238.015625 357.402344 239.632812 356.066406 241.035156 355.042969 C 244.585938 352.429688 246.578125 350.96875 246.578125 348.019531 C 246.578125 344.445312 243.339844 342.144531 238.949219 342.144531 C 235.179688 342.144531 232.253906 344.070312 232.253906 346.867188 C 232.253906 348.703125 233.746094 349.167969 234.496094 349.167969 C 235.492188 349.167969 236.738281 348.484375 236.738281 346.929688 C 236.738281 345.3125 235.429688 344.816406 234.960938 344.691406 C 235.867188 343.945312 237.050781 343.605469 238.171875 343.605469 C 240.847656 343.605469 242.28125 345.71875 242.28125 348.046875 C 242.28125 350.191406 241.097656 352.304688 238.917969 354.511719 C 236.832031 356.636719 234.746094 358.761719 232.65625 360.882812 C 232.253906 361.257812 232.253906 361.320312 232.253906 361.941406 C 232.253906 362.128906 232.253906 362.3125 232.253906 362.5 C 236.707031 362.5 241.160156 362.5 245.613281 362.5 C 245.9375 360.199219 246.257812 357.902344 246.578125 355.601562 Z M 246.578125 355.601562 "/>
<path fill-rule="nonzero" fill="rgb(98.823529%, 38.431373%, 33.333333%)" fill-opacity="1" d="M 255.765625 360.078125 C 255.765625 358.738281 254.675781 357.652344 253.339844 357.652344 C 252 357.652344 250.910156 358.738281 250.910156 360.078125 C 250.910156 361.414062 252 362.5 253.339844 362.5 C 254.675781 362.5 255.765625 361.414062 255.765625 360.078125 Z M 255.765625 360.078125 "/>
<path fill-rule="nonzero" fill="rgb(98.823529%, 38.431373%, 33.333333%)" fill-opacity="1" d="M 272.195312 357.652344 C 273.203125 357.652344 274.207031 357.652344 275.214844 357.652344 C 275.214844 357.164062 275.214844 356.679688 275.214844 356.191406 C 274.207031 356.191406 273.203125 356.191406 272.195312 356.191406 C 272.195312 351.828125 272.195312 347.46875 272.195312 343.105469 C 272.195312 342.269531 272.132812 342.113281 271.261719 342.113281 C 270.605469 342.113281 270.574219 342.144531 270.203125 342.609375 C 266.578125 347.136719 262.953125 351.664062 259.332031 356.191406 C 259.332031 356.679688 259.332031 357.164062 259.332031 357.652344 C 262.320312 357.652344 265.3125 357.652344 268.300781 357.652344 C 268.300781 358.78125 268.300781 359.910156 268.300781 361.039062 C 267.136719 361.039062 265.976562 361.039062 264.8125 361.039062 C 264.8125 361.527344 264.8125 362.011719 264.8125 362.5 C 265.996094 362.40625 268.832031 362.40625 270.171875 362.40625 C 271.414062 362.40625 274.125 362.40625 275.214844 362.5 C 275.214844 362.011719 275.214844 361.527344 275.214844 361.039062 C 274.207031 361.039062 273.203125 361.039062 272.195312 361.039062 C 272.195312 359.910156 272.195312 358.78125 272.195312 357.652344 Z M 268.644531 356.191406 C 266.078125 356.191406 263.515625 356.191406 260.949219 356.191406 C 263.515625 352.980469 266.078125 349.769531 268.644531 346.558594 C 268.644531 349.769531 268.644531 352.980469 268.644531 356.191406 Z M 268.644531 356.191406 "/>
<path fill-rule="nonzero" fill="rgb(98.823529%, 38.431373%, 33.333333%)" fill-opacity="1" d="M 282.910156 355.136719 C 282.910156 350.402344 282.910156 345.667969 282.910156 340.933594 C 281.070312 341.015625 279.234375 341.097656 277.394531 341.179688 C 277.394531 341.667969 277.394531 342.152344 277.394531 342.640625 C 279.328125 342.640625 279.542969 342.640625 279.542969 343.851562 C 279.542969 349.582031 279.542969 355.3125 279.542969 361.039062 C 278.828125 361.039062 278.113281 361.039062 277.394531 361.039062 C 277.394531 361.527344 277.394531 362.011719 277.394531 362.5 C 278.546875 362.46875 280.011719 362.40625 281.132812 362.40625 C 282.285156 362.40625 283.78125 362.46875 284.902344 362.5 C 284.902344 362.011719 284.902344 361.527344 284.902344 361.039062 C 284.183594 361.039062 283.46875 361.039062 282.753906 361.039062 C 282.753906 359.722656 282.753906 358.410156 282.753906 357.09375 C 283.65625 356.378906 283.90625 356.191406 284.527344 355.757812 C 285.578125 357.0625 286.625 358.367188 287.671875 359.671875 C 287.953125 360.046875 288.453125 360.667969 288.453125 360.761719 C 288.453125 361.039062 287.890625 361.039062 287.488281 361.039062 C 287.488281 361.527344 287.488281 362.011719 287.488281 362.5 C 288.421875 362.4375 291.128906 362.40625 291.285156 362.40625 C 292.40625 362.40625 293.464844 362.4375 294.527344 362.5 C 294.527344 362.011719 294.527344 361.527344 294.527344 361.039062 C 294.347656 361.039062 294.171875 361.039062 293.996094 361.039062 C 292.65625 361.039062 292.5625 360.914062 292.160156 360.417969 C 290.402344 358.230469 288.648438 356.046875 286.894531 353.859375 C 288.246094 352.8125 289.59375 351.769531 290.945312 350.722656 C 291.378906 350.378906 291.660156 350.164062 293.746094 350.164062 C 293.746094 349.675781 293.746094 349.1875 293.746094 348.703125 C 292.90625 348.792969 292.128906 348.792969 291.316406 348.792969 C 290.476562 348.792969 288.453125 348.734375 287.734375 348.703125 C 287.734375 349.1875 287.734375 349.675781 287.734375 350.164062 C 288.453125 350.164062 288.546875 350.253906 288.796875 350.503906 C 286.832031 352.046875 284.871094 353.589844 282.910156 355.136719 Z M 282.910156 355.136719 "/>
<path fill-rule="nonzero" fill="rgb(98.823529%, 38.431373%, 33.333333%)" fill-opacity="1" d="M 304.519531 341.585938 C 304.179688 341.210938 304.148438 341.179688 303.492188 341.179688 C 301.117188 341.179688 298.738281 341.179688 296.363281 341.179688 C 296.363281 341.667969 296.363281 342.152344 296.363281 342.640625 C 297.484375 342.640625 298.605469 342.640625 299.726562 342.640625 C 299.726562 348.472656 299.726562 354.304688 299.726562 360.136719 C 299.726562 360.824219 299.695312 360.851562 298.820312 360.945312 C 298.074219 361.039062 298.011719 361.039062 297.140625 361.039062 C 296.878906 361.039062 296.621094 361.039062 296.363281 361.039062 C 296.363281 361.527344 296.363281 362.011719 296.363281 362.5 C 297.542969 362.40625 299.320312 362.40625 300.535156 362.40625 C 301.84375 362.40625 303.460938 362.40625 304.738281 362.5 C 304.738281 362.011719 304.738281 361.527344 304.738281 361.039062 C 304.480469 361.039062 304.21875 361.039062 303.960938 361.039062 C 303.398438 361.039062 302.871094 361.007812 302.308594 360.945312 C 301.40625 360.851562 301.375 360.824219 301.375 360.136719 C 301.375 354.71875 301.375 349.300781 301.375 343.882812 C 306.546875 349.953125 311.714844 356.027344 316.886719 362.097656 C 317.199219 362.46875 317.230469 362.5 317.726562 362.5 C 318.566406 362.5 318.566406 362.222656 318.566406 361.507812 C 318.566406 355.519531 318.566406 349.53125 318.566406 343.542969 C 318.566406 342.859375 318.597656 342.828125 319.472656 342.734375 C 320.21875 342.640625 320.28125 342.640625 321.152344 342.640625 C 321.414062 342.640625 321.671875 342.640625 321.933594 342.640625 C 321.933594 342.152344 321.933594 341.667969 321.933594 341.179688 C 320.75 341.273438 318.972656 341.273438 317.757812 341.273438 C 316.449219 341.273438 314.832031 341.273438 313.554688 341.179688 C 313.554688 341.667969 313.554688 342.152344 313.554688 342.640625 C 313.8125 342.640625 314.074219 342.640625 314.332031 342.640625 C 314.894531 342.640625 315.421875 342.671875 315.984375 342.734375 C 316.886719 342.828125 316.917969 342.859375 316.917969 343.542969 C 316.917969 347.738281 316.917969 351.933594 316.917969 356.128906 C 312.785156 351.28125 308.652344 346.433594 304.519531 341.585938 Z M 304.519531 341.585938 "/>
<path fill="none" stroke-width="0.04" stroke-linecap="butt" stroke-linejoin="miter" stroke="rgb(60.392157%, 44.705882%, 67.45098%)" stroke-opacity="1" stroke-miterlimit="10" d="M -5.156472 -1.243243 C -5.104864 -1.263395 -5.053191 -1.283547 -5.001518 -1.303699 " transform="matrix(60.023178, 0, 0, -59.895667, 337, 232.5)"/>
<path fill="none" stroke-width="0.04" stroke-linecap="butt" stroke-linejoin="miter" stroke="rgb(60.392157%, 44.705882%, 67.45098%)" stroke-opacity="1" stroke-miterlimit="10" d="M -4.836868 -1.367873 C -4.785261 -1.388026 -4.733588 -1.408113 -4.681915 -1.428265 " transform="matrix(60.023178, 0, 0, -59.895667, 337, 232.5)"/>
<path fill="none" stroke-width="0.04" stroke-linecap="butt" stroke-linejoin="miter" stroke="rgb(60.392157%, 44.705882%, 67.45098%)" stroke-opacity="1" stroke-miterlimit="10" d="M -4.517265 -1.492504 C -4.465658 -1.512591 -4.413985 -1.532743 -4.362312 -1.552896 " transform="matrix(60.023178, 0, 0, -59.895667, 337, 232.5)"/>
<path fill="none" stroke-width="0.04" stroke-linecap="butt" stroke-linejoin="miter" stroke="rgb(60.392157%, 44.705882%, 67.45098%)" stroke-opacity="1" stroke-miterlimit="10" d="M -4.197727 -1.61707 C -4.146055 -1.637222 -4.094382 -1.657374 -4.042709 -1.677526 " transform="matrix(60.023178, 0, 0, -59.895667, 337, 232.5)"/>
<path fill="none" stroke-width="0.04" stroke-linecap="butt" stroke-linejoin="miter" stroke="rgb(60.392157%, 44.705882%, 67.45098%)" stroke-opacity="1" stroke-miterlimit="10" d="M -3.878124 -1.7417 C -3.826452 -1.761853 -3.774779 -1.782005 -3.723171 -1.802092 " transform="matrix(60.023178, 0, 0, -59.895667, 337, 232.5)"/>
<path fill="none" stroke-width="0.04" stroke-linecap="butt" stroke-linejoin="miter" stroke="rgb(60.392157%, 44.705882%, 67.45098%)" stroke-opacity="1" stroke-miterlimit="10" d="M -3.558521 -1.866331 C -3.506848 -1.886483 -3.455176 -1.906571 -3.403568 -1.926723 " transform="matrix(60.023178, 0, 0, -59.895667, 337, 232.5)"/>
<path fill="none" stroke-width="0.04" stroke-linecap="butt" stroke-linejoin="miter" stroke="rgb(60.392157%, 44.705882%, 67.45098%)" stroke-opacity="1" stroke-miterlimit="10" d="M -3.238918 -1.990897 C -3.187245 -2.011049 -3.135573 -2.031201 -3.083965 -2.051354 " transform="matrix(60.023178, 0, 0, -59.895667, 337, 232.5)"/>
<path fill="none" stroke-width="0.04" stroke-linecap="butt" stroke-linejoin="miter" stroke="rgb(60.392157%, 44.705882%, 67.45098%)" stroke-opacity="1" stroke-miterlimit="10" d="M -2.919315 -2.115528 C -2.867642 -2.13568 -2.816035 -2.155832 -2.764362 -2.175984 " transform="matrix(60.023178, 0, 0, -59.895667, 337, 232.5)"/>
<path fill="none" stroke-width="0.04" stroke-linecap="butt" stroke-linejoin="miter" stroke="rgb(60.392157%, 44.705882%, 67.45098%)" stroke-opacity="1" stroke-miterlimit="10" d="M -2.599712 -2.240158 C -2.548039 -2.260311 -2.496431 -2.280398 -2.444759 -2.30055 " transform="matrix(60.023178, 0, 0, -59.895667, 337, 232.5)"/>
<path fill="none" stroke-width="0.04" stroke-linecap="butt" stroke-linejoin="miter" stroke="rgb(60.392157%, 44.705882%, 67.45098%)" stroke-opacity="1" stroke-miterlimit="10" d="M -2.280109 -2.364789 C -2.228436 -2.384876 -2.176828 -2.405028 -2.125156 -2.425181 " transform="matrix(60.023178, 0, 0, -59.895667, 337, 232.5)"/>
<path fill="none" stroke-width="0.04" stroke-linecap="butt" stroke-linejoin="miter" stroke="rgb(60.392157%, 44.705882%, 67.45098%)" stroke-opacity="1" stroke-miterlimit="10" d="M -1.960506 -2.489355 C -1.908898 -2.509507 -1.857225 -2.529659 -1.805553 -2.549811 " transform="matrix(60.023178, 0, 0, -59.895667, 337, 232.5)"/>
<path fill="none" stroke-width="0.04" stroke-linecap="butt" stroke-linejoin="miter" stroke="rgb(60.392157%, 44.705882%, 67.45098%)" stroke-opacity="1" stroke-miterlimit="10" d="M -1.640903 -2.613986 C -1.589295 -2.634138 -1.537622 -2.65429 -1.485949 -2.674377 " transform="matrix(60.023178, 0, 0, -59.895667, 337, 232.5)"/>
<path fill="none" stroke-width="0.04" stroke-linecap="butt" stroke-linejoin="miter" stroke="rgb(60.392157%, 44.705882%, 67.45098%)" stroke-opacity="1" stroke-miterlimit="10" d="M -1.321299 -2.738616 C -1.269692 -2.758769 -1.218019 -2.778856 -1.166346 -2.799008 " transform="matrix(60.023178, 0, 0, -59.895667, 337, 232.5)"/>
<path fill="none" stroke-width="0.04" stroke-linecap="butt" stroke-linejoin="miter" stroke="rgb(60.392157%, 44.705882%, 67.45098%)" stroke-opacity="1" stroke-miterlimit="10" d="M -1.001761 -2.863182 C -0.950089 -2.883334 -0.898416 -2.903486 -0.846808 -2.923639 " transform="matrix(60.023178, 0, 0, -59.895667, 337, 232.5)"/>
<path fill="none" stroke-width="0.04" stroke-linecap="butt" stroke-linejoin="miter" stroke="rgb(60.392157%, 44.705882%, 67.45098%)" stroke-opacity="1" stroke-miterlimit="10" d="M -0.682158 -2.987813 C -0.630486 -3.007965 -0.578813 -3.028117 -0.527205 -3.048269 " transform="matrix(60.023178, 0, 0, -59.895667, 337, 232.5)"/>
<path fill="none" stroke-width="0.04" stroke-linecap="butt" stroke-linejoin="miter" stroke="rgb(60.392157%, 44.705882%, 67.45098%)" stroke-opacity="1" stroke-miterlimit="10" d="M -0.362555 -3.112443 C -0.310883 -3.132596 -0.25921 -3.152748 -0.207602 -3.172835 " transform="matrix(60.023178, 0, 0, -59.895667, 337, 232.5)"/>
<path fill="none" stroke-width="0.04" stroke-linecap="butt" stroke-linejoin="miter" stroke="rgb(60.392157%, 44.705882%, 67.45098%)" stroke-opacity="1" stroke-miterlimit="10" d="M -0.0429522 -3.237074 C 0.00872059 -3.257161 0.0603283 -3.277313 0.112001 -3.297466 " transform="matrix(60.023178, 0, 0, -59.895667, 337, 232.5)"/>
<path fill="none" stroke-width="0.04" stroke-linecap="butt" stroke-linejoin="miter" stroke="rgb(60.392157%, 44.705882%, 67.45098%)" stroke-opacity="1" stroke-miterlimit="10" d="M 0.112001 -3.297466 C 0.165236 -3.277313 0.218405 -3.257161 0.27164 -3.237074 " transform="matrix(60.023178, 0, 0, -59.895667, 337, 232.5)"/>
<path fill="none" stroke-width="0.04" stroke-linecap="butt" stroke-linejoin="miter" stroke="rgb(60.392157%, 44.705882%, 67.45098%)" stroke-opacity="1" stroke-miterlimit="10" d="M 0.441236 -3.172835 C 0.49447 -3.152748 0.54764 -3.132596 0.600875 -3.112443 " transform="matrix(60.023178, 0, 0, -59.895667, 337, 232.5)"/>
<path fill="none" stroke-width="0.04" stroke-linecap="butt" stroke-linejoin="miter" stroke="rgb(60.392157%, 44.705882%, 67.45098%)" stroke-opacity="1" stroke-miterlimit="10" d="M 0.770471 -3.048269 C 0.823705 -3.028117 0.87694 -3.007965 0.930109 -2.987813 " transform="matrix(60.023178, 0, 0, -59.895667, 337, 232.5)"/>
<path fill="none" stroke-width="0.04" stroke-linecap="butt" stroke-linejoin="miter" stroke="rgb(60.392157%, 44.705882%, 67.45098%)" stroke-opacity="1" stroke-miterlimit="10" d="M 1.099705 -2.923639 C 1.15294 -2.903486 1.206175 -2.883334 1.259344 -2.863182 " transform="matrix(60.023178, 0, 0, -59.895667, 337, 232.5)"/>
<path fill="none" stroke-width="0.04" stroke-linecap="butt" stroke-linejoin="miter" stroke="rgb(60.392157%, 44.705882%, 67.45098%)" stroke-opacity="1" stroke-miterlimit="10" d="M 1.429005 -2.799008 C 1.482175 -2.778856 1.535409 -2.758769 1.588579 -2.738616 " transform="matrix(60.023178, 0, 0, -59.895667, 337, 232.5)"/>
<path fill="none" stroke-width="0.04" stroke-linecap="butt" stroke-linejoin="miter" stroke="rgb(60.392157%, 44.705882%, 67.45098%)" stroke-opacity="1" stroke-miterlimit="10" d="M 1.75824 -2.674377 C 1.81141 -2.65429 1.864644 -2.634138 1.917879 -2.613986 " transform="matrix(60.023178, 0, 0, -59.895667, 337, 232.5)"/>
<path fill="none" stroke-width="0.04" stroke-linecap="butt" stroke-linejoin="miter" stroke="rgb(60.392157%, 44.705882%, 67.45098%)" stroke-opacity="1" stroke-miterlimit="10" d="M 2.087475 -2.549811 C 2.140644 -2.529659 2.193879 -2.509507 2.247114 -2.489355 " transform="matrix(60.023178, 0, 0, -59.895667, 337, 232.5)"/>
<path fill="none" stroke-width="0.04" stroke-linecap="butt" stroke-linejoin="miter" stroke="rgb(60.392157%, 44.705882%, 67.45098%)" stroke-opacity="1" stroke-miterlimit="10" d="M 2.41671 -2.425181 C 2.469879 -2.405028 2.523114 -2.384876 2.576349 -2.364789 " transform="matrix(60.023178, 0, 0, -59.895667, 337, 232.5)"/>
<path fill="none" stroke-width="0.04" stroke-linecap="butt" stroke-linejoin="miter" stroke="rgb(60.392157%, 44.705882%, 67.45098%)" stroke-opacity="1" stroke-miterlimit="10" d="M 2.745944 -2.30055 C 2.799179 -2.280398 2.852349 -2.260311 2.905583 -2.240158 " transform="matrix(60.023178, 0, 0, -59.895667, 337, 232.5)"/>
<path fill="none" stroke-width="0.04" stroke-linecap="butt" stroke-linejoin="miter" stroke="rgb(60.392157%, 44.705882%, 67.45098%)" stroke-opacity="1" stroke-miterlimit="10" d="M 3.075179 -2.175984 C 3.128414 -2.155832 3.181583 -2.13568 3.234818 -2.115528 " transform="matrix(60.023178, 0, 0, -59.895667, 337, 232.5)"/>
<path fill="none" stroke-width="0.04" stroke-linecap="butt" stroke-linejoin="miter" stroke="rgb(60.392157%, 44.705882%, 67.45098%)" stroke-opacity="1" stroke-miterlimit="10" d="M 3.404414 -2.051354 C 3.457649 -2.031201 3.510818 -2.011049 3.564053 -1.990897 " transform="matrix(60.023178, 0, 0, -59.895667, 337, 232.5)"/>
<path fill="none" stroke-width="0.04" stroke-linecap="butt" stroke-linejoin="miter" stroke="rgb(60.392157%, 44.705882%, 67.45098%)" stroke-opacity="1" stroke-miterlimit="10" d="M 3.733649 -1.926723 C 3.786883 -1.906571 3.840053 -1.886483 3.893288 -1.866331 " transform="matrix(60.023178, 0, 0, -59.895667, 337, 232.5)"/>
<path fill="none" stroke-width="0.04" stroke-linecap="butt" stroke-linejoin="miter" stroke="rgb(60.392157%, 44.705882%, 67.45098%)" stroke-opacity="1" stroke-miterlimit="10" d="M 4.062884 -1.802092 C 4.116118 -1.782005 4.169353 -1.761853 4.222522 -1.7417 " transform="matrix(60.023178, 0, 0, -59.895667, 337, 232.5)"/>
<path fill="none" stroke-width="0.04" stroke-linecap="butt" stroke-linejoin="miter" stroke="rgb(60.392157%, 44.705882%, 67.45098%)" stroke-opacity="1" stroke-miterlimit="10" d="M 4.392118 -1.677526 C 4.445353 -1.657374 4.498588 -1.637222 4.551757 -1.61707 " transform="matrix(60.023178, 0, 0, -59.895667, 337, 232.5)"/>
<path fill="none" stroke-width="0.04" stroke-linecap="butt" stroke-linejoin="miter" stroke="rgb(60.392157%, 44.705882%, 67.45098%)" stroke-opacity="1" stroke-miterlimit="10" d="M 4.721353 -1.552896 C 4.774588 -1.532743 4.827823 -1.512591 4.880992 -1.492504 " transform="matrix(60.023178, 0, 0, -59.895667, 337, 232.5)"/>
<path fill="none" stroke-width="0.04" stroke-linecap="butt" stroke-linejoin="miter" stroke="rgb(60.392157%, 44.705882%, 67.45098%)" stroke-opacity="1" stroke-miterlimit="10" d="M 5.050653 -1.428265 C 5.103823 -1.408113 5.157057 -1.388026 5.210227 -1.367873 " transform="matrix(60.023178, 0, 0, -59.895667, 337, 232.5)"/>
<path fill="none" stroke-width="0.04" stroke-linecap="butt" stroke-linejoin="miter" stroke="rgb(60.392157%, 44.705882%, 67.45098%)" stroke-opacity="1" stroke-miterlimit="10" d="M 5.379888 -1.303699 C 5.433057 -1.283547 5.486292 -1.263395 5.539527 -1.243243 " transform="matrix(60.023178, 0, 0, -59.895667, 337, 232.5)"/>
<path fill="none" stroke-width="0.04" stroke-linecap="butt" stroke-linejoin="miter" stroke="rgb(60.392157%, 44.705882%, 67.45098%)" stroke-opacity="1" stroke-miterlimit="10" d="M 5.539527 -1.243243 C 5.502497 -1.215199 5.465467 -1.187221 5.428502 -1.159177 " transform="matrix(60.023178, 0, 0, -59.895667, 337, 232.5)"/>
<path fill="none" stroke-width="0.04" stroke-linecap="butt" stroke-linejoin="miter" stroke="rgb(60.392157%, 44.705882%, 67.45098%)" stroke-opacity="1" stroke-miterlimit="10" d="M 5.312661 -1.071394 C 5.275631 -1.043416 5.238666 -1.015372 5.201636 -0.987329 " transform="matrix(60.023178, 0, 0, -59.895667, 337, 232.5)"/>
<path fill="none" stroke-width="0.04" stroke-linecap="butt" stroke-linejoin="miter" stroke="rgb(60.392157%, 44.705882%, 67.45098%)" stroke-opacity="1" stroke-miterlimit="10" d="M 5.085796 -0.899611 C 5.048766 -0.871568 5.011801 -0.843524 4.974771 -0.815546 " transform="matrix(60.023178, 0, 0, -59.895667, 337, 232.5)"/>
<path fill="none" stroke-width="0.04" stroke-linecap="butt" stroke-linejoin="miter" stroke="rgb(60.392157%, 44.705882%, 67.45098%)" stroke-opacity="1" stroke-miterlimit="10" d="M 4.85893 -0.727763 C 4.821965 -0.699719 4.784935 -0.671741 4.747905 -0.643697 " transform="matrix(60.023178, 0, 0, -59.895667, 337, 232.5)"/>
<path fill="none" stroke-width="0.04" stroke-linecap="butt" stroke-linejoin="miter" stroke="rgb(60.392157%, 44.705882%, 67.45098%)" stroke-opacity="1" stroke-miterlimit="10" d="M 4.632065 -0.555915 C 4.5951 -0.527936 4.55807 -0.499893 4.521105 -0.471849 " transform="matrix(60.023178, 0, 0, -59.895667, 337, 232.5)"/>
<path fill="none" stroke-width="0.04" stroke-linecap="butt" stroke-linejoin="miter" stroke="rgb(60.392157%, 44.705882%, 67.45098%)" stroke-opacity="1" stroke-miterlimit="10" d="M 4.405264 -0.384132 C 4.368234 -0.356088 4.331204 -0.328044 4.29424 -0.300066 " transform="matrix(60.023178, 0, 0, -59.895667, 337, 232.5)"/>
<path fill="none" stroke-width="0.04" stroke-linecap="butt" stroke-linejoin="miter" stroke="rgb(60.392157%, 44.705882%, 67.45098%)" stroke-opacity="1" stroke-miterlimit="10" d="M 4.178399 -0.212283 C 4.141369 -0.18424 4.104404 -0.156261 4.067374 -0.128218 " transform="matrix(60.023178, 0, 0, -59.895667, 337, 232.5)"/>
<path fill="none" stroke-width="0.04" stroke-linecap="butt" stroke-linejoin="miter" stroke="rgb(60.392157%, 44.705882%, 67.45098%)" stroke-opacity="1" stroke-miterlimit="10" d="M 3.951533 -0.0405001 C 3.914503 -0.0124566 3.877539 0.015587 3.840509 0.0436306 " transform="matrix(60.023178, 0, 0, -59.895667, 337, 232.5)"/>
<path fill="none" stroke-width="0.04" stroke-linecap="butt" stroke-linejoin="miter" stroke="rgb(60.392157%, 44.705882%, 67.45098%)" stroke-opacity="1" stroke-miterlimit="10" d="M 3.724668 0.131348 C 3.687703 0.159392 3.650673 0.187435 3.613643 0.215414 " transform="matrix(60.023178, 0, 0, -59.895667, 337, 232.5)"/>
<path fill="none" stroke-width="0.04" stroke-linecap="butt" stroke-linejoin="miter" stroke="rgb(60.392157%, 44.705882%, 67.45098%)" stroke-opacity="1" stroke-miterlimit="10" d="M 3.497802 0.303196 C 3.460838 0.33124 3.423808 0.359218 3.386843 0.387262 " transform="matrix(60.023178, 0, 0, -59.895667, 337, 232.5)"/>
<path fill="none" stroke-width="0.04" stroke-linecap="butt" stroke-linejoin="miter" stroke="rgb(60.392157%, 44.705882%, 67.45098%)" stroke-opacity="1" stroke-miterlimit="10" d="M 3.271002 0.47498 C 3.233972 0.503023 3.196942 0.531067 3.159977 0.55911 " transform="matrix(60.023178, 0, 0, -59.895667, 337, 232.5)"/>
<path fill="none" stroke-width="0.04" stroke-linecap="butt" stroke-linejoin="miter" stroke="rgb(60.392157%, 44.705882%, 67.45098%)" stroke-opacity="1" stroke-miterlimit="10" d="M 3.044137 0.646828 C 3.007107 0.674871 2.970142 0.702915 2.933112 0.730893 " transform="matrix(60.023178, 0, 0, -59.895667, 337, 232.5)"/>
<path fill="none" stroke-width="0.04" stroke-linecap="butt" stroke-linejoin="miter" stroke="rgb(60.392157%, 44.705882%, 67.45098%)" stroke-opacity="1" stroke-miterlimit="10" d="M 2.817271 0.818676 C 2.780306 0.84672 2.743276 0.874698 2.706246 0.902742 " transform="matrix(60.023178, 0, 0, -59.895667, 337, 232.5)"/>
<path fill="none" stroke-width="0.04" stroke-linecap="butt" stroke-linejoin="miter" stroke="rgb(60.392157%, 44.705882%, 67.45098%)" stroke-opacity="1" stroke-miterlimit="10" d="M 2.590406 0.990459 C 2.553441 1.018503 2.516411 1.046546 2.479446 1.07459 " transform="matrix(60.023178, 0, 0, -59.895667, 337, 232.5)"/>
<path fill="none" stroke-width="0.04" stroke-linecap="butt" stroke-linejoin="miter" stroke="rgb(60.392157%, 44.705882%, 67.45098%)" stroke-opacity="1" stroke-miterlimit="10" d="M 2.363605 1.162308 C 2.326575 1.190351 2.289545 1.218395 2.25258 1.246373 " transform="matrix(60.023178, 0, 0, -59.895667, 337, 232.5)"/>
<path fill="none" stroke-width="0.04" stroke-linecap="butt" stroke-linejoin="miter" stroke="rgb(60.392157%, 44.705882%, 67.45098%)" stroke-opacity="1" stroke-miterlimit="10" d="M 2.13674 1.334156 C 2.09971 1.362134 2.062745 1.390178 2.025715 1.418221 " transform="matrix(60.023178, 0, 0, -59.895667, 337, 232.5)"/>
<path fill="none" stroke-width="0.04" stroke-linecap="butt" stroke-linejoin="miter" stroke="rgb(60.392157%, 44.705882%, 67.45098%)" stroke-opacity="1" stroke-miterlimit="10" d="M 1.909874 1.505939 C 1.872844 1.533983 1.835879 1.562026 1.798849 1.59007 " transform="matrix(60.023178, 0, 0, -59.895667, 337, 232.5)"/>
<path fill="none" stroke-width="0.04" stroke-linecap="butt" stroke-linejoin="miter" stroke="rgb(60.392157%, 44.705882%, 67.45098%)" stroke-opacity="1" stroke-miterlimit="10" d="M 1.683009 1.677787 C 1.646044 1.705831 1.609014 1.733874 1.571984 1.761853 " transform="matrix(60.023178, 0, 0, -59.895667, 337, 232.5)"/>
<path fill="none" stroke-width="0.04" stroke-linecap="butt" stroke-linejoin="miter" stroke="rgb(60.392157%, 44.705882%, 67.45098%)" stroke-opacity="1" stroke-miterlimit="10" d="M 1.456143 1.849636 C 1.419178 1.877614 1.382148 1.905657 1.345183 1.933701 " transform="matrix(60.023178, 0, 0, -59.895667, 337, 232.5)"/>
<path fill="none" stroke-width="0.04" stroke-linecap="butt" stroke-linejoin="miter" stroke="rgb(60.392157%, 44.705882%, 67.45098%)" stroke-opacity="1" stroke-miterlimit="10" d="M 1.229343 2.021419 C 1.192313 2.049462 1.155283 2.077506 1.118318 2.105549 " transform="matrix(60.023178, 0, 0, -59.895667, 337, 232.5)"/>
<path fill="none" stroke-width="0.04" stroke-linecap="butt" stroke-linejoin="miter" stroke="rgb(60.392157%, 44.705882%, 67.45098%)" stroke-opacity="1" stroke-miterlimit="10" d="M 1.002477 2.193267 C 0.965447 2.221311 0.928482 2.249354 0.891453 2.277332 " transform="matrix(60.023178, 0, 0, -59.895667, 337, 232.5)"/>
<path fill="none" stroke-width="0.04" stroke-linecap="butt" stroke-linejoin="miter" stroke="rgb(60.392157%, 44.705882%, 67.45098%)" stroke-opacity="1" stroke-miterlimit="10" d="M 0.775612 2.365115 C 0.738582 2.393094 0.701617 2.421137 0.664587 2.449181 " transform="matrix(60.023178, 0, 0, -59.895667, 337, 232.5)"/>
<path fill="none" stroke-width="0.04" stroke-linecap="butt" stroke-linejoin="miter" stroke="rgb(60.392157%, 44.705882%, 67.45098%)" stroke-opacity="1" stroke-miterlimit="10" d="M 0.548746 2.536898 C 0.511781 2.564942 0.474751 2.592985 0.437722 2.621029 " transform="matrix(60.023178, 0, 0, -59.895667, 337, 232.5)"/>
<path fill="none" stroke-width="0.04" stroke-linecap="butt" stroke-linejoin="miter" stroke="rgb(60.392157%, 44.705882%, 67.45098%)" stroke-opacity="1" stroke-miterlimit="10" d="M 0.321881 2.708747 C 0.284916 2.73679 0.247886 2.764769 0.210921 2.792812 " transform="matrix(60.023178, 0, 0, -59.895667, 337, 232.5)"/>
<path fill="none" stroke-width="0.04" stroke-linecap="butt" stroke-linejoin="miter" stroke="rgb(60.392157%, 44.705882%, 67.45098%)" stroke-opacity="1" stroke-miterlimit="10" d="M 0.210921 2.792812 C 0.173631 2.764769 0.136341 2.73679 0.0990503 2.708747 " transform="matrix(60.023178, 0, 0, -59.895667, 337, 232.5)"/>
<path fill="none" stroke-width="0.04" stroke-linecap="butt" stroke-linejoin="miter" stroke="rgb(60.392157%, 44.705882%, 67.45098%)" stroke-opacity="1" stroke-miterlimit="10" d="M -0.0175713 2.621029 C -0.0548616 2.592985 -0.0921519 2.564942 -0.129442 2.536898 " transform="matrix(60.023178, 0, 0, -59.895667, 337, 232.5)"/>
<path fill="none" stroke-width="0.04" stroke-linecap="butt" stroke-linejoin="miter" stroke="rgb(60.392157%, 44.705882%, 67.45098%)" stroke-opacity="1" stroke-miterlimit="10" d="M -0.246129 2.449181 C -0.283354 2.421137 -0.320644 2.393094 -0.357935 2.365115 " transform="matrix(60.023178, 0, 0, -59.895667, 337, 232.5)"/>
<path fill="none" stroke-width="0.04" stroke-linecap="butt" stroke-linejoin="miter" stroke="rgb(60.392157%, 44.705882%, 67.45098%)" stroke-opacity="1" stroke-miterlimit="10" d="M -0.474621 2.277332 C -0.511912 2.249354 -0.549137 2.221311 -0.586427 2.193267 " transform="matrix(60.023178, 0, 0, -59.895667, 337, 232.5)"/>
<path fill="none" stroke-width="0.04" stroke-linecap="butt" stroke-linejoin="miter" stroke="rgb(60.392157%, 44.705882%, 67.45098%)" stroke-opacity="1" stroke-miterlimit="10" d="M -0.703114 2.105549 C -0.740404 2.077506 -0.777629 2.049462 -0.81492 2.021419 " transform="matrix(60.023178, 0, 0, -59.895667, 337, 232.5)"/>
<path fill="none" stroke-width="0.04" stroke-linecap="butt" stroke-linejoin="miter" stroke="rgb(60.392157%, 44.705882%, 67.45098%)" stroke-opacity="1" stroke-miterlimit="10" d="M -0.931606 1.933701 C -0.968897 1.905657 -1.006187 1.877614 -1.043412 1.849636 " transform="matrix(60.023178, 0, 0, -59.895667, 337, 232.5)"/>
<path fill="none" stroke-width="0.04" stroke-linecap="butt" stroke-linejoin="miter" stroke="rgb(60.392157%, 44.705882%, 67.45098%)" stroke-opacity="1" stroke-miterlimit="10" d="M -1.160099 1.761853 C -1.197389 1.733874 -1.234679 1.705831 -1.27197 1.677787 " transform="matrix(60.023178, 0, 0, -59.895667, 337, 232.5)"/>
<path fill="none" stroke-width="0.04" stroke-linecap="butt" stroke-linejoin="miter" stroke="rgb(60.392157%, 44.705882%, 67.45098%)" stroke-opacity="1" stroke-miterlimit="10" d="M -1.388591 1.59007 C -1.425881 1.562026 -1.463172 1.533983 -1.500462 1.505939 " transform="matrix(60.023178, 0, 0, -59.895667, 337, 232.5)"/>
<path fill="none" stroke-width="0.04" stroke-linecap="butt" stroke-linejoin="miter" stroke="rgb(60.392157%, 44.705882%, 67.45098%)" stroke-opacity="1" stroke-miterlimit="10" d="M -1.617149 1.418221 C -1.654374 1.390178 -1.691664 1.362134 -1.728954 1.334156 " transform="matrix(60.023178, 0, 0, -59.895667, 337, 232.5)"/>
<path fill="none" stroke-width="0.04" stroke-linecap="butt" stroke-linejoin="miter" stroke="rgb(60.392157%, 44.705882%, 67.45098%)" stroke-opacity="1" stroke-miterlimit="10" d="M -1.845641 1.246373 C -1.882866 1.218395 -1.920157 1.190351 -1.957447 1.162308 " transform="matrix(60.023178, 0, 0, -59.895667, 337, 232.5)"/>
<path fill="none" stroke-width="0.04" stroke-linecap="butt" stroke-linejoin="miter" stroke="rgb(60.392157%, 44.705882%, 67.45098%)" stroke-opacity="1" stroke-miterlimit="10" d="M -2.074134 1.07459 C -2.111424 1.046546 -2.148649 1.018503 -2.185939 0.990459 " transform="matrix(60.023178, 0, 0, -59.895667, 337, 232.5)"/>
<path fill="none" stroke-width="0.04" stroke-linecap="butt" stroke-linejoin="miter" stroke="rgb(60.392157%, 44.705882%, 67.45098%)" stroke-opacity="1" stroke-miterlimit="10" d="M -2.302626 0.902742 C -2.339916 0.874698 -2.377207 0.84672 -2.414432 0.818676 " transform="matrix(60.023178, 0, 0, -59.895667, 337, 232.5)"/>
<path fill="none" stroke-width="0.04" stroke-linecap="butt" stroke-linejoin="miter" stroke="rgb(60.392157%, 44.705882%, 67.45098%)" stroke-opacity="1" stroke-miterlimit="10" d="M -2.531119 0.730893 C -2.568409 0.702915 -2.605699 0.674871 -2.642924 0.646828 " transform="matrix(60.023178, 0, 0, -59.895667, 337, 232.5)"/>
<path fill="none" stroke-width="0.04" stroke-linecap="butt" stroke-linejoin="miter" stroke="rgb(60.392157%, 44.705882%, 67.45098%)" stroke-opacity="1" stroke-miterlimit="10" d="M -2.759611 0.55911 C -2.796901 0.531067 -2.834192 0.503023 -2.871482 0.47498 " transform="matrix(60.023178, 0, 0, -59.895667, 337, 232.5)"/>
<path fill="none" stroke-width="0.04" stroke-linecap="butt" stroke-linejoin="miter" stroke="rgb(60.392157%, 44.705882%, 67.45098%)" stroke-opacity="1" stroke-miterlimit="10" d="M -2.988169 0.387262 C -3.025394 0.359218 -3.062684 0.33124 -3.099974 0.303196 " transform="matrix(60.023178, 0, 0, -59.895667, 337, 232.5)"/>
<path fill="none" stroke-width="0.04" stroke-linecap="butt" stroke-linejoin="miter" stroke="rgb(60.392157%, 44.705882%, 67.45098%)" stroke-opacity="1" stroke-miterlimit="10" d="M -3.216661 0.215414 C -3.253886 0.187435 -3.291177 0.159392 -3.328467 0.131348 " transform="matrix(60.023178, 0, 0, -59.895667, 337, 232.5)"/>
<path fill="none" stroke-width="0.04" stroke-linecap="butt" stroke-linejoin="miter" stroke="rgb(60.392157%, 44.705882%, 67.45098%)" stroke-opacity="1" stroke-miterlimit="10" d="M -3.445154 0.0436306 C -3.482444 0.015587 -3.519669 -0.0124566 -3.556959 -0.0405001 " transform="matrix(60.023178, 0, 0, -59.895667, 337, 232.5)"/>
<path fill="none" stroke-width="0.04" stroke-linecap="butt" stroke-linejoin="miter" stroke="rgb(60.392157%, 44.705882%, 67.45098%)" stroke-opacity="1" stroke-miterlimit="10" d="M -3.673646 -0.128218 C -3.710936 -0.156261 -3.748227 -0.18424 -3.785452 -0.212283 " transform="matrix(60.023178, 0, 0, -59.895667, 337, 232.5)"/>
<path fill="none" stroke-width="0.04" stroke-linecap="butt" stroke-linejoin="miter" stroke="rgb(60.392157%, 44.705882%, 67.45098%)" stroke-opacity="1" stroke-miterlimit="10" d="M -3.902138 -0.300066 C -3.939429 -0.328044 -3.976719 -0.356088 -4.013944 -0.384132 " transform="matrix(60.023178, 0, 0, -59.895667, 337, 232.5)"/>
<path fill="none" stroke-width="0.04" stroke-linecap="butt" stroke-linejoin="miter" stroke="rgb(60.392157%, 44.705882%, 67.45098%)" stroke-opacity="1" stroke-miterlimit="10" d="M -4.130631 -0.471849 C -4.167921 -0.499893 -4.205211 -0.527936 -4.242502 -0.555915 " transform="matrix(60.023178, 0, 0, -59.895667, 337, 232.5)"/>
<path fill="none" stroke-width="0.04" stroke-linecap="butt" stroke-linejoin="miter" stroke="rgb(60.392157%, 44.705882%, 67.45098%)" stroke-opacity="1" stroke-miterlimit="10" d="M -4.359188 -0.643697 C -4.396414 -0.671741 -4.433704 -0.699719 -4.470994 -0.727763 " transform="matrix(60.023178, 0, 0, -59.895667, 337, 232.5)"/>
<path fill="none" stroke-width="0.04" stroke-linecap="butt" stroke-linejoin="miter" stroke="rgb(60.392157%, 44.705882%, 67.45098%)" stroke-opacity="1" stroke-miterlimit="10" d="M -4.587681 -0.815546 C -4.624906 -0.843524 -4.662196 -0.871568 -4.699487 -0.899611 " transform="matrix(60.023178, 0, 0, -59.895667, 337, 232.5)"/>
<path fill="none" stroke-width="0.04" stroke-linecap="butt" stroke-linejoin="miter" stroke="rgb(60.392157%, 44.705882%, 67.45098%)" stroke-opacity="1" stroke-miterlimit="10" d="M -4.816173 -0.987329 C -4.853464 -1.015372 -4.890689 -1.043416 -4.927979 -1.071394 " transform="matrix(60.023178, 0, 0, -59.895667, 337, 232.5)"/>
<path fill="none" stroke-width="0.04" stroke-linecap="butt" stroke-linejoin="miter" stroke="rgb(60.392157%, 44.705882%, 67.45098%)" stroke-opacity="1" stroke-miterlimit="10" d="M -5.044666 -1.159177 C -5.081956 -1.187221 -5.119181 -1.215199 -5.156472 -1.243243 " transform="matrix(60.023178, 0, 0, -59.895667, 337, 232.5)"/>
<path fill="none" stroke-width="0.04" stroke-linecap="butt" stroke-linejoin="miter" stroke="rgb(60.392157%, 44.705882%, 67.45098%)" stroke-opacity="1" stroke-miterlimit="10" d="M 0.112001 -3.297466 C 0.112977 -3.237726 0.113953 -3.178052 0.11493 -3.118313 " transform="matrix(60.023178, 0, 0, -59.895667, 337, 232.5)"/>
<path fill="none" stroke-width="0.04" stroke-linecap="butt" stroke-linejoin="miter" stroke="rgb(60.392157%, 44.705882%, 67.45098%)" stroke-opacity="1" stroke-miterlimit="10" d="M 0.117988 -2.928008 C 0.118964 -2.868334 0.119941 -2.808595 0.120917 -2.748921 " transform="matrix(60.023178, 0, 0, -59.895667, 337, 232.5)"/>
<path fill="none" stroke-width="0.04" stroke-linecap="butt" stroke-linejoin="miter" stroke="rgb(60.392157%, 44.705882%, 67.45098%)" stroke-opacity="1" stroke-miterlimit="10" d="M 0.123976 -2.558551 C 0.124952 -2.498876 0.125928 -2.439137 0.126904 -2.379463 " transform="matrix(60.023178, 0, 0, -59.895667, 337, 232.5)"/>
<path fill="none" stroke-width="0.04" stroke-linecap="butt" stroke-linejoin="miter" stroke="rgb(60.392157%, 44.705882%, 67.45098%)" stroke-opacity="1" stroke-miterlimit="10" d="M 0.130028 -2.189093 C 0.131004 -2.129419 0.131915 -2.06968 0.132891 -2.010006 " transform="matrix(60.023178, 0, 0, -59.895667, 337, 232.5)"/>
<path fill="none" stroke-width="0.04" stroke-linecap="butt" stroke-linejoin="miter" stroke="rgb(60.392157%, 44.705882%, 67.45098%)" stroke-opacity="1" stroke-miterlimit="10" d="M 0.136015 -1.819701 C 0.136991 -1.759961 0.137968 -1.700287 0.138944 -1.640548 " transform="matrix(60.023178, 0, 0, -59.895667, 337, 232.5)"/>
<path fill="none" stroke-width="0.04" stroke-linecap="butt" stroke-linejoin="miter" stroke="rgb(60.392157%, 44.705882%, 67.45098%)" stroke-opacity="1" stroke-miterlimit="10" d="M 0.142002 -1.450243 C 0.142979 -1.390504 0.143955 -1.33083 0.144931 -1.27109 " transform="matrix(60.023178, 0, 0, -59.895667, 337, 232.5)"/>
<path fill="none" stroke-width="0.04" stroke-linecap="butt" stroke-linejoin="miter" stroke="rgb(60.392157%, 44.705882%, 67.45098%)" stroke-opacity="1" stroke-miterlimit="10" d="M 0.14799 -1.080786 C 0.148966 -1.021046 0.149942 -0.961372 0.150918 -0.901633 " transform="matrix(60.023178, 0, 0, -59.895667, 337, 232.5)"/>
<path fill="none" stroke-width="0.04" stroke-linecap="butt" stroke-linejoin="miter" stroke="rgb(60.392157%, 44.705882%, 67.45098%)" stroke-opacity="1" stroke-miterlimit="10" d="M 0.153977 -0.711328 C 0.154953 -0.651654 0.155929 -0.591915 0.156906 -0.532175 " transform="matrix(60.023178, 0, 0, -59.895667, 337, 232.5)"/>
<path fill="none" stroke-width="0.04" stroke-linecap="butt" stroke-linejoin="miter" stroke="rgb(60.392157%, 44.705882%, 67.45098%)" stroke-opacity="1" stroke-miterlimit="10" d="M 0.160029 -0.341871 C 0.16094 -0.282196 0.161917 -0.222457 0.162893 -0.162783 " transform="matrix(60.023178, 0, 0, -59.895667, 337, 232.5)"/>
<path fill="none" stroke-width="0.04" stroke-linecap="butt" stroke-linejoin="miter" stroke="rgb(60.392157%, 44.705882%, 67.45098%)" stroke-opacity="1" stroke-miterlimit="10" d="M 0.166017 0.027587 C 0.166993 0.0872611 0.167969 0.147 0.16888 0.206674 " transform="matrix(60.023178, 0, 0, -59.895667, 337, 232.5)"/>
<path fill="none" stroke-width="0.04" stroke-linecap="butt" stroke-linejoin="miter" stroke="rgb(60.392157%, 44.705882%, 67.45098%)" stroke-opacity="1" stroke-miterlimit="10" d="M 0.172004 0.397045 C 0.17298 0.456719 0.173956 0.516458 0.174932 0.576132 " transform="matrix(60.023178, 0, 0, -59.895667, 337, 232.5)"/>
<path fill="none" stroke-width="0.04" stroke-linecap="butt" stroke-linejoin="miter" stroke="rgb(60.392157%, 44.705882%, 67.45098%)" stroke-opacity="1" stroke-miterlimit="10" d="M 0.177991 0.766437 C 0.178967 0.826176 0.179944 0.88585 0.18092 0.94559 " transform="matrix(60.023178, 0, 0, -59.895667, 337, 232.5)"/>
<path fill="none" stroke-width="0.04" stroke-linecap="butt" stroke-linejoin="miter" stroke="rgb(60.392157%, 44.705882%, 67.45098%)" stroke-opacity="1" stroke-miterlimit="10" d="M 0.183978 1.135894 C 0.184955 1.195634 0.185931 1.255308 0.186907 1.315047 " transform="matrix(60.023178, 0, 0, -59.895667, 337, 232.5)"/>
<path fill="none" stroke-width="0.04" stroke-linecap="butt" stroke-linejoin="miter" stroke="rgb(60.392157%, 44.705882%, 67.45098%)" stroke-opacity="1" stroke-miterlimit="10" d="M 0.189966 1.505352 C 0.190942 1.565091 0.191918 1.624765 0.192894 1.684505 " transform="matrix(60.023178, 0, 0, -59.895667, 337, 232.5)"/>
<path fill="none" stroke-width="0.04" stroke-linecap="butt" stroke-linejoin="miter" stroke="rgb(60.392157%, 44.705882%, 67.45098%)" stroke-opacity="1" stroke-miterlimit="10" d="M 0.196018 1.87481 C 0.196994 1.934484 0.197905 1.994223 0.198882 2.053962 " transform="matrix(60.023178, 0, 0, -59.895667, 337, 232.5)"/>
<path fill="none" stroke-width="0.04" stroke-linecap="butt" stroke-linejoin="miter" stroke="rgb(60.392157%, 44.705882%, 67.45098%)" stroke-opacity="1" stroke-miterlimit="10" d="M 0.202005 2.244267 C 0.202981 2.303941 0.203958 2.36368 0.204869 2.423355 " transform="matrix(60.023178, 0, 0, -59.895667, 337, 232.5)"/>
<path fill="none" stroke-width="0.04" stroke-linecap="butt" stroke-linejoin="miter" stroke="rgb(60.392157%, 44.705882%, 67.45098%)" stroke-opacity="1" stroke-miterlimit="10" d="M 0.207993 2.613725 C 0.208969 2.673399 0.209945 2.733138 0.210921 2.792812 " transform="matrix(60.023178, 0, 0, -59.895667, 337, 232.5)"/>
<path fill-rule="nonzero" fill="rgb(60.392157%, 44.705882%, 67.45098%)" fill-opacity="1" d="M 30.492188 306.964844 C 30.492188 306.171875 30.175781 305.410156 29.613281 304.847656 C 29.050781 304.285156 28.289062 303.96875 27.492188 303.96875 C 26.695312 303.96875 25.933594 304.285156 25.371094 304.847656 C 24.804688 305.410156 24.488281 306.171875 24.488281 306.964844 C 24.488281 307.757812 24.804688 308.519531 25.371094 309.082031 C 25.933594 309.644531 26.695312 309.960938 27.492188 309.960938 C 28.289062 309.960938 29.050781 309.644531 29.613281 309.082031 C 30.175781 308.519531 30.492188 307.757812 30.492188 306.964844 Z M 30.492188 306.964844 "/>
<path fill-rule="nonzero" fill="rgb(60.392157%, 44.705882%, 67.45098%)" fill-opacity="1" d="M 346.722656 430.003906 C 346.722656 429.210938 346.40625 428.449219 345.84375 427.886719 C 345.28125 427.324219 344.519531 427.007812 343.722656 427.007812 C 342.925781 427.007812 342.164062 427.324219 341.601562 427.886719 C 341.039062 428.449219 340.722656 429.210938 340.722656 430.003906 C 340.722656 430.796875 341.039062 431.558594 341.601562 432.121094 C 342.164062 432.683594 342.925781 433 343.722656 433 C 344.519531 433 345.28125 432.683594 345.84375 432.121094 C 346.40625 431.558594 346.722656 430.796875 346.722656 430.003906 Z M 346.722656 430.003906 "/>
<path fill-rule="nonzero" fill="rgb(60.392157%, 44.705882%, 67.45098%)" fill-opacity="1" d="M 672.5 306.964844 C 672.5 306.171875 672.183594 305.410156 671.621094 304.847656 C 671.058594 304.285156 670.292969 303.96875 669.5 303.96875 C 668.703125 303.96875 667.9375 304.285156 667.375 304.847656 C 666.8125 305.410156 666.496094 306.171875 666.496094 306.964844 C 666.496094 307.757812 666.8125 308.519531 667.375 309.082031 C 667.9375 309.644531 668.703125 309.960938 669.5 309.960938 C 670.292969 309.960938 671.058594 309.644531 671.621094 309.082031 C 672.183594 308.519531 672.5 307.757812 672.5 306.964844 Z M 672.5 306.964844 "/>
<path fill-rule="nonzero" fill="rgb(60.392157%, 44.705882%, 67.45098%)" fill-opacity="1" d="M 352.660156 65.222656 C 352.660156 64.425781 352.34375 63.664062 351.78125 63.105469 C 351.21875 62.542969 350.453125 62.226562 349.660156 62.226562 C 348.863281 62.226562 348.097656 62.542969 347.535156 63.105469 C 346.972656 63.664062 346.65625 64.425781 346.65625 65.222656 C 346.65625 66.015625 346.972656 66.777344 347.535156 67.339844 C 348.097656 67.902344 348.863281 68.214844 349.660156 68.214844 C 350.453125 68.214844 351.21875 67.902344 351.78125 67.339844 C 352.34375 66.777344 352.660156 66.015625 352.660156 65.222656 Z M 352.660156 65.222656 "/>
<path fill="none" stroke-width="0.04" stroke-linecap="butt" stroke-linejoin="miter" stroke="rgb(51.372549%, 75.686275%, 40.392157%)" stroke-opacity="1" stroke-miterlimit="10" d="M -5.156472 -1.243243 C -5.104604 -1.268351 -5.052671 -1.293525 -5.000737 -1.318634 " transform="matrix(60.023178, 0, 0, -59.895667, 337, 232.5)"/>
<path fill="none" stroke-width="0.04" stroke-linecap="butt" stroke-linejoin="miter" stroke="rgb(51.372549%, 75.686275%, 40.392157%)" stroke-opacity="1" stroke-miterlimit="10" d="M -4.835307 -1.398786 C -4.783374 -1.423895 -4.73144 -1.449004 -4.679572 -1.474178 " transform="matrix(60.023178, 0, 0, -59.895667, 337, 232.5)"/>
<path fill="none" stroke-width="0.04" stroke-linecap="butt" stroke-linejoin="miter" stroke="rgb(51.372549%, 75.686275%, 40.392157%)" stroke-opacity="1" stroke-miterlimit="10" d="M -4.514077 -1.554265 C -4.462143 -1.579374 -4.410275 -1.604548 -4.358342 -1.629657 " transform="matrix(60.023178, 0, 0, -59.895667, 337, 232.5)"/>
<path fill="none" stroke-width="0.04" stroke-linecap="butt" stroke-linejoin="miter" stroke="rgb(51.372549%, 75.686275%, 40.392157%)" stroke-opacity="1" stroke-miterlimit="10" d="M -4.192912 -1.709744 C -4.140978 -1.734918 -4.089045 -1.760027 -4.037177 -1.785135 " transform="matrix(60.023178, 0, 0, -59.895667, 337, 232.5)"/>
<path fill="none" stroke-width="0.04" stroke-linecap="butt" stroke-linejoin="miter" stroke="rgb(51.372549%, 75.686275%, 40.392157%)" stroke-opacity="1" stroke-miterlimit="10" d="M -3.871681 -1.865288 C -3.819748 -1.890397 -3.76788 -1.915571 -3.715947 -1.940679 " transform="matrix(60.023178, 0, 0, -59.895667, 337, 232.5)"/>
<path fill="none" stroke-width="0.04" stroke-linecap="butt" stroke-linejoin="miter" stroke="rgb(51.372549%, 75.686275%, 40.392157%)" stroke-opacity="1" stroke-miterlimit="10" d="M -3.550451 -2.020766 C -3.498583 -2.04594 -3.44665 -2.071049 -3.394717 -2.096158 " transform="matrix(60.023178, 0, 0, -59.895667, 337, 232.5)"/>
<path fill="none" stroke-width="0.04" stroke-linecap="butt" stroke-linejoin="miter" stroke="rgb(51.372549%, 75.686275%, 40.392157%)" stroke-opacity="1" stroke-miterlimit="10" d="M -3.229286 -2.17631 C -3.177353 -2.201419 -3.125485 -2.226528 -3.073552 -2.251702 " transform="matrix(60.023178, 0, 0, -59.895667, 337, 232.5)"/>
<path fill="none" stroke-width="0.04" stroke-linecap="butt" stroke-linejoin="miter" stroke="rgb(51.372549%, 75.686275%, 40.392157%)" stroke-opacity="1" stroke-miterlimit="10" d="M -2.908056 -2.331789 C -2.856188 -2.356898 -2.804255 -2.382072 -2.752322 -2.407181 " transform="matrix(60.023178, 0, 0, -59.895667, 337, 232.5)"/>
<path fill="none" stroke-width="0.04" stroke-linecap="butt" stroke-linejoin="miter" stroke="rgb(51.372549%, 75.686275%, 40.392157%)" stroke-opacity="1" stroke-miterlimit="10" d="M -2.586891 -2.487333 C -2.534958 -2.512442 -2.483025 -2.537551 -2.431157 -2.562725 " transform="matrix(60.023178, 0, 0, -59.895667, 337, 232.5)"/>
<path fill="none" stroke-width="0.04" stroke-linecap="butt" stroke-linejoin="miter" stroke="rgb(51.372549%, 75.686275%, 40.392157%)" stroke-opacity="1" stroke-miterlimit="10" d="M -2.265661 -2.642812 C -2.213793 -2.66792 -2.16186 -2.693094 -2.109927 -2.718203 " transform="matrix(60.023178, 0, 0, -59.895667, 337, 232.5)"/>
<path fill="none" stroke-width="0.04" stroke-linecap="butt" stroke-linejoin="miter" stroke="rgb(51.372549%, 75.686275%, 40.392157%)" stroke-opacity="1" stroke-miterlimit="10" d="M -1.944496 -2.79829 C -1.892563 -2.823464 -1.84063 -2.848573 -1.788762 -2.873682 " transform="matrix(60.023178, 0, 0, -59.895667, 337, 232.5)"/>
<path fill="none" stroke-width="0.04" stroke-linecap="butt" stroke-linejoin="miter" stroke="rgb(51.372549%, 75.686275%, 40.392157%)" stroke-opacity="1" stroke-miterlimit="10" d="M -1.623266 -2.953834 C -1.571333 -2.978943 -1.519465 -3.004117 -1.467532 -3.029226 " transform="matrix(60.023178, 0, 0, -59.895667, 337, 232.5)"/>
<path fill="none" stroke-width="0.04" stroke-linecap="butt" stroke-linejoin="miter" stroke="rgb(51.372549%, 75.686275%, 40.392157%)" stroke-opacity="1" stroke-miterlimit="10" d="M -1.302101 -3.109313 C -1.250168 -3.134487 -1.198235 -3.159596 -1.146367 -3.184704 " transform="matrix(60.023178, 0, 0, -59.895667, 337, 232.5)"/>
<path fill="none" stroke-width="0.04" stroke-linecap="butt" stroke-linejoin="miter" stroke="rgb(51.372549%, 75.686275%, 40.392157%)" stroke-opacity="1" stroke-miterlimit="10" d="M -0.980871 -3.264857 C -0.928938 -3.289966 -0.87707 -3.315074 -0.825137 -3.340248 " transform="matrix(60.023178, 0, 0, -59.895667, 337, 232.5)"/>
<path fill="none" stroke-width="0.04" stroke-linecap="butt" stroke-linejoin="miter" stroke="rgb(51.372549%, 75.686275%, 40.392157%)" stroke-opacity="1" stroke-miterlimit="10" d="M -0.659641 -3.420336 C -0.607773 -3.445444 -0.55584 -3.470618 -0.503907 -3.495727 " transform="matrix(60.023178, 0, 0, -59.895667, 337, 232.5)"/>
<path fill="none" stroke-width="0.04" stroke-linecap="butt" stroke-linejoin="miter" stroke="rgb(51.372549%, 75.686275%, 40.392157%)" stroke-opacity="1" stroke-miterlimit="10" d="M -0.338476 -3.575814 C -0.286543 -3.600988 -0.234675 -3.626097 -0.182742 -3.651271 " transform="matrix(60.023178, 0, 0, -59.895667, 337, 232.5)"/>
<path fill="none" stroke-width="0.04" stroke-linecap="butt" stroke-linejoin="miter" stroke="rgb(51.372549%, 75.686275%, 40.392157%)" stroke-opacity="1" stroke-miterlimit="10" d="M -0.0172459 -3.731358 C 0.034622 -3.756467 0.0865551 -3.781641 0.138488 -3.80675 " transform="matrix(60.023178, 0, 0, -59.895667, 337, 232.5)"/>
<path fill="none" stroke-width="0.04" stroke-linecap="butt" stroke-linejoin="miter" stroke="rgb(51.372549%, 75.686275%, 40.392157%)" stroke-opacity="1" stroke-miterlimit="10" d="M 0.138488 -3.80675 C 0.190942 -3.781641 0.243396 -3.756467 0.295849 -3.731358 " transform="matrix(60.023178, 0, 0, -59.895667, 337, 232.5)"/>
<path fill="none" stroke-width="0.04" stroke-linecap="butt" stroke-linejoin="miter" stroke="rgb(51.372549%, 75.686275%, 40.392157%)" stroke-opacity="1" stroke-miterlimit="10" d="M 0.463037 -3.651271 C 0.515491 -3.626097 0.567945 -3.600988 0.620398 -3.575814 " transform="matrix(60.023178, 0, 0, -59.895667, 337, 232.5)"/>
<path fill="none" stroke-width="0.04" stroke-linecap="butt" stroke-linejoin="miter" stroke="rgb(51.372549%, 75.686275%, 40.392157%)" stroke-opacity="1" stroke-miterlimit="10" d="M 0.787586 -3.495727 C 0.84004 -3.470618 0.892494 -3.445444 0.944947 -3.420336 " transform="matrix(60.023178, 0, 0, -59.895667, 337, 232.5)"/>
<path fill="none" stroke-width="0.04" stroke-linecap="butt" stroke-linejoin="miter" stroke="rgb(51.372549%, 75.686275%, 40.392157%)" stroke-opacity="1" stroke-miterlimit="10" d="M 1.112135 -3.340248 C 1.164589 -3.315074 1.217043 -3.289966 1.269497 -3.264857 " transform="matrix(60.023178, 0, 0, -59.895667, 337, 232.5)"/>
<path fill="none" stroke-width="0.04" stroke-linecap="butt" stroke-linejoin="miter" stroke="rgb(51.372549%, 75.686275%, 40.392157%)" stroke-opacity="1" stroke-miterlimit="10" d="M 1.436685 -3.184704 C 1.489138 -3.159596 1.541592 -3.134487 1.594046 -3.109313 " transform="matrix(60.023178, 0, 0, -59.895667, 337, 232.5)"/>
<path fill="none" stroke-width="0.04" stroke-linecap="butt" stroke-linejoin="miter" stroke="rgb(51.372549%, 75.686275%, 40.392157%)" stroke-opacity="1" stroke-miterlimit="10" d="M 1.761234 -3.029226 C 1.813687 -3.004117 1.866141 -2.978943 1.918595 -2.953834 " transform="matrix(60.023178, 0, 0, -59.895667, 337, 232.5)"/>
<path fill="none" stroke-width="0.04" stroke-linecap="butt" stroke-linejoin="miter" stroke="rgb(51.372549%, 75.686275%, 40.392157%)" stroke-opacity="1" stroke-miterlimit="10" d="M 2.085783 -2.873682 C 2.138236 -2.848573 2.19069 -2.823464 2.243144 -2.79829 " transform="matrix(60.023178, 0, 0, -59.895667, 337, 232.5)"/>
<path fill="none" stroke-width="0.04" stroke-linecap="butt" stroke-linejoin="miter" stroke="rgb(51.372549%, 75.686275%, 40.392157%)" stroke-opacity="1" stroke-miterlimit="10" d="M 2.410332 -2.718203 C 2.462786 -2.693094 2.515239 -2.66792 2.567693 -2.642812 " transform="matrix(60.023178, 0, 0, -59.895667, 337, 232.5)"/>
<path fill="none" stroke-width="0.04" stroke-linecap="butt" stroke-linejoin="miter" stroke="rgb(51.372549%, 75.686275%, 40.392157%)" stroke-opacity="1" stroke-miterlimit="10" d="M 2.734881 -2.562725 C 2.787335 -2.537551 2.839788 -2.512442 2.892242 -2.487333 " transform="matrix(60.023178, 0, 0, -59.895667, 337, 232.5)"/>
<path fill="none" stroke-width="0.04" stroke-linecap="butt" stroke-linejoin="miter" stroke="rgb(51.372549%, 75.686275%, 40.392157%)" stroke-opacity="1" stroke-miterlimit="10" d="M 3.05943 -2.407181 C 3.111884 -2.382072 3.164338 -2.356898 3.216791 -2.331789 " transform="matrix(60.023178, 0, 0, -59.895667, 337, 232.5)"/>
<path fill="none" stroke-width="0.04" stroke-linecap="butt" stroke-linejoin="miter" stroke="rgb(51.372549%, 75.686275%, 40.392157%)" stroke-opacity="1" stroke-miterlimit="10" d="M 3.383979 -2.251702 C 3.436433 -2.226528 3.488887 -2.201419 3.54134 -2.17631 " transform="matrix(60.023178, 0, 0, -59.895667, 337, 232.5)"/>
<path fill="none" stroke-width="0.04" stroke-linecap="butt" stroke-linejoin="miter" stroke="rgb(51.372549%, 75.686275%, 40.392157%)" stroke-opacity="1" stroke-miterlimit="10" d="M 3.708528 -2.096158 C 3.760982 -2.071049 3.813436 -2.04594 3.865889 -2.020766 " transform="matrix(60.023178, 0, 0, -59.895667, 337, 232.5)"/>
<path fill="none" stroke-width="0.04" stroke-linecap="butt" stroke-linejoin="miter" stroke="rgb(51.372549%, 75.686275%, 40.392157%)" stroke-opacity="1" stroke-miterlimit="10" d="M 4.033143 -1.940679 C 4.085596 -1.915571 4.13805 -1.890397 4.190504 -1.865288 " transform="matrix(60.023178, 0, 0, -59.895667, 337, 232.5)"/>
<path fill="none" stroke-width="0.04" stroke-linecap="butt" stroke-linejoin="miter" stroke="rgb(51.372549%, 75.686275%, 40.392157%)" stroke-opacity="1" stroke-miterlimit="10" d="M 4.357692 -1.785135 C 4.410145 -1.760027 4.462599 -1.734918 4.515053 -1.709744 " transform="matrix(60.023178, 0, 0, -59.895667, 337, 232.5)"/>
<path fill="none" stroke-width="0.04" stroke-linecap="butt" stroke-linejoin="miter" stroke="rgb(51.372549%, 75.686275%, 40.392157%)" stroke-opacity="1" stroke-miterlimit="10" d="M 4.682241 -1.629657 C 4.734694 -1.604548 4.787148 -1.579374 4.839602 -1.554265 " transform="matrix(60.023178, 0, 0, -59.895667, 337, 232.5)"/>
<path fill="none" stroke-width="0.04" stroke-linecap="butt" stroke-linejoin="miter" stroke="rgb(51.372549%, 75.686275%, 40.392157%)" stroke-opacity="1" stroke-miterlimit="10" d="M 5.00679 -1.474178 C 5.059244 -1.449004 5.111697 -1.423895 5.164151 -1.398786 " transform="matrix(60.023178, 0, 0, -59.895667, 337, 232.5)"/>
<path fill="none" stroke-width="0.04" stroke-linecap="butt" stroke-linejoin="miter" stroke="rgb(51.372549%, 75.686275%, 40.392157%)" stroke-opacity="1" stroke-miterlimit="10" d="M 5.331339 -1.318634 C 5.383793 -1.293525 5.436246 -1.268351 5.4887 -1.243243 " transform="matrix(60.023178, 0, 0, -59.895667, 337, 232.5)"/>
<path fill="none" stroke-width="0.04" stroke-linecap="butt" stroke-linejoin="miter" stroke="rgb(51.372549%, 75.686275%, 40.392157%)" stroke-opacity="1" stroke-miterlimit="10" d="M 5.4887 -1.243243 C 5.452451 -1.216569 5.416202 -1.189829 5.379953 -1.16309 " transform="matrix(60.023178, 0, 0, -59.895667, 337, 232.5)"/>
<path fill="none" stroke-width="0.04" stroke-linecap="butt" stroke-linejoin="miter" stroke="rgb(51.372549%, 75.686275%, 40.392157%)" stroke-opacity="1" stroke-miterlimit="10" d="M 5.266455 -1.079481 C 5.230206 -1.052742 5.193957 -1.026068 5.157708 -0.999329 " transform="matrix(60.023178, 0, 0, -59.895667, 337, 232.5)"/>
<path fill="none" stroke-width="0.04" stroke-linecap="butt" stroke-linejoin="miter" stroke="rgb(51.372549%, 75.686275%, 40.392157%)" stroke-opacity="1" stroke-miterlimit="10" d="M 5.04421 -0.91572 C 5.007961 -0.888981 4.971712 -0.862307 4.935463 -0.835568 " transform="matrix(60.023178, 0, 0, -59.895667, 337, 232.5)"/>
<path fill="none" stroke-width="0.04" stroke-linecap="butt" stroke-linejoin="miter" stroke="rgb(51.372549%, 75.686275%, 40.392157%)" stroke-opacity="1" stroke-miterlimit="10" d="M 4.821965 -0.751959 C 4.785716 -0.725219 4.749467 -0.698545 4.713218 -0.671806 " transform="matrix(60.023178, 0, 0, -59.895667, 337, 232.5)"/>
<path fill="none" stroke-width="0.04" stroke-linecap="butt" stroke-linejoin="miter" stroke="rgb(51.372549%, 75.686275%, 40.392157%)" stroke-opacity="1" stroke-miterlimit="10" d="M 4.599721 -0.588197 C 4.563471 -0.561458 4.527222 -0.534784 4.490973 -0.508045 " transform="matrix(60.023178, 0, 0, -59.895667, 337, 232.5)"/>
<path fill="none" stroke-width="0.04" stroke-linecap="butt" stroke-linejoin="miter" stroke="rgb(51.372549%, 75.686275%, 40.392157%)" stroke-opacity="1" stroke-miterlimit="10" d="M 4.377476 -0.424436 C 4.341227 -0.397697 4.304978 -0.371023 4.268729 -0.344284 " transform="matrix(60.023178, 0, 0, -59.895667, 337, 232.5)"/>
<path fill="none" stroke-width="0.04" stroke-linecap="butt" stroke-linejoin="miter" stroke="rgb(51.372549%, 75.686275%, 40.392157%)" stroke-opacity="1" stroke-miterlimit="10" d="M 4.155231 -0.260675 C 4.118982 -0.233935 4.082733 -0.207261 4.046484 -0.180522 " transform="matrix(60.023178, 0, 0, -59.895667, 337, 232.5)"/>
<path fill="none" stroke-width="0.04" stroke-linecap="butt" stroke-linejoin="miter" stroke="rgb(51.372549%, 75.686275%, 40.392157%)" stroke-opacity="1" stroke-miterlimit="10" d="M 3.932986 -0.0969133 C 3.896737 -0.0701741 3.860488 -0.0435001 3.824239 -0.0167609 " transform="matrix(60.023178, 0, 0, -59.895667, 337, 232.5)"/>
<path fill="none" stroke-width="0.04" stroke-linecap="butt" stroke-linejoin="miter" stroke="rgb(51.372549%, 75.686275%, 40.392157%)" stroke-opacity="1" stroke-miterlimit="10" d="M 3.710741 0.066848 C 3.674492 0.0935872 3.638243 0.120261 3.601994 0.147 " transform="matrix(60.023178, 0, 0, -59.895667, 337, 232.5)"/>
<path fill="none" stroke-width="0.04" stroke-linecap="butt" stroke-linejoin="miter" stroke="rgb(51.372549%, 75.686275%, 40.392157%)" stroke-opacity="1" stroke-miterlimit="10" d="M 3.488496 0.230609 C 3.452247 0.257349 3.415998 0.284023 3.379749 0.310762 " transform="matrix(60.023178, 0, 0, -59.895667, 337, 232.5)"/>
<path fill="none" stroke-width="0.04" stroke-linecap="butt" stroke-linejoin="miter" stroke="rgb(51.372549%, 75.686275%, 40.392157%)" stroke-opacity="1" stroke-miterlimit="10" d="M 3.266251 0.394371 C 3.230002 0.42111 3.193753 0.447849 3.157504 0.474523 " transform="matrix(60.023178, 0, 0, -59.895667, 337, 232.5)"/>
<path fill="none" stroke-width="0.04" stroke-linecap="butt" stroke-linejoin="miter" stroke="rgb(51.372549%, 75.686275%, 40.392157%)" stroke-opacity="1" stroke-miterlimit="10" d="M 3.044006 0.558132 C 3.007757 0.584871 2.971508 0.61161 2.935259 0.638284 " transform="matrix(60.023178, 0, 0, -59.895667, 337, 232.5)"/>
<path fill="none" stroke-width="0.04" stroke-linecap="butt" stroke-linejoin="miter" stroke="rgb(51.372549%, 75.686275%, 40.392157%)" stroke-opacity="1" stroke-miterlimit="10" d="M 2.821762 0.721893 C 2.785512 0.748633 2.749263 0.775372 2.713014 0.802046 " transform="matrix(60.023178, 0, 0, -59.895667, 337, 232.5)"/>
<path fill="none" stroke-width="0.04" stroke-linecap="butt" stroke-linejoin="miter" stroke="rgb(51.372549%, 75.686275%, 40.392157%)" stroke-opacity="1" stroke-miterlimit="10" d="M 2.599517 0.885655 C 2.563268 0.912394 2.527019 0.939133 2.49077 0.965807 " transform="matrix(60.023178, 0, 0, -59.895667, 337, 232.5)"/>
<path fill="none" stroke-width="0.04" stroke-linecap="butt" stroke-linejoin="miter" stroke="rgb(51.372549%, 75.686275%, 40.392157%)" stroke-opacity="1" stroke-miterlimit="10" d="M 2.377272 1.049416 C 2.341023 1.076155 2.304774 1.102894 2.268525 1.129568 " transform="matrix(60.023178, 0, 0, -59.895667, 337, 232.5)"/>
<path fill="none" stroke-width="0.04" stroke-linecap="butt" stroke-linejoin="miter" stroke="rgb(51.372549%, 75.686275%, 40.392157%)" stroke-opacity="1" stroke-miterlimit="10" d="M 2.155027 1.213242 C 2.118778 1.239916 2.082529 1.266656 2.04628 1.29333 " transform="matrix(60.023178, 0, 0, -59.895667, 337, 232.5)"/>
<path fill="none" stroke-width="0.04" stroke-linecap="butt" stroke-linejoin="miter" stroke="rgb(51.372549%, 75.686275%, 40.392157%)" stroke-opacity="1" stroke-miterlimit="10" d="M 1.932782 1.377004 C 1.896533 1.403678 1.860284 1.430417 1.824035 1.457091 " transform="matrix(60.023178, 0, 0, -59.895667, 337, 232.5)"/>
<path fill="none" stroke-width="0.04" stroke-linecap="butt" stroke-linejoin="miter" stroke="rgb(51.372549%, 75.686275%, 40.392157%)" stroke-opacity="1" stroke-miterlimit="10" d="M 1.710537 1.540765 C 1.674288 1.567439 1.638039 1.594178 1.60179 1.620852 " transform="matrix(60.023178, 0, 0, -59.895667, 337, 232.5)"/>
<path fill="none" stroke-width="0.04" stroke-linecap="butt" stroke-linejoin="miter" stroke="rgb(51.372549%, 75.686275%, 40.392157%)" stroke-opacity="1" stroke-miterlimit="10" d="M 1.488292 1.704526 C 1.452043 1.7312 1.415794 1.75794 1.379545 1.784614 " transform="matrix(60.023178, 0, 0, -59.895667, 337, 232.5)"/>
<path fill="none" stroke-width="0.04" stroke-linecap="butt" stroke-linejoin="miter" stroke="rgb(51.372549%, 75.686275%, 40.392157%)" stroke-opacity="1" stroke-miterlimit="10" d="M 1.266047 1.868288 C 1.229798 1.894962 1.193549 1.921701 1.1573 1.948375 " transform="matrix(60.023178, 0, 0, -59.895667, 337, 232.5)"/>
<path fill="none" stroke-width="0.04" stroke-linecap="butt" stroke-linejoin="miter" stroke="rgb(51.372549%, 75.686275%, 40.392157%)" stroke-opacity="1" stroke-miterlimit="10" d="M 1.043803 2.032049 C 1.007553 2.058723 0.971304 2.085462 0.935055 2.112202 " transform="matrix(60.023178, 0, 0, -59.895667, 337, 232.5)"/>
<path fill="none" stroke-width="0.04" stroke-linecap="butt" stroke-linejoin="miter" stroke="rgb(51.372549%, 75.686275%, 40.392157%)" stroke-opacity="1" stroke-miterlimit="10" d="M 0.821558 2.19581 C 0.785309 2.222484 0.74906 2.249224 0.712811 2.275963 " transform="matrix(60.023178, 0, 0, -59.895667, 337, 232.5)"/>
<path fill="none" stroke-width="0.04" stroke-linecap="butt" stroke-linejoin="miter" stroke="rgb(51.372549%, 75.686275%, 40.392157%)" stroke-opacity="1" stroke-miterlimit="10" d="M 0.599313 2.359572 C 0.563064 2.386246 0.526815 2.412985 0.490566 2.439724 " transform="matrix(60.023178, 0, 0, -59.895667, 337, 232.5)"/>
<path fill="none" stroke-width="0.04" stroke-linecap="butt" stroke-linejoin="miter" stroke="rgb(51.372549%, 75.686275%, 40.392157%)" stroke-opacity="1" stroke-miterlimit="10" d="M 0.377068 2.523333 C 0.340819 2.550007 0.30457 2.576746 0.268321 2.603485 " transform="matrix(60.023178, 0, 0, -59.895667, 337, 232.5)"/>
<path fill="none" stroke-width="0.04" stroke-linecap="butt" stroke-linejoin="miter" stroke="rgb(51.372549%, 75.686275%, 40.392157%)" stroke-opacity="1" stroke-miterlimit="10" d="M 0.268321 2.603485 C 0.23064 2.576746 0.192959 2.550007 0.155279 2.523333 " transform="matrix(60.023178, 0, 0, -59.895667, 337, 232.5)"/>
<path fill="none" stroke-width="0.04" stroke-linecap="butt" stroke-linejoin="miter" stroke="rgb(51.372549%, 75.686275%, 40.392157%)" stroke-opacity="1" stroke-miterlimit="10" d="M 0.0373554 2.439724 C -0.000325395 2.412985 -0.0380062 2.386246 -0.0756869 2.359572 " transform="matrix(60.023178, 0, 0, -59.895667, 337, 232.5)"/>
<path fill="none" stroke-width="0.04" stroke-linecap="butt" stroke-linejoin="miter" stroke="rgb(51.372549%, 75.686275%, 40.392157%)" stroke-opacity="1" stroke-miterlimit="10" d="M -0.19361 2.275963 C -0.231291 2.249224 -0.268972 2.222484 -0.306587 2.19581 " transform="matrix(60.023178, 0, 0, -59.895667, 337, 232.5)"/>
<path fill="none" stroke-width="0.04" stroke-linecap="butt" stroke-linejoin="miter" stroke="rgb(51.372549%, 75.686275%, 40.392157%)" stroke-opacity="1" stroke-miterlimit="10" d="M -0.424576 2.112202 C -0.462191 2.085462 -0.499872 2.058723 -0.537553 2.032049 " transform="matrix(60.023178, 0, 0, -59.895667, 337, 232.5)"/>
<path fill="none" stroke-width="0.04" stroke-linecap="butt" stroke-linejoin="miter" stroke="rgb(51.372549%, 75.686275%, 40.392157%)" stroke-opacity="1" stroke-miterlimit="10" d="M -0.655476 1.948375 C -0.693157 1.921701 -0.730837 1.894962 -0.768518 1.868288 " transform="matrix(60.023178, 0, 0, -59.895667, 337, 232.5)"/>
<path fill="none" stroke-width="0.04" stroke-linecap="butt" stroke-linejoin="miter" stroke="rgb(51.372549%, 75.686275%, 40.392157%)" stroke-opacity="1" stroke-miterlimit="10" d="M -0.886441 1.784614 C -0.924122 1.75794 -0.961803 1.7312 -0.999484 1.704526 " transform="matrix(60.023178, 0, 0, -59.895667, 337, 232.5)"/>
<path fill="none" stroke-width="0.04" stroke-linecap="butt" stroke-linejoin="miter" stroke="rgb(51.372549%, 75.686275%, 40.392157%)" stroke-opacity="1" stroke-miterlimit="10" d="M -1.117407 1.620852 C -1.155088 1.594178 -1.192703 1.567439 -1.230384 1.540765 " transform="matrix(60.023178, 0, 0, -59.895667, 337, 232.5)"/>
<path fill="none" stroke-width="0.04" stroke-linecap="butt" stroke-linejoin="miter" stroke="rgb(51.372549%, 75.686275%, 40.392157%)" stroke-opacity="1" stroke-miterlimit="10" d="M -1.348307 1.457091 C -1.385988 1.430417 -1.423669 1.403678 -1.46135 1.377004 " transform="matrix(60.023178, 0, 0, -59.895667, 337, 232.5)"/>
<path fill="none" stroke-width="0.04" stroke-linecap="butt" stroke-linejoin="miter" stroke="rgb(51.372549%, 75.686275%, 40.392157%)" stroke-opacity="1" stroke-miterlimit="10" d="M -1.579273 1.29333 C -1.616953 1.266656 -1.654634 1.239916 -1.692315 1.213242 " transform="matrix(60.023178, 0, 0, -59.895667, 337, 232.5)"/>
<path fill="none" stroke-width="0.04" stroke-linecap="butt" stroke-linejoin="miter" stroke="rgb(51.372549%, 75.686275%, 40.392157%)" stroke-opacity="1" stroke-miterlimit="10" d="M -1.810238 1.129568 C -1.847919 1.102894 -1.8856 1.076155 -1.923215 1.049416 " transform="matrix(60.023178, 0, 0, -59.895667, 337, 232.5)"/>
<path fill="none" stroke-width="0.04" stroke-linecap="butt" stroke-linejoin="miter" stroke="rgb(51.372549%, 75.686275%, 40.392157%)" stroke-opacity="1" stroke-miterlimit="10" d="M -2.041139 0.965807 C -2.078819 0.939133 -2.1165 0.912394 -2.154181 0.885655 " transform="matrix(60.023178, 0, 0, -59.895667, 337, 232.5)"/>
<path fill="none" stroke-width="0.04" stroke-linecap="butt" stroke-linejoin="miter" stroke="rgb(51.372549%, 75.686275%, 40.392157%)" stroke-opacity="1" stroke-miterlimit="10" d="M -2.272104 0.802046 C -2.309785 0.775372 -2.347466 0.748633 -2.385146 0.721893 " transform="matrix(60.023178, 0, 0, -59.895667, 337, 232.5)"/>
<path fill="none" stroke-width="0.04" stroke-linecap="butt" stroke-linejoin="miter" stroke="rgb(51.372549%, 75.686275%, 40.392157%)" stroke-opacity="1" stroke-miterlimit="10" d="M -2.50307 0.638284 C -2.54075 0.61161 -2.578431 0.584871 -2.616047 0.558132 " transform="matrix(60.023178, 0, 0, -59.895667, 337, 232.5)"/>
<path fill="none" stroke-width="0.04" stroke-linecap="butt" stroke-linejoin="miter" stroke="rgb(51.372549%, 75.686275%, 40.392157%)" stroke-opacity="1" stroke-miterlimit="10" d="M -2.734035 0.474523 C -2.771651 0.447849 -2.809331 0.42111 -2.847012 0.394371 " transform="matrix(60.023178, 0, 0, -59.895667, 337, 232.5)"/>
<path fill="none" stroke-width="0.04" stroke-linecap="butt" stroke-linejoin="miter" stroke="rgb(51.372549%, 75.686275%, 40.392157%)" stroke-opacity="1" stroke-miterlimit="10" d="M -2.964935 0.310762 C -3.002616 0.284023 -3.040297 0.257349 -3.077978 0.230609 " transform="matrix(60.023178, 0, 0, -59.895667, 337, 232.5)"/>
<path fill="none" stroke-width="0.04" stroke-linecap="butt" stroke-linejoin="miter" stroke="rgb(51.372549%, 75.686275%, 40.392157%)" stroke-opacity="1" stroke-miterlimit="10" d="M -3.195901 0.147 C -3.233582 0.120261 -3.271262 0.0935872 -3.308943 0.066848 " transform="matrix(60.023178, 0, 0, -59.895667, 337, 232.5)"/>
<path fill="none" stroke-width="0.04" stroke-linecap="butt" stroke-linejoin="miter" stroke="rgb(51.372549%, 75.686275%, 40.392157%)" stroke-opacity="1" stroke-miterlimit="10" d="M -3.426866 -0.0167609 C -3.464547 -0.0435001 -3.502163 -0.0701741 -3.539843 -0.0969133 " transform="matrix(60.023178, 0, 0, -59.895667, 337, 232.5)"/>
<path fill="none" stroke-width="0.04" stroke-linecap="butt" stroke-linejoin="miter" stroke="rgb(51.372549%, 75.686275%, 40.392157%)" stroke-opacity="1" stroke-miterlimit="10" d="M -3.657767 -0.180522 C -3.695447 -0.207261 -3.733128 -0.233935 -3.770809 -0.260675 " transform="matrix(60.023178, 0, 0, -59.895667, 337, 232.5)"/>
<path fill="none" stroke-width="0.04" stroke-linecap="butt" stroke-linejoin="miter" stroke="rgb(51.372549%, 75.686275%, 40.392157%)" stroke-opacity="1" stroke-miterlimit="10" d="M -3.888732 -0.344284 C -3.926413 -0.371023 -3.964094 -0.397697 -4.001774 -0.424436 " transform="matrix(60.023178, 0, 0, -59.895667, 337, 232.5)"/>
<path fill="none" stroke-width="0.04" stroke-linecap="butt" stroke-linejoin="miter" stroke="rgb(51.372549%, 75.686275%, 40.392157%)" stroke-opacity="1" stroke-miterlimit="10" d="M -4.119698 -0.508045 C -4.157378 -0.534784 -4.195059 -0.561458 -4.232675 -0.588197 " transform="matrix(60.023178, 0, 0, -59.895667, 337, 232.5)"/>
<path fill="none" stroke-width="0.04" stroke-linecap="butt" stroke-linejoin="miter" stroke="rgb(51.372549%, 75.686275%, 40.392157%)" stroke-opacity="1" stroke-miterlimit="10" d="M -4.350663 -0.671806 C -4.388279 -0.698545 -4.42596 -0.725219 -4.46364 -0.751959 " transform="matrix(60.023178, 0, 0, -59.895667, 337, 232.5)"/>
<path fill="none" stroke-width="0.04" stroke-linecap="butt" stroke-linejoin="miter" stroke="rgb(51.372549%, 75.686275%, 40.392157%)" stroke-opacity="1" stroke-miterlimit="10" d="M -4.581563 -0.835568 C -4.619244 -0.862307 -4.656925 -0.888981 -4.694606 -0.91572 " transform="matrix(60.023178, 0, 0, -59.895667, 337, 232.5)"/>
<path fill="none" stroke-width="0.04" stroke-linecap="butt" stroke-linejoin="miter" stroke="rgb(51.372549%, 75.686275%, 40.392157%)" stroke-opacity="1" stroke-miterlimit="10" d="M -4.812529 -0.999329 C -4.85021 -1.026068 -4.88789 -1.052742 -4.925571 -1.079481 " transform="matrix(60.023178, 0, 0, -59.895667, 337, 232.5)"/>
<path fill="none" stroke-width="0.04" stroke-linecap="butt" stroke-linejoin="miter" stroke="rgb(51.372549%, 75.686275%, 40.392157%)" stroke-opacity="1" stroke-miterlimit="10" d="M -5.043494 -1.16309 C -5.08111 -1.189829 -5.118791 -1.216569 -5.156472 -1.243243 " transform="matrix(60.023178, 0, 0, -59.895667, 337, 232.5)"/>
<path fill="none" stroke-width="0.04" stroke-linecap="butt" stroke-linejoin="miter" stroke="rgb(51.372549%, 75.686275%, 40.392157%)" stroke-opacity="1" stroke-miterlimit="10" d="M 0.138488 -3.80675 C 0.139725 -3.74388 0.141026 -3.681075 0.142263 -3.618206 " transform="matrix(60.023178, 0, 0, -59.895667, 337, 232.5)"/>
<path fill="none" stroke-width="0.04" stroke-linecap="butt" stroke-linejoin="miter" stroke="rgb(51.372549%, 75.686275%, 40.392157%)" stroke-opacity="1" stroke-miterlimit="10" d="M 0.146363 -3.417923 C 0.147599 -3.355053 0.148901 -3.292183 0.150137 -3.229379 " transform="matrix(60.023178, 0, 0, -59.895667, 337, 232.5)"/>
<path fill="none" stroke-width="0.04" stroke-linecap="butt" stroke-linejoin="miter" stroke="rgb(51.372549%, 75.686275%, 40.392157%)" stroke-opacity="1" stroke-miterlimit="10" d="M 0.154237 -3.02903 C 0.155474 -2.966226 0.156775 -2.903356 0.158012 -2.840486 " transform="matrix(60.023178, 0, 0, -59.895667, 337, 232.5)"/>
<path fill="none" stroke-width="0.04" stroke-linecap="butt" stroke-linejoin="miter" stroke="rgb(51.372549%, 75.686275%, 40.392157%)" stroke-opacity="1" stroke-miterlimit="10" d="M 0.162112 -2.640203 C 0.163348 -2.577333 0.16465 -2.514463 0.165886 -2.451659 " transform="matrix(60.023178, 0, 0, -59.895667, 337, 232.5)"/>
<path fill="none" stroke-width="0.04" stroke-linecap="butt" stroke-linejoin="miter" stroke="rgb(51.372549%, 75.686275%, 40.392157%)" stroke-opacity="1" stroke-miterlimit="10" d="M 0.169986 -2.251311 C 0.171223 -2.188506 0.172524 -2.125636 0.173761 -2.062767 " transform="matrix(60.023178, 0, 0, -59.895667, 337, 232.5)"/>
<path fill="none" stroke-width="0.04" stroke-linecap="butt" stroke-linejoin="miter" stroke="rgb(51.372549%, 75.686275%, 40.392157%)" stroke-opacity="1" stroke-miterlimit="10" d="M 0.177861 -1.862483 C 0.179097 -1.799614 0.180399 -1.736809 0.181636 -1.673939 " transform="matrix(60.023178, 0, 0, -59.895667, 337, 232.5)"/>
<path fill="none" stroke-width="0.04" stroke-linecap="butt" stroke-linejoin="miter" stroke="rgb(51.372549%, 75.686275%, 40.392157%)" stroke-opacity="1" stroke-miterlimit="10" d="M 0.185736 -1.473591 C 0.186972 -1.410787 0.188274 -1.347917 0.18951 -1.285112 " transform="matrix(60.023178, 0, 0, -59.895667, 337, 232.5)"/>
<path fill="none" stroke-width="0.04" stroke-linecap="butt" stroke-linejoin="miter" stroke="rgb(51.372549%, 75.686275%, 40.392157%)" stroke-opacity="1" stroke-miterlimit="10" d="M 0.19361 -1.084764 C 0.194847 -1.021894 0.196148 -0.95909 0.197385 -0.89622 " transform="matrix(60.023178, 0, 0, -59.895667, 337, 232.5)"/>
<path fill="none" stroke-width="0.04" stroke-linecap="butt" stroke-linejoin="miter" stroke="rgb(51.372549%, 75.686275%, 40.392157%)" stroke-opacity="1" stroke-miterlimit="10" d="M 0.201485 -0.695937 C 0.202721 -0.633067 0.204023 -0.570197 0.205259 -0.507393 " transform="matrix(60.023178, 0, 0, -59.895667, 337, 232.5)"/>
<path fill="none" stroke-width="0.04" stroke-linecap="butt" stroke-linejoin="miter" stroke="rgb(51.372549%, 75.686275%, 40.392157%)" stroke-opacity="1" stroke-miterlimit="10" d="M 0.209359 -0.307044 C 0.210596 -0.24424 0.211897 -0.18137 0.213134 -0.1185 " transform="matrix(60.023178, 0, 0, -59.895667, 337, 232.5)"/>
<path fill="none" stroke-width="0.04" stroke-linecap="butt" stroke-linejoin="miter" stroke="rgb(51.372549%, 75.686275%, 40.392157%)" stroke-opacity="1" stroke-miterlimit="10" d="M 0.217234 0.0817828 C 0.21847 0.144653 0.219772 0.207457 0.221008 0.270327 " transform="matrix(60.023178, 0, 0, -59.895667, 337, 232.5)"/>
<path fill="none" stroke-width="0.04" stroke-linecap="butt" stroke-linejoin="miter" stroke="rgb(51.372549%, 75.686275%, 40.392157%)" stroke-opacity="1" stroke-miterlimit="10" d="M 0.225108 0.470675 C 0.226345 0.53348 0.227646 0.596349 0.228883 0.659219 " transform="matrix(60.023178, 0, 0, -59.895667, 337, 232.5)"/>
<path fill="none" stroke-width="0.04" stroke-linecap="butt" stroke-linejoin="miter" stroke="rgb(51.372549%, 75.686275%, 40.392157%)" stroke-opacity="1" stroke-miterlimit="10" d="M 0.232983 0.859502 C 0.234219 0.922372 0.235521 0.985177 0.236757 1.048046 " transform="matrix(60.023178, 0, 0, -59.895667, 337, 232.5)"/>
<path fill="none" stroke-width="0.04" stroke-linecap="butt" stroke-linejoin="miter" stroke="rgb(51.372549%, 75.686275%, 40.392157%)" stroke-opacity="1" stroke-miterlimit="10" d="M 0.240857 1.248395 C 0.242094 1.311199 0.243396 1.374069 0.244632 1.436874 " transform="matrix(60.023178, 0, 0, -59.895667, 337, 232.5)"/>
<path fill="none" stroke-width="0.04" stroke-linecap="butt" stroke-linejoin="miter" stroke="rgb(51.372549%, 75.686275%, 40.392157%)" stroke-opacity="1" stroke-miterlimit="10" d="M 0.248732 1.637222 C 0.249969 1.700092 0.25127 1.762896 0.252572 1.825766 " transform="matrix(60.023178, 0, 0, -59.895667, 337, 232.5)"/>
<path fill="none" stroke-width="0.04" stroke-linecap="butt" stroke-linejoin="miter" stroke="rgb(51.372549%, 75.686275%, 40.392157%)" stroke-opacity="1" stroke-miterlimit="10" d="M 0.256607 2.026049 C 0.257843 2.088919 0.259145 2.151789 0.260446 2.214593 " transform="matrix(60.023178, 0, 0, -59.895667, 337, 232.5)"/>
<path fill="none" stroke-width="0.04" stroke-linecap="butt" stroke-linejoin="miter" stroke="rgb(51.372549%, 75.686275%, 40.392157%)" stroke-opacity="1" stroke-miterlimit="10" d="M 0.264481 2.414941 C 0.265718 2.477746 0.267019 2.540616 0.268321 2.603485 " transform="matrix(60.023178, 0, 0, -59.895667, 337, 232.5)"/>
<path fill-rule="nonzero" fill="rgb(51.372549%, 75.686275%, 40.392157%)" fill-opacity="1" d="M 30.492188 306.964844 C 30.492188 306.171875 30.175781 305.410156 29.613281 304.847656 C 29.050781 304.285156 28.289062 303.96875 27.492188 303.96875 C 26.695312 303.96875 25.933594 304.285156 25.371094 304.847656 C 24.804688 305.410156 24.488281 306.171875 24.488281 306.964844 C 24.488281 307.757812 24.804688 308.519531 25.371094 309.082031 C 25.933594 309.644531 26.695312 309.960938 27.492188 309.960938 C 28.289062 309.960938 29.050781 309.644531 29.613281 309.082031 C 30.175781 308.519531 30.492188 307.757812 30.492188 306.964844 Z M 30.492188 306.964844 "/>
<path fill-rule="nonzero" fill="rgb(51.372549%, 75.686275%, 40.392157%)" fill-opacity="1" d="M 348.3125 460.507812 C 348.3125 459.714844 347.996094 458.953125 347.433594 458.390625 C 346.871094 457.828125 346.105469 457.511719 345.3125 457.511719 C 344.515625 457.511719 343.753906 457.828125 343.1875 458.390625 C 342.625 458.953125 342.308594 459.714844 342.308594 460.507812 C 342.308594 461.300781 342.625 462.0625 343.1875 462.625 C 343.753906 463.1875 344.515625 463.503906 345.3125 463.503906 C 346.105469 463.503906 346.871094 463.1875 347.433594 462.625 C 347.996094 462.0625 348.3125 461.300781 348.3125 460.507812 Z M 348.3125 460.507812 "/>
<path fill-rule="nonzero" fill="rgb(51.372549%, 75.686275%, 40.392157%)" fill-opacity="1" d="M 669.449219 306.964844 C 669.449219 306.171875 669.132812 305.410156 668.570312 304.847656 C 668.007812 304.285156 667.246094 303.96875 666.449219 303.96875 C 665.652344 303.96875 664.890625 304.285156 664.328125 304.847656 C 663.761719 305.410156 663.445312 306.171875 663.445312 306.964844 C 663.445312 307.757812 663.761719 308.519531 664.328125 309.082031 C 664.890625 309.644531 665.652344 309.960938 666.449219 309.960938 C 667.246094 309.960938 668.007812 309.644531 668.570312 309.082031 C 669.132812 308.519531 669.449219 307.757812 669.449219 306.964844 Z M 669.449219 306.964844 "/>
<path fill-rule="nonzero" fill="rgb(51.372549%, 75.686275%, 40.392157%)" fill-opacity="1" d="M 356.105469 76.5625 C 356.105469 75.769531 355.789062 75.007812 355.226562 74.445312 C 354.664062 73.882812 353.898438 73.570312 353.105469 73.570312 C 352.308594 73.570312 351.542969 73.882812 350.980469 74.445312 C 350.417969 75.007812 350.101562 75.769531 350.101562 76.5625 C 350.101562 77.359375 350.417969 78.121094 350.980469 78.679688 C 351.542969 79.242188 352.308594 79.558594 353.105469 79.558594 C 353.898438 79.558594 354.664062 79.242188 355.226562 78.679688 C 355.789062 78.121094 356.105469 77.359375 356.105469 76.5625 Z M 356.105469 76.5625 "/>
</svg>
