<?xml version="1.0" encoding="UTF-8"?>
<svg xmlns="http://www.w3.org/2000/svg" xmlns:xlink="http://www.w3.org/1999/xlink" width="1757" height="417" viewBox="0 0 1757 417">
<path fill="none" stroke-width="0.05" stroke-linecap="butt" stroke-linejoin="miter" stroke="rgb(0%, 0%, 0%)" stroke-opacity="1" stroke-miterlimit="10" d="M -13.956501 -2.7 C -12.623162 -2.7 -11.289823 -2.7 -9.956485 -2.7 " transform="matrix(60.043704, 0, 0, -60, 878.5, 208.5)"/>
<path fill="none" stroke-width="0.05" stroke-linecap="butt" stroke-linejoin="miter" stroke="rgb(0%, 0%, 0%)" stroke-opacity="1" stroke-miterlimit="10" d="M -9.956485 -2.7 C -8.623146 -2.7 -7.289807 -2.7 -5.956469 -2.7 " transform="matrix(60.043704, 0, 0, -60, 878.5, 208.5)"/>
<path fill="none" stroke-width="0.05" stroke-linecap="butt" stroke-linejoin="miter" stroke="rgb(0%, 0%, 0%)" stroke-opacity="1" stroke-miterlimit="10" d="M -5.956469 -2.7 C -4.62313 -2.7 -3.289856 -2.7 -1.956518 -2.7 " transform="matrix(60.043704, 0, 0, -60, 878.5, 208.5)"/>
<path fill="none" stroke-width="0.05" stroke-linecap="butt" stroke-linejoin="miter" stroke="rgb(0%, 0%, 0%)" stroke-opacity="1" stroke-miterlimit="10" d="M -1.956518 -2.7 C -0.623179 -2.7 0.71016 -2.7 2.043499 -2.7 " transform="matrix(60.043704, 0, 0, -60, 878.5, 208.5)"/>
<path fill="none" stroke-width="0.05" stroke-linecap="butt" stroke-linejoin="miter" stroke="rgb(0%, 0%, 0%)" stroke-opacity="1" stroke-miterlimit="10" d="M 2.043499 -2.7 C 3.376837 -2.7 4.710176 -2.7 6.043515 -2.7 " transform="matrix(60.043704, 0, 0, -60, 878.5, 208.5)"/>
<path fill="none" stroke-width="0.05" stroke-linecap="butt" stroke-linejoin="miter" stroke="rgb(0%, 0%, 0%)" stroke-opacity="1" stroke-miterlimit="10" d="M 6.043515 -2.7 C 7.376853 -2.7 8.710192 -2.7 10.043531 -2.7 " transform="matrix(60.043704, 0, 0, -60, 878.5, 208.5)"/>
<path fill="none" stroke-width="0.05" stroke-linecap="butt" stroke-linejoin="miter" stroke="rgb(0%, 0%, 0%)" stroke-opacity="1" stroke-miterlimit="10" d="M 10.043531 -2.7 C 11.376869 -2.7 12.710208 -2.7 14.043482 -2.7 " transform="matrix(60.043704, 0, 0, -60, 878.5, 208.5)"/>
<path fill="none" stroke-width="0.05" stroke-linecap="butt" stroke-linejoin="miter" stroke="rgb(0%, 0%, 0%)" stroke-opacity="1" stroke-miterlimit="10" d="M 14.043482 -2.7 C 12.710208 -0.7 11.376869 1.3 10.043531 3.3 " transform="matrix(60.043704, 0, 0, -60, 878.5, 208.5)"/>
<path fill="none" stroke-width="0.05" stroke-linecap="butt" stroke-linejoin="miter" stroke="rgb(0%, 0%, 0%)" stroke-opacity="1" stroke-miterlimit="10" d="M -9.956485 3.3 C -8.623146 3.3 -7.289807 3.3 -5.956469 3.3 " transform="matrix(60.043704, 0, 0, -60, 878.5, 208.5)"/>
<path fill="none" stroke-width="0.05" stroke-linecap="butt" stroke-linejoin="miter" stroke="rgb(0%, 0%, 0%)" stroke-opacity="1" stroke-miterlimit="10" d="M -5.956469 3.3 C -4.62313 3.3 -3.289856 3.3 -1.956518 3.3 " transform="matrix(60.043704, 0, 0, -60, 878.5, 208.5)"/>
<path fill="none" stroke-width="0.05" stroke-linecap="butt" stroke-linejoin="miter" stroke="rgb(0%, 0%, 0%)" stroke-opacity="1" stroke-miterlimit="10" d="M -1.956518 3.3 C -0.623179 3.3 0.71016 3.3 2.043499 3.3 " transform="matrix(60.043704, 0, 0, -60, 878.5, 208.5)"/>
<path fill="none" stroke-width="0.05" stroke-linecap="butt" stroke-linejoin="miter" stroke="rgb(0%, 0%, 0%)" stroke-opacity="1" stroke-miterlimit="10" d="M 2.043499 3.3 C 3.376837 3.3 4.710176 3.3 6.043515 3.3 " transform="matrix(60.043704, 0, 0, -60, 878.5, 208.5)"/>
<path fill="none" stroke-width="0.05" stroke-linecap="butt" stroke-linejoin="miter" stroke="rgb(0%, 0%, 0%)" stroke-opacity="1" stroke-miterlimit="10" d="M 6.043515 3.3 C 7.376853 3.3 8.710192 3.3 10.043531 3.3 " transform="matrix(60.043704, 0, 0, -60, 878.5, 208.5)"/>
<path fill="none" stroke-width="0.05" stroke-linecap="butt" stroke-linejoin="miter" stroke="rgb(0%, 0%, 0%)" stroke-opacity="1" stroke-miterlimit="10" d="M -9.956485 3.3 C -11.289823 1.3 -12.623162 -0.7 -13.956501 -2.7 " transform="matrix(60.043704, 0, 0, -60, 878.5, 208.5)"/>
<path fill="none" stroke-width="0.05" stroke-linecap="butt" stroke-linejoin="miter" stroke="rgb(0%, 0%, 0%)" stroke-opacity="1" stroke-miterlimit="10" d="M -9.956485 -2.7 C -9.956485 -0.7 -9.956485 1.3 -9.956485 3.3 " transform="matrix(60.043704, 0, 0, -60, 878.5, 208.5)"/>
<path fill="none" stroke-width="0.05" stroke-linecap="butt" stroke-linejoin="miter" stroke="rgb(0%, 0%, 0%)" stroke-opacity="1" stroke-miterlimit="10" d="M -5.956469 -2.7 C -5.956469 -0.7 -5.956469 1.3 -5.956469 3.3 " transform="matrix(60.043704, 0, 0, -60, 878.5, 208.5)"/>
<path fill="none" stroke-width="0.05" stroke-linecap="butt" stroke-linejoin="miter" stroke="rgb(0%, 0%, 0%)" stroke-opacity="1" stroke-miterlimit="10" d="M -1.956518 -2.7 C -1.956518 -0.7 -1.956518 1.3 -1.956518 3.3 " transform="matrix(60.043704, 0, 0, -60, 878.5, 208.5)"/>
<path fill="none" stroke-width="0.05" stroke-linecap="butt" stroke-linejoin="miter" stroke="rgb(0%, 0%, 0%)" stroke-opacity="1" stroke-miterlimit="10" d="M 2.043499 -2.7 C 2.043499 -0.7 2.043499 1.3 2.043499 3.3 " transform="matrix(60.043704, 0, 0, -60, 878.5, 208.5)"/>
<path fill="none" stroke-width="0.05" stroke-linecap="butt" stroke-linejoin="miter" stroke="rgb(0%, 0%, 0%)" stroke-opacity="1" stroke-miterlimit="10" d="M 6.043515 -2.7 C 6.043515 -0.7 6.043515 1.3 6.043515 3.3 " transform="matrix(60.043704, 0, 0, -60, 878.5, 208.5)"/>
<path fill="none" stroke-width="0.05" stroke-linecap="butt" stroke-linejoin="miter" stroke="rgb(0%, 0%, 0%)" stroke-opacity="1" stroke-miterlimit="10" d="M 10.043531 -2.7 C 10.043531 -0.7 10.043531 1.3 10.043531 3.3 " transform="matrix(60.043704, 0, 0, -60, 878.5, 208.5)"/>
<path fill="none" stroke-width="0.05" stroke-linecap="butt" stroke-linejoin="miter" stroke="rgb(0%, 0%, 0%)" stroke-opacity="1" stroke-miterlimit="10" d="M -5.956469 -2.7 C -7.289807 -0.7 -8.623146 1.3 -9.956485 3.3 " transform="matrix(60.043704, 0, 0, -60, 878.5, 208.5)"/>
<path fill="none" stroke-width="0.05" stroke-linecap="butt" stroke-linejoin="miter" stroke="rgb(0%, 0%, 0%)" stroke-opacity="1" stroke-miterlimit="10" d="M -1.956518 -2.7 C -3.289856 -0.7 -4.62313 1.3 -5.956469 3.3 " transform="matrix(60.043704, 0, 0, -60, 878.5, 208.5)"/>
<path fill="none" stroke-width="0.05" stroke-linecap="butt" stroke-linejoin="miter" stroke="rgb(0%, 0%, 0%)" stroke-opacity="1" stroke-miterlimit="10" d="M 2.043499 -2.7 C 0.71016 -0.7 -0.623179 1.3 -1.956518 3.3 " transform="matrix(60.043704, 0, 0, -60, 878.5, 208.5)"/>
<path fill="none" stroke-width="0.05" stroke-linecap="butt" stroke-linejoin="miter" stroke="rgb(0%, 0%, 0%)" stroke-opacity="1" stroke-miterlimit="10" d="M -1.956518 -2.7 C -0.623179 -0.7 0.71016 1.3 2.043499 3.3 " transform="matrix(60.043704, 0, 0, -60, 878.5, 208.5)"/>
<path fill="none" stroke-width="0.05" stroke-linecap="butt" stroke-linejoin="miter" stroke="rgb(0%, 0%, 0%)" stroke-opacity="1" stroke-miterlimit="10" d="M 2.043499 -2.7 C 3.376837 -0.7 4.710176 1.3 6.043515 3.3 " transform="matrix(60.043704, 0, 0, -60, 878.5, 208.5)"/>
<path fill="none" stroke-width="0.05" stroke-linecap="butt" stroke-linejoin="miter" stroke="rgb(0%, 0%, 0%)" stroke-opacity="1" stroke-miterlimit="10" d="M 6.043515 -2.7 C 7.376853 -0.7 8.710192 1.3 10.043531 3.3 " transform="matrix(60.043704, 0, 0, -60, 878.5, 208.5)"/>
<path fill="none" stroke-width="0.04" stroke-linecap="butt" stroke-linejoin="miter" stroke="rgb(0%, 0%, 0%)" stroke-opacity="1" stroke-miterlimit="10" d="M -13.956501 -2.7 C -14.100797 -2.95 -14.245158 -3.2 -14.389519 -3.45 C -14.100797 -3.45 -13.81214 -3.45 -13.523483 -3.45 C -13.667844 -3.2 -13.81214 -2.95 -13.956501 -2.7 Z M -13.956501 -2.7 " transform="matrix(60.043704, 0, 0, -60, 878.5, 208.5)"/>
<path fill="none" stroke-width="0.04" stroke-linecap="butt" stroke-linejoin="miter" stroke="rgb(0%, 0%, 0%)" stroke-opacity="1" stroke-miterlimit="10" d="M -13.306974 -3.45 C -13.739992 -3.45 -14.17301 -3.45 -14.606028 -3.45 " transform="matrix(60.043704, 0, 0, -60, 878.5, 208.5)"/>
<path fill="none" stroke-width="0.04" stroke-linecap="butt" stroke-linejoin="miter" stroke="rgb(0%, 0%, 0%)" stroke-opacity="1" stroke-miterlimit="10" d="M 14.418534 -3.075 C 14.418534 -2.975521 14.37898 -2.880143 14.308653 -2.809831 C 14.238327 -2.739518 14.142954 -2.7 14.043482 -2.7 C 13.944075 -2.7 13.848702 -2.739518 13.778375 -2.809831 C 13.708049 -2.880143 13.668494 -2.975521 13.668494 -3.075 C 13.668494 -3.174479 13.708049 -3.269857 13.778375 -3.340169 C 13.848702 -3.410482 13.944075 -3.45 14.043482 -3.45 C 14.142954 -3.45 14.238327 -3.410482 14.308653 -3.340169 C 14.37898 -3.269857 14.418534 -3.174479 14.418534 -3.075 Z M 14.418534 -3.075 " transform="matrix(60.043704, 0, 0, -60, 878.5, 208.5)"/>
<path fill="none" stroke-width="0.04" stroke-linecap="butt" stroke-linejoin="miter" stroke="rgb(0%, 0%, 0%)" stroke-opacity="1" stroke-miterlimit="10" d="M 14.606028 -3.45 C 14.23104 -3.45 13.855988 -3.45 13.481001 -3.45 " transform="matrix(60.043704, 0, 0, -60, 878.5, 208.5)"/>
<path fill-rule="nonzero" fill="rgb(0%, 0%, 0%)" fill-opacity="1" d="M 49.507812 370.5 C 49.507812 368.113281 48.558594 365.824219 46.871094 364.136719 C 45.179688 362.449219 42.890625 361.5 40.5 361.5 C 38.113281 361.5 35.820312 362.449219 34.132812 364.136719 C 32.441406 365.824219 31.492188 368.113281 31.492188 370.5 C 31.492188 372.886719 32.441406 375.175781 34.132812 376.863281 C 35.820312 378.550781 38.113281 379.5 40.5 379.5 C 42.890625 379.5 45.179688 378.550781 46.871094 376.863281 C 48.558594 375.175781 49.507812 372.886719 49.507812 370.5 Z M 49.507812 370.5 "/>
<path fill-rule="nonzero" fill="rgb(0%, 0%, 0%)" fill-opacity="1" d="M 289.683594 370.5 C 289.683594 368.113281 288.734375 365.824219 287.042969 364.136719 C 285.355469 362.449219 283.0625 361.5 280.675781 361.5 C 278.285156 361.5 275.996094 362.449219 274.308594 364.136719 C 272.617188 365.824219 271.667969 368.113281 271.667969 370.5 C 271.667969 372.886719 272.617188 375.175781 274.308594 376.863281 C 275.996094 378.550781 278.285156 379.5 280.675781 379.5 C 283.0625 379.5 285.355469 378.550781 287.042969 376.863281 C 288.734375 375.175781 289.683594 372.886719 289.683594 370.5 Z M 289.683594 370.5 "/>
<path fill-rule="nonzero" fill="rgb(0%, 0%, 0%)" fill-opacity="1" d="M 529.855469 370.5 C 529.855469 368.113281 528.90625 365.824219 527.21875 364.136719 C 525.53125 362.449219 523.238281 361.5 520.851562 361.5 C 518.460938 361.5 516.171875 362.449219 514.480469 364.136719 C 512.792969 365.824219 511.84375 368.113281 511.84375 370.5 C 511.84375 372.886719 512.792969 375.175781 514.480469 376.863281 C 516.171875 378.550781 518.460938 379.5 520.851562 379.5 C 523.238281 379.5 525.53125 378.550781 527.21875 376.863281 C 528.90625 375.175781 529.855469 372.886719 529.855469 370.5 Z M 529.855469 370.5 "/>
<path fill-rule="nonzero" fill="rgb(0%, 0%, 0%)" fill-opacity="1" d="M 770.03125 370.5 C 770.03125 368.113281 769.082031 365.824219 767.394531 364.136719 C 765.703125 362.449219 763.414062 361.5 761.023438 361.5 C 758.636719 361.5 756.34375 362.449219 754.65625 364.136719 C 752.96875 365.824219 752.019531 368.113281 752.019531 370.5 C 752.019531 372.886719 752.96875 375.175781 754.65625 376.863281 C 756.34375 378.550781 758.636719 379.5 761.023438 379.5 C 763.414062 379.5 765.703125 378.550781 767.394531 376.863281 C 769.082031 375.175781 770.03125 372.886719 770.03125 370.5 Z M 770.03125 370.5 "/>
<path fill-rule="nonzero" fill="rgb(0%, 0%, 0%)" fill-opacity="1" d="M 1010.207031 370.5 C 1010.207031 368.113281 1009.257812 365.824219 1007.570312 364.136719 C 1005.878906 362.449219 1003.589844 361.5 1001.199219 361.5 C 998.8125 361.5 996.519531 362.449219 994.832031 364.136719 C 993.140625 365.824219 992.191406 368.113281 992.191406 370.5 C 992.191406 372.886719 993.140625 375.175781 994.832031 376.863281 C 996.519531 378.550781 998.8125 379.5 1001.199219 379.5 C 1003.589844 379.5 1005.878906 378.550781 1007.570312 376.863281 C 1009.257812 375.175781 1010.207031 372.886719 1010.207031 370.5 Z M 1010.207031 370.5 "/>
<path fill-rule="nonzero" fill="rgb(0%, 0%, 0%)" fill-opacity="1" d="M 1250.382812 370.5 C 1250.382812 368.113281 1249.433594 365.824219 1247.742188 364.136719 C 1246.054688 362.449219 1243.761719 361.5 1241.375 361.5 C 1238.984375 361.5 1236.695312 362.449219 1235.007812 364.136719 C 1233.316406 365.824219 1232.367188 368.113281 1232.367188 370.5 C 1232.367188 372.886719 1233.316406 375.175781 1235.007812 376.863281 C 1236.695312 378.550781 1238.984375 379.5 1241.375 379.5 C 1243.761719 379.5 1246.054688 378.550781 1247.742188 376.863281 C 1249.433594 375.175781 1250.382812 372.886719 1250.382812 370.5 Z M 1250.382812 370.5 "/>
<path fill-rule="nonzero" fill="rgb(0%, 0%, 0%)" fill-opacity="1" d="M 1490.554688 370.5 C 1490.554688 368.113281 1489.605469 365.824219 1487.917969 364.136719 C 1486.230469 362.449219 1483.9375 361.5 1481.550781 361.5 C 1479.160156 361.5 1476.871094 362.449219 1475.179688 364.136719 C 1473.492188 365.824219 1472.542969 368.113281 1472.542969 370.5 C 1472.542969 372.886719 1473.492188 375.175781 1475.179688 376.863281 C 1476.871094 378.550781 1479.160156 379.5 1481.550781 379.5 C 1483.9375 379.5 1486.230469 378.550781 1487.917969 376.863281 C 1489.605469 375.175781 1490.554688 372.886719 1490.554688 370.5 Z M 1490.554688 370.5 "/>
<path fill-rule="nonzero" fill="rgb(0%, 0%, 0%)" fill-opacity="1" d="M 1730.730469 370.5 C 1730.730469 368.113281 1729.78125 365.824219 1728.09375 364.136719 C 1726.402344 362.449219 1724.113281 361.5 1721.722656 361.5 C 1719.335938 361.5 1717.042969 362.449219 1715.355469 364.136719 C 1713.667969 365.824219 1712.71875 368.113281 1712.71875 370.5 C 1712.71875 372.886719 1713.667969 375.175781 1715.355469 376.863281 C 1717.042969 378.550781 1719.335938 379.5 1721.722656 379.5 C 1724.113281 379.5 1726.402344 378.550781 1728.09375 376.863281 C 1729.78125 375.175781 1730.730469 372.886719 1730.730469 370.5 Z M 1730.730469 370.5 "/>
<path fill-rule="nonzero" fill="rgb(0%, 0%, 0%)" fill-opacity="1" d="M 289.683594 10.5 C 289.683594 8.113281 288.734375 5.824219 287.042969 4.136719 C 285.355469 2.449219 283.0625 1.5 280.675781 1.5 C 278.285156 1.5 275.996094 2.449219 274.308594 4.136719 C 272.617188 5.824219 271.667969 8.113281 271.667969 10.5 C 271.667969 12.886719 272.617188 15.175781 274.308594 16.863281 C 275.996094 18.550781 278.285156 19.5 280.675781 19.5 C 283.0625 19.5 285.355469 18.550781 287.042969 16.863281 C 288.734375 15.175781 289.683594 12.886719 289.683594 10.5 Z M 289.683594 10.5 "/>
<path fill-rule="nonzero" fill="rgb(0%, 0%, 0%)" fill-opacity="1" d="M 529.855469 10.5 C 529.855469 8.113281 528.90625 5.824219 527.21875 4.136719 C 525.53125 2.449219 523.238281 1.5 520.851562 1.5 C 518.460938 1.5 516.171875 2.449219 514.480469 4.136719 C 512.792969 5.824219 511.84375 8.113281 511.84375 10.5 C 511.84375 12.886719 512.792969 15.175781 514.480469 16.863281 C 516.171875 18.550781 518.460938 19.5 520.851562 19.5 C 523.238281 19.5 525.53125 18.550781 527.21875 16.863281 C 528.90625 15.175781 529.855469 12.886719 529.855469 10.5 Z M 529.855469 10.5 "/>
<path fill-rule="nonzero" fill="rgb(0%, 0%, 0%)" fill-opacity="1" d="M 770.03125 10.5 C 770.03125 8.113281 769.082031 5.824219 767.394531 4.136719 C 765.703125 2.449219 763.414062 1.5 761.023438 1.5 C 758.636719 1.5 756.34375 2.449219 754.65625 4.136719 C 752.96875 5.824219 752.019531 8.113281 752.019531 10.5 C 752.019531 12.886719 752.96875 15.175781 754.65625 16.863281 C 756.34375 18.550781 758.636719 19.5 761.023438 19.5 C 763.414062 19.5 765.703125 18.550781 767.394531 16.863281 C 769.082031 15.175781 770.03125 12.886719 770.03125 10.5 Z M 770.03125 10.5 "/>
<path fill-rule="nonzero" fill="rgb(0%, 0%, 0%)" fill-opacity="1" d="M 1010.207031 10.5 C 1010.207031 8.113281 1009.257812 5.824219 1007.570312 4.136719 C 1005.878906 2.449219 1003.589844 1.5 1001.199219 1.5 C 998.8125 1.5 996.519531 2.449219 994.832031 4.136719 C 993.140625 5.824219 992.191406 8.113281 992.191406 10.5 C 992.191406 12.886719 993.140625 15.175781 994.832031 16.863281 C 996.519531 18.550781 998.8125 19.5 1001.199219 19.5 C 1003.589844 19.5 1005.878906 18.550781 1007.570312 16.863281 C 1009.257812 15.175781 1010.207031 12.886719 1010.207031 10.5 Z M 1010.207031 10.5 "/>
<path fill-rule="nonzero" fill="rgb(0%, 0%, 0%)" fill-opacity="1" d="M 1250.382812 10.5 C 1250.382812 8.113281 1249.433594 5.824219 1247.742188 4.136719 C 1246.054688 2.449219 1243.761719 1.5 1241.375 1.5 C 1238.984375 1.5 1236.695312 2.449219 1235.007812 4.136719 C 1233.316406 5.824219 1232.367188 8.113281 1232.367188 10.5 C 1232.367188 12.886719 1233.316406 15.175781 1235.007812 16.863281 C 1236.695312 18.550781 1238.984375 19.5 1241.375 19.5 C 1243.761719 19.5 1246.054688 18.550781 1247.742188 16.863281 C 1249.433594 15.175781 1250.382812 12.886719 1250.382812 10.5 Z M 1250.382812 10.5 "/>
<path fill-rule="nonzero" fill="rgb(0%, 0%, 0%)" fill-opacity="1" d="M 1490.554688 10.5 C 1490.554688 8.113281 1489.605469 5.824219 1487.917969 4.136719 C 1486.230469 2.449219 1483.9375 1.5 1481.550781 1.5 C 1479.160156 1.5 1476.871094 2.449219 1475.179688 4.136719 C 1473.492188 5.824219 1472.542969 8.113281 1472.542969 10.5 C 1472.542969 12.886719 1473.492188 15.175781 1475.179688 16.863281 C 1476.871094 18.550781 1479.160156 19.5 1481.550781 19.5 C 1483.9375 19.5 1486.230469 18.550781 1487.917969 16.863281 C 1489.605469 15.175781 1490.554688 12.886719 1490.554688 10.5 Z M 1490.554688 10.5 "/>
</svg>
