<?xml version="1.0" encoding="UTF-8"?>
<svg xmlns="http://www.w3.org/2000/svg" xmlns:xlink="http://www.w3.org/1999/xlink" width="3840" height="2160" viewBox="0 0 3840 2160">
<path fill="none" stroke-width="0.05" stroke-linecap="butt" stroke-linejoin="miter" stroke="rgb(0%, 0%, 0%)" stroke-opacity="1" stroke-miterlimit="10" d="M -9.88397 -1.748438 C -8.550637 -1.748438 -7.217303 -1.748438 -5.88397 -1.748438 " transform="matrix(270, 0, 0, -270, 1920, 1080)"/>
<path fill="none" stroke-width="0.05" stroke-linecap="butt" stroke-linejoin="miter" stroke="rgb(0%, 0%, 0%)" stroke-opacity="1" stroke-miterlimit="10" d="M -5.88397 -1.748438 C -4.550637 -1.748438 -3.217303 -1.748438 -1.88397 -1.748438 " transform="matrix(270, 0, 0, -270, 1920, 1080)"/>
<path fill="none" stroke-width="0.05" stroke-linecap="butt" stroke-linejoin="miter" stroke="rgb(0%, 0%, 0%)" stroke-opacity="1" stroke-miterlimit="10" d="M -1.88397 -1.748438 C -0.550637 -1.748438 0.782697 -1.748438 2.11603 -1.748438 " transform="matrix(270, 0, 0, -270, 1920, 1080)"/>
<path fill="none" stroke-width="0.05" stroke-linecap="butt" stroke-linejoin="miter" stroke="rgb(0%, 0%, 0%)" stroke-opacity="1" stroke-miterlimit="10" d="M 2.11603 -1.748438 C 3.449363 -1.748438 4.782697 -1.748438 6.11603 -1.748438 " transform="matrix(270, 0, 0, -270, 1920, 1080)"/>
<path fill="none" stroke-width="0.05" stroke-linecap="butt" stroke-linejoin="miter" stroke="rgb(0%, 0%, 0%)" stroke-opacity="1" stroke-miterlimit="10" d="M 6.11603 -1.748438 C 7.449363 -1.748438 8.782697 -1.748438 10.11603 -1.748438 " transform="matrix(270, 0, 0, -270, 1920, 1080)"/>
<path fill="none" stroke-width="0.05" stroke-linecap="butt" stroke-linejoin="miter" stroke="rgb(0%, 0%, 0%)" stroke-opacity="1" stroke-miterlimit="10" d="M -9.88397 4.251563 C -8.550637 4.251563 -7.217303 4.251563 -5.88397 4.251563 " transform="matrix(270, 0, 0, -270, 1920, 1080)"/>
<path fill="none" stroke-width="0.05" stroke-linecap="butt" stroke-linejoin="miter" stroke="rgb(0%, 0%, 0%)" stroke-opacity="1" stroke-miterlimit="10" d="M -5.88397 4.251563 C -4.550637 4.251563 -3.217303 4.251563 -1.88397 4.251563 " transform="matrix(270, 0, 0, -270, 1920, 1080)"/>
<path fill="none" stroke-width="0.05" stroke-linecap="butt" stroke-linejoin="miter" stroke="rgb(0%, 0%, 0%)" stroke-opacity="1" stroke-miterlimit="10" d="M -1.88397 4.251563 C -0.550637 4.251563 0.782697 4.251563 2.11603 4.251563 " transform="matrix(270, 0, 0, -270, 1920, 1080)"/>
<path fill="none" stroke-width="0.05" stroke-linecap="butt" stroke-linejoin="miter" stroke="rgb(0%, 0%, 0%)" stroke-opacity="1" stroke-miterlimit="10" d="M 2.11603 4.251563 C 3.449363 4.251563 4.782697 4.251563 6.11603 4.251563 " transform="matrix(270, 0, 0, -270, 1920, 1080)"/>
<path fill="none" stroke-width="0.05" stroke-linecap="butt" stroke-linejoin="miter" stroke="rgb(0%, 0%, 0%)" stroke-opacity="1" stroke-miterlimit="10" d="M 6.11603 4.251563 C 7.449363 4.251563 8.782697 4.251563 10.11603 4.251563 " transform="matrix(270, 0, 0, -270, 1920, 1080)"/>
<path fill="none" stroke-width="0.05" stroke-linecap="butt" stroke-linejoin="miter" stroke="rgb(0%, 0%, 0%)" stroke-opacity="1" stroke-miterlimit="10" d="M -5.88397 -1.748438 C -5.88397 0.251562 -5.88397 2.251562 -5.88397 4.251563 " transform="matrix(270, 0, 0, -270, 1920, 1080)"/>
<path fill="none" stroke-width="0.05" stroke-linecap="butt" stroke-linejoin="miter" stroke="rgb(0%, 0%, 0%)" stroke-opacity="1" stroke-miterlimit="10" d="M -1.88397 -1.748438 C -1.88397 0.251562 -1.88397 2.251562 -1.88397 4.251563 " transform="matrix(270, 0, 0, -270, 1920, 1080)"/>
<path fill="none" stroke-width="0.05" stroke-linecap="butt" stroke-linejoin="miter" stroke="rgb(0%, 0%, 0%)" stroke-opacity="1" stroke-miterlimit="10" d="M 2.11603 -1.748438 C 2.11603 0.251562 2.11603 2.251562 2.11603 4.251563 " transform="matrix(270, 0, 0, -270, 1920, 1080)"/>
<path fill="none" stroke-width="0.05" stroke-linecap="butt" stroke-linejoin="miter" stroke="rgb(0%, 0%, 0%)" stroke-opacity="1" stroke-miterlimit="10" d="M 6.11603 -1.748438 C 6.11603 0.251562 6.11603 2.251562 6.11603 4.251563 " transform="matrix(270, 0, 0, -270, 1920, 1080)"/>
<path fill="none" stroke-width="0.05" stroke-linecap="butt" stroke-linejoin="miter" stroke="rgb(0%, 0%, 0%)" stroke-opacity="1" stroke-miterlimit="10" d="M -5.88397 -1.748438 C -7.217303 0.251562 -8.550637 2.251562 -9.88397 4.251563 " transform="matrix(270, 0, 0, -270, 1920, 1080)"/>
<path fill="none" stroke-width="0.05" stroke-linecap="butt" stroke-linejoin="miter" stroke="rgb(0%, 0%, 0%)" stroke-opacity="1" stroke-miterlimit="10" d="M -1.88397 -1.748438 C -3.217303 0.251562 -4.550637 2.251562 -5.88397 4.251563 " transform="matrix(270, 0, 0, -270, 1920, 1080)"/>
<path fill="none" stroke-width="0.05" stroke-linecap="butt" stroke-linejoin="miter" stroke="rgb(0%, 0%, 0%)" stroke-opacity="1" stroke-miterlimit="10" d="M 2.11603 -1.748438 C 0.782697 0.251562 -0.550637 2.251562 -1.88397 4.251563 " transform="matrix(270, 0, 0, -270, 1920, 1080)"/>
<path fill="none" stroke-width="0.05" stroke-linecap="butt" stroke-linejoin="miter" stroke="rgb(0%, 0%, 0%)" stroke-opacity="1" stroke-miterlimit="10" d="M -1.88397 -1.748438 C -0.550637 0.251562 0.782697 2.251562 2.11603 4.251563 " transform="matrix(270, 0, 0, -270, 1920, 1080)"/>
<path fill="none" stroke-width="0.05" stroke-linecap="butt" stroke-linejoin="miter" stroke="rgb(0%, 0%, 0%)" stroke-opacity="1" stroke-miterlimit="10" d="M 2.11603 -1.748438 C 3.449363 0.251562 4.782697 2.251562 6.11603 4.251563 " transform="matrix(270, 0, 0, -270, 1920, 1080)"/>
<path fill="none" stroke-width="0.05" stroke-linecap="butt" stroke-linejoin="miter" stroke="rgb(0%, 0%, 0%)" stroke-opacity="1" stroke-miterlimit="10" d="M 6.11603 -1.748438 C 7.449363 0.251562 8.782697 2.251562 10.11603 4.251563 " transform="matrix(270, 0, 0, -270, 1920, 1080)"/>
<path fill-rule="nonzero" fill="rgb(0%, 0%, 0%)" fill-opacity="1" d="M 371.828125 1552.078125 C 371.828125 1541.335938 367.558594 1531.035156 359.964844 1523.441406 C 352.371094 1515.84375 342.066406 1511.578125 331.328125 1511.578125 C 320.585938 1511.578125 310.285156 1515.84375 302.6875 1523.441406 C 295.09375 1531.035156 290.828125 1541.335938 290.828125 1552.078125 C 290.828125 1562.820312 295.09375 1573.121094 302.6875 1580.714844 C 310.285156 1588.3125 320.585938 1592.578125 331.328125 1592.578125 C 342.066406 1592.578125 352.371094 1588.3125 359.964844 1580.714844 C 367.558594 1573.121094 371.828125 1562.820312 371.828125 1552.078125 Z M 371.828125 1552.078125 "/>
<path fill-rule="nonzero" fill="rgb(0%, 0%, 0%)" fill-opacity="1" d="M 1451.828125 1552.078125 C 1451.828125 1541.335938 1447.558594 1531.035156 1439.964844 1523.441406 C 1432.371094 1515.84375 1422.066406 1511.578125 1411.328125 1511.578125 C 1400.585938 1511.578125 1390.285156 1515.84375 1382.6875 1523.441406 C 1375.09375 1531.035156 1370.828125 1541.335938 1370.828125 1552.078125 C 1370.828125 1562.820312 1375.09375 1573.121094 1382.6875 1580.714844 C 1390.285156 1588.3125 1400.585938 1592.578125 1411.328125 1592.578125 C 1422.066406 1592.578125 1432.371094 1588.3125 1439.964844 1580.714844 C 1447.558594 1573.121094 1451.828125 1562.820312 1451.828125 1552.078125 Z M 1451.828125 1552.078125 "/>
<path fill-rule="nonzero" fill="rgb(0%, 0%, 0%)" fill-opacity="1" d="M 2531.828125 1552.078125 C 2531.828125 1541.335938 2527.558594 1531.035156 2519.964844 1523.441406 C 2512.371094 1515.84375 2502.066406 1511.578125 2491.328125 1511.578125 C 2480.585938 1511.578125 2470.285156 1515.84375 2462.6875 1523.441406 C 2455.09375 1531.035156 2450.828125 1541.335938 2450.828125 1552.078125 C 2450.828125 1562.820312 2455.09375 1573.121094 2462.6875 1580.714844 C 2470.285156 1588.3125 2480.585938 1592.578125 2491.328125 1592.578125 C 2502.066406 1592.578125 2512.371094 1588.3125 2519.964844 1580.714844 C 2527.558594 1573.121094 2531.828125 1562.820312 2531.828125 1552.078125 Z M 2531.828125 1552.078125 "/>
<path fill-rule="nonzero" fill="rgb(0%, 0%, 0%)" fill-opacity="1" d="M 3611.828125 1552.078125 C 3611.828125 1541.335938 3607.558594 1531.035156 3599.964844 1523.441406 C 3592.371094 1515.84375 3582.066406 1511.578125 3571.328125 1511.578125 C 3560.585938 1511.578125 3550.285156 1515.84375 3542.6875 1523.441406 C 3535.09375 1531.035156 3530.828125 1541.335938 3530.828125 1552.078125 C 3530.828125 1562.820312 3535.09375 1573.121094 3542.6875 1580.714844 C 3550.285156 1588.3125 3560.585938 1592.578125 3571.328125 1592.578125 C 3582.066406 1592.578125 3592.371094 1588.3125 3599.964844 1580.714844 C 3607.558594 1573.121094 3611.828125 1562.820312 3611.828125 1552.078125 Z M 3611.828125 1552.078125 "/>
<path fill="none" stroke-width="0.04" stroke-linecap="butt" stroke-linejoin="miter" stroke="rgb(60.392157%, 44.705882%, 67.45098%)" stroke-opacity="1" stroke-miterlimit="10" d="M -7.565611 -3.404499 C -7.47989 -3.420558 -7.394184 -3.436603 -7.308464 -3.452662 " transform="matrix(270, 0, 0, -270, 1920, 1080)"/>
<path fill="none" stroke-width="0.04" stroke-linecap="butt" stroke-linejoin="miter" stroke="rgb(60.392157%, 44.705882%, 67.45098%)" stroke-opacity="1" stroke-miterlimit="10" d="M -7.014583 -3.507711 C -6.928877 -3.523756 -6.843157 -3.539815 -6.757451 -3.555874 " transform="matrix(270, 0, 0, -270, 1920, 1080)"/>
<path fill="none" stroke-width="0.04" stroke-linecap="butt" stroke-linejoin="miter" stroke="rgb(60.392157%, 44.705882%, 67.45098%)" stroke-opacity="1" stroke-miterlimit="10" d="M -6.463571 -3.610909 C -6.37785 -3.626968 -6.292144 -3.643027 -6.206424 -3.659071 " transform="matrix(270, 0, 0, -270, 1920, 1080)"/>
<path fill="none" stroke-width="0.04" stroke-linecap="butt" stroke-linejoin="miter" stroke="rgb(60.392157%, 44.705882%, 67.45098%)" stroke-opacity="1" stroke-miterlimit="10" d="M -5.912543 -3.71412 C -5.826837 -3.730179 -5.741117 -3.746224 -5.655396 -3.762283 " transform="matrix(270, 0, 0, -270, 1920, 1080)"/>
<path fill="none" stroke-width="0.04" stroke-linecap="butt" stroke-linejoin="miter" stroke="rgb(60.392157%, 44.705882%, 67.45098%)" stroke-opacity="1" stroke-miterlimit="10" d="M -5.655396 -3.762283 C -5.568099 -3.773524 -5.480802 -3.784751 -5.393504 -3.795992 " transform="matrix(270, 0, 0, -270, 1920, 1080)"/>
<path fill="none" stroke-width="0.04" stroke-linecap="butt" stroke-linejoin="miter" stroke="rgb(60.392157%, 44.705882%, 67.45098%)" stroke-opacity="1" stroke-miterlimit="10" d="M -5.094184 -3.834505 C -5.006872 -3.845747 -4.919575 -3.856973 -4.832277 -3.868215 " transform="matrix(270, 0, 0, -270, 1920, 1080)"/>
<path fill="none" stroke-width="0.04" stroke-linecap="butt" stroke-linejoin="miter" stroke="rgb(60.392157%, 44.705882%, 67.45098%)" stroke-opacity="1" stroke-miterlimit="10" d="M -4.532957 -3.906727 C -4.44566 -3.917969 -4.358348 -3.929196 -4.27105 -3.940437 " transform="matrix(270, 0, 0, -270, 1920, 1080)"/>
<path fill="none" stroke-width="0.04" stroke-linecap="butt" stroke-linejoin="miter" stroke="rgb(60.392157%, 44.705882%, 67.45098%)" stroke-opacity="1" stroke-miterlimit="10" d="M -3.97173 -3.978964 C -3.884433 -3.990191 -3.797121 -4.001432 -3.709823 -4.012659 " transform="matrix(270, 0, 0, -270, 1920, 1080)"/>
<path fill="none" stroke-width="0.04" stroke-linecap="butt" stroke-linejoin="miter" stroke="rgb(60.392157%, 44.705882%, 67.45098%)" stroke-opacity="1" stroke-miterlimit="10" d="M -3.410503 -4.051186 C -3.323206 -4.062413 -3.235909 -4.073655 -3.148597 -4.084881 " transform="matrix(270, 0, 0, -270, 1920, 1080)"/>
<path fill="none" stroke-width="0.04" stroke-linecap="butt" stroke-linejoin="miter" stroke="rgb(60.392157%, 44.705882%, 67.45098%)" stroke-opacity="1" stroke-miterlimit="10" d="M -2.849277 -4.123409 C -2.761979 -4.134635 -2.674682 -4.145877 -2.58737 -4.157118 " transform="matrix(270, 0, 0, -270, 1920, 1080)"/>
<path fill="none" stroke-width="0.04" stroke-linecap="butt" stroke-linejoin="miter" stroke="rgb(60.392157%, 44.705882%, 67.45098%)" stroke-opacity="1" stroke-miterlimit="10" d="M -2.28805 -4.195631 C -2.200752 -4.206872 -2.113455 -4.218099 -2.026157 -4.22934 " transform="matrix(270, 0, 0, -270, 1920, 1080)"/>
<path fill="none" stroke-width="0.04" stroke-linecap="butt" stroke-linejoin="miter" stroke="rgb(60.392157%, 44.705882%, 67.45098%)" stroke-opacity="1" stroke-miterlimit="10" d="M -1.726837 -4.267853 C -1.639525 -4.279094 -1.552228 -4.290321 -1.464931 -4.301563 " transform="matrix(270, 0, 0, -270, 1920, 1080)"/>
<path fill="none" stroke-width="0.04" stroke-linecap="butt" stroke-linejoin="miter" stroke="rgb(60.392157%, 44.705882%, 67.45098%)" stroke-opacity="1" stroke-miterlimit="10" d="M -1.464931 -4.301563 C -1.376837 -4.301563 -1.28873 -4.301563 -1.200637 -4.301563 " transform="matrix(270, 0, 0, -270, 1920, 1080)"/>
<path fill="none" stroke-width="0.04" stroke-linecap="butt" stroke-linejoin="miter" stroke="rgb(60.392157%, 44.705882%, 67.45098%)" stroke-opacity="1" stroke-miterlimit="10" d="M -0.898597 -4.301563 C -0.810503 -4.301563 -0.72241 -4.301563 -0.634317 -4.301563 " transform="matrix(270, 0, 0, -270, 1920, 1080)"/>
<path fill="none" stroke-width="0.04" stroke-linecap="butt" stroke-linejoin="miter" stroke="rgb(60.392157%, 44.705882%, 67.45098%)" stroke-opacity="1" stroke-miterlimit="10" d="M -0.332277 -4.301563 C -0.244184 -4.301563 -0.156076 -4.301563 -0.0679832 -4.301563 " transform="matrix(270, 0, 0, -270, 1920, 1080)"/>
<path fill="none" stroke-width="0.04" stroke-linecap="butt" stroke-linejoin="miter" stroke="rgb(60.392157%, 44.705882%, 67.45098%)" stroke-opacity="1" stroke-miterlimit="10" d="M 0.234057 -4.301563 C 0.32215 -4.301563 0.410243 -4.301563 0.498336 -4.301563 " transform="matrix(270, 0, 0, -270, 1920, 1080)"/>
<path fill="none" stroke-width="0.04" stroke-linecap="butt" stroke-linejoin="miter" stroke="rgb(60.392157%, 44.705882%, 67.45098%)" stroke-opacity="1" stroke-miterlimit="10" d="M 0.800376 -4.301563 C 0.888469 -4.301563 0.976562 -4.301563 1.06467 -4.301563 " transform="matrix(270, 0, 0, -270, 1920, 1080)"/>
<path fill="none" stroke-width="0.04" stroke-linecap="butt" stroke-linejoin="miter" stroke="rgb(60.392157%, 44.705882%, 67.45098%)" stroke-opacity="1" stroke-miterlimit="10" d="M 1.36671 -4.301563 C 1.454803 -4.301563 1.542896 -4.301563 1.63099 -4.301563 " transform="matrix(270, 0, 0, -270, 1920, 1080)"/>
<path fill="none" stroke-width="0.04" stroke-linecap="butt" stroke-linejoin="miter" stroke="rgb(60.392157%, 44.705882%, 67.45098%)" stroke-opacity="1" stroke-miterlimit="10" d="M 1.93303 -4.301563 C 2.021123 -4.301563 2.109216 -4.301563 2.197323 -4.301563 " transform="matrix(270, 0, 0, -270, 1920, 1080)"/>
<path fill="none" stroke-width="0.04" stroke-linecap="butt" stroke-linejoin="miter" stroke="rgb(60.392157%, 44.705882%, 67.45098%)" stroke-opacity="1" stroke-miterlimit="10" d="M 2.499363 -4.301563 C 2.587457 -4.301563 2.67555 -4.301563 2.763643 -4.301563 " transform="matrix(270, 0, 0, -270, 1920, 1080)"/>
<path fill="none" stroke-width="0.04" stroke-linecap="butt" stroke-linejoin="miter" stroke="rgb(60.392157%, 44.705882%, 67.45098%)" stroke-opacity="1" stroke-miterlimit="10" d="M 2.763643 -4.301563 C 2.85094 -4.290321 2.938252 -4.279094 3.02555 -4.267853 " transform="matrix(270, 0, 0, -270, 1920, 1080)"/>
<path fill="none" stroke-width="0.04" stroke-linecap="butt" stroke-linejoin="miter" stroke="rgb(60.392157%, 44.705882%, 67.45098%)" stroke-opacity="1" stroke-miterlimit="10" d="M 3.32487 -4.22934 C 3.412167 -4.218099 3.499479 -4.206872 3.586777 -4.195631 " transform="matrix(270, 0, 0, -270, 1920, 1080)"/>
<path fill="none" stroke-width="0.04" stroke-linecap="butt" stroke-linejoin="miter" stroke="rgb(60.392157%, 44.705882%, 67.45098%)" stroke-opacity="1" stroke-miterlimit="10" d="M 3.886097 -4.157118 C 3.973394 -4.145877 4.060692 -4.134635 4.148003 -4.123409 " transform="matrix(270, 0, 0, -270, 1920, 1080)"/>
<path fill="none" stroke-width="0.04" stroke-linecap="butt" stroke-linejoin="miter" stroke="rgb(60.392157%, 44.705882%, 67.45098%)" stroke-opacity="1" stroke-miterlimit="10" d="M 4.447323 -4.084881 C 4.534621 -4.073655 4.621918 -4.062413 4.709216 -4.051186 " transform="matrix(270, 0, 0, -270, 1920, 1080)"/>
<path fill="none" stroke-width="0.04" stroke-linecap="butt" stroke-linejoin="miter" stroke="rgb(60.392157%, 44.705882%, 67.45098%)" stroke-opacity="1" stroke-miterlimit="10" d="M 5.008536 -4.012659 C 5.095848 -4.001432 5.183145 -3.990191 5.270443 -3.978964 " transform="matrix(270, 0, 0, -270, 1920, 1080)"/>
<path fill="none" stroke-width="0.04" stroke-linecap="butt" stroke-linejoin="miter" stroke="rgb(60.392157%, 44.705882%, 67.45098%)" stroke-opacity="1" stroke-miterlimit="10" d="M 5.569763 -3.940437 C 5.657075 -3.929196 5.744372 -3.917969 5.83167 -3.906727 " transform="matrix(270, 0, 0, -270, 1920, 1080)"/>
<path fill="none" stroke-width="0.04" stroke-linecap="butt" stroke-linejoin="miter" stroke="rgb(60.392157%, 44.705882%, 67.45098%)" stroke-opacity="1" stroke-miterlimit="10" d="M 6.13099 -3.868215 C 6.218287 -3.856973 6.305599 -3.845747 6.392896 -3.834505 " transform="matrix(270, 0, 0, -270, 1920, 1080)"/>
<path fill="none" stroke-width="0.04" stroke-linecap="butt" stroke-linejoin="miter" stroke="rgb(60.392157%, 44.705882%, 67.45098%)" stroke-opacity="1" stroke-miterlimit="10" d="M 6.692216 -3.795992 C 6.779514 -3.784751 6.866826 -3.773524 6.954123 -3.762283 " transform="matrix(270, 0, 0, -270, 1920, 1080)"/>
<path fill="none" stroke-width="0.04" stroke-linecap="butt" stroke-linejoin="miter" stroke="rgb(60.392157%, 44.705882%, 67.45098%)" stroke-opacity="1" stroke-miterlimit="10" d="M 6.954123 -3.762283 C 7.039829 -3.746224 7.12555 -3.730179 7.21127 -3.71412 " transform="matrix(270, 0, 0, -270, 1920, 1080)"/>
<path fill="none" stroke-width="0.04" stroke-linecap="butt" stroke-linejoin="miter" stroke="rgb(60.392157%, 44.705882%, 67.45098%)" stroke-opacity="1" stroke-miterlimit="10" d="M 7.505136 -3.659071 C 7.590856 -3.643027 7.676563 -3.626968 7.762283 -3.610909 " transform="matrix(270, 0, 0, -270, 1920, 1080)"/>
<path fill="none" stroke-width="0.04" stroke-linecap="butt" stroke-linejoin="miter" stroke="rgb(60.392157%, 44.705882%, 67.45098%)" stroke-opacity="1" stroke-miterlimit="10" d="M -7.796904 2.84171 C -7.717535 2.822092 -7.638166 2.802459 -7.558811 2.782841 " transform="matrix(270, 0, 0, -270, 1920, 1080)"/>
<path fill="none" stroke-width="0.04" stroke-linecap="butt" stroke-linejoin="miter" stroke="rgb(60.392157%, 44.705882%, 67.45098%)" stroke-opacity="1" stroke-miterlimit="10" d="M -7.28669 2.715553 C -7.207335 2.69592 -7.127966 2.676302 -7.048597 2.65667 " transform="matrix(270, 0, 0, -270, 1920, 1080)"/>
<path fill="none" stroke-width="0.04" stroke-linecap="butt" stroke-linejoin="miter" stroke="rgb(60.392157%, 44.705882%, 67.45098%)" stroke-opacity="1" stroke-miterlimit="10" d="M -6.77649 2.589381 C -6.697121 2.569748 -6.617766 2.55013 -6.538397 2.530498 " transform="matrix(270, 0, 0, -270, 1920, 1080)"/>
<path fill="none" stroke-width="0.04" stroke-linecap="butt" stroke-linejoin="miter" stroke="rgb(60.392157%, 44.705882%, 67.45098%)" stroke-opacity="1" stroke-miterlimit="10" d="M -6.266291 2.463209 C -6.186921 2.443591 -6.107552 2.423958 -6.028197 2.40434 " transform="matrix(270, 0, 0, -270, 1920, 1080)"/>
<path fill="none" stroke-width="0.04" stroke-linecap="butt" stroke-linejoin="miter" stroke="rgb(60.392157%, 44.705882%, 67.45098%)" stroke-opacity="1" stroke-miterlimit="10" d="M -5.756076 2.337052 C -5.676722 2.317419 -5.597352 2.297801 -5.517983 2.278168 " transform="matrix(270, 0, 0, -270, 1920, 1080)"/>
<path fill="none" stroke-width="0.04" stroke-linecap="butt" stroke-linejoin="miter" stroke="rgb(60.392157%, 44.705882%, 67.45098%)" stroke-opacity="1" stroke-miterlimit="10" d="M -5.245877 2.21088 C -5.166508 2.191247 -5.087153 2.171629 -5.007784 2.151997 " transform="matrix(270, 0, 0, -270, 1920, 1080)"/>
<path fill="none" stroke-width="0.04" stroke-linecap="butt" stroke-linejoin="miter" stroke="rgb(60.392157%, 44.705882%, 67.45098%)" stroke-opacity="1" stroke-miterlimit="10" d="M -5.007784 2.151997 C -4.92921 2.142549 -4.850637 2.133102 -4.772063 2.123655 " transform="matrix(270, 0, 0, -270, 1920, 1080)"/>
<path fill="none" stroke-width="0.04" stroke-linecap="butt" stroke-linejoin="miter" stroke="rgb(60.392157%, 44.705882%, 67.45098%)" stroke-opacity="1" stroke-miterlimit="10" d="M -4.502677 2.091262 C -4.424117 2.081814 -4.345544 2.072352 -4.26697 2.062905 " transform="matrix(270, 0, 0, -270, 1920, 1080)"/>
<path fill="none" stroke-width="0.04" stroke-linecap="butt" stroke-linejoin="miter" stroke="rgb(60.392157%, 44.705882%, 67.45098%)" stroke-opacity="1" stroke-miterlimit="10" d="M -3.997584 2.030512 C -3.91901 2.021065 -3.840437 2.011617 -3.761863 2.00217 " transform="matrix(270, 0, 0, -270, 1920, 1080)"/>
<path fill="none" stroke-width="0.04" stroke-linecap="butt" stroke-linejoin="miter" stroke="rgb(60.392157%, 44.705882%, 67.45098%)" stroke-opacity="1" stroke-miterlimit="10" d="M -3.492477 1.969763 C -3.413903 1.960315 -3.33533 1.950868 -3.256771 1.941421 " transform="matrix(270, 0, 0, -270, 1920, 1080)"/>
<path fill="none" stroke-width="0.04" stroke-linecap="butt" stroke-linejoin="miter" stroke="rgb(60.392157%, 44.705882%, 67.45098%)" stroke-opacity="1" stroke-miterlimit="10" d="M -2.98737 1.909028 C -2.908811 1.899566 -2.830237 1.890119 -2.751664 1.880671 " transform="matrix(270, 0, 0, -270, 1920, 1080)"/>
<path fill="none" stroke-width="0.04" stroke-linecap="butt" stroke-linejoin="miter" stroke="rgb(60.392157%, 44.705882%, 67.45098%)" stroke-opacity="1" stroke-miterlimit="10" d="M -2.482277 1.848278 C -2.403704 1.838831 -2.32513 1.829384 -2.246557 1.819936 " transform="matrix(270, 0, 0, -270, 1920, 1080)"/>
<path fill="none" stroke-width="0.04" stroke-linecap="butt" stroke-linejoin="miter" stroke="rgb(60.392157%, 44.705882%, 67.45098%)" stroke-opacity="1" stroke-miterlimit="10" d="M -1.97717 1.787529 C -1.898597 1.778082 -1.820023 1.768634 -1.741464 1.759187 " transform="matrix(270, 0, 0, -270, 1920, 1080)"/>
<path fill="none" stroke-width="0.04" stroke-linecap="butt" stroke-linejoin="miter" stroke="rgb(60.392157%, 44.705882%, 67.45098%)" stroke-opacity="1" stroke-miterlimit="10" d="M -1.472063 1.726794 C -1.393504 1.717332 -1.314931 1.707885 -1.236357 1.698437 " transform="matrix(270, 0, 0, -270, 1920, 1080)"/>
<path fill="none" stroke-width="0.04" stroke-linecap="butt" stroke-linejoin="miter" stroke="rgb(60.392157%, 44.705882%, 67.45098%)" stroke-opacity="1" stroke-miterlimit="10" d="M -1.236357 1.698437 C -1.157784 1.698437 -1.07921 1.698437 -1.000637 1.698437 " transform="matrix(270, 0, 0, -270, 1920, 1080)"/>
<path fill="none" stroke-width="0.04" stroke-linecap="butt" stroke-linejoin="miter" stroke="rgb(60.392157%, 44.705882%, 67.45098%)" stroke-opacity="1" stroke-miterlimit="10" d="M -0.73125 1.698437 C -0.652677 1.698437 -0.574117 1.698437 -0.495544 1.698437 " transform="matrix(270, 0, 0, -270, 1920, 1080)"/>
<path fill="none" stroke-width="0.04" stroke-linecap="butt" stroke-linejoin="miter" stroke="rgb(60.392157%, 44.705882%, 67.45098%)" stroke-opacity="1" stroke-miterlimit="10" d="M -0.226157 1.698437 C -0.147584 1.698437 -0.0690104 1.698437 0.00956308 1.698437 " transform="matrix(270, 0, 0, -270, 1920, 1080)"/>
<path fill="none" stroke-width="0.04" stroke-linecap="butt" stroke-linejoin="miter" stroke="rgb(60.392157%, 44.705882%, 67.45098%)" stroke-opacity="1" stroke-miterlimit="10" d="M 0.27895 1.698437 C 0.357523 1.698437 0.436097 1.698437 0.51467 1.698437 " transform="matrix(270, 0, 0, -270, 1920, 1080)"/>
<path fill="none" stroke-width="0.04" stroke-linecap="butt" stroke-linejoin="miter" stroke="rgb(60.392157%, 44.705882%, 67.45098%)" stroke-opacity="1" stroke-miterlimit="10" d="M 0.784057 1.698437 C 0.86263 1.698437 0.941189 1.698437 1.019763 1.698437 " transform="matrix(270, 0, 0, -270, 1920, 1080)"/>
<path fill="none" stroke-width="0.04" stroke-linecap="butt" stroke-linejoin="miter" stroke="rgb(60.392157%, 44.705882%, 67.45098%)" stroke-opacity="1" stroke-miterlimit="10" d="M 1.289149 1.698437 C 1.367723 1.698437 1.446296 1.698437 1.52487 1.698437 " transform="matrix(270, 0, 0, -270, 1920, 1080)"/>
<path fill="none" stroke-width="0.04" stroke-linecap="butt" stroke-linejoin="miter" stroke="rgb(60.392157%, 44.705882%, 67.45098%)" stroke-opacity="1" stroke-miterlimit="10" d="M 1.794256 1.698437 C 1.87283 1.698437 1.951403 1.698437 2.029977 1.698437 " transform="matrix(270, 0, 0, -270, 1920, 1080)"/>
<path fill="none" stroke-width="0.04" stroke-linecap="butt" stroke-linejoin="miter" stroke="rgb(60.392157%, 44.705882%, 67.45098%)" stroke-opacity="1" stroke-miterlimit="10" d="M 2.299363 1.698437 C 2.377937 1.698437 2.456496 1.698437 2.535069 1.698437 " transform="matrix(270, 0, 0, -270, 1920, 1080)"/>
<path fill="none" stroke-width="0.04" stroke-linecap="butt" stroke-linejoin="miter" stroke="rgb(60.392157%, 44.705882%, 67.45098%)" stroke-opacity="1" stroke-miterlimit="10" d="M 2.535069 1.698437 C 2.613643 1.707885 2.692216 1.717332 2.77079 1.726794 " transform="matrix(270, 0, 0, -270, 1920, 1080)"/>
<path fill="none" stroke-width="0.04" stroke-linecap="butt" stroke-linejoin="miter" stroke="rgb(60.392157%, 44.705882%, 67.45098%)" stroke-opacity="1" stroke-miterlimit="10" d="M 3.040177 1.759187 C 3.11875 1.768634 3.197323 1.778082 3.275883 1.787529 " transform="matrix(270, 0, 0, -270, 1920, 1080)"/>
<path fill="none" stroke-width="0.04" stroke-linecap="butt" stroke-linejoin="miter" stroke="rgb(60.392157%, 44.705882%, 67.45098%)" stroke-opacity="1" stroke-miterlimit="10" d="M 3.545284 1.819936 C 3.623843 1.829384 3.702416 1.838831 3.78099 1.848278 " transform="matrix(270, 0, 0, -270, 1920, 1080)"/>
<path fill="none" stroke-width="0.04" stroke-linecap="butt" stroke-linejoin="miter" stroke="rgb(60.392157%, 44.705882%, 67.45098%)" stroke-opacity="1" stroke-miterlimit="10" d="M 4.050376 1.880671 C 4.12895 1.890119 4.207523 1.899566 4.286097 1.909028 " transform="matrix(270, 0, 0, -270, 1920, 1080)"/>
<path fill="none" stroke-width="0.04" stroke-linecap="butt" stroke-linejoin="miter" stroke="rgb(60.392157%, 44.705882%, 67.45098%)" stroke-opacity="1" stroke-miterlimit="10" d="M 4.555483 1.941421 C 4.634057 1.950868 4.71263 1.960315 4.791189 1.969763 " transform="matrix(270, 0, 0, -270, 1920, 1080)"/>
<path fill="none" stroke-width="0.04" stroke-linecap="butt" stroke-linejoin="miter" stroke="rgb(60.392157%, 44.705882%, 67.45098%)" stroke-opacity="1" stroke-miterlimit="10" d="M 5.06059 2.00217 C 5.139149 2.011617 5.217723 2.021065 5.296296 2.030512 " transform="matrix(270, 0, 0, -270, 1920, 1080)"/>
<path fill="none" stroke-width="0.04" stroke-linecap="butt" stroke-linejoin="miter" stroke="rgb(60.392157%, 44.705882%, 67.45098%)" stroke-opacity="1" stroke-miterlimit="10" d="M 5.565683 2.062905 C 5.644256 2.072352 5.72283 2.081814 5.801403 2.091262 " transform="matrix(270, 0, 0, -270, 1920, 1080)"/>
<path fill="none" stroke-width="0.04" stroke-linecap="butt" stroke-linejoin="miter" stroke="rgb(60.392157%, 44.705882%, 67.45098%)" stroke-opacity="1" stroke-miterlimit="10" d="M 6.07079 2.123655 C 6.149363 2.133102 6.227937 2.142549 6.306496 2.151997 " transform="matrix(270, 0, 0, -270, 1920, 1080)"/>
<path fill="none" stroke-width="0.04" stroke-linecap="butt" stroke-linejoin="miter" stroke="rgb(60.392157%, 44.705882%, 67.45098%)" stroke-opacity="1" stroke-miterlimit="10" d="M 6.306496 2.151997 C 6.385865 2.171629 6.465234 2.191247 6.544604 2.21088 " transform="matrix(270, 0, 0, -270, 1920, 1080)"/>
<path fill="none" stroke-width="0.04" stroke-linecap="butt" stroke-linejoin="miter" stroke="rgb(60.392157%, 44.705882%, 67.45098%)" stroke-opacity="1" stroke-miterlimit="10" d="M 6.81671 2.278168 C 6.896065 2.297801 6.975434 2.317419 7.054803 2.337052 " transform="matrix(270, 0, 0, -270, 1920, 1080)"/>
<path fill="none" stroke-width="0.04" stroke-linecap="butt" stroke-linejoin="miter" stroke="rgb(60.392157%, 44.705882%, 67.45098%)" stroke-opacity="1" stroke-miterlimit="10" d="M 7.32691 2.40434 C 7.406279 2.423958 7.485634 2.443591 7.565003 2.463209 " transform="matrix(270, 0, 0, -270, 1920, 1080)"/>
<path fill="none" stroke-width="0.04" stroke-linecap="butt" stroke-linejoin="miter" stroke="rgb(60.392157%, 44.705882%, 67.45098%)" stroke-opacity="1" stroke-miterlimit="10" d="M -5.655396 -3.762283 C -5.646412 -3.680136 -5.637413 -3.598003 -5.628414 -3.515856 " transform="matrix(270, 0, 0, -270, 1920, 1080)"/>
<path fill="none" stroke-width="0.04" stroke-linecap="butt" stroke-linejoin="miter" stroke="rgb(60.392157%, 44.705882%, 67.45098%)" stroke-opacity="1" stroke-miterlimit="10" d="M -5.598987 -3.24702 C -5.589988 -3.164887 -5.58099 -3.08274 -5.571991 -3.000593 " transform="matrix(270, 0, 0, -270, 1920, 1080)"/>
<path fill="none" stroke-width="0.04" stroke-linecap="butt" stroke-linejoin="miter" stroke="rgb(60.392157%, 44.705882%, 67.45098%)" stroke-opacity="1" stroke-miterlimit="10" d="M -5.542564 -2.731771 C -5.533565 -2.649624 -5.524566 -2.567477 -5.515582 -2.48533 " transform="matrix(270, 0, 0, -270, 1920, 1080)"/>
<path fill="none" stroke-width="0.04" stroke-linecap="butt" stroke-linejoin="miter" stroke="rgb(60.392157%, 44.705882%, 67.45098%)" stroke-opacity="1" stroke-miterlimit="10" d="M -5.48614 -2.216508 C -5.477141 -2.134361 -5.468157 -2.052214 -5.459158 -1.970081 " transform="matrix(270, 0, 0, -270, 1920, 1080)"/>
<path fill="none" stroke-width="0.04" stroke-linecap="butt" stroke-linejoin="miter" stroke="rgb(60.392157%, 44.705882%, 67.45098%)" stroke-opacity="1" stroke-miterlimit="10" d="M -5.429716 -1.701244 C -5.420718 -1.619097 -5.411733 -1.536965 -5.402734 -1.454818 " transform="matrix(270, 0, 0, -270, 1920, 1080)"/>
<path fill="none" stroke-width="0.04" stroke-linecap="butt" stroke-linejoin="miter" stroke="rgb(60.392157%, 44.705882%, 67.45098%)" stroke-opacity="1" stroke-miterlimit="10" d="M -5.373293 -1.185981 C -5.364308 -1.103848 -5.35531 -1.021701 -5.346311 -0.939554 " transform="matrix(270, 0, 0, -270, 1920, 1080)"/>
<path fill="none" stroke-width="0.04" stroke-linecap="butt" stroke-linejoin="miter" stroke="rgb(60.392157%, 44.705882%, 67.45098%)" stroke-opacity="1" stroke-miterlimit="10" d="M -5.316869 -0.670732 C -5.307885 -0.588585 -5.298886 -0.506438 -5.289887 -0.424291 " transform="matrix(270, 0, 0, -270, 1920, 1080)"/>
<path fill="none" stroke-width="0.04" stroke-linecap="butt" stroke-linejoin="miter" stroke="rgb(60.392157%, 44.705882%, 67.45098%)" stroke-opacity="1" stroke-miterlimit="10" d="M -5.26046 -0.155469 C -5.251461 -0.0733218 -5.242462 0.00882523 -5.233464 0.0909578 " transform="matrix(270, 0, 0, -270, 1920, 1080)"/>
<path fill="none" stroke-width="0.04" stroke-linecap="butt" stroke-linejoin="miter" stroke="rgb(60.392157%, 44.705882%, 67.45098%)" stroke-opacity="1" stroke-miterlimit="10" d="M -5.204036 0.359795 C -5.195038 0.441942 -5.186039 0.524074 -5.177054 0.606221 " transform="matrix(270, 0, 0, -270, 1920, 1080)"/>
<path fill="none" stroke-width="0.04" stroke-linecap="butt" stroke-linejoin="miter" stroke="rgb(60.392157%, 44.705882%, 67.45098%)" stroke-opacity="1" stroke-miterlimit="10" d="M -5.147613 0.875058 C -5.138614 0.95719 -5.129615 1.039337 -5.120631 1.121484 " transform="matrix(270, 0, 0, -270, 1920, 1080)"/>
<path fill="none" stroke-width="0.04" stroke-linecap="butt" stroke-linejoin="miter" stroke="rgb(60.392157%, 44.705882%, 67.45098%)" stroke-opacity="1" stroke-miterlimit="10" d="M -5.091189 1.390307 C -5.08219 1.472454 -5.073206 1.554601 -5.064207 1.636748 " transform="matrix(270, 0, 0, -270, 1920, 1080)"/>
<path fill="none" stroke-width="0.04" stroke-linecap="butt" stroke-linejoin="miter" stroke="rgb(60.392157%, 44.705882%, 67.45098%)" stroke-opacity="1" stroke-miterlimit="10" d="M -5.034766 1.90557 C -5.025767 1.987717 -5.016782 2.069864 -5.007784 2.151997 " transform="matrix(270, 0, 0, -270, 1920, 1080)"/>
<path fill="none" stroke-width="0.04" stroke-linecap="butt" stroke-linejoin="miter" stroke="rgb(60.392157%, 44.705882%, 67.45098%)" stroke-opacity="1" stroke-miterlimit="10" d="M -1.464931 -4.301563 C -1.461748 -4.218229 -1.458579 -4.134896 -1.455396 -4.051563 " transform="matrix(270, 0, 0, -270, 1920, 1080)"/>
<path fill="none" stroke-width="0.04" stroke-linecap="butt" stroke-linejoin="miter" stroke="rgb(60.392157%, 44.705882%, 67.45098%)" stroke-opacity="1" stroke-miterlimit="10" d="M -1.445009 -3.778834 C -1.44184 -3.695501 -1.438657 -3.612167 -1.435489 -3.528834 " transform="matrix(270, 0, 0, -270, 1920, 1080)"/>
<path fill="none" stroke-width="0.04" stroke-linecap="butt" stroke-linejoin="miter" stroke="rgb(60.392157%, 44.705882%, 67.45098%)" stroke-opacity="1" stroke-miterlimit="10" d="M -1.425101 -3.256105 C -1.421918 -3.172772 -1.41875 -3.089439 -1.415582 -3.006105 " transform="matrix(270, 0, 0, -270, 1920, 1080)"/>
<path fill="none" stroke-width="0.04" stroke-linecap="butt" stroke-linejoin="miter" stroke="rgb(60.392157%, 44.705882%, 67.45098%)" stroke-opacity="1" stroke-miterlimit="10" d="M -1.405194 -2.733377 C -1.402011 -2.650043 -1.398843 -2.56671 -1.39566 -2.483377 " transform="matrix(270, 0, 0, -270, 1920, 1080)"/>
<path fill="none" stroke-width="0.04" stroke-linecap="butt" stroke-linejoin="miter" stroke="rgb(60.392157%, 44.705882%, 67.45098%)" stroke-opacity="1" stroke-miterlimit="10" d="M -1.385272 -2.210648 C -1.382104 -2.127315 -1.378921 -2.043981 -1.375752 -1.960648 " transform="matrix(270, 0, 0, -270, 1920, 1080)"/>
<path fill="none" stroke-width="0.04" stroke-linecap="butt" stroke-linejoin="miter" stroke="rgb(60.392157%, 44.705882%, 67.45098%)" stroke-opacity="1" stroke-miterlimit="10" d="M -1.365365 -1.68792 C -1.362182 -1.604586 -1.359013 -1.521253 -1.35583 -1.43792 " transform="matrix(270, 0, 0, -270, 1920, 1080)"/>
<path fill="none" stroke-width="0.04" stroke-linecap="butt" stroke-linejoin="miter" stroke="rgb(60.392157%, 44.705882%, 67.45098%)" stroke-opacity="1" stroke-miterlimit="10" d="M -1.345443 -1.165191 C -1.342274 -1.081858 -1.339091 -0.998524 -1.335923 -0.915191 " transform="matrix(270, 0, 0, -270, 1920, 1080)"/>
<path fill="none" stroke-width="0.04" stroke-linecap="butt" stroke-linejoin="miter" stroke="rgb(60.392157%, 44.705882%, 67.45098%)" stroke-opacity="1" stroke-miterlimit="10" d="M -1.325535 -0.642462 C -1.322352 -0.559129 -1.319184 -0.475796 -1.316016 -0.392462 " transform="matrix(270, 0, 0, -270, 1920, 1080)"/>
<path fill="none" stroke-width="0.04" stroke-linecap="butt" stroke-linejoin="miter" stroke="rgb(60.392157%, 44.705882%, 67.45098%)" stroke-opacity="1" stroke-miterlimit="10" d="M -1.305613 -0.119748 C -1.302445 -0.0364149 -1.299277 0.0469184 -1.296094 0.130252 " transform="matrix(270, 0, 0, -270, 1920, 1080)"/>
<path fill="none" stroke-width="0.04" stroke-linecap="butt" stroke-linejoin="miter" stroke="rgb(60.392157%, 44.705882%, 67.45098%)" stroke-opacity="1" stroke-miterlimit="10" d="M -1.285706 0.40298 C -1.282538 0.486314 -1.279355 0.569647 -1.276186 0.65298 " transform="matrix(270, 0, 0, -270, 1920, 1080)"/>
<path fill="none" stroke-width="0.04" stroke-linecap="butt" stroke-linejoin="miter" stroke="rgb(60.392157%, 44.705882%, 67.45098%)" stroke-opacity="1" stroke-miterlimit="10" d="M -1.265799 0.925709 C -1.262616 1.009042 -1.259447 1.092376 -1.256264 1.175709 " transform="matrix(270, 0, 0, -270, 1920, 1080)"/>
<path fill="none" stroke-width="0.04" stroke-linecap="butt" stroke-linejoin="miter" stroke="rgb(60.392157%, 44.705882%, 67.45098%)" stroke-opacity="1" stroke-miterlimit="10" d="M -1.245877 1.448437 C -1.242708 1.531771 -1.239525 1.615104 -1.236357 1.698437 " transform="matrix(270, 0, 0, -270, 1920, 1080)"/>
<path fill="none" stroke-width="0.04" stroke-linecap="butt" stroke-linejoin="miter" stroke="rgb(60.392157%, 44.705882%, 67.45098%)" stroke-opacity="1" stroke-miterlimit="10" d="M 2.763643 -4.301563 C 2.760475 -4.218229 2.757292 -4.134896 2.754123 -4.051563 " transform="matrix(270, 0, 0, -270, 1920, 1080)"/>
<path fill="none" stroke-width="0.04" stroke-linecap="butt" stroke-linejoin="miter" stroke="rgb(60.392157%, 44.705882%, 67.45098%)" stroke-opacity="1" stroke-miterlimit="10" d="M 2.743736 -3.778834 C 2.740553 -3.695501 2.737384 -3.612167 2.734201 -3.528834 " transform="matrix(270, 0, 0, -270, 1920, 1080)"/>
<path fill="none" stroke-width="0.04" stroke-linecap="butt" stroke-linejoin="miter" stroke="rgb(60.392157%, 44.705882%, 67.45098%)" stroke-opacity="1" stroke-miterlimit="10" d="M 2.723814 -3.256105 C 2.720645 -3.172772 2.717462 -3.089439 2.714294 -3.006105 " transform="matrix(270, 0, 0, -270, 1920, 1080)"/>
<path fill="none" stroke-width="0.04" stroke-linecap="butt" stroke-linejoin="miter" stroke="rgb(60.392157%, 44.705882%, 67.45098%)" stroke-opacity="1" stroke-miterlimit="10" d="M 2.703906 -2.733377 C 2.700723 -2.650043 2.697555 -2.56671 2.694387 -2.483377 " transform="matrix(270, 0, 0, -270, 1920, 1080)"/>
<path fill="none" stroke-width="0.04" stroke-linecap="butt" stroke-linejoin="miter" stroke="rgb(60.392157%, 44.705882%, 67.45098%)" stroke-opacity="1" stroke-miterlimit="10" d="M 2.683984 -2.210648 C 2.680816 -2.127315 2.677648 -2.043981 2.674465 -1.960648 " transform="matrix(270, 0, 0, -270, 1920, 1080)"/>
<path fill="none" stroke-width="0.04" stroke-linecap="butt" stroke-linejoin="miter" stroke="rgb(60.392157%, 44.705882%, 67.45098%)" stroke-opacity="1" stroke-miterlimit="10" d="M 2.664077 -1.68792 C 2.660909 -1.604586 2.657726 -1.521253 2.654557 -1.43792 " transform="matrix(270, 0, 0, -270, 1920, 1080)"/>
<path fill="none" stroke-width="0.04" stroke-linecap="butt" stroke-linejoin="miter" stroke="rgb(60.392157%, 44.705882%, 67.45098%)" stroke-opacity="1" stroke-miterlimit="10" d="M 2.64417 -1.165191 C 2.640987 -1.081858 2.637818 -0.998524 2.634635 -0.915191 " transform="matrix(270, 0, 0, -270, 1920, 1080)"/>
<path fill="none" stroke-width="0.04" stroke-linecap="butt" stroke-linejoin="miter" stroke="rgb(60.392157%, 44.705882%, 67.45098%)" stroke-opacity="1" stroke-miterlimit="10" d="M 2.624248 -0.642462 C 2.621079 -0.559129 2.617896 -0.475796 2.614728 -0.392462 " transform="matrix(270, 0, 0, -270, 1920, 1080)"/>
<path fill="none" stroke-width="0.04" stroke-linecap="butt" stroke-linejoin="miter" stroke="rgb(60.392157%, 44.705882%, 67.45098%)" stroke-opacity="1" stroke-miterlimit="10" d="M 2.60434 -0.119748 C 2.601157 -0.0364149 2.597989 0.0469184 2.594806 0.130252 " transform="matrix(270, 0, 0, -270, 1920, 1080)"/>
<path fill="none" stroke-width="0.04" stroke-linecap="butt" stroke-linejoin="miter" stroke="rgb(60.392157%, 44.705882%, 67.45098%)" stroke-opacity="1" stroke-miterlimit="10" d="M 2.584418 0.40298 C 2.58125 0.486314 2.578082 0.569647 2.574899 0.65298 " transform="matrix(270, 0, 0, -270, 1920, 1080)"/>
<path fill="none" stroke-width="0.04" stroke-linecap="butt" stroke-linejoin="miter" stroke="rgb(60.392157%, 44.705882%, 67.45098%)" stroke-opacity="1" stroke-miterlimit="10" d="M 2.564511 0.925709 C 2.561343 1.009042 2.55816 1.092376 2.554991 1.175709 " transform="matrix(270, 0, 0, -270, 1920, 1080)"/>
<path fill="none" stroke-width="0.04" stroke-linecap="butt" stroke-linejoin="miter" stroke="rgb(60.392157%, 44.705882%, 67.45098%)" stroke-opacity="1" stroke-miterlimit="10" d="M 2.544604 1.448437 C 2.541421 1.531771 2.538252 1.615104 2.535069 1.698437 " transform="matrix(270, 0, 0, -270, 1920, 1080)"/>
<path fill="none" stroke-width="0.04" stroke-linecap="butt" stroke-linejoin="miter" stroke="rgb(60.392157%, 44.705882%, 67.45098%)" stroke-opacity="1" stroke-miterlimit="10" d="M 6.954123 -3.762283 C 6.945124 -3.680136 6.936126 -3.598003 6.927141 -3.515856 " transform="matrix(270, 0, 0, -270, 1920, 1080)"/>
<path fill="none" stroke-width="0.04" stroke-linecap="butt" stroke-linejoin="miter" stroke="rgb(60.392157%, 44.705882%, 67.45098%)" stroke-opacity="1" stroke-miterlimit="10" d="M 6.8977 -3.24702 C 6.888701 -3.164887 6.879716 -3.08274 6.870718 -3.000593 " transform="matrix(270, 0, 0, -270, 1920, 1080)"/>
<path fill="none" stroke-width="0.04" stroke-linecap="butt" stroke-linejoin="miter" stroke="rgb(60.392157%, 44.705882%, 67.45098%)" stroke-opacity="1" stroke-miterlimit="10" d="M 6.841276 -2.731771 C 6.832277 -2.649624 6.823293 -2.567477 6.814294 -2.48533 " transform="matrix(270, 0, 0, -270, 1920, 1080)"/>
<path fill="none" stroke-width="0.04" stroke-linecap="butt" stroke-linejoin="miter" stroke="rgb(60.392157%, 44.705882%, 67.45098%)" stroke-opacity="1" stroke-miterlimit="10" d="M 6.784852 -2.216508 C 6.775868 -2.134361 6.766869 -2.052214 6.75787 -1.970081 " transform="matrix(270, 0, 0, -270, 1920, 1080)"/>
<path fill="none" stroke-width="0.04" stroke-linecap="butt" stroke-linejoin="miter" stroke="rgb(60.392157%, 44.705882%, 67.45098%)" stroke-opacity="1" stroke-miterlimit="10" d="M 6.728429 -1.701244 C 6.719444 -1.619097 6.710446 -1.536965 6.701447 -1.454818 " transform="matrix(270, 0, 0, -270, 1920, 1080)"/>
<path fill="none" stroke-width="0.04" stroke-linecap="butt" stroke-linejoin="miter" stroke="rgb(60.392157%, 44.705882%, 67.45098%)" stroke-opacity="1" stroke-miterlimit="10" d="M 6.67202 -1.185981 C 6.663021 -1.103848 6.654022 -1.021701 6.645023 -0.939554 " transform="matrix(270, 0, 0, -270, 1920, 1080)"/>
<path fill="none" stroke-width="0.04" stroke-linecap="butt" stroke-linejoin="miter" stroke="rgb(60.392157%, 44.705882%, 67.45098%)" stroke-opacity="1" stroke-miterlimit="10" d="M 6.615596 -0.670732 C 6.606597 -0.588585 6.597598 -0.506438 6.588614 -0.424291 " transform="matrix(270, 0, 0, -270, 1920, 1080)"/>
<path fill="none" stroke-width="0.04" stroke-linecap="butt" stroke-linejoin="miter" stroke="rgb(60.392157%, 44.705882%, 67.45098%)" stroke-opacity="1" stroke-miterlimit="10" d="M 6.559172 -0.155469 C 6.550174 -0.0733218 6.541175 0.00882523 6.53219 0.0909578 " transform="matrix(270, 0, 0, -270, 1920, 1080)"/>
<path fill="none" stroke-width="0.04" stroke-linecap="butt" stroke-linejoin="miter" stroke="rgb(60.392157%, 44.705882%, 67.45098%)" stroke-opacity="1" stroke-miterlimit="10" d="M 6.502749 0.359795 C 6.49375 0.441942 6.484766 0.524074 6.475767 0.606221 " transform="matrix(270, 0, 0, -270, 1920, 1080)"/>
<path fill="none" stroke-width="0.04" stroke-linecap="butt" stroke-linejoin="miter" stroke="rgb(60.392157%, 44.705882%, 67.45098%)" stroke-opacity="1" stroke-miterlimit="10" d="M 6.446325 0.875058 C 6.437341 0.95719 6.428342 1.039337 6.419343 1.121484 " transform="matrix(270, 0, 0, -270, 1920, 1080)"/>
<path fill="none" stroke-width="0.04" stroke-linecap="butt" stroke-linejoin="miter" stroke="rgb(60.392157%, 44.705882%, 67.45098%)" stroke-opacity="1" stroke-miterlimit="10" d="M 6.389902 1.390307 C 6.380917 1.472454 6.371918 1.554601 6.36292 1.636748 " transform="matrix(270, 0, 0, -270, 1920, 1080)"/>
<path fill="none" stroke-width="0.04" stroke-linecap="butt" stroke-linejoin="miter" stroke="rgb(60.392157%, 44.705882%, 67.45098%)" stroke-opacity="1" stroke-miterlimit="10" d="M 6.333492 1.90557 C 6.324494 1.987717 6.315495 2.069864 6.306496 2.151997 " transform="matrix(270, 0, 0, -270, 1920, 1080)"/>
<path fill="none" stroke-width="0.04" stroke-linecap="butt" stroke-linejoin="miter" stroke="rgb(60.392157%, 44.705882%, 67.45098%)" stroke-opacity="1" stroke-miterlimit="10" d="M -5.655396 -3.762283 C -5.690538 -3.686097 -5.725666 -3.609925 -5.760793 -3.533738 " transform="matrix(270, 0, 0, -270, 1920, 1080)"/>
<path fill="none" stroke-width="0.04" stroke-linecap="butt" stroke-linejoin="miter" stroke="rgb(60.392157%, 44.705882%, 67.45098%)" stroke-opacity="1" stroke-miterlimit="10" d="M -5.873727 -3.288874 C -5.908854 -3.212688 -5.943996 -3.136502 -5.979123 -3.06033 " transform="matrix(270, 0, 0, -270, 1920, 1080)"/>
<path fill="none" stroke-width="0.04" stroke-linecap="butt" stroke-linejoin="miter" stroke="rgb(60.392157%, 44.705882%, 67.45098%)" stroke-opacity="1" stroke-miterlimit="10" d="M -6.092043 -2.815451 C -6.127185 -2.73928 -6.162312 -2.663093 -6.197439 -2.586907 " transform="matrix(270, 0, 0, -270, 1920, 1080)"/>
<path fill="none" stroke-width="0.04" stroke-linecap="butt" stroke-linejoin="miter" stroke="rgb(60.392157%, 44.705882%, 67.45098%)" stroke-opacity="1" stroke-miterlimit="10" d="M -6.310373 -2.342043 C -6.345501 -2.265856 -6.380628 -2.189685 -6.41577 -2.113498 " transform="matrix(270, 0, 0, -270, 1920, 1080)"/>
<path fill="none" stroke-width="0.04" stroke-linecap="butt" stroke-linejoin="miter" stroke="rgb(60.392157%, 44.705882%, 67.45098%)" stroke-opacity="1" stroke-miterlimit="10" d="M -6.528689 -1.868634 C -6.563817 -1.792448 -6.598958 -1.716262 -6.634086 -1.64009 " transform="matrix(270, 0, 0, -270, 1920, 1080)"/>
<path fill="none" stroke-width="0.04" stroke-linecap="butt" stroke-linejoin="miter" stroke="rgb(60.392157%, 44.705882%, 67.45098%)" stroke-opacity="1" stroke-miterlimit="10" d="M -6.74702 -1.395211 C -6.782147 -1.319039 -6.817274 -1.242853 -6.852416 -1.166667 " transform="matrix(270, 0, 0, -270, 1920, 1080)"/>
<path fill="none" stroke-width="0.04" stroke-linecap="butt" stroke-linejoin="miter" stroke="rgb(60.392157%, 44.705882%, 67.45098%)" stroke-opacity="1" stroke-miterlimit="10" d="M -6.965336 -0.921803 C -7.000463 -0.845616 -7.035605 -0.769444 -7.070732 -0.693258 " transform="matrix(270, 0, 0, -270, 1920, 1080)"/>
<path fill="none" stroke-width="0.04" stroke-linecap="butt" stroke-linejoin="miter" stroke="rgb(60.392157%, 44.705882%, 67.45098%)" stroke-opacity="1" stroke-miterlimit="10" d="M -7.183652 -0.448394 C -7.218793 -0.372208 -7.253921 -0.296021 -7.289048 -0.21985 " transform="matrix(270, 0, 0, -270, 1920, 1080)"/>
<path fill="none" stroke-width="0.04" stroke-linecap="butt" stroke-linejoin="miter" stroke="rgb(60.392157%, 44.705882%, 67.45098%)" stroke-opacity="1" stroke-miterlimit="10" d="M -7.401982 0.0250289 C -7.437109 0.101201 -7.472237 0.177387 -7.507378 0.253573 " transform="matrix(270, 0, 0, -270, 1920, 1080)"/>
<path fill="none" stroke-width="0.04" stroke-linecap="butt" stroke-linejoin="miter" stroke="rgb(60.392157%, 44.705882%, 67.45098%)" stroke-opacity="1" stroke-miterlimit="10" d="M -7.620298 0.498437 C -7.65544 0.574624 -7.690567 0.650796 -7.725694 0.726982 " transform="matrix(270, 0, 0, -270, 1920, 1080)"/>
<path fill="none" stroke-width="0.04" stroke-linecap="butt" stroke-linejoin="miter" stroke="rgb(60.392157%, 44.705882%, 67.45098%)" stroke-opacity="1" stroke-miterlimit="10" d="M -1.464931 -4.301563 C -1.504297 -4.229861 -1.543663 -4.158145 -1.583015 -4.086444 " transform="matrix(270, 0, 0, -270, 1920, 1080)"/>
<path fill="none" stroke-width="0.04" stroke-linecap="butt" stroke-linejoin="miter" stroke="rgb(60.392157%, 44.705882%, 67.45098%)" stroke-opacity="1" stroke-miterlimit="10" d="M -1.709549 -3.855961 C -1.748915 -3.784245 -1.788281 -3.712543 -1.827648 -3.640842 " transform="matrix(270, 0, 0, -270, 1920, 1080)"/>
<path fill="none" stroke-width="0.04" stroke-linecap="butt" stroke-linejoin="miter" stroke="rgb(60.392157%, 44.705882%, 67.45098%)" stroke-opacity="1" stroke-miterlimit="10" d="M -1.954181 -3.410359 C -1.993547 -3.338643 -2.032914 -3.266942 -2.07228 -3.19524 " transform="matrix(270, 0, 0, -270, 1920, 1080)"/>
<path fill="none" stroke-width="0.04" stroke-linecap="butt" stroke-linejoin="miter" stroke="rgb(60.392157%, 44.705882%, 67.45098%)" stroke-opacity="1" stroke-miterlimit="10" d="M -2.198799 -2.964757 C -2.238166 -2.893041 -2.277532 -2.82134 -2.316898 -2.749638 " transform="matrix(270, 0, 0, -270, 1920, 1080)"/>
<path fill="none" stroke-width="0.04" stroke-linecap="butt" stroke-linejoin="miter" stroke="rgb(60.392157%, 44.705882%, 67.45098%)" stroke-opacity="1" stroke-miterlimit="10" d="M -2.443432 -2.519141 C -2.482798 -2.447439 -2.522164 -2.375738 -2.561531 -2.304022 " transform="matrix(270, 0, 0, -270, 1920, 1080)"/>
<path fill="none" stroke-width="0.04" stroke-linecap="butt" stroke-linejoin="miter" stroke="rgb(60.392157%, 44.705882%, 67.45098%)" stroke-opacity="1" stroke-miterlimit="10" d="M -2.68805 -2.073539 C -2.727416 -2.001837 -2.766782 -1.930136 -2.806149 -1.85842 " transform="matrix(270, 0, 0, -270, 1920, 1080)"/>
<path fill="none" stroke-width="0.04" stroke-linecap="butt" stroke-linejoin="miter" stroke="rgb(60.392157%, 44.705882%, 67.45098%)" stroke-opacity="1" stroke-miterlimit="10" d="M -2.932682 -1.627937 C -2.972049 -1.556236 -3.011415 -1.484534 -3.050781 -1.412818 " transform="matrix(270, 0, 0, -270, 1920, 1080)"/>
<path fill="none" stroke-width="0.04" stroke-linecap="butt" stroke-linejoin="miter" stroke="rgb(60.392157%, 44.705882%, 67.45098%)" stroke-opacity="1" stroke-miterlimit="10" d="M -3.177315 -1.182335 C -3.216667 -1.110634 -3.256033 -1.038932 -3.295399 -0.967216 " transform="matrix(270, 0, 0, -270, 1920, 1080)"/>
<path fill="none" stroke-width="0.04" stroke-linecap="butt" stroke-linejoin="miter" stroke="rgb(60.392157%, 44.705882%, 67.45098%)" stroke-opacity="1" stroke-miterlimit="10" d="M -3.421933 -0.736733 C -3.461299 -0.665032 -3.500666 -0.593316 -3.540032 -0.521615 " transform="matrix(270, 0, 0, -270, 1920, 1080)"/>
<path fill="none" stroke-width="0.04" stroke-linecap="butt" stroke-linejoin="miter" stroke="rgb(60.392157%, 44.705882%, 67.45098%)" stroke-opacity="1" stroke-miterlimit="10" d="M -3.666565 -0.291131 C -3.705932 -0.21943 -3.745284 -0.147714 -3.78465 -0.0760127 " transform="matrix(270, 0, 0, -270, 1920, 1080)"/>
<path fill="none" stroke-width="0.04" stroke-linecap="butt" stroke-linejoin="miter" stroke="rgb(60.392157%, 44.705882%, 67.45098%)" stroke-opacity="1" stroke-miterlimit="10" d="M -3.911183 0.15447 C -3.95055 0.226172 -3.989916 0.297888 -4.029282 0.369589 " transform="matrix(270, 0, 0, -270, 1920, 1080)"/>
<path fill="none" stroke-width="0.04" stroke-linecap="butt" stroke-linejoin="miter" stroke="rgb(60.392157%, 44.705882%, 67.45098%)" stroke-opacity="1" stroke-miterlimit="10" d="M -4.155816 0.600072 C -4.195182 0.671774 -4.234549 0.74349 -4.2739 0.815191 " transform="matrix(270, 0, 0, -270, 1920, 1080)"/>
<path fill="none" stroke-width="0.04" stroke-linecap="butt" stroke-linejoin="miter" stroke="rgb(60.392157%, 44.705882%, 67.45098%)" stroke-opacity="1" stroke-miterlimit="10" d="M -4.400434 1.045674 C -4.4398 1.11739 -4.479167 1.189091 -4.518533 1.260793 " transform="matrix(270, 0, 0, -270, 1920, 1080)"/>
<path fill="none" stroke-width="0.04" stroke-linecap="butt" stroke-linejoin="miter" stroke="rgb(60.392157%, 44.705882%, 67.45098%)" stroke-opacity="1" stroke-miterlimit="10" d="M -4.645067 1.491276 C -4.684433 1.562992 -4.723799 1.634693 -4.763151 1.706395 " transform="matrix(270, 0, 0, -270, 1920, 1080)"/>
<path fill="none" stroke-width="0.04" stroke-linecap="butt" stroke-linejoin="miter" stroke="rgb(60.392157%, 44.705882%, 67.45098%)" stroke-opacity="1" stroke-miterlimit="10" d="M -4.889685 1.936878 C -4.929051 2.008594 -4.968417 2.080295 -5.007784 2.151997 " transform="matrix(270, 0, 0, -270, 1920, 1080)"/>
<path fill="none" stroke-width="0.04" stroke-linecap="butt" stroke-linejoin="miter" stroke="rgb(60.392157%, 44.705882%, 67.45098%)" stroke-opacity="1" stroke-miterlimit="10" d="M 2.763643 -4.301563 C 2.719198 -4.234896 2.674754 -4.168229 2.63031 -4.101562 " transform="matrix(270, 0, 0, -270, 1920, 1080)"/>
<path fill="none" stroke-width="0.04" stroke-linecap="butt" stroke-linejoin="miter" stroke="rgb(60.392157%, 44.705882%, 67.45098%)" stroke-opacity="1" stroke-miterlimit="10" d="M 2.487457 -3.887269 C 2.443012 -3.820602 2.398568 -3.753935 2.354123 -3.687269 " transform="matrix(270, 0, 0, -270, 1920, 1080)"/>
<path fill="none" stroke-width="0.04" stroke-linecap="butt" stroke-linejoin="miter" stroke="rgb(60.392157%, 44.705882%, 67.45098%)" stroke-opacity="1" stroke-miterlimit="10" d="M 2.21127 -3.472989 C 2.166826 -3.406322 2.122381 -3.339656 2.077937 -3.272989 " transform="matrix(270, 0, 0, -270, 1920, 1080)"/>
<path fill="none" stroke-width="0.04" stroke-linecap="butt" stroke-linejoin="miter" stroke="rgb(60.392157%, 44.705882%, 67.45098%)" stroke-opacity="1" stroke-miterlimit="10" d="M 1.935069 -3.058709 C 1.890625 -2.992043 1.846181 -2.925376 1.801736 -2.858709 " transform="matrix(270, 0, 0, -270, 1920, 1080)"/>
<path fill="none" stroke-width="0.04" stroke-linecap="butt" stroke-linejoin="miter" stroke="rgb(60.392157%, 44.705882%, 67.45098%)" stroke-opacity="1" stroke-miterlimit="10" d="M 1.658883 -2.644416 C 1.614439 -2.577749 1.569994 -2.511082 1.52555 -2.444416 " transform="matrix(270, 0, 0, -270, 1920, 1080)"/>
<path fill="none" stroke-width="0.04" stroke-linecap="butt" stroke-linejoin="miter" stroke="rgb(60.392157%, 44.705882%, 67.45098%)" stroke-opacity="1" stroke-miterlimit="10" d="M 1.382697 -2.230136 C 1.338252 -2.163469 1.293808 -2.096803 1.249363 -2.030136 " transform="matrix(270, 0, 0, -270, 1920, 1080)"/>
<path fill="none" stroke-width="0.04" stroke-linecap="butt" stroke-linejoin="miter" stroke="rgb(60.392157%, 44.705882%, 67.45098%)" stroke-opacity="1" stroke-miterlimit="10" d="M 1.106496 -1.815842 C 1.062052 -1.749175 1.017607 -1.682509 0.973163 -1.615842 " transform="matrix(270, 0, 0, -270, 1920, 1080)"/>
<path fill="none" stroke-width="0.04" stroke-linecap="butt" stroke-linejoin="miter" stroke="rgb(60.392157%, 44.705882%, 67.45098%)" stroke-opacity="1" stroke-miterlimit="10" d="M 0.83031 -1.401562 C 0.785865 -1.334896 0.741421 -1.268229 0.696976 -1.201563 " transform="matrix(270, 0, 0, -270, 1920, 1080)"/>
<path fill="none" stroke-width="0.04" stroke-linecap="butt" stroke-linejoin="miter" stroke="rgb(60.392157%, 44.705882%, 67.45098%)" stroke-opacity="1" stroke-miterlimit="10" d="M 0.554123 -0.987269 C 0.509679 -0.920602 0.465234 -0.853935 0.42079 -0.787269 " transform="matrix(270, 0, 0, -270, 1920, 1080)"/>
<path fill="none" stroke-width="0.04" stroke-linecap="butt" stroke-linejoin="miter" stroke="rgb(60.392157%, 44.705882%, 67.45098%)" stroke-opacity="1" stroke-miterlimit="10" d="M 0.277937 -0.572989 C 0.233492 -0.506322 0.189048 -0.439656 0.144604 -0.372989 " transform="matrix(270, 0, 0, -270, 1920, 1080)"/>
<path fill="none" stroke-width="0.04" stroke-linecap="butt" stroke-linejoin="miter" stroke="rgb(60.392157%, 44.705882%, 67.45098%)" stroke-opacity="1" stroke-miterlimit="10" d="M 0.00173611 -0.158709 C -0.0427083 -0.0920428 -0.0871528 -0.0253762 -0.131597 0.0412905 " transform="matrix(270, 0, 0, -270, 1920, 1080)"/>
<path fill="none" stroke-width="0.04" stroke-linecap="butt" stroke-linejoin="miter" stroke="rgb(60.392157%, 44.705882%, 67.45098%)" stroke-opacity="1" stroke-miterlimit="10" d="M -0.27445 0.255584 C -0.318895 0.322251 -0.363339 0.388918 -0.407784 0.455584 " transform="matrix(270, 0, 0, -270, 1920, 1080)"/>
<path fill="none" stroke-width="0.04" stroke-linecap="butt" stroke-linejoin="miter" stroke="rgb(60.392157%, 44.705882%, 67.45098%)" stroke-opacity="1" stroke-miterlimit="10" d="M -0.550637 0.669864 C -0.595081 0.736531 -0.639525 0.803197 -0.68397 0.869864 " transform="matrix(270, 0, 0, -270, 1920, 1080)"/>
<path fill="none" stroke-width="0.04" stroke-linecap="butt" stroke-linejoin="miter" stroke="rgb(60.392157%, 44.705882%, 67.45098%)" stroke-opacity="1" stroke-miterlimit="10" d="M -0.826837 1.084158 C -0.871282 1.150825 -0.915726 1.217491 -0.960171 1.284158 " transform="matrix(270, 0, 0, -270, 1920, 1080)"/>
<path fill="none" stroke-width="0.04" stroke-linecap="butt" stroke-linejoin="miter" stroke="rgb(60.392157%, 44.705882%, 67.45098%)" stroke-opacity="1" stroke-miterlimit="10" d="M -1.103024 1.498438 C -1.147468 1.565104 -1.191913 1.631771 -1.236357 1.698437 " transform="matrix(270, 0, 0, -270, 1920, 1080)"/>
<path fill="none" stroke-width="0.04" stroke-linecap="butt" stroke-linejoin="miter" stroke="rgb(60.392157%, 44.705882%, 67.45098%)" stroke-opacity="1" stroke-miterlimit="10" d="M -1.464931 -4.301563 C -1.420486 -4.234896 -1.376042 -4.168229 -1.331597 -4.101562 " transform="matrix(270, 0, 0, -270, 1920, 1080)"/>
<path fill="none" stroke-width="0.04" stroke-linecap="butt" stroke-linejoin="miter" stroke="rgb(60.392157%, 44.705882%, 67.45098%)" stroke-opacity="1" stroke-miterlimit="10" d="M -1.18873 -3.887269 C -1.144285 -3.820602 -1.099841 -3.753935 -1.055396 -3.687269 " transform="matrix(270, 0, 0, -270, 1920, 1080)"/>
<path fill="none" stroke-width="0.04" stroke-linecap="butt" stroke-linejoin="miter" stroke="rgb(60.392157%, 44.705882%, 67.45098%)" stroke-opacity="1" stroke-miterlimit="10" d="M -0.912543 -3.472989 C -0.868099 -3.406322 -0.823655 -3.339656 -0.77921 -3.272989 " transform="matrix(270, 0, 0, -270, 1920, 1080)"/>
<path fill="none" stroke-width="0.04" stroke-linecap="butt" stroke-linejoin="miter" stroke="rgb(60.392157%, 44.705882%, 67.45098%)" stroke-opacity="1" stroke-miterlimit="10" d="M -0.636357 -3.058709 C -0.591913 -2.992043 -0.547468 -2.925376 -0.503024 -2.858709 " transform="matrix(270, 0, 0, -270, 1920, 1080)"/>
<path fill="none" stroke-width="0.04" stroke-linecap="butt" stroke-linejoin="miter" stroke="rgb(60.392157%, 44.705882%, 67.45098%)" stroke-opacity="1" stroke-miterlimit="10" d="M -0.360171 -2.644416 C -0.315726 -2.577749 -0.271282 -2.511082 -0.226837 -2.444416 " transform="matrix(270, 0, 0, -270, 1920, 1080)"/>
<path fill="none" stroke-width="0.04" stroke-linecap="butt" stroke-linejoin="miter" stroke="rgb(60.392157%, 44.705882%, 67.45098%)" stroke-opacity="1" stroke-miterlimit="10" d="M -0.0839699 -2.230136 C -0.0395255 -2.163469 0.00491898 -2.096803 0.0493634 -2.030136 " transform="matrix(270, 0, 0, -270, 1920, 1080)"/>
<path fill="none" stroke-width="0.04" stroke-linecap="butt" stroke-linejoin="miter" stroke="rgb(60.392157%, 44.705882%, 67.45098%)" stroke-opacity="1" stroke-miterlimit="10" d="M 0.192216 -1.815842 C 0.236661 -1.749175 0.281105 -1.682509 0.32555 -1.615842 " transform="matrix(270, 0, 0, -270, 1920, 1080)"/>
<path fill="none" stroke-width="0.04" stroke-linecap="butt" stroke-linejoin="miter" stroke="rgb(60.392157%, 44.705882%, 67.45098%)" stroke-opacity="1" stroke-miterlimit="10" d="M 0.468403 -1.401562 C 0.512847 -1.334896 0.557292 -1.268229 0.601736 -1.201563 " transform="matrix(270, 0, 0, -270, 1920, 1080)"/>
<path fill="none" stroke-width="0.04" stroke-linecap="butt" stroke-linejoin="miter" stroke="rgb(60.392157%, 44.705882%, 67.45098%)" stroke-opacity="1" stroke-miterlimit="10" d="M 0.744604 -0.987269 C 0.789048 -0.920602 0.833492 -0.853935 0.877937 -0.787269 " transform="matrix(270, 0, 0, -270, 1920, 1080)"/>
<path fill="none" stroke-width="0.04" stroke-linecap="butt" stroke-linejoin="miter" stroke="rgb(60.392157%, 44.705882%, 67.45098%)" stroke-opacity="1" stroke-miterlimit="10" d="M 1.02079 -0.572989 C 1.065234 -0.506322 1.109679 -0.439656 1.154123 -0.372989 " transform="matrix(270, 0, 0, -270, 1920, 1080)"/>
<path fill="none" stroke-width="0.04" stroke-linecap="butt" stroke-linejoin="miter" stroke="rgb(60.392157%, 44.705882%, 67.45098%)" stroke-opacity="1" stroke-miterlimit="10" d="M 1.296976 -0.158709 C 1.341421 -0.0920428 1.385865 -0.0253762 1.43031 0.0412905 " transform="matrix(270, 0, 0, -270, 1920, 1080)"/>
<path fill="none" stroke-width="0.04" stroke-linecap="butt" stroke-linejoin="miter" stroke="rgb(60.392157%, 44.705882%, 67.45098%)" stroke-opacity="1" stroke-miterlimit="10" d="M 1.573163 0.255584 C 1.617607 0.322251 1.662052 0.388918 1.706496 0.455584 " transform="matrix(270, 0, 0, -270, 1920, 1080)"/>
<path fill="none" stroke-width="0.04" stroke-linecap="butt" stroke-linejoin="miter" stroke="rgb(60.392157%, 44.705882%, 67.45098%)" stroke-opacity="1" stroke-miterlimit="10" d="M 1.849363 0.669864 C 1.893808 0.736531 1.938252 0.803197 1.982697 0.869864 " transform="matrix(270, 0, 0, -270, 1920, 1080)"/>
<path fill="none" stroke-width="0.04" stroke-linecap="butt" stroke-linejoin="miter" stroke="rgb(60.392157%, 44.705882%, 67.45098%)" stroke-opacity="1" stroke-miterlimit="10" d="M 2.12555 1.084158 C 2.169994 1.150825 2.214439 1.217491 2.258883 1.284158 " transform="matrix(270, 0, 0, -270, 1920, 1080)"/>
<path fill="none" stroke-width="0.04" stroke-linecap="butt" stroke-linejoin="miter" stroke="rgb(60.392157%, 44.705882%, 67.45098%)" stroke-opacity="1" stroke-miterlimit="10" d="M 2.401736 1.498438 C 2.446181 1.565104 2.490625 1.631771 2.535069 1.698437 " transform="matrix(270, 0, 0, -270, 1920, 1080)"/>
<path fill="none" stroke-width="0.04" stroke-linecap="butt" stroke-linejoin="miter" stroke="rgb(60.392157%, 44.705882%, 67.45098%)" stroke-opacity="1" stroke-miterlimit="10" d="M 2.763643 -4.301563 C 2.803009 -4.229861 2.842376 -4.158145 2.881742 -4.086444 " transform="matrix(270, 0, 0, -270, 1920, 1080)"/>
<path fill="none" stroke-width="0.04" stroke-linecap="butt" stroke-linejoin="miter" stroke="rgb(60.392157%, 44.705882%, 67.45098%)" stroke-opacity="1" stroke-miterlimit="10" d="M 3.008275 -3.855961 C 3.047642 -3.784245 3.086994 -3.712543 3.12636 -3.640842 " transform="matrix(270, 0, 0, -270, 1920, 1080)"/>
<path fill="none" stroke-width="0.04" stroke-linecap="butt" stroke-linejoin="miter" stroke="rgb(60.392157%, 44.705882%, 67.45098%)" stroke-opacity="1" stroke-miterlimit="10" d="M 3.252894 -3.410359 C 3.29226 -3.338643 3.331626 -3.266942 3.370992 -3.19524 " transform="matrix(270, 0, 0, -270, 1920, 1080)"/>
<path fill="none" stroke-width="0.04" stroke-linecap="butt" stroke-linejoin="miter" stroke="rgb(60.392157%, 44.705882%, 67.45098%)" stroke-opacity="1" stroke-miterlimit="10" d="M 3.497526 -2.964757 C 3.536892 -2.893041 3.576259 -2.82134 3.615611 -2.749638 " transform="matrix(270, 0, 0, -270, 1920, 1080)"/>
<path fill="none" stroke-width="0.04" stroke-linecap="butt" stroke-linejoin="miter" stroke="rgb(60.392157%, 44.705882%, 67.45098%)" stroke-opacity="1" stroke-miterlimit="10" d="M 3.742144 -2.519141 C 3.78151 -2.447439 3.820877 -2.375738 3.860243 -2.304022 " transform="matrix(270, 0, 0, -270, 1920, 1080)"/>
<path fill="none" stroke-width="0.04" stroke-linecap="butt" stroke-linejoin="miter" stroke="rgb(60.392157%, 44.705882%, 67.45098%)" stroke-opacity="1" stroke-miterlimit="10" d="M 3.986777 -2.073539 C 4.026143 -2.001837 4.065509 -1.930136 4.104876 -1.85842 " transform="matrix(270, 0, 0, -270, 1920, 1080)"/>
<path fill="none" stroke-width="0.04" stroke-linecap="butt" stroke-linejoin="miter" stroke="rgb(60.392157%, 44.705882%, 67.45098%)" stroke-opacity="1" stroke-miterlimit="10" d="M 4.231395 -1.627937 C 4.270761 -1.556236 4.310127 -1.484534 4.349494 -1.412818 " transform="matrix(270, 0, 0, -270, 1920, 1080)"/>
<path fill="none" stroke-width="0.04" stroke-linecap="butt" stroke-linejoin="miter" stroke="rgb(60.392157%, 44.705882%, 67.45098%)" stroke-opacity="1" stroke-miterlimit="10" d="M 4.476027 -1.182335 C 4.515394 -1.110634 4.55476 -1.038932 4.594126 -0.967216 " transform="matrix(270, 0, 0, -270, 1920, 1080)"/>
<path fill="none" stroke-width="0.04" stroke-linecap="butt" stroke-linejoin="miter" stroke="rgb(60.392157%, 44.705882%, 67.45098%)" stroke-opacity="1" stroke-miterlimit="10" d="M 4.720645 -0.736733 C 4.760012 -0.665032 4.799378 -0.593316 4.838744 -0.521615 " transform="matrix(270, 0, 0, -270, 1920, 1080)"/>
<path fill="none" stroke-width="0.04" stroke-linecap="butt" stroke-linejoin="miter" stroke="rgb(60.392157%, 44.705882%, 67.45098%)" stroke-opacity="1" stroke-miterlimit="10" d="M 4.965278 -0.291131 C 5.004644 -0.21943 5.04401 -0.147714 5.083377 -0.0760127 " transform="matrix(270, 0, 0, -270, 1920, 1080)"/>
<path fill="none" stroke-width="0.04" stroke-linecap="butt" stroke-linejoin="miter" stroke="rgb(60.392157%, 44.705882%, 67.45098%)" stroke-opacity="1" stroke-miterlimit="10" d="M 5.209896 0.15447 C 5.249262 0.226172 5.288628 0.297888 5.327995 0.369589 " transform="matrix(270, 0, 0, -270, 1920, 1080)"/>
<path fill="none" stroke-width="0.04" stroke-linecap="butt" stroke-linejoin="miter" stroke="rgb(60.392157%, 44.705882%, 67.45098%)" stroke-opacity="1" stroke-miterlimit="10" d="M 5.454528 0.600072 C 5.493895 0.671774 5.533261 0.74349 5.572627 0.815191 " transform="matrix(270, 0, 0, -270, 1920, 1080)"/>
<path fill="none" stroke-width="0.04" stroke-linecap="butt" stroke-linejoin="miter" stroke="rgb(60.392157%, 44.705882%, 67.45098%)" stroke-opacity="1" stroke-miterlimit="10" d="M 5.699161 1.045674 C 5.738513 1.11739 5.777879 1.189091 5.817245 1.260793 " transform="matrix(270, 0, 0, -270, 1920, 1080)"/>
<path fill="none" stroke-width="0.04" stroke-linecap="butt" stroke-linejoin="miter" stroke="rgb(60.392157%, 44.705882%, 67.45098%)" stroke-opacity="1" stroke-miterlimit="10" d="M 5.943779 1.491276 C 5.983145 1.562992 6.022512 1.634693 6.061878 1.706395 " transform="matrix(270, 0, 0, -270, 1920, 1080)"/>
<path fill="none" stroke-width="0.04" stroke-linecap="butt" stroke-linejoin="miter" stroke="rgb(60.392157%, 44.705882%, 67.45098%)" stroke-opacity="1" stroke-miterlimit="10" d="M 6.188411 1.936878 C 6.227778 2.008594 6.26713 2.080295 6.306496 2.151997 " transform="matrix(270, 0, 0, -270, 1920, 1080)"/>
<path fill="none" stroke-width="0.04" stroke-linecap="butt" stroke-linejoin="miter" stroke="rgb(60.392157%, 44.705882%, 67.45098%)" stroke-opacity="1" stroke-miterlimit="10" d="M 6.954123 -3.762283 C 6.989251 -3.686097 7.024392 -3.609925 7.05952 -3.533738 " transform="matrix(270, 0, 0, -270, 1920, 1080)"/>
<path fill="none" stroke-width="0.04" stroke-linecap="butt" stroke-linejoin="miter" stroke="rgb(60.392157%, 44.705882%, 67.45098%)" stroke-opacity="1" stroke-miterlimit="10" d="M 7.172439 -3.288874 C 7.207581 -3.212688 7.242708 -3.136502 7.277836 -3.06033 " transform="matrix(270, 0, 0, -270, 1920, 1080)"/>
<path fill="none" stroke-width="0.04" stroke-linecap="butt" stroke-linejoin="miter" stroke="rgb(60.392157%, 44.705882%, 67.45098%)" stroke-opacity="1" stroke-miterlimit="10" d="M 7.39077 -2.815451 C 7.425897 -2.73928 7.461024 -2.663093 7.496166 -2.586907 " transform="matrix(270, 0, 0, -270, 1920, 1080)"/>
<path fill="none" stroke-width="0.04" stroke-linecap="butt" stroke-linejoin="miter" stroke="rgb(60.392157%, 44.705882%, 67.45098%)" stroke-opacity="1" stroke-miterlimit="10" d="M 7.609086 -2.342043 C 7.644213 -2.265856 7.679355 -2.189685 7.714482 -2.113498 " transform="matrix(270, 0, 0, -270, 1920, 1080)"/>
<path fill-rule="nonzero" fill="rgb(60.392157%, 44.705882%, 67.45098%)" fill-opacity="1" d="M 420.042969 2095.816406 C 420.042969 2088.65625 417.195312 2081.789062 412.132812 2076.726562 C 407.070312 2071.660156 400.203125 2068.816406 393.042969 2068.816406 C 385.878906 2068.816406 379.011719 2071.660156 373.949219 2076.726562 C 368.886719 2081.789062 366.042969 2088.65625 366.042969 2095.816406 C 366.042969 2102.976562 368.886719 2109.84375 373.949219 2114.910156 C 379.011719 2119.972656 385.878906 2122.816406 393.042969 2122.816406 C 400.203125 2122.816406 407.070312 2119.972656 412.132812 2114.910156 C 417.195312 2109.84375 420.042969 2102.976562 420.042969 2095.816406 Z M 420.042969 2095.816406 "/>
<path fill-rule="nonzero" fill="rgb(60.392157%, 44.705882%, 67.45098%)" fill-opacity="1" d="M 3824.613281 2095.816406 C 3824.613281 2088.65625 3821.769531 2081.789062 3816.703125 2076.726562 C 3811.640625 2071.660156 3804.773438 2068.816406 3797.613281 2068.816406 C 3790.453125 2068.816406 3783.585938 2071.660156 3778.519531 2076.726562 C 3773.457031 2081.789062 3770.613281 2088.65625 3770.613281 2095.816406 C 3770.613281 2102.976562 3773.457031 2109.84375 3778.519531 2114.910156 C 3783.585938 2119.972656 3790.453125 2122.816406 3797.613281 2122.816406 C 3804.773438 2122.816406 3811.640625 2119.972656 3816.703125 2114.910156 C 3821.769531 2109.84375 3824.613281 2102.976562 3824.613281 2095.816406 Z M 3824.613281 2095.816406 "/>
<path fill-rule="nonzero" fill="rgb(60.392157%, 44.705882%, 67.45098%)" fill-opacity="1" d="M 594.898438 498.960938 C 594.898438 491.796875 592.054688 484.929688 586.988281 479.867188 C 581.925781 474.804688 575.058594 471.960938 567.898438 471.960938 C 560.738281 471.960938 553.871094 474.804688 548.804688 479.867188 C 543.742188 484.929688 540.898438 491.796875 540.898438 498.960938 C 540.898438 506.121094 543.742188 512.988281 548.804688 518.050781 C 553.871094 523.113281 560.738281 525.960938 567.898438 525.960938 C 575.058594 525.960938 581.925781 523.113281 586.988281 518.050781 C 592.054688 512.988281 594.898438 506.121094 594.898438 498.960938 Z M 594.898438 498.960938 "/>
<path fill-rule="nonzero" fill="rgb(60.392157%, 44.705882%, 67.45098%)" fill-opacity="1" d="M 1613.183594 621.421875 C 1613.183594 614.261719 1610.339844 607.394531 1605.277344 602.328125 C 1600.210938 597.265625 1593.34375 594.421875 1586.183594 594.421875 C 1579.023438 594.421875 1572.15625 597.265625 1567.09375 602.328125 C 1562.027344 607.394531 1559.183594 614.261719 1559.183594 621.421875 C 1559.183594 628.582031 1562.027344 635.449219 1567.09375 640.511719 C 1572.15625 645.578125 1579.023438 648.421875 1586.183594 648.421875 C 1593.34375 648.421875 1600.210938 645.578125 1605.277344 640.511719 C 1610.339844 635.449219 1613.183594 628.582031 1613.183594 621.421875 Z M 1613.183594 621.421875 "/>
<path fill-rule="nonzero" fill="rgb(60.392157%, 44.705882%, 67.45098%)" fill-opacity="1" d="M 2631.46875 621.421875 C 2631.46875 614.261719 2628.625 607.394531 2623.5625 602.328125 C 2618.5 597.265625 2611.628906 594.421875 2604.46875 594.421875 C 2597.308594 594.421875 2590.441406 597.265625 2585.378906 602.328125 C 2580.3125 607.394531 2577.46875 614.261719 2577.46875 621.421875 C 2577.46875 628.582031 2580.3125 635.449219 2585.378906 640.511719 C 2590.441406 645.578125 2597.308594 648.421875 2604.46875 648.421875 C 2611.628906 648.421875 2618.5 645.578125 2623.5625 640.511719 C 2628.625 635.449219 2631.46875 628.582031 2631.46875 621.421875 Z M 2631.46875 621.421875 "/>
<path fill-rule="nonzero" fill="rgb(60.392157%, 44.705882%, 67.45098%)" fill-opacity="1" d="M 3649.753906 498.960938 C 3649.753906 491.796875 3646.910156 484.929688 3641.847656 479.867188 C 3636.785156 474.804688 3629.917969 471.960938 3622.753906 471.960938 C 3615.59375 471.960938 3608.726562 474.804688 3603.664062 479.867188 C 3598.601562 484.929688 3595.753906 491.796875 3595.753906 498.960938 C 3595.753906 506.121094 3598.601562 512.988281 3603.664062 518.050781 C 3608.726562 523.113281 3615.59375 525.960938 3622.753906 525.960938 C 3629.917969 525.960938 3636.785156 523.113281 3641.847656 518.050781 C 3646.910156 512.988281 3649.753906 506.121094 3649.753906 498.960938 Z M 3649.753906 498.960938 "/>
</svg>
