<?xml version="1.0" encoding="UTF-8"?>
<svg xmlns="http://www.w3.org/2000/svg" xmlns:xlink="http://www.w3.org/1999/xlink" width="375" height="381" viewBox="0 0 375 381">
<path fill="none" stroke-width="0.04" stroke-linecap="butt" stroke-linejoin="miter" stroke="rgb(0%, 0%, 0%)" stroke-opacity="1" stroke-miterlimit="10" d="M 0 -2.406225 C 0.833333 -1.572947 1.666667 -0.739604 2.5 0.0937389 " transform="matrix(60, 0, 0, -59.882122, 187.5, 190.5)"/>
<path fill="none" stroke-width="0.04" stroke-linecap="butt" stroke-linejoin="miter" stroke="rgb(0%, 0%, 0%)" stroke-opacity="1" stroke-miterlimit="10" d="M 2.5 0.0937389 C 1.666667 0.927082 0.833333 1.760425 0 2.593768 " transform="matrix(60, 0, 0, -59.882122, 187.5, 190.5)"/>
<path fill="none" stroke-width="0.04" stroke-linecap="butt" stroke-linejoin="miter" stroke="rgb(0%, 0%, 0%)" stroke-opacity="1" stroke-miterlimit="10" d="M 0 2.593768 C -0.833333 1.760425 -1.666667 0.927082 -2.5 0.0937389 " transform="matrix(60, 0, 0, -59.882122, 187.5, 190.5)"/>
<path fill="none" stroke-width="0.04" stroke-linecap="butt" stroke-linejoin="miter" stroke="rgb(0%, 0%, 0%)" stroke-opacity="1" stroke-miterlimit="10" d="M -2.5 0.0937389 C -1.666667 -0.739604 -0.833333 -1.572947 0 -2.406225 " transform="matrix(60, 0, 0, -59.882122, 187.5, 190.5)"/>
<path fill="none" stroke-width="0.04" stroke-linecap="butt" stroke-linejoin="miter" stroke="rgb(0%, 0%, 0%)" stroke-opacity="1" stroke-miterlimit="10" d="M 2.5 0.0937389 C 0.833333 0.0937389 -0.833333 0.0937389 -2.5 0.0937389 " transform="matrix(60, 0, 0, -59.882122, 187.5, 190.5)"/>
<path fill="none" stroke-width="0.04" stroke-linecap="butt" stroke-linejoin="miter" stroke="rgb(0%, 0%, 0%)" stroke-opacity="1" stroke-miterlimit="10" d="M 0 -2.406225 C -0.144336 -2.65626 -0.288672 -2.906231 -0.433008 -3.156266 C -0.144336 -3.156266 0.144336 -3.156266 0.433008 -3.156266 C 0.288672 -2.906231 0.144336 -2.65626 0 -2.406225 Z M 0 -2.406225 " transform="matrix(60, 0, 0, -59.882122, 187.5, 190.5)"/>
<path fill="none" stroke-width="0.04" stroke-linecap="butt" stroke-linejoin="miter" stroke="rgb(0%, 0%, 0%)" stroke-opacity="1" stroke-miterlimit="10" d="M 0.649544 -3.156266 C 0.216536 -3.156266 -0.216536 -3.156266 -0.649544 -3.156266 " transform="matrix(60, 0, 0, -59.882122, 187.5, 190.5)"/>
<path fill="none" stroke-width="0.04" stroke-linecap="butt" stroke-linejoin="miter" stroke="rgb(0%, 0%, 0%)" stroke-opacity="1" stroke-miterlimit="10" d="M 0 2.593768 C 0 2.693182 -0.0395182 2.788617 -0.109831 2.858937 C -0.180143 2.929258 -0.275521 2.968723 -0.375 2.968723 C -0.474479 2.968723 -0.569857 2.929258 -0.640169 2.858937 C -0.710482 2.788617 -0.75 2.693182 -0.75 2.593768 C -0.75 2.494288 -0.710482 2.398919 -0.640169 2.328598 C -0.569857 2.258278 -0.474479 2.218747 -0.375 2.218747 C -0.275521 2.218747 -0.180143 2.258278 -0.109831 2.328598 C -0.0395182 2.398919 0 2.494288 0 2.593768 Z M 0 2.593768 " transform="matrix(60, 0, 0, -59.882122, 187.5, 190.5)"/>
<path fill="none" stroke-width="0.04" stroke-linecap="butt" stroke-linejoin="miter" stroke="rgb(0%, 0%, 0%)" stroke-opacity="1" stroke-miterlimit="10" d="M -0.75 2.031269 C -0.75 2.406225 -0.75 2.781245 -0.75 3.156266 " transform="matrix(60, 0, 0, -59.882122, 187.5, 190.5)"/>
<path fill-rule="nonzero" fill="rgb(0%, 0%, 0%)" fill-opacity="1" d="M 193.5 334.589844 C 193.5 333.003906 192.867188 331.480469 191.742188 330.355469 C 190.617188 329.234375 189.089844 328.601562 187.5 328.601562 C 185.910156 328.601562 184.382812 329.234375 183.257812 330.355469 C 182.132812 331.480469 181.5 333.003906 181.5 334.589844 C 181.5 336.179688 182.132812 337.703125 183.257812 338.824219 C 184.382812 339.949219 185.910156 340.578125 187.5 340.578125 C 189.089844 340.578125 190.617188 339.949219 191.742188 338.824219 C 192.867188 337.703125 193.5 336.179688 193.5 334.589844 Z M 193.5 334.589844 "/>
<path fill-rule="nonzero" fill="rgb(0%, 0%, 0%)" fill-opacity="1" d="M 343.5 184.886719 C 343.5 183.296875 342.867188 181.773438 341.742188 180.652344 C 340.617188 179.527344 339.089844 178.898438 337.5 178.898438 C 335.910156 178.898438 334.382812 179.527344 333.257812 180.652344 C 332.132812 181.773438 331.5 183.296875 331.5 184.886719 C 331.5 186.472656 332.132812 187.996094 333.257812 189.121094 C 334.382812 190.242188 335.910156 190.875 337.5 190.875 C 339.089844 190.875 340.617188 190.242188 341.742188 189.121094 C 342.867188 187.996094 343.5 186.472656 343.5 184.886719 Z M 343.5 184.886719 "/>
<path fill-rule="nonzero" fill="rgb(0%, 0%, 0%)" fill-opacity="1" d="M 193.5 35.179688 C 193.5 33.59375 192.867188 32.070312 191.742188 30.945312 C 190.617188 29.824219 189.089844 29.191406 187.5 29.191406 C 185.910156 29.191406 184.382812 29.824219 183.257812 30.945312 C 182.132812 32.070312 181.5 33.59375 181.5 35.179688 C 181.5 36.769531 182.132812 38.292969 183.257812 39.414062 C 184.382812 40.539062 185.910156 41.167969 187.5 41.167969 C 189.089844 41.167969 190.617188 40.539062 191.742188 39.414062 C 192.867188 38.292969 193.5 36.769531 193.5 35.179688 Z M 193.5 35.179688 "/>
<path fill-rule="nonzero" fill="rgb(0%, 0%, 0%)" fill-opacity="1" d="M 43.5 184.886719 C 43.5 183.296875 42.867188 181.773438 41.742188 180.652344 C 40.617188 179.527344 39.089844 178.898438 37.5 178.898438 C 35.910156 178.898438 34.382812 179.527344 33.257812 180.652344 C 32.132812 181.773438 31.5 183.296875 31.5 184.886719 C 31.5 186.472656 32.132812 187.996094 33.257812 189.121094 C 34.382812 190.242188 35.910156 190.875 37.5 190.875 C 39.089844 190.875 40.617188 190.242188 41.742188 189.121094 C 42.867188 187.996094 43.5 186.472656 43.5 184.886719 Z M 43.5 184.886719 "/>
<path fill="none" stroke-width="0.04" stroke-linecap="butt" stroke-linejoin="miter" stroke="rgb(98.823529%, 38.431373%, 33.333333%)" stroke-opacity="1" stroke-miterlimit="10" d="M 0 2.593768 C 0 2.260431 0 1.927093 0 1.593756 " transform="matrix(60, 0, 0, -59.882122, 187.5, 190.5)"/>
<path fill-rule="nonzero" fill="rgb(98.823529%, 38.431373%, 33.333333%)" fill-opacity="1" d="M 187.5 125.003906 C 191.5 115.023438 195.5 105.042969 199.5 95.0625 C 191.5 95.0625 183.5 95.0625 175.5 95.0625 C 179.5 105.042969 183.5 115.023438 187.5 125.003906 Z M 187.5 125.003906 "/>
<path fill="none" stroke-width="0.03" stroke-linecap="butt" stroke-linejoin="miter" stroke="rgb(60.392157%, 44.705882%, 67.45098%)" stroke-opacity="1" stroke-miterlimit="10" d="M 0 -2.406225 C 0.0555339 -2.361802 0.111133 -2.317378 0.166667 -2.27289 " transform="matrix(60, 0, 0, -59.882122, 187.5, 190.5)"/>
<path fill="none" stroke-width="0.03" stroke-linecap="butt" stroke-linejoin="miter" stroke="rgb(60.392157%, 44.705882%, 67.45098%)" stroke-opacity="1" stroke-miterlimit="10" d="M 0.354167 -2.122921 C 0.409701 -2.078498 0.465299 -2.034009 0.520833 -1.989586 " transform="matrix(60, 0, 0, -59.882122, 187.5, 190.5)"/>
<path fill="none" stroke-width="0.03" stroke-linecap="butt" stroke-linejoin="miter" stroke="rgb(60.392157%, 44.705882%, 67.45098%)" stroke-opacity="1" stroke-miterlimit="10" d="M 0.708333 -1.839552 C 0.763867 -1.795128 0.819466 -1.750705 0.875 -1.706282 " transform="matrix(60, 0, 0, -59.882122, 187.5, 190.5)"/>
<path fill="none" stroke-width="0.03" stroke-linecap="butt" stroke-linejoin="miter" stroke="rgb(60.392157%, 44.705882%, 67.45098%)" stroke-opacity="1" stroke-miterlimit="10" d="M 1.0625 -1.556248 C 1.118034 -1.511824 1.173633 -1.467336 1.229167 -1.422913 " transform="matrix(60, 0, 0, -59.882122, 187.5, 190.5)"/>
<path fill="none" stroke-width="0.03" stroke-linecap="butt" stroke-linejoin="miter" stroke="rgb(60.392157%, 44.705882%, 67.45098%)" stroke-opacity="1" stroke-miterlimit="10" d="M 1.416667 -1.272944 C 1.472201 -1.228455 1.527799 -1.184032 1.583333 -1.139609 " transform="matrix(60, 0, 0, -59.882122, 187.5, 190.5)"/>
<path fill="none" stroke-width="0.03" stroke-linecap="butt" stroke-linejoin="miter" stroke="rgb(60.392157%, 44.705882%, 67.45098%)" stroke-opacity="1" stroke-miterlimit="10" d="M 1.770833 -0.989574 C 1.826367 -0.945151 1.881966 -0.900663 1.9375 -0.856239 " transform="matrix(60, 0, 0, -59.882122, 187.5, 190.5)"/>
<path fill="none" stroke-width="0.03" stroke-linecap="butt" stroke-linejoin="miter" stroke="rgb(60.392157%, 44.705882%, 67.45098%)" stroke-opacity="1" stroke-miterlimit="10" d="M 2.125 -0.70627 C 2.180534 -0.661782 2.236133 -0.617359 2.291667 -0.572936 " transform="matrix(60, 0, 0, -59.882122, 187.5, 190.5)"/>
<path fill="none" stroke-width="0.03" stroke-linecap="butt" stroke-linejoin="miter" stroke="rgb(60.392157%, 44.705882%, 67.45098%)" stroke-opacity="1" stroke-miterlimit="10" d="M 2.479167 -0.422901 C 2.534701 -0.378478 2.590299 -0.334055 2.645833 -0.289566 " transform="matrix(60, 0, 0, -59.882122, 187.5, 190.5)"/>
<path fill="none" stroke-width="0.03" stroke-linecap="butt" stroke-linejoin="miter" stroke="rgb(60.392157%, 44.705882%, 67.45098%)" stroke-opacity="1" stroke-miterlimit="10" d="M 2.833333 -0.139597 C 2.888867 -0.0951087 2.944466 -0.0506855 3 -0.0062623 " transform="matrix(60, 0, 0, -59.882122, 187.5, 190.5)"/>
<path fill="none" stroke-width="0.03" stroke-linecap="butt" stroke-linejoin="miter" stroke="rgb(60.392157%, 44.705882%, 67.45098%)" stroke-opacity="1" stroke-miterlimit="10" d="M 3 -0.0062623 C 2.944466 0.0382261 2.888867 0.0826494 2.833333 0.127073 " transform="matrix(60, 0, 0, -59.882122, 187.5, 190.5)"/>
<path fill="none" stroke-width="0.03" stroke-linecap="butt" stroke-linejoin="miter" stroke="rgb(60.392157%, 44.705882%, 67.45098%)" stroke-opacity="1" stroke-miterlimit="10" d="M 2.645833 0.277107 C 2.590299 0.32153 2.534701 0.365953 2.479167 0.410442 " transform="matrix(60, 0, 0, -59.882122, 187.5, 190.5)"/>
<path fill="none" stroke-width="0.03" stroke-linecap="butt" stroke-linejoin="miter" stroke="rgb(60.392157%, 44.705882%, 67.45098%)" stroke-opacity="1" stroke-miterlimit="10" d="M 2.291667 0.560411 C 2.236133 0.604834 2.180534 0.649323 2.125 0.693746 " transform="matrix(60, 0, 0, -59.882122, 187.5, 190.5)"/>
<path fill="none" stroke-width="0.03" stroke-linecap="butt" stroke-linejoin="miter" stroke="rgb(60.392157%, 44.705882%, 67.45098%)" stroke-opacity="1" stroke-miterlimit="10" d="M 1.9375 0.84378 C 1.881966 0.888203 1.826367 0.932627 1.770833 0.977115 " transform="matrix(60, 0, 0, -59.882122, 187.5, 190.5)"/>
<path fill="none" stroke-width="0.03" stroke-linecap="butt" stroke-linejoin="miter" stroke="rgb(60.392157%, 44.705882%, 67.45098%)" stroke-opacity="1" stroke-miterlimit="10" d="M 1.583333 1.127084 C 1.527799 1.171507 1.472201 1.215996 1.416667 1.260419 " transform="matrix(60, 0, 0, -59.882122, 187.5, 190.5)"/>
<path fill="none" stroke-width="0.03" stroke-linecap="butt" stroke-linejoin="miter" stroke="rgb(60.392157%, 44.705882%, 67.45098%)" stroke-opacity="1" stroke-miterlimit="10" d="M 1.229167 1.410388 C 1.173633 1.454877 1.118034 1.4993 1.0625 1.543723 " transform="matrix(60, 0, 0, -59.882122, 187.5, 190.5)"/>
<path fill="none" stroke-width="0.03" stroke-linecap="butt" stroke-linejoin="miter" stroke="rgb(60.392157%, 44.705882%, 67.45098%)" stroke-opacity="1" stroke-miterlimit="10" d="M 0.875 1.693757 C 0.819466 1.738181 0.763867 1.782669 0.708333 1.827092 " transform="matrix(60, 0, 0, -59.882122, 187.5, 190.5)"/>
<path fill="none" stroke-width="0.03" stroke-linecap="butt" stroke-linejoin="miter" stroke="rgb(60.392157%, 44.705882%, 67.45098%)" stroke-opacity="1" stroke-miterlimit="10" d="M 0.520833 1.977061 C 0.465299 2.02155 0.409701 2.065973 0.354167 2.110396 " transform="matrix(60, 0, 0, -59.882122, 187.5, 190.5)"/>
<path fill="none" stroke-width="0.03" stroke-linecap="butt" stroke-linejoin="miter" stroke="rgb(60.392157%, 44.705882%, 67.45098%)" stroke-opacity="1" stroke-miterlimit="10" d="M 0.166667 2.260431 C 0.111133 2.304854 0.0555339 2.349277 0 2.393765 " transform="matrix(60, 0, 0, -59.882122, 187.5, 190.5)"/>
<path fill="none" stroke-width="0.03" stroke-linecap="butt" stroke-linejoin="miter" stroke="rgb(60.392157%, 44.705882%, 67.45098%)" stroke-opacity="1" stroke-miterlimit="10" d="M 0 2.393765 C -0.0555339 2.349277 -0.111133 2.304854 -0.166667 2.260431 " transform="matrix(60, 0, 0, -59.882122, 187.5, 190.5)"/>
<path fill="none" stroke-width="0.03" stroke-linecap="butt" stroke-linejoin="miter" stroke="rgb(60.392157%, 44.705882%, 67.45098%)" stroke-opacity="1" stroke-miterlimit="10" d="M -0.354167 2.110396 C -0.409701 2.065973 -0.465299 2.02155 -0.520833 1.977061 " transform="matrix(60, 0, 0, -59.882122, 187.5, 190.5)"/>
<path fill="none" stroke-width="0.03" stroke-linecap="butt" stroke-linejoin="miter" stroke="rgb(60.392157%, 44.705882%, 67.45098%)" stroke-opacity="1" stroke-miterlimit="10" d="M -0.708333 1.827092 C -0.763867 1.782669 -0.819466 1.738181 -0.875 1.693757 " transform="matrix(60, 0, 0, -59.882122, 187.5, 190.5)"/>
<path fill="none" stroke-width="0.03" stroke-linecap="butt" stroke-linejoin="miter" stroke="rgb(60.392157%, 44.705882%, 67.45098%)" stroke-opacity="1" stroke-miterlimit="10" d="M -1.0625 1.543723 C -1.118034 1.4993 -1.173633 1.454877 -1.229167 1.410388 " transform="matrix(60, 0, 0, -59.882122, 187.5, 190.5)"/>
<path fill="none" stroke-width="0.03" stroke-linecap="butt" stroke-linejoin="miter" stroke="rgb(60.392157%, 44.705882%, 67.45098%)" stroke-opacity="1" stroke-miterlimit="10" d="M -1.416667 1.260419 C -1.472201 1.215996 -1.527799 1.171507 -1.583333 1.127084 " transform="matrix(60, 0, 0, -59.882122, 187.5, 190.5)"/>
<path fill="none" stroke-width="0.03" stroke-linecap="butt" stroke-linejoin="miter" stroke="rgb(60.392157%, 44.705882%, 67.45098%)" stroke-opacity="1" stroke-miterlimit="10" d="M -1.770833 0.977115 C -1.826367 0.932627 -1.881966 0.888203 -1.9375 0.84378 " transform="matrix(60, 0, 0, -59.882122, 187.5, 190.5)"/>
<path fill="none" stroke-width="0.03" stroke-linecap="butt" stroke-linejoin="miter" stroke="rgb(60.392157%, 44.705882%, 67.45098%)" stroke-opacity="1" stroke-miterlimit="10" d="M -2.125 0.693746 C -2.180534 0.649323 -2.236133 0.604834 -2.291667 0.560411 " transform="matrix(60, 0, 0, -59.882122, 187.5, 190.5)"/>
<path fill="none" stroke-width="0.03" stroke-linecap="butt" stroke-linejoin="miter" stroke="rgb(60.392157%, 44.705882%, 67.45098%)" stroke-opacity="1" stroke-miterlimit="10" d="M -2.479167 0.410442 C -2.534701 0.365953 -2.590299 0.32153 -2.645833 0.277107 " transform="matrix(60, 0, 0, -59.882122, 187.5, 190.5)"/>
<path fill="none" stroke-width="0.03" stroke-linecap="butt" stroke-linejoin="miter" stroke="rgb(60.392157%, 44.705882%, 67.45098%)" stroke-opacity="1" stroke-miterlimit="10" d="M -2.833333 0.127073 C -2.888867 0.0826494 -2.944466 0.0382261 -3 -0.0062623 " transform="matrix(60, 0, 0, -59.882122, 187.5, 190.5)"/>
<path fill="none" stroke-width="0.03" stroke-linecap="butt" stroke-linejoin="miter" stroke="rgb(60.392157%, 44.705882%, 67.45098%)" stroke-opacity="1" stroke-miterlimit="10" d="M -3 -0.0062623 C -2.944466 -0.0506855 -2.888867 -0.0951087 -2.833333 -0.139597 " transform="matrix(60, 0, 0, -59.882122, 187.5, 190.5)"/>
<path fill="none" stroke-width="0.03" stroke-linecap="butt" stroke-linejoin="miter" stroke="rgb(60.392157%, 44.705882%, 67.45098%)" stroke-opacity="1" stroke-miterlimit="10" d="M -2.645833 -0.289566 C -2.590299 -0.334055 -2.534701 -0.378478 -2.479167 -0.422901 " transform="matrix(60, 0, 0, -59.882122, 187.5, 190.5)"/>
<path fill="none" stroke-width="0.03" stroke-linecap="butt" stroke-linejoin="miter" stroke="rgb(60.392157%, 44.705882%, 67.45098%)" stroke-opacity="1" stroke-miterlimit="10" d="M -2.291667 -0.572936 C -2.236133 -0.617359 -2.180534 -0.661782 -2.125 -0.70627 " transform="matrix(60, 0, 0, -59.882122, 187.5, 190.5)"/>
<path fill="none" stroke-width="0.03" stroke-linecap="butt" stroke-linejoin="miter" stroke="rgb(60.392157%, 44.705882%, 67.45098%)" stroke-opacity="1" stroke-miterlimit="10" d="M -1.9375 -0.856239 C -1.881966 -0.900663 -1.826367 -0.945151 -1.770833 -0.989574 " transform="matrix(60, 0, 0, -59.882122, 187.5, 190.5)"/>
<path fill="none" stroke-width="0.03" stroke-linecap="butt" stroke-linejoin="miter" stroke="rgb(60.392157%, 44.705882%, 67.45098%)" stroke-opacity="1" stroke-miterlimit="10" d="M -1.583333 -1.139609 C -1.527799 -1.184032 -1.472201 -1.228455 -1.416667 -1.272944 " transform="matrix(60, 0, 0, -59.882122, 187.5, 190.5)"/>
<path fill="none" stroke-width="0.03" stroke-linecap="butt" stroke-linejoin="miter" stroke="rgb(60.392157%, 44.705882%, 67.45098%)" stroke-opacity="1" stroke-miterlimit="10" d="M -1.229167 -1.422913 C -1.173633 -1.467336 -1.118034 -1.511824 -1.0625 -1.556248 " transform="matrix(60, 0, 0, -59.882122, 187.5, 190.5)"/>
<path fill="none" stroke-width="0.03" stroke-linecap="butt" stroke-linejoin="miter" stroke="rgb(60.392157%, 44.705882%, 67.45098%)" stroke-opacity="1" stroke-miterlimit="10" d="M -0.875 -1.706282 C -0.819466 -1.750705 -0.763867 -1.795128 -0.708333 -1.839552 " transform="matrix(60, 0, 0, -59.882122, 187.5, 190.5)"/>
<path fill="none" stroke-width="0.03" stroke-linecap="butt" stroke-linejoin="miter" stroke="rgb(60.392157%, 44.705882%, 67.45098%)" stroke-opacity="1" stroke-miterlimit="10" d="M -0.520833 -1.989586 C -0.465299 -2.034009 -0.409701 -2.078498 -0.354167 -2.122921 " transform="matrix(60, 0, 0, -59.882122, 187.5, 190.5)"/>
<path fill="none" stroke-width="0.03" stroke-linecap="butt" stroke-linejoin="miter" stroke="rgb(60.392157%, 44.705882%, 67.45098%)" stroke-opacity="1" stroke-miterlimit="10" d="M -0.166667 -2.27289 C -0.111133 -2.317378 -0.0555339 -2.361802 0 -2.406225 " transform="matrix(60, 0, 0, -59.882122, 187.5, 190.5)"/>
<path fill="none" stroke-width="0.03" stroke-linecap="butt" stroke-linejoin="miter" stroke="rgb(60.392157%, 44.705882%, 67.45098%)" stroke-opacity="1" stroke-miterlimit="10" d="M 3 -0.0062623 C 2.916667 -0.0062623 2.833333 -0.0062623 2.75 -0.0062623 " transform="matrix(60, 0, 0, -59.882122, 187.5, 190.5)"/>
<path fill="none" stroke-width="0.03" stroke-linecap="butt" stroke-linejoin="miter" stroke="rgb(60.392157%, 44.705882%, 67.45098%)" stroke-opacity="1" stroke-miterlimit="10" d="M 2.477279 -0.0062623 C 2.393945 -0.0062623 2.310612 -0.0062623 2.227279 -0.0062623 " transform="matrix(60, 0, 0, -59.882122, 187.5, 190.5)"/>
<path fill="none" stroke-width="0.03" stroke-linecap="butt" stroke-linejoin="miter" stroke="rgb(60.392157%, 44.705882%, 67.45098%)" stroke-opacity="1" stroke-miterlimit="10" d="M 1.954557 -0.0062623 C 1.871224 -0.0062623 1.787891 -0.0062623 1.704557 -0.0062623 " transform="matrix(60, 0, 0, -59.882122, 187.5, 190.5)"/>
<path fill="none" stroke-width="0.03" stroke-linecap="butt" stroke-linejoin="miter" stroke="rgb(60.392157%, 44.705882%, 67.45098%)" stroke-opacity="1" stroke-miterlimit="10" d="M 1.431836 -0.0062623 C 1.348503 -0.0062623 1.265169 -0.0062623 1.181836 -0.0062623 " transform="matrix(60, 0, 0, -59.882122, 187.5, 190.5)"/>
<path fill="none" stroke-width="0.03" stroke-linecap="butt" stroke-linejoin="miter" stroke="rgb(60.392157%, 44.705882%, 67.45098%)" stroke-opacity="1" stroke-miterlimit="10" d="M 0.909115 -0.0062623 C 0.825781 -0.0062623 0.742448 -0.0062623 0.659115 -0.0062623 " transform="matrix(60, 0, 0, -59.882122, 187.5, 190.5)"/>
<path fill="none" stroke-width="0.03" stroke-linecap="butt" stroke-linejoin="miter" stroke="rgb(60.392157%, 44.705882%, 67.45098%)" stroke-opacity="1" stroke-miterlimit="10" d="M 0.386393 -0.0062623 C 0.30306 -0.0062623 0.219727 -0.0062623 0.136393 -0.0062623 " transform="matrix(60, 0, 0, -59.882122, 187.5, 190.5)"/>
<path fill="none" stroke-width="0.03" stroke-linecap="butt" stroke-linejoin="miter" stroke="rgb(60.392157%, 44.705882%, 67.45098%)" stroke-opacity="1" stroke-miterlimit="10" d="M -0.136393 -0.0062623 C -0.219727 -0.0062623 -0.30306 -0.0062623 -0.386393 -0.0062623 " transform="matrix(60, 0, 0, -59.882122, 187.5, 190.5)"/>
<path fill="none" stroke-width="0.03" stroke-linecap="butt" stroke-linejoin="miter" stroke="rgb(60.392157%, 44.705882%, 67.45098%)" stroke-opacity="1" stroke-miterlimit="10" d="M -0.659115 -0.0062623 C -0.742448 -0.0062623 -0.825781 -0.0062623 -0.909115 -0.0062623 " transform="matrix(60, 0, 0, -59.882122, 187.5, 190.5)"/>
<path fill="none" stroke-width="0.03" stroke-linecap="butt" stroke-linejoin="miter" stroke="rgb(60.392157%, 44.705882%, 67.45098%)" stroke-opacity="1" stroke-miterlimit="10" d="M -1.181836 -0.0062623 C -1.265169 -0.0062623 -1.348503 -0.0062623 -1.431836 -0.0062623 " transform="matrix(60, 0, 0, -59.882122, 187.5, 190.5)"/>
<path fill="none" stroke-width="0.03" stroke-linecap="butt" stroke-linejoin="miter" stroke="rgb(60.392157%, 44.705882%, 67.45098%)" stroke-opacity="1" stroke-miterlimit="10" d="M -1.704557 -0.0062623 C -1.787891 -0.0062623 -1.871224 -0.0062623 -1.954557 -0.0062623 " transform="matrix(60, 0, 0, -59.882122, 187.5, 190.5)"/>
<path fill="none" stroke-width="0.03" stroke-linecap="butt" stroke-linejoin="miter" stroke="rgb(60.392157%, 44.705882%, 67.45098%)" stroke-opacity="1" stroke-miterlimit="10" d="M -2.227279 -0.0062623 C -2.310612 -0.0062623 -2.393945 -0.0062623 -2.477279 -0.0062623 " transform="matrix(60, 0, 0, -59.882122, 187.5, 190.5)"/>
<path fill="none" stroke-width="0.03" stroke-linecap="butt" stroke-linejoin="miter" stroke="rgb(60.392157%, 44.705882%, 67.45098%)" stroke-opacity="1" stroke-miterlimit="10" d="M -2.75 -0.0062623 C -2.833333 -0.0062623 -2.916667 -0.0062623 -3 -0.0062623 " transform="matrix(60, 0, 0, -59.882122, 187.5, 190.5)"/>
<path fill-rule="nonzero" fill="rgb(60.392157%, 44.705882%, 67.45098%)" fill-opacity="1" d="M 193.5 334.589844 C 193.5 333.003906 192.867188 331.480469 191.742188 330.355469 C 190.617188 329.234375 189.089844 328.601562 187.5 328.601562 C 185.910156 328.601562 184.382812 329.234375 183.257812 330.355469 C 182.132812 331.480469 181.5 333.003906 181.5 334.589844 C 181.5 336.179688 182.132812 337.703125 183.257812 338.824219 C 184.382812 339.949219 185.910156 340.578125 187.5 340.578125 C 189.089844 340.578125 190.617188 339.949219 191.742188 338.824219 C 192.867188 337.703125 193.5 336.179688 193.5 334.589844 Z M 193.5 334.589844 "/>
<path fill-rule="nonzero" fill="rgb(60.392157%, 44.705882%, 67.45098%)" fill-opacity="1" d="M 373.5 190.875 C 373.5 189.285156 372.867188 187.761719 371.742188 186.640625 C 370.617188 185.515625 369.089844 184.886719 367.5 184.886719 C 365.910156 184.886719 364.382812 185.515625 363.257812 186.640625 C 362.132812 187.761719 361.5 189.285156 361.5 190.875 C 361.5 192.460938 362.132812 193.984375 363.257812 195.109375 C 364.382812 196.230469 365.910156 196.863281 367.5 196.863281 C 369.089844 196.863281 370.617188 196.230469 371.742188 195.109375 C 372.867188 193.984375 373.5 192.460938 373.5 190.875 Z M 373.5 190.875 "/>
<path fill-rule="nonzero" fill="rgb(60.392157%, 44.705882%, 67.45098%)" fill-opacity="1" d="M 193.5 47.15625 C 193.5 45.570312 192.867188 44.046875 191.742188 42.921875 C 190.617188 41.800781 189.089844 41.167969 187.5 41.167969 C 185.910156 41.167969 184.382812 41.800781 183.257812 42.921875 C 182.132812 44.046875 181.5 45.570312 181.5 47.15625 C 181.5 48.746094 182.132812 50.269531 183.257812 51.390625 C 184.382812 52.515625 185.910156 53.144531 187.5 53.144531 C 189.089844 53.144531 190.617188 52.515625 191.742188 51.390625 C 192.867188 50.269531 193.5 48.746094 193.5 47.15625 Z M 193.5 47.15625 "/>
<path fill-rule="nonzero" fill="rgb(60.392157%, 44.705882%, 67.45098%)" fill-opacity="1" d="M 13.5 190.875 C 13.5 189.285156 12.867188 187.761719 11.742188 186.640625 C 10.617188 185.515625 9.089844 184.886719 7.5 184.886719 C 5.910156 184.886719 4.382812 185.515625 3.257812 186.640625 C 2.132812 187.761719 1.5 189.285156 1.5 190.875 C 1.5 192.460938 2.132812 193.984375 3.257812 195.109375 C 4.382812 196.230469 5.910156 196.863281 7.5 196.863281 C 9.089844 196.863281 10.617188 196.230469 11.742188 195.109375 C 12.867188 193.984375 13.5 192.460938 13.5 190.875 Z M 13.5 190.875 "/>
</svg>
