<?xml version="1.0" encoding="UTF-8"?>
<svg xmlns="http://www.w3.org/2000/svg" xmlns:xlink="http://www.w3.org/1999/xlink" width="677" height="469" viewBox="0 0 677 469">
<path fill="none" stroke-width="0.04" stroke-linecap="butt" stroke-linejoin="miter" stroke="rgb(0%, 0%, 0%)" stroke-opacity="1" stroke-miterlimit="10" d="M -5.185848 -1.648823 C -3.519127 -1.648823 -1.85247 -1.648823 -0.185814 -1.648823 " transform="matrix(59.976927, 0, 0, -59.88409, 338.5, 234.5)"/>
<path fill="none" stroke-width="0.04" stroke-linecap="butt" stroke-linejoin="miter" stroke="rgb(0%, 0%, 0%)" stroke-opacity="1" stroke-miterlimit="10" d="M -0.185814 -1.648823 C 1.480843 -1.648823 3.147499 -1.648823 4.814156 -1.648823 " transform="matrix(59.976927, 0, 0, -59.88409, 338.5, 234.5)"/>
<path fill="none" stroke-width="0.04" stroke-linecap="butt" stroke-linejoin="miter" stroke="rgb(0%, 0%, 0%)" stroke-opacity="1" stroke-miterlimit="10" d="M 4.814156 -1.648823 C 3.147499 0.0178078 1.480843 1.684504 -0.185814 3.351135 " transform="matrix(59.976927, 0, 0, -59.88409, 338.5, 234.5)"/>
<path fill="none" stroke-width="0.04" stroke-linecap="butt" stroke-linejoin="miter" stroke="rgb(0%, 0%, 0%)" stroke-opacity="1" stroke-miterlimit="10" d="M -0.185814 3.351135 C -1.85247 1.684504 -3.519127 0.0178078 -5.185848 -1.648823 " transform="matrix(59.976927, 0, 0, -59.88409, 338.5, 234.5)"/>
<path fill="none" stroke-width="0.04" stroke-linecap="butt" stroke-linejoin="miter" stroke="rgb(0%, 0%, 0%)" stroke-opacity="1" stroke-miterlimit="10" d="M -0.185814 -1.648823 C -0.185814 0.0178078 -0.185814 1.684504 -0.185814 3.351135 " transform="matrix(59.976927, 0, 0, -59.88409, 338.5, 234.5)"/>
<path fill="none" stroke-width="0.04" stroke-linecap="butt" stroke-linejoin="miter" stroke="rgb(0%, 0%, 0%)" stroke-opacity="1" stroke-miterlimit="10" d="M -5.185848 -1.648823 C -5.282044 -1.815486 -5.378305 -1.982149 -5.474501 -2.148878 C -5.282044 -2.148878 -5.089587 -2.148878 -4.897131 -2.148878 C -4.993392 -1.982149 -5.089587 -1.815486 -5.185848 -1.648823 Z M -5.185848 -1.648823 " transform="matrix(59.976927, 0, 0, -59.88409, 338.5, 234.5)"/>
<path fill="none" stroke-width="0.04" stroke-linecap="butt" stroke-linejoin="miter" stroke="rgb(0%, 0%, 0%)" stroke-opacity="1" stroke-miterlimit="10" d="M -4.752804 -2.148878 C -5.041457 -2.148878 -5.330175 -2.148878 -5.618827 -2.148878 " transform="matrix(59.976927, 0, 0, -59.88409, 338.5, 234.5)"/>
<path fill="none" stroke-width="0.04" stroke-linecap="butt" stroke-linejoin="miter" stroke="rgb(0%, 0%, 0%)" stroke-opacity="1" stroke-miterlimit="10" d="M 5.064187 -1.898851 C 5.064187 -1.832511 5.03781 -1.768977 4.990982 -1.722077 C 4.944089 -1.675176 4.880458 -1.648823 4.814156 -1.648823 C 4.747854 -1.648823 4.684288 -1.675176 4.637395 -1.722077 C 4.590502 -1.768977 4.56419 -1.832511 4.56419 -1.898851 C 4.56419 -1.965124 4.590502 -2.028724 4.637395 -2.075624 C 4.684288 -2.122525 4.747854 -2.148878 4.814156 -2.148878 C 4.880458 -2.148878 4.944089 -2.122525 4.990982 -2.075624 C 5.03781 -2.028724 5.064187 -1.965124 5.064187 -1.898851 Z M 5.064187 -1.898851 " transform="matrix(59.976927, 0, 0, -59.88409, 338.5, 234.5)"/>
<path fill="none" stroke-width="0.04" stroke-linecap="butt" stroke-linejoin="miter" stroke="rgb(0%, 0%, 0%)" stroke-opacity="1" stroke-miterlimit="10" d="M 5.18917 -2.148878 C 4.939204 -2.148878 4.689173 -2.148878 4.439207 -2.148878 " transform="matrix(59.976927, 0, 0, -59.88409, 338.5, 234.5)"/>
<path fill-rule="nonzero" fill="rgb(0%, 0%, 0%)" fill-opacity="1" d="M 33.46875 333.238281 C 33.46875 331.652344 32.835938 330.128906 31.710938 329.003906 C 30.585938 327.882812 29.0625 327.25 27.46875 327.25 C 25.878906 327.25 24.355469 327.882812 23.230469 329.003906 C 22.105469 330.128906 21.472656 331.652344 21.472656 333.238281 C 21.472656 334.828125 22.105469 336.351562 23.230469 337.472656 C 24.355469 338.597656 25.878906 339.226562 27.46875 339.226562 C 29.0625 339.226562 30.585938 338.597656 31.710938 337.472656 C 32.835938 336.351562 33.46875 334.828125 33.46875 333.238281 Z M 33.46875 333.238281 "/>
<path fill-rule="nonzero" fill="rgb(0%, 0%, 0%)" fill-opacity="1" d="M 333.351562 333.238281 C 333.351562 331.652344 332.71875 330.128906 331.597656 329.003906 C 330.472656 327.882812 328.945312 327.25 327.355469 327.25 C 325.765625 327.25 324.238281 327.882812 323.113281 329.003906 C 321.988281 330.128906 321.355469 331.652344 321.355469 333.238281 C 321.355469 334.828125 321.988281 336.351562 323.113281 337.472656 C 324.238281 338.597656 325.765625 339.226562 327.355469 339.226562 C 328.945312 339.226562 330.472656 338.597656 331.597656 337.472656 C 332.71875 336.351562 333.351562 334.828125 333.351562 333.238281 Z M 333.351562 333.238281 "/>
<path fill-rule="nonzero" fill="rgb(0%, 0%, 0%)" fill-opacity="1" d="M 633.238281 333.238281 C 633.238281 331.652344 632.605469 330.128906 631.480469 329.003906 C 630.355469 327.882812 628.832031 327.25 627.238281 327.25 C 625.648438 327.25 624.125 327.882812 623 329.003906 C 621.875 330.128906 621.242188 331.652344 621.242188 333.238281 C 621.242188 334.828125 621.875 336.351562 623 337.472656 C 624.125 338.597656 625.648438 339.226562 627.238281 339.226562 C 628.832031 339.226562 630.355469 338.597656 631.480469 337.472656 C 632.605469 336.351562 633.238281 334.828125 633.238281 333.238281 Z M 633.238281 333.238281 "/>
<path fill-rule="nonzero" fill="rgb(0%, 0%, 0%)" fill-opacity="1" d="M 333.351562 33.820312 C 333.351562 32.230469 332.71875 30.707031 331.597656 29.585938 C 330.472656 28.460938 328.945312 27.832031 327.355469 27.832031 C 325.765625 27.832031 324.238281 28.460938 323.113281 29.585938 C 321.988281 30.707031 321.355469 32.230469 321.355469 33.820312 C 321.355469 35.40625 321.988281 36.929688 323.113281 38.054688 C 324.238281 39.175781 325.765625 39.808594 327.355469 39.808594 C 328.945312 39.808594 330.472656 39.175781 331.597656 38.054688 C 332.71875 36.929688 333.351562 35.40625 333.351562 33.820312 Z M 333.351562 33.820312 "/>
<path fill="none" stroke-width="0.04" stroke-linecap="butt" stroke-linejoin="miter" stroke="rgb(98.823529%, 38.431373%, 33.333333%)" stroke-opacity="1" stroke-miterlimit="10" d="M -0.185814 -1.648823 C -0.185814 -1.998848 -0.185814 -2.348874 -0.185814 -2.698833 " transform="matrix(59.976927, 0, 0, -59.88409, 338.5, 234.5)"/>
<path fill-rule="nonzero" fill="rgb(98.823529%, 38.431373%, 33.333333%)" fill-opacity="1" d="M 327.355469 423.066406 C 330.355469 414.082031 333.351562 405.101562 336.351562 396.117188 C 330.355469 396.117188 324.355469 396.117188 318.359375 396.117188 C 321.355469 405.101562 324.355469 414.082031 327.355469 423.066406 Z M 327.355469 423.066406 "/>
<path fill-rule="nonzero" fill="rgb(0%, 0%, 0%)" fill-opacity="1" d="M 28.566406 300.917969 C 28.601562 300.953125 28.625 300.988281 28.625 301.011719 C 28.625 301.023438 28.625 301.070312 28.625 301.152344 C 28.625 306.039062 28.625 310.929688 28.625 315.820312 C 28.625 316.4375 28.800781 316.835938 29.128906 317.011719 C 29.46875 317.175781 30.089844 317.28125 31.003906 317.316406 C 31.003906 317.429688 31.003906 317.542969 31.003906 317.65625 C 28.707031 317.65625 26.410156 317.65625 24.113281 317.65625 C 24.113281 317.535156 24.113281 317.414062 24.113281 317.292969 C 25.097656 317.246094 25.742188 317.105469 26.046875 316.882812 C 26.339844 316.671875 26.492188 316.191406 26.492188 315.46875 C 26.492188 311.707031 26.492188 307.941406 26.492188 304.179688 C 26.492188 303.792969 26.445312 303.492188 26.351562 303.292969 C 26.246094 303.09375 26.035156 302.988281 25.707031 302.988281 C 25.496094 302.988281 25.226562 303.046875 24.886719 303.164062 C 24.546875 303.28125 24.230469 303.410156 23.9375 303.539062 C 23.9375 303.425781 23.9375 303.3125 23.9375 303.199219 C 25.433594 302.4375 26.929688 301.679688 28.425781 300.917969 C 28.472656 300.917969 28.519531 300.917969 28.566406 300.917969 Z M 28.566406 300.917969 "/>
<path fill-rule="nonzero" fill="rgb(0%, 0%, 0%)" fill-opacity="1" d="M 345.800781 317.410156 C 348.773438 314.320312 350.789062 312.050781 351.855469 310.613281 C 352.921875 309.164062 353.460938 307.761719 353.460938 306.378906 C 353.460938 305.175781 353.132812 304.261719 352.476562 303.632812 C 351.832031 303.011719 351.046875 302.695312 350.144531 302.695312 C 349.03125 302.695312 348.128906 303.09375 347.4375 303.910156 C 347.050781 304.355469 346.6875 305.046875 346.335938 305.96875 C 346.164062 305.933594 345.996094 305.898438 345.824219 305.863281 C 346.21875 303.992188 346.910156 302.695312 347.882812 301.96875 C 348.855469 301.246094 349.898438 300.882812 351.011719 300.882812 C 352.394531 300.882812 353.507812 301.316406 354.351562 302.167969 C 355.207031 303.035156 355.628906 304.097656 355.628906 305.351562 C 355.628906 306.683594 355.171875 307.957031 354.246094 309.199219 C 353.332031 310.4375 351.328125 312.625 348.257812 315.796875 C 350.125 315.796875 351.992188 315.796875 353.859375 315.796875 C 354.644531 315.796875 355.195312 315.703125 355.511719 315.515625 C 355.828125 315.328125 356.175781 314.871094 356.574219 314.144531 C 356.679688 314.191406 356.785156 314.238281 356.890625 314.285156 C 356.441406 315.421875 355.996094 316.554688 355.546875 317.691406 C 352.296875 317.691406 349.046875 317.691406 345.800781 317.691406 C 345.800781 317.597656 345.800781 317.503906 345.800781 317.410156 Z M 345.800781 317.410156 "/>
<path fill-rule="nonzero" fill="rgb(0%, 0%, 0%)" fill-opacity="1" d="M 623.234375 315.519531 C 623.679688 315.519531 624.265625 315.753906 625.003906 316.210938 C 625.738281 316.679688 626.359375 316.910156 626.875 316.910156 C 628.011719 316.910156 628.867188 316.527344 629.417969 315.753906 C 629.96875 314.980469 630.25 314.152344 630.25 313.25 C 630.25 312.386719 630.015625 311.613281 629.570312 310.957031 C 628.820312 309.847656 627.542969 309.285156 625.738281 309.285156 C 625.632812 309.285156 625.527344 309.296875 625.433594 309.296875 C 625.339844 309.296875 625.226562 309.308594 625.097656 309.332031 C 625.089844 309.226562 625.082031 309.121094 625.074219 309.015625 C 626.371094 308.539062 627.402344 308 628.140625 307.390625 C 628.890625 306.78125 629.265625 305.976562 629.265625 304.980469 C 629.265625 304.09375 628.972656 303.414062 628.386719 302.957031 C 627.789062 302.492188 627.121094 302.257812 626.359375 302.257812 C 625.46875 302.257812 624.6875 302.597656 623.996094 303.25 C 623.621094 303.601562 623.222656 304.164062 622.789062 304.910156 C 622.664062 304.878906 622.539062 304.847656 622.414062 304.816406 C 622.742188 303.589844 623.339844 302.597656 624.230469 301.859375 C 625.121094 301.121094 626.136719 300.746094 627.308594 300.746094 C 628.550781 300.746094 629.511719 301.085938 630.191406 301.777344 C 630.871094 302.457031 631.210938 303.238281 631.210938 304.140625 C 631.210938 304.921875 630.929688 305.648438 630.367188 306.304688 C 630.050781 306.679688 629.558594 307.097656 628.890625 307.566406 C 629.675781 307.894531 630.296875 308.28125 630.765625 308.738281 C 631.65625 309.589844 632.101562 310.667969 632.101562 311.976562 C 632.101562 313.519531 631.492188 314.875 630.273438 316.058594 C 629.054688 317.226562 627.332031 317.824219 625.085938 317.824219 C 624.089844 317.824219 623.386719 317.671875 622.976562 317.378906 C 622.578125 317.074219 622.378906 316.761719 622.378906 316.421875 C 622.378906 316.210938 622.4375 316 622.578125 315.8125 C 622.707031 315.613281 622.929688 315.519531 623.234375 315.519531 Z M 623.234375 315.519531 "/>
<path fill-rule="nonzero" fill="rgb(0%, 0%, 0%)" fill-opacity="1" d="M 328.601562 4 C 326.601562 6.820312 324.605469 9.636719 322.605469 12.457031 C 324.605469 12.457031 326.601562 12.457031 328.601562 12.457031 C 328.601562 9.636719 328.601562 6.820312 328.601562 4 Z M 329.410156 1.496094 C 329.796875 1.496094 330.183594 1.496094 330.570312 1.496094 C 330.570312 5.148438 330.570312 8.804688 330.570312 12.457031 C 331.417969 12.457031 332.265625 12.457031 333.113281 12.457031 C 333.113281 13 333.113281 13.539062 333.113281 14.082031 C 332.265625 14.082031 331.417969 14.082031 330.570312 14.082031 C 330.570312 15.464844 330.570312 16.851562 330.570312 18.234375 C 329.921875 18.234375 329.273438 18.234375 328.625 18.234375 C 328.625 16.851562 328.625 15.464844 328.625 14.082031 C 326.28125 14.082031 323.941406 14.082031 321.597656 14.082031 C 321.597656 13.539062 321.597656 13 321.597656 12.457031 C 324.203125 8.804688 326.804688 5.148438 329.410156 1.496094 Z M 329.410156 1.496094 "/>
<path fill-rule="nonzero" fill="rgb(0%, 0%, 0%)" fill-opacity="1" d="M 163.933594 315.226562 C 163.933594 312.398438 164.777344 309.917969 166.476562 307.777344 C 167.519531 306.46875 168.738281 305.414062 170.15625 304.621094 C 170.234375 304.753906 170.3125 304.890625 170.390625 305.027344 C 169.078125 306.070312 168.140625 307.074219 167.578125 308.058594 C 166.59375 309.777344 166.101562 312.058594 166.101562 314.910156 C 166.101562 317.015625 166.289062 318.761719 166.664062 320.128906 C 167.320312 322.539062 168.5625 324.339844 170.390625 325.53125 C 170.285156 325.664062 170.179688 325.796875 170.074219 325.929688 C 169.066406 325.449219 167.988281 324.515625 166.828125 323.121094 C 164.894531 320.808594 163.933594 318.175781 163.933594 315.226562 Z M 163.933594 315.226562 "/>
<path fill-rule="nonzero" fill="rgb(0%, 0%, 0%)" fill-opacity="1" d="M 179.175781 304.746094 C 179.210938 304.78125 179.234375 304.816406 179.234375 304.839844 C 179.234375 304.851562 179.234375 304.898438 179.234375 304.980469 C 179.234375 309.871094 179.234375 314.761719 179.234375 319.648438 C 179.234375 320.269531 179.410156 320.667969 179.738281 320.84375 C 180.078125 321.003906 180.699219 321.109375 181.613281 321.144531 C 181.613281 321.257812 181.613281 321.371094 181.613281 321.484375 C 179.316406 321.484375 177.019531 321.484375 174.722656 321.484375 C 174.722656 321.363281 174.722656 321.242188 174.722656 321.121094 C 175.707031 321.074219 176.351562 320.933594 176.65625 320.714844 C 176.949219 320.503906 177.101562 320.023438 177.101562 319.296875 C 177.101562 315.535156 177.101562 311.773438 177.101562 308.011719 C 177.101562 307.625 177.054688 307.320312 176.960938 307.121094 C 176.855469 306.921875 176.644531 306.816406 176.316406 306.816406 C 176.105469 306.816406 175.835938 306.875 175.496094 306.992188 C 175.15625 307.109375 174.839844 307.238281 174.546875 307.367188 C 174.546875 307.253906 174.546875 307.140625 174.546875 307.027344 C 176.042969 306.269531 177.539062 305.507812 179.035156 304.746094 C 179.082031 304.746094 179.128906 304.746094 179.175781 304.746094 Z M 179.175781 304.746094 "/>
<path fill-rule="nonzero" fill="rgb(0%, 0%, 0%)" fill-opacity="1" d="M 190.890625 315.34375 C 190.890625 316.550781 190.738281 317.695312 190.421875 318.785156 C 190.105469 319.859375 189.636719 320.878906 189.027344 321.835938 C 188.382812 322.867188 187.527344 323.8125 186.449219 324.703125 C 185.746094 325.285156 185.148438 325.695312 184.667969 325.929688 C 184.589844 325.796875 184.511719 325.664062 184.433594 325.53125 C 185.6875 324.585938 186.601562 323.613281 187.1875 322.621094 C 188.207031 320.867188 188.722656 318.550781 188.722656 315.660156 C 188.722656 313.332031 188.488281 311.425781 188.007812 309.953125 C 187.351562 307.859375 186.15625 306.222656 184.433594 305.027344 C 184.539062 304.890625 184.644531 304.753906 184.75 304.621094 C 186.039062 305.332031 187.234375 306.421875 188.347656 307.859375 C 190.046875 310.09375 190.890625 312.585938 190.890625 315.34375 Z M 190.890625 315.34375 "/>
<path fill-rule="nonzero" fill="rgb(0%, 0%, 0%)" fill-opacity="1" d="M 463.820312 315.226562 C 463.820312 312.398438 464.664062 309.917969 466.363281 307.777344 C 467.40625 306.46875 468.621094 305.414062 470.039062 304.621094 C 470.117188 304.753906 470.195312 304.890625 470.273438 305.027344 C 468.960938 306.070312 468.023438 307.074219 467.464844 308.058594 C 466.480469 309.777344 465.988281 312.058594 465.988281 314.910156 C 465.988281 317.015625 466.175781 318.761719 466.550781 320.128906 C 467.207031 322.539062 468.445312 324.339844 470.273438 325.53125 C 470.167969 325.664062 470.0625 325.796875 469.957031 325.929688 C 468.949219 325.449219 467.871094 324.515625 466.714844 323.121094 C 464.78125 320.808594 463.820312 318.175781 463.820312 315.226562 Z M 463.820312 315.226562 "/>
<path fill-rule="nonzero" fill="rgb(0%, 0%, 0%)" fill-opacity="1" d="M 472.417969 321.203125 C 475.394531 318.117188 477.410156 315.847656 478.472656 314.410156 C 479.539062 312.957031 480.078125 311.554688 480.078125 310.175781 C 480.078125 308.96875 479.75 308.058594 479.09375 307.425781 C 478.449219 306.804688 477.667969 306.492188 476.765625 306.492188 C 475.652344 306.492188 474.75 306.886719 474.058594 307.707031 C 473.671875 308.152344 473.308594 308.839844 472.957031 309.765625 C 472.785156 309.730469 472.613281 309.695312 472.441406 309.660156 C 472.839844 307.789062 473.53125 306.492188 474.503906 305.765625 C 475.476562 305.039062 476.519531 304.679688 477.632812 304.679688 C 479.011719 304.679688 480.125 305.109375 480.96875 305.964844 C 481.824219 306.828125 482.246094 307.894531 482.246094 309.144531 C 482.246094 310.480469 481.789062 311.753906 480.863281 312.992188 C 479.949219 314.234375 477.949219 316.421875 474.878906 319.589844 C 476.746094 319.589844 478.609375 319.589844 480.476562 319.589844 C 481.261719 319.589844 481.8125 319.496094 482.128906 319.308594 C 482.445312 319.121094 482.796875 318.667969 483.195312 317.941406 C 483.300781 317.988281 483.40625 318.035156 483.511719 318.082031 C 483.0625 319.214844 482.613281 320.351562 482.164062 321.484375 C 478.914062 321.484375 475.667969 321.484375 472.417969 321.484375 C 472.417969 321.390625 472.417969 321.296875 472.417969 321.203125 Z M 472.417969 321.203125 "/>
<path fill-rule="nonzero" fill="rgb(0%, 0%, 0%)" fill-opacity="1" d="M 490.773438 315.34375 C 490.773438 316.550781 490.621094 317.695312 490.304688 318.785156 C 489.988281 319.859375 489.519531 320.878906 488.910156 321.835938 C 488.265625 322.867188 487.414062 323.8125 486.335938 324.703125 C 485.632812 325.285156 485.035156 325.695312 484.554688 325.929688 C 484.476562 325.796875 484.398438 325.664062 484.320312 325.53125 C 485.574219 324.585938 486.488281 323.613281 487.074219 322.621094 C 488.09375 320.867188 488.605469 318.550781 488.605469 315.660156 C 488.605469 313.332031 488.371094 311.425781 487.894531 309.953125 C 487.238281 307.859375 486.042969 306.222656 484.320312 305.027344 C 484.425781 304.890625 484.53125 304.753906 484.636719 304.621094 C 485.925781 305.332031 487.121094 306.421875 488.230469 307.859375 C 489.929688 310.09375 490.773438 312.585938 490.773438 315.34375 Z M 490.773438 315.34375 "/>
<path fill-rule="nonzero" fill="rgb(0%, 0%, 0%)" fill-opacity="1" d="M 481.8125 165.527344 C 481.8125 162.699219 482.65625 160.21875 484.355469 158.078125 C 485.398438 156.769531 486.617188 155.714844 488.035156 154.921875 C 488.113281 155.058594 488.1875 155.195312 488.265625 155.332031 C 486.957031 156.371094 486.019531 157.378906 485.457031 158.359375 C 484.472656 160.078125 483.980469 162.359375 483.980469 165.214844 C 483.980469 167.320312 484.167969 169.0625 484.542969 170.429688 C 485.199219 172.839844 486.441406 174.640625 488.265625 175.832031 C 488.160156 175.964844 488.058594 176.097656 487.953125 176.230469 C 486.945312 175.75 485.867188 174.816406 484.707031 173.425781 C 482.773438 171.109375 481.8125 168.476562 481.8125 165.527344 Z M 481.8125 165.527344 "/>
<path fill-rule="nonzero" fill="rgb(0%, 0%, 0%)" fill-opacity="1" d="M 491.605469 169.667969 C 492.050781 169.667969 492.636719 169.902344 493.375 170.359375 C 494.113281 170.828125 494.734375 171.0625 495.25 171.0625 C 496.386719 171.0625 497.242188 170.675781 497.792969 169.902344 C 498.339844 169.132812 498.621094 168.300781 498.621094 167.402344 C 498.621094 166.535156 498.386719 165.761719 497.945312 165.109375 C 497.195312 163.996094 495.917969 163.4375 494.113281 163.4375 C 494.007812 163.4375 493.902344 163.449219 493.808594 163.449219 C 493.714844 163.449219 493.597656 163.460938 493.46875 163.480469 C 493.460938 163.378906 493.453125 163.273438 493.445312 163.167969 C 494.746094 162.6875 495.777344 162.148438 496.515625 161.539062 C 497.265625 160.933594 497.640625 160.125 497.640625 159.132812 C 497.640625 158.242188 497.347656 157.5625 496.761719 157.109375 C 496.164062 156.640625 495.496094 156.40625 494.734375 156.40625 C 493.84375 156.40625 493.058594 156.746094 492.367188 157.402344 C 491.992188 157.75 491.59375 158.3125 491.160156 159.0625 C 491.035156 159.03125 490.910156 159 490.785156 158.96875 C 491.113281 157.738281 491.710938 156.746094 492.601562 156.007812 C 493.492188 155.273438 494.511719 154.898438 495.683594 154.898438 C 496.925781 154.898438 497.886719 155.238281 498.5625 155.925781 C 499.242188 156.605469 499.582031 157.390625 499.582031 158.289062 C 499.582031 159.074219 499.300781 159.796875 498.738281 160.453125 C 498.421875 160.828125 497.933594 161.25 497.265625 161.714844 C 498.050781 162.042969 498.667969 162.429688 499.136719 162.886719 C 500.027344 163.738281 500.472656 164.816406 500.472656 166.125 C 500.472656 167.667969 499.863281 169.027344 498.644531 170.207031 C 497.429688 171.378906 495.707031 171.972656 493.457031 171.972656 C 492.460938 171.972656 491.757812 171.820312 491.347656 171.53125 C 490.949219 171.226562 490.75 170.910156 490.75 170.570312 C 490.75 170.359375 490.808594 170.148438 490.949219 169.960938 C 491.078125 169.761719 491.300781 169.667969 491.605469 169.667969 Z M 491.605469 169.667969 "/>
<path fill-rule="nonzero" fill="rgb(0%, 0%, 0%)" fill-opacity="1" d="M 508.765625 165.644531 C 508.765625 166.851562 508.613281 167.996094 508.300781 169.085938 C 507.984375 170.160156 507.515625 171.179688 506.90625 172.136719 C 506.261719 173.167969 505.40625 174.113281 504.328125 175.003906 C 503.625 175.585938 503.027344 175.996094 502.546875 176.230469 C 502.46875 176.097656 502.390625 175.964844 502.3125 175.832031 C 503.566406 174.886719 504.480469 173.914062 505.066406 172.921875 C 506.085938 171.167969 506.601562 168.851562 506.601562 165.960938 C 506.601562 163.632812 506.367188 161.726562 505.886719 160.253906 C 505.230469 158.160156 504.035156 156.523438 502.3125 155.332031 C 502.417969 155.195312 502.523438 155.058594 502.628906 154.921875 C 503.917969 155.632812 505.113281 156.722656 506.226562 158.160156 C 507.925781 160.394531 508.765625 162.886719 508.765625 165.644531 Z M 508.765625 165.644531 "/>
<path fill-rule="nonzero" fill="rgb(0%, 0%, 0%)" fill-opacity="1" d="M 145.941406 165.515625 C 145.941406 162.6875 146.785156 160.207031 148.484375 158.066406 C 149.527344 156.757812 150.746094 155.703125 152.164062 154.910156 C 152.242188 155.046875 152.320312 155.183594 152.398438 155.320312 C 151.085938 156.359375 150.148438 157.367188 149.585938 158.347656 C 148.601562 160.066406 148.109375 162.347656 148.109375 165.203125 C 148.109375 167.308594 148.296875 169.050781 148.671875 170.417969 C 149.328125 172.828125 150.570312 174.628906 152.398438 175.820312 C 152.292969 175.953125 152.1875 176.085938 152.082031 176.21875 C 151.074219 175.738281 149.996094 174.804688 148.835938 173.414062 C 146.902344 171.097656 145.941406 168.464844 145.941406 165.515625 Z M 145.941406 165.515625 "/>
<path fill-rule="nonzero" fill="rgb(0%, 0%, 0%)" fill-opacity="1" d="M 161.078125 157.539062 C 159.078125 160.359375 157.078125 163.179688 155.078125 165.996094 C 157.078125 165.996094 159.078125 165.996094 161.078125 165.996094 C 161.078125 163.179688 161.078125 160.359375 161.078125 157.539062 Z M 161.886719 155.039062 C 162.273438 155.039062 162.660156 155.039062 163.046875 155.039062 C 163.046875 158.691406 163.046875 162.34375 163.046875 165.996094 C 163.890625 165.996094 164.738281 165.996094 165.585938 165.996094 C 165.585938 166.539062 165.585938 167.082031 165.585938 167.621094 C 164.738281 167.621094 163.890625 167.621094 163.046875 167.621094 C 163.046875 169.007812 163.046875 170.390625 163.046875 171.773438 C 162.398438 171.773438 161.75 171.773438 161.101562 171.773438 C 161.101562 170.390625 161.101562 169.007812 161.101562 167.621094 C 158.757812 167.621094 156.414062 167.621094 154.070312 167.621094 C 154.070312 167.082031 154.070312 166.539062 154.070312 165.996094 C 156.675781 162.34375 159.28125 158.691406 161.886719 155.039062 Z M 161.886719 155.039062 "/>
<path fill-rule="nonzero" fill="rgb(0%, 0%, 0%)" fill-opacity="1" d="M 172.898438 165.632812 C 172.898438 166.839844 172.746094 167.984375 172.429688 169.074219 C 172.113281 170.148438 171.644531 171.167969 171.035156 172.125 C 170.390625 173.15625 169.535156 174.101562 168.457031 174.992188 C 167.753906 175.578125 167.15625 175.984375 166.675781 176.21875 C 166.597656 176.085938 166.519531 175.953125 166.441406 175.820312 C 167.695312 174.875 168.609375 173.902344 169.195312 172.910156 C 170.214844 171.15625 170.730469 168.839844 170.730469 165.949219 C 170.730469 163.621094 170.496094 161.714844 170.015625 160.242188 C 169.359375 158.148438 168.164062 156.511719 166.441406 155.320312 C 166.546875 155.183594 166.652344 155.046875 166.757812 154.910156 C 168.046875 155.621094 169.242188 156.710938 170.355469 158.148438 C 172.054688 160.382812 172.898438 162.875 172.898438 165.632812 Z M 172.898438 165.632812 "/>
<path fill-rule="nonzero" fill="rgb(0%, 0%, 0%)" fill-opacity="1" d="M 337.867188 183.625 C 337.867188 180.792969 338.710938 178.3125 340.410156 176.171875 C 341.453125 174.863281 342.671875 173.808594 344.089844 173.015625 C 344.167969 173.152344 344.246094 173.289062 344.324219 173.425781 C 343.011719 174.464844 342.074219 175.472656 341.511719 176.453125 C 340.527344 178.171875 340.035156 180.453125 340.035156 183.308594 C 340.035156 185.414062 340.222656 187.15625 340.597656 188.523438 C 341.253906 190.933594 342.496094 192.734375 344.324219 193.925781 C 344.21875 194.058594 344.113281 194.191406 344.007812 194.324219 C 343 193.84375 341.921875 192.910156 340.761719 191.519531 C 338.828125 189.203125 337.867188 186.570312 337.867188 183.625 Z M 337.867188 183.625 "/>
<path fill-rule="nonzero" fill="rgb(0%, 0%, 0%)" fill-opacity="1" d="M 347.578125 187.648438 C 348.046875 187.648438 348.65625 187.914062 349.40625 188.441406 C 350.15625 188.96875 350.742188 189.226562 351.152344 189.226562 C 352.089844 189.226562 352.898438 188.816406 353.601562 187.984375 C 354.304688 187.167969 354.644531 186.148438 354.644531 184.945312 C 354.644531 182.839844 353.53125 181.332031 351.28125 180.40625 C 350.039062 179.890625 348.878906 179.632812 347.800781 179.632812 C 347.625 179.632812 347.507812 179.621094 347.460938 179.613281 C 347.414062 179.601562 347.367188 179.566406 347.296875 179.484375 C 347.320312 179.425781 347.332031 179.367188 347.34375 179.320312 C 347.355469 179.273438 347.367188 179.238281 347.390625 179.191406 C 348.277344 177.253906 349.164062 175.316406 350.050781 173.378906 C 351.796875 173.378906 353.542969 173.378906 355.289062 173.378906 C 355.546875 173.378906 355.746094 173.332031 355.886719 173.238281 C 356.027344 173.144531 356.210938 172.980469 356.445312 172.734375 C 356.507812 172.792969 356.570312 172.851562 356.632812 172.910156 C 356.316406 173.660156 356.003906 174.414062 355.6875 175.167969 C 355.652344 175.238281 355.570312 175.285156 355.417969 175.308594 C 355.277344 175.332031 355.113281 175.332031 354.9375 175.332031 C 353.363281 175.332031 351.789062 175.332031 350.214844 175.332031 C 349.871094 176.042969 349.527344 176.757812 349.183594 177.472656 C 350.519531 177.691406 351.492188 177.902344 352.113281 178.113281 C 353.132812 178.453125 353.976562 178.957031 354.667969 179.621094 C 355.253906 180.195312 355.6875 180.851562 355.992188 181.566406 C 356.292969 182.289062 356.445312 183.050781 356.445312 183.84375 C 356.445312 185.648438 355.804688 187.144531 354.527344 188.347656 C 353.238281 189.554688 351.621094 190.148438 349.652344 190.148438 C 348.855469 190.148438 348.222656 190.066406 347.730469 189.914062 C 346.910156 189.671875 346.511719 189.214844 346.511719 188.570312 C 346.511719 188.324219 346.59375 188.101562 346.769531 187.925781 C 346.945312 187.738281 347.214844 187.648438 347.578125 187.648438 Z M 347.578125 187.648438 "/>
<path fill-rule="nonzero" fill="rgb(0%, 0%, 0%)" fill-opacity="1" d="M 364.824219 183.738281 C 364.824219 184.945312 364.671875 186.089844 364.355469 187.179688 C 364.039062 188.253906 363.570312 189.273438 362.960938 190.230469 C 362.316406 191.261719 361.460938 192.207031 360.382812 193.097656 C 359.679688 193.683594 359.082031 194.089844 358.601562 194.324219 C 358.523438 194.191406 358.445312 194.058594 358.367188 193.925781 C 359.621094 192.980469 360.535156 192.007812 361.121094 191.015625 C 362.140625 189.261719 362.65625 186.945312 362.65625 184.054688 C 362.65625 181.726562 362.421875 179.820312 361.941406 178.347656 C 361.285156 176.253906 360.089844 174.617188 358.367188 173.425781 C 358.472656 173.289062 358.578125 173.152344 358.683594 173.015625 C 359.972656 173.726562 361.167969 174.816406 362.28125 176.253906 C 363.980469 178.488281 364.824219 180.980469 364.824219 183.738281 Z M 364.824219 183.738281 "/>
<path fill-rule="nonzero" fill="rgb(98.823529%, 38.431373%, 33.333333%)" fill-opacity="1" d="M 339.167969 381.796875 C 339.167969 381.09375 339.167969 380.390625 339.167969 379.6875 C 336.953125 379.6875 334.738281 379.6875 332.523438 379.6875 C 332.523438 380.390625 332.523438 381.09375 332.523438 381.796875 C 334.738281 381.796875 336.953125 381.796875 339.167969 381.796875 Z M 339.167969 381.796875 "/>
<path fill-rule="nonzero" fill="rgb(98.823529%, 38.431373%, 33.333333%)" fill-opacity="1" d="M 349.089844 378.96875 C 349.089844 379.128906 349.089844 379.289062 349.089844 379.445312 C 349.089844 381.035156 348.890625 382.316406 348.566406 383.058594 C 348.195312 383.90625 347.257812 384.886719 345.753906 384.886719 C 345.363281 384.886719 344.578125 384.839844 343.925781 384.40625 C 344.1875 384.339844 344.992188 384.035156 344.992188 383.058594 C 344.992188 382.316406 344.492188 381.710938 343.640625 381.710938 C 342.792969 381.710938 342.269531 382.273438 342.269531 383.101562 C 342.269531 384.582031 343.378906 385.820312 345.796875 385.820312 C 348.628906 385.820312 352.050781 383.992188 352.050781 378.425781 C 352.050781 376.96875 352.050781 371.332031 346.886719 371.332031 C 343.792969 371.332031 341.636719 373.09375 341.636719 376.011719 C 341.636719 379.011719 343.792969 380.644531 346.472656 380.644531 C 347.234375 380.644531 348.261719 380.492188 349.089844 378.96875 Z M 346.667969 379.859375 C 344.601562 379.859375 344.601562 378.230469 344.601562 376.054688 C 344.601562 373.921875 344.601562 372.183594 346.929688 372.183594 C 348.214844 372.183594 348.71875 373.335938 348.804688 373.550781 C 349.066406 374.269531 349.066406 375.53125 349.066406 376.269531 C 349.066406 377.640625 348.5 379.859375 346.667969 379.859375 Z M 346.667969 379.859375 "/>
<path fill-rule="nonzero" fill="rgb(98.823529%, 38.431373%, 33.333333%)" fill-opacity="1" d="M 364.382812 380.753906 C 364.039062 380.753906 363.699219 380.753906 363.355469 380.753906 C 363.292969 381.1875 363.09375 382.578125 362.789062 382.730469 C 362.550781 382.863281 360.917969 382.863281 360.570312 382.863281 C 359.5 382.863281 358.433594 382.863281 357.367188 382.863281 C 358.390625 382.011719 359.523438 381.078125 360.503906 380.359375 C 362.988281 378.535156 364.382812 377.511719 364.382812 375.445312 C 364.382812 372.945312 362.117188 371.332031 359.042969 371.332031 C 356.40625 371.332031 354.359375 372.683594 354.359375 374.640625 C 354.359375 375.921875 355.40625 376.25 355.929688 376.25 C 356.625 376.25 357.496094 375.769531 357.496094 374.683594 C 357.496094 373.550781 356.582031 373.203125 356.253906 373.117188 C 356.886719 372.59375 357.714844 372.355469 358.5 372.355469 C 360.371094 372.355469 361.375 373.835938 361.375 375.464844 C 361.375 376.96875 360.546875 378.445312 359.023438 379.992188 C 357.5625 381.476562 356.101562 382.964844 354.644531 384.449219 C 354.359375 384.710938 354.359375 384.753906 354.359375 385.1875 C 354.359375 385.320312 354.359375 385.449219 354.359375 385.582031 C 357.476562 385.582031 360.589844 385.582031 363.707031 385.582031 C 363.929688 383.972656 364.15625 382.363281 364.382812 380.753906 Z M 364.382812 380.753906 "/>
<path fill-rule="nonzero" fill="rgb(98.823529%, 38.431373%, 33.333333%)" fill-opacity="1" d="M 369.980469 375.160156 C 369.632812 374.964844 369.019531 374.597656 369.019531 373.855469 C 369.019531 372.335938 370.980469 372.183594 371.851562 372.183594 C 373.683594 372.183594 374.773438 373.074219 374.773438 374.554688 C 374.773438 375.617188 374.207031 376.359375 373.246094 376.988281 C 372.15625 376.378906 371.070312 375.769531 369.980469 375.160156 Z M 374.207031 377.53125 C 375.730469 376.75 376.40625 375.792969 376.40625 374.53125 C 376.40625 372.3125 374.421875 371.332031 371.941406 371.332031 C 368.910156 371.332031 367.386719 373.050781 367.386719 375.140625 C 367.386719 376.097656 367.777344 377.46875 369.476562 378.425781 C 367.648438 379.230469 366.691406 380.46875 366.691406 382.078125 C 366.691406 384.710938 369.042969 385.820312 371.851562 385.820312 C 375.339844 385.820312 377.101562 383.90625 377.101562 381.511719 C 377.101562 379.164062 375.273438 378.140625 374.207031 377.53125 Z M 370.480469 379.011719 C 371.242188 379.402344 372.265625 379.992188 373.464844 380.664062 C 374.421875 381.207031 375.230469 381.664062 375.230469 382.710938 C 375.230469 384.535156 373.183594 384.886719 371.941406 384.886719 C 369.804688 384.886719 368.5625 383.777344 368.5625 382.078125 C 368.5625 380.382812 369.71875 379.445312 370.480469 379.011719 Z M 370.480469 379.011719 "/>
<path fill-rule="nonzero" fill="rgb(98.823529%, 38.431373%, 33.333333%)" fill-opacity="1" d="M 389.433594 380.753906 C 389.09375 380.753906 388.75 380.753906 388.410156 380.753906 C 388.34375 381.1875 388.148438 382.578125 387.84375 382.730469 C 387.601562 382.863281 385.96875 382.863281 385.621094 382.863281 C 384.554688 382.863281 383.484375 382.863281 382.417969 382.863281 C 383.441406 382.011719 384.574219 381.078125 385.554688 380.359375 C 388.039062 378.535156 389.433594 377.511719 389.433594 375.445312 C 389.433594 372.945312 387.167969 371.332031 384.097656 371.332031 C 381.460938 371.332031 379.414062 372.683594 379.414062 374.640625 C 379.414062 375.921875 380.457031 376.25 380.980469 376.25 C 381.679688 376.25 382.550781 375.769531 382.550781 374.683594 C 382.550781 373.550781 381.632812 373.203125 381.308594 373.117188 C 381.9375 372.59375 382.765625 372.355469 383.550781 372.355469 C 385.425781 372.355469 386.425781 373.835938 386.425781 375.464844 C 386.425781 376.96875 385.597656 378.445312 384.074219 379.992188 C 382.613281 381.476562 381.15625 382.964844 379.695312 384.449219 C 379.414062 384.710938 379.414062 384.753906 379.414062 385.1875 C 379.414062 385.320312 379.414062 385.449219 379.414062 385.582031 C 382.527344 385.582031 385.644531 385.582031 388.757812 385.582031 C 388.984375 383.972656 389.207031 382.363281 389.433594 380.753906 Z M 389.433594 380.753906 "/>
<path fill-rule="nonzero" fill="rgb(98.823529%, 38.431373%, 33.333333%)" fill-opacity="1" d="M 395.859375 383.882812 C 395.859375 382.949219 395.097656 382.1875 394.160156 382.1875 C 393.222656 382.1875 392.460938 382.949219 392.460938 383.882812 C 392.460938 384.820312 393.222656 385.582031 394.160156 385.582031 C 395.097656 385.582031 395.859375 384.820312 395.859375 383.882812 Z M 395.859375 383.882812 "/>
<path fill-rule="nonzero" fill="rgb(98.823529%, 38.431373%, 33.333333%)" fill-opacity="1" d="M 407.351562 382.1875 C 408.054688 382.1875 408.757812 382.1875 409.464844 382.1875 C 409.464844 381.847656 409.464844 381.507812 409.464844 381.164062 C 408.757812 381.164062 408.054688 381.164062 407.351562 381.164062 C 407.351562 378.113281 407.351562 375.058594 407.351562 372.007812 C 407.351562 371.421875 407.304688 371.3125 406.695312 371.3125 C 406.238281 371.3125 406.21875 371.332031 405.957031 371.660156 C 403.421875 374.828125 400.886719 377.996094 398.351562 381.164062 C 398.351562 381.507812 398.351562 381.847656 398.351562 382.1875 C 400.445312 382.1875 402.535156 382.1875 404.628906 382.1875 C 404.628906 382.976562 404.628906 383.769531 404.628906 384.558594 C 403.8125 384.558594 403 384.558594 402.1875 384.558594 C 402.1875 384.898438 402.1875 385.238281 402.1875 385.582031 C 403.015625 385.515625 404.996094 385.515625 405.933594 385.515625 C 406.804688 385.515625 408.699219 385.515625 409.464844 385.582031 C 409.464844 385.238281 409.464844 384.898438 409.464844 384.558594 C 408.757812 384.558594 408.054688 384.558594 407.351562 384.558594 C 407.351562 383.769531 407.351562 382.976562 407.351562 382.1875 Z M 404.867188 381.164062 C 403.074219 381.164062 401.28125 381.164062 399.484375 381.164062 C 401.28125 378.917969 403.074219 376.671875 404.867188 374.421875 C 404.867188 376.671875 404.867188 378.917969 404.867188 381.164062 Z M 404.867188 381.164062 "/>
<path fill-rule="nonzero" fill="rgb(98.823529%, 38.431373%, 33.333333%)" fill-opacity="1" d="M 414.84375 380.425781 C 414.84375 377.113281 414.84375 373.800781 414.84375 370.484375 C 413.558594 370.542969 412.273438 370.601562 410.988281 370.660156 C 410.988281 371 410.988281 371.339844 410.988281 371.683594 C 412.339844 371.683594 412.492188 371.683594 412.492188 372.53125 C 412.492188 376.539062 412.492188 380.550781 412.492188 384.558594 C 411.992188 384.558594 411.488281 384.558594 410.988281 384.558594 C 410.988281 384.898438 410.988281 385.238281 410.988281 385.582031 C 411.792969 385.558594 412.816406 385.515625 413.601562 385.515625 C 414.410156 385.515625 415.453125 385.558594 416.238281 385.582031 C 416.238281 385.238281 416.238281 384.898438 416.238281 384.558594 C 415.738281 384.558594 415.234375 384.558594 414.734375 384.558594 C 414.734375 383.636719 414.734375 382.71875 414.734375 381.796875 C 415.367188 381.296875 415.542969 381.164062 415.976562 380.859375 C 416.710938 381.773438 417.445312 382.6875 418.175781 383.601562 C 418.375 383.863281 418.722656 384.296875 418.722656 384.363281 C 418.722656 384.558594 418.328125 384.558594 418.046875 384.558594 C 418.046875 384.898438 418.046875 385.238281 418.046875 385.582031 C 418.699219 385.539062 420.59375 385.515625 420.703125 385.515625 C 421.488281 385.515625 422.230469 385.539062 422.96875 385.582031 C 422.96875 385.238281 422.96875 384.898438 422.96875 384.558594 C 422.847656 384.558594 422.722656 384.558594 422.597656 384.558594 C 421.664062 384.558594 421.597656 384.472656 421.3125 384.125 C 420.085938 382.59375 418.859375 381.0625 417.632812 379.535156 C 418.578125 378.800781 419.519531 378.070312 420.464844 377.335938 C 420.769531 377.097656 420.964844 376.945312 422.425781 376.945312 C 422.425781 376.605469 422.425781 376.265625 422.425781 375.921875 C 421.835938 375.988281 421.292969 375.988281 420.726562 375.988281 C 420.136719 375.988281 418.722656 375.945312 418.222656 375.921875 C 418.222656 376.265625 418.222656 376.605469 418.222656 376.945312 C 418.722656 376.945312 418.789062 377.011719 418.960938 377.183594 C 417.589844 378.265625 416.214844 379.34375 414.84375 380.425781 Z M 414.84375 380.425781 "/>
<path fill-rule="nonzero" fill="rgb(98.823529%, 38.431373%, 33.333333%)" fill-opacity="1" d="M 429.960938 370.941406 C 429.722656 370.679688 429.699219 370.660156 429.242188 370.660156 C 427.578125 370.660156 425.917969 370.660156 424.253906 370.660156 C 424.253906 371 424.253906 371.339844 424.253906 371.683594 C 425.039062 371.683594 425.824219 371.683594 426.605469 371.683594 C 426.605469 375.765625 426.605469 379.847656 426.605469 383.929688 C 426.605469 384.40625 426.585938 384.429688 425.976562 384.492188 C 425.453125 384.558594 425.410156 384.558594 424.796875 384.558594 C 424.617188 384.558594 424.433594 384.558594 424.253906 384.558594 C 424.253906 384.898438 424.253906 385.238281 424.253906 385.582031 C 425.082031 385.515625 426.324219 385.515625 427.171875 385.515625 C 428.089844 385.515625 429.222656 385.515625 430.113281 385.582031 C 430.113281 385.238281 430.113281 384.898438 430.113281 384.558594 C 429.933594 384.558594 429.75 384.558594 429.570312 384.558594 C 429.175781 384.558594 428.808594 384.535156 428.414062 384.492188 C 427.78125 384.429688 427.761719 384.40625 427.761719 383.929688 C 427.761719 380.136719 427.761719 376.34375 427.761719 372.550781 C 431.378906 376.800781 434.992188 381.050781 438.609375 385.296875 C 438.828125 385.558594 438.851562 385.582031 439.199219 385.582031 C 439.785156 385.582031 439.785156 385.386719 439.785156 384.886719 C 439.785156 380.695312 439.785156 376.503906 439.785156 372.3125 C 439.785156 371.835938 439.808594 371.8125 440.417969 371.746094 C 440.941406 371.683594 440.984375 371.683594 441.59375 371.683594 C 441.777344 371.683594 441.957031 371.683594 442.140625 371.683594 C 442.140625 371.339844 442.140625 371 442.140625 370.660156 C 441.3125 370.726562 440.070312 370.726562 439.21875 370.726562 C 438.304688 370.726562 437.171875 370.726562 436.277344 370.660156 C 436.277344 371 436.277344 371.339844 436.277344 371.683594 C 436.460938 371.683594 436.640625 371.683594 436.824219 371.683594 C 437.214844 371.683594 437.585938 371.703125 437.976562 371.746094 C 438.609375 371.8125 438.632812 371.835938 438.632812 372.3125 C 438.632812 375.25 438.632812 378.183594 438.632812 381.121094 C 435.742188 377.730469 432.851562 374.335938 429.960938 370.941406 Z M 429.960938 370.941406 "/>
<path fill="none" stroke-width="0.04" stroke-linecap="butt" stroke-linejoin="miter" stroke="rgb(60.392157%, 44.705882%, 67.45098%)" stroke-opacity="1" stroke-miterlimit="10" d="M -5.185848 -1.648823 C -5.133159 -1.670349 -5.080534 -1.69181 -5.02791 -1.713336 " transform="matrix(59.976927, 0, 0, -59.88409, 338.5, 234.5)"/>
<path fill="none" stroke-width="0.04" stroke-linecap="butt" stroke-linejoin="miter" stroke="rgb(60.392157%, 44.705882%, 67.45098%)" stroke-opacity="1" stroke-miterlimit="10" d="M -4.860137 -1.781828 C -4.807448 -1.803288 -4.754823 -1.824814 -4.702199 -1.846275 " transform="matrix(59.976927, 0, 0, -59.88409, 338.5, 234.5)"/>
<path fill="none" stroke-width="0.04" stroke-linecap="butt" stroke-linejoin="miter" stroke="rgb(60.392157%, 44.705882%, 67.45098%)" stroke-opacity="1" stroke-miterlimit="10" d="M -4.534361 -1.914767 C -4.481736 -1.936293 -4.429112 -1.957753 -4.376488 -1.979279 " transform="matrix(59.976927, 0, 0, -59.88409, 338.5, 234.5)"/>
<path fill="none" stroke-width="0.04" stroke-linecap="butt" stroke-linejoin="miter" stroke="rgb(60.392157%, 44.705882%, 67.45098%)" stroke-opacity="1" stroke-miterlimit="10" d="M -4.20865 -2.047771 C -4.156025 -2.069232 -4.103401 -2.090758 -4.050776 -2.112218 " transform="matrix(59.976927, 0, 0, -59.88409, 338.5, 234.5)"/>
<path fill="none" stroke-width="0.04" stroke-linecap="butt" stroke-linejoin="miter" stroke="rgb(60.392157%, 44.705882%, 67.45098%)" stroke-opacity="1" stroke-miterlimit="10" d="M -3.882939 -2.18071 C -3.830314 -2.202236 -3.77769 -2.223697 -3.725 -2.245223 " transform="matrix(59.976927, 0, 0, -59.88409, 338.5, 234.5)"/>
<path fill="none" stroke-width="0.04" stroke-linecap="butt" stroke-linejoin="miter" stroke="rgb(60.392157%, 44.705882%, 67.45098%)" stroke-opacity="1" stroke-miterlimit="10" d="M -3.557227 -2.313714 C -3.504603 -2.335175 -3.451979 -2.356701 -3.399289 -2.378162 " transform="matrix(59.976927, 0, 0, -59.88409, 338.5, 234.5)"/>
<path fill="none" stroke-width="0.04" stroke-linecap="butt" stroke-linejoin="miter" stroke="rgb(60.392157%, 44.705882%, 67.45098%)" stroke-opacity="1" stroke-miterlimit="10" d="M -3.231516 -2.446719 C -3.178892 -2.46818 -3.126267 -2.48964 -3.073578 -2.511166 " transform="matrix(59.976927, 0, 0, -59.88409, 338.5, 234.5)"/>
<path fill="none" stroke-width="0.04" stroke-linecap="butt" stroke-linejoin="miter" stroke="rgb(60.392157%, 44.705882%, 67.45098%)" stroke-opacity="1" stroke-miterlimit="10" d="M -2.905805 -2.579658 C -2.853181 -2.601184 -2.800491 -2.622645 -2.747867 -2.644105 " transform="matrix(59.976927, 0, 0, -59.88409, 338.5, 234.5)"/>
<path fill="none" stroke-width="0.04" stroke-linecap="butt" stroke-linejoin="miter" stroke="rgb(60.392157%, 44.705882%, 67.45098%)" stroke-opacity="1" stroke-miterlimit="10" d="M -2.580094 -2.712662 C -2.527469 -2.734123 -2.47478 -2.755649 -2.422155 -2.77711 " transform="matrix(59.976927, 0, 0, -59.88409, 338.5, 234.5)"/>
<path fill="none" stroke-width="0.04" stroke-linecap="butt" stroke-linejoin="miter" stroke="rgb(60.392157%, 44.705882%, 67.45098%)" stroke-opacity="1" stroke-miterlimit="10" d="M -2.254383 -2.845601 C -2.201693 -2.867127 -2.149069 -2.888588 -2.096444 -2.910114 " transform="matrix(59.976927, 0, 0, -59.88409, 338.5, 234.5)"/>
<path fill="none" stroke-width="0.04" stroke-linecap="butt" stroke-linejoin="miter" stroke="rgb(60.392157%, 44.705882%, 67.45098%)" stroke-opacity="1" stroke-miterlimit="10" d="M -1.928671 -2.978606 C -1.875982 -3.000066 -1.823357 -3.021592 -1.770733 -3.043053 " transform="matrix(59.976927, 0, 0, -59.88409, 338.5, 234.5)"/>
<path fill="none" stroke-width="0.04" stroke-linecap="butt" stroke-linejoin="miter" stroke="rgb(60.392157%, 44.705882%, 67.45098%)" stroke-opacity="1" stroke-miterlimit="10" d="M -1.60296 -3.111545 C -1.550271 -3.133071 -1.497646 -3.154532 -1.445022 -3.176057 " transform="matrix(59.976927, 0, 0, -59.88409, 338.5, 234.5)"/>
<path fill="none" stroke-width="0.04" stroke-linecap="butt" stroke-linejoin="miter" stroke="rgb(60.392157%, 44.705882%, 67.45098%)" stroke-opacity="1" stroke-miterlimit="10" d="M -1.277184 -3.244549 C -1.224559 -3.26601 -1.171935 -3.287536 -1.119311 -3.308997 " transform="matrix(59.976927, 0, 0, -59.88409, 338.5, 234.5)"/>
<path fill="none" stroke-width="0.04" stroke-linecap="butt" stroke-linejoin="miter" stroke="rgb(60.392157%, 44.705882%, 67.45098%)" stroke-opacity="1" stroke-miterlimit="10" d="M -0.951473 -3.377488 C -0.898848 -3.399014 -0.846224 -3.420475 -0.793599 -3.442001 " transform="matrix(59.976927, 0, 0, -59.88409, 338.5, 234.5)"/>
<path fill="none" stroke-width="0.04" stroke-linecap="butt" stroke-linejoin="miter" stroke="rgb(60.392157%, 44.705882%, 67.45098%)" stroke-opacity="1" stroke-miterlimit="10" d="M -0.625761 -3.510493 C -0.573137 -3.531953 -0.520513 -3.553479 -0.467823 -3.57494 " transform="matrix(59.976927, 0, 0, -59.88409, 338.5, 234.5)"/>
<path fill="none" stroke-width="0.04" stroke-linecap="butt" stroke-linejoin="miter" stroke="rgb(60.392157%, 44.705882%, 67.45098%)" stroke-opacity="1" stroke-miterlimit="10" d="M -0.30005 -3.643432 C -0.247426 -3.664958 -0.194801 -3.686418 -0.142112 -3.707944 " transform="matrix(59.976927, 0, 0, -59.88409, 338.5, 234.5)"/>
<path fill="none" stroke-width="0.04" stroke-linecap="butt" stroke-linejoin="miter" stroke="rgb(60.392157%, 44.705882%, 67.45098%)" stroke-opacity="1" stroke-miterlimit="10" d="M 0.0256609 -3.776436 C 0.0782853 -3.797897 0.130975 -3.819423 0.183599 -3.840883 " transform="matrix(59.976927, 0, 0, -59.88409, 338.5, 234.5)"/>
<path fill="none" stroke-width="0.04" stroke-linecap="butt" stroke-linejoin="miter" stroke="rgb(60.392157%, 44.705882%, 67.45098%)" stroke-opacity="1" stroke-miterlimit="10" d="M 0.183599 -3.840883 C 0.236354 -3.819423 0.289174 -3.797897 0.341993 -3.776436 " transform="matrix(59.976927, 0, 0, -59.88409, 338.5, 234.5)"/>
<path fill="none" stroke-width="0.04" stroke-linecap="butt" stroke-linejoin="miter" stroke="rgb(60.392157%, 44.705882%, 67.45098%)" stroke-opacity="1" stroke-miterlimit="10" d="M 0.510287 -3.707944 C 0.563042 -3.686418 0.615862 -3.664958 0.668682 -3.643432 " transform="matrix(59.976927, 0, 0, -59.88409, 338.5, 234.5)"/>
<path fill="none" stroke-width="0.04" stroke-linecap="butt" stroke-linejoin="miter" stroke="rgb(60.392157%, 44.705882%, 67.45098%)" stroke-opacity="1" stroke-miterlimit="10" d="M 0.83691 -3.57494 C 0.88973 -3.553479 0.94255 -3.531953 0.995305 -3.510493 " transform="matrix(59.976927, 0, 0, -59.88409, 338.5, 234.5)"/>
<path fill="none" stroke-width="0.04" stroke-linecap="butt" stroke-linejoin="miter" stroke="rgb(60.392157%, 44.705882%, 67.45098%)" stroke-opacity="1" stroke-miterlimit="10" d="M 1.163599 -3.442001 C 1.216418 -3.420475 1.269238 -3.399014 1.321993 -3.377488 " transform="matrix(59.976927, 0, 0, -59.88409, 338.5, 234.5)"/>
<path fill="none" stroke-width="0.04" stroke-linecap="butt" stroke-linejoin="miter" stroke="rgb(60.392157%, 44.705882%, 67.45098%)" stroke-opacity="1" stroke-miterlimit="10" d="M 1.490287 -3.308997 C 1.543106 -3.287536 1.595861 -3.26601 1.648681 -3.244549 " transform="matrix(59.976927, 0, 0, -59.88409, 338.5, 234.5)"/>
<path fill="none" stroke-width="0.04" stroke-linecap="butt" stroke-linejoin="miter" stroke="rgb(60.392157%, 44.705882%, 67.45098%)" stroke-opacity="1" stroke-miterlimit="10" d="M 1.816975 -3.176057 C 1.869795 -3.154532 1.922549 -3.133071 1.975369 -3.111545 " transform="matrix(59.976927, 0, 0, -59.88409, 338.5, 234.5)"/>
<path fill="none" stroke-width="0.04" stroke-linecap="butt" stroke-linejoin="miter" stroke="rgb(60.392157%, 44.705882%, 67.45098%)" stroke-opacity="1" stroke-miterlimit="10" d="M 2.143663 -3.043053 C 2.196483 -3.021592 2.249237 -3.000066 2.302057 -2.978606 " transform="matrix(59.976927, 0, 0, -59.88409, 338.5, 234.5)"/>
<path fill="none" stroke-width="0.04" stroke-linecap="butt" stroke-linejoin="miter" stroke="rgb(60.392157%, 44.705882%, 67.45098%)" stroke-opacity="1" stroke-miterlimit="10" d="M 2.470351 -2.910114 C 2.523106 -2.888588 2.575925 -2.867127 2.628745 -2.845601 " transform="matrix(59.976927, 0, 0, -59.88409, 338.5, 234.5)"/>
<path fill="none" stroke-width="0.04" stroke-linecap="butt" stroke-linejoin="miter" stroke="rgb(60.392157%, 44.705882%, 67.45098%)" stroke-opacity="1" stroke-miterlimit="10" d="M 2.797039 -2.77711 C 2.849794 -2.755649 2.902614 -2.734123 2.955433 -2.712662 " transform="matrix(59.976927, 0, 0, -59.88409, 338.5, 234.5)"/>
<path fill="none" stroke-width="0.04" stroke-linecap="butt" stroke-linejoin="miter" stroke="rgb(60.392157%, 44.705882%, 67.45098%)" stroke-opacity="1" stroke-miterlimit="10" d="M 3.123662 -2.644105 C 3.176482 -2.622645 3.229302 -2.601184 3.282056 -2.579658 " transform="matrix(59.976927, 0, 0, -59.88409, 338.5, 234.5)"/>
<path fill="none" stroke-width="0.04" stroke-linecap="butt" stroke-linejoin="miter" stroke="rgb(60.392157%, 44.705882%, 67.45098%)" stroke-opacity="1" stroke-miterlimit="10" d="M 3.45035 -2.511166 C 3.50317 -2.48964 3.55599 -2.46818 3.608745 -2.446719 " transform="matrix(59.976927, 0, 0, -59.88409, 338.5, 234.5)"/>
<path fill="none" stroke-width="0.04" stroke-linecap="butt" stroke-linejoin="miter" stroke="rgb(60.392157%, 44.705882%, 67.45098%)" stroke-opacity="1" stroke-miterlimit="10" d="M 3.777038 -2.378162 C 3.829858 -2.356701 3.882678 -2.335175 3.935433 -2.313714 " transform="matrix(59.976927, 0, 0, -59.88409, 338.5, 234.5)"/>
<path fill="none" stroke-width="0.04" stroke-linecap="butt" stroke-linejoin="miter" stroke="rgb(60.392157%, 44.705882%, 67.45098%)" stroke-opacity="1" stroke-miterlimit="10" d="M 4.103727 -2.245223 C 4.156546 -2.223697 4.209301 -2.202236 4.262121 -2.18071 " transform="matrix(59.976927, 0, 0, -59.88409, 338.5, 234.5)"/>
<path fill="none" stroke-width="0.04" stroke-linecap="butt" stroke-linejoin="miter" stroke="rgb(60.392157%, 44.705882%, 67.45098%)" stroke-opacity="1" stroke-miterlimit="10" d="M 4.430415 -2.112218 C 4.483234 -2.090758 4.535989 -2.069232 4.588809 -2.047771 " transform="matrix(59.976927, 0, 0, -59.88409, 338.5, 234.5)"/>
<path fill="none" stroke-width="0.04" stroke-linecap="butt" stroke-linejoin="miter" stroke="rgb(60.392157%, 44.705882%, 67.45098%)" stroke-opacity="1" stroke-miterlimit="10" d="M 4.757103 -1.979279 C 4.809857 -1.957753 4.862677 -1.936293 4.915497 -1.914767 " transform="matrix(59.976927, 0, 0, -59.88409, 338.5, 234.5)"/>
<path fill="none" stroke-width="0.04" stroke-linecap="butt" stroke-linejoin="miter" stroke="rgb(60.392157%, 44.705882%, 67.45098%)" stroke-opacity="1" stroke-miterlimit="10" d="M 5.083791 -1.846275 C 5.136546 -1.824814 5.189365 -1.803288 5.242185 -1.781828 " transform="matrix(59.976927, 0, 0, -59.88409, 338.5, 234.5)"/>
<path fill="none" stroke-width="0.04" stroke-linecap="butt" stroke-linejoin="miter" stroke="rgb(60.392157%, 44.705882%, 67.45098%)" stroke-opacity="1" stroke-miterlimit="10" d="M 5.410479 -1.713336 C 5.463234 -1.69181 5.516054 -1.670349 5.568808 -1.648823 " transform="matrix(59.976927, 0, 0, -59.88409, 338.5, 234.5)"/>
<path fill="none" stroke-width="0.04" stroke-linecap="butt" stroke-linejoin="miter" stroke="rgb(60.392157%, 44.705882%, 67.45098%)" stroke-opacity="1" stroke-miterlimit="10" d="M 5.568808 -1.648823 C 5.531424 -1.623905 5.49404 -1.598987 5.456591 -1.574069 " transform="matrix(59.976927, 0, 0, -59.88409, 338.5, 234.5)"/>
<path fill="none" stroke-width="0.04" stroke-linecap="butt" stroke-linejoin="miter" stroke="rgb(60.392157%, 44.705882%, 67.45098%)" stroke-opacity="1" stroke-miterlimit="10" d="M 5.339488 -1.495989 C 5.302104 -1.471071 5.26472 -1.446153 5.227271 -1.42117 " transform="matrix(59.976927, 0, 0, -59.88409, 338.5, 234.5)"/>
<path fill="none" stroke-width="0.04" stroke-linecap="butt" stroke-linejoin="miter" stroke="rgb(60.392157%, 44.705882%, 67.45098%)" stroke-opacity="1" stroke-miterlimit="10" d="M 5.110168 -1.343155 C 5.072784 -1.318237 5.0354 -1.293254 4.997951 -1.268336 " transform="matrix(59.976927, 0, 0, -59.88409, 338.5, 234.5)"/>
<path fill="none" stroke-width="0.04" stroke-linecap="butt" stroke-linejoin="miter" stroke="rgb(60.392157%, 44.705882%, 67.45098%)" stroke-opacity="1" stroke-miterlimit="10" d="M 4.880848 -1.190255 C 4.843464 -1.165337 4.80608 -1.140419 4.768631 -1.115501 " transform="matrix(59.976927, 0, 0, -59.88409, 338.5, 234.5)"/>
<path fill="none" stroke-width="0.04" stroke-linecap="butt" stroke-linejoin="miter" stroke="rgb(60.392157%, 44.705882%, 67.45098%)" stroke-opacity="1" stroke-miterlimit="10" d="M 4.651528 -1.037421 C 4.614144 -1.012503 4.57676 -0.987585 4.539311 -0.962602 " transform="matrix(59.976927, 0, 0, -59.88409, 338.5, 234.5)"/>
<path fill="none" stroke-width="0.04" stroke-linecap="butt" stroke-linejoin="miter" stroke="rgb(60.392157%, 44.705882%, 67.45098%)" stroke-opacity="1" stroke-miterlimit="10" d="M 4.422208 -0.884586 C 4.384824 -0.859669 4.34744 -0.834685 4.309991 -0.809767 " transform="matrix(59.976927, 0, 0, -59.88409, 338.5, 234.5)"/>
<path fill="none" stroke-width="0.04" stroke-linecap="butt" stroke-linejoin="miter" stroke="rgb(60.392157%, 44.705882%, 67.45098%)" stroke-opacity="1" stroke-miterlimit="10" d="M 4.192954 -0.731752 C 4.155504 -0.706769 4.11812 -0.681851 4.080671 -0.656933 " transform="matrix(59.976927, 0, 0, -59.88409, 338.5, 234.5)"/>
<path fill="none" stroke-width="0.04" stroke-linecap="butt" stroke-linejoin="miter" stroke="rgb(60.392157%, 44.705882%, 67.45098%)" stroke-opacity="1" stroke-miterlimit="10" d="M 3.963634 -0.578853 C 3.926184 -0.553935 3.8888 -0.529017 3.851351 -0.504099 " transform="matrix(59.976927, 0, 0, -59.88409, 338.5, 234.5)"/>
<path fill="none" stroke-width="0.04" stroke-linecap="butt" stroke-linejoin="miter" stroke="rgb(60.392157%, 44.705882%, 67.45098%)" stroke-opacity="1" stroke-miterlimit="10" d="M 3.734314 -0.426018 C 3.696864 -0.4011 3.65948 -0.376182 3.622031 -0.351199 " transform="matrix(59.976927, 0, 0, -59.88409, 338.5, 234.5)"/>
<path fill="none" stroke-width="0.04" stroke-linecap="butt" stroke-linejoin="miter" stroke="rgb(60.392157%, 44.705882%, 67.45098%)" stroke-opacity="1" stroke-miterlimit="10" d="M 3.504994 -0.273184 C 3.467544 -0.248201 3.43016 -0.223283 3.392711 -0.198365 " transform="matrix(59.976927, 0, 0, -59.88409, 338.5, 234.5)"/>
<path fill="none" stroke-width="0.04" stroke-linecap="butt" stroke-linejoin="miter" stroke="rgb(60.392157%, 44.705882%, 67.45098%)" stroke-opacity="1" stroke-miterlimit="10" d="M 3.275674 -0.120284 C 3.238224 -0.0953665 3.20084 -0.0704486 3.163456 -0.0455307 " transform="matrix(59.976927, 0, 0, -59.88409, 338.5, 234.5)"/>
<path fill="none" stroke-width="0.04" stroke-linecap="butt" stroke-linejoin="miter" stroke="rgb(60.392157%, 44.705882%, 67.45098%)" stroke-opacity="1" stroke-miterlimit="10" d="M 3.046354 0.0325499 C 3.008904 0.0574678 2.97152 0.0823857 2.934136 0.107369 " transform="matrix(59.976927, 0, 0, -59.88409, 338.5, 234.5)"/>
<path fill="none" stroke-width="0.04" stroke-linecap="butt" stroke-linejoin="miter" stroke="rgb(60.392157%, 44.705882%, 67.45098%)" stroke-opacity="1" stroke-miterlimit="10" d="M 2.817034 0.185384 C 2.779585 0.210302 2.7422 0.235285 2.704816 0.260203 " transform="matrix(59.976927, 0, 0, -59.88409, 338.5, 234.5)"/>
<path fill="none" stroke-width="0.04" stroke-linecap="butt" stroke-linejoin="miter" stroke="rgb(60.392157%, 44.705882%, 67.45098%)" stroke-opacity="1" stroke-miterlimit="10" d="M 2.587714 0.338218 C 2.550265 0.363202 2.51288 0.38812 2.475496 0.413038 " transform="matrix(59.976927, 0, 0, -59.88409, 338.5, 234.5)"/>
<path fill="none" stroke-width="0.04" stroke-linecap="butt" stroke-linejoin="miter" stroke="rgb(60.392157%, 44.705882%, 67.45098%)" stroke-opacity="1" stroke-miterlimit="10" d="M 2.358394 0.491118 C 2.320945 0.516036 2.28356 0.540954 2.246176 0.565937 " transform="matrix(59.976927, 0, 0, -59.88409, 338.5, 234.5)"/>
<path fill="none" stroke-width="0.04" stroke-linecap="butt" stroke-linejoin="miter" stroke="rgb(60.392157%, 44.705882%, 67.45098%)" stroke-opacity="1" stroke-miterlimit="10" d="M 2.129074 0.643952 C 2.091625 0.66887 2.05424 0.693853 2.016856 0.718771 " transform="matrix(59.976927, 0, 0, -59.88409, 338.5, 234.5)"/>
<path fill="none" stroke-width="0.04" stroke-linecap="butt" stroke-linejoin="miter" stroke="rgb(60.392157%, 44.705882%, 67.45098%)" stroke-opacity="1" stroke-miterlimit="10" d="M 1.899754 0.796787 C 1.862305 0.82177 1.824921 0.846688 1.787536 0.871606 " transform="matrix(59.976927, 0, 0, -59.88409, 338.5, 234.5)"/>
<path fill="none" stroke-width="0.04" stroke-linecap="butt" stroke-linejoin="miter" stroke="rgb(60.392157%, 44.705882%, 67.45098%)" stroke-opacity="1" stroke-miterlimit="10" d="M 1.670434 0.949686 C 1.632985 0.974604 1.595601 0.999522 1.558216 1.02444 " transform="matrix(59.976927, 0, 0, -59.88409, 338.5, 234.5)"/>
<path fill="none" stroke-width="0.04" stroke-linecap="butt" stroke-linejoin="miter" stroke="rgb(60.392157%, 44.705882%, 67.45098%)" stroke-opacity="1" stroke-miterlimit="10" d="M 1.441114 1.102521 C 1.403665 1.127438 1.366281 1.152356 1.328896 1.17734 " transform="matrix(59.976927, 0, 0, -59.88409, 338.5, 234.5)"/>
<path fill="none" stroke-width="0.04" stroke-linecap="butt" stroke-linejoin="miter" stroke="rgb(60.392157%, 44.705882%, 67.45098%)" stroke-opacity="1" stroke-miterlimit="10" d="M 1.211794 1.255355 C 1.174345 1.280338 1.136961 1.305256 1.099576 1.330174 " transform="matrix(59.976927, 0, 0, -59.88409, 338.5, 234.5)"/>
<path fill="none" stroke-width="0.04" stroke-linecap="butt" stroke-linejoin="miter" stroke="rgb(60.392157%, 44.705882%, 67.45098%)" stroke-opacity="1" stroke-miterlimit="10" d="M 0.982474 1.408254 C 0.945025 1.433172 0.907641 1.45809 0.870257 1.483008 " transform="matrix(59.976927, 0, 0, -59.88409, 338.5, 234.5)"/>
<path fill="none" stroke-width="0.04" stroke-linecap="butt" stroke-linejoin="miter" stroke="rgb(60.392157%, 44.705882%, 67.45098%)" stroke-opacity="1" stroke-miterlimit="10" d="M 0.753154 1.561089 C 0.715705 1.586007 0.678321 1.610925 0.640937 1.635908 " transform="matrix(59.976927, 0, 0, -59.88409, 338.5, 234.5)"/>
<path fill="none" stroke-width="0.04" stroke-linecap="butt" stroke-linejoin="miter" stroke="rgb(60.392157%, 44.705882%, 67.45098%)" stroke-opacity="1" stroke-miterlimit="10" d="M 0.523834 1.713923 C 0.486385 1.738841 0.449001 1.763824 0.411617 1.788742 " transform="matrix(59.976927, 0, 0, -59.88409, 338.5, 234.5)"/>
<path fill="none" stroke-width="0.04" stroke-linecap="butt" stroke-linejoin="miter" stroke="rgb(60.392157%, 44.705882%, 67.45098%)" stroke-opacity="1" stroke-miterlimit="10" d="M 0.294514 1.866757 C 0.257065 1.89174 0.219681 1.916658 0.182297 1.941576 " transform="matrix(59.976927, 0, 0, -59.88409, 338.5, 234.5)"/>
<path fill="none" stroke-width="0.04" stroke-linecap="butt" stroke-linejoin="miter" stroke="rgb(60.392157%, 44.705882%, 67.45098%)" stroke-opacity="1" stroke-miterlimit="10" d="M 0.182297 1.941576 C 0.144978 1.916658 0.107724 1.89174 0.0704047 1.866757 " transform="matrix(59.976927, 0, 0, -59.88409, 338.5, 234.5)"/>
<path fill="none" stroke-width="0.04" stroke-linecap="butt" stroke-linejoin="miter" stroke="rgb(60.392157%, 44.705882%, 67.45098%)" stroke-opacity="1" stroke-miterlimit="10" d="M -0.0462417 1.788742 C -0.0835608 1.763824 -0.120815 1.738841 -0.158069 1.713923 " transform="matrix(59.976927, 0, 0, -59.88409, 338.5, 234.5)"/>
<path fill="none" stroke-width="0.04" stroke-linecap="butt" stroke-linejoin="miter" stroke="rgb(60.392157%, 44.705882%, 67.45098%)" stroke-opacity="1" stroke-miterlimit="10" d="M -0.27478 1.635908 C -0.312099 1.610925 -0.349353 1.586007 -0.386607 1.561089 " transform="matrix(59.976927, 0, 0, -59.88409, 338.5, 234.5)"/>
<path fill="none" stroke-width="0.04" stroke-linecap="butt" stroke-linejoin="miter" stroke="rgb(60.392157%, 44.705882%, 67.45098%)" stroke-opacity="1" stroke-miterlimit="10" d="M -0.503319 1.483008 C -0.540638 1.45809 -0.577892 1.433172 -0.615145 1.408254 " transform="matrix(59.976927, 0, 0, -59.88409, 338.5, 234.5)"/>
<path fill="none" stroke-width="0.04" stroke-linecap="butt" stroke-linejoin="miter" stroke="rgb(60.392157%, 44.705882%, 67.45098%)" stroke-opacity="1" stroke-miterlimit="10" d="M -0.731857 1.330174 C -0.769111 1.305256 -0.80643 1.280338 -0.843684 1.255355 " transform="matrix(59.976927, 0, 0, -59.88409, 338.5, 234.5)"/>
<path fill="none" stroke-width="0.04" stroke-linecap="butt" stroke-linejoin="miter" stroke="rgb(60.392157%, 44.705882%, 67.45098%)" stroke-opacity="1" stroke-miterlimit="10" d="M -0.960395 1.17734 C -0.997649 1.152356 -1.034968 1.127438 -1.072222 1.102521 " transform="matrix(59.976927, 0, 0, -59.88409, 338.5, 234.5)"/>
<path fill="none" stroke-width="0.04" stroke-linecap="butt" stroke-linejoin="miter" stroke="rgb(60.392157%, 44.705882%, 67.45098%)" stroke-opacity="1" stroke-miterlimit="10" d="M -1.188934 1.02444 C -1.226188 0.999522 -1.263507 0.974604 -1.300761 0.949686 " transform="matrix(59.976927, 0, 0, -59.88409, 338.5, 234.5)"/>
<path fill="none" stroke-width="0.04" stroke-linecap="butt" stroke-linejoin="miter" stroke="rgb(60.392157%, 44.705882%, 67.45098%)" stroke-opacity="1" stroke-miterlimit="10" d="M -1.417472 0.871606 C -1.454726 0.846688 -1.492045 0.82177 -1.529299 0.796787 " transform="matrix(59.976927, 0, 0, -59.88409, 338.5, 234.5)"/>
<path fill="none" stroke-width="0.04" stroke-linecap="butt" stroke-linejoin="miter" stroke="rgb(60.392157%, 44.705882%, 67.45098%)" stroke-opacity="1" stroke-miterlimit="10" d="M -1.646011 0.718771 C -1.683264 0.693853 -1.720518 0.66887 -1.757837 0.643952 " transform="matrix(59.976927, 0, 0, -59.88409, 338.5, 234.5)"/>
<path fill="none" stroke-width="0.04" stroke-linecap="butt" stroke-linejoin="miter" stroke="rgb(60.392157%, 44.705882%, 67.45098%)" stroke-opacity="1" stroke-miterlimit="10" d="M -1.874549 0.565937 C -1.911803 0.540954 -1.949057 0.516036 -1.986376 0.491118 " transform="matrix(59.976927, 0, 0, -59.88409, 338.5, 234.5)"/>
<path fill="none" stroke-width="0.04" stroke-linecap="butt" stroke-linejoin="miter" stroke="rgb(60.392157%, 44.705882%, 67.45098%)" stroke-opacity="1" stroke-miterlimit="10" d="M -2.103087 0.413038 C -2.140341 0.38812 -2.177595 0.363202 -2.214914 0.338218 " transform="matrix(59.976927, 0, 0, -59.88409, 338.5, 234.5)"/>
<path fill="none" stroke-width="0.04" stroke-linecap="butt" stroke-linejoin="miter" stroke="rgb(60.392157%, 44.705882%, 67.45098%)" stroke-opacity="1" stroke-miterlimit="10" d="M -2.331561 0.260203 C -2.36888 0.235285 -2.406134 0.210302 -2.443453 0.185384 " transform="matrix(59.976927, 0, 0, -59.88409, 338.5, 234.5)"/>
<path fill="none" stroke-width="0.04" stroke-linecap="butt" stroke-linejoin="miter" stroke="rgb(60.392157%, 44.705882%, 67.45098%)" stroke-opacity="1" stroke-miterlimit="10" d="M -2.560099 0.107369 C -2.597418 0.0823857 -2.634672 0.0574678 -2.671991 0.0325499 " transform="matrix(59.976927, 0, 0, -59.88409, 338.5, 234.5)"/>
<path fill="none" stroke-width="0.04" stroke-linecap="butt" stroke-linejoin="miter" stroke="rgb(60.392157%, 44.705882%, 67.45098%)" stroke-opacity="1" stroke-miterlimit="10" d="M -2.788637 -0.0455307 C -2.825957 -0.0704486 -2.86321 -0.0953665 -2.900464 -0.120284 " transform="matrix(59.976927, 0, 0, -59.88409, 338.5, 234.5)"/>
<path fill="none" stroke-width="0.04" stroke-linecap="butt" stroke-linejoin="miter" stroke="rgb(60.392157%, 44.705882%, 67.45098%)" stroke-opacity="1" stroke-miterlimit="10" d="M -3.017176 -0.198365 C -3.054495 -0.223283 -3.091749 -0.248201 -3.129003 -0.273184 " transform="matrix(59.976927, 0, 0, -59.88409, 338.5, 234.5)"/>
<path fill="none" stroke-width="0.04" stroke-linecap="butt" stroke-linejoin="miter" stroke="rgb(60.392157%, 44.705882%, 67.45098%)" stroke-opacity="1" stroke-miterlimit="10" d="M -3.245714 -0.351199 C -3.283033 -0.376182 -3.320287 -0.4011 -3.357541 -0.426018 " transform="matrix(59.976927, 0, 0, -59.88409, 338.5, 234.5)"/>
<path fill="none" stroke-width="0.04" stroke-linecap="butt" stroke-linejoin="miter" stroke="rgb(60.392157%, 44.705882%, 67.45098%)" stroke-opacity="1" stroke-miterlimit="10" d="M -3.474253 -0.504099 C -3.511507 -0.529017 -3.548826 -0.553935 -3.58608 -0.578853 " transform="matrix(59.976927, 0, 0, -59.88409, 338.5, 234.5)"/>
<path fill="none" stroke-width="0.04" stroke-linecap="butt" stroke-linejoin="miter" stroke="rgb(60.392157%, 44.705882%, 67.45098%)" stroke-opacity="1" stroke-miterlimit="10" d="M -3.702791 -0.656933 C -3.740045 -0.681851 -3.777364 -0.706769 -3.814618 -0.731752 " transform="matrix(59.976927, 0, 0, -59.88409, 338.5, 234.5)"/>
<path fill="none" stroke-width="0.04" stroke-linecap="butt" stroke-linejoin="miter" stroke="rgb(60.392157%, 44.705882%, 67.45098%)" stroke-opacity="1" stroke-miterlimit="10" d="M -3.93133 -0.809767 C -3.968583 -0.834685 -4.005902 -0.859669 -4.043156 -0.884586 " transform="matrix(59.976927, 0, 0, -59.88409, 338.5, 234.5)"/>
<path fill="none" stroke-width="0.04" stroke-linecap="butt" stroke-linejoin="miter" stroke="rgb(60.392157%, 44.705882%, 67.45098%)" stroke-opacity="1" stroke-miterlimit="10" d="M -4.159868 -0.962602 C -4.197122 -0.987585 -4.234441 -1.012503 -4.271695 -1.037421 " transform="matrix(59.976927, 0, 0, -59.88409, 338.5, 234.5)"/>
<path fill="none" stroke-width="0.04" stroke-linecap="butt" stroke-linejoin="miter" stroke="rgb(60.392157%, 44.705882%, 67.45098%)" stroke-opacity="1" stroke-miterlimit="10" d="M -4.388406 -1.115501 C -4.42566 -1.140419 -4.462914 -1.165337 -4.500233 -1.190255 " transform="matrix(59.976927, 0, 0, -59.88409, 338.5, 234.5)"/>
<path fill="none" stroke-width="0.04" stroke-linecap="butt" stroke-linejoin="miter" stroke="rgb(60.392157%, 44.705882%, 67.45098%)" stroke-opacity="1" stroke-miterlimit="10" d="M -4.616945 -1.268336 C -4.654199 -1.293254 -4.691453 -1.318237 -4.728772 -1.343155 " transform="matrix(59.976927, 0, 0, -59.88409, 338.5, 234.5)"/>
<path fill="none" stroke-width="0.04" stroke-linecap="butt" stroke-linejoin="miter" stroke="rgb(60.392157%, 44.705882%, 67.45098%)" stroke-opacity="1" stroke-miterlimit="10" d="M -4.845483 -1.42117 C -4.882737 -1.446153 -4.919991 -1.471071 -4.95731 -1.495989 " transform="matrix(59.976927, 0, 0, -59.88409, 338.5, 234.5)"/>
<path fill="none" stroke-width="0.04" stroke-linecap="butt" stroke-linejoin="miter" stroke="rgb(60.392157%, 44.705882%, 67.45098%)" stroke-opacity="1" stroke-miterlimit="10" d="M -5.073956 -1.574069 C -5.111275 -1.598987 -5.148529 -1.623905 -5.185848 -1.648823 " transform="matrix(59.976927, 0, 0, -59.88409, 338.5, 234.5)"/>
<path fill="none" stroke-width="0.04" stroke-linecap="butt" stroke-linejoin="miter" stroke="rgb(60.392157%, 44.705882%, 67.45098%)" stroke-opacity="1" stroke-miterlimit="10" d="M 0.183599 -3.840883 C 0.183599 -3.784198 0.183534 -3.727513 0.183534 -3.670828 " transform="matrix(59.976927, 0, 0, -59.88409, 338.5, 234.5)"/>
<path fill="none" stroke-width="0.04" stroke-linecap="butt" stroke-linejoin="miter" stroke="rgb(60.392157%, 44.705882%, 67.45098%)" stroke-opacity="1" stroke-miterlimit="10" d="M 0.183534 -3.490141 C 0.183469 -3.433456 0.183469 -3.376771 0.183469 -3.32002 " transform="matrix(59.976927, 0, 0, -59.88409, 338.5, 234.5)"/>
<path fill="none" stroke-width="0.04" stroke-linecap="butt" stroke-linejoin="miter" stroke="rgb(60.392157%, 44.705882%, 67.45098%)" stroke-opacity="1" stroke-miterlimit="10" d="M 0.183404 -3.139333 C 0.183404 -3.082648 0.183404 -3.025963 0.183404 -2.969278 " transform="matrix(59.976927, 0, 0, -59.88409, 338.5, 234.5)"/>
<path fill="none" stroke-width="0.04" stroke-linecap="butt" stroke-linejoin="miter" stroke="rgb(60.392157%, 44.705882%, 67.45098%)" stroke-opacity="1" stroke-miterlimit="10" d="M 0.183339 -2.78859 C 0.183339 -2.731905 0.183339 -2.67522 0.183339 -2.61847 " transform="matrix(59.976927, 0, 0, -59.88409, 338.5, 234.5)"/>
<path fill="none" stroke-width="0.04" stroke-linecap="butt" stroke-linejoin="miter" stroke="rgb(60.392157%, 44.705882%, 67.45098%)" stroke-opacity="1" stroke-miterlimit="10" d="M 0.183274 -2.437782 C 0.183274 -2.381097 0.183208 -2.324412 0.183208 -2.267727 " transform="matrix(59.976927, 0, 0, -59.88409, 338.5, 234.5)"/>
<path fill="none" stroke-width="0.04" stroke-linecap="butt" stroke-linejoin="miter" stroke="rgb(60.392157%, 44.705882%, 67.45098%)" stroke-opacity="1" stroke-miterlimit="10" d="M 0.183208 -2.08704 C 0.183143 -2.030355 0.183143 -1.973604 0.183143 -1.916919 " transform="matrix(59.976927, 0, 0, -59.88409, 338.5, 234.5)"/>
<path fill="none" stroke-width="0.04" stroke-linecap="butt" stroke-linejoin="miter" stroke="rgb(60.392157%, 44.705882%, 67.45098%)" stroke-opacity="1" stroke-miterlimit="10" d="M 0.183078 -1.736232 C 0.183078 -1.679547 0.183078 -1.622862 0.183078 -1.566177 " transform="matrix(59.976927, 0, 0, -59.88409, 338.5, 234.5)"/>
<path fill="none" stroke-width="0.04" stroke-linecap="butt" stroke-linejoin="miter" stroke="rgb(60.392157%, 44.705882%, 67.45098%)" stroke-opacity="1" stroke-miterlimit="10" d="M 0.183013 -1.385489 C 0.183013 -1.328804 0.183013 -1.272054 0.183013 -1.215369 " transform="matrix(59.976927, 0, 0, -59.88409, 338.5, 234.5)"/>
<path fill="none" stroke-width="0.04" stroke-linecap="butt" stroke-linejoin="miter" stroke="rgb(60.392157%, 44.705882%, 67.45098%)" stroke-opacity="1" stroke-miterlimit="10" d="M 0.182948 -1.034681 C 0.182948 -0.977996 0.182948 -0.921311 0.182883 -0.864626 " transform="matrix(59.976927, 0, 0, -59.88409, 338.5, 234.5)"/>
<path fill="none" stroke-width="0.04" stroke-linecap="butt" stroke-linejoin="miter" stroke="rgb(60.392157%, 44.705882%, 67.45098%)" stroke-opacity="1" stroke-miterlimit="10" d="M 0.182883 -0.683938 C 0.182883 -0.627253 0.182818 -0.570503 0.182818 -0.513818 " transform="matrix(59.976927, 0, 0, -59.88409, 338.5, 234.5)"/>
<path fill="none" stroke-width="0.04" stroke-linecap="butt" stroke-linejoin="miter" stroke="rgb(60.392157%, 44.705882%, 67.45098%)" stroke-opacity="1" stroke-miterlimit="10" d="M 0.182818 -0.333131 C 0.182753 -0.276446 0.182753 -0.21976 0.182753 -0.163075 " transform="matrix(59.976927, 0, 0, -59.88409, 338.5, 234.5)"/>
<path fill="none" stroke-width="0.04" stroke-linecap="butt" stroke-linejoin="miter" stroke="rgb(60.392157%, 44.705882%, 67.45098%)" stroke-opacity="1" stroke-miterlimit="10" d="M 0.182687 0.0176121 C 0.182687 0.0742972 0.182687 0.131047 0.182687 0.187732 " transform="matrix(59.976927, 0, 0, -59.88409, 338.5, 234.5)"/>
<path fill="none" stroke-width="0.04" stroke-linecap="butt" stroke-linejoin="miter" stroke="rgb(60.392157%, 44.705882%, 67.45098%)" stroke-opacity="1" stroke-miterlimit="10" d="M 0.182622 0.36842 C 0.182622 0.425105 0.182622 0.48179 0.182622 0.538475 " transform="matrix(59.976927, 0, 0, -59.88409, 338.5, 234.5)"/>
<path fill="none" stroke-width="0.04" stroke-linecap="butt" stroke-linejoin="miter" stroke="rgb(60.392157%, 44.705882%, 67.45098%)" stroke-opacity="1" stroke-miterlimit="10" d="M 0.182557 0.719163 C 0.182557 0.775848 0.182492 0.832598 0.182492 0.889283 " transform="matrix(59.976927, 0, 0, -59.88409, 338.5, 234.5)"/>
<path fill="none" stroke-width="0.04" stroke-linecap="butt" stroke-linejoin="miter" stroke="rgb(60.392157%, 44.705882%, 67.45098%)" stroke-opacity="1" stroke-miterlimit="10" d="M 0.182492 1.069971 C 0.182427 1.126656 0.182427 1.183341 0.182427 1.240026 " transform="matrix(59.976927, 0, 0, -59.88409, 338.5, 234.5)"/>
<path fill="none" stroke-width="0.04" stroke-linecap="butt" stroke-linejoin="miter" stroke="rgb(60.392157%, 44.705882%, 67.45098%)" stroke-opacity="1" stroke-miterlimit="10" d="M 0.182362 1.420713 C 0.182362 1.477398 0.182362 1.534149 0.182362 1.590834 " transform="matrix(59.976927, 0, 0, -59.88409, 338.5, 234.5)"/>
<path fill="none" stroke-width="0.04" stroke-linecap="butt" stroke-linejoin="miter" stroke="rgb(60.392157%, 44.705882%, 67.45098%)" stroke-opacity="1" stroke-miterlimit="10" d="M 0.182297 1.771521 C 0.182297 1.828206 0.182297 1.884891 0.182297 1.941576 " transform="matrix(59.976927, 0, 0, -59.88409, 338.5, 234.5)"/>
<path fill-rule="nonzero" fill="rgb(60.392157%, 44.705882%, 67.45098%)" fill-opacity="1" d="M 30.46875 333.238281 C 30.46875 332.445312 30.152344 331.683594 29.589844 331.121094 C 29.027344 330.5625 28.265625 330.246094 27.46875 330.246094 C 26.675781 330.246094 25.910156 330.5625 25.351562 331.121094 C 24.789062 331.683594 24.472656 332.445312 24.472656 333.238281 C 24.472656 334.035156 24.789062 334.796875 25.351562 335.355469 C 25.910156 335.917969 26.675781 336.234375 27.46875 336.234375 C 28.265625 336.234375 29.027344 335.917969 29.589844 335.355469 C 30.152344 334.796875 30.46875 334.035156 30.46875 333.238281 Z M 30.46875 333.238281 "/>
<path fill-rule="nonzero" fill="rgb(60.392157%, 44.705882%, 67.45098%)" fill-opacity="1" d="M 352.507812 464.507812 C 352.507812 463.714844 352.195312 462.953125 351.632812 462.390625 C 351.070312 461.828125 350.304688 461.515625 349.511719 461.515625 C 348.714844 461.515625 347.953125 461.828125 347.390625 462.390625 C 346.828125 462.953125 346.511719 463.714844 346.511719 464.507812 C 346.511719 465.304688 346.828125 466.0625 347.390625 466.625 C 347.953125 467.1875 348.714844 467.503906 349.511719 467.503906 C 350.304688 467.503906 351.070312 467.1875 351.632812 466.625 C 352.195312 466.0625 352.507812 465.304688 352.507812 464.507812 Z M 352.507812 464.507812 "/>
<path fill-rule="nonzero" fill="rgb(60.392157%, 44.705882%, 67.45098%)" fill-opacity="1" d="M 675.5 333.238281 C 675.5 332.445312 675.183594 331.683594 674.621094 331.121094 C 674.058594 330.5625 673.296875 330.246094 672.5 330.246094 C 671.707031 330.246094 670.945312 330.5625 670.382812 331.121094 C 669.820312 331.683594 669.503906 332.445312 669.503906 333.238281 C 669.503906 334.035156 669.820312 334.796875 670.382812 335.355469 C 670.945312 335.917969 671.707031 336.234375 672.5 336.234375 C 673.296875 336.234375 674.058594 335.917969 674.621094 335.355469 C 675.183594 334.796875 675.5 334.035156 675.5 333.238281 Z M 675.5 333.238281 "/>
<path fill-rule="nonzero" fill="rgb(60.392157%, 44.705882%, 67.45098%)" fill-opacity="1" d="M 352.429688 118.230469 C 352.429688 117.4375 352.113281 116.675781 351.550781 116.113281 C 350.992188 115.550781 350.226562 115.234375 349.433594 115.234375 C 348.636719 115.234375 347.875 115.550781 347.3125 116.113281 C 346.75 116.675781 346.433594 117.4375 346.433594 118.230469 C 346.433594 119.023438 346.75 119.785156 347.3125 120.347656 C 347.875 120.910156 348.636719 121.222656 349.433594 121.222656 C 350.226562 121.222656 350.992188 120.910156 351.550781 120.347656 C 352.113281 119.785156 352.429688 119.023438 352.429688 118.230469 Z M 352.429688 118.230469 "/>
</svg>
