<?xml version="1.0" encoding="UTF-8"?>
<svg xmlns="http://www.w3.org/2000/svg" xmlns:xlink="http://www.w3.org/1999/xlink" width="439" height="381" viewBox="0 0 439 381">
<path fill="none" stroke-width="0.04" stroke-linecap="butt" stroke-linejoin="miter" stroke="rgb(0%, 0%, 0%)" stroke-opacity="1" stroke-miterlimit="10" d="M 0 -2.406225 C 0.833313 -1.572947 1.666692 -0.739604 2.500006 0.0937389 " transform="matrix(59.96393, 0, 0, -59.882122, 219.5, 190.5)"/>
<path fill="none" stroke-width="0.04" stroke-linecap="butt" stroke-linejoin="miter" stroke="rgb(0%, 0%, 0%)" stroke-opacity="1" stroke-miterlimit="10" d="M 2.500006 0.0937389 C 1.666692 0.927082 0.833313 1.760425 0 2.593768 " transform="matrix(59.96393, 0, 0, -59.882122, 219.5, 190.5)"/>
<path fill="none" stroke-width="0.04" stroke-linecap="butt" stroke-linejoin="miter" stroke="rgb(0%, 0%, 0%)" stroke-opacity="1" stroke-miterlimit="10" d="M 0 2.593768 C -0.833313 1.760425 -1.666692 0.927082 -2.500006 0.0937389 " transform="matrix(59.96393, 0, 0, -59.882122, 219.5, 190.5)"/>
<path fill="none" stroke-width="0.04" stroke-linecap="butt" stroke-linejoin="miter" stroke="rgb(0%, 0%, 0%)" stroke-opacity="1" stroke-miterlimit="10" d="M -2.500006 0.0937389 C -1.666692 -0.739604 -0.833313 -1.572947 0 -2.406225 " transform="matrix(59.96393, 0, 0, -59.882122, 219.5, 190.5)"/>
<path fill="none" stroke-width="0.04" stroke-linecap="butt" stroke-linejoin="miter" stroke="rgb(0%, 0%, 0%)" stroke-opacity="1" stroke-miterlimit="10" d="M 0 -2.406225 C -0.144358 -2.65626 -0.28865 -2.906231 -0.433008 -3.156266 C -0.144358 -3.156266 0.144358 -3.156266 0.433008 -3.156266 C 0.28865 -2.906231 0.144358 -2.65626 0 -2.406225 Z M 0 -2.406225 " transform="matrix(59.96393, 0, 0, -59.882122, 219.5, 190.5)"/>
<path fill="none" stroke-width="0.04" stroke-linecap="butt" stroke-linejoin="miter" stroke="rgb(0%, 0%, 0%)" stroke-opacity="1" stroke-miterlimit="10" d="M 0.649544 -3.156266 C 0.216536 -3.156266 -0.216536 -3.156266 -0.649544 -3.156266 " transform="matrix(59.96393, 0, 0, -59.882122, 219.5, 190.5)"/>
<path fill="none" stroke-width="0.04" stroke-linecap="butt" stroke-linejoin="miter" stroke="rgb(0%, 0%, 0%)" stroke-opacity="1" stroke-miterlimit="10" d="M 0 2.593768 C 0 2.693182 -0.0394769 2.788617 -0.109832 2.858937 C -0.180186 2.929258 -0.275556 2.968723 -0.37503 2.968723 C -0.474439 2.968723 -0.569809 2.929258 -0.640163 2.858937 C -0.710518 2.788617 -0.749995 2.693182 -0.749995 2.593768 C -0.749995 2.494288 -0.710518 2.398919 -0.640163 2.328598 C -0.569809 2.258278 -0.474439 2.218747 -0.37503 2.218747 C -0.275556 2.218747 -0.180186 2.258278 -0.109832 2.328598 C -0.0394769 2.398919 0 2.494288 0 2.593768 Z M 0 2.593768 " transform="matrix(59.96393, 0, 0, -59.882122, 219.5, 190.5)"/>
<path fill="none" stroke-width="0.04" stroke-linecap="butt" stroke-linejoin="miter" stroke="rgb(0%, 0%, 0%)" stroke-opacity="1" stroke-miterlimit="10" d="M -0.749995 2.031269 C -0.749995 2.406225 -0.749995 2.781245 -0.749995 3.156266 " transform="matrix(59.96393, 0, 0, -59.882122, 219.5, 190.5)"/>
<path fill-rule="nonzero" fill="rgb(0%, 0%, 0%)" fill-opacity="1" d="M 225.496094 334.589844 C 225.496094 333.003906 224.863281 331.480469 223.738281 330.355469 C 222.617188 329.234375 221.089844 328.601562 219.5 328.601562 C 217.910156 328.601562 216.382812 329.234375 215.261719 330.355469 C 214.136719 331.480469 213.503906 333.003906 213.503906 334.589844 C 213.503906 336.179688 214.136719 337.703125 215.261719 338.824219 C 216.382812 339.949219 217.910156 340.578125 219.5 340.578125 C 221.089844 340.578125 222.617188 339.949219 223.738281 338.824219 C 224.863281 337.703125 225.496094 336.179688 225.496094 334.589844 Z M 225.496094 334.589844 "/>
<path fill-rule="nonzero" fill="rgb(0%, 0%, 0%)" fill-opacity="1" d="M 375.40625 184.886719 C 375.40625 183.296875 374.773438 181.773438 373.648438 180.652344 C 372.523438 179.527344 371 178.898438 369.410156 178.898438 C 367.820312 178.898438 366.292969 179.527344 365.167969 180.652344 C 364.046875 181.773438 363.414062 183.296875 363.414062 184.886719 C 363.414062 186.472656 364.046875 187.996094 365.167969 189.121094 C 366.292969 190.242188 367.820312 190.875 369.410156 190.875 C 371 190.875 372.523438 190.242188 373.648438 189.121094 C 374.773438 187.996094 375.40625 186.472656 375.40625 184.886719 Z M 375.40625 184.886719 "/>
<path fill-rule="nonzero" fill="rgb(0%, 0%, 0%)" fill-opacity="1" d="M 225.496094 35.179688 C 225.496094 33.59375 224.863281 32.070312 223.738281 30.945312 C 222.617188 29.824219 221.089844 29.191406 219.5 29.191406 C 217.910156 29.191406 216.382812 29.824219 215.261719 30.945312 C 214.136719 32.070312 213.503906 33.59375 213.503906 35.179688 C 213.503906 36.769531 214.136719 38.292969 215.261719 39.414062 C 216.382812 40.539062 217.910156 41.167969 219.5 41.167969 C 221.089844 41.167969 222.617188 40.539062 223.738281 39.414062 C 224.863281 38.292969 225.496094 36.769531 225.496094 35.179688 Z M 225.496094 35.179688 "/>
<path fill-rule="nonzero" fill="rgb(0%, 0%, 0%)" fill-opacity="1" d="M 75.585938 184.886719 C 75.585938 183.296875 74.953125 181.773438 73.832031 180.652344 C 72.707031 179.527344 71.179688 178.898438 69.589844 178.898438 C 68 178.898438 66.476562 179.527344 65.351562 180.652344 C 64.226562 181.773438 63.59375 183.296875 63.59375 184.886719 C 63.59375 186.472656 64.226562 187.996094 65.351562 189.121094 C 66.476562 190.242188 68 190.875 69.589844 190.875 C 71.179688 190.875 72.707031 190.242188 73.832031 189.121094 C 74.953125 187.996094 75.585938 186.472656 75.585938 184.886719 Z M 75.585938 184.886719 "/>
<path fill="none" stroke-width="0.04" stroke-linecap="butt" stroke-linejoin="miter" stroke="rgb(98.823529%, 38.431373%, 33.333333%)" stroke-opacity="1" stroke-miterlimit="10" d="M 0 2.593768 C 0 2.260431 0 1.927093 0 1.593756 " transform="matrix(59.96393, 0, 0, -59.882122, 219.5, 190.5)"/>
<path fill-rule="nonzero" fill="rgb(98.823529%, 38.431373%, 33.333333%)" fill-opacity="1" d="M 219.5 125.003906 C 223.496094 115.023438 227.496094 105.042969 231.492188 95.0625 C 223.496094 95.0625 215.503906 95.0625 207.507812 95.0625 C 211.503906 105.042969 215.503906 115.023438 219.5 125.003906 Z M 219.5 125.003906 "/>
<path fill-rule="nonzero" fill="rgb(60.392157%, 44.705882%, 67.45098%)" fill-opacity="0.5" stroke-width="0.03" stroke-linecap="butt" stroke-linejoin="miter" stroke="rgb(60.392157%, 44.705882%, 67.45098%)" stroke-opacity="0.5" stroke-miterlimit="10" d="M 0 -2.406225 C 0.0463169 -2.359975 0.0925687 -2.31366 0.138886 -2.267345 " transform="matrix(59.96393, 0, 0, -59.882122, 219.5, 190.5)"/>
<path fill-rule="nonzero" fill="rgb(60.392157%, 44.705882%, 67.45098%)" fill-opacity="0.5" stroke-width="0.03" stroke-linecap="butt" stroke-linejoin="miter" stroke="rgb(60.392157%, 44.705882%, 67.45098%)" stroke-opacity="0.5" stroke-miterlimit="10" d="M 0.295164 -2.111114 C 0.341416 -2.064799 0.387733 -2.018549 0.43405 -1.972234 " transform="matrix(59.96393, 0, 0, -59.882122, 219.5, 190.5)"/>
<path fill-rule="nonzero" fill="rgb(60.392157%, 44.705882%, 67.45098%)" fill-opacity="0.5" stroke-width="0.03" stroke-linecap="butt" stroke-linejoin="miter" stroke="rgb(60.392157%, 44.705882%, 67.45098%)" stroke-opacity="0.5" stroke-miterlimit="10" d="M 0.590264 -1.816003 C 0.636581 -1.769688 0.682898 -1.723373 0.729149 -1.677058 " transform="matrix(59.96393, 0, 0, -59.882122, 219.5, 190.5)"/>
<path fill-rule="nonzero" fill="rgb(60.392157%, 44.705882%, 67.45098%)" fill-opacity="0.5" stroke-width="0.03" stroke-linecap="butt" stroke-linejoin="miter" stroke="rgb(60.392157%, 44.705882%, 67.45098%)" stroke-opacity="0.5" stroke-miterlimit="10" d="M 0.885428 -1.520826 C 0.931745 -1.474511 0.977997 -1.428262 1.024314 -1.381947 " transform="matrix(59.96393, 0, 0, -59.882122, 219.5, 190.5)"/>
<path fill-rule="nonzero" fill="rgb(60.392157%, 44.705882%, 67.45098%)" fill-opacity="0.5" stroke-width="0.03" stroke-linecap="butt" stroke-linejoin="miter" stroke="rgb(60.392157%, 44.705882%, 67.45098%)" stroke-opacity="0.5" stroke-miterlimit="10" d="M 1.180527 -1.225715 C 1.226844 -1.1794 1.273161 -1.133085 1.319413 -1.086836 " transform="matrix(59.96393, 0, 0, -59.882122, 219.5, 190.5)"/>
<path fill-rule="nonzero" fill="rgb(60.392157%, 44.705882%, 67.45098%)" fill-opacity="0.5" stroke-width="0.03" stroke-linecap="butt" stroke-linejoin="miter" stroke="rgb(60.392157%, 44.705882%, 67.45098%)" stroke-opacity="0.5" stroke-miterlimit="10" d="M 1.475692 -0.930539 C 1.522009 -0.884289 1.56826 -0.837974 1.614577 -0.791659 " transform="matrix(59.96393, 0, 0, -59.882122, 219.5, 190.5)"/>
<path fill-rule="nonzero" fill="rgb(60.392157%, 44.705882%, 67.45098%)" fill-opacity="0.5" stroke-width="0.03" stroke-linecap="butt" stroke-linejoin="miter" stroke="rgb(60.392157%, 44.705882%, 67.45098%)" stroke-opacity="0.5" stroke-miterlimit="10" d="M 1.770856 -0.635428 C 1.817108 -0.589113 1.863425 -0.542798 1.909742 -0.496548 " transform="matrix(59.96393, 0, 0, -59.882122, 219.5, 190.5)"/>
<path fill-rule="nonzero" fill="rgb(60.392157%, 44.705882%, 67.45098%)" fill-opacity="0.5" stroke-width="0.03" stroke-linecap="butt" stroke-linejoin="miter" stroke="rgb(60.392157%, 44.705882%, 67.45098%)" stroke-opacity="0.5" stroke-miterlimit="10" d="M 2.065956 -0.340252 C 2.112272 -0.294002 2.158589 -0.247687 2.204841 -0.201372 " transform="matrix(59.96393, 0, 0, -59.882122, 219.5, 190.5)"/>
<path fill-rule="nonzero" fill="rgb(60.392157%, 44.705882%, 67.45098%)" fill-opacity="0.5" stroke-width="0.03" stroke-linecap="butt" stroke-linejoin="miter" stroke="rgb(60.392157%, 44.705882%, 67.45098%)" stroke-opacity="0.5" stroke-miterlimit="10" d="M 2.36112 -0.0451408 C 2.407437 0.00117418 2.453689 0.0474239 2.500006 0.0937389 " transform="matrix(59.96393, 0, 0, -59.882122, 219.5, 190.5)"/>
<path fill-rule="nonzero" fill="rgb(60.392157%, 44.705882%, 67.45098%)" fill-opacity="0.5" stroke-width="0.03" stroke-linecap="butt" stroke-linejoin="miter" stroke="rgb(60.392157%, 44.705882%, 67.45098%)" stroke-opacity="0.5" stroke-miterlimit="10" d="M 2.500006 0.0937389 C 2.453689 0.140054 2.407437 0.186369 2.36112 0.232618 " transform="matrix(59.96393, 0, 0, -59.882122, 219.5, 190.5)"/>
<path fill-rule="nonzero" fill="rgb(60.392157%, 44.705882%, 67.45098%)" fill-opacity="0.5" stroke-width="0.03" stroke-linecap="butt" stroke-linejoin="miter" stroke="rgb(60.392157%, 44.705882%, 67.45098%)" stroke-opacity="0.5" stroke-miterlimit="10" d="M 2.204841 0.388915 C 2.158589 0.435165 2.112272 0.48148 2.065956 0.527795 " transform="matrix(59.96393, 0, 0, -59.882122, 219.5, 190.5)"/>
<path fill-rule="nonzero" fill="rgb(60.392157%, 44.705882%, 67.45098%)" fill-opacity="0.5" stroke-width="0.03" stroke-linecap="butt" stroke-linejoin="miter" stroke="rgb(60.392157%, 44.705882%, 67.45098%)" stroke-opacity="0.5" stroke-miterlimit="10" d="M 1.909742 0.684026 C 1.863425 0.730341 1.817108 0.776591 1.770856 0.822906 " transform="matrix(59.96393, 0, 0, -59.882122, 219.5, 190.5)"/>
<path fill-rule="nonzero" fill="rgb(60.392157%, 44.705882%, 67.45098%)" fill-opacity="0.5" stroke-width="0.03" stroke-linecap="butt" stroke-linejoin="miter" stroke="rgb(60.392157%, 44.705882%, 67.45098%)" stroke-opacity="0.5" stroke-miterlimit="10" d="M 1.614577 0.979137 C 1.56826 1.025452 1.522009 1.071767 1.475692 1.118082 " transform="matrix(59.96393, 0, 0, -59.882122, 219.5, 190.5)"/>
<path fill-rule="nonzero" fill="rgb(60.392157%, 44.705882%, 67.45098%)" fill-opacity="0.5" stroke-width="0.03" stroke-linecap="butt" stroke-linejoin="miter" stroke="rgb(60.392157%, 44.705882%, 67.45098%)" stroke-opacity="0.5" stroke-miterlimit="10" d="M 1.319413 1.274313 C 1.273161 1.320628 1.226844 1.366878 1.180527 1.413193 " transform="matrix(59.96393, 0, 0, -59.882122, 219.5, 190.5)"/>
<path fill-rule="nonzero" fill="rgb(60.392157%, 44.705882%, 67.45098%)" fill-opacity="0.5" stroke-width="0.03" stroke-linecap="butt" stroke-linejoin="miter" stroke="rgb(60.392157%, 44.705882%, 67.45098%)" stroke-opacity="0.5" stroke-miterlimit="10" d="M 1.024314 1.569424 C 0.977997 1.615739 0.931745 1.662054 0.885428 1.708304 " transform="matrix(59.96393, 0, 0, -59.882122, 219.5, 190.5)"/>
<path fill-rule="nonzero" fill="rgb(60.392157%, 44.705882%, 67.45098%)" fill-opacity="0.5" stroke-width="0.03" stroke-linecap="butt" stroke-linejoin="miter" stroke="rgb(60.392157%, 44.705882%, 67.45098%)" stroke-opacity="0.5" stroke-miterlimit="10" d="M 0.729149 1.864601 C 0.682898 1.91085 0.636581 1.957165 0.590264 2.00348 " transform="matrix(59.96393, 0, 0, -59.882122, 219.5, 190.5)"/>
<path fill-rule="nonzero" fill="rgb(60.392157%, 44.705882%, 67.45098%)" fill-opacity="0.5" stroke-width="0.03" stroke-linecap="butt" stroke-linejoin="miter" stroke="rgb(60.392157%, 44.705882%, 67.45098%)" stroke-opacity="0.5" stroke-miterlimit="10" d="M 0.43405 2.159712 C 0.387733 2.206027 0.341416 2.252342 0.295164 2.298591 " transform="matrix(59.96393, 0, 0, -59.882122, 219.5, 190.5)"/>
<path fill-rule="nonzero" fill="rgb(60.392157%, 44.705882%, 67.45098%)" fill-opacity="0.5" stroke-width="0.03" stroke-linecap="butt" stroke-linejoin="miter" stroke="rgb(60.392157%, 44.705882%, 67.45098%)" stroke-opacity="0.5" stroke-miterlimit="10" d="M 0.138886 2.454888 C 0.0925687 2.501138 0.0463169 2.547453 0 2.593768 " transform="matrix(59.96393, 0, 0, -59.882122, 219.5, 190.5)"/>
<path fill-rule="nonzero" fill="rgb(60.392157%, 44.705882%, 67.45098%)" fill-opacity="0.5" stroke-width="0.03" stroke-linecap="butt" stroke-linejoin="miter" stroke="rgb(60.392157%, 44.705882%, 67.45098%)" stroke-opacity="0.5" stroke-miterlimit="10" d="M 0 2.593768 C -0.0463169 2.547453 -0.0925687 2.501138 -0.138886 2.454888 " transform="matrix(59.96393, 0, 0, -59.882122, 219.5, 190.5)"/>
<path fill-rule="nonzero" fill="rgb(60.392157%, 44.705882%, 67.45098%)" fill-opacity="0.5" stroke-width="0.03" stroke-linecap="butt" stroke-linejoin="miter" stroke="rgb(60.392157%, 44.705882%, 67.45098%)" stroke-opacity="0.5" stroke-miterlimit="10" d="M -0.295164 2.298591 C -0.341416 2.252342 -0.387733 2.206027 -0.43405 2.159712 " transform="matrix(59.96393, 0, 0, -59.882122, 219.5, 190.5)"/>
<path fill-rule="nonzero" fill="rgb(60.392157%, 44.705882%, 67.45098%)" fill-opacity="0.5" stroke-width="0.03" stroke-linecap="butt" stroke-linejoin="miter" stroke="rgb(60.392157%, 44.705882%, 67.45098%)" stroke-opacity="0.5" stroke-miterlimit="10" d="M -0.590264 2.00348 C -0.636581 1.957165 -0.682898 1.91085 -0.729149 1.864601 " transform="matrix(59.96393, 0, 0, -59.882122, 219.5, 190.5)"/>
<path fill-rule="nonzero" fill="rgb(60.392157%, 44.705882%, 67.45098%)" fill-opacity="0.5" stroke-width="0.03" stroke-linecap="butt" stroke-linejoin="miter" stroke="rgb(60.392157%, 44.705882%, 67.45098%)" stroke-opacity="0.5" stroke-miterlimit="10" d="M -0.885428 1.708304 C -0.931745 1.662054 -0.977997 1.615739 -1.024314 1.569424 " transform="matrix(59.96393, 0, 0, -59.882122, 219.5, 190.5)"/>
<path fill-rule="nonzero" fill="rgb(60.392157%, 44.705882%, 67.45098%)" fill-opacity="0.5" stroke-width="0.03" stroke-linecap="butt" stroke-linejoin="miter" stroke="rgb(60.392157%, 44.705882%, 67.45098%)" stroke-opacity="0.5" stroke-miterlimit="10" d="M -1.180527 1.413193 C -1.226844 1.366878 -1.273161 1.320628 -1.319413 1.274313 " transform="matrix(59.96393, 0, 0, -59.882122, 219.5, 190.5)"/>
<path fill-rule="nonzero" fill="rgb(60.392157%, 44.705882%, 67.45098%)" fill-opacity="0.5" stroke-width="0.03" stroke-linecap="butt" stroke-linejoin="miter" stroke="rgb(60.392157%, 44.705882%, 67.45098%)" stroke-opacity="0.5" stroke-miterlimit="10" d="M -1.475692 1.118082 C -1.522009 1.071767 -1.56826 1.025452 -1.614577 0.979137 " transform="matrix(59.96393, 0, 0, -59.882122, 219.5, 190.5)"/>
<path fill-rule="nonzero" fill="rgb(60.392157%, 44.705882%, 67.45098%)" fill-opacity="0.5" stroke-width="0.03" stroke-linecap="butt" stroke-linejoin="miter" stroke="rgb(60.392157%, 44.705882%, 67.45098%)" stroke-opacity="0.5" stroke-miterlimit="10" d="M -1.770856 0.822906 C -1.817108 0.776591 -1.863425 0.730341 -1.909742 0.684026 " transform="matrix(59.96393, 0, 0, -59.882122, 219.5, 190.5)"/>
<path fill-rule="nonzero" fill="rgb(60.392157%, 44.705882%, 67.45098%)" fill-opacity="0.5" stroke-width="0.03" stroke-linecap="butt" stroke-linejoin="miter" stroke="rgb(60.392157%, 44.705882%, 67.45098%)" stroke-opacity="0.5" stroke-miterlimit="10" d="M -2.065956 0.527795 C -2.112272 0.48148 -2.158589 0.435165 -2.204841 0.388915 " transform="matrix(59.96393, 0, 0, -59.882122, 219.5, 190.5)"/>
<path fill-rule="nonzero" fill="rgb(60.392157%, 44.705882%, 67.45098%)" fill-opacity="0.5" stroke-width="0.03" stroke-linecap="butt" stroke-linejoin="miter" stroke="rgb(60.392157%, 44.705882%, 67.45098%)" stroke-opacity="0.5" stroke-miterlimit="10" d="M -2.36112 0.232618 C -2.407437 0.186369 -2.453689 0.140054 -2.500006 0.0937389 " transform="matrix(59.96393, 0, 0, -59.882122, 219.5, 190.5)"/>
<path fill-rule="nonzero" fill="rgb(60.392157%, 44.705882%, 67.45098%)" fill-opacity="0.5" stroke-width="0.03" stroke-linecap="butt" stroke-linejoin="miter" stroke="rgb(60.392157%, 44.705882%, 67.45098%)" stroke-opacity="0.5" stroke-miterlimit="10" d="M -2.500006 0.0937389 C -2.453689 0.0474239 -2.407437 0.00117418 -2.36112 -0.0451408 " transform="matrix(59.96393, 0, 0, -59.882122, 219.5, 190.5)"/>
<path fill-rule="nonzero" fill="rgb(60.392157%, 44.705882%, 67.45098%)" fill-opacity="0.5" stroke-width="0.03" stroke-linecap="butt" stroke-linejoin="miter" stroke="rgb(60.392157%, 44.705882%, 67.45098%)" stroke-opacity="0.5" stroke-miterlimit="10" d="M -2.204841 -0.201372 C -2.158589 -0.247687 -2.112272 -0.294002 -2.065956 -0.340252 " transform="matrix(59.96393, 0, 0, -59.882122, 219.5, 190.5)"/>
<path fill-rule="nonzero" fill="rgb(60.392157%, 44.705882%, 67.45098%)" fill-opacity="0.5" stroke-width="0.03" stroke-linecap="butt" stroke-linejoin="miter" stroke="rgb(60.392157%, 44.705882%, 67.45098%)" stroke-opacity="0.5" stroke-miterlimit="10" d="M -1.909742 -0.496548 C -1.863425 -0.542798 -1.817108 -0.589113 -1.770856 -0.635428 " transform="matrix(59.96393, 0, 0, -59.882122, 219.5, 190.5)"/>
<path fill-rule="nonzero" fill="rgb(60.392157%, 44.705882%, 67.45098%)" fill-opacity="0.5" stroke-width="0.03" stroke-linecap="butt" stroke-linejoin="miter" stroke="rgb(60.392157%, 44.705882%, 67.45098%)" stroke-opacity="0.5" stroke-miterlimit="10" d="M -1.614577 -0.791659 C -1.56826 -0.837974 -1.522009 -0.884289 -1.475692 -0.930539 " transform="matrix(59.96393, 0, 0, -59.882122, 219.5, 190.5)"/>
<path fill-rule="nonzero" fill="rgb(60.392157%, 44.705882%, 67.45098%)" fill-opacity="0.5" stroke-width="0.03" stroke-linecap="butt" stroke-linejoin="miter" stroke="rgb(60.392157%, 44.705882%, 67.45098%)" stroke-opacity="0.5" stroke-miterlimit="10" d="M -1.319413 -1.086836 C -1.273161 -1.133085 -1.226844 -1.1794 -1.180527 -1.225715 " transform="matrix(59.96393, 0, 0, -59.882122, 219.5, 190.5)"/>
<path fill-rule="nonzero" fill="rgb(60.392157%, 44.705882%, 67.45098%)" fill-opacity="0.5" stroke-width="0.03" stroke-linecap="butt" stroke-linejoin="miter" stroke="rgb(60.392157%, 44.705882%, 67.45098%)" stroke-opacity="0.5" stroke-miterlimit="10" d="M -1.024314 -1.381947 C -0.977997 -1.428262 -0.931745 -1.474511 -0.885428 -1.520826 " transform="matrix(59.96393, 0, 0, -59.882122, 219.5, 190.5)"/>
<path fill-rule="nonzero" fill="rgb(60.392157%, 44.705882%, 67.45098%)" fill-opacity="0.5" stroke-width="0.03" stroke-linecap="butt" stroke-linejoin="miter" stroke="rgb(60.392157%, 44.705882%, 67.45098%)" stroke-opacity="0.5" stroke-miterlimit="10" d="M -0.729149 -1.677058 C -0.682898 -1.723373 -0.636581 -1.769688 -0.590264 -1.816003 " transform="matrix(59.96393, 0, 0, -59.882122, 219.5, 190.5)"/>
<path fill-rule="nonzero" fill="rgb(60.392157%, 44.705882%, 67.45098%)" fill-opacity="0.5" stroke-width="0.03" stroke-linecap="butt" stroke-linejoin="miter" stroke="rgb(60.392157%, 44.705882%, 67.45098%)" stroke-opacity="0.5" stroke-miterlimit="10" d="M -0.43405 -1.972234 C -0.387733 -2.018549 -0.341416 -2.064799 -0.295164 -2.111114 " transform="matrix(59.96393, 0, 0, -59.882122, 219.5, 190.5)"/>
<path fill-rule="nonzero" fill="rgb(60.392157%, 44.705882%, 67.45098%)" fill-opacity="0.5" stroke-width="0.03" stroke-linecap="butt" stroke-linejoin="miter" stroke="rgb(60.392157%, 44.705882%, 67.45098%)" stroke-opacity="0.5" stroke-miterlimit="10" d="M -0.138886 -2.267345 C -0.0925687 -2.31366 -0.0463169 -2.359975 0 -2.406225 " transform="matrix(59.96393, 0, 0, -59.882122, 219.5, 190.5)"/>
<path fill-rule="nonzero" fill="rgb(60.392157%, 44.705882%, 67.45098%)" fill-opacity="0.5" d="M 225.496094 334.589844 C 225.496094 333.003906 224.863281 331.480469 223.738281 330.355469 C 222.617188 329.234375 221.089844 328.601562 219.5 328.601562 C 217.910156 328.601562 216.382812 329.234375 215.261719 330.355469 C 214.136719 331.480469 213.503906 333.003906 213.503906 334.589844 C 213.503906 336.179688 214.136719 337.703125 215.261719 338.824219 C 216.382812 339.949219 217.910156 340.578125 219.5 340.578125 C 221.089844 340.578125 222.617188 339.949219 223.738281 338.824219 C 224.863281 337.703125 225.496094 336.179688 225.496094 334.589844 Z M 225.496094 334.589844 "/>
<path fill-rule="nonzero" fill="rgb(60.392157%, 44.705882%, 67.45098%)" fill-opacity="0.5" d="M 375.40625 184.886719 C 375.40625 183.296875 374.773438 181.773438 373.648438 180.652344 C 372.523438 179.527344 371 178.898438 369.410156 178.898438 C 367.820312 178.898438 366.292969 179.527344 365.167969 180.652344 C 364.046875 181.773438 363.414062 183.296875 363.414062 184.886719 C 363.414062 186.472656 364.046875 187.996094 365.167969 189.121094 C 366.292969 190.242188 367.820312 190.875 369.410156 190.875 C 371 190.875 372.523438 190.242188 373.648438 189.121094 C 374.773438 187.996094 375.40625 186.472656 375.40625 184.886719 Z M 375.40625 184.886719 "/>
<path fill-rule="nonzero" fill="rgb(60.392157%, 44.705882%, 67.45098%)" fill-opacity="0.5" d="M 225.496094 35.179688 C 225.496094 33.59375 224.863281 32.070312 223.738281 30.945312 C 222.617188 29.824219 221.089844 29.191406 219.5 29.191406 C 217.910156 29.191406 216.382812 29.824219 215.261719 30.945312 C 214.136719 32.070312 213.503906 33.59375 213.503906 35.179688 C 213.503906 36.769531 214.136719 38.292969 215.261719 39.414062 C 216.382812 40.539062 217.910156 41.167969 219.5 41.167969 C 221.089844 41.167969 222.617188 40.539062 223.738281 39.414062 C 224.863281 38.292969 225.496094 36.769531 225.496094 35.179688 Z M 225.496094 35.179688 "/>
<path fill-rule="nonzero" fill="rgb(60.392157%, 44.705882%, 67.45098%)" fill-opacity="0.5" d="M 75.585938 184.886719 C 75.585938 183.296875 74.953125 181.773438 73.832031 180.652344 C 72.707031 179.527344 71.179688 178.898438 69.589844 178.898438 C 68 178.898438 66.476562 179.527344 65.351562 180.652344 C 64.226562 181.773438 63.59375 183.296875 63.59375 184.886719 C 63.59375 186.472656 64.226562 187.996094 65.351562 189.121094 C 66.476562 190.242188 68 190.875 69.589844 190.875 C 71.179688 190.875 72.707031 190.242188 73.832031 189.121094 C 74.953125 187.996094 75.585938 186.472656 75.585938 184.886719 Z M 75.585938 184.886719 "/>
<path fill-rule="nonzero" fill="rgb(60.392157%, 44.705882%, 67.45098%)" fill-opacity="0.5" stroke-width="0.03" stroke-linecap="butt" stroke-linejoin="miter" stroke="rgb(60.392157%, 44.705882%, 67.45098%)" stroke-opacity="0.5" stroke-miterlimit="10" d="M 0 -2.406225 C 0.052701 -2.37537 0.105402 -2.344515 0.158038 -2.31366 " transform="matrix(59.96393, 0, 0, -59.882122, 219.5, 190.5)"/>
<path fill-rule="nonzero" fill="rgb(60.392157%, 44.705882%, 67.45098%)" fill-opacity="0.5" stroke-width="0.03" stroke-linecap="butt" stroke-linejoin="miter" stroke="rgb(60.392157%, 44.705882%, 67.45098%)" stroke-opacity="0.5" stroke-miterlimit="10" d="M 0.335879 -2.209484 C 0.38858 -2.178629 0.441281 -2.147774 0.493982 -2.116919 " transform="matrix(59.96393, 0, 0, -59.882122, 219.5, 190.5)"/>
<path fill-rule="nonzero" fill="rgb(60.392157%, 44.705882%, 67.45098%)" fill-opacity="0.5" stroke-width="0.03" stroke-linecap="butt" stroke-linejoin="miter" stroke="rgb(60.392157%, 44.705882%, 67.45098%)" stroke-opacity="0.5" stroke-miterlimit="10" d="M 0.671758 -2.012743 C 0.724459 -1.981888 0.77716 -1.951034 0.829861 -1.920113 " transform="matrix(59.96393, 0, 0, -59.882122, 219.5, 190.5)"/>
<path fill-rule="nonzero" fill="rgb(60.392157%, 44.705882%, 67.45098%)" fill-opacity="0.5" stroke-width="0.03" stroke-linecap="butt" stroke-linejoin="miter" stroke="rgb(60.392157%, 44.705882%, 67.45098%)" stroke-opacity="0.5" stroke-miterlimit="10" d="M 1.007637 -1.816003 C 1.060338 -1.785083 1.113039 -1.754228 1.16574 -1.723373 " transform="matrix(59.96393, 0, 0, -59.882122, 219.5, 190.5)"/>
<path fill-rule="nonzero" fill="rgb(60.392157%, 44.705882%, 67.45098%)" fill-opacity="0.5" stroke-width="0.03" stroke-linecap="butt" stroke-linejoin="miter" stroke="rgb(60.392157%, 44.705882%, 67.45098%)" stroke-opacity="0.5" stroke-miterlimit="10" d="M 1.343581 -1.619197 C 1.396217 -1.588342 1.448918 -1.557487 1.501619 -1.526632 " transform="matrix(59.96393, 0, 0, -59.882122, 219.5, 190.5)"/>
<path fill-rule="nonzero" fill="rgb(60.392157%, 44.705882%, 67.45098%)" fill-opacity="0.5" stroke-width="0.03" stroke-linecap="butt" stroke-linejoin="miter" stroke="rgb(60.392157%, 44.705882%, 67.45098%)" stroke-opacity="0.5" stroke-miterlimit="10" d="M 1.67946 -1.422456 C 1.732161 -1.391601 1.784797 -1.360746 1.837498 -1.329891 " transform="matrix(59.96393, 0, 0, -59.882122, 219.5, 190.5)"/>
<path fill-rule="nonzero" fill="rgb(60.392157%, 44.705882%, 67.45098%)" fill-opacity="0.5" stroke-width="0.03" stroke-linecap="butt" stroke-linejoin="miter" stroke="rgb(60.392157%, 44.705882%, 67.45098%)" stroke-opacity="0.5" stroke-miterlimit="10" d="M 2.015339 -1.225715 C 2.06804 -1.19486 2.120741 -1.16394 2.173377 -1.133085 " transform="matrix(59.96393, 0, 0, -59.882122, 219.5, 190.5)"/>
<path fill-rule="nonzero" fill="rgb(60.392157%, 44.705882%, 67.45098%)" fill-opacity="0.5" stroke-width="0.03" stroke-linecap="butt" stroke-linejoin="miter" stroke="rgb(60.392157%, 44.705882%, 67.45098%)" stroke-opacity="0.5" stroke-miterlimit="10" d="M 2.351218 -1.028909 C 2.403919 -0.998055 2.45662 -0.9672 2.509321 -0.936345 " transform="matrix(59.96393, 0, 0, -59.882122, 219.5, 190.5)"/>
<path fill-rule="nonzero" fill="rgb(60.392157%, 44.705882%, 67.45098%)" fill-opacity="0.5" stroke-width="0.03" stroke-linecap="butt" stroke-linejoin="miter" stroke="rgb(60.392157%, 44.705882%, 67.45098%)" stroke-opacity="0.5" stroke-miterlimit="10" d="M 2.687097 -0.832169 C 2.739798 -0.801314 2.792499 -0.770459 2.8452 -0.739604 " transform="matrix(59.96393, 0, 0, -59.882122, 219.5, 190.5)"/>
<path fill-rule="nonzero" fill="rgb(60.392157%, 44.705882%, 67.45098%)" fill-opacity="0.5" stroke-width="0.03" stroke-linecap="butt" stroke-linejoin="miter" stroke="rgb(60.392157%, 44.705882%, 67.45098%)" stroke-opacity="0.5" stroke-miterlimit="10" d="M 2.8452 -0.739604 C 2.792499 -0.708749 2.739798 -0.677829 2.687097 -0.646974 " transform="matrix(59.96393, 0, 0, -59.882122, 219.5, 190.5)"/>
<path fill-rule="nonzero" fill="rgb(60.392157%, 44.705882%, 67.45098%)" fill-opacity="0.5" stroke-width="0.03" stroke-linecap="butt" stroke-linejoin="miter" stroke="rgb(60.392157%, 44.705882%, 67.45098%)" stroke-opacity="0.5" stroke-miterlimit="10" d="M 2.509321 -0.542798 C 2.45662 -0.511943 2.403919 -0.481088 2.351218 -0.450234 " transform="matrix(59.96393, 0, 0, -59.882122, 219.5, 190.5)"/>
<path fill-rule="nonzero" fill="rgb(60.392157%, 44.705882%, 67.45098%)" fill-opacity="0.5" stroke-width="0.03" stroke-linecap="butt" stroke-linejoin="miter" stroke="rgb(60.392157%, 44.705882%, 67.45098%)" stroke-opacity="0.5" stroke-miterlimit="10" d="M 2.173377 -0.346057 C 2.120741 -0.315203 2.06804 -0.284348 2.015339 -0.253493 " transform="matrix(59.96393, 0, 0, -59.882122, 219.5, 190.5)"/>
<path fill-rule="nonzero" fill="rgb(60.392157%, 44.705882%, 67.45098%)" fill-opacity="0.5" stroke-width="0.03" stroke-linecap="butt" stroke-linejoin="miter" stroke="rgb(60.392157%, 44.705882%, 67.45098%)" stroke-opacity="0.5" stroke-miterlimit="10" d="M 1.837498 -0.149317 C 1.784797 -0.118462 1.732161 -0.087607 1.67946 -0.0566869 " transform="matrix(59.96393, 0, 0, -59.882122, 219.5, 190.5)"/>
<path fill-rule="nonzero" fill="rgb(60.392157%, 44.705882%, 67.45098%)" fill-opacity="0.5" stroke-width="0.03" stroke-linecap="butt" stroke-linejoin="miter" stroke="rgb(60.392157%, 44.705882%, 67.45098%)" stroke-opacity="0.5" stroke-miterlimit="10" d="M 1.501619 0.0474239 C 1.448918 0.078344 1.396217 0.109199 1.343581 0.140054 " transform="matrix(59.96393, 0, 0, -59.882122, 219.5, 190.5)"/>
<path fill-rule="nonzero" fill="rgb(60.392157%, 44.705882%, 67.45098%)" fill-opacity="0.5" stroke-width="0.03" stroke-linecap="butt" stroke-linejoin="miter" stroke="rgb(60.392157%, 44.705882%, 67.45098%)" stroke-opacity="0.5" stroke-miterlimit="10" d="M 1.16574 0.24423 C 1.113039 0.275085 1.060338 0.30594 1.007637 0.336794 " transform="matrix(59.96393, 0, 0, -59.882122, 219.5, 190.5)"/>
<path fill-rule="nonzero" fill="rgb(60.392157%, 44.705882%, 67.45098%)" fill-opacity="0.5" stroke-width="0.03" stroke-linecap="butt" stroke-linejoin="miter" stroke="rgb(60.392157%, 44.705882%, 67.45098%)" stroke-opacity="0.5" stroke-miterlimit="10" d="M 0.829861 0.440971 C 0.77716 0.471825 0.724459 0.50268 0.671758 0.533535 " transform="matrix(59.96393, 0, 0, -59.882122, 219.5, 190.5)"/>
<path fill-rule="nonzero" fill="rgb(60.392157%, 44.705882%, 67.45098%)" fill-opacity="0.5" stroke-width="0.03" stroke-linecap="butt" stroke-linejoin="miter" stroke="rgb(60.392157%, 44.705882%, 67.45098%)" stroke-opacity="0.5" stroke-miterlimit="10" d="M 0.493982 0.637711 C 0.441281 0.668566 0.38858 0.699486 0.335879 0.730341 " transform="matrix(59.96393, 0, 0, -59.882122, 219.5, 190.5)"/>
<path fill-rule="nonzero" fill="rgb(60.392157%, 44.705882%, 67.45098%)" fill-opacity="0.5" stroke-width="0.03" stroke-linecap="butt" stroke-linejoin="miter" stroke="rgb(60.392157%, 44.705882%, 67.45098%)" stroke-opacity="0.5" stroke-miterlimit="10" d="M 0.158038 0.834517 C 0.105402 0.865372 0.052701 0.896227 0 0.927082 " transform="matrix(59.96393, 0, 0, -59.882122, 219.5, 190.5)"/>
<path fill-rule="nonzero" fill="rgb(60.392157%, 44.705882%, 67.45098%)" fill-opacity="0.5" stroke-width="0.03" stroke-linecap="butt" stroke-linejoin="miter" stroke="rgb(60.392157%, 44.705882%, 67.45098%)" stroke-opacity="0.5" stroke-miterlimit="10" d="M 0 0.927082 C -0.052701 0.896227 -0.105402 0.865372 -0.158038 0.834517 " transform="matrix(59.96393, 0, 0, -59.882122, 219.5, 190.5)"/>
<path fill-rule="nonzero" fill="rgb(60.392157%, 44.705882%, 67.45098%)" fill-opacity="0.5" stroke-width="0.03" stroke-linecap="butt" stroke-linejoin="miter" stroke="rgb(60.392157%, 44.705882%, 67.45098%)" stroke-opacity="0.5" stroke-miterlimit="10" d="M -0.335879 0.730341 C -0.38858 0.699486 -0.441281 0.668566 -0.493982 0.637711 " transform="matrix(59.96393, 0, 0, -59.882122, 219.5, 190.5)"/>
<path fill-rule="nonzero" fill="rgb(60.392157%, 44.705882%, 67.45098%)" fill-opacity="0.5" stroke-width="0.03" stroke-linecap="butt" stroke-linejoin="miter" stroke="rgb(60.392157%, 44.705882%, 67.45098%)" stroke-opacity="0.5" stroke-miterlimit="10" d="M -0.671758 0.533535 C -0.724459 0.50268 -0.77716 0.471825 -0.829861 0.440971 " transform="matrix(59.96393, 0, 0, -59.882122, 219.5, 190.5)"/>
<path fill-rule="nonzero" fill="rgb(60.392157%, 44.705882%, 67.45098%)" fill-opacity="0.5" stroke-width="0.03" stroke-linecap="butt" stroke-linejoin="miter" stroke="rgb(60.392157%, 44.705882%, 67.45098%)" stroke-opacity="0.5" stroke-miterlimit="10" d="M -1.007637 0.336794 C -1.060338 0.30594 -1.113039 0.275085 -1.16574 0.24423 " transform="matrix(59.96393, 0, 0, -59.882122, 219.5, 190.5)"/>
<path fill-rule="nonzero" fill="rgb(60.392157%, 44.705882%, 67.45098%)" fill-opacity="0.5" stroke-width="0.03" stroke-linecap="butt" stroke-linejoin="miter" stroke="rgb(60.392157%, 44.705882%, 67.45098%)" stroke-opacity="0.5" stroke-miterlimit="10" d="M -1.343581 0.140054 C -1.396217 0.109199 -1.448918 0.078344 -1.501619 0.0474239 " transform="matrix(59.96393, 0, 0, -59.882122, 219.5, 190.5)"/>
<path fill-rule="nonzero" fill="rgb(60.392157%, 44.705882%, 67.45098%)" fill-opacity="0.5" stroke-width="0.03" stroke-linecap="butt" stroke-linejoin="miter" stroke="rgb(60.392157%, 44.705882%, 67.45098%)" stroke-opacity="0.5" stroke-miterlimit="10" d="M -1.67946 -0.0566869 C -1.732161 -0.087607 -1.784797 -0.118462 -1.837498 -0.149317 " transform="matrix(59.96393, 0, 0, -59.882122, 219.5, 190.5)"/>
<path fill-rule="nonzero" fill="rgb(60.392157%, 44.705882%, 67.45098%)" fill-opacity="0.5" stroke-width="0.03" stroke-linecap="butt" stroke-linejoin="miter" stroke="rgb(60.392157%, 44.705882%, 67.45098%)" stroke-opacity="0.5" stroke-miterlimit="10" d="M -2.015339 -0.253493 C -2.06804 -0.284348 -2.120741 -0.315203 -2.173377 -0.346057 " transform="matrix(59.96393, 0, 0, -59.882122, 219.5, 190.5)"/>
<path fill-rule="nonzero" fill="rgb(60.392157%, 44.705882%, 67.45098%)" fill-opacity="0.5" stroke-width="0.03" stroke-linecap="butt" stroke-linejoin="miter" stroke="rgb(60.392157%, 44.705882%, 67.45098%)" stroke-opacity="0.5" stroke-miterlimit="10" d="M -2.351218 -0.450234 C -2.403919 -0.481088 -2.45662 -0.511943 -2.509321 -0.542798 " transform="matrix(59.96393, 0, 0, -59.882122, 219.5, 190.5)"/>
<path fill-rule="nonzero" fill="rgb(60.392157%, 44.705882%, 67.45098%)" fill-opacity="0.5" stroke-width="0.03" stroke-linecap="butt" stroke-linejoin="miter" stroke="rgb(60.392157%, 44.705882%, 67.45098%)" stroke-opacity="0.5" stroke-miterlimit="10" d="M -2.687097 -0.646974 C -2.739798 -0.677829 -2.792499 -0.708749 -2.8452 -0.739604 " transform="matrix(59.96393, 0, 0, -59.882122, 219.5, 190.5)"/>
<path fill-rule="nonzero" fill="rgb(60.392157%, 44.705882%, 67.45098%)" fill-opacity="0.5" stroke-width="0.03" stroke-linecap="butt" stroke-linejoin="miter" stroke="rgb(60.392157%, 44.705882%, 67.45098%)" stroke-opacity="0.5" stroke-miterlimit="10" d="M -2.8452 -0.739604 C -2.792499 -0.770459 -2.739798 -0.801314 -2.687097 -0.832169 " transform="matrix(59.96393, 0, 0, -59.882122, 219.5, 190.5)"/>
<path fill-rule="nonzero" fill="rgb(60.392157%, 44.705882%, 67.45098%)" fill-opacity="0.5" stroke-width="0.03" stroke-linecap="butt" stroke-linejoin="miter" stroke="rgb(60.392157%, 44.705882%, 67.45098%)" stroke-opacity="0.5" stroke-miterlimit="10" d="M -2.509321 -0.936345 C -2.45662 -0.9672 -2.403919 -0.998055 -2.351218 -1.028909 " transform="matrix(59.96393, 0, 0, -59.882122, 219.5, 190.5)"/>
<path fill-rule="nonzero" fill="rgb(60.392157%, 44.705882%, 67.45098%)" fill-opacity="0.5" stroke-width="0.03" stroke-linecap="butt" stroke-linejoin="miter" stroke="rgb(60.392157%, 44.705882%, 67.45098%)" stroke-opacity="0.5" stroke-miterlimit="10" d="M -2.173377 -1.133085 C -2.120741 -1.16394 -2.06804 -1.19486 -2.015339 -1.225715 " transform="matrix(59.96393, 0, 0, -59.882122, 219.5, 190.5)"/>
<path fill-rule="nonzero" fill="rgb(60.392157%, 44.705882%, 67.45098%)" fill-opacity="0.5" stroke-width="0.03" stroke-linecap="butt" stroke-linejoin="miter" stroke="rgb(60.392157%, 44.705882%, 67.45098%)" stroke-opacity="0.5" stroke-miterlimit="10" d="M -1.837498 -1.329891 C -1.784797 -1.360746 -1.732161 -1.391601 -1.67946 -1.422456 " transform="matrix(59.96393, 0, 0, -59.882122, 219.5, 190.5)"/>
<path fill-rule="nonzero" fill="rgb(60.392157%, 44.705882%, 67.45098%)" fill-opacity="0.5" stroke-width="0.03" stroke-linecap="butt" stroke-linejoin="miter" stroke="rgb(60.392157%, 44.705882%, 67.45098%)" stroke-opacity="0.5" stroke-miterlimit="10" d="M -1.501619 -1.526632 C -1.448918 -1.557487 -1.396217 -1.588342 -1.343581 -1.619197 " transform="matrix(59.96393, 0, 0, -59.882122, 219.5, 190.5)"/>
<path fill-rule="nonzero" fill="rgb(60.392157%, 44.705882%, 67.45098%)" fill-opacity="0.5" stroke-width="0.03" stroke-linecap="butt" stroke-linejoin="miter" stroke="rgb(60.392157%, 44.705882%, 67.45098%)" stroke-opacity="0.5" stroke-miterlimit="10" d="M -1.16574 -1.723373 C -1.113039 -1.754228 -1.060338 -1.785083 -1.007637 -1.816003 " transform="matrix(59.96393, 0, 0, -59.882122, 219.5, 190.5)"/>
<path fill-rule="nonzero" fill="rgb(60.392157%, 44.705882%, 67.45098%)" fill-opacity="0.5" stroke-width="0.03" stroke-linecap="butt" stroke-linejoin="miter" stroke="rgb(60.392157%, 44.705882%, 67.45098%)" stroke-opacity="0.5" stroke-miterlimit="10" d="M -0.829861 -1.920113 C -0.77716 -1.951034 -0.724459 -1.981888 -0.671758 -2.012743 " transform="matrix(59.96393, 0, 0, -59.882122, 219.5, 190.5)"/>
<path fill-rule="nonzero" fill="rgb(60.392157%, 44.705882%, 67.45098%)" fill-opacity="0.5" stroke-width="0.03" stroke-linecap="butt" stroke-linejoin="miter" stroke="rgb(60.392157%, 44.705882%, 67.45098%)" stroke-opacity="0.5" stroke-miterlimit="10" d="M -0.493982 -2.116919 C -0.441281 -2.147774 -0.38858 -2.178629 -0.335879 -2.209484 " transform="matrix(59.96393, 0, 0, -59.882122, 219.5, 190.5)"/>
<path fill-rule="nonzero" fill="rgb(60.392157%, 44.705882%, 67.45098%)" fill-opacity="0.5" stroke-width="0.03" stroke-linecap="butt" stroke-linejoin="miter" stroke="rgb(60.392157%, 44.705882%, 67.45098%)" stroke-opacity="0.5" stroke-miterlimit="10" d="M -0.158038 -2.31366 C -0.105402 -2.344515 -0.052701 -2.37537 0 -2.406225 " transform="matrix(59.96393, 0, 0, -59.882122, 219.5, 190.5)"/>
<path fill-rule="nonzero" fill="rgb(60.392157%, 44.705882%, 67.45098%)" fill-opacity="0.5" d="M 225.496094 334.589844 C 225.496094 333.003906 224.863281 331.480469 223.738281 330.355469 C 222.617188 329.234375 221.089844 328.601562 219.5 328.601562 C 217.910156 328.601562 216.382812 329.234375 215.261719 330.355469 C 214.136719 331.480469 213.503906 333.003906 213.503906 334.589844 C 213.503906 336.179688 214.136719 337.703125 215.261719 338.824219 C 216.382812 339.949219 217.910156 340.578125 219.5 340.578125 C 221.089844 340.578125 222.617188 339.949219 223.738281 338.824219 C 224.863281 337.703125 225.496094 336.179688 225.496094 334.589844 Z M 225.496094 334.589844 "/>
<path fill-rule="nonzero" fill="rgb(60.392157%, 44.705882%, 67.45098%)" fill-opacity="0.5" d="M 396.105469 234.789062 C 396.105469 233.199219 395.472656 231.675781 394.347656 230.554688 C 393.222656 229.429688 391.699219 228.800781 390.109375 228.800781 C 388.519531 228.800781 386.992188 229.429688 385.867188 230.554688 C 384.742188 231.675781 384.113281 233.199219 384.113281 234.789062 C 384.113281 236.375 384.742188 237.898438 385.867188 239.023438 C 386.992188 240.144531 388.519531 240.777344 390.109375 240.777344 C 391.699219 240.777344 393.222656 240.144531 394.347656 239.023438 C 395.472656 237.898438 396.105469 236.375 396.105469 234.789062 Z M 396.105469 234.789062 "/>
<path fill-rule="nonzero" fill="rgb(60.392157%, 44.705882%, 67.45098%)" fill-opacity="0.5" d="M 225.496094 134.984375 C 225.496094 133.394531 224.863281 131.871094 223.738281 130.75 C 222.617188 129.628906 221.089844 128.996094 219.5 128.996094 C 217.910156 128.996094 216.382812 129.628906 215.261719 130.75 C 214.136719 131.871094 213.503906 133.394531 213.503906 134.984375 C 213.503906 136.574219 214.136719 138.09375 215.261719 139.21875 C 216.382812 140.339844 217.910156 140.972656 219.5 140.972656 C 221.089844 140.972656 222.617188 140.339844 223.738281 139.21875 C 224.863281 138.09375 225.496094 136.574219 225.496094 134.984375 Z M 225.496094 134.984375 "/>
<path fill-rule="nonzero" fill="rgb(60.392157%, 44.705882%, 67.45098%)" fill-opacity="0.5" d="M 54.886719 234.789062 C 54.886719 233.199219 54.257812 231.675781 53.132812 230.554688 C 52.007812 229.429688 50.480469 228.800781 48.890625 228.800781 C 47.300781 228.800781 45.777344 229.429688 44.652344 230.554688 C 43.527344 231.675781 42.894531 233.199219 42.894531 234.789062 C 42.894531 236.375 43.527344 237.898438 44.652344 239.023438 C 45.777344 240.144531 47.300781 240.777344 48.890625 240.777344 C 50.480469 240.777344 52.007812 240.144531 53.132812 239.023438 C 54.257812 237.898438 54.886719 236.375 54.886719 234.789062 Z M 54.886719 234.789062 "/>
<path fill-rule="nonzero" fill="rgb(60.392157%, 44.705882%, 67.45098%)" fill-opacity="0.5" stroke-width="0.03" stroke-linecap="butt" stroke-linejoin="miter" stroke="rgb(60.392157%, 44.705882%, 67.45098%)" stroke-opacity="0.5" stroke-miterlimit="10" d="M 0 -2.406225 C 0.059085 -2.39083 0.11817 -2.37537 0.177255 -2.359975 " transform="matrix(59.96393, 0, 0, -59.882122, 219.5, 190.5)"/>
<path fill-rule="nonzero" fill="rgb(60.392157%, 44.705882%, 67.45098%)" fill-opacity="0.5" stroke-width="0.03" stroke-linecap="butt" stroke-linejoin="miter" stroke="rgb(60.392157%, 44.705882%, 67.45098%)" stroke-opacity="0.5" stroke-miterlimit="10" d="M 0.376659 -2.307854 C 0.435744 -2.29246 0.494829 -2.277 0.553914 -2.261605 " transform="matrix(59.96393, 0, 0, -59.882122, 219.5, 190.5)"/>
<path fill-rule="nonzero" fill="rgb(60.392157%, 44.705882%, 67.45098%)" fill-opacity="0.5" stroke-width="0.03" stroke-linecap="butt" stroke-linejoin="miter" stroke="rgb(60.392157%, 44.705882%, 67.45098%)" stroke-opacity="0.5" stroke-miterlimit="10" d="M 0.753252 -2.209484 C 0.812337 -2.194089 0.871422 -2.178629 0.930507 -2.163169 " transform="matrix(59.96393, 0, 0, -59.882122, 219.5, 190.5)"/>
<path fill-rule="nonzero" fill="rgb(60.392157%, 44.705882%, 67.45098%)" fill-opacity="0.5" stroke-width="0.03" stroke-linecap="butt" stroke-linejoin="miter" stroke="rgb(60.392157%, 44.705882%, 67.45098%)" stroke-opacity="0.5" stroke-miterlimit="10" d="M 1.129911 -2.111114 C 1.188996 -2.095654 1.248081 -2.080259 1.307166 -2.064799 " transform="matrix(59.96393, 0, 0, -59.882122, 219.5, 190.5)"/>
<path fill-rule="nonzero" fill="rgb(60.392157%, 44.705882%, 67.45098%)" fill-opacity="0.5" stroke-width="0.03" stroke-linecap="butt" stroke-linejoin="miter" stroke="rgb(60.392157%, 44.705882%, 67.45098%)" stroke-opacity="0.5" stroke-miterlimit="10" d="M 1.50657 -2.012743 C 1.565655 -1.997283 1.62474 -1.981888 1.683825 -1.966428 " transform="matrix(59.96393, 0, 0, -59.882122, 219.5, 190.5)"/>
<path fill-rule="nonzero" fill="rgb(60.392157%, 44.705882%, 67.45098%)" fill-opacity="0.5" stroke-width="0.03" stroke-linecap="butt" stroke-linejoin="miter" stroke="rgb(60.392157%, 44.705882%, 67.45098%)" stroke-opacity="0.5" stroke-miterlimit="10" d="M 1.883228 -1.914373 C 1.942248 -1.898913 2.001333 -1.883518 2.060418 -1.868058 " transform="matrix(59.96393, 0, 0, -59.882122, 219.5, 190.5)"/>
<path fill-rule="nonzero" fill="rgb(60.392157%, 44.705882%, 67.45098%)" fill-opacity="0.5" stroke-width="0.03" stroke-linecap="butt" stroke-linejoin="miter" stroke="rgb(60.392157%, 44.705882%, 67.45098%)" stroke-opacity="0.5" stroke-miterlimit="10" d="M 2.259822 -1.816003 C 2.318907 -1.800543 2.377992 -1.785083 2.437077 -1.769688 " transform="matrix(59.96393, 0, 0, -59.882122, 219.5, 190.5)"/>
<path fill-rule="nonzero" fill="rgb(60.392157%, 44.705882%, 67.45098%)" fill-opacity="0.5" stroke-width="0.03" stroke-linecap="butt" stroke-linejoin="miter" stroke="rgb(60.392157%, 44.705882%, 67.45098%)" stroke-opacity="0.5" stroke-miterlimit="10" d="M 2.636481 -1.717567 C 2.695566 -1.702172 2.754651 -1.686712 2.813736 -1.671317 " transform="matrix(59.96393, 0, 0, -59.882122, 219.5, 190.5)"/>
<path fill-rule="nonzero" fill="rgb(60.392157%, 44.705882%, 67.45098%)" fill-opacity="0.5" stroke-width="0.03" stroke-linecap="butt" stroke-linejoin="miter" stroke="rgb(60.392157%, 44.705882%, 67.45098%)" stroke-opacity="0.5" stroke-miterlimit="10" d="M 3.01314 -1.619197 C 3.072225 -1.603802 3.131244 -1.588342 3.190329 -1.572947 " transform="matrix(59.96393, 0, 0, -59.882122, 219.5, 190.5)"/>
<path fill-rule="nonzero" fill="rgb(60.392157%, 44.705882%, 67.45098%)" fill-opacity="0.5" stroke-width="0.03" stroke-linecap="butt" stroke-linejoin="miter" stroke="rgb(60.392157%, 44.705882%, 67.45098%)" stroke-opacity="0.5" stroke-miterlimit="10" d="M 3.190329 -1.572947 C 3.131244 -1.557487 3.072225 -1.542027 3.01314 -1.526632 " transform="matrix(59.96393, 0, 0, -59.882122, 219.5, 190.5)"/>
<path fill-rule="nonzero" fill="rgb(60.392157%, 44.705882%, 67.45098%)" fill-opacity="0.5" stroke-width="0.03" stroke-linecap="butt" stroke-linejoin="miter" stroke="rgb(60.392157%, 44.705882%, 67.45098%)" stroke-opacity="0.5" stroke-miterlimit="10" d="M 2.813736 -1.474511 C 2.754651 -1.459117 2.695566 -1.443657 2.636481 -1.428262 " transform="matrix(59.96393, 0, 0, -59.882122, 219.5, 190.5)"/>
<path fill-rule="nonzero" fill="rgb(60.392157%, 44.705882%, 67.45098%)" fill-opacity="0.5" stroke-width="0.03" stroke-linecap="butt" stroke-linejoin="miter" stroke="rgb(60.392157%, 44.705882%, 67.45098%)" stroke-opacity="0.5" stroke-miterlimit="10" d="M 2.437077 -1.376141 C 2.377992 -1.360746 2.318907 -1.345286 2.259822 -1.329891 " transform="matrix(59.96393, 0, 0, -59.882122, 219.5, 190.5)"/>
<path fill-rule="nonzero" fill="rgb(60.392157%, 44.705882%, 67.45098%)" fill-opacity="0.5" stroke-width="0.03" stroke-linecap="butt" stroke-linejoin="miter" stroke="rgb(60.392157%, 44.705882%, 67.45098%)" stroke-opacity="0.5" stroke-miterlimit="10" d="M 2.060418 -1.277771 C 2.001333 -1.262376 1.942248 -1.246916 1.883228 -1.231456 " transform="matrix(59.96393, 0, 0, -59.882122, 219.5, 190.5)"/>
<path fill-rule="nonzero" fill="rgb(60.392157%, 44.705882%, 67.45098%)" fill-opacity="0.5" stroke-width="0.03" stroke-linecap="butt" stroke-linejoin="miter" stroke="rgb(60.392157%, 44.705882%, 67.45098%)" stroke-opacity="0.5" stroke-miterlimit="10" d="M 1.683825 -1.1794 C 1.62474 -1.16394 1.565655 -1.148546 1.50657 -1.133085 " transform="matrix(59.96393, 0, 0, -59.882122, 219.5, 190.5)"/>
<path fill-rule="nonzero" fill="rgb(60.392157%, 44.705882%, 67.45098%)" fill-opacity="0.5" stroke-width="0.03" stroke-linecap="butt" stroke-linejoin="miter" stroke="rgb(60.392157%, 44.705882%, 67.45098%)" stroke-opacity="0.5" stroke-miterlimit="10" d="M 1.307166 -1.08103 C 1.248081 -1.06557 1.188996 -1.050175 1.129911 -1.034715 " transform="matrix(59.96393, 0, 0, -59.882122, 219.5, 190.5)"/>
<path fill-rule="nonzero" fill="rgb(60.392157%, 44.705882%, 67.45098%)" fill-opacity="0.5" stroke-width="0.03" stroke-linecap="butt" stroke-linejoin="miter" stroke="rgb(60.392157%, 44.705882%, 67.45098%)" stroke-opacity="0.5" stroke-miterlimit="10" d="M 0.930507 -0.98266 C 0.871422 -0.9672 0.812337 -0.951805 0.753252 -0.936345 " transform="matrix(59.96393, 0, 0, -59.882122, 219.5, 190.5)"/>
<path fill-rule="nonzero" fill="rgb(60.392157%, 44.705882%, 67.45098%)" fill-opacity="0.5" stroke-width="0.03" stroke-linecap="butt" stroke-linejoin="miter" stroke="rgb(60.392157%, 44.705882%, 67.45098%)" stroke-opacity="0.5" stroke-miterlimit="10" d="M 0.553914 -0.884289 C 0.494829 -0.868829 0.435744 -0.853369 0.376659 -0.837974 " transform="matrix(59.96393, 0, 0, -59.882122, 219.5, 190.5)"/>
<path fill-rule="nonzero" fill="rgb(60.392157%, 44.705882%, 67.45098%)" fill-opacity="0.5" stroke-width="0.03" stroke-linecap="butt" stroke-linejoin="miter" stroke="rgb(60.392157%, 44.705882%, 67.45098%)" stroke-opacity="0.5" stroke-miterlimit="10" d="M 0.177255 -0.785854 C 0.11817 -0.770459 0.059085 -0.754999 0 -0.739604 " transform="matrix(59.96393, 0, 0, -59.882122, 219.5, 190.5)"/>
<path fill-rule="nonzero" fill="rgb(60.392157%, 44.705882%, 67.45098%)" fill-opacity="0.5" stroke-width="0.03" stroke-linecap="butt" stroke-linejoin="miter" stroke="rgb(60.392157%, 44.705882%, 67.45098%)" stroke-opacity="0.5" stroke-miterlimit="10" d="M 0 -0.739604 C -0.059085 -0.754999 -0.11817 -0.770459 -0.177255 -0.785854 " transform="matrix(59.96393, 0, 0, -59.882122, 219.5, 190.5)"/>
<path fill-rule="nonzero" fill="rgb(60.392157%, 44.705882%, 67.45098%)" fill-opacity="0.5" stroke-width="0.03" stroke-linecap="butt" stroke-linejoin="miter" stroke="rgb(60.392157%, 44.705882%, 67.45098%)" stroke-opacity="0.5" stroke-miterlimit="10" d="M -0.376659 -0.837974 C -0.435744 -0.853369 -0.494829 -0.868829 -0.553914 -0.884289 " transform="matrix(59.96393, 0, 0, -59.882122, 219.5, 190.5)"/>
<path fill-rule="nonzero" fill="rgb(60.392157%, 44.705882%, 67.45098%)" fill-opacity="0.5" stroke-width="0.03" stroke-linecap="butt" stroke-linejoin="miter" stroke="rgb(60.392157%, 44.705882%, 67.45098%)" stroke-opacity="0.5" stroke-miterlimit="10" d="M -0.753252 -0.936345 C -0.812337 -0.951805 -0.871422 -0.9672 -0.930507 -0.98266 " transform="matrix(59.96393, 0, 0, -59.882122, 219.5, 190.5)"/>
<path fill-rule="nonzero" fill="rgb(60.392157%, 44.705882%, 67.45098%)" fill-opacity="0.5" stroke-width="0.03" stroke-linecap="butt" stroke-linejoin="miter" stroke="rgb(60.392157%, 44.705882%, 67.45098%)" stroke-opacity="0.5" stroke-miterlimit="10" d="M -1.129911 -1.034715 C -1.188996 -1.050175 -1.248081 -1.06557 -1.307166 -1.08103 " transform="matrix(59.96393, 0, 0, -59.882122, 219.5, 190.5)"/>
<path fill-rule="nonzero" fill="rgb(60.392157%, 44.705882%, 67.45098%)" fill-opacity="0.5" stroke-width="0.03" stroke-linecap="butt" stroke-linejoin="miter" stroke="rgb(60.392157%, 44.705882%, 67.45098%)" stroke-opacity="0.5" stroke-miterlimit="10" d="M -1.50657 -1.133085 C -1.565655 -1.148546 -1.62474 -1.16394 -1.683825 -1.1794 " transform="matrix(59.96393, 0, 0, -59.882122, 219.5, 190.5)"/>
<path fill-rule="nonzero" fill="rgb(60.392157%, 44.705882%, 67.45098%)" fill-opacity="0.5" stroke-width="0.03" stroke-linecap="butt" stroke-linejoin="miter" stroke="rgb(60.392157%, 44.705882%, 67.45098%)" stroke-opacity="0.5" stroke-miterlimit="10" d="M -1.883228 -1.231456 C -1.942248 -1.246916 -2.001333 -1.262376 -2.060418 -1.277771 " transform="matrix(59.96393, 0, 0, -59.882122, 219.5, 190.5)"/>
<path fill-rule="nonzero" fill="rgb(60.392157%, 44.705882%, 67.45098%)" fill-opacity="0.5" stroke-width="0.03" stroke-linecap="butt" stroke-linejoin="miter" stroke="rgb(60.392157%, 44.705882%, 67.45098%)" stroke-opacity="0.5" stroke-miterlimit="10" d="M -2.259822 -1.329891 C -2.318907 -1.345286 -2.377992 -1.360746 -2.437077 -1.376141 " transform="matrix(59.96393, 0, 0, -59.882122, 219.5, 190.5)"/>
<path fill-rule="nonzero" fill="rgb(60.392157%, 44.705882%, 67.45098%)" fill-opacity="0.5" stroke-width="0.03" stroke-linecap="butt" stroke-linejoin="miter" stroke="rgb(60.392157%, 44.705882%, 67.45098%)" stroke-opacity="0.5" stroke-miterlimit="10" d="M -2.636481 -1.428262 C -2.695566 -1.443657 -2.754651 -1.459117 -2.813736 -1.474511 " transform="matrix(59.96393, 0, 0, -59.882122, 219.5, 190.5)"/>
<path fill-rule="nonzero" fill="rgb(60.392157%, 44.705882%, 67.45098%)" fill-opacity="0.5" stroke-width="0.03" stroke-linecap="butt" stroke-linejoin="miter" stroke="rgb(60.392157%, 44.705882%, 67.45098%)" stroke-opacity="0.5" stroke-miterlimit="10" d="M -3.01314 -1.526632 C -3.072225 -1.542027 -3.131244 -1.557487 -3.190329 -1.572947 " transform="matrix(59.96393, 0, 0, -59.882122, 219.5, 190.5)"/>
<path fill-rule="nonzero" fill="rgb(60.392157%, 44.705882%, 67.45098%)" fill-opacity="0.5" stroke-width="0.03" stroke-linecap="butt" stroke-linejoin="miter" stroke="rgb(60.392157%, 44.705882%, 67.45098%)" stroke-opacity="0.5" stroke-miterlimit="10" d="M -3.190329 -1.572947 C -3.131244 -1.588342 -3.072225 -1.603802 -3.01314 -1.619197 " transform="matrix(59.96393, 0, 0, -59.882122, 219.5, 190.5)"/>
<path fill-rule="nonzero" fill="rgb(60.392157%, 44.705882%, 67.45098%)" fill-opacity="0.5" stroke-width="0.03" stroke-linecap="butt" stroke-linejoin="miter" stroke="rgb(60.392157%, 44.705882%, 67.45098%)" stroke-opacity="0.5" stroke-miterlimit="10" d="M -2.813736 -1.671317 C -2.754651 -1.686712 -2.695566 -1.702172 -2.636481 -1.717567 " transform="matrix(59.96393, 0, 0, -59.882122, 219.5, 190.5)"/>
<path fill-rule="nonzero" fill="rgb(60.392157%, 44.705882%, 67.45098%)" fill-opacity="0.5" stroke-width="0.03" stroke-linecap="butt" stroke-linejoin="miter" stroke="rgb(60.392157%, 44.705882%, 67.45098%)" stroke-opacity="0.5" stroke-miterlimit="10" d="M -2.437077 -1.769688 C -2.377992 -1.785083 -2.318907 -1.800543 -2.259822 -1.816003 " transform="matrix(59.96393, 0, 0, -59.882122, 219.5, 190.5)"/>
<path fill-rule="nonzero" fill="rgb(60.392157%, 44.705882%, 67.45098%)" fill-opacity="0.5" stroke-width="0.03" stroke-linecap="butt" stroke-linejoin="miter" stroke="rgb(60.392157%, 44.705882%, 67.45098%)" stroke-opacity="0.5" stroke-miterlimit="10" d="M -2.060418 -1.868058 C -2.001333 -1.883518 -1.942248 -1.898913 -1.883228 -1.914373 " transform="matrix(59.96393, 0, 0, -59.882122, 219.5, 190.5)"/>
<path fill-rule="nonzero" fill="rgb(60.392157%, 44.705882%, 67.45098%)" fill-opacity="0.5" stroke-width="0.03" stroke-linecap="butt" stroke-linejoin="miter" stroke="rgb(60.392157%, 44.705882%, 67.45098%)" stroke-opacity="0.5" stroke-miterlimit="10" d="M -1.683825 -1.966428 C -1.62474 -1.981888 -1.565655 -1.997283 -1.50657 -2.012743 " transform="matrix(59.96393, 0, 0, -59.882122, 219.5, 190.5)"/>
<path fill-rule="nonzero" fill="rgb(60.392157%, 44.705882%, 67.45098%)" fill-opacity="0.5" stroke-width="0.03" stroke-linecap="butt" stroke-linejoin="miter" stroke="rgb(60.392157%, 44.705882%, 67.45098%)" stroke-opacity="0.5" stroke-miterlimit="10" d="M -1.307166 -2.064799 C -1.248081 -2.080259 -1.188996 -2.095654 -1.129911 -2.111114 " transform="matrix(59.96393, 0, 0, -59.882122, 219.5, 190.5)"/>
<path fill-rule="nonzero" fill="rgb(60.392157%, 44.705882%, 67.45098%)" fill-opacity="0.5" stroke-width="0.03" stroke-linecap="butt" stroke-linejoin="miter" stroke="rgb(60.392157%, 44.705882%, 67.45098%)" stroke-opacity="0.5" stroke-miterlimit="10" d="M -0.930507 -2.163169 C -0.871422 -2.178629 -0.812337 -2.194089 -0.753252 -2.209484 " transform="matrix(59.96393, 0, 0, -59.882122, 219.5, 190.5)"/>
<path fill-rule="nonzero" fill="rgb(60.392157%, 44.705882%, 67.45098%)" fill-opacity="0.5" stroke-width="0.03" stroke-linecap="butt" stroke-linejoin="miter" stroke="rgb(60.392157%, 44.705882%, 67.45098%)" stroke-opacity="0.5" stroke-miterlimit="10" d="M -0.553914 -2.261605 C -0.494829 -2.277 -0.435744 -2.29246 -0.376659 -2.307854 " transform="matrix(59.96393, 0, 0, -59.882122, 219.5, 190.5)"/>
<path fill-rule="nonzero" fill="rgb(60.392157%, 44.705882%, 67.45098%)" fill-opacity="0.5" stroke-width="0.03" stroke-linecap="butt" stroke-linejoin="miter" stroke="rgb(60.392157%, 44.705882%, 67.45098%)" stroke-opacity="0.5" stroke-miterlimit="10" d="M -0.177255 -2.359975 C -0.11817 -2.37537 -0.059085 -2.39083 0 -2.406225 " transform="matrix(59.96393, 0, 0, -59.882122, 219.5, 190.5)"/>
<path fill-rule="nonzero" fill="rgb(60.392157%, 44.705882%, 67.45098%)" fill-opacity="0.5" d="M 225.496094 334.589844 C 225.496094 333.003906 224.863281 331.480469 223.738281 330.355469 C 222.617188 329.234375 221.089844 328.601562 219.5 328.601562 C 217.910156 328.601562 216.382812 329.234375 215.261719 330.355469 C 214.136719 331.480469 213.503906 333.003906 213.503906 334.589844 C 213.503906 336.179688 214.136719 337.703125 215.261719 338.824219 C 216.382812 339.949219 217.910156 340.578125 219.5 340.578125 C 221.089844 340.578125 222.617188 339.949219 223.738281 338.824219 C 224.863281 337.703125 225.496094 336.179688 225.496094 334.589844 Z M 225.496094 334.589844 "/>
<path fill-rule="nonzero" fill="rgb(60.392157%, 44.705882%, 67.45098%)" fill-opacity="0.5" d="M 416.800781 284.691406 C 416.800781 283.101562 416.171875 281.578125 415.046875 280.457031 C 413.921875 279.332031 412.398438 278.703125 410.804688 278.703125 C 409.214844 278.703125 407.691406 279.332031 406.566406 280.457031 C 405.441406 281.578125 404.808594 283.101562 404.808594 284.691406 C 404.808594 286.277344 405.441406 287.800781 406.566406 288.925781 C 407.691406 290.046875 409.214844 290.679688 410.804688 290.679688 C 412.398438 290.679688 413.921875 290.046875 415.046875 288.925781 C 416.171875 287.800781 416.800781 286.277344 416.800781 284.691406 Z M 416.800781 284.691406 "/>
<path fill-rule="nonzero" fill="rgb(60.392157%, 44.705882%, 67.45098%)" fill-opacity="0.5" d="M 225.496094 234.789062 C 225.496094 233.199219 224.863281 231.675781 223.738281 230.554688 C 222.617188 229.429688 221.089844 228.800781 219.5 228.800781 C 217.910156 228.800781 216.382812 229.429688 215.261719 230.554688 C 214.136719 231.675781 213.503906 233.199219 213.503906 234.789062 C 213.503906 236.375 214.136719 237.898438 215.261719 239.023438 C 216.382812 240.144531 217.910156 240.777344 219.5 240.777344 C 221.089844 240.777344 222.617188 240.144531 223.738281 239.023438 C 224.863281 237.898438 225.496094 236.375 225.496094 234.789062 Z M 225.496094 234.789062 "/>
<path fill-rule="nonzero" fill="rgb(60.392157%, 44.705882%, 67.45098%)" fill-opacity="0.5" d="M 34.191406 284.691406 C 34.191406 283.101562 33.558594 281.578125 32.433594 280.457031 C 31.308594 279.332031 29.785156 278.703125 28.195312 278.703125 C 26.601562 278.703125 25.078125 279.332031 23.953125 280.457031 C 22.828125 281.578125 22.199219 283.101562 22.199219 284.691406 C 22.199219 286.277344 22.828125 287.800781 23.953125 288.925781 C 25.078125 290.046875 26.601562 290.679688 28.195312 290.679688 C 29.785156 290.679688 31.308594 290.046875 32.433594 288.925781 C 33.558594 287.800781 34.191406 286.277344 34.191406 284.691406 Z M 34.191406 284.691406 "/>
<path fill="none" stroke-width="0.03" stroke-linecap="butt" stroke-linejoin="miter" stroke="rgb(60.392157%, 44.705882%, 67.45098%)" stroke-opacity="1" stroke-miterlimit="10" d="M 0 -2.406225 C 0.065469 -2.406225 0.130938 -2.406225 0.196407 -2.406225 " transform="matrix(59.96393, 0, 0, -59.882122, 219.5, 190.5)"/>
<path fill="none" stroke-width="0.03" stroke-linecap="butt" stroke-linejoin="miter" stroke="rgb(60.392157%, 44.705882%, 67.45098%)" stroke-opacity="1" stroke-miterlimit="10" d="M 0.417373 -2.406225 C 0.482842 -2.406225 0.548311 -2.406225 0.61378 -2.406225 " transform="matrix(59.96393, 0, 0, -59.882122, 219.5, 190.5)"/>
<path fill="none" stroke-width="0.03" stroke-linecap="butt" stroke-linejoin="miter" stroke="rgb(60.392157%, 44.705882%, 67.45098%)" stroke-opacity="1" stroke-miterlimit="10" d="M 0.834747 -2.406225 C 0.900281 -2.406225 0.96575 -2.406225 1.031219 -2.406225 " transform="matrix(59.96393, 0, 0, -59.882122, 219.5, 190.5)"/>
<path fill="none" stroke-width="0.03" stroke-linecap="butt" stroke-linejoin="miter" stroke="rgb(60.392157%, 44.705882%, 67.45098%)" stroke-opacity="1" stroke-miterlimit="10" d="M 1.252185 -2.406225 C 1.317654 -2.406225 1.383123 -2.406225 1.448592 -2.406225 " transform="matrix(59.96393, 0, 0, -59.882122, 219.5, 190.5)"/>
<path fill="none" stroke-width="0.03" stroke-linecap="butt" stroke-linejoin="miter" stroke="rgb(60.392157%, 44.705882%, 67.45098%)" stroke-opacity="1" stroke-miterlimit="10" d="M 1.669558 -2.406225 C 1.735027 -2.406225 1.800496 -2.406225 1.865965 -2.406225 " transform="matrix(59.96393, 0, 0, -59.882122, 219.5, 190.5)"/>
<path fill="none" stroke-width="0.03" stroke-linecap="butt" stroke-linejoin="miter" stroke="rgb(60.392157%, 44.705882%, 67.45098%)" stroke-opacity="1" stroke-miterlimit="10" d="M 2.086932 -2.406225 C 2.152401 -2.406225 2.21787 -2.406225 2.283339 -2.406225 " transform="matrix(59.96393, 0, 0, -59.882122, 219.5, 190.5)"/>
<path fill="none" stroke-width="0.03" stroke-linecap="butt" stroke-linejoin="miter" stroke="rgb(60.392157%, 44.705882%, 67.45098%)" stroke-opacity="1" stroke-miterlimit="10" d="M 2.504305 -2.406225 C 2.569839 -2.406225 2.635308 -2.406225 2.700777 -2.406225 " transform="matrix(59.96393, 0, 0, -59.882122, 219.5, 190.5)"/>
<path fill="none" stroke-width="0.03" stroke-linecap="butt" stroke-linejoin="miter" stroke="rgb(60.392157%, 44.705882%, 67.45098%)" stroke-opacity="1" stroke-miterlimit="10" d="M 2.921743 -2.406225 C 2.987212 -2.406225 3.052682 -2.406225 3.118151 -2.406225 " transform="matrix(59.96393, 0, 0, -59.882122, 219.5, 190.5)"/>
<path fill="none" stroke-width="0.03" stroke-linecap="butt" stroke-linejoin="miter" stroke="rgb(60.392157%, 44.705882%, 67.45098%)" stroke-opacity="1" stroke-miterlimit="10" d="M 3.339117 -2.406225 C 3.404586 -2.406225 3.470055 -2.406225 3.535524 -2.406225 " transform="matrix(59.96393, 0, 0, -59.882122, 219.5, 190.5)"/>
<path fill="none" stroke-width="0.03" stroke-linecap="butt" stroke-linejoin="miter" stroke="rgb(60.392157%, 44.705882%, 67.45098%)" stroke-opacity="1" stroke-miterlimit="10" d="M 3.535524 -2.406225 C 3.470055 -2.406225 3.404586 -2.406225 3.339117 -2.406225 " transform="matrix(59.96393, 0, 0, -59.882122, 219.5, 190.5)"/>
<path fill="none" stroke-width="0.03" stroke-linecap="butt" stroke-linejoin="miter" stroke="rgb(60.392157%, 44.705882%, 67.45098%)" stroke-opacity="1" stroke-miterlimit="10" d="M 3.118151 -2.406225 C 3.052682 -2.406225 2.987212 -2.406225 2.921743 -2.406225 " transform="matrix(59.96393, 0, 0, -59.882122, 219.5, 190.5)"/>
<path fill="none" stroke-width="0.03" stroke-linecap="butt" stroke-linejoin="miter" stroke="rgb(60.392157%, 44.705882%, 67.45098%)" stroke-opacity="1" stroke-miterlimit="10" d="M 2.700777 -2.406225 C 2.635308 -2.406225 2.569839 -2.406225 2.504305 -2.406225 " transform="matrix(59.96393, 0, 0, -59.882122, 219.5, 190.5)"/>
<path fill="none" stroke-width="0.03" stroke-linecap="butt" stroke-linejoin="miter" stroke="rgb(60.392157%, 44.705882%, 67.45098%)" stroke-opacity="1" stroke-miterlimit="10" d="M 2.283339 -2.406225 C 2.21787 -2.406225 2.152401 -2.406225 2.086932 -2.406225 " transform="matrix(59.96393, 0, 0, -59.882122, 219.5, 190.5)"/>
<path fill="none" stroke-width="0.03" stroke-linecap="butt" stroke-linejoin="miter" stroke="rgb(60.392157%, 44.705882%, 67.45098%)" stroke-opacity="1" stroke-miterlimit="10" d="M 1.865965 -2.406225 C 1.800496 -2.406225 1.735027 -2.406225 1.669558 -2.406225 " transform="matrix(59.96393, 0, 0, -59.882122, 219.5, 190.5)"/>
<path fill="none" stroke-width="0.03" stroke-linecap="butt" stroke-linejoin="miter" stroke="rgb(60.392157%, 44.705882%, 67.45098%)" stroke-opacity="1" stroke-miterlimit="10" d="M 1.448592 -2.406225 C 1.383123 -2.406225 1.317654 -2.406225 1.252185 -2.406225 " transform="matrix(59.96393, 0, 0, -59.882122, 219.5, 190.5)"/>
<path fill="none" stroke-width="0.03" stroke-linecap="butt" stroke-linejoin="miter" stroke="rgb(60.392157%, 44.705882%, 67.45098%)" stroke-opacity="1" stroke-miterlimit="10" d="M 1.031219 -2.406225 C 0.96575 -2.406225 0.900281 -2.406225 0.834747 -2.406225 " transform="matrix(59.96393, 0, 0, -59.882122, 219.5, 190.5)"/>
<path fill="none" stroke-width="0.03" stroke-linecap="butt" stroke-linejoin="miter" stroke="rgb(60.392157%, 44.705882%, 67.45098%)" stroke-opacity="1" stroke-miterlimit="10" d="M 0.61378 -2.406225 C 0.548311 -2.406225 0.482842 -2.406225 0.417373 -2.406225 " transform="matrix(59.96393, 0, 0, -59.882122, 219.5, 190.5)"/>
<path fill="none" stroke-width="0.03" stroke-linecap="butt" stroke-linejoin="miter" stroke="rgb(60.392157%, 44.705882%, 67.45098%)" stroke-opacity="1" stroke-miterlimit="10" d="M 0.196407 -2.406225 C 0.130938 -2.406225 0.065469 -2.406225 0 -2.406225 " transform="matrix(59.96393, 0, 0, -59.882122, 219.5, 190.5)"/>
<path fill="none" stroke-width="0.03" stroke-linecap="butt" stroke-linejoin="miter" stroke="rgb(60.392157%, 44.705882%, 67.45098%)" stroke-opacity="1" stroke-miterlimit="10" d="M 0 -2.406225 C -0.065469 -2.406225 -0.130938 -2.406225 -0.196407 -2.406225 " transform="matrix(59.96393, 0, 0, -59.882122, 219.5, 190.5)"/>
<path fill="none" stroke-width="0.03" stroke-linecap="butt" stroke-linejoin="miter" stroke="rgb(60.392157%, 44.705882%, 67.45098%)" stroke-opacity="1" stroke-miterlimit="10" d="M -0.417373 -2.406225 C -0.482842 -2.406225 -0.548311 -2.406225 -0.61378 -2.406225 " transform="matrix(59.96393, 0, 0, -59.882122, 219.5, 190.5)"/>
<path fill="none" stroke-width="0.03" stroke-linecap="butt" stroke-linejoin="miter" stroke="rgb(60.392157%, 44.705882%, 67.45098%)" stroke-opacity="1" stroke-miterlimit="10" d="M -0.834747 -2.406225 C -0.900281 -2.406225 -0.96575 -2.406225 -1.031219 -2.406225 " transform="matrix(59.96393, 0, 0, -59.882122, 219.5, 190.5)"/>
<path fill="none" stroke-width="0.03" stroke-linecap="butt" stroke-linejoin="miter" stroke="rgb(60.392157%, 44.705882%, 67.45098%)" stroke-opacity="1" stroke-miterlimit="10" d="M -1.252185 -2.406225 C -1.317654 -2.406225 -1.383123 -2.406225 -1.448592 -2.406225 " transform="matrix(59.96393, 0, 0, -59.882122, 219.5, 190.5)"/>
<path fill="none" stroke-width="0.03" stroke-linecap="butt" stroke-linejoin="miter" stroke="rgb(60.392157%, 44.705882%, 67.45098%)" stroke-opacity="1" stroke-miterlimit="10" d="M -1.669558 -2.406225 C -1.735027 -2.406225 -1.800496 -2.406225 -1.865965 -2.406225 " transform="matrix(59.96393, 0, 0, -59.882122, 219.5, 190.5)"/>
<path fill="none" stroke-width="0.03" stroke-linecap="butt" stroke-linejoin="miter" stroke="rgb(60.392157%, 44.705882%, 67.45098%)" stroke-opacity="1" stroke-miterlimit="10" d="M -2.086932 -2.406225 C -2.152401 -2.406225 -2.21787 -2.406225 -2.283339 -2.406225 " transform="matrix(59.96393, 0, 0, -59.882122, 219.5, 190.5)"/>
<path fill="none" stroke-width="0.03" stroke-linecap="butt" stroke-linejoin="miter" stroke="rgb(60.392157%, 44.705882%, 67.45098%)" stroke-opacity="1" stroke-miterlimit="10" d="M -2.504305 -2.406225 C -2.569839 -2.406225 -2.635308 -2.406225 -2.700777 -2.406225 " transform="matrix(59.96393, 0, 0, -59.882122, 219.5, 190.5)"/>
<path fill="none" stroke-width="0.03" stroke-linecap="butt" stroke-linejoin="miter" stroke="rgb(60.392157%, 44.705882%, 67.45098%)" stroke-opacity="1" stroke-miterlimit="10" d="M -2.921743 -2.406225 C -2.987212 -2.406225 -3.052682 -2.406225 -3.118151 -2.406225 " transform="matrix(59.96393, 0, 0, -59.882122, 219.5, 190.5)"/>
<path fill="none" stroke-width="0.03" stroke-linecap="butt" stroke-linejoin="miter" stroke="rgb(60.392157%, 44.705882%, 67.45098%)" stroke-opacity="1" stroke-miterlimit="10" d="M -3.339117 -2.406225 C -3.404586 -2.406225 -3.470055 -2.406225 -3.535524 -2.406225 " transform="matrix(59.96393, 0, 0, -59.882122, 219.5, 190.5)"/>
<path fill="none" stroke-width="0.03" stroke-linecap="butt" stroke-linejoin="miter" stroke="rgb(60.392157%, 44.705882%, 67.45098%)" stroke-opacity="1" stroke-miterlimit="10" d="M -3.535524 -2.406225 C -3.470055 -2.406225 -3.404586 -2.406225 -3.339117 -2.406225 " transform="matrix(59.96393, 0, 0, -59.882122, 219.5, 190.5)"/>
<path fill="none" stroke-width="0.03" stroke-linecap="butt" stroke-linejoin="miter" stroke="rgb(60.392157%, 44.705882%, 67.45098%)" stroke-opacity="1" stroke-miterlimit="10" d="M -3.118151 -2.406225 C -3.052682 -2.406225 -2.987212 -2.406225 -2.921743 -2.406225 " transform="matrix(59.96393, 0, 0, -59.882122, 219.5, 190.5)"/>
<path fill="none" stroke-width="0.03" stroke-linecap="butt" stroke-linejoin="miter" stroke="rgb(60.392157%, 44.705882%, 67.45098%)" stroke-opacity="1" stroke-miterlimit="10" d="M -2.700777 -2.406225 C -2.635308 -2.406225 -2.569839 -2.406225 -2.504305 -2.406225 " transform="matrix(59.96393, 0, 0, -59.882122, 219.5, 190.5)"/>
<path fill="none" stroke-width="0.03" stroke-linecap="butt" stroke-linejoin="miter" stroke="rgb(60.392157%, 44.705882%, 67.45098%)" stroke-opacity="1" stroke-miterlimit="10" d="M -2.283339 -2.406225 C -2.21787 -2.406225 -2.152401 -2.406225 -2.086932 -2.406225 " transform="matrix(59.96393, 0, 0, -59.882122, 219.5, 190.5)"/>
<path fill="none" stroke-width="0.03" stroke-linecap="butt" stroke-linejoin="miter" stroke="rgb(60.392157%, 44.705882%, 67.45098%)" stroke-opacity="1" stroke-miterlimit="10" d="M -1.865965 -2.406225 C -1.800496 -2.406225 -1.735027 -2.406225 -1.669558 -2.406225 " transform="matrix(59.96393, 0, 0, -59.882122, 219.5, 190.5)"/>
<path fill="none" stroke-width="0.03" stroke-linecap="butt" stroke-linejoin="miter" stroke="rgb(60.392157%, 44.705882%, 67.45098%)" stroke-opacity="1" stroke-miterlimit="10" d="M -1.448592 -2.406225 C -1.383123 -2.406225 -1.317654 -2.406225 -1.252185 -2.406225 " transform="matrix(59.96393, 0, 0, -59.882122, 219.5, 190.5)"/>
<path fill="none" stroke-width="0.03" stroke-linecap="butt" stroke-linejoin="miter" stroke="rgb(60.392157%, 44.705882%, 67.45098%)" stroke-opacity="1" stroke-miterlimit="10" d="M -1.031219 -2.406225 C -0.96575 -2.406225 -0.900281 -2.406225 -0.834747 -2.406225 " transform="matrix(59.96393, 0, 0, -59.882122, 219.5, 190.5)"/>
<path fill="none" stroke-width="0.03" stroke-linecap="butt" stroke-linejoin="miter" stroke="rgb(60.392157%, 44.705882%, 67.45098%)" stroke-opacity="1" stroke-miterlimit="10" d="M -0.61378 -2.406225 C -0.548311 -2.406225 -0.482842 -2.406225 -0.417373 -2.406225 " transform="matrix(59.96393, 0, 0, -59.882122, 219.5, 190.5)"/>
<path fill="none" stroke-width="0.03" stroke-linecap="butt" stroke-linejoin="miter" stroke="rgb(60.392157%, 44.705882%, 67.45098%)" stroke-opacity="1" stroke-miterlimit="10" d="M -0.196407 -2.406225 C -0.130938 -2.406225 -0.065469 -2.406225 0 -2.406225 " transform="matrix(59.96393, 0, 0, -59.882122, 219.5, 190.5)"/>
<path fill-rule="nonzero" fill="rgb(60.392157%, 44.705882%, 67.45098%)" fill-opacity="1" d="M 225.496094 334.589844 C 225.496094 333.003906 224.863281 331.480469 223.738281 330.355469 C 222.617188 329.234375 221.089844 328.601562 219.5 328.601562 C 217.910156 328.601562 216.382812 329.234375 215.261719 330.355469 C 214.136719 331.480469 213.503906 333.003906 213.503906 334.589844 C 213.503906 336.179688 214.136719 337.703125 215.261719 338.824219 C 216.382812 339.949219 217.910156 340.578125 219.5 340.578125 C 221.089844 340.578125 222.617188 339.949219 223.738281 338.824219 C 224.863281 337.703125 225.496094 336.179688 225.496094 334.589844 Z M 225.496094 334.589844 "/>
<path fill-rule="nonzero" fill="rgb(60.392157%, 44.705882%, 67.45098%)" fill-opacity="1" d="M 437.5 334.589844 C 437.5 333.003906 436.871094 331.480469 435.746094 330.355469 C 434.621094 329.234375 433.09375 328.601562 431.503906 328.601562 C 429.914062 328.601562 428.390625 329.234375 427.265625 330.355469 C 426.140625 331.480469 425.507812 333.003906 425.507812 334.589844 C 425.507812 336.179688 426.140625 337.703125 427.265625 338.824219 C 428.390625 339.949219 429.914062 340.578125 431.503906 340.578125 C 433.09375 340.578125 434.621094 339.949219 435.746094 338.824219 C 436.871094 337.703125 437.5 336.179688 437.5 334.589844 Z M 437.5 334.589844 "/>
<path fill-rule="nonzero" fill="rgb(60.392157%, 44.705882%, 67.45098%)" fill-opacity="1" d="M 225.496094 334.589844 C 225.496094 333.003906 224.863281 331.480469 223.738281 330.355469 C 222.617188 329.234375 221.089844 328.601562 219.5 328.601562 C 217.910156 328.601562 216.382812 329.234375 215.261719 330.355469 C 214.136719 331.480469 213.503906 333.003906 213.503906 334.589844 C 213.503906 336.179688 214.136719 337.703125 215.261719 338.824219 C 216.382812 339.949219 217.910156 340.578125 219.5 340.578125 C 221.089844 340.578125 222.617188 339.949219 223.738281 338.824219 C 224.863281 337.703125 225.496094 336.179688 225.496094 334.589844 Z M 225.496094 334.589844 "/>
<path fill-rule="nonzero" fill="rgb(60.392157%, 44.705882%, 67.45098%)" fill-opacity="1" d="M 13.492188 334.589844 C 13.492188 333.003906 12.859375 331.480469 11.734375 330.355469 C 10.609375 329.234375 9.085938 328.601562 7.496094 328.601562 C 5.90625 328.601562 4.378906 329.234375 3.253906 330.355469 C 2.128906 331.480469 1.5 333.003906 1.5 334.589844 C 1.5 336.179688 2.128906 337.703125 3.253906 338.824219 C 4.378906 339.949219 5.90625 340.578125 7.496094 340.578125 C 9.085938 340.578125 10.609375 339.949219 11.734375 338.824219 C 12.859375 337.703125 13.492188 336.179688 13.492188 334.589844 Z M 13.492188 334.589844 "/>
</svg>
