<?xml version="1.0" encoding="UTF-8"?>
<svg xmlns="http://www.w3.org/2000/svg" xmlns:xlink="http://www.w3.org/1999/xlink" width="4573" height="1470" viewBox="0 0 4573 1470">
<path fill="none" stroke-width="0.2" stroke-linecap="butt" stroke-linejoin="miter" stroke="rgb(98.823529%, 38.431373%, 33.333333%)" stroke-opacity="1" stroke-miterlimit="10" d="M -36.027421 3.575 C -33.72743 3.575 -31.427439 3.575 -29.127383 3.575 " transform="matrix(60.037603, 0, 0, -60, 2286.5, 735)"/>
<path fill="none" stroke-width="0.2" stroke-linecap="butt" stroke-linejoin="miter" stroke="rgb(98.823529%, 38.431373%, 33.333333%)" stroke-opacity="1" stroke-miterlimit="10" d="M -28.527434 3.575 C -26.227443 3.575 -23.927387 3.575 -21.627396 3.575 " transform="matrix(60.037603, 0, 0, -60, 2286.5, 735)"/>
<path fill="none" stroke-width="0.2" stroke-linecap="butt" stroke-linejoin="miter" stroke="rgb(98.823529%, 38.431373%, 33.333333%)" stroke-opacity="1" stroke-miterlimit="10" d="M -21.027447 3.575 C -18.727391 3.575 -16.4274 3.575 -14.127409 3.575 " transform="matrix(60.037603, 0, 0, -60, 2286.5, 735)"/>
<path fill="none" stroke-width="0.2" stroke-linecap="butt" stroke-linejoin="miter" stroke="rgb(98.823529%, 38.431373%, 33.333333%)" stroke-opacity="1" stroke-miterlimit="10" d="M -13.527395 3.575 C -11.227404 3.575 -8.927413 3.575 -6.627422 3.575 " transform="matrix(60.037603, 0, 0, -60, 2286.5, 735)"/>
<path fill="none" stroke-width="0.2" stroke-linecap="butt" stroke-linejoin="miter" stroke="rgb(98.823529%, 38.431373%, 33.333333%)" stroke-opacity="1" stroke-miterlimit="10" d="M -6.027407 3.575 C -3.727417 3.575 -1.427426 3.575 0.872565 3.575 " transform="matrix(60.037603, 0, 0, -60, 2286.5, 735)"/>
<path fill="none" stroke-width="0.2" stroke-linecap="butt" stroke-linejoin="miter" stroke="rgb(98.823529%, 38.431373%, 33.333333%)" stroke-opacity="1" stroke-miterlimit="10" d="M 1.47258 3.575 C 3.772571 3.575 6.072561 3.575 8.372617 3.575 " transform="matrix(60.037603, 0, 0, -60, 2286.5, 735)"/>
<path fill="none" stroke-width="0.2" stroke-linecap="butt" stroke-linejoin="miter" stroke="rgb(98.823529%, 38.431373%, 33.333333%)" stroke-opacity="1" stroke-miterlimit="10" d="M 8.972567 3.575 C 11.272558 3.575 13.572614 3.575 15.872604 3.575 " transform="matrix(60.037603, 0, 0, -60, 2286.5, 735)"/>
<path fill="none" stroke-width="0.2" stroke-linecap="butt" stroke-linejoin="miter" stroke="rgb(98.823529%, 38.431373%, 33.333333%)" stroke-opacity="1" stroke-miterlimit="10" d="M 16.472554 3.575 C 18.77261 3.575 21.072601 3.575 23.372592 3.575 " transform="matrix(60.037603, 0, 0, -60, 2286.5, 735)"/>
<path fill="none" stroke-width="0.2" stroke-linecap="butt" stroke-linejoin="miter" stroke="rgb(98.823529%, 38.431373%, 33.333333%)" stroke-opacity="1" stroke-miterlimit="10" d="M 23.460427 3.787109 C 21.101879 6.145703 18.743266 8.504297 16.384718 10.862891 " transform="matrix(60.037603, 0, 0, -60, 2286.5, 735)"/>
<path fill="none" stroke-width="0.2" stroke-linecap="butt" stroke-linejoin="miter" stroke="rgb(98.823529%, 38.431373%, 33.333333%)" stroke-opacity="1" stroke-miterlimit="10" d="M 15.872604 11.075 C 13.572614 11.075 11.272558 11.075 8.972567 11.075 " transform="matrix(60.037603, 0, 0, -60, 2286.5, 735)"/>
<path fill="none" stroke-width="0.2" stroke-linecap="butt" stroke-linejoin="miter" stroke="rgb(98.823529%, 38.431373%, 33.333333%)" stroke-opacity="1" stroke-miterlimit="10" d="M 8.372617 11.075 C 6.072561 11.075 3.772571 11.075 1.47258 11.075 " transform="matrix(60.037603, 0, 0, -60, 2286.5, 735)"/>
<path fill="none" stroke-width="0.2" stroke-linecap="butt" stroke-linejoin="miter" stroke="rgb(98.823529%, 38.431373%, 33.333333%)" stroke-opacity="1" stroke-miterlimit="10" d="M 0.872565 11.075 C -1.427426 11.075 -3.727417 11.075 -6.027407 11.075 " transform="matrix(60.037603, 0, 0, -60, 2286.5, 735)"/>
<path fill="none" stroke-width="0.2" stroke-linecap="butt" stroke-linejoin="miter" stroke="rgb(98.823529%, 38.431373%, 33.333333%)" stroke-opacity="1" stroke-miterlimit="10" d="M -6.627422 11.075 C -8.927413 11.075 -11.227404 11.075 -13.527395 11.075 " transform="matrix(60.037603, 0, 0, -60, 2286.5, 735)"/>
<path fill="none" stroke-width="0.2" stroke-linecap="butt" stroke-linejoin="miter" stroke="rgb(98.823529%, 38.431373%, 33.333333%)" stroke-opacity="1" stroke-miterlimit="10" d="M -14.127409 11.075 C -16.4274 11.075 -18.727391 11.075 -21.027447 11.075 " transform="matrix(60.037603, 0, 0, -60, 2286.5, 735)"/>
<path fill="none" stroke-width="0.2" stroke-linecap="butt" stroke-linejoin="miter" stroke="rgb(98.823529%, 38.431373%, 33.333333%)" stroke-opacity="1" stroke-miterlimit="10" d="M -21.627396 11.075 C -23.927387 11.075 -26.227443 11.075 -28.527434 11.075 " transform="matrix(60.037603, 0, 0, -60, 2286.5, 735)"/>
<path fill="none" stroke-width="0.2" stroke-linecap="butt" stroke-linejoin="miter" stroke="rgb(98.823529%, 38.431373%, 33.333333%)" stroke-opacity="1" stroke-miterlimit="10" d="M -36.115257 3.787109 C -33.756709 6.145703 -31.398096 8.504297 -29.039548 10.862891 " transform="matrix(60.037603, 0, 0, -60, 2286.5, 735)"/>
<path fill="none" stroke-width="0.2" stroke-linecap="butt" stroke-linejoin="miter" stroke="rgb(98.823529%, 38.431373%, 33.333333%)" stroke-opacity="1" stroke-miterlimit="10" d="M -28.827441 3.875 C -28.827441 6.175 -28.827441 8.475 -28.827441 10.775 " transform="matrix(60.037603, 0, 0, -60, 2286.5, 735)"/>
<path fill="none" stroke-width="0.2" stroke-linecap="butt" stroke-linejoin="miter" stroke="rgb(98.823529%, 38.431373%, 33.333333%)" stroke-opacity="1" stroke-miterlimit="10" d="M -21.327389 3.875 C -21.327389 6.175 -21.327389 8.475 -21.327389 10.775 " transform="matrix(60.037603, 0, 0, -60, 2286.5, 735)"/>
<path fill="none" stroke-width="0.2" stroke-linecap="butt" stroke-linejoin="miter" stroke="rgb(98.823529%, 38.431373%, 33.333333%)" stroke-opacity="1" stroke-miterlimit="10" d="M -13.827402 3.875 C -13.827402 6.175 -13.827402 8.475 -13.827402 10.775 " transform="matrix(60.037603, 0, 0, -60, 2286.5, 735)"/>
<path fill="none" stroke-width="0.2" stroke-linecap="butt" stroke-linejoin="miter" stroke="rgb(98.823529%, 38.431373%, 33.333333%)" stroke-opacity="1" stroke-miterlimit="10" d="M -6.327415 3.875 C -6.327415 6.175 -6.327415 8.475 -6.327415 10.775 " transform="matrix(60.037603, 0, 0, -60, 2286.5, 735)"/>
<path fill="none" stroke-width="0.2" stroke-linecap="butt" stroke-linejoin="miter" stroke="rgb(98.823529%, 38.431373%, 33.333333%)" stroke-opacity="1" stroke-miterlimit="10" d="M 1.172572 3.875 C 1.172572 6.175 1.172572 8.475 1.172572 10.775 " transform="matrix(60.037603, 0, 0, -60, 2286.5, 735)"/>
<path fill="none" stroke-width="0.2" stroke-linecap="butt" stroke-linejoin="miter" stroke="rgb(98.823529%, 38.431373%, 33.333333%)" stroke-opacity="1" stroke-miterlimit="10" d="M 8.67256 3.875 C 8.67256 6.175 8.67256 8.475 8.67256 10.775 " transform="matrix(60.037603, 0, 0, -60, 2286.5, 735)"/>
<path fill="none" stroke-width="0.2" stroke-linecap="butt" stroke-linejoin="miter" stroke="rgb(98.823529%, 38.431373%, 33.333333%)" stroke-opacity="1" stroke-miterlimit="10" d="M 16.172612 3.875 C 16.172612 6.175 16.172612 8.475 16.172612 10.775 " transform="matrix(60.037603, 0, 0, -60, 2286.5, 735)"/>
<path fill="none" stroke-width="0.2" stroke-linecap="butt" stroke-linejoin="miter" stroke="rgb(98.823529%, 38.431373%, 33.333333%)" stroke-opacity="1" stroke-miterlimit="10" d="M -21.539561 3.787109 C -23.898109 6.145703 -26.256722 8.504297 -28.61527 10.862891 " transform="matrix(60.037603, 0, 0, -60, 2286.5, 735)"/>
<path fill="none" stroke-width="0.2" stroke-linecap="butt" stroke-linejoin="miter" stroke="rgb(98.823529%, 38.431373%, 33.333333%)" stroke-opacity="1" stroke-miterlimit="10" d="M -14.039574 3.787109 C -16.398121 6.145703 -18.756734 8.504297 -21.115282 10.862891 " transform="matrix(60.037603, 0, 0, -60, 2286.5, 735)"/>
<path fill="none" stroke-width="0.2" stroke-linecap="butt" stroke-linejoin="miter" stroke="rgb(98.823529%, 38.431373%, 33.333333%)" stroke-opacity="1" stroke-miterlimit="10" d="M -6.539521 3.787109 C -8.898134 6.145703 -11.256682 8.504297 -13.615295 10.862891 " transform="matrix(60.037603, 0, 0, -60, 2286.5, 735)"/>
<path fill="none" stroke-width="0.2" stroke-linecap="butt" stroke-linejoin="miter" stroke="rgb(98.823529%, 38.431373%, 33.333333%)" stroke-opacity="1" stroke-miterlimit="10" d="M -6.115308 3.787109 C -3.756695 6.145703 -1.398147 8.504297 0.960466 10.862891 " transform="matrix(60.037603, 0, 0, -60, 2286.5, 735)"/>
<path fill="none" stroke-width="0.2" stroke-linecap="butt" stroke-linejoin="miter" stroke="rgb(98.823529%, 38.431373%, 33.333333%)" stroke-opacity="1" stroke-miterlimit="10" d="M 1.384744 3.787109 C 3.743292 6.145703 6.101905 8.504297 8.460453 10.862891 " transform="matrix(60.037603, 0, 0, -60, 2286.5, 735)"/>
<path fill="none" stroke-width="0.2" stroke-linecap="butt" stroke-linejoin="miter" stroke="rgb(98.823529%, 38.431373%, 33.333333%)" stroke-opacity="1" stroke-miterlimit="10" d="M 8.884731 3.787109 C 11.243279 6.145703 13.601892 8.504297 15.96044 10.862891 " transform="matrix(60.037603, 0, 0, -60, 2286.5, 735)"/>
<path fill="none" stroke-width="0.04" stroke-linecap="butt" stroke-linejoin="miter" stroke="rgb(0%, 0%, 0%)" stroke-opacity="1" stroke-miterlimit="10" d="M -36.327428 3.575 C -36.712343 2.908333 -37.097193 2.241667 -37.482108 1.575 C -36.712343 1.575 -35.942513 1.575 -35.172683 1.575 C -35.557598 2.241667 -35.942513 2.908333 -36.327428 3.575 Z M -36.327428 3.575 " transform="matrix(60.037603, 0, 0, -60, 2286.5, 735)"/>
<path fill="none" stroke-width="0.04" stroke-linecap="butt" stroke-linejoin="miter" stroke="rgb(0%, 0%, 0%)" stroke-opacity="1" stroke-miterlimit="10" d="M -34.595376 1.575 C -35.750056 1.575 -36.904736 1.575 -38.059481 1.575 " transform="matrix(60.037603, 0, 0, -60, 2286.5, 735)"/>
<path fill="none" stroke-width="0.04" stroke-linecap="butt" stroke-linejoin="miter" stroke="rgb(0%, 0%, 0%)" stroke-opacity="1" stroke-miterlimit="10" d="M 23.672599 3.575 C 23.287684 2.908333 22.902769 2.241667 22.517854 1.575 C 23.287684 1.575 24.057514 1.575 24.827279 1.575 C 24.442364 2.241667 24.057514 2.908333 23.672599 3.575 Z M 23.672599 3.575 " transform="matrix(60.037603, 0, 0, -60, 2286.5, 735)"/>
<path fill="none" stroke-width="0.04" stroke-linecap="butt" stroke-linejoin="miter" stroke="rgb(0%, 0%, 0%)" stroke-opacity="1" stroke-miterlimit="10" d="M 25.404651 1.575 C 24.249906 1.575 23.095226 1.575 21.940546 1.575 " transform="matrix(60.037603, 0, 0, -60, 2286.5, 735)"/>
<path fill-rule="nonzero" fill="rgb(0%, 0%, 0%)" fill-opacity="1" d="M 123.5 520.5 C 123.5 515.726562 121.601562 511.148438 118.226562 507.773438 C 114.847656 504.394531 110.265625 502.5 105.488281 502.5 C 100.710938 502.5 96.132812 504.394531 92.753906 507.773438 C 89.375 511.148438 87.476562 515.726562 87.476562 520.5 C 87.476562 525.273438 89.375 529.851562 92.753906 533.226562 C 96.132812 536.605469 100.710938 538.5 105.488281 538.5 C 110.265625 538.5 114.847656 536.605469 118.226562 533.226562 C 121.601562 529.851562 123.5 525.273438 123.5 520.5 Z M 123.5 520.5 "/>
<path fill-rule="nonzero" fill="rgb(0%, 0%, 0%)" fill-opacity="1" d="M 573.78125 520.5 C 573.78125 515.726562 571.886719 511.148438 568.507812 507.773438 C 565.128906 504.394531 560.546875 502.5 555.769531 502.5 C 550.996094 502.5 546.414062 504.394531 543.035156 507.773438 C 539.65625 511.148438 537.761719 515.726562 537.761719 520.5 C 537.761719 525.273438 539.65625 529.851562 543.035156 533.226562 C 546.414062 536.605469 550.996094 538.5 555.769531 538.5 C 560.546875 538.5 565.128906 536.605469 568.507812 533.226562 C 571.886719 529.851562 573.78125 525.273438 573.78125 520.5 Z M 573.78125 520.5 "/>
<path fill-rule="nonzero" fill="rgb(0%, 0%, 0%)" fill-opacity="1" d="M 1024.0625 520.5 C 1024.0625 515.726562 1022.167969 511.148438 1018.789062 507.773438 C 1015.410156 504.394531 1010.828125 502.5 1006.054688 502.5 C 1001.277344 502.5 996.695312 504.394531 993.316406 507.773438 C 989.941406 511.148438 988.042969 515.726562 988.042969 520.5 C 988.042969 525.273438 989.941406 529.851562 993.316406 533.226562 C 996.695312 536.605469 1001.277344 538.5 1006.054688 538.5 C 1010.828125 538.5 1015.410156 536.605469 1018.789062 533.226562 C 1022.167969 529.851562 1024.0625 525.273438 1024.0625 520.5 Z M 1024.0625 520.5 "/>
<path fill-rule="nonzero" fill="rgb(0%, 0%, 0%)" fill-opacity="1" d="M 1474.347656 520.5 C 1474.347656 515.726562 1472.449219 511.148438 1469.070312 507.773438 C 1465.691406 504.394531 1461.113281 502.5 1456.335938 502.5 C 1451.558594 502.5 1446.976562 504.394531 1443.597656 507.773438 C 1440.222656 511.148438 1438.324219 515.726562 1438.324219 520.5 C 1438.324219 525.273438 1440.222656 529.851562 1443.597656 533.226562 C 1446.976562 536.605469 1451.558594 538.5 1456.335938 538.5 C 1461.113281 538.5 1465.691406 536.605469 1469.070312 533.226562 C 1472.449219 529.851562 1474.347656 525.273438 1474.347656 520.5 Z M 1474.347656 520.5 "/>
<path fill-rule="nonzero" fill="rgb(0%, 0%, 0%)" fill-opacity="1" d="M 1924.628906 520.5 C 1924.628906 515.726562 1922.730469 511.148438 1919.351562 507.773438 C 1915.976562 504.394531 1911.394531 502.5 1906.617188 502.5 C 1901.839844 502.5 1897.257812 504.394531 1893.882812 507.773438 C 1890.503906 511.148438 1888.605469 515.726562 1888.605469 520.5 C 1888.605469 525.273438 1890.503906 529.851562 1893.882812 533.226562 C 1897.257812 536.605469 1901.839844 538.5 1906.617188 538.5 C 1911.394531 538.5 1915.976562 536.605469 1919.351562 533.226562 C 1922.730469 529.851562 1924.628906 525.273438 1924.628906 520.5 Z M 1924.628906 520.5 "/>
<path fill-rule="nonzero" fill="rgb(0%, 0%, 0%)" fill-opacity="1" d="M 2374.910156 520.5 C 2374.910156 515.726562 2373.011719 511.148438 2369.636719 507.773438 C 2366.257812 504.394531 2361.675781 502.5 2356.898438 502.5 C 2352.121094 502.5 2347.542969 504.394531 2344.164062 507.773438 C 2340.785156 511.148438 2338.886719 515.726562 2338.886719 520.5 C 2338.886719 525.273438 2340.785156 529.851562 2344.164062 533.226562 C 2347.542969 536.605469 2352.121094 538.5 2356.898438 538.5 C 2361.675781 538.5 2366.257812 536.605469 2369.636719 533.226562 C 2373.011719 529.851562 2374.910156 525.273438 2374.910156 520.5 Z M 2374.910156 520.5 "/>
<path fill-rule="nonzero" fill="rgb(0%, 0%, 0%)" fill-opacity="1" d="M 2825.191406 520.5 C 2825.191406 515.726562 2823.292969 511.148438 2819.917969 507.773438 C 2816.539062 504.394531 2811.957031 502.5 2807.179688 502.5 C 2802.40625 502.5 2797.824219 504.394531 2794.445312 507.773438 C 2791.066406 511.148438 2789.171875 515.726562 2789.171875 520.5 C 2789.171875 525.273438 2791.066406 529.851562 2794.445312 533.226562 C 2797.824219 536.605469 2802.40625 538.5 2807.179688 538.5 C 2811.957031 538.5 2816.539062 536.605469 2819.917969 533.226562 C 2823.292969 529.851562 2825.191406 525.273438 2825.191406 520.5 Z M 2825.191406 520.5 "/>
<path fill-rule="nonzero" fill="rgb(0%, 0%, 0%)" fill-opacity="1" d="M 3275.472656 520.5 C 3275.472656 515.726562 3273.578125 511.148438 3270.199219 507.773438 C 3266.820312 504.394531 3262.238281 502.5 3257.464844 502.5 C 3252.6875 502.5 3248.105469 504.394531 3244.726562 507.773438 C 3241.347656 511.148438 3239.453125 515.726562 3239.453125 520.5 C 3239.453125 525.273438 3241.347656 529.851562 3244.726562 533.226562 C 3248.105469 536.605469 3252.6875 538.5 3257.464844 538.5 C 3262.238281 538.5 3266.820312 536.605469 3270.199219 533.226562 C 3273.578125 529.851562 3275.472656 525.273438 3275.472656 520.5 Z M 3275.472656 520.5 "/>
<path fill-rule="nonzero" fill="rgb(0%, 0%, 0%)" fill-opacity="1" d="M 3725.757812 520.5 C 3725.757812 515.726562 3723.859375 511.148438 3720.480469 507.773438 C 3717.101562 504.394531 3712.523438 502.5 3707.746094 502.5 C 3702.96875 502.5 3698.386719 504.394531 3695.007812 507.773438 C 3691.632812 511.148438 3689.734375 515.726562 3689.734375 520.5 C 3689.734375 525.273438 3691.632812 529.851562 3695.007812 533.226562 C 3698.386719 536.605469 3702.96875 538.5 3707.746094 538.5 C 3712.523438 538.5 3717.101562 536.605469 3720.480469 533.226562 C 3723.859375 529.851562 3725.757812 525.273438 3725.757812 520.5 Z M 3725.757812 520.5 "/>
<path fill-rule="nonzero" fill="rgb(0%, 0%, 0%)" fill-opacity="1" d="M 3275.472656 70.5 C 3275.472656 65.726562 3273.578125 61.148438 3270.199219 57.773438 C 3266.820312 54.394531 3262.238281 52.5 3257.464844 52.5 C 3252.6875 52.5 3248.105469 54.394531 3244.726562 57.773438 C 3241.347656 61.148438 3239.453125 65.726562 3239.453125 70.5 C 3239.453125 75.273438 3241.347656 79.851562 3244.726562 83.226562 C 3248.105469 86.605469 3252.6875 88.5 3257.464844 88.5 C 3262.238281 88.5 3266.820312 86.605469 3270.199219 83.226562 C 3273.578125 79.851562 3275.472656 75.273438 3275.472656 70.5 Z M 3275.472656 70.5 "/>
<path fill-rule="nonzero" fill="rgb(0%, 0%, 0%)" fill-opacity="1" d="M 2825.191406 70.5 C 2825.191406 65.726562 2823.292969 61.148438 2819.917969 57.773438 C 2816.539062 54.394531 2811.957031 52.5 2807.179688 52.5 C 2802.40625 52.5 2797.824219 54.394531 2794.445312 57.773438 C 2791.066406 61.148438 2789.171875 65.726562 2789.171875 70.5 C 2789.171875 75.273438 2791.066406 79.851562 2794.445312 83.226562 C 2797.824219 86.605469 2802.40625 88.5 2807.179688 88.5 C 2811.957031 88.5 2816.539062 86.605469 2819.917969 83.226562 C 2823.292969 79.851562 2825.191406 75.273438 2825.191406 70.5 Z M 2825.191406 70.5 "/>
<path fill-rule="nonzero" fill="rgb(0%, 0%, 0%)" fill-opacity="1" d="M 2374.910156 70.5 C 2374.910156 65.726562 2373.011719 61.148438 2369.636719 57.773438 C 2366.257812 54.394531 2361.675781 52.5 2356.898438 52.5 C 2352.121094 52.5 2347.542969 54.394531 2344.164062 57.773438 C 2340.785156 61.148438 2338.886719 65.726562 2338.886719 70.5 C 2338.886719 75.273438 2340.785156 79.851562 2344.164062 83.226562 C 2347.542969 86.605469 2352.121094 88.5 2356.898438 88.5 C 2361.675781 88.5 2366.257812 86.605469 2369.636719 83.226562 C 2373.011719 79.851562 2374.910156 75.273438 2374.910156 70.5 Z M 2374.910156 70.5 "/>
<path fill-rule="nonzero" fill="rgb(0%, 0%, 0%)" fill-opacity="1" d="M 1924.628906 70.5 C 1924.628906 65.726562 1922.730469 61.148438 1919.351562 57.773438 C 1915.976562 54.394531 1911.394531 52.5 1906.617188 52.5 C 1901.839844 52.5 1897.257812 54.394531 1893.882812 57.773438 C 1890.503906 61.148438 1888.605469 65.726562 1888.605469 70.5 C 1888.605469 75.273438 1890.503906 79.851562 1893.882812 83.226562 C 1897.257812 86.605469 1901.839844 88.5 1906.617188 88.5 C 1911.394531 88.5 1915.976562 86.605469 1919.351562 83.226562 C 1922.730469 79.851562 1924.628906 75.273438 1924.628906 70.5 Z M 1924.628906 70.5 "/>
<path fill-rule="nonzero" fill="rgb(0%, 0%, 0%)" fill-opacity="1" d="M 1474.347656 70.5 C 1474.347656 65.726562 1472.449219 61.148438 1469.070312 57.773438 C 1465.691406 54.394531 1461.113281 52.5 1456.335938 52.5 C 1451.558594 52.5 1446.976562 54.394531 1443.597656 57.773438 C 1440.222656 61.148438 1438.324219 65.726562 1438.324219 70.5 C 1438.324219 75.273438 1440.222656 79.851562 1443.597656 83.226562 C 1446.976562 86.605469 1451.558594 88.5 1456.335938 88.5 C 1461.113281 88.5 1465.691406 86.605469 1469.070312 83.226562 C 1472.449219 79.851562 1474.347656 75.273438 1474.347656 70.5 Z M 1474.347656 70.5 "/>
<path fill-rule="nonzero" fill="rgb(0%, 0%, 0%)" fill-opacity="1" d="M 1024.0625 70.5 C 1024.0625 65.726562 1022.167969 61.148438 1018.789062 57.773438 C 1015.410156 54.394531 1010.828125 52.5 1006.054688 52.5 C 1001.277344 52.5 996.695312 54.394531 993.316406 57.773438 C 989.941406 61.148438 988.042969 65.726562 988.042969 70.5 C 988.042969 75.273438 989.941406 79.851562 993.316406 83.226562 C 996.695312 86.605469 1001.277344 88.5 1006.054688 88.5 C 1010.828125 88.5 1015.410156 86.605469 1018.789062 83.226562 C 1022.167969 79.851562 1024.0625 75.273438 1024.0625 70.5 Z M 1024.0625 70.5 "/>
<path fill-rule="nonzero" fill="rgb(0%, 0%, 0%)" fill-opacity="1" d="M 573.78125 70.5 C 573.78125 65.726562 571.886719 61.148438 568.507812 57.773438 C 565.128906 54.394531 560.546875 52.5 555.769531 52.5 C 550.996094 52.5 546.414062 54.394531 543.035156 57.773438 C 539.65625 61.148438 537.761719 65.726562 537.761719 70.5 C 537.761719 75.273438 539.65625 79.851562 543.035156 83.226562 C 546.414062 86.605469 550.996094 88.5 555.769531 88.5 C 560.546875 88.5 565.128906 86.605469 568.507812 83.226562 C 571.886719 79.851562 573.78125 75.273438 573.78125 70.5 Z M 573.78125 70.5 "/>
<path fill="none" stroke-width="0.2" stroke-linecap="butt" stroke-linejoin="miter" stroke="rgb(98.823529%, 38.431373%, 33.333333%)" stroke-opacity="1" stroke-miterlimit="10" d="M -36.027421 -10.225 C -33.72743 -10.225 -31.427439 -10.225 -29.127383 -10.225 " transform="matrix(60.037603, 0, 0, -60, 2286.5, 735)"/>
<path fill="none" stroke-width="0.2" stroke-linecap="butt" stroke-linejoin="miter" stroke="rgb(98.823529%, 38.431373%, 33.333333%)" stroke-opacity="1" stroke-miterlimit="10" d="M -28.527434 -10.225 C -26.227443 -10.225 -23.927387 -10.225 -21.627396 -10.225 " transform="matrix(60.037603, 0, 0, -60, 2286.5, 735)"/>
<path fill="none" stroke-width="0.2" stroke-linecap="butt" stroke-linejoin="miter" stroke="rgb(98.823529%, 38.431373%, 33.333333%)" stroke-opacity="1" stroke-miterlimit="10" d="M -21.027447 -10.225 C -18.727391 -10.225 -16.4274 -10.225 -14.127409 -10.225 " transform="matrix(60.037603, 0, 0, -60, 2286.5, 735)"/>
<path fill="none" stroke-width="0.2" stroke-linecap="butt" stroke-linejoin="miter" stroke="rgb(98.823529%, 38.431373%, 33.333333%)" stroke-opacity="1" stroke-miterlimit="10" d="M -13.527395 -10.225 C -11.227404 -10.225 -8.927413 -10.225 -6.627422 -10.225 " transform="matrix(60.037603, 0, 0, -60, 2286.5, 735)"/>
<path fill="none" stroke-width="0.2" stroke-linecap="butt" stroke-linejoin="miter" stroke="rgb(98.823529%, 38.431373%, 33.333333%)" stroke-opacity="1" stroke-miterlimit="10" d="M -6.027407 -10.225 C -3.727417 -10.225 -1.427426 -10.225 0.872565 -10.225 " transform="matrix(60.037603, 0, 0, -60, 2286.5, 735)"/>
<path fill="none" stroke-width="0.2" stroke-linecap="butt" stroke-linejoin="miter" stroke="rgb(98.823529%, 38.431373%, 33.333333%)" stroke-opacity="1" stroke-miterlimit="10" d="M 1.47258 -10.225 C 3.772571 -10.225 6.072561 -10.225 8.372617 -10.225 " transform="matrix(60.037603, 0, 0, -60, 2286.5, 735)"/>
<path fill="none" stroke-width="0.2" stroke-linecap="butt" stroke-linejoin="miter" stroke="rgb(98.823529%, 38.431373%, 33.333333%)" stroke-opacity="1" stroke-miterlimit="10" d="M 8.972567 -10.225 C 11.272558 -10.225 13.572614 -10.225 15.872604 -10.225 " transform="matrix(60.037603, 0, 0, -60, 2286.5, 735)"/>
<path fill="none" stroke-width="0.2" stroke-linecap="butt" stroke-linejoin="miter" stroke="rgb(98.823529%, 38.431373%, 33.333333%)" stroke-opacity="1" stroke-miterlimit="10" d="M 16.472554 -10.225 C 18.77261 -10.225 21.072601 -10.225 23.372592 -10.225 " transform="matrix(60.037603, 0, 0, -60, 2286.5, 735)"/>
<path fill="none" stroke-width="0.2" stroke-linecap="butt" stroke-linejoin="miter" stroke="rgb(98.823529%, 38.431373%, 33.333333%)" stroke-opacity="1" stroke-miterlimit="10" d="M 23.460427 -10.012891 C 21.101879 -7.654297 18.743266 -5.295703 16.384718 -2.937109 " transform="matrix(60.037603, 0, 0, -60, 2286.5, 735)"/>
<path fill="none" stroke-width="0.2" stroke-linecap="butt" stroke-linejoin="miter" stroke="rgb(98.823529%, 38.431373%, 33.333333%)" stroke-opacity="1" stroke-miterlimit="10" d="M 15.872604 -2.725 C 13.572614 -2.725 11.272558 -2.725 8.972567 -2.725 " transform="matrix(60.037603, 0, 0, -60, 2286.5, 735)"/>
<path fill="none" stroke-width="0.2" stroke-linecap="butt" stroke-linejoin="miter" stroke="rgb(98.823529%, 38.431373%, 33.333333%)" stroke-opacity="1" stroke-miterlimit="10" d="M 8.372617 -2.725 C 6.072561 -2.725 3.772571 -2.725 1.47258 -2.725 " transform="matrix(60.037603, 0, 0, -60, 2286.5, 735)"/>
<path fill="none" stroke-width="0.2" stroke-linecap="butt" stroke-linejoin="miter" stroke="rgb(98.823529%, 38.431373%, 33.333333%)" stroke-opacity="1" stroke-miterlimit="10" d="M 0.872565 -2.725 C -1.427426 -2.725 -3.727417 -2.725 -6.027407 -2.725 " transform="matrix(60.037603, 0, 0, -60, 2286.5, 735)"/>
<path fill="none" stroke-width="0.2" stroke-linecap="butt" stroke-linejoin="miter" stroke="rgb(98.823529%, 38.431373%, 33.333333%)" stroke-opacity="1" stroke-miterlimit="10" d="M -6.627422 -2.725 C -8.927413 -2.725 -11.227404 -2.725 -13.527395 -2.725 " transform="matrix(60.037603, 0, 0, -60, 2286.5, 735)"/>
<path fill="none" stroke-width="0.2" stroke-linecap="butt" stroke-linejoin="miter" stroke="rgb(98.823529%, 38.431373%, 33.333333%)" stroke-opacity="1" stroke-miterlimit="10" d="M -14.127409 -2.725 C -16.4274 -2.725 -18.727391 -2.725 -21.027447 -2.725 " transform="matrix(60.037603, 0, 0, -60, 2286.5, 735)"/>
<path fill="none" stroke-width="0.2" stroke-linecap="butt" stroke-linejoin="miter" stroke="rgb(98.823529%, 38.431373%, 33.333333%)" stroke-opacity="1" stroke-miterlimit="10" d="M -21.627396 -2.725 C -23.927387 -2.725 -26.227443 -2.725 -28.527434 -2.725 " transform="matrix(60.037603, 0, 0, -60, 2286.5, 735)"/>
<path fill="none" stroke-width="0.2" stroke-linecap="butt" stroke-linejoin="miter" stroke="rgb(98.823529%, 38.431373%, 33.333333%)" stroke-opacity="1" stroke-miterlimit="10" d="M -36.115257 -10.012891 C -33.756709 -7.654297 -31.398096 -5.295703 -29.039548 -2.937109 " transform="matrix(60.037603, 0, 0, -60, 2286.5, 735)"/>
<path fill="none" stroke-width="0.2" stroke-linecap="butt" stroke-linejoin="miter" stroke="rgb(13.72549%, 41.960784%, 55.686275%)" stroke-opacity="1" stroke-miterlimit="10" d="M -28.827441 -9.925 C -28.827441 -7.625 -28.827441 -5.325 -28.827441 -3.025 " transform="matrix(60.037603, 0, 0, -60, 2286.5, 735)"/>
<path fill="none" stroke-width="0.2" stroke-linecap="butt" stroke-linejoin="miter" stroke="rgb(13.72549%, 41.960784%, 55.686275%)" stroke-opacity="1" stroke-miterlimit="10" d="M -21.327389 -9.925 C -21.327389 -7.625 -21.327389 -5.325 -21.327389 -3.025 " transform="matrix(60.037603, 0, 0, -60, 2286.5, 735)"/>
<path fill="none" stroke-width="0.2" stroke-linecap="butt" stroke-linejoin="miter" stroke="rgb(13.72549%, 41.960784%, 55.686275%)" stroke-opacity="1" stroke-miterlimit="10" d="M -13.827402 -9.925 C -13.827402 -7.625 -13.827402 -5.325 -13.827402 -3.025 " transform="matrix(60.037603, 0, 0, -60, 2286.5, 735)"/>
<path fill="none" stroke-width="0.2" stroke-linecap="butt" stroke-linejoin="miter" stroke="rgb(13.72549%, 41.960784%, 55.686275%)" stroke-opacity="1" stroke-miterlimit="10" d="M -6.327415 -9.925 C -6.327415 -7.625 -6.327415 -5.325 -6.327415 -3.025 " transform="matrix(60.037603, 0, 0, -60, 2286.5, 735)"/>
<path fill="none" stroke-width="0.2" stroke-linecap="butt" stroke-linejoin="miter" stroke="rgb(13.72549%, 41.960784%, 55.686275%)" stroke-opacity="1" stroke-miterlimit="10" d="M 1.172572 -9.925 C 1.172572 -7.625 1.172572 -5.325 1.172572 -3.025 " transform="matrix(60.037603, 0, 0, -60, 2286.5, 735)"/>
<path fill="none" stroke-width="0.2" stroke-linecap="butt" stroke-linejoin="miter" stroke="rgb(13.72549%, 41.960784%, 55.686275%)" stroke-opacity="1" stroke-miterlimit="10" d="M 8.67256 -9.925 C 8.67256 -7.625 8.67256 -5.325 8.67256 -3.025 " transform="matrix(60.037603, 0, 0, -60, 2286.5, 735)"/>
<path fill="none" stroke-width="0.2" stroke-linecap="butt" stroke-linejoin="miter" stroke="rgb(13.72549%, 41.960784%, 55.686275%)" stroke-opacity="1" stroke-miterlimit="10" d="M 16.172612 -9.925 C 16.172612 -7.625 16.172612 -5.325 16.172612 -3.025 " transform="matrix(60.037603, 0, 0, -60, 2286.5, 735)"/>
<path fill="none" stroke-width="0.2" stroke-linecap="butt" stroke-linejoin="miter" stroke="rgb(46.666667%, 69.019608%, 36.470588%)" stroke-opacity="1" stroke-miterlimit="10" d="M -21.539561 -10.012891 C -23.898109 -7.654297 -26.256722 -5.295703 -28.61527 -2.937109 " transform="matrix(60.037603, 0, 0, -60, 2286.5, 735)"/>
<path fill="none" stroke-width="0.2" stroke-linecap="butt" stroke-linejoin="miter" stroke="rgb(46.666667%, 69.019608%, 36.470588%)" stroke-opacity="1" stroke-miterlimit="10" d="M -14.039574 -10.012891 C -16.398121 -7.654297 -18.756734 -5.295703 -21.115282 -2.937109 " transform="matrix(60.037603, 0, 0, -60, 2286.5, 735)"/>
<path fill="none" stroke-width="0.2" stroke-linecap="butt" stroke-linejoin="miter" stroke="rgb(46.666667%, 69.019608%, 36.470588%)" stroke-opacity="1" stroke-miterlimit="10" d="M -6.539521 -10.012891 C -8.898134 -7.654297 -11.256682 -5.295703 -13.615295 -2.937109 " transform="matrix(60.037603, 0, 0, -60, 2286.5, 735)"/>
<path fill="none" stroke-width="0.2" stroke-linecap="butt" stroke-linejoin="miter" stroke="rgb(46.666667%, 69.019608%, 36.470588%)" stroke-opacity="1" stroke-miterlimit="10" d="M -6.115308 -10.012891 C -3.756695 -7.654297 -1.398147 -5.295703 0.960466 -2.937109 " transform="matrix(60.037603, 0, 0, -60, 2286.5, 735)"/>
<path fill="none" stroke-width="0.2" stroke-linecap="butt" stroke-linejoin="miter" stroke="rgb(46.666667%, 69.019608%, 36.470588%)" stroke-opacity="1" stroke-miterlimit="10" d="M 1.384744 -10.012891 C 3.743292 -7.654297 6.101905 -5.295703 8.460453 -2.937109 " transform="matrix(60.037603, 0, 0, -60, 2286.5, 735)"/>
<path fill="none" stroke-width="0.2" stroke-linecap="butt" stroke-linejoin="miter" stroke="rgb(46.666667%, 69.019608%, 36.470588%)" stroke-opacity="1" stroke-miterlimit="10" d="M 8.884731 -10.012891 C 11.243279 -7.654297 13.601892 -5.295703 15.96044 -2.937109 " transform="matrix(60.037603, 0, 0, -60, 2286.5, 735)"/>
<path fill="none" stroke-width="0.04" stroke-linecap="butt" stroke-linejoin="miter" stroke="rgb(0%, 0%, 0%)" stroke-opacity="1" stroke-miterlimit="10" d="M -36.327428 -10.225 C -36.712343 -10.891667 -37.097193 -11.558333 -37.482108 -12.225 C -36.712343 -12.225 -35.942513 -12.225 -35.172683 -12.225 C -35.557598 -11.558333 -35.942513 -10.891667 -36.327428 -10.225 Z M -36.327428 -10.225 " transform="matrix(60.037603, 0, 0, -60, 2286.5, 735)"/>
<path fill="none" stroke-width="0.04" stroke-linecap="butt" stroke-linejoin="miter" stroke="rgb(0%, 0%, 0%)" stroke-opacity="1" stroke-miterlimit="10" d="M -34.595376 -12.225 C -35.750056 -12.225 -36.904736 -12.225 -38.059481 -12.225 " transform="matrix(60.037603, 0, 0, -60, 2286.5, 735)"/>
<path fill="none" stroke-width="0.04" stroke-linecap="butt" stroke-linejoin="miter" stroke="rgb(0%, 0%, 0%)" stroke-opacity="1" stroke-miterlimit="10" d="M 23.672599 -10.225 C 23.287684 -10.891667 22.902769 -11.558333 22.517854 -12.225 C 23.287684 -12.225 24.057514 -12.225 24.827279 -12.225 C 24.442364 -11.558333 24.057514 -10.891667 23.672599 -10.225 Z M 23.672599 -10.225 " transform="matrix(60.037603, 0, 0, -60, 2286.5, 735)"/>
<path fill="none" stroke-width="0.04" stroke-linecap="butt" stroke-linejoin="miter" stroke="rgb(0%, 0%, 0%)" stroke-opacity="1" stroke-miterlimit="10" d="M 25.404651 -12.225 C 24.249906 -12.225 23.095226 -12.225 21.940546 -12.225 " transform="matrix(60.037603, 0, 0, -60, 2286.5, 735)"/>
<path fill-rule="nonzero" fill="rgb(0%, 0%, 0%)" fill-opacity="1" d="M 123.5 1348.5 C 123.5 1343.726562 121.601562 1339.148438 118.226562 1335.773438 C 114.847656 1332.394531 110.265625 1330.5 105.488281 1330.5 C 100.710938 1330.5 96.132812 1332.394531 92.753906 1335.773438 C 89.375 1339.148438 87.476562 1343.726562 87.476562 1348.5 C 87.476562 1353.273438 89.375 1357.851562 92.753906 1361.226562 C 96.132812 1364.605469 100.710938 1366.5 105.488281 1366.5 C 110.265625 1366.5 114.847656 1364.605469 118.226562 1361.226562 C 121.601562 1357.851562 123.5 1353.273438 123.5 1348.5 Z M 123.5 1348.5 "/>
<path fill-rule="nonzero" fill="rgb(0%, 0%, 0%)" fill-opacity="1" d="M 573.78125 1348.5 C 573.78125 1343.726562 571.886719 1339.148438 568.507812 1335.773438 C 565.128906 1332.394531 560.546875 1330.5 555.769531 1330.5 C 550.996094 1330.5 546.414062 1332.394531 543.035156 1335.773438 C 539.65625 1339.148438 537.761719 1343.726562 537.761719 1348.5 C 537.761719 1353.273438 539.65625 1357.851562 543.035156 1361.226562 C 546.414062 1364.605469 550.996094 1366.5 555.769531 1366.5 C 560.546875 1366.5 565.128906 1364.605469 568.507812 1361.226562 C 571.886719 1357.851562 573.78125 1353.273438 573.78125 1348.5 Z M 573.78125 1348.5 "/>
<path fill-rule="nonzero" fill="rgb(0%, 0%, 0%)" fill-opacity="1" d="M 1024.0625 1348.5 C 1024.0625 1343.726562 1022.167969 1339.148438 1018.789062 1335.773438 C 1015.410156 1332.394531 1010.828125 1330.5 1006.054688 1330.5 C 1001.277344 1330.5 996.695312 1332.394531 993.316406 1335.773438 C 989.941406 1339.148438 988.042969 1343.726562 988.042969 1348.5 C 988.042969 1353.273438 989.941406 1357.851562 993.316406 1361.226562 C 996.695312 1364.605469 1001.277344 1366.5 1006.054688 1366.5 C 1010.828125 1366.5 1015.410156 1364.605469 1018.789062 1361.226562 C 1022.167969 1357.851562 1024.0625 1353.273438 1024.0625 1348.5 Z M 1024.0625 1348.5 "/>
<path fill-rule="nonzero" fill="rgb(0%, 0%, 0%)" fill-opacity="1" d="M 1474.347656 1348.5 C 1474.347656 1343.726562 1472.449219 1339.148438 1469.070312 1335.773438 C 1465.691406 1332.394531 1461.113281 1330.5 1456.335938 1330.5 C 1451.558594 1330.5 1446.976562 1332.394531 1443.597656 1335.773438 C 1440.222656 1339.148438 1438.324219 1343.726562 1438.324219 1348.5 C 1438.324219 1353.273438 1440.222656 1357.851562 1443.597656 1361.226562 C 1446.976562 1364.605469 1451.558594 1366.5 1456.335938 1366.5 C 1461.113281 1366.5 1465.691406 1364.605469 1469.070312 1361.226562 C 1472.449219 1357.851562 1474.347656 1353.273438 1474.347656 1348.5 Z M 1474.347656 1348.5 "/>
<path fill-rule="nonzero" fill="rgb(0%, 0%, 0%)" fill-opacity="1" d="M 1924.628906 1348.5 C 1924.628906 1343.726562 1922.730469 1339.148438 1919.351562 1335.773438 C 1915.976562 1332.394531 1911.394531 1330.5 1906.617188 1330.5 C 1901.839844 1330.5 1897.257812 1332.394531 1893.882812 1335.773438 C 1890.503906 1339.148438 1888.605469 1343.726562 1888.605469 1348.5 C 1888.605469 1353.273438 1890.503906 1357.851562 1893.882812 1361.226562 C 1897.257812 1364.605469 1901.839844 1366.5 1906.617188 1366.5 C 1911.394531 1366.5 1915.976562 1364.605469 1919.351562 1361.226562 C 1922.730469 1357.851562 1924.628906 1353.273438 1924.628906 1348.5 Z M 1924.628906 1348.5 "/>
<path fill-rule="nonzero" fill="rgb(0%, 0%, 0%)" fill-opacity="1" d="M 2374.910156 1348.5 C 2374.910156 1343.726562 2373.011719 1339.148438 2369.636719 1335.773438 C 2366.257812 1332.394531 2361.675781 1330.5 2356.898438 1330.5 C 2352.121094 1330.5 2347.542969 1332.394531 2344.164062 1335.773438 C 2340.785156 1339.148438 2338.886719 1343.726562 2338.886719 1348.5 C 2338.886719 1353.273438 2340.785156 1357.851562 2344.164062 1361.226562 C 2347.542969 1364.605469 2352.121094 1366.5 2356.898438 1366.5 C 2361.675781 1366.5 2366.257812 1364.605469 2369.636719 1361.226562 C 2373.011719 1357.851562 2374.910156 1353.273438 2374.910156 1348.5 Z M 2374.910156 1348.5 "/>
<path fill-rule="nonzero" fill="rgb(0%, 0%, 0%)" fill-opacity="1" d="M 2825.191406 1348.5 C 2825.191406 1343.726562 2823.292969 1339.148438 2819.917969 1335.773438 C 2816.539062 1332.394531 2811.957031 1330.5 2807.179688 1330.5 C 2802.40625 1330.5 2797.824219 1332.394531 2794.445312 1335.773438 C 2791.066406 1339.148438 2789.171875 1343.726562 2789.171875 1348.5 C 2789.171875 1353.273438 2791.066406 1357.851562 2794.445312 1361.226562 C 2797.824219 1364.605469 2802.40625 1366.5 2807.179688 1366.5 C 2811.957031 1366.5 2816.539062 1364.605469 2819.917969 1361.226562 C 2823.292969 1357.851562 2825.191406 1353.273438 2825.191406 1348.5 Z M 2825.191406 1348.5 "/>
<path fill-rule="nonzero" fill="rgb(0%, 0%, 0%)" fill-opacity="1" d="M 3275.472656 1348.5 C 3275.472656 1343.726562 3273.578125 1339.148438 3270.199219 1335.773438 C 3266.820312 1332.394531 3262.238281 1330.5 3257.464844 1330.5 C 3252.6875 1330.5 3248.105469 1332.394531 3244.726562 1335.773438 C 3241.347656 1339.148438 3239.453125 1343.726562 3239.453125 1348.5 C 3239.453125 1353.273438 3241.347656 1357.851562 3244.726562 1361.226562 C 3248.105469 1364.605469 3252.6875 1366.5 3257.464844 1366.5 C 3262.238281 1366.5 3266.820312 1364.605469 3270.199219 1361.226562 C 3273.578125 1357.851562 3275.472656 1353.273438 3275.472656 1348.5 Z M 3275.472656 1348.5 "/>
<path fill-rule="nonzero" fill="rgb(0%, 0%, 0%)" fill-opacity="1" d="M 3725.757812 1348.5 C 3725.757812 1343.726562 3723.859375 1339.148438 3720.480469 1335.773438 C 3717.101562 1332.394531 3712.523438 1330.5 3707.746094 1330.5 C 3702.96875 1330.5 3698.386719 1332.394531 3695.007812 1335.773438 C 3691.632812 1339.148438 3689.734375 1343.726562 3689.734375 1348.5 C 3689.734375 1353.273438 3691.632812 1357.851562 3695.007812 1361.226562 C 3698.386719 1364.605469 3702.96875 1366.5 3707.746094 1366.5 C 3712.523438 1366.5 3717.101562 1364.605469 3720.480469 1361.226562 C 3723.859375 1357.851562 3725.757812 1353.273438 3725.757812 1348.5 Z M 3725.757812 1348.5 "/>
<path fill-rule="nonzero" fill="rgb(0%, 0%, 0%)" fill-opacity="1" d="M 3275.472656 898.5 C 3275.472656 893.726562 3273.578125 889.148438 3270.199219 885.773438 C 3266.820312 882.394531 3262.238281 880.5 3257.464844 880.5 C 3252.6875 880.5 3248.105469 882.394531 3244.726562 885.773438 C 3241.347656 889.148438 3239.453125 893.726562 3239.453125 898.5 C 3239.453125 903.273438 3241.347656 907.851562 3244.726562 911.226562 C 3248.105469 914.605469 3252.6875 916.5 3257.464844 916.5 C 3262.238281 916.5 3266.820312 914.605469 3270.199219 911.226562 C 3273.578125 907.851562 3275.472656 903.273438 3275.472656 898.5 Z M 3275.472656 898.5 "/>
<path fill-rule="nonzero" fill="rgb(0%, 0%, 0%)" fill-opacity="1" d="M 2825.191406 898.5 C 2825.191406 893.726562 2823.292969 889.148438 2819.917969 885.773438 C 2816.539062 882.394531 2811.957031 880.5 2807.179688 880.5 C 2802.40625 880.5 2797.824219 882.394531 2794.445312 885.773438 C 2791.066406 889.148438 2789.171875 893.726562 2789.171875 898.5 C 2789.171875 903.273438 2791.066406 907.851562 2794.445312 911.226562 C 2797.824219 914.605469 2802.40625 916.5 2807.179688 916.5 C 2811.957031 916.5 2816.539062 914.605469 2819.917969 911.226562 C 2823.292969 907.851562 2825.191406 903.273438 2825.191406 898.5 Z M 2825.191406 898.5 "/>
<path fill-rule="nonzero" fill="rgb(0%, 0%, 0%)" fill-opacity="1" d="M 2374.910156 898.5 C 2374.910156 893.726562 2373.011719 889.148438 2369.636719 885.773438 C 2366.257812 882.394531 2361.675781 880.5 2356.898438 880.5 C 2352.121094 880.5 2347.542969 882.394531 2344.164062 885.773438 C 2340.785156 889.148438 2338.886719 893.726562 2338.886719 898.5 C 2338.886719 903.273438 2340.785156 907.851562 2344.164062 911.226562 C 2347.542969 914.605469 2352.121094 916.5 2356.898438 916.5 C 2361.675781 916.5 2366.257812 914.605469 2369.636719 911.226562 C 2373.011719 907.851562 2374.910156 903.273438 2374.910156 898.5 Z M 2374.910156 898.5 "/>
<path fill-rule="nonzero" fill="rgb(0%, 0%, 0%)" fill-opacity="1" d="M 1924.628906 898.5 C 1924.628906 893.726562 1922.730469 889.148438 1919.351562 885.773438 C 1915.976562 882.394531 1911.394531 880.5 1906.617188 880.5 C 1901.839844 880.5 1897.257812 882.394531 1893.882812 885.773438 C 1890.503906 889.148438 1888.605469 893.726562 1888.605469 898.5 C 1888.605469 903.273438 1890.503906 907.851562 1893.882812 911.226562 C 1897.257812 914.605469 1901.839844 916.5 1906.617188 916.5 C 1911.394531 916.5 1915.976562 914.605469 1919.351562 911.226562 C 1922.730469 907.851562 1924.628906 903.273438 1924.628906 898.5 Z M 1924.628906 898.5 "/>
<path fill-rule="nonzero" fill="rgb(0%, 0%, 0%)" fill-opacity="1" d="M 1474.347656 898.5 C 1474.347656 893.726562 1472.449219 889.148438 1469.070312 885.773438 C 1465.691406 882.394531 1461.113281 880.5 1456.335938 880.5 C 1451.558594 880.5 1446.976562 882.394531 1443.597656 885.773438 C 1440.222656 889.148438 1438.324219 893.726562 1438.324219 898.5 C 1438.324219 903.273438 1440.222656 907.851562 1443.597656 911.226562 C 1446.976562 914.605469 1451.558594 916.5 1456.335938 916.5 C 1461.113281 916.5 1465.691406 914.605469 1469.070312 911.226562 C 1472.449219 907.851562 1474.347656 903.273438 1474.347656 898.5 Z M 1474.347656 898.5 "/>
<path fill-rule="nonzero" fill="rgb(0%, 0%, 0%)" fill-opacity="1" d="M 1024.0625 898.5 C 1024.0625 893.726562 1022.167969 889.148438 1018.789062 885.773438 C 1015.410156 882.394531 1010.828125 880.5 1006.054688 880.5 C 1001.277344 880.5 996.695312 882.394531 993.316406 885.773438 C 989.941406 889.148438 988.042969 893.726562 988.042969 898.5 C 988.042969 903.273438 989.941406 907.851562 993.316406 911.226562 C 996.695312 914.605469 1001.277344 916.5 1006.054688 916.5 C 1010.828125 916.5 1015.410156 914.605469 1018.789062 911.226562 C 1022.167969 907.851562 1024.0625 903.273438 1024.0625 898.5 Z M 1024.0625 898.5 "/>
<path fill-rule="nonzero" fill="rgb(0%, 0%, 0%)" fill-opacity="1" d="M 573.78125 898.5 C 573.78125 893.726562 571.886719 889.148438 568.507812 885.773438 C 565.128906 882.394531 560.546875 880.5 555.769531 880.5 C 550.996094 880.5 546.414062 882.394531 543.035156 885.773438 C 539.65625 889.148438 537.761719 893.726562 537.761719 898.5 C 537.761719 903.273438 539.65625 907.851562 543.035156 911.226562 C 546.414062 914.605469 550.996094 916.5 555.769531 916.5 C 560.546875 916.5 565.128906 914.605469 568.507812 911.226562 C 571.886719 907.851562 573.78125 903.273438 573.78125 898.5 Z M 573.78125 898.5 "/>
<path fill="none" stroke-width="0.1" stroke-linecap="butt" stroke-linejoin="miter" stroke="rgb(0%, 0%, 0%)" stroke-opacity="1" stroke-miterlimit="10" d="M 33.460475 12.225 C 33.460475 4.358333 33.460475 -3.508333 33.460475 -11.375 " transform="matrix(60.037603, 0, 0, -60, 2286.5, 735)"/>
<path fill-rule="nonzero" fill="rgb(0%, 0%, 0%)" fill-opacity="0.25" stroke-width="0.1" stroke-linecap="butt" stroke-linejoin="miter" stroke="rgb(0%, 0%, 0%)" stroke-opacity="1" stroke-miterlimit="10" d="M 33.460475 10.825 C 33.293783 10.825 33.12709 10.825 32.960463 10.825 C 32.960463 8.491667 32.960463 6.158333 32.960463 3.825 C 33.12709 3.825 33.293783 3.825 33.460475 3.825 C 33.460475 6.158333 33.460475 8.491667 33.460475 10.825 Z M 33.460475 10.825 " transform="matrix(60.037603, 0, 0, -60, 2286.5, 735)"/>
<path fill-rule="nonzero" fill="rgb(0%, 0%, 0%)" fill-opacity="0.25" stroke-width="0.1" stroke-linecap="butt" stroke-linejoin="miter" stroke="rgb(0%, 0%, 0%)" stroke-opacity="1" stroke-miterlimit="10" d="M 33.460475 -2.975 C 31.960439 -2.975 30.460467 -2.975 28.960431 -2.975 C 28.960431 -5.308333 28.960431 -7.641667 28.960431 -9.975 C 30.460467 -9.975 31.960439 -9.975 33.460475 -9.975 C 33.460475 -7.641667 33.460475 -5.308333 33.460475 -2.975 Z M 33.460475 -2.975 " transform="matrix(60.037603, 0, 0, -60, 2286.5, 735)"/>
<path fill-rule="nonzero" fill="rgb(0%, 0%, 0%)" fill-opacity="1" d="M 4380.96875 259.011719 C 4380.96875 256.023438 4380.96875 255.773438 4378.101562 255.773438 C 4370.375 263.742188 4359.410156 263.742188 4355.421875 263.742188 C 4355.421875 265.03125 4355.421875 266.316406 4355.421875 267.605469 C 4357.914062 267.605469 4365.265625 267.605469 4371.746094 264.367188 C 4371.746094 285.871094 4371.746094 307.371094 4371.746094 328.875 C 4371.746094 333.359375 4371.375 334.851562 4360.160156 334.851562 C 4358.828125 334.851562 4357.5 334.851562 4356.171875 334.851562 C 4356.171875 336.140625 4356.171875 337.425781 4356.171875 338.714844 C 4360.53125 338.339844 4371.375 338.339844 4376.359375 338.339844 C 4381.34375 338.339844 4392.183594 338.339844 4396.542969 338.714844 C 4396.542969 337.425781 4396.542969 336.140625 4396.542969 334.851562 C 4395.214844 334.851562 4393.886719 334.851562 4392.558594 334.851562 C 4381.34375 334.851562 4380.96875 333.484375 4380.96875 328.875 C 4380.96875 305.585938 4380.96875 282.300781 4380.96875 259.011719 Z M 4380.96875 259.011719 "/>
<path fill-rule="nonzero" fill="rgb(0%, 0%, 0%)" fill-opacity="1" d="M 4463.960938 298.863281 C 4463.960938 288.898438 4463.335938 278.9375 4458.976562 269.722656 C 4453.242188 257.765625 4443.023438 255.773438 4437.792969 255.773438 C 4430.316406 255.773438 4421.21875 259.011719 4416.109375 270.59375 C 4412.121094 279.1875 4411.5 288.898438 4411.5 298.863281 C 4411.5 308.203125 4411.996094 319.410156 4417.105469 328.875 C 4422.464844 338.960938 4431.5625 341.453125 4437.667969 341.453125 C 4444.394531 341.453125 4453.867188 338.835938 4459.347656 327.007812 C 4463.335938 318.414062 4463.960938 308.699219 4463.960938 298.863281 Z M 4437.667969 338.714844 C 4432.808594 338.714844 4425.453125 335.601562 4423.210938 323.644531 C 4421.839844 316.171875 4421.839844 304.714844 4421.839844 297.367188 C 4421.839844 289.398438 4421.839844 281.179688 4422.835938 274.453125 C 4425.207031 259.632812 4434.550781 258.515625 4437.667969 258.515625 C 4441.777344 258.515625 4450.003906 260.753906 4452.371094 273.085938 C 4453.617188 280.058594 4453.617188 289.523438 4453.617188 297.367188 C 4453.617188 306.707031 4453.617188 315.175781 4452.246094 323.144531 C 4450.375 334.976562 4443.273438 338.714844 4437.667969 338.714844 Z M 4437.667969 338.714844 "/>
<path fill-rule="nonzero" fill="rgb(0%, 0%, 0%)" fill-opacity="1" d="M 4554.300781 250.046875 C 4555.050781 248.925781 4555.300781 248.550781 4555.300781 247.804688 C 4555.300781 246.433594 4554.179688 245.3125 4552.808594 245.3125 C 4551.5625 245.3125 4550.9375 246.183594 4550.191406 247.058594 C 4543.960938 255.523438 4535.609375 258.886719 4526.515625 258.886719 C 4517.792969 258.886719 4510.066406 255.773438 4503.210938 249.296875 C 4500.84375 247.179688 4498.226562 245.3125 4494.238281 245.3125 C 4484.769531 245.3125 4475.921875 255.773438 4475.921875 270.34375 C 4475.921875 285.414062 4484.894531 295.5 4494.238281 295.5 C 4503.335938 295.5 4510.441406 284.417969 4510.441406 270.46875 C 4510.441406 268.726562 4510.441406 262.871094 4507.824219 256.398438 C 4515.921875 261.003906 4522.152344 261.628906 4526.640625 261.628906 C 4536.109375 261.628906 4542.464844 257.765625 4543.210938 257.269531 C 4543.253906 257.308594 4543.296875 257.351562 4543.335938 257.394531 C 4524.6875 285.164062 4506.035156 312.933594 4487.386719 340.707031 C 4486.265625 342.324219 4486.265625 342.945312 4486.265625 343.195312 C 4486.265625 344.566406 4487.511719 345.6875 4488.757812 345.6875 C 4490.003906 345.6875 4490.253906 345.1875 4491.25 343.820312 C 4512.265625 312.5625 4533.285156 281.304688 4554.300781 250.046875 Z M 4494.363281 292.761719 C 4491.871094 292.761719 4483.648438 291.140625 4483.648438 270.46875 C 4483.648438 249.671875 4491.746094 248.054688 4494.363281 248.054688 C 4500.96875 248.054688 4507.324219 257.269531 4507.324219 270.34375 C 4507.324219 283.792969 4500.84375 292.761719 4494.363281 292.761719 Z M 4549.566406 342.945312 C 4547.074219 342.945312 4538.851562 341.328125 4538.851562 320.65625 C 4538.851562 299.859375 4546.949219 298.238281 4549.566406 298.238281 C 4556.171875 298.238281 4562.527344 307.457031 4562.527344 320.53125 C 4562.527344 333.980469 4556.046875 342.945312 4549.566406 342.945312 Z M 4565.640625 320.65625 C 4565.640625 306.335938 4558.289062 295.5 4549.441406 295.5 C 4539.972656 295.5 4531.125 305.960938 4531.125 320.53125 C 4531.125 335.601562 4540.097656 345.6875 4549.441406 345.6875 C 4558.539062 345.6875 4565.640625 334.601562 4565.640625 320.65625 Z M 4565.640625 320.65625 "/>
<path fill-rule="nonzero" fill="rgb(0%, 0%, 0%)" fill-opacity="1" d="M 4395.921875 1127.113281 C 4395.921875 1128.441406 4395.921875 1129.769531 4395.921875 1131.097656 C 4395.921875 1160.238281 4382.960938 1165.964844 4375.734375 1165.964844 C 4373.617188 1165.964844 4366.886719 1165.714844 4363.523438 1161.484375 C 4369.003906 1161.484375 4370.003906 1157.871094 4370.003906 1155.753906 C 4370.003906 1151.894531 4367.011719 1150.027344 4364.269531 1150.027344 C 4362.277344 1150.027344 4358.539062 1151.144531 4358.539062 1156.003906 C 4358.539062 1164.347656 4365.265625 1169.453125 4375.859375 1169.453125 C 4391.933594 1169.453125 4407.136719 1152.515625 4407.136719 1125.742188 C 4407.136719 1092.242188 4392.804688 1083.773438 4381.714844 1083.773438 C 4374.863281 1083.773438 4368.757812 1086.015625 4363.398438 1091.621094 C 4358.289062 1097.222656 4355.421875 1102.453125 4355.421875 1111.792969 C 4355.421875 1127.359375 4366.390625 1139.566406 4380.34375 1139.566406 C 4387.945312 1139.566406 4393.054688 1134.335938 4395.921875 1127.113281 Z M 4380.46875 1136.699219 C 4378.476562 1136.699219 4372.742188 1136.699219 4368.882812 1128.855469 C 4366.636719 1124.246094 4366.636719 1118.019531 4366.636719 1111.917969 C 4366.636719 1105.195312 4366.636719 1099.339844 4369.253906 1094.734375 C 4372.621094 1088.507812 4377.355469 1086.886719 4381.714844 1086.886719 C 4387.449219 1086.886719 4391.558594 1091.121094 4393.679688 1096.726562 C 4395.175781 1100.710938 4395.671875 1108.554688 4395.671875 1114.285156 C 4395.671875 1124.621094 4391.4375 1136.699219 4380.46875 1136.699219 Z M 4380.46875 1136.699219 "/>
<path fill-rule="nonzero" fill="rgb(0%, 0%, 0%)" fill-opacity="1" d="M 4469.816406 1126.863281 C 4469.816406 1116.898438 4469.191406 1106.9375 4464.832031 1097.722656 C 4459.101562 1085.765625 4448.882812 1083.773438 4443.648438 1083.773438 C 4436.171875 1083.773438 4427.074219 1087.011719 4421.964844 1098.59375 C 4417.976562 1107.1875 4417.355469 1116.898438 4417.355469 1126.863281 C 4417.355469 1136.203125 4417.851562 1147.410156 4422.960938 1156.875 C 4428.320312 1166.960938 4437.417969 1169.453125 4443.523438 1169.453125 C 4450.253906 1169.453125 4459.722656 1166.835938 4465.207031 1155.007812 C 4469.191406 1146.414062 4469.816406 1136.699219 4469.816406 1126.863281 Z M 4443.523438 1166.714844 C 4438.664062 1166.714844 4431.3125 1163.601562 4429.070312 1151.644531 C 4427.699219 1144.171875 4427.699219 1132.714844 4427.699219 1125.367188 C 4427.699219 1117.398438 4427.699219 1109.179688 4428.695312 1102.453125 C 4431.0625 1087.632812 4440.40625 1086.515625 4443.523438 1086.515625 C 4447.636719 1086.515625 4455.859375 1088.753906 4458.226562 1101.085938 C 4459.472656 1108.058594 4459.472656 1117.523438 4459.472656 1125.367188 C 4459.472656 1134.707031 4459.472656 1143.175781 4458.101562 1151.144531 C 4456.234375 1162.976562 4449.128906 1166.714844 4443.523438 1166.714844 Z M 4443.523438 1166.714844 "/>
<path fill-rule="nonzero" fill="rgb(0%, 0%, 0%)" fill-opacity="1" d="M 4560.160156 1078.046875 C 4560.90625 1076.925781 4561.15625 1076.550781 4561.15625 1075.804688 C 4561.15625 1074.433594 4560.035156 1073.3125 4558.664062 1073.3125 C 4557.417969 1073.3125 4556.796875 1074.183594 4556.046875 1075.058594 C 4549.816406 1083.523438 4541.46875 1086.886719 4532.371094 1086.886719 C 4523.648438 1086.886719 4515.921875 1083.773438 4509.070312 1077.296875 C 4506.703125 1075.179688 4504.085938 1073.3125 4500.097656 1073.3125 C 4490.625 1073.3125 4481.777344 1083.773438 4481.777344 1098.34375 C 4481.777344 1113.414062 4490.75 1123.5 4500.097656 1123.5 C 4509.195312 1123.5 4516.296875 1112.417969 4516.296875 1098.46875 C 4516.296875 1096.726562 4516.296875 1090.871094 4513.679688 1084.398438 C 4521.777344 1089.003906 4528.011719 1089.628906 4532.496094 1089.628906 C 4541.964844 1089.628906 4548.320312 1085.765625 4549.070312 1085.269531 C 4549.109375 1085.308594 4549.152344 1085.351562 4549.195312 1085.394531 C 4530.542969 1113.164062 4511.894531 1140.933594 4493.242188 1168.707031 C 4492.121094 1170.324219 4492.121094 1170.945312 4492.121094 1171.195312 C 4492.121094 1172.566406 4493.367188 1173.6875 4494.613281 1173.6875 C 4495.859375 1173.6875 4496.109375 1173.1875 4497.105469 1171.820312 C 4518.125 1140.5625 4539.140625 1109.304688 4560.160156 1078.046875 Z M 4500.222656 1120.761719 C 4497.730469 1120.761719 4489.503906 1119.140625 4489.503906 1098.46875 C 4489.503906 1077.671875 4497.605469 1076.054688 4500.222656 1076.054688 C 4506.824219 1076.054688 4513.179688 1085.269531 4513.179688 1098.34375 C 4513.179688 1111.792969 4506.703125 1120.761719 4500.222656 1120.761719 Z M 4555.425781 1170.945312 C 4552.933594 1170.945312 4544.707031 1169.328125 4544.707031 1148.65625 C 4544.707031 1127.859375 4552.808594 1126.238281 4555.425781 1126.238281 C 4562.027344 1126.238281 4568.382812 1135.457031 4568.382812 1148.53125 C 4568.382812 1161.980469 4561.902344 1170.945312 4555.425781 1170.945312 Z M 4571.5 1148.65625 C 4571.5 1134.335938 4564.148438 1123.5 4555.300781 1123.5 C 4545.828125 1123.5 4536.980469 1133.960938 4536.980469 1148.53125 C 4536.980469 1163.601562 4545.953125 1173.6875 4555.300781 1173.6875 C 4564.394531 1173.6875 4571.5 1162.601562 4571.5 1148.65625 Z M 4571.5 1148.65625 "/>
</svg>
