<?xml version="1.0" encoding="UTF-8"?>
<svg xmlns="http://www.w3.org/2000/svg" xmlns:xlink="http://www.w3.org/1999/xlink" width="4586" height="1890" viewBox="0 0 4586 1890">
<path fill="none" stroke-width="0.1" stroke-linecap="butt" stroke-linejoin="miter" stroke="rgb(0%, 0%, 0%)" stroke-opacity="1" stroke-miterlimit="10" d="M -36.433465 5.075 C -33.933484 5.075 -31.433502 5.075 -28.933455 5.075 " transform="matrix(60.041061, 0, 0, -60, 2293, 945)"/>
<path fill="none" stroke-width="0.1" stroke-linecap="butt" stroke-linejoin="miter" stroke="rgb(0%, 0%, 0%)" stroke-opacity="1" stroke-miterlimit="10" d="M -28.933455 5.075 C -26.433473 5.075 -23.933491 5.075 -21.433509 5.075 " transform="matrix(60.041061, 0, 0, -60, 2293, 945)"/>
<path fill="none" stroke-width="0.1" stroke-linecap="butt" stroke-linejoin="miter" stroke="rgb(0%, 0%, 0%)" stroke-opacity="1" stroke-miterlimit="10" d="M -21.433509 5.075 C -18.933462 5.075 -16.43348 5.075 -13.933499 5.075 " transform="matrix(60.041061, 0, 0, -60, 2293, 945)"/>
<path fill="none" stroke-width="0.1" stroke-linecap="butt" stroke-linejoin="miter" stroke="rgb(0%, 0%, 0%)" stroke-opacity="1" stroke-miterlimit="10" d="M -13.933499 5.075 C -11.433452 5.075 -8.93347 5.075 -6.433488 5.075 " transform="matrix(60.041061, 0, 0, -60, 2293, 945)"/>
<path fill="none" stroke-width="0.1" stroke-linecap="butt" stroke-linejoin="miter" stroke="rgb(0%, 0%, 0%)" stroke-opacity="1" stroke-miterlimit="10" d="M -6.433488 5.075 C -3.933506 5.075 -1.433459 5.075 1.066523 5.075 " transform="matrix(60.041061, 0, 0, -60, 2293, 945)"/>
<path fill="none" stroke-width="0.1" stroke-linecap="butt" stroke-linejoin="miter" stroke="rgb(0%, 0%, 0%)" stroke-opacity="1" stroke-miterlimit="10" d="M 1.066523 5.075 C 3.566505 5.075 6.066552 5.075 8.566533 5.075 " transform="matrix(60.041061, 0, 0, -60, 2293, 945)"/>
<path fill="none" stroke-width="0.1" stroke-linecap="butt" stroke-linejoin="miter" stroke="rgb(0%, 0%, 0%)" stroke-opacity="1" stroke-miterlimit="10" d="M 8.566533 5.075 C 11.066515 5.075 13.566497 5.075 16.066544 5.075 " transform="matrix(60.041061, 0, 0, -60, 2293, 945)"/>
<path fill="none" stroke-width="0.1" stroke-linecap="butt" stroke-linejoin="miter" stroke="rgb(0%, 0%, 0%)" stroke-opacity="1" stroke-miterlimit="10" d="M 16.066544 5.075 C 18.566526 5.075 21.066508 5.075 23.56649 5.075 " transform="matrix(60.041061, 0, 0, -60, 2293, 945)"/>
<path fill="none" stroke-width="0.1" stroke-linecap="butt" stroke-linejoin="miter" stroke="rgb(0%, 0%, 0%)" stroke-opacity="1" stroke-miterlimit="10" d="M 23.56649 5.075 C 21.066508 7.575 18.566526 10.075 16.066544 12.575 " transform="matrix(60.041061, 0, 0, -60, 2293, 945)"/>
<path fill="none" stroke-width="0.1" stroke-linecap="butt" stroke-linejoin="miter" stroke="rgb(0%, 0%, 0%)" stroke-opacity="1" stroke-miterlimit="10" d="M 16.066544 12.575 C 13.566497 12.575 11.066515 12.575 8.566533 12.575 " transform="matrix(60.041061, 0, 0, -60, 2293, 945)"/>
<path fill="none" stroke-width="0.1" stroke-linecap="butt" stroke-linejoin="miter" stroke="rgb(0%, 0%, 0%)" stroke-opacity="1" stroke-miterlimit="10" d="M 8.566533 12.575 C 6.066552 12.575 3.566505 12.575 1.066523 12.575 " transform="matrix(60.041061, 0, 0, -60, 2293, 945)"/>
<path fill="none" stroke-width="0.1" stroke-linecap="butt" stroke-linejoin="miter" stroke="rgb(0%, 0%, 0%)" stroke-opacity="1" stroke-miterlimit="10" d="M 1.066523 12.575 C -1.433459 12.575 -3.933506 12.575 -6.433488 12.575 " transform="matrix(60.041061, 0, 0, -60, 2293, 945)"/>
<path fill="none" stroke-width="0.1" stroke-linecap="butt" stroke-linejoin="miter" stroke="rgb(0%, 0%, 0%)" stroke-opacity="1" stroke-miterlimit="10" d="M -6.433488 12.575 C -8.93347 12.575 -11.433452 12.575 -13.933499 12.575 " transform="matrix(60.041061, 0, 0, -60, 2293, 945)"/>
<path fill="none" stroke-width="0.1" stroke-linecap="butt" stroke-linejoin="miter" stroke="rgb(0%, 0%, 0%)" stroke-opacity="1" stroke-miterlimit="10" d="M -13.933499 12.575 C -16.43348 12.575 -18.933462 12.575 -21.433509 12.575 " transform="matrix(60.041061, 0, 0, -60, 2293, 945)"/>
<path fill="none" stroke-width="0.1" stroke-linecap="butt" stroke-linejoin="miter" stroke="rgb(0%, 0%, 0%)" stroke-opacity="1" stroke-miterlimit="10" d="M -21.433509 12.575 C -23.933491 12.575 -26.433473 12.575 -28.933455 12.575 " transform="matrix(60.041061, 0, 0, -60, 2293, 945)"/>
<path fill="none" stroke-width="0.1" stroke-linecap="butt" stroke-linejoin="miter" stroke="rgb(0%, 0%, 0%)" stroke-opacity="1" stroke-miterlimit="10" d="M -36.433465 5.075 C -33.933484 7.575 -31.433502 10.075 -28.933455 12.575 " transform="matrix(60.041061, 0, 0, -60, 2293, 945)"/>
<path fill="none" stroke-width="0.1" stroke-linecap="butt" stroke-linejoin="miter" stroke="rgb(0%, 0%, 0%)" stroke-opacity="1" stroke-miterlimit="10" d="M -28.933455 5.075 C -28.933455 7.575 -28.933455 10.075 -28.933455 12.575 " transform="matrix(60.041061, 0, 0, -60, 2293, 945)"/>
<path fill="none" stroke-width="0.1" stroke-linecap="butt" stroke-linejoin="miter" stroke="rgb(0%, 0%, 0%)" stroke-opacity="1" stroke-miterlimit="10" d="M -21.433509 5.075 C -21.433509 7.575 -21.433509 10.075 -21.433509 12.575 " transform="matrix(60.041061, 0, 0, -60, 2293, 945)"/>
<path fill="none" stroke-width="0.1" stroke-linecap="butt" stroke-linejoin="miter" stroke="rgb(0%, 0%, 0%)" stroke-opacity="1" stroke-miterlimit="10" d="M -13.933499 5.075 C -13.933499 7.575 -13.933499 10.075 -13.933499 12.575 " transform="matrix(60.041061, 0, 0, -60, 2293, 945)"/>
<path fill="none" stroke-width="0.1" stroke-linecap="butt" stroke-linejoin="miter" stroke="rgb(0%, 0%, 0%)" stroke-opacity="1" stroke-miterlimit="10" d="M -6.433488 5.075 C -6.433488 7.575 -6.433488 10.075 -6.433488 12.575 " transform="matrix(60.041061, 0, 0, -60, 2293, 945)"/>
<path fill="none" stroke-width="0.1" stroke-linecap="butt" stroke-linejoin="miter" stroke="rgb(0%, 0%, 0%)" stroke-opacity="1" stroke-miterlimit="10" d="M 1.066523 5.075 C 1.066523 7.575 1.066523 10.075 1.066523 12.575 " transform="matrix(60.041061, 0, 0, -60, 2293, 945)"/>
<path fill="none" stroke-width="0.1" stroke-linecap="butt" stroke-linejoin="miter" stroke="rgb(0%, 0%, 0%)" stroke-opacity="1" stroke-miterlimit="10" d="M 8.566533 5.075 C 8.566533 7.575 8.566533 10.075 8.566533 12.575 " transform="matrix(60.041061, 0, 0, -60, 2293, 945)"/>
<path fill="none" stroke-width="0.1" stroke-linecap="butt" stroke-linejoin="miter" stroke="rgb(0%, 0%, 0%)" stroke-opacity="1" stroke-miterlimit="10" d="M 16.066544 5.075 C 16.066544 7.575 16.066544 10.075 16.066544 12.575 " transform="matrix(60.041061, 0, 0, -60, 2293, 945)"/>
<path fill="none" stroke-width="0.1" stroke-linecap="butt" stroke-linejoin="miter" stroke="rgb(0%, 0%, 0%)" stroke-opacity="1" stroke-miterlimit="10" d="M -21.433509 5.075 C -23.933491 7.575 -26.433473 10.075 -28.933455 12.575 " transform="matrix(60.041061, 0, 0, -60, 2293, 945)"/>
<path fill="none" stroke-width="0.1" stroke-linecap="butt" stroke-linejoin="miter" stroke="rgb(0%, 0%, 0%)" stroke-opacity="1" stroke-miterlimit="10" d="M -13.933499 5.075 C -16.43348 7.575 -18.933462 10.075 -21.433509 12.575 " transform="matrix(60.041061, 0, 0, -60, 2293, 945)"/>
<path fill="none" stroke-width="0.1" stroke-linecap="butt" stroke-linejoin="miter" stroke="rgb(0%, 0%, 0%)" stroke-opacity="1" stroke-miterlimit="10" d="M -6.433488 5.075 C -8.93347 7.575 -11.433452 10.075 -13.933499 12.575 " transform="matrix(60.041061, 0, 0, -60, 2293, 945)"/>
<path fill="none" stroke-width="0.1" stroke-linecap="butt" stroke-linejoin="miter" stroke="rgb(0%, 0%, 0%)" stroke-opacity="1" stroke-miterlimit="10" d="M -6.433488 5.075 C -3.933506 7.575 -1.433459 10.075 1.066523 12.575 " transform="matrix(60.041061, 0, 0, -60, 2293, 945)"/>
<path fill="none" stroke-width="0.1" stroke-linecap="butt" stroke-linejoin="miter" stroke="rgb(0%, 0%, 0%)" stroke-opacity="1" stroke-miterlimit="10" d="M 1.066523 5.075 C 3.566505 7.575 6.066552 10.075 8.566533 12.575 " transform="matrix(60.041061, 0, 0, -60, 2293, 945)"/>
<path fill="none" stroke-width="0.1" stroke-linecap="butt" stroke-linejoin="miter" stroke="rgb(0%, 0%, 0%)" stroke-opacity="1" stroke-miterlimit="10" d="M 8.566533 5.075 C 11.066515 7.575 13.566497 10.075 16.066544 12.575 " transform="matrix(60.041061, 0, 0, -60, 2293, 945)"/>
<path fill="none" stroke-width="0.04" stroke-linecap="butt" stroke-linejoin="miter" stroke="rgb(0%, 0%, 0%)" stroke-opacity="1" stroke-miterlimit="10" d="M -36.433465 5.075 C -36.818358 4.408333 -37.203251 3.741667 -37.588209 3.075 C -36.818358 3.075 -36.048573 3.075 -35.278787 3.075 C -35.66368 3.741667 -36.048573 4.408333 -36.433465 5.075 Z M -36.433465 5.075 " transform="matrix(60.041061, 0, 0, -60, 2293, 945)"/>
<path fill="none" stroke-width="0.04" stroke-linecap="butt" stroke-linejoin="miter" stroke="rgb(0%, 0%, 0%)" stroke-opacity="1" stroke-miterlimit="10" d="M -34.701448 3.075 C -35.856126 3.075 -37.010805 3.075 -38.165548 3.075 " transform="matrix(60.041061, 0, 0, -60, 2293, 945)"/>
<path fill="none" stroke-width="0.04" stroke-linecap="butt" stroke-linejoin="miter" stroke="rgb(0%, 0%, 0%)" stroke-opacity="1" stroke-miterlimit="10" d="M 23.56649 5.075 C 23.181597 4.408333 22.796704 3.741667 22.411811 3.075 C 23.181597 3.075 23.951448 3.075 24.721233 3.075 C 24.33634 3.741667 23.951448 4.408333 23.56649 5.075 Z M 23.56649 5.075 " transform="matrix(60.041061, 0, 0, -60, 2293, 945)"/>
<path fill="none" stroke-width="0.04" stroke-linecap="butt" stroke-linejoin="miter" stroke="rgb(0%, 0%, 0%)" stroke-opacity="1" stroke-miterlimit="10" d="M 25.298573 3.075 C 24.143894 3.075 22.98915 3.075 21.834472 3.075 " transform="matrix(60.041061, 0, 0, -60, 2293, 945)"/>
<path fill-rule="nonzero" fill="rgb(0%, 0%, 0%)" fill-opacity="1" d="M 123.507812 640.5 C 123.507812 635.726562 121.609375 631.148438 118.230469 627.773438 C 114.855469 624.394531 110.273438 622.5 105.496094 622.5 C 100.71875 622.5 96.136719 624.394531 92.757812 627.773438 C 89.378906 631.148438 87.484375 635.726562 87.484375 640.5 C 87.484375 645.273438 89.378906 649.851562 92.757812 653.226562 C 96.136719 656.605469 100.71875 658.5 105.496094 658.5 C 110.273438 658.5 114.855469 656.605469 118.230469 653.226562 C 121.609375 649.851562 123.507812 645.273438 123.507812 640.5 Z M 123.507812 640.5 "/>
<path fill-rule="nonzero" fill="rgb(0%, 0%, 0%)" fill-opacity="1" d="M 573.816406 640.5 C 573.816406 635.726562 571.917969 631.148438 568.539062 627.773438 C 565.160156 624.394531 560.582031 622.5 555.804688 622.5 C 551.027344 622.5 546.445312 624.394531 543.066406 627.773438 C 539.6875 631.148438 537.789062 635.726562 537.789062 640.5 C 537.789062 645.273438 539.6875 649.851562 543.066406 653.226562 C 546.445312 656.605469 551.027344 658.5 555.804688 658.5 C 560.582031 658.5 565.160156 656.605469 568.539062 653.226562 C 571.917969 649.851562 573.816406 645.273438 573.816406 640.5 Z M 573.816406 640.5 "/>
<path fill-rule="nonzero" fill="rgb(0%, 0%, 0%)" fill-opacity="1" d="M 1024.125 640.5 C 1024.125 635.726562 1022.226562 631.148438 1018.847656 627.773438 C 1015.46875 624.394531 1010.886719 622.5 1006.109375 622.5 C 1001.332031 622.5 996.753906 624.394531 993.375 627.773438 C 989.996094 631.148438 988.097656 635.726562 988.097656 640.5 C 988.097656 645.273438 989.996094 649.851562 993.375 653.226562 C 996.753906 656.605469 1001.332031 658.5 1006.109375 658.5 C 1010.886719 658.5 1015.46875 656.605469 1018.847656 653.226562 C 1022.226562 649.851562 1024.125 645.273438 1024.125 640.5 Z M 1024.125 640.5 "/>
<path fill-rule="nonzero" fill="rgb(0%, 0%, 0%)" fill-opacity="1" d="M 1474.429688 640.5 C 1474.429688 635.726562 1472.535156 631.148438 1469.15625 627.773438 C 1465.777344 624.394531 1461.195312 622.5 1456.417969 622.5 C 1451.640625 622.5 1447.058594 624.394531 1443.683594 627.773438 C 1440.304688 631.148438 1438.40625 635.726562 1438.40625 640.5 C 1438.40625 645.273438 1440.304688 649.851562 1443.683594 653.226562 C 1447.058594 656.605469 1451.640625 658.5 1456.417969 658.5 C 1461.195312 658.5 1465.777344 656.605469 1469.15625 653.226562 C 1472.535156 649.851562 1474.429688 645.273438 1474.429688 640.5 Z M 1474.429688 640.5 "/>
<path fill-rule="nonzero" fill="rgb(0%, 0%, 0%)" fill-opacity="1" d="M 1924.738281 640.5 C 1924.738281 635.726562 1922.839844 631.148438 1919.464844 627.773438 C 1916.085938 624.394531 1911.503906 622.5 1906.726562 622.5 C 1901.949219 622.5 1897.367188 624.394531 1893.992188 627.773438 C 1890.613281 631.148438 1888.714844 635.726562 1888.714844 640.5 C 1888.714844 645.273438 1890.613281 649.851562 1893.992188 653.226562 C 1897.367188 656.605469 1901.949219 658.5 1906.726562 658.5 C 1911.503906 658.5 1916.085938 656.605469 1919.464844 653.226562 C 1922.839844 649.851562 1924.738281 645.273438 1924.738281 640.5 Z M 1924.738281 640.5 "/>
<path fill-rule="nonzero" fill="rgb(0%, 0%, 0%)" fill-opacity="1" d="M 2375.046875 640.5 C 2375.046875 635.726562 2373.148438 631.148438 2369.773438 627.773438 C 2366.394531 624.394531 2361.8125 622.5 2357.035156 622.5 C 2352.257812 622.5 2347.675781 624.394531 2344.296875 627.773438 C 2340.921875 631.148438 2339.023438 635.726562 2339.023438 640.5 C 2339.023438 645.273438 2340.921875 649.851562 2344.296875 653.226562 C 2347.675781 656.605469 2352.257812 658.5 2357.035156 658.5 C 2361.8125 658.5 2366.394531 656.605469 2369.773438 653.226562 C 2373.148438 649.851562 2375.046875 645.273438 2375.046875 640.5 Z M 2375.046875 640.5 "/>
<path fill-rule="nonzero" fill="rgb(0%, 0%, 0%)" fill-opacity="1" d="M 2825.355469 640.5 C 2825.355469 635.726562 2823.457031 631.148438 2820.078125 627.773438 C 2816.703125 624.394531 2812.121094 622.5 2807.34375 622.5 C 2802.566406 622.5 2797.984375 624.394531 2794.605469 627.773438 C 2791.226562 631.148438 2789.332031 635.726562 2789.332031 640.5 C 2789.332031 645.273438 2791.226562 649.851562 2794.605469 653.226562 C 2797.984375 656.605469 2802.566406 658.5 2807.34375 658.5 C 2812.121094 658.5 2816.703125 656.605469 2820.078125 653.226562 C 2823.457031 649.851562 2825.355469 645.273438 2825.355469 640.5 Z M 2825.355469 640.5 "/>
<path fill-rule="nonzero" fill="rgb(0%, 0%, 0%)" fill-opacity="1" d="M 3275.664062 640.5 C 3275.664062 635.726562 3273.765625 631.148438 3270.386719 627.773438 C 3267.007812 624.394531 3262.429688 622.5 3257.652344 622.5 C 3252.875 622.5 3248.292969 624.394531 3244.914062 627.773438 C 3241.535156 631.148438 3239.636719 635.726562 3239.636719 640.5 C 3239.636719 645.273438 3241.535156 649.851562 3244.914062 653.226562 C 3248.292969 656.605469 3252.875 658.5 3257.652344 658.5 C 3262.429688 658.5 3267.007812 656.605469 3270.386719 653.226562 C 3273.765625 649.851562 3275.664062 645.273438 3275.664062 640.5 Z M 3275.664062 640.5 "/>
<path fill-rule="nonzero" fill="rgb(0%, 0%, 0%)" fill-opacity="1" d="M 3725.972656 640.5 C 3725.972656 635.726562 3724.074219 631.148438 3720.695312 627.773438 C 3717.316406 624.394531 3712.734375 622.5 3707.957031 622.5 C 3703.183594 622.5 3698.601562 624.394531 3695.222656 627.773438 C 3691.84375 631.148438 3689.945312 635.726562 3689.945312 640.5 C 3689.945312 645.273438 3691.84375 649.851562 3695.222656 653.226562 C 3698.601562 656.605469 3703.183594 658.5 3707.957031 658.5 C 3712.734375 658.5 3717.316406 656.605469 3720.695312 653.226562 C 3724.074219 649.851562 3725.972656 645.273438 3725.972656 640.5 Z M 3725.972656 640.5 "/>
<path fill-rule="nonzero" fill="rgb(0%, 0%, 0%)" fill-opacity="1" d="M 3275.664062 190.5 C 3275.664062 185.726562 3273.765625 181.148438 3270.386719 177.773438 C 3267.007812 174.394531 3262.429688 172.5 3257.652344 172.5 C 3252.875 172.5 3248.292969 174.394531 3244.914062 177.773438 C 3241.535156 181.148438 3239.636719 185.726562 3239.636719 190.5 C 3239.636719 195.273438 3241.535156 199.851562 3244.914062 203.226562 C 3248.292969 206.605469 3252.875 208.5 3257.652344 208.5 C 3262.429688 208.5 3267.007812 206.605469 3270.386719 203.226562 C 3273.765625 199.851562 3275.664062 195.273438 3275.664062 190.5 Z M 3275.664062 190.5 "/>
<path fill-rule="nonzero" fill="rgb(0%, 0%, 0%)" fill-opacity="1" d="M 2825.355469 190.5 C 2825.355469 185.726562 2823.457031 181.148438 2820.078125 177.773438 C 2816.703125 174.394531 2812.121094 172.5 2807.34375 172.5 C 2802.566406 172.5 2797.984375 174.394531 2794.605469 177.773438 C 2791.226562 181.148438 2789.332031 185.726562 2789.332031 190.5 C 2789.332031 195.273438 2791.226562 199.851562 2794.605469 203.226562 C 2797.984375 206.605469 2802.566406 208.5 2807.34375 208.5 C 2812.121094 208.5 2816.703125 206.605469 2820.078125 203.226562 C 2823.457031 199.851562 2825.355469 195.273438 2825.355469 190.5 Z M 2825.355469 190.5 "/>
<path fill-rule="nonzero" fill="rgb(0%, 0%, 0%)" fill-opacity="1" d="M 2375.046875 190.5 C 2375.046875 185.726562 2373.148438 181.148438 2369.773438 177.773438 C 2366.394531 174.394531 2361.8125 172.5 2357.035156 172.5 C 2352.257812 172.5 2347.675781 174.394531 2344.296875 177.773438 C 2340.921875 181.148438 2339.023438 185.726562 2339.023438 190.5 C 2339.023438 195.273438 2340.921875 199.851562 2344.296875 203.226562 C 2347.675781 206.605469 2352.257812 208.5 2357.035156 208.5 C 2361.8125 208.5 2366.394531 206.605469 2369.773438 203.226562 C 2373.148438 199.851562 2375.046875 195.273438 2375.046875 190.5 Z M 2375.046875 190.5 "/>
<path fill-rule="nonzero" fill="rgb(0%, 0%, 0%)" fill-opacity="1" d="M 1924.738281 190.5 C 1924.738281 185.726562 1922.839844 181.148438 1919.464844 177.773438 C 1916.085938 174.394531 1911.503906 172.5 1906.726562 172.5 C 1901.949219 172.5 1897.367188 174.394531 1893.992188 177.773438 C 1890.613281 181.148438 1888.714844 185.726562 1888.714844 190.5 C 1888.714844 195.273438 1890.613281 199.851562 1893.992188 203.226562 C 1897.367188 206.605469 1901.949219 208.5 1906.726562 208.5 C 1911.503906 208.5 1916.085938 206.605469 1919.464844 203.226562 C 1922.839844 199.851562 1924.738281 195.273438 1924.738281 190.5 Z M 1924.738281 190.5 "/>
<path fill-rule="nonzero" fill="rgb(0%, 0%, 0%)" fill-opacity="1" d="M 1474.429688 190.5 C 1474.429688 185.726562 1472.535156 181.148438 1469.15625 177.773438 C 1465.777344 174.394531 1461.195312 172.5 1456.417969 172.5 C 1451.640625 172.5 1447.058594 174.394531 1443.683594 177.773438 C 1440.304688 181.148438 1438.40625 185.726562 1438.40625 190.5 C 1438.40625 195.273438 1440.304688 199.851562 1443.683594 203.226562 C 1447.058594 206.605469 1451.640625 208.5 1456.417969 208.5 C 1461.195312 208.5 1465.777344 206.605469 1469.15625 203.226562 C 1472.535156 199.851562 1474.429688 195.273438 1474.429688 190.5 Z M 1474.429688 190.5 "/>
<path fill-rule="nonzero" fill="rgb(0%, 0%, 0%)" fill-opacity="1" d="M 1024.125 190.5 C 1024.125 185.726562 1022.226562 181.148438 1018.847656 177.773438 C 1015.46875 174.394531 1010.886719 172.5 1006.109375 172.5 C 1001.332031 172.5 996.753906 174.394531 993.375 177.773438 C 989.996094 181.148438 988.097656 185.726562 988.097656 190.5 C 988.097656 195.273438 989.996094 199.851562 993.375 203.226562 C 996.753906 206.605469 1001.332031 208.5 1006.109375 208.5 C 1010.886719 208.5 1015.46875 206.605469 1018.847656 203.226562 C 1022.226562 199.851562 1024.125 195.273438 1024.125 190.5 Z M 1024.125 190.5 "/>
<path fill-rule="nonzero" fill="rgb(0%, 0%, 0%)" fill-opacity="1" d="M 573.816406 190.5 C 573.816406 185.726562 571.917969 181.148438 568.539062 177.773438 C 565.160156 174.394531 560.582031 172.5 555.804688 172.5 C 551.027344 172.5 546.445312 174.394531 543.066406 177.773438 C 539.6875 181.148438 537.789062 185.726562 537.789062 190.5 C 537.789062 195.273438 539.6875 199.851562 543.066406 203.226562 C 546.445312 206.605469 551.027344 208.5 555.804688 208.5 C 560.582031 208.5 565.160156 206.605469 568.539062 203.226562 C 571.917969 199.851562 573.816406 195.273438 573.816406 190.5 Z M 573.816406 190.5 "/>
<path fill="none" stroke-width="0.15" stroke-linecap="butt" stroke-linejoin="miter" stroke="rgb(98.823529%, 38.431373%, 33.333333%)" stroke-opacity="1" stroke-miterlimit="10" d="M -28.933455 5.075 C -28.933455 4.341667 -28.933455 3.608333 -28.933455 2.875 " transform="matrix(60.041061, 0, 0, -60, 2293, 945)"/>
<path fill-rule="nonzero" fill="rgb(98.823529%, 38.431373%, 33.333333%)" fill-opacity="1" d="M 555.804688 820.5 C 563.808594 804.5 571.8125 788.5 579.820312 772.5 C 563.808594 772.5 547.796875 772.5 531.785156 772.5 C 539.792969 788.5 547.796875 804.5 555.804688 820.5 Z M 555.804688 820.5 "/>
<path fill="none" stroke-width="0.15" stroke-linecap="butt" stroke-linejoin="miter" stroke="rgb(98.823529%, 38.431373%, 33.333333%)" stroke-opacity="1" stroke-miterlimit="10" d="M -6.433488 5.075 C -6.433488 4.341667 -6.433488 3.608333 -6.433488 2.875 " transform="matrix(60.041061, 0, 0, -60, 2293, 945)"/>
<path fill-rule="nonzero" fill="rgb(98.823529%, 38.431373%, 33.333333%)" fill-opacity="1" d="M 1906.726562 820.5 C 1914.734375 804.5 1922.738281 788.5 1930.742188 772.5 C 1914.734375 772.5 1898.722656 772.5 1882.710938 772.5 C 1890.714844 788.5 1898.722656 804.5 1906.726562 820.5 Z M 1906.726562 820.5 "/>
<path fill="none" stroke-width="0.15" stroke-linecap="butt" stroke-linejoin="miter" stroke="rgb(98.823529%, 38.431373%, 33.333333%)" stroke-opacity="1" stroke-miterlimit="10" d="M 1.066523 5.075 C 1.066523 4.341667 1.066523 3.608333 1.066523 2.875 " transform="matrix(60.041061, 0, 0, -60, 2293, 945)"/>
<path fill-rule="nonzero" fill="rgb(98.823529%, 38.431373%, 33.333333%)" fill-opacity="1" d="M 2357.035156 820.5 C 2365.039062 804.5 2373.046875 788.5 2381.050781 772.5 C 2365.039062 772.5 2349.03125 772.5 2333.019531 772.5 C 2341.023438 788.5 2349.03125 804.5 2357.035156 820.5 Z M 2357.035156 820.5 "/>
<path fill="none" stroke-width="0.15" stroke-linecap="butt" stroke-linejoin="miter" stroke="rgb(98.823529%, 38.431373%, 33.333333%)" stroke-opacity="1" stroke-miterlimit="10" d="M 16.066544 5.075 C 16.066544 4.341667 16.066544 3.608333 16.066544 2.875 " transform="matrix(60.041061, 0, 0, -60, 2293, 945)"/>
<path fill-rule="nonzero" fill="rgb(98.823529%, 38.431373%, 33.333333%)" fill-opacity="1" d="M 3257.652344 820.5 C 3265.65625 804.5 3273.660156 788.5 3281.667969 772.5 C 3265.65625 772.5 3249.644531 772.5 3233.632812 772.5 C 3241.640625 788.5 3249.644531 804.5 3257.652344 820.5 Z M 3257.652344 820.5 "/>
<path fill="none" stroke-width="0.1" stroke-linecap="butt" stroke-linejoin="miter" stroke="rgb(98.823529%, 38.431373%, 33.333333%)" stroke-opacity="1" stroke-miterlimit="10" d="M -28.933455 2.075 C -28.766837 2.075 -28.600154 2.075 -28.433471 2.075 " transform="matrix(60.041061, 0, 0, -60, 2293, 945)"/>
<path fill="none" stroke-width="0.1" stroke-linecap="butt" stroke-linejoin="miter" stroke="rgb(98.823529%, 38.431373%, 33.333333%)" stroke-opacity="1" stroke-miterlimit="10" d="M -27.922103 2.075 C -27.75542 2.075 -27.588802 2.075 -27.422119 2.075 " transform="matrix(60.041061, 0, 0, -60, 2293, 945)"/>
<path fill="none" stroke-width="0.1" stroke-linecap="butt" stroke-linejoin="miter" stroke="rgb(98.823529%, 38.431373%, 33.333333%)" stroke-opacity="1" stroke-miterlimit="10" d="M -26.91075 2.075 C -26.744068 2.075 -26.57745 2.075 -26.410767 2.075 " transform="matrix(60.041061, 0, 0, -60, 2293, 945)"/>
<path fill="none" stroke-width="0.1" stroke-linecap="butt" stroke-linejoin="miter" stroke="rgb(98.823529%, 38.431373%, 33.333333%)" stroke-opacity="1" stroke-miterlimit="10" d="M -25.899398 2.075 C -25.732716 2.075 -25.566033 2.075 -25.399415 2.075 " transform="matrix(60.041061, 0, 0, -60, 2293, 945)"/>
<path fill="none" stroke-width="0.1" stroke-linecap="butt" stroke-linejoin="miter" stroke="rgb(98.823529%, 38.431373%, 33.333333%)" stroke-opacity="1" stroke-miterlimit="10" d="M -24.888046 2.075 C -24.721363 2.075 -24.554681 2.075 -24.387998 2.075 " transform="matrix(60.041061, 0, 0, -60, 2293, 945)"/>
<path fill="none" stroke-width="0.1" stroke-linecap="butt" stroke-linejoin="miter" stroke="rgb(98.823529%, 38.431373%, 33.333333%)" stroke-opacity="1" stroke-miterlimit="10" d="M -23.876694 2.075 C -23.710011 2.075 -23.543328 2.075 -23.376646 2.075 " transform="matrix(60.041061, 0, 0, -60, 2293, 945)"/>
<path fill="none" stroke-width="0.1" stroke-linecap="butt" stroke-linejoin="miter" stroke="rgb(98.823529%, 38.431373%, 33.333333%)" stroke-opacity="1" stroke-miterlimit="10" d="M -22.865277 2.075 C -22.698659 2.075 -22.531976 2.075 -22.365293 2.075 " transform="matrix(60.041061, 0, 0, -60, 2293, 945)"/>
<path fill="none" stroke-width="0.1" stroke-linecap="butt" stroke-linejoin="miter" stroke="rgb(98.823529%, 38.431373%, 33.333333%)" stroke-opacity="1" stroke-miterlimit="10" d="M -21.853925 2.075 C -21.687242 2.075 -21.520624 2.075 -21.353941 2.075 " transform="matrix(60.041061, 0, 0, -60, 2293, 945)"/>
<path fill="none" stroke-width="0.1" stroke-linecap="butt" stroke-linejoin="miter" stroke="rgb(98.823529%, 38.431373%, 33.333333%)" stroke-opacity="1" stroke-miterlimit="10" d="M -20.842572 2.075 C -20.67589 2.075 -20.509207 2.075 -20.342589 2.075 " transform="matrix(60.041061, 0, 0, -60, 2293, 945)"/>
<path fill="none" stroke-width="0.1" stroke-linecap="butt" stroke-linejoin="miter" stroke="rgb(98.823529%, 38.431373%, 33.333333%)" stroke-opacity="1" stroke-miterlimit="10" d="M -19.83122 2.075 C -19.664537 2.075 -19.497855 2.075 -19.331237 2.075 " transform="matrix(60.041061, 0, 0, -60, 2293, 945)"/>
<path fill="none" stroke-width="0.1" stroke-linecap="butt" stroke-linejoin="miter" stroke="rgb(98.823529%, 38.431373%, 33.333333%)" stroke-opacity="1" stroke-miterlimit="10" d="M -18.819868 2.075 C -18.653185 2.075 -18.486503 2.075 -18.31982 2.075 " transform="matrix(60.041061, 0, 0, -60, 2293, 945)"/>
<path fill="none" stroke-width="0.1" stroke-linecap="butt" stroke-linejoin="miter" stroke="rgb(98.823529%, 38.431373%, 33.333333%)" stroke-opacity="1" stroke-miterlimit="10" d="M -17.808451 2.075 C -17.641833 2.075 -17.47515 2.075 -17.308468 2.075 " transform="matrix(60.041061, 0, 0, -60, 2293, 945)"/>
<path fill="none" stroke-width="0.1" stroke-linecap="butt" stroke-linejoin="miter" stroke="rgb(98.823529%, 38.431373%, 33.333333%)" stroke-opacity="1" stroke-miterlimit="10" d="M -16.797099 2.075 C -16.630481 2.075 -16.463798 2.075 -16.297115 2.075 " transform="matrix(60.041061, 0, 0, -60, 2293, 945)"/>
<path fill="none" stroke-width="0.1" stroke-linecap="butt" stroke-linejoin="miter" stroke="rgb(98.823529%, 38.431373%, 33.333333%)" stroke-opacity="1" stroke-miterlimit="10" d="M -15.785747 2.075 C -15.619064 2.075 -15.452446 2.075 -15.285763 2.075 " transform="matrix(60.041061, 0, 0, -60, 2293, 945)"/>
<path fill="none" stroke-width="0.1" stroke-linecap="butt" stroke-linejoin="miter" stroke="rgb(98.823529%, 38.431373%, 33.333333%)" stroke-opacity="1" stroke-miterlimit="10" d="M -14.774394 2.075 C -14.607712 2.075 -14.441029 2.075 -14.274411 2.075 " transform="matrix(60.041061, 0, 0, -60, 2293, 945)"/>
<path fill="none" stroke-width="0.1" stroke-linecap="butt" stroke-linejoin="miter" stroke="rgb(98.823529%, 38.431373%, 33.333333%)" stroke-opacity="1" stroke-miterlimit="10" d="M -13.763042 2.075 C -13.596359 2.075 -13.429677 2.075 -13.262994 2.075 " transform="matrix(60.041061, 0, 0, -60, 2293, 945)"/>
<path fill="none" stroke-width="0.1" stroke-linecap="butt" stroke-linejoin="miter" stroke="rgb(98.823529%, 38.431373%, 33.333333%)" stroke-opacity="1" stroke-miterlimit="10" d="M -12.75169 2.075 C -12.585007 2.075 -12.418325 2.075 -12.251642 2.075 " transform="matrix(60.041061, 0, 0, -60, 2293, 945)"/>
<path fill="none" stroke-width="0.1" stroke-linecap="butt" stroke-linejoin="miter" stroke="rgb(98.823529%, 38.431373%, 33.333333%)" stroke-opacity="1" stroke-miterlimit="10" d="M -11.740273 2.075 C -11.573655 2.075 -11.406972 2.075 -11.24029 2.075 " transform="matrix(60.041061, 0, 0, -60, 2293, 945)"/>
<path fill="none" stroke-width="0.1" stroke-linecap="butt" stroke-linejoin="miter" stroke="rgb(98.823529%, 38.431373%, 33.333333%)" stroke-opacity="1" stroke-miterlimit="10" d="M -10.728921 2.075 C -10.562238 2.075 -10.39562 2.075 -10.228937 2.075 " transform="matrix(60.041061, 0, 0, -60, 2293, 945)"/>
<path fill="none" stroke-width="0.1" stroke-linecap="butt" stroke-linejoin="miter" stroke="rgb(98.823529%, 38.431373%, 33.333333%)" stroke-opacity="1" stroke-miterlimit="10" d="M -9.717569 2.075 C -9.550886 2.075 -9.384268 2.075 -9.217585 2.075 " transform="matrix(60.041061, 0, 0, -60, 2293, 945)"/>
<path fill="none" stroke-width="0.1" stroke-linecap="butt" stroke-linejoin="miter" stroke="rgb(98.823529%, 38.431373%, 33.333333%)" stroke-opacity="1" stroke-miterlimit="10" d="M -8.706216 2.075 C -8.539534 2.075 -8.372851 2.075 -8.206233 2.075 " transform="matrix(60.041061, 0, 0, -60, 2293, 945)"/>
<path fill="none" stroke-width="0.1" stroke-linecap="butt" stroke-linejoin="miter" stroke="rgb(98.823529%, 38.431373%, 33.333333%)" stroke-opacity="1" stroke-miterlimit="10" d="M -7.694864 2.075 C -7.528181 2.075 -7.361499 2.075 -7.194816 2.075 " transform="matrix(60.041061, 0, 0, -60, 2293, 945)"/>
<path fill="none" stroke-width="0.1" stroke-linecap="butt" stroke-linejoin="miter" stroke="rgb(98.823529%, 38.431373%, 33.333333%)" stroke-opacity="1" stroke-miterlimit="10" d="M -6.683512 2.075 C -6.516829 2.075 -6.350147 2.075 -6.183464 2.075 " transform="matrix(60.041061, 0, 0, -60, 2293, 945)"/>
<path fill="none" stroke-width="0.1" stroke-linecap="butt" stroke-linejoin="miter" stroke="rgb(98.823529%, 38.431373%, 33.333333%)" stroke-opacity="1" stroke-miterlimit="10" d="M -5.672095 2.075 C -5.505477 2.075 -5.338794 2.075 -5.172112 2.075 " transform="matrix(60.041061, 0, 0, -60, 2293, 945)"/>
<path fill="none" stroke-width="0.1" stroke-linecap="butt" stroke-linejoin="miter" stroke="rgb(98.823529%, 38.431373%, 33.333333%)" stroke-opacity="1" stroke-miterlimit="10" d="M -4.660743 2.075 C -4.49406 2.075 -4.327442 2.075 -4.160759 2.075 " transform="matrix(60.041061, 0, 0, -60, 2293, 945)"/>
<path fill="none" stroke-width="0.1" stroke-linecap="butt" stroke-linejoin="miter" stroke="rgb(98.823529%, 38.431373%, 33.333333%)" stroke-opacity="1" stroke-miterlimit="10" d="M -3.649391 2.075 C -3.482708 2.075 -3.316025 2.075 -3.149407 2.075 " transform="matrix(60.041061, 0, 0, -60, 2293, 945)"/>
<path fill="none" stroke-width="0.1" stroke-linecap="butt" stroke-linejoin="miter" stroke="rgb(98.823529%, 38.431373%, 33.333333%)" stroke-opacity="1" stroke-miterlimit="10" d="M -2.638038 2.075 C -2.471356 2.075 -2.304673 2.075 -2.138055 2.075 " transform="matrix(60.041061, 0, 0, -60, 2293, 945)"/>
<path fill="none" stroke-width="0.1" stroke-linecap="butt" stroke-linejoin="miter" stroke="rgb(98.823529%, 38.431373%, 33.333333%)" stroke-opacity="1" stroke-miterlimit="10" d="M -1.626686 2.075 C -1.460003 2.075 -1.293321 2.075 -1.126638 2.075 " transform="matrix(60.041061, 0, 0, -60, 2293, 945)"/>
<path fill="none" stroke-width="0.1" stroke-linecap="butt" stroke-linejoin="miter" stroke="rgb(98.823529%, 38.431373%, 33.333333%)" stroke-opacity="1" stroke-miterlimit="10" d="M -0.615269 2.075 C -0.448651 2.075 -0.281968 2.075 -0.115286 2.075 " transform="matrix(60.041061, 0, 0, -60, 2293, 945)"/>
<path fill="none" stroke-width="0.1" stroke-linecap="butt" stroke-linejoin="miter" stroke="rgb(98.823529%, 38.431373%, 33.333333%)" stroke-opacity="1" stroke-miterlimit="10" d="M 0.396083 2.075 C 0.562701 2.075 0.729384 2.075 0.896066 2.075 " transform="matrix(60.041061, 0, 0, -60, 2293, 945)"/>
<path fill="none" stroke-width="0.1" stroke-linecap="butt" stroke-linejoin="miter" stroke="rgb(98.823529%, 38.431373%, 33.333333%)" stroke-opacity="1" stroke-miterlimit="10" d="M 1.407435 2.075 C 1.574118 2.075 1.740736 2.075 1.907419 2.075 " transform="matrix(60.041061, 0, 0, -60, 2293, 945)"/>
<path fill="none" stroke-width="0.1" stroke-linecap="butt" stroke-linejoin="miter" stroke="rgb(98.823529%, 38.431373%, 33.333333%)" stroke-opacity="1" stroke-miterlimit="10" d="M 2.418787 2.075 C 2.58547 2.075 2.752153 2.075 2.918771 2.075 " transform="matrix(60.041061, 0, 0, -60, 2293, 945)"/>
<path fill="none" stroke-width="0.1" stroke-linecap="butt" stroke-linejoin="miter" stroke="rgb(98.823529%, 38.431373%, 33.333333%)" stroke-opacity="1" stroke-miterlimit="10" d="M 3.43014 2.075 C 3.596822 2.075 3.763505 2.075 3.930188 2.075 " transform="matrix(60.041061, 0, 0, -60, 2293, 945)"/>
<path fill="none" stroke-width="0.1" stroke-linecap="butt" stroke-linejoin="miter" stroke="rgb(98.823529%, 38.431373%, 33.333333%)" stroke-opacity="1" stroke-miterlimit="10" d="M 4.441492 2.075 C 4.608175 2.075 4.774857 2.075 4.94154 2.075 " transform="matrix(60.041061, 0, 0, -60, 2293, 945)"/>
<path fill="none" stroke-width="0.1" stroke-linecap="butt" stroke-linejoin="miter" stroke="rgb(98.823529%, 38.431373%, 33.333333%)" stroke-opacity="1" stroke-miterlimit="10" d="M 5.452909 2.075 C 5.619527 2.075 5.78621 2.075 5.952892 2.075 " transform="matrix(60.041061, 0, 0, -60, 2293, 945)"/>
<path fill="none" stroke-width="0.1" stroke-linecap="butt" stroke-linejoin="miter" stroke="rgb(98.823529%, 38.431373%, 33.333333%)" stroke-opacity="1" stroke-miterlimit="10" d="M 6.464261 2.075 C 6.630944 2.075 6.797562 2.075 6.964244 2.075 " transform="matrix(60.041061, 0, 0, -60, 2293, 945)"/>
<path fill="none" stroke-width="0.1" stroke-linecap="butt" stroke-linejoin="miter" stroke="rgb(98.823529%, 38.431373%, 33.333333%)" stroke-opacity="1" stroke-miterlimit="10" d="M 7.475613 2.075 C 7.642296 2.075 7.808914 2.075 7.975597 2.075 " transform="matrix(60.041061, 0, 0, -60, 2293, 945)"/>
<path fill="none" stroke-width="0.1" stroke-linecap="butt" stroke-linejoin="miter" stroke="rgb(98.823529%, 38.431373%, 33.333333%)" stroke-opacity="1" stroke-miterlimit="10" d="M 8.486965 2.075 C 8.653648 2.075 8.820331 2.075 8.986949 2.075 " transform="matrix(60.041061, 0, 0, -60, 2293, 945)"/>
<path fill="none" stroke-width="0.1" stroke-linecap="butt" stroke-linejoin="miter" stroke="rgb(98.823529%, 38.431373%, 33.333333%)" stroke-opacity="1" stroke-miterlimit="10" d="M 9.498318 2.075 C 9.665 2.075 9.831683 2.075 9.998366 2.075 " transform="matrix(60.041061, 0, 0, -60, 2293, 945)"/>
<path fill="none" stroke-width="0.1" stroke-linecap="butt" stroke-linejoin="miter" stroke="rgb(98.823529%, 38.431373%, 33.333333%)" stroke-opacity="1" stroke-miterlimit="10" d="M 10.50967 2.075 C 10.676353 2.075 10.843035 2.075 11.009718 2.075 " transform="matrix(60.041061, 0, 0, -60, 2293, 945)"/>
<path fill="none" stroke-width="0.1" stroke-linecap="butt" stroke-linejoin="miter" stroke="rgb(98.823529%, 38.431373%, 33.333333%)" stroke-opacity="1" stroke-miterlimit="10" d="M 11.521087 2.075 C 11.687705 2.075 11.854388 2.075 12.02107 2.075 " transform="matrix(60.041061, 0, 0, -60, 2293, 945)"/>
<path fill="none" stroke-width="0.1" stroke-linecap="butt" stroke-linejoin="miter" stroke="rgb(98.823529%, 38.431373%, 33.333333%)" stroke-opacity="1" stroke-miterlimit="10" d="M 12.532439 2.075 C 12.699122 2.075 12.86574 2.075 13.032422 2.075 " transform="matrix(60.041061, 0, 0, -60, 2293, 945)"/>
<path fill="none" stroke-width="0.1" stroke-linecap="butt" stroke-linejoin="miter" stroke="rgb(98.823529%, 38.431373%, 33.333333%)" stroke-opacity="1" stroke-miterlimit="10" d="M 13.543791 2.075 C 13.710474 2.075 13.877157 2.075 14.043775 2.075 " transform="matrix(60.041061, 0, 0, -60, 2293, 945)"/>
<path fill="none" stroke-width="0.1" stroke-linecap="butt" stroke-linejoin="miter" stroke="rgb(98.823529%, 38.431373%, 33.333333%)" stroke-opacity="1" stroke-miterlimit="10" d="M 14.555143 2.075 C 14.721826 2.075 14.888509 2.075 15.055127 2.075 " transform="matrix(60.041061, 0, 0, -60, 2293, 945)"/>
<path fill="none" stroke-width="0.1" stroke-linecap="butt" stroke-linejoin="miter" stroke="rgb(98.823529%, 38.431373%, 33.333333%)" stroke-opacity="1" stroke-miterlimit="10" d="M 15.566496 2.075 C 15.733178 2.075 15.899861 2.075 16.066544 2.075 " transform="matrix(60.041061, 0, 0, -60, 2293, 945)"/>
<path fill="none" stroke-width="0.1" stroke-linecap="butt" stroke-linejoin="miter" stroke="rgb(0%, 0%, 0%)" stroke-opacity="1" stroke-miterlimit="10" d="M -36.433465 -9.725 C -33.933484 -9.725 -31.433502 -9.725 -28.933455 -9.725 " transform="matrix(60.041061, 0, 0, -60, 2293, 945)"/>
<path fill="none" stroke-width="0.1" stroke-linecap="butt" stroke-linejoin="miter" stroke="rgb(0%, 0%, 0%)" stroke-opacity="1" stroke-miterlimit="10" d="M -28.933455 -9.725 C -26.433473 -9.725 -23.933491 -9.725 -21.433509 -9.725 " transform="matrix(60.041061, 0, 0, -60, 2293, 945)"/>
<path fill="none" stroke-width="0.1" stroke-linecap="butt" stroke-linejoin="miter" stroke="rgb(0%, 0%, 0%)" stroke-opacity="1" stroke-miterlimit="10" d="M -21.433509 -9.725 C -18.933462 -9.725 -16.43348 -9.725 -13.933499 -9.725 " transform="matrix(60.041061, 0, 0, -60, 2293, 945)"/>
<path fill="none" stroke-width="0.1" stroke-linecap="butt" stroke-linejoin="miter" stroke="rgb(0%, 0%, 0%)" stroke-opacity="1" stroke-miterlimit="10" d="M -13.933499 -9.725 C -11.433452 -9.725 -8.93347 -9.725 -6.433488 -9.725 " transform="matrix(60.041061, 0, 0, -60, 2293, 945)"/>
<path fill="none" stroke-width="0.1" stroke-linecap="butt" stroke-linejoin="miter" stroke="rgb(0%, 0%, 0%)" stroke-opacity="1" stroke-miterlimit="10" d="M -6.433488 -9.725 C -3.933506 -9.725 -1.433459 -9.725 1.066523 -9.725 " transform="matrix(60.041061, 0, 0, -60, 2293, 945)"/>
<path fill="none" stroke-width="0.1" stroke-linecap="butt" stroke-linejoin="miter" stroke="rgb(0%, 0%, 0%)" stroke-opacity="1" stroke-miterlimit="10" d="M 1.066523 -9.725 C 3.566505 -9.725 6.066552 -9.725 8.566533 -9.725 " transform="matrix(60.041061, 0, 0, -60, 2293, 945)"/>
<path fill="none" stroke-width="0.1" stroke-linecap="butt" stroke-linejoin="miter" stroke="rgb(0%, 0%, 0%)" stroke-opacity="1" stroke-miterlimit="10" d="M 8.566533 -9.725 C 11.066515 -9.725 13.566497 -9.725 16.066544 -9.725 " transform="matrix(60.041061, 0, 0, -60, 2293, 945)"/>
<path fill="none" stroke-width="0.1" stroke-linecap="butt" stroke-linejoin="miter" stroke="rgb(0%, 0%, 0%)" stroke-opacity="1" stroke-miterlimit="10" d="M 16.066544 -9.725 C 18.566526 -9.725 21.066508 -9.725 23.56649 -9.725 " transform="matrix(60.041061, 0, 0, -60, 2293, 945)"/>
<path fill="none" stroke-width="0.1" stroke-linecap="butt" stroke-linejoin="miter" stroke="rgb(0%, 0%, 0%)" stroke-opacity="1" stroke-miterlimit="10" d="M 23.56649 -9.725 C 21.066508 -7.225 18.566526 -4.725 16.066544 -2.225 " transform="matrix(60.041061, 0, 0, -60, 2293, 945)"/>
<path fill="none" stroke-width="0.1" stroke-linecap="butt" stroke-linejoin="miter" stroke="rgb(0%, 0%, 0%)" stroke-opacity="1" stroke-miterlimit="10" d="M 16.066544 -2.225 C 13.566497 -2.225 11.066515 -2.225 8.566533 -2.225 " transform="matrix(60.041061, 0, 0, -60, 2293, 945)"/>
<path fill="none" stroke-width="0.1" stroke-linecap="butt" stroke-linejoin="miter" stroke="rgb(0%, 0%, 0%)" stroke-opacity="1" stroke-miterlimit="10" d="M 8.566533 -2.225 C 6.066552 -2.225 3.566505 -2.225 1.066523 -2.225 " transform="matrix(60.041061, 0, 0, -60, 2293, 945)"/>
<path fill="none" stroke-width="0.1" stroke-linecap="butt" stroke-linejoin="miter" stroke="rgb(0%, 0%, 0%)" stroke-opacity="1" stroke-miterlimit="10" d="M 1.066523 -2.225 C -1.433459 -2.225 -3.933506 -2.225 -6.433488 -2.225 " transform="matrix(60.041061, 0, 0, -60, 2293, 945)"/>
<path fill="none" stroke-width="0.1" stroke-linecap="butt" stroke-linejoin="miter" stroke="rgb(0%, 0%, 0%)" stroke-opacity="1" stroke-miterlimit="10" d="M -6.433488 -2.225 C -8.93347 -2.225 -11.433452 -2.225 -13.933499 -2.225 " transform="matrix(60.041061, 0, 0, -60, 2293, 945)"/>
<path fill="none" stroke-width="0.1" stroke-linecap="butt" stroke-linejoin="miter" stroke="rgb(0%, 0%, 0%)" stroke-opacity="1" stroke-miterlimit="10" d="M -13.933499 -2.225 C -16.43348 -2.225 -18.933462 -2.225 -21.433509 -2.225 " transform="matrix(60.041061, 0, 0, -60, 2293, 945)"/>
<path fill="none" stroke-width="0.1" stroke-linecap="butt" stroke-linejoin="miter" stroke="rgb(0%, 0%, 0%)" stroke-opacity="1" stroke-miterlimit="10" d="M -21.433509 -2.225 C -23.933491 -2.225 -26.433473 -2.225 -28.933455 -2.225 " transform="matrix(60.041061, 0, 0, -60, 2293, 945)"/>
<path fill="none" stroke-width="0.1" stroke-linecap="butt" stroke-linejoin="miter" stroke="rgb(0%, 0%, 0%)" stroke-opacity="1" stroke-miterlimit="10" d="M -36.433465 -9.725 C -33.933484 -7.225 -31.433502 -4.725 -28.933455 -2.225 " transform="matrix(60.041061, 0, 0, -60, 2293, 945)"/>
<path fill="none" stroke-width="0.1" stroke-linecap="butt" stroke-linejoin="miter" stroke="rgb(0%, 0%, 0%)" stroke-opacity="1" stroke-miterlimit="10" d="M -28.933455 -9.725 C -28.933455 -7.225 -28.933455 -4.725 -28.933455 -2.225 " transform="matrix(60.041061, 0, 0, -60, 2293, 945)"/>
<path fill="none" stroke-width="0.1" stroke-linecap="butt" stroke-linejoin="miter" stroke="rgb(0%, 0%, 0%)" stroke-opacity="1" stroke-miterlimit="10" d="M -21.433509 -9.725 C -21.433509 -7.225 -21.433509 -4.725 -21.433509 -2.225 " transform="matrix(60.041061, 0, 0, -60, 2293, 945)"/>
<path fill="none" stroke-width="0.1" stroke-linecap="butt" stroke-linejoin="miter" stroke="rgb(0%, 0%, 0%)" stroke-opacity="1" stroke-miterlimit="10" d="M -13.933499 -9.725 C -13.933499 -7.225 -13.933499 -4.725 -13.933499 -2.225 " transform="matrix(60.041061, 0, 0, -60, 2293, 945)"/>
<path fill="none" stroke-width="0.1" stroke-linecap="butt" stroke-linejoin="miter" stroke="rgb(0%, 0%, 0%)" stroke-opacity="1" stroke-miterlimit="10" d="M -6.433488 -9.725 C -6.433488 -7.225 -6.433488 -4.725 -6.433488 -2.225 " transform="matrix(60.041061, 0, 0, -60, 2293, 945)"/>
<path fill="none" stroke-width="0.1" stroke-linecap="butt" stroke-linejoin="miter" stroke="rgb(0%, 0%, 0%)" stroke-opacity="1" stroke-miterlimit="10" d="M 1.066523 -9.725 C 1.066523 -7.225 1.066523 -4.725 1.066523 -2.225 " transform="matrix(60.041061, 0, 0, -60, 2293, 945)"/>
<path fill="none" stroke-width="0.1" stroke-linecap="butt" stroke-linejoin="miter" stroke="rgb(0%, 0%, 0%)" stroke-opacity="1" stroke-miterlimit="10" d="M 8.566533 -9.725 C 8.566533 -7.225 8.566533 -4.725 8.566533 -2.225 " transform="matrix(60.041061, 0, 0, -60, 2293, 945)"/>
<path fill="none" stroke-width="0.1" stroke-linecap="butt" stroke-linejoin="miter" stroke="rgb(0%, 0%, 0%)" stroke-opacity="1" stroke-miterlimit="10" d="M 16.066544 -9.725 C 16.066544 -7.225 16.066544 -4.725 16.066544 -2.225 " transform="matrix(60.041061, 0, 0, -60, 2293, 945)"/>
<path fill="none" stroke-width="0.1" stroke-linecap="butt" stroke-linejoin="miter" stroke="rgb(0%, 0%, 0%)" stroke-opacity="1" stroke-miterlimit="10" d="M -21.433509 -9.725 C -23.933491 -7.225 -26.433473 -4.725 -28.933455 -2.225 " transform="matrix(60.041061, 0, 0, -60, 2293, 945)"/>
<path fill="none" stroke-width="0.1" stroke-linecap="butt" stroke-linejoin="miter" stroke="rgb(0%, 0%, 0%)" stroke-opacity="1" stroke-miterlimit="10" d="M -13.933499 -9.725 C -16.43348 -7.225 -18.933462 -4.725 -21.433509 -2.225 " transform="matrix(60.041061, 0, 0, -60, 2293, 945)"/>
<path fill="none" stroke-width="0.1" stroke-linecap="butt" stroke-linejoin="miter" stroke="rgb(0%, 0%, 0%)" stroke-opacity="1" stroke-miterlimit="10" d="M -6.433488 -9.725 C -8.93347 -7.225 -11.433452 -4.725 -13.933499 -2.225 " transform="matrix(60.041061, 0, 0, -60, 2293, 945)"/>
<path fill="none" stroke-width="0.1" stroke-linecap="butt" stroke-linejoin="miter" stroke="rgb(0%, 0%, 0%)" stroke-opacity="1" stroke-miterlimit="10" d="M -6.433488 -9.725 C -3.933506 -7.225 -1.433459 -4.725 1.066523 -2.225 " transform="matrix(60.041061, 0, 0, -60, 2293, 945)"/>
<path fill="none" stroke-width="0.1" stroke-linecap="butt" stroke-linejoin="miter" stroke="rgb(0%, 0%, 0%)" stroke-opacity="1" stroke-miterlimit="10" d="M 1.066523 -9.725 C 3.566505 -7.225 6.066552 -4.725 8.566533 -2.225 " transform="matrix(60.041061, 0, 0, -60, 2293, 945)"/>
<path fill="none" stroke-width="0.1" stroke-linecap="butt" stroke-linejoin="miter" stroke="rgb(0%, 0%, 0%)" stroke-opacity="1" stroke-miterlimit="10" d="M 8.566533 -9.725 C 11.066515 -7.225 13.566497 -4.725 16.066544 -2.225 " transform="matrix(60.041061, 0, 0, -60, 2293, 945)"/>
<path fill="none" stroke-width="0.04" stroke-linecap="butt" stroke-linejoin="miter" stroke="rgb(0%, 0%, 0%)" stroke-opacity="1" stroke-miterlimit="10" d="M -36.433465 -9.725 C -36.818358 -10.391667 -37.203251 -11.058333 -37.588209 -11.725 C -36.818358 -11.725 -36.048573 -11.725 -35.278787 -11.725 C -35.66368 -11.058333 -36.048573 -10.391667 -36.433465 -9.725 Z M -36.433465 -9.725 " transform="matrix(60.041061, 0, 0, -60, 2293, 945)"/>
<path fill="none" stroke-width="0.04" stroke-linecap="butt" stroke-linejoin="miter" stroke="rgb(0%, 0%, 0%)" stroke-opacity="1" stroke-miterlimit="10" d="M -34.701448 -11.725 C -35.856126 -11.725 -37.010805 -11.725 -38.165548 -11.725 " transform="matrix(60.041061, 0, 0, -60, 2293, 945)"/>
<path fill="none" stroke-width="0.04" stroke-linecap="butt" stroke-linejoin="miter" stroke="rgb(0%, 0%, 0%)" stroke-opacity="1" stroke-miterlimit="10" d="M 23.56649 -9.725 C 23.181597 -10.391667 22.796704 -11.058333 22.411811 -11.725 C 23.181597 -11.725 23.951448 -11.725 24.721233 -11.725 C 24.33634 -11.058333 23.951448 -10.391667 23.56649 -9.725 Z M 23.56649 -9.725 " transform="matrix(60.041061, 0, 0, -60, 2293, 945)"/>
<path fill="none" stroke-width="0.04" stroke-linecap="butt" stroke-linejoin="miter" stroke="rgb(0%, 0%, 0%)" stroke-opacity="1" stroke-miterlimit="10" d="M 25.298573 -11.725 C 24.143894 -11.725 22.98915 -11.725 21.834472 -11.725 " transform="matrix(60.041061, 0, 0, -60, 2293, 945)"/>
<path fill-rule="nonzero" fill="rgb(0%, 0%, 0%)" fill-opacity="1" d="M 123.507812 1528.5 C 123.507812 1523.726562 121.609375 1519.148438 118.230469 1515.773438 C 114.855469 1512.394531 110.273438 1510.5 105.496094 1510.5 C 100.71875 1510.5 96.136719 1512.394531 92.757812 1515.773438 C 89.378906 1519.148438 87.484375 1523.726562 87.484375 1528.5 C 87.484375 1533.273438 89.378906 1537.851562 92.757812 1541.226562 C 96.136719 1544.605469 100.71875 1546.5 105.496094 1546.5 C 110.273438 1546.5 114.855469 1544.605469 118.230469 1541.226562 C 121.609375 1537.851562 123.507812 1533.273438 123.507812 1528.5 Z M 123.507812 1528.5 "/>
<path fill-rule="nonzero" fill="rgb(0%, 0%, 0%)" fill-opacity="1" d="M 573.816406 1528.5 C 573.816406 1523.726562 571.917969 1519.148438 568.539062 1515.773438 C 565.160156 1512.394531 560.582031 1510.5 555.804688 1510.5 C 551.027344 1510.5 546.445312 1512.394531 543.066406 1515.773438 C 539.6875 1519.148438 537.789062 1523.726562 537.789062 1528.5 C 537.789062 1533.273438 539.6875 1537.851562 543.066406 1541.226562 C 546.445312 1544.605469 551.027344 1546.5 555.804688 1546.5 C 560.582031 1546.5 565.160156 1544.605469 568.539062 1541.226562 C 571.917969 1537.851562 573.816406 1533.273438 573.816406 1528.5 Z M 573.816406 1528.5 "/>
<path fill-rule="nonzero" fill="rgb(0%, 0%, 0%)" fill-opacity="1" d="M 1024.125 1528.5 C 1024.125 1523.726562 1022.226562 1519.148438 1018.847656 1515.773438 C 1015.46875 1512.394531 1010.886719 1510.5 1006.109375 1510.5 C 1001.332031 1510.5 996.753906 1512.394531 993.375 1515.773438 C 989.996094 1519.148438 988.097656 1523.726562 988.097656 1528.5 C 988.097656 1533.273438 989.996094 1537.851562 993.375 1541.226562 C 996.753906 1544.605469 1001.332031 1546.5 1006.109375 1546.5 C 1010.886719 1546.5 1015.46875 1544.605469 1018.847656 1541.226562 C 1022.226562 1537.851562 1024.125 1533.273438 1024.125 1528.5 Z M 1024.125 1528.5 "/>
<path fill-rule="nonzero" fill="rgb(0%, 0%, 0%)" fill-opacity="1" d="M 1474.429688 1528.5 C 1474.429688 1523.726562 1472.535156 1519.148438 1469.15625 1515.773438 C 1465.777344 1512.394531 1461.195312 1510.5 1456.417969 1510.5 C 1451.640625 1510.5 1447.058594 1512.394531 1443.683594 1515.773438 C 1440.304688 1519.148438 1438.40625 1523.726562 1438.40625 1528.5 C 1438.40625 1533.273438 1440.304688 1537.851562 1443.683594 1541.226562 C 1447.058594 1544.605469 1451.640625 1546.5 1456.417969 1546.5 C 1461.195312 1546.5 1465.777344 1544.605469 1469.15625 1541.226562 C 1472.535156 1537.851562 1474.429688 1533.273438 1474.429688 1528.5 Z M 1474.429688 1528.5 "/>
<path fill-rule="nonzero" fill="rgb(0%, 0%, 0%)" fill-opacity="1" d="M 1924.738281 1528.5 C 1924.738281 1523.726562 1922.839844 1519.148438 1919.464844 1515.773438 C 1916.085938 1512.394531 1911.503906 1510.5 1906.726562 1510.5 C 1901.949219 1510.5 1897.367188 1512.394531 1893.992188 1515.773438 C 1890.613281 1519.148438 1888.714844 1523.726562 1888.714844 1528.5 C 1888.714844 1533.273438 1890.613281 1537.851562 1893.992188 1541.226562 C 1897.367188 1544.605469 1901.949219 1546.5 1906.726562 1546.5 C 1911.503906 1546.5 1916.085938 1544.605469 1919.464844 1541.226562 C 1922.839844 1537.851562 1924.738281 1533.273438 1924.738281 1528.5 Z M 1924.738281 1528.5 "/>
<path fill-rule="nonzero" fill="rgb(0%, 0%, 0%)" fill-opacity="1" d="M 2375.046875 1528.5 C 2375.046875 1523.726562 2373.148438 1519.148438 2369.773438 1515.773438 C 2366.394531 1512.394531 2361.8125 1510.5 2357.035156 1510.5 C 2352.257812 1510.5 2347.675781 1512.394531 2344.296875 1515.773438 C 2340.921875 1519.148438 2339.023438 1523.726562 2339.023438 1528.5 C 2339.023438 1533.273438 2340.921875 1537.851562 2344.296875 1541.226562 C 2347.675781 1544.605469 2352.257812 1546.5 2357.035156 1546.5 C 2361.8125 1546.5 2366.394531 1544.605469 2369.773438 1541.226562 C 2373.148438 1537.851562 2375.046875 1533.273438 2375.046875 1528.5 Z M 2375.046875 1528.5 "/>
<path fill-rule="nonzero" fill="rgb(0%, 0%, 0%)" fill-opacity="1" d="M 2825.355469 1528.5 C 2825.355469 1523.726562 2823.457031 1519.148438 2820.078125 1515.773438 C 2816.703125 1512.394531 2812.121094 1510.5 2807.34375 1510.5 C 2802.566406 1510.5 2797.984375 1512.394531 2794.605469 1515.773438 C 2791.226562 1519.148438 2789.332031 1523.726562 2789.332031 1528.5 C 2789.332031 1533.273438 2791.226562 1537.851562 2794.605469 1541.226562 C 2797.984375 1544.605469 2802.566406 1546.5 2807.34375 1546.5 C 2812.121094 1546.5 2816.703125 1544.605469 2820.078125 1541.226562 C 2823.457031 1537.851562 2825.355469 1533.273438 2825.355469 1528.5 Z M 2825.355469 1528.5 "/>
<path fill-rule="nonzero" fill="rgb(0%, 0%, 0%)" fill-opacity="1" d="M 3275.664062 1528.5 C 3275.664062 1523.726562 3273.765625 1519.148438 3270.386719 1515.773438 C 3267.007812 1512.394531 3262.429688 1510.5 3257.652344 1510.5 C 3252.875 1510.5 3248.292969 1512.394531 3244.914062 1515.773438 C 3241.535156 1519.148438 3239.636719 1523.726562 3239.636719 1528.5 C 3239.636719 1533.273438 3241.535156 1537.851562 3244.914062 1541.226562 C 3248.292969 1544.605469 3252.875 1546.5 3257.652344 1546.5 C 3262.429688 1546.5 3267.007812 1544.605469 3270.386719 1541.226562 C 3273.765625 1537.851562 3275.664062 1533.273438 3275.664062 1528.5 Z M 3275.664062 1528.5 "/>
<path fill-rule="nonzero" fill="rgb(0%, 0%, 0%)" fill-opacity="1" d="M 3725.972656 1528.5 C 3725.972656 1523.726562 3724.074219 1519.148438 3720.695312 1515.773438 C 3717.316406 1512.394531 3712.734375 1510.5 3707.957031 1510.5 C 3703.183594 1510.5 3698.601562 1512.394531 3695.222656 1515.773438 C 3691.84375 1519.148438 3689.945312 1523.726562 3689.945312 1528.5 C 3689.945312 1533.273438 3691.84375 1537.851562 3695.222656 1541.226562 C 3698.601562 1544.605469 3703.183594 1546.5 3707.957031 1546.5 C 3712.734375 1546.5 3717.316406 1544.605469 3720.695312 1541.226562 C 3724.074219 1537.851562 3725.972656 1533.273438 3725.972656 1528.5 Z M 3725.972656 1528.5 "/>
<path fill-rule="nonzero" fill="rgb(0%, 0%, 0%)" fill-opacity="1" d="M 3275.664062 1078.5 C 3275.664062 1073.726562 3273.765625 1069.148438 3270.386719 1065.773438 C 3267.007812 1062.394531 3262.429688 1060.5 3257.652344 1060.5 C 3252.875 1060.5 3248.292969 1062.394531 3244.914062 1065.773438 C 3241.535156 1069.148438 3239.636719 1073.726562 3239.636719 1078.5 C 3239.636719 1083.273438 3241.535156 1087.851562 3244.914062 1091.226562 C 3248.292969 1094.605469 3252.875 1096.5 3257.652344 1096.5 C 3262.429688 1096.5 3267.007812 1094.605469 3270.386719 1091.226562 C 3273.765625 1087.851562 3275.664062 1083.273438 3275.664062 1078.5 Z M 3275.664062 1078.5 "/>
<path fill-rule="nonzero" fill="rgb(0%, 0%, 0%)" fill-opacity="1" d="M 2825.355469 1078.5 C 2825.355469 1073.726562 2823.457031 1069.148438 2820.078125 1065.773438 C 2816.703125 1062.394531 2812.121094 1060.5 2807.34375 1060.5 C 2802.566406 1060.5 2797.984375 1062.394531 2794.605469 1065.773438 C 2791.226562 1069.148438 2789.332031 1073.726562 2789.332031 1078.5 C 2789.332031 1083.273438 2791.226562 1087.851562 2794.605469 1091.226562 C 2797.984375 1094.605469 2802.566406 1096.5 2807.34375 1096.5 C 2812.121094 1096.5 2816.703125 1094.605469 2820.078125 1091.226562 C 2823.457031 1087.851562 2825.355469 1083.273438 2825.355469 1078.5 Z M 2825.355469 1078.5 "/>
<path fill-rule="nonzero" fill="rgb(0%, 0%, 0%)" fill-opacity="1" d="M 2375.046875 1078.5 C 2375.046875 1073.726562 2373.148438 1069.148438 2369.773438 1065.773438 C 2366.394531 1062.394531 2361.8125 1060.5 2357.035156 1060.5 C 2352.257812 1060.5 2347.675781 1062.394531 2344.296875 1065.773438 C 2340.921875 1069.148438 2339.023438 1073.726562 2339.023438 1078.5 C 2339.023438 1083.273438 2340.921875 1087.851562 2344.296875 1091.226562 C 2347.675781 1094.605469 2352.257812 1096.5 2357.035156 1096.5 C 2361.8125 1096.5 2366.394531 1094.605469 2369.773438 1091.226562 C 2373.148438 1087.851562 2375.046875 1083.273438 2375.046875 1078.5 Z M 2375.046875 1078.5 "/>
<path fill-rule="nonzero" fill="rgb(0%, 0%, 0%)" fill-opacity="1" d="M 1924.738281 1078.5 C 1924.738281 1073.726562 1922.839844 1069.148438 1919.464844 1065.773438 C 1916.085938 1062.394531 1911.503906 1060.5 1906.726562 1060.5 C 1901.949219 1060.5 1897.367188 1062.394531 1893.992188 1065.773438 C 1890.613281 1069.148438 1888.714844 1073.726562 1888.714844 1078.5 C 1888.714844 1083.273438 1890.613281 1087.851562 1893.992188 1091.226562 C 1897.367188 1094.605469 1901.949219 1096.5 1906.726562 1096.5 C 1911.503906 1096.5 1916.085938 1094.605469 1919.464844 1091.226562 C 1922.839844 1087.851562 1924.738281 1083.273438 1924.738281 1078.5 Z M 1924.738281 1078.5 "/>
<path fill-rule="nonzero" fill="rgb(0%, 0%, 0%)" fill-opacity="1" d="M 1474.429688 1078.5 C 1474.429688 1073.726562 1472.535156 1069.148438 1469.15625 1065.773438 C 1465.777344 1062.394531 1461.195312 1060.5 1456.417969 1060.5 C 1451.640625 1060.5 1447.058594 1062.394531 1443.683594 1065.773438 C 1440.304688 1069.148438 1438.40625 1073.726562 1438.40625 1078.5 C 1438.40625 1083.273438 1440.304688 1087.851562 1443.683594 1091.226562 C 1447.058594 1094.605469 1451.640625 1096.5 1456.417969 1096.5 C 1461.195312 1096.5 1465.777344 1094.605469 1469.15625 1091.226562 C 1472.535156 1087.851562 1474.429688 1083.273438 1474.429688 1078.5 Z M 1474.429688 1078.5 "/>
<path fill-rule="nonzero" fill="rgb(0%, 0%, 0%)" fill-opacity="1" d="M 1024.125 1078.5 C 1024.125 1073.726562 1022.226562 1069.148438 1018.847656 1065.773438 C 1015.46875 1062.394531 1010.886719 1060.5 1006.109375 1060.5 C 1001.332031 1060.5 996.753906 1062.394531 993.375 1065.773438 C 989.996094 1069.148438 988.097656 1073.726562 988.097656 1078.5 C 988.097656 1083.273438 989.996094 1087.851562 993.375 1091.226562 C 996.753906 1094.605469 1001.332031 1096.5 1006.109375 1096.5 C 1010.886719 1096.5 1015.46875 1094.605469 1018.847656 1091.226562 C 1022.226562 1087.851562 1024.125 1083.273438 1024.125 1078.5 Z M 1024.125 1078.5 "/>
<path fill-rule="nonzero" fill="rgb(0%, 0%, 0%)" fill-opacity="1" d="M 573.816406 1078.5 C 573.816406 1073.726562 571.917969 1069.148438 568.539062 1065.773438 C 565.160156 1062.394531 560.582031 1060.5 555.804688 1060.5 C 551.027344 1060.5 546.445312 1062.394531 543.066406 1065.773438 C 539.6875 1069.148438 537.789062 1073.726562 537.789062 1078.5 C 537.789062 1083.273438 539.6875 1087.851562 543.066406 1091.226562 C 546.445312 1094.605469 551.027344 1096.5 555.804688 1096.5 C 560.582031 1096.5 565.160156 1094.605469 568.539062 1091.226562 C 571.917969 1087.851562 573.816406 1083.273438 573.816406 1078.5 Z M 573.816406 1078.5 "/>
<path fill="none" stroke-width="0.15" stroke-linecap="butt" stroke-linejoin="miter" stroke="rgb(98.823529%, 38.431373%, 33.333333%)" stroke-opacity="1" stroke-miterlimit="10" d="M -21.433509 -9.725 C -21.433509 -11.208333 -21.433509 -12.691667 -21.433509 -14.175 " transform="matrix(60.041061, 0, 0, -60, 2293, 945)"/>
<path fill-rule="nonzero" fill="rgb(98.823529%, 38.431373%, 33.333333%)" fill-opacity="1" d="M 1006.109375 1843.5 C 1014.117188 1827.5 1022.121094 1811.5 1030.128906 1795.5 C 1014.117188 1795.5 998.105469 1795.5 982.09375 1795.5 C 990.101562 1811.5 998.105469 1827.5 1006.109375 1843.5 Z M 1006.109375 1843.5 "/>
<path fill="none" stroke-width="0.15" stroke-linecap="butt" stroke-linejoin="miter" stroke="rgb(98.823529%, 38.431373%, 33.333333%)" stroke-opacity="1" stroke-miterlimit="10" d="M -13.933499 -9.725 C -13.933499 -10.958333 -13.933499 -12.191667 -13.933499 -13.425 " transform="matrix(60.041061, 0, 0, -60, 2293, 945)"/>
<path fill-rule="nonzero" fill="rgb(98.823529%, 38.431373%, 33.333333%)" fill-opacity="1" d="M 1456.417969 1798.5 C 1464.425781 1782.5 1472.429688 1766.5 1480.433594 1750.5 C 1464.425781 1750.5 1448.414062 1750.5 1432.402344 1750.5 C 1440.40625 1766.5 1448.414062 1782.5 1456.417969 1798.5 Z M 1456.417969 1798.5 "/>
<path fill="none" stroke-width="0.15" stroke-linecap="butt" stroke-linejoin="miter" stroke="rgb(98.823529%, 38.431373%, 33.333333%)" stroke-opacity="1" stroke-miterlimit="10" d="M -6.433488 -9.725 C -6.433488 -11.458333 -6.433488 -13.191667 -6.433488 -14.925 " transform="matrix(60.041061, 0, 0, -60, 2293, 945)"/>
<path fill-rule="nonzero" fill="rgb(98.823529%, 38.431373%, 33.333333%)" fill-opacity="1" d="M 1906.726562 1888.5 C 1914.734375 1872.5 1922.738281 1856.5 1930.742188 1840.5 C 1914.734375 1840.5 1898.722656 1840.5 1882.710938 1840.5 C 1890.714844 1856.5 1898.722656 1872.5 1906.726562 1888.5 Z M 1906.726562 1888.5 "/>
<path fill="none" stroke-width="0.15" stroke-linecap="butt" stroke-linejoin="miter" stroke="rgb(98.823529%, 38.431373%, 33.333333%)" stroke-opacity="1" stroke-miterlimit="10" d="M 8.566533 -9.725 C 8.566533 -11.058333 8.566533 -12.391667 8.566533 -13.725 " transform="matrix(60.041061, 0, 0, -60, 2293, 945)"/>
<path fill-rule="nonzero" fill="rgb(98.823529%, 38.431373%, 33.333333%)" fill-opacity="1" d="M 2807.34375 1816.5 C 2815.347656 1800.5 2823.355469 1784.5 2831.359375 1768.5 C 2815.347656 1768.5 2799.335938 1768.5 2783.328125 1768.5 C 2791.332031 1784.5 2799.335938 1800.5 2807.34375 1816.5 Z M 2807.34375 1816.5 "/>
<path fill="none" stroke-width="0.1" stroke-linecap="butt" stroke-linejoin="miter" stroke="rgb(0%, 0%, 0%)" stroke-opacity="1" stroke-miterlimit="10" d="M 33.566547 15.725 C 33.566547 6.191667 33.566547 -3.341667 33.566547 -12.875 " transform="matrix(60.041061, 0, 0, -60, 2293, 945)"/>
<path fill-rule="nonzero" fill="rgb(0%, 0%, 0%)" fill-opacity="0.25" stroke-width="0.1" stroke-linecap="butt" stroke-linejoin="miter" stroke="rgb(0%, 0%, 0%)" stroke-opacity="1" stroke-miterlimit="10" d="M 33.566547 12.325 C 33.233182 12.325 32.899881 12.325 32.566515 12.325 C 32.566515 9.991667 32.566515 7.658333 32.566515 5.325 C 32.899881 5.325 33.233182 5.325 33.566547 5.325 C 33.566547 7.658333 33.566547 9.991667 33.566547 12.325 Z M 33.566547 12.325 " transform="matrix(60.041061, 0, 0, -60, 2293, 945)"/>
<path fill-rule="nonzero" fill="rgb(0%, 0%, 0%)" fill-opacity="0.25" stroke-width="0.1" stroke-linecap="butt" stroke-linejoin="miter" stroke="rgb(0%, 0%, 0%)" stroke-opacity="1" stroke-miterlimit="10" d="M 33.566547 -2.475 C 32.233215 -2.475 30.899883 -2.475 29.56655 -2.475 C 29.56655 -4.808333 29.56655 -7.141667 29.56655 -9.475 C 30.899883 -9.475 32.233215 -9.475 33.566547 -9.475 C 33.566547 -7.141667 33.566547 -4.808333 33.566547 -2.475 Z M 33.566547 -2.475 " transform="matrix(60.041061, 0, 0, -60, 2293, 945)"/>
<path fill-rule="nonzero" fill="rgb(0%, 0%, 0%)" fill-opacity="1" d="M 4378.007812 449.125 C 4382.410156 444.847656 4386.8125 440.574219 4391.214844 436.296875 C 4410.65625 419.113281 4418.132812 412.386719 4418.132812 399.933594 C 4418.132812 385.738281 4406.917969 375.773438 4391.714844 375.773438 C 4377.632812 375.773438 4368.410156 387.230469 4368.410156 398.3125 C 4368.410156 405.289062 4374.640625 405.289062 4375.015625 405.289062 C 4377.132812 405.289062 4381.496094 403.792969 4381.496094 398.6875 C 4381.496094 395.449219 4379.253906 392.210938 4374.890625 392.210938 C 4373.894531 392.210938 4373.644531 392.210938 4373.269531 392.335938 C 4376.136719 384.242188 4382.867188 379.632812 4390.09375 379.632812 C 4401.433594 379.632812 4406.792969 389.722656 4406.792969 399.933594 C 4406.792969 409.894531 4400.5625 419.734375 4393.707031 427.457031 C 4385.734375 436.339844 4377.757812 445.222656 4369.78125 454.105469 C 4368.410156 455.476562 4368.410156 455.722656 4368.410156 458.714844 C 4383.820312 458.714844 4399.234375 458.714844 4414.644531 458.714844 C 4415.808594 451.488281 4416.96875 444.265625 4418.132812 437.042969 C 4417.09375 437.042969 4416.054688 437.042969 4415.019531 437.042969 C 4414.394531 440.78125 4413.523438 446.257812 4412.277344 448.128906 C 4411.402344 449.125 4403.179688 449.125 4400.4375 449.125 C 4392.960938 449.125 4385.484375 449.125 4378.007812 449.125 Z M 4378.007812 449.125 "/>
<path fill-rule="nonzero" fill="rgb(0%, 0%, 0%)" fill-opacity="1" d="M 4481.8125 418.863281 C 4481.8125 408.898438 4481.191406 398.9375 4476.828125 389.722656 C 4471.097656 377.765625 4460.878906 375.773438 4455.644531 375.773438 C 4448.167969 375.773438 4439.070312 379.011719 4433.960938 390.59375 C 4429.972656 399.1875 4429.347656 408.898438 4429.347656 418.863281 C 4429.347656 428.203125 4429.847656 439.410156 4434.957031 448.875 C 4440.316406 458.960938 4449.414062 461.453125 4455.519531 461.453125 C 4462.25 461.453125 4471.71875 458.835938 4477.203125 447.007812 C 4481.191406 438.414062 4481.8125 428.699219 4481.8125 418.863281 Z M 4455.519531 458.714844 C 4450.660156 458.714844 4443.304688 455.601562 4441.0625 443.644531 C 4439.691406 436.171875 4439.691406 424.714844 4439.691406 417.367188 C 4439.691406 409.398438 4439.691406 401.179688 4440.6875 394.453125 C 4443.058594 379.632812 4452.402344 378.515625 4455.519531 378.515625 C 4459.632812 378.515625 4467.855469 380.753906 4470.222656 393.085938 C 4471.46875 400.058594 4471.46875 409.523438 4471.46875 417.367188 C 4471.46875 426.707031 4471.46875 435.175781 4470.097656 443.144531 C 4468.230469 454.976562 4461.125 458.714844 4455.519531 458.714844 Z M 4455.519531 458.714844 "/>
<path fill-rule="nonzero" fill="rgb(0%, 0%, 0%)" fill-opacity="1" d="M 4572.160156 370.046875 C 4572.910156 368.925781 4573.160156 368.550781 4573.160156 367.804688 C 4573.160156 366.433594 4572.039062 365.3125 4570.667969 365.3125 C 4569.421875 365.3125 4568.796875 366.183594 4568.050781 367.058594 C 4561.820312 375.523438 4553.46875 378.886719 4544.371094 378.886719 C 4535.648438 378.886719 4527.921875 375.773438 4521.066406 369.296875 C 4518.699219 367.179688 4516.082031 365.3125 4512.097656 365.3125 C 4502.625 365.3125 4493.777344 375.773438 4493.777344 390.34375 C 4493.777344 405.414062 4502.75 415.5 4512.097656 415.5 C 4521.191406 415.5 4528.296875 404.417969 4528.296875 390.46875 C 4528.296875 388.726562 4528.296875 382.871094 4525.679688 376.398438 C 4533.78125 381.003906 4540.011719 381.628906 4544.496094 381.628906 C 4553.96875 381.628906 4560.324219 377.765625 4561.070312 377.269531 C 4561.113281 377.308594 4561.152344 377.351562 4561.195312 377.394531 C 4542.542969 405.164062 4523.894531 432.933594 4505.242188 460.707031 C 4504.121094 462.324219 4504.121094 462.945312 4504.121094 463.195312 C 4504.121094 464.566406 4505.367188 465.6875 4506.613281 465.6875 C 4507.859375 465.6875 4508.109375 465.1875 4509.105469 463.820312 C 4530.125 432.5625 4551.144531 401.304688 4572.160156 370.046875 Z M 4512.21875 412.761719 C 4509.726562 412.761719 4501.503906 411.140625 4501.503906 390.46875 C 4501.503906 369.671875 4509.601562 368.054688 4512.21875 368.054688 C 4518.824219 368.054688 4525.179688 377.269531 4525.179688 390.34375 C 4525.179688 403.792969 4518.699219 412.761719 4512.21875 412.761719 Z M 4567.425781 462.945312 C 4564.933594 462.945312 4556.710938 461.328125 4556.710938 440.65625 C 4556.710938 419.859375 4564.808594 418.238281 4567.425781 418.238281 C 4574.03125 418.238281 4580.386719 427.457031 4580.386719 440.53125 C 4580.386719 453.980469 4573.90625 462.945312 4567.425781 462.945312 Z M 4583.503906 440.65625 C 4583.503906 426.335938 4576.148438 415.5 4567.300781 415.5 C 4557.832031 415.5 4548.984375 425.960938 4548.984375 440.53125 C 4548.984375 455.601562 4557.957031 465.6875 4567.300781 465.6875 C 4576.398438 465.6875 4583.503906 454.601562 4583.503906 440.65625 Z M 4583.503906 440.65625 "/>
<path fill-rule="nonzero" fill="rgb(0%, 0%, 0%)" fill-opacity="1" d="M 4383.488281 1289.800781 C 4377.757812 1286.066406 4377.257812 1281.832031 4377.257812 1279.714844 C 4377.257812 1272.117188 4385.359375 1266.886719 4394.207031 1266.886719 C 4403.304688 1266.886719 4411.277344 1273.363281 4411.277344 1282.328125 C 4411.277344 1289.429688 4406.417969 1295.40625 4398.941406 1299.765625 C 4393.792969 1296.441406 4388.640625 1293.121094 4383.488281 1289.800781 Z M 4401.683594 1301.632812 C 4410.65625 1297.023438 4416.761719 1290.546875 4416.761719 1282.328125 C 4416.761719 1270.871094 4405.671875 1263.773438 4394.332031 1263.773438 C 4381.871094 1263.773438 4371.773438 1272.988281 4371.773438 1284.570312 C 4371.773438 1286.8125 4372.023438 1292.417969 4377.257812 1298.269531 C 4378.628906 1299.765625 4383.238281 1302.878906 4386.355469 1304.996094 C 4379.128906 1308.605469 4368.410156 1315.578125 4368.410156 1327.910156 C 4368.410156 1341.109375 4381.121094 1349.453125 4394.207031 1349.453125 C 4408.289062 1349.453125 4420.128906 1339.117188 4420.128906 1325.792969 C 4420.128906 1321.308594 4418.757812 1315.703125 4414.019531 1310.472656 C 4411.652344 1307.859375 4409.660156 1306.613281 4401.683594 1301.632812 Z M 4389.222656 1306.863281 C 4394.332031 1310.101562 4399.441406 1313.339844 4404.550781 1316.574219 C 4408.039062 1318.941406 4413.894531 1322.679688 4413.894531 1330.273438 C 4413.894531 1339.488281 4404.550781 1345.964844 4394.332031 1345.964844 C 4383.613281 1345.964844 4374.640625 1338.246094 4374.640625 1327.910156 C 4374.640625 1320.6875 4378.628906 1312.714844 4389.222656 1306.863281 Z M 4389.222656 1306.863281 "/>
<path fill-rule="nonzero" fill="rgb(0%, 0%, 0%)" fill-opacity="1" d="M 4482.808594 1306.863281 C 4482.808594 1296.898438 4482.1875 1286.9375 4477.824219 1277.722656 C 4472.09375 1265.765625 4461.875 1263.773438 4456.640625 1263.773438 C 4449.164062 1263.773438 4440.066406 1267.011719 4434.957031 1278.59375 C 4430.96875 1287.1875 4430.347656 1296.898438 4430.347656 1306.863281 C 4430.347656 1316.203125 4430.84375 1327.410156 4435.953125 1336.875 C 4441.3125 1346.960938 4450.410156 1349.453125 4456.515625 1349.453125 C 4463.246094 1349.453125 4472.714844 1346.835938 4478.199219 1335.007812 C 4482.1875 1326.414062 4482.808594 1316.699219 4482.808594 1306.863281 Z M 4456.515625 1346.714844 C 4451.65625 1346.714844 4444.304688 1343.601562 4442.058594 1331.644531 C 4440.6875 1324.171875 4440.6875 1312.714844 4440.6875 1305.367188 C 4440.6875 1297.398438 4440.6875 1289.179688 4441.6875 1282.453125 C 4444.054688 1267.632812 4453.398438 1266.515625 4456.515625 1266.515625 C 4460.628906 1266.515625 4468.851562 1268.753906 4471.222656 1281.085938 C 4472.46875 1288.058594 4472.46875 1297.523438 4472.46875 1305.367188 C 4472.46875 1314.707031 4472.46875 1323.175781 4471.097656 1331.144531 C 4469.226562 1342.976562 4462.125 1346.714844 4456.515625 1346.714844 Z M 4456.515625 1346.714844 "/>
<path fill-rule="nonzero" fill="rgb(0%, 0%, 0%)" fill-opacity="1" d="M 4573.160156 1258.046875 C 4573.90625 1256.925781 4574.15625 1256.550781 4574.15625 1255.804688 C 4574.15625 1254.433594 4573.035156 1253.3125 4571.664062 1253.3125 C 4570.417969 1253.3125 4569.792969 1254.183594 4569.046875 1255.058594 C 4562.816406 1263.523438 4554.464844 1266.886719 4545.367188 1266.886719 C 4536.644531 1266.886719 4528.917969 1263.773438 4522.066406 1257.296875 C 4519.699219 1255.179688 4517.082031 1253.3125 4513.09375 1253.3125 C 4503.621094 1253.3125 4494.773438 1263.773438 4494.773438 1278.34375 C 4494.773438 1293.414062 4503.746094 1303.5 4513.09375 1303.5 C 4522.191406 1303.5 4529.292969 1292.417969 4529.292969 1278.46875 C 4529.292969 1276.726562 4529.292969 1270.871094 4526.675781 1264.398438 C 4534.777344 1269.003906 4541.007812 1269.628906 4545.492188 1269.628906 C 4554.964844 1269.628906 4561.320312 1265.765625 4562.066406 1265.269531 C 4562.109375 1265.308594 4562.152344 1265.351562 4562.191406 1265.394531 C 4543.542969 1293.164062 4524.890625 1320.933594 4506.238281 1348.707031 C 4505.117188 1350.324219 4505.117188 1350.945312 4505.117188 1351.195312 C 4505.117188 1352.566406 4506.363281 1353.6875 4507.609375 1353.6875 C 4508.855469 1353.6875 4509.105469 1353.1875 4510.101562 1351.820312 C 4531.121094 1320.5625 4552.140625 1289.304688 4573.160156 1258.046875 Z M 4513.21875 1300.761719 C 4510.726562 1300.761719 4502.5 1299.140625 4502.5 1278.46875 C 4502.5 1257.671875 4510.601562 1256.054688 4513.21875 1256.054688 C 4519.820312 1256.054688 4526.175781 1265.269531 4526.175781 1278.34375 C 4526.175781 1291.792969 4519.699219 1300.761719 4513.21875 1300.761719 Z M 4568.421875 1350.945312 C 4565.929688 1350.945312 4557.707031 1349.328125 4557.707031 1328.65625 C 4557.707031 1307.859375 4565.804688 1306.238281 4568.421875 1306.238281 C 4575.027344 1306.238281 4581.382812 1315.457031 4581.382812 1328.53125 C 4581.382812 1341.980469 4574.902344 1350.945312 4568.421875 1350.945312 Z M 4584.5 1328.65625 C 4584.5 1314.335938 4577.148438 1303.5 4568.296875 1303.5 C 4558.828125 1303.5 4549.980469 1313.960938 4549.980469 1328.53125 C 4549.980469 1343.601562 4558.953125 1353.6875 4568.296875 1353.6875 C 4577.394531 1353.6875 4584.5 1342.601562 4584.5 1328.65625 Z M 4584.5 1328.65625 "/>
</svg>
