<?xml version="1.0" encoding="UTF-8"?>
<svg xmlns="http://www.w3.org/2000/svg" xmlns:xlink="http://www.w3.org/1999/xlink" width="4573" height="2298" viewBox="0 0 4573 2298">
<path fill="none" stroke-width="0.2" stroke-linecap="butt" stroke-linejoin="miter" stroke="rgb(98.823529%, 38.431373%, 33.333333%)" stroke-opacity="1" stroke-miterlimit="10" d="M -36.027421 10.475 C -33.72743 10.475 -31.427439 10.475 -29.127383 10.475 " transform="matrix(60.037603, 0, 0, -60, 2286.5, 1149)"/>
<path fill="none" stroke-width="0.2" stroke-linecap="butt" stroke-linejoin="miter" stroke="rgb(98.823529%, 38.431373%, 33.333333%)" stroke-opacity="1" stroke-miterlimit="10" d="M -28.527434 10.475 C -26.227443 10.475 -23.927387 10.475 -21.627396 10.475 " transform="matrix(60.037603, 0, 0, -60, 2286.5, 1149)"/>
<path fill="none" stroke-width="0.2" stroke-linecap="butt" stroke-linejoin="miter" stroke="rgb(98.823529%, 38.431373%, 33.333333%)" stroke-opacity="1" stroke-miterlimit="10" d="M -21.027447 10.475 C -18.727391 10.475 -16.4274 10.475 -14.127409 10.475 " transform="matrix(60.037603, 0, 0, -60, 2286.5, 1149)"/>
<path fill="none" stroke-width="0.2" stroke-linecap="butt" stroke-linejoin="miter" stroke="rgb(98.823529%, 38.431373%, 33.333333%)" stroke-opacity="1" stroke-miterlimit="10" d="M -13.527395 10.475 C -11.227404 10.475 -8.927413 10.475 -6.627422 10.475 " transform="matrix(60.037603, 0, 0, -60, 2286.5, 1149)"/>
<path fill="none" stroke-width="0.2" stroke-linecap="butt" stroke-linejoin="miter" stroke="rgb(98.823529%, 38.431373%, 33.333333%)" stroke-opacity="1" stroke-miterlimit="10" d="M -6.027407 10.475 C -3.727417 10.475 -1.427426 10.475 0.872565 10.475 " transform="matrix(60.037603, 0, 0, -60, 2286.5, 1149)"/>
<path fill="none" stroke-width="0.2" stroke-linecap="butt" stroke-linejoin="miter" stroke="rgb(98.823529%, 38.431373%, 33.333333%)" stroke-opacity="1" stroke-miterlimit="10" d="M 1.47258 10.475 C 3.772571 10.475 6.072561 10.475 8.372617 10.475 " transform="matrix(60.037603, 0, 0, -60, 2286.5, 1149)"/>
<path fill="none" stroke-width="0.2" stroke-linecap="butt" stroke-linejoin="miter" stroke="rgb(98.823529%, 38.431373%, 33.333333%)" stroke-opacity="1" stroke-miterlimit="10" d="M 8.972567 10.475 C 11.272558 10.475 13.572614 10.475 15.872604 10.475 " transform="matrix(60.037603, 0, 0, -60, 2286.5, 1149)"/>
<path fill="none" stroke-width="0.2" stroke-linecap="butt" stroke-linejoin="miter" stroke="rgb(98.823529%, 38.431373%, 33.333333%)" stroke-opacity="1" stroke-miterlimit="10" d="M 16.472554 10.475 C 18.77261 10.475 21.072601 10.475 23.372592 10.475 " transform="matrix(60.037603, 0, 0, -60, 2286.5, 1149)"/>
<path fill="none" stroke-width="0.2" stroke-linecap="butt" stroke-linejoin="miter" stroke="rgb(98.823529%, 38.431373%, 33.333333%)" stroke-opacity="1" stroke-miterlimit="10" d="M 23.460427 10.687109 C 21.101879 13.045703 18.743266 15.404297 16.384718 17.762891 " transform="matrix(60.037603, 0, 0, -60, 2286.5, 1149)"/>
<path fill="none" stroke-width="0.2" stroke-linecap="butt" stroke-linejoin="miter" stroke="rgb(98.823529%, 38.431373%, 33.333333%)" stroke-opacity="1" stroke-miterlimit="10" d="M 15.872604 17.975 C 13.572614 17.975 11.272558 17.975 8.972567 17.975 " transform="matrix(60.037603, 0, 0, -60, 2286.5, 1149)"/>
<path fill="none" stroke-width="0.2" stroke-linecap="butt" stroke-linejoin="miter" stroke="rgb(98.823529%, 38.431373%, 33.333333%)" stroke-opacity="1" stroke-miterlimit="10" d="M 8.372617 17.975 C 6.072561 17.975 3.772571 17.975 1.47258 17.975 " transform="matrix(60.037603, 0, 0, -60, 2286.5, 1149)"/>
<path fill="none" stroke-width="0.2" stroke-linecap="butt" stroke-linejoin="miter" stroke="rgb(98.823529%, 38.431373%, 33.333333%)" stroke-opacity="1" stroke-miterlimit="10" d="M 0.872565 17.975 C -1.427426 17.975 -3.727417 17.975 -6.027407 17.975 " transform="matrix(60.037603, 0, 0, -60, 2286.5, 1149)"/>
<path fill="none" stroke-width="0.2" stroke-linecap="butt" stroke-linejoin="miter" stroke="rgb(98.823529%, 38.431373%, 33.333333%)" stroke-opacity="1" stroke-miterlimit="10" d="M -6.627422 17.975 C -8.927413 17.975 -11.227404 17.975 -13.527395 17.975 " transform="matrix(60.037603, 0, 0, -60, 2286.5, 1149)"/>
<path fill="none" stroke-width="0.2" stroke-linecap="butt" stroke-linejoin="miter" stroke="rgb(98.823529%, 38.431373%, 33.333333%)" stroke-opacity="1" stroke-miterlimit="10" d="M -14.127409 17.975 C -16.4274 17.975 -18.727391 17.975 -21.027447 17.975 " transform="matrix(60.037603, 0, 0, -60, 2286.5, 1149)"/>
<path fill="none" stroke-width="0.2" stroke-linecap="butt" stroke-linejoin="miter" stroke="rgb(98.823529%, 38.431373%, 33.333333%)" stroke-opacity="1" stroke-miterlimit="10" d="M -21.627396 17.975 C -23.927387 17.975 -26.227443 17.975 -28.527434 17.975 " transform="matrix(60.037603, 0, 0, -60, 2286.5, 1149)"/>
<path fill="none" stroke-width="0.2" stroke-linecap="butt" stroke-linejoin="miter" stroke="rgb(98.823529%, 38.431373%, 33.333333%)" stroke-opacity="1" stroke-miterlimit="10" d="M -36.115257 10.687109 C -33.756709 13.045703 -31.398096 15.404297 -29.039548 17.762891 " transform="matrix(60.037603, 0, 0, -60, 2286.5, 1149)"/>
<path fill="none" stroke-width="0.2" stroke-linecap="butt" stroke-linejoin="miter" stroke="rgb(98.823529%, 38.431373%, 33.333333%)" stroke-opacity="1" stroke-miterlimit="10" d="M -28.827441 10.775 C -28.827441 13.075 -28.827441 15.375 -28.827441 17.675 " transform="matrix(60.037603, 0, 0, -60, 2286.5, 1149)"/>
<path fill="none" stroke-width="0.2" stroke-linecap="butt" stroke-linejoin="miter" stroke="rgb(98.823529%, 38.431373%, 33.333333%)" stroke-opacity="1" stroke-miterlimit="10" d="M -21.327389 10.775 C -21.327389 13.075 -21.327389 15.375 -21.327389 17.675 " transform="matrix(60.037603, 0, 0, -60, 2286.5, 1149)"/>
<path fill="none" stroke-width="0.2" stroke-linecap="butt" stroke-linejoin="miter" stroke="rgb(98.823529%, 38.431373%, 33.333333%)" stroke-opacity="1" stroke-miterlimit="10" d="M -13.827402 10.775 C -13.827402 13.075 -13.827402 15.375 -13.827402 17.675 " transform="matrix(60.037603, 0, 0, -60, 2286.5, 1149)"/>
<path fill="none" stroke-width="0.2" stroke-linecap="butt" stroke-linejoin="miter" stroke="rgb(98.823529%, 38.431373%, 33.333333%)" stroke-opacity="1" stroke-miterlimit="10" d="M -6.327415 10.775 C -6.327415 13.075 -6.327415 15.375 -6.327415 17.675 " transform="matrix(60.037603, 0, 0, -60, 2286.5, 1149)"/>
<path fill="none" stroke-width="0.2" stroke-linecap="butt" stroke-linejoin="miter" stroke="rgb(98.823529%, 38.431373%, 33.333333%)" stroke-opacity="1" stroke-miterlimit="10" d="M 1.172572 10.775 C 1.172572 13.075 1.172572 15.375 1.172572 17.675 " transform="matrix(60.037603, 0, 0, -60, 2286.5, 1149)"/>
<path fill="none" stroke-width="0.2" stroke-linecap="butt" stroke-linejoin="miter" stroke="rgb(98.823529%, 38.431373%, 33.333333%)" stroke-opacity="1" stroke-miterlimit="10" d="M 8.67256 10.775 C 8.67256 13.075 8.67256 15.375 8.67256 17.675 " transform="matrix(60.037603, 0, 0, -60, 2286.5, 1149)"/>
<path fill="none" stroke-width="0.2" stroke-linecap="butt" stroke-linejoin="miter" stroke="rgb(98.823529%, 38.431373%, 33.333333%)" stroke-opacity="1" stroke-miterlimit="10" d="M 16.172612 10.775 C 16.172612 13.075 16.172612 15.375 16.172612 17.675 " transform="matrix(60.037603, 0, 0, -60, 2286.5, 1149)"/>
<path fill="none" stroke-width="0.2" stroke-linecap="butt" stroke-linejoin="miter" stroke="rgb(98.823529%, 38.431373%, 33.333333%)" stroke-opacity="1" stroke-miterlimit="10" d="M -21.539561 10.687109 C -23.898109 13.045703 -26.256722 15.404297 -28.61527 17.762891 " transform="matrix(60.037603, 0, 0, -60, 2286.5, 1149)"/>
<path fill="none" stroke-width="0.2" stroke-linecap="butt" stroke-linejoin="miter" stroke="rgb(98.823529%, 38.431373%, 33.333333%)" stroke-opacity="1" stroke-miterlimit="10" d="M -14.039574 10.687109 C -16.398121 13.045703 -18.756734 15.404297 -21.115282 17.762891 " transform="matrix(60.037603, 0, 0, -60, 2286.5, 1149)"/>
<path fill="none" stroke-width="0.2" stroke-linecap="butt" stroke-linejoin="miter" stroke="rgb(98.823529%, 38.431373%, 33.333333%)" stroke-opacity="1" stroke-miterlimit="10" d="M -6.539521 10.687109 C -8.898134 13.045703 -11.256682 15.404297 -13.615295 17.762891 " transform="matrix(60.037603, 0, 0, -60, 2286.5, 1149)"/>
<path fill="none" stroke-width="0.2" stroke-linecap="butt" stroke-linejoin="miter" stroke="rgb(98.823529%, 38.431373%, 33.333333%)" stroke-opacity="1" stroke-miterlimit="10" d="M -6.115308 10.687109 C -3.756695 13.045703 -1.398147 15.404297 0.960466 17.762891 " transform="matrix(60.037603, 0, 0, -60, 2286.5, 1149)"/>
<path fill="none" stroke-width="0.2" stroke-linecap="butt" stroke-linejoin="miter" stroke="rgb(98.823529%, 38.431373%, 33.333333%)" stroke-opacity="1" stroke-miterlimit="10" d="M 1.384744 10.687109 C 3.743292 13.045703 6.101905 15.404297 8.460453 17.762891 " transform="matrix(60.037603, 0, 0, -60, 2286.5, 1149)"/>
<path fill="none" stroke-width="0.2" stroke-linecap="butt" stroke-linejoin="miter" stroke="rgb(98.823529%, 38.431373%, 33.333333%)" stroke-opacity="1" stroke-miterlimit="10" d="M 8.884731 10.687109 C 11.243279 13.045703 13.601892 15.404297 15.96044 17.762891 " transform="matrix(60.037603, 0, 0, -60, 2286.5, 1149)"/>
<path fill="none" stroke-width="0.04" stroke-linecap="butt" stroke-linejoin="miter" stroke="rgb(0%, 0%, 0%)" stroke-opacity="1" stroke-miterlimit="10" d="M -36.327428 10.475 C -36.712343 9.808333 -37.097193 9.141667 -37.482108 8.475 C -36.712343 8.475 -35.942513 8.475 -35.172683 8.475 C -35.557598 9.141667 -35.942513 9.808333 -36.327428 10.475 Z M -36.327428 10.475 " transform="matrix(60.037603, 0, 0, -60, 2286.5, 1149)"/>
<path fill="none" stroke-width="0.04" stroke-linecap="butt" stroke-linejoin="miter" stroke="rgb(0%, 0%, 0%)" stroke-opacity="1" stroke-miterlimit="10" d="M -34.595376 8.475 C -35.750056 8.475 -36.904736 8.475 -38.059481 8.475 " transform="matrix(60.037603, 0, 0, -60, 2286.5, 1149)"/>
<path fill="none" stroke-width="0.04" stroke-linecap="butt" stroke-linejoin="miter" stroke="rgb(0%, 0%, 0%)" stroke-opacity="1" stroke-miterlimit="10" d="M 23.672599 10.475 C 23.287684 9.808333 22.902769 9.141667 22.517854 8.475 C 23.287684 8.475 24.057514 8.475 24.827279 8.475 C 24.442364 9.141667 24.057514 9.808333 23.672599 10.475 Z M 23.672599 10.475 " transform="matrix(60.037603, 0, 0, -60, 2286.5, 1149)"/>
<path fill="none" stroke-width="0.04" stroke-linecap="butt" stroke-linejoin="miter" stroke="rgb(0%, 0%, 0%)" stroke-opacity="1" stroke-miterlimit="10" d="M 25.404651 8.475 C 24.249906 8.475 23.095226 8.475 21.940546 8.475 " transform="matrix(60.037603, 0, 0, -60, 2286.5, 1149)"/>
<path fill-rule="nonzero" fill="rgb(0%, 0%, 0%)" fill-opacity="1" d="M 123.5 520.5 C 123.5 515.726562 121.601562 511.148438 118.226562 507.773438 C 114.847656 504.394531 110.265625 502.5 105.488281 502.5 C 100.710938 502.5 96.132812 504.394531 92.753906 507.773438 C 89.375 511.148438 87.476562 515.726562 87.476562 520.5 C 87.476562 525.273438 89.375 529.851562 92.753906 533.226562 C 96.132812 536.605469 100.710938 538.5 105.488281 538.5 C 110.265625 538.5 114.847656 536.605469 118.226562 533.226562 C 121.601562 529.851562 123.5 525.273438 123.5 520.5 Z M 123.5 520.5 "/>
<path fill-rule="nonzero" fill="rgb(0%, 0%, 0%)" fill-opacity="1" d="M 573.78125 520.5 C 573.78125 515.726562 571.886719 511.148438 568.507812 507.773438 C 565.128906 504.394531 560.546875 502.5 555.769531 502.5 C 550.996094 502.5 546.414062 504.394531 543.035156 507.773438 C 539.65625 511.148438 537.761719 515.726562 537.761719 520.5 C 537.761719 525.273438 539.65625 529.851562 543.035156 533.226562 C 546.414062 536.605469 550.996094 538.5 555.769531 538.5 C 560.546875 538.5 565.128906 536.605469 568.507812 533.226562 C 571.886719 529.851562 573.78125 525.273438 573.78125 520.5 Z M 573.78125 520.5 "/>
<path fill-rule="nonzero" fill="rgb(0%, 0%, 0%)" fill-opacity="1" d="M 1024.0625 520.5 C 1024.0625 515.726562 1022.167969 511.148438 1018.789062 507.773438 C 1015.410156 504.394531 1010.828125 502.5 1006.054688 502.5 C 1001.277344 502.5 996.695312 504.394531 993.316406 507.773438 C 989.941406 511.148438 988.042969 515.726562 988.042969 520.5 C 988.042969 525.273438 989.941406 529.851562 993.316406 533.226562 C 996.695312 536.605469 1001.277344 538.5 1006.054688 538.5 C 1010.828125 538.5 1015.410156 536.605469 1018.789062 533.226562 C 1022.167969 529.851562 1024.0625 525.273438 1024.0625 520.5 Z M 1024.0625 520.5 "/>
<path fill-rule="nonzero" fill="rgb(0%, 0%, 0%)" fill-opacity="1" d="M 1474.347656 520.5 C 1474.347656 515.726562 1472.449219 511.148438 1469.070312 507.773438 C 1465.691406 504.394531 1461.113281 502.5 1456.335938 502.5 C 1451.558594 502.5 1446.976562 504.394531 1443.597656 507.773438 C 1440.222656 511.148438 1438.324219 515.726562 1438.324219 520.5 C 1438.324219 525.273438 1440.222656 529.851562 1443.597656 533.226562 C 1446.976562 536.605469 1451.558594 538.5 1456.335938 538.5 C 1461.113281 538.5 1465.691406 536.605469 1469.070312 533.226562 C 1472.449219 529.851562 1474.347656 525.273438 1474.347656 520.5 Z M 1474.347656 520.5 "/>
<path fill-rule="nonzero" fill="rgb(0%, 0%, 0%)" fill-opacity="1" d="M 1924.628906 520.5 C 1924.628906 515.726562 1922.730469 511.148438 1919.351562 507.773438 C 1915.976562 504.394531 1911.394531 502.5 1906.617188 502.5 C 1901.839844 502.5 1897.257812 504.394531 1893.882812 507.773438 C 1890.503906 511.148438 1888.605469 515.726562 1888.605469 520.5 C 1888.605469 525.273438 1890.503906 529.851562 1893.882812 533.226562 C 1897.257812 536.605469 1901.839844 538.5 1906.617188 538.5 C 1911.394531 538.5 1915.976562 536.605469 1919.351562 533.226562 C 1922.730469 529.851562 1924.628906 525.273438 1924.628906 520.5 Z M 1924.628906 520.5 "/>
<path fill-rule="nonzero" fill="rgb(0%, 0%, 0%)" fill-opacity="1" d="M 2374.910156 520.5 C 2374.910156 515.726562 2373.011719 511.148438 2369.636719 507.773438 C 2366.257812 504.394531 2361.675781 502.5 2356.898438 502.5 C 2352.121094 502.5 2347.542969 504.394531 2344.164062 507.773438 C 2340.785156 511.148438 2338.886719 515.726562 2338.886719 520.5 C 2338.886719 525.273438 2340.785156 529.851562 2344.164062 533.226562 C 2347.542969 536.605469 2352.121094 538.5 2356.898438 538.5 C 2361.675781 538.5 2366.257812 536.605469 2369.636719 533.226562 C 2373.011719 529.851562 2374.910156 525.273438 2374.910156 520.5 Z M 2374.910156 520.5 "/>
<path fill-rule="nonzero" fill="rgb(0%, 0%, 0%)" fill-opacity="1" d="M 2825.191406 520.5 C 2825.191406 515.726562 2823.292969 511.148438 2819.917969 507.773438 C 2816.539062 504.394531 2811.957031 502.5 2807.179688 502.5 C 2802.40625 502.5 2797.824219 504.394531 2794.445312 507.773438 C 2791.066406 511.148438 2789.171875 515.726562 2789.171875 520.5 C 2789.171875 525.273438 2791.066406 529.851562 2794.445312 533.226562 C 2797.824219 536.605469 2802.40625 538.5 2807.179688 538.5 C 2811.957031 538.5 2816.539062 536.605469 2819.917969 533.226562 C 2823.292969 529.851562 2825.191406 525.273438 2825.191406 520.5 Z M 2825.191406 520.5 "/>
<path fill-rule="nonzero" fill="rgb(0%, 0%, 0%)" fill-opacity="1" d="M 3275.472656 520.5 C 3275.472656 515.726562 3273.578125 511.148438 3270.199219 507.773438 C 3266.820312 504.394531 3262.238281 502.5 3257.464844 502.5 C 3252.6875 502.5 3248.105469 504.394531 3244.726562 507.773438 C 3241.347656 511.148438 3239.453125 515.726562 3239.453125 520.5 C 3239.453125 525.273438 3241.347656 529.851562 3244.726562 533.226562 C 3248.105469 536.605469 3252.6875 538.5 3257.464844 538.5 C 3262.238281 538.5 3266.820312 536.605469 3270.199219 533.226562 C 3273.578125 529.851562 3275.472656 525.273438 3275.472656 520.5 Z M 3275.472656 520.5 "/>
<path fill-rule="nonzero" fill="rgb(0%, 0%, 0%)" fill-opacity="1" d="M 3725.757812 520.5 C 3725.757812 515.726562 3723.859375 511.148438 3720.480469 507.773438 C 3717.101562 504.394531 3712.523438 502.5 3707.746094 502.5 C 3702.96875 502.5 3698.386719 504.394531 3695.007812 507.773438 C 3691.632812 511.148438 3689.734375 515.726562 3689.734375 520.5 C 3689.734375 525.273438 3691.632812 529.851562 3695.007812 533.226562 C 3698.386719 536.605469 3702.96875 538.5 3707.746094 538.5 C 3712.523438 538.5 3717.101562 536.605469 3720.480469 533.226562 C 3723.859375 529.851562 3725.757812 525.273438 3725.757812 520.5 Z M 3725.757812 520.5 "/>
<path fill-rule="nonzero" fill="rgb(0%, 0%, 0%)" fill-opacity="1" d="M 3275.472656 70.5 C 3275.472656 65.726562 3273.578125 61.148438 3270.199219 57.773438 C 3266.820312 54.394531 3262.238281 52.5 3257.464844 52.5 C 3252.6875 52.5 3248.105469 54.394531 3244.726562 57.773438 C 3241.347656 61.148438 3239.453125 65.726562 3239.453125 70.5 C 3239.453125 75.273438 3241.347656 79.851562 3244.726562 83.226562 C 3248.105469 86.605469 3252.6875 88.5 3257.464844 88.5 C 3262.238281 88.5 3266.820312 86.605469 3270.199219 83.226562 C 3273.578125 79.851562 3275.472656 75.273438 3275.472656 70.5 Z M 3275.472656 70.5 "/>
<path fill-rule="nonzero" fill="rgb(0%, 0%, 0%)" fill-opacity="1" d="M 2825.191406 70.5 C 2825.191406 65.726562 2823.292969 61.148438 2819.917969 57.773438 C 2816.539062 54.394531 2811.957031 52.5 2807.179688 52.5 C 2802.40625 52.5 2797.824219 54.394531 2794.445312 57.773438 C 2791.066406 61.148438 2789.171875 65.726562 2789.171875 70.5 C 2789.171875 75.273438 2791.066406 79.851562 2794.445312 83.226562 C 2797.824219 86.605469 2802.40625 88.5 2807.179688 88.5 C 2811.957031 88.5 2816.539062 86.605469 2819.917969 83.226562 C 2823.292969 79.851562 2825.191406 75.273438 2825.191406 70.5 Z M 2825.191406 70.5 "/>
<path fill-rule="nonzero" fill="rgb(0%, 0%, 0%)" fill-opacity="1" d="M 2374.910156 70.5 C 2374.910156 65.726562 2373.011719 61.148438 2369.636719 57.773438 C 2366.257812 54.394531 2361.675781 52.5 2356.898438 52.5 C 2352.121094 52.5 2347.542969 54.394531 2344.164062 57.773438 C 2340.785156 61.148438 2338.886719 65.726562 2338.886719 70.5 C 2338.886719 75.273438 2340.785156 79.851562 2344.164062 83.226562 C 2347.542969 86.605469 2352.121094 88.5 2356.898438 88.5 C 2361.675781 88.5 2366.257812 86.605469 2369.636719 83.226562 C 2373.011719 79.851562 2374.910156 75.273438 2374.910156 70.5 Z M 2374.910156 70.5 "/>
<path fill-rule="nonzero" fill="rgb(0%, 0%, 0%)" fill-opacity="1" d="M 1924.628906 70.5 C 1924.628906 65.726562 1922.730469 61.148438 1919.351562 57.773438 C 1915.976562 54.394531 1911.394531 52.5 1906.617188 52.5 C 1901.839844 52.5 1897.257812 54.394531 1893.882812 57.773438 C 1890.503906 61.148438 1888.605469 65.726562 1888.605469 70.5 C 1888.605469 75.273438 1890.503906 79.851562 1893.882812 83.226562 C 1897.257812 86.605469 1901.839844 88.5 1906.617188 88.5 C 1911.394531 88.5 1915.976562 86.605469 1919.351562 83.226562 C 1922.730469 79.851562 1924.628906 75.273438 1924.628906 70.5 Z M 1924.628906 70.5 "/>
<path fill-rule="nonzero" fill="rgb(0%, 0%, 0%)" fill-opacity="1" d="M 1474.347656 70.5 C 1474.347656 65.726562 1472.449219 61.148438 1469.070312 57.773438 C 1465.691406 54.394531 1461.113281 52.5 1456.335938 52.5 C 1451.558594 52.5 1446.976562 54.394531 1443.597656 57.773438 C 1440.222656 61.148438 1438.324219 65.726562 1438.324219 70.5 C 1438.324219 75.273438 1440.222656 79.851562 1443.597656 83.226562 C 1446.976562 86.605469 1451.558594 88.5 1456.335938 88.5 C 1461.113281 88.5 1465.691406 86.605469 1469.070312 83.226562 C 1472.449219 79.851562 1474.347656 75.273438 1474.347656 70.5 Z M 1474.347656 70.5 "/>
<path fill-rule="nonzero" fill="rgb(0%, 0%, 0%)" fill-opacity="1" d="M 1024.0625 70.5 C 1024.0625 65.726562 1022.167969 61.148438 1018.789062 57.773438 C 1015.410156 54.394531 1010.828125 52.5 1006.054688 52.5 C 1001.277344 52.5 996.695312 54.394531 993.316406 57.773438 C 989.941406 61.148438 988.042969 65.726562 988.042969 70.5 C 988.042969 75.273438 989.941406 79.851562 993.316406 83.226562 C 996.695312 86.605469 1001.277344 88.5 1006.054688 88.5 C 1010.828125 88.5 1015.410156 86.605469 1018.789062 83.226562 C 1022.167969 79.851562 1024.0625 75.273438 1024.0625 70.5 Z M 1024.0625 70.5 "/>
<path fill-rule="nonzero" fill="rgb(0%, 0%, 0%)" fill-opacity="1" d="M 573.78125 70.5 C 573.78125 65.726562 571.886719 61.148438 568.507812 57.773438 C 565.128906 54.394531 560.546875 52.5 555.769531 52.5 C 550.996094 52.5 546.414062 54.394531 543.035156 57.773438 C 539.65625 61.148438 537.761719 65.726562 537.761719 70.5 C 537.761719 75.273438 539.65625 79.851562 543.035156 83.226562 C 546.414062 86.605469 550.996094 88.5 555.769531 88.5 C 560.546875 88.5 565.128906 86.605469 568.507812 83.226562 C 571.886719 79.851562 573.78125 75.273438 573.78125 70.5 Z M 573.78125 70.5 "/>
<path fill="none" stroke-width="0.2" stroke-linecap="butt" stroke-linejoin="miter" stroke="rgb(98.823529%, 38.431373%, 33.333333%)" stroke-opacity="1" stroke-miterlimit="10" d="M -36.027421 -3.325 C -33.72743 -3.325 -31.427439 -3.325 -29.127383 -3.325 " transform="matrix(60.037603, 0, 0, -60, 2286.5, 1149)"/>
<path fill="none" stroke-width="0.2" stroke-linecap="butt" stroke-linejoin="miter" stroke="rgb(98.823529%, 38.431373%, 33.333333%)" stroke-opacity="1" stroke-miterlimit="10" d="M -28.527434 -3.325 C -26.227443 -3.325 -23.927387 -3.325 -21.627396 -3.325 " transform="matrix(60.037603, 0, 0, -60, 2286.5, 1149)"/>
<path fill="none" stroke-width="0.2" stroke-linecap="butt" stroke-linejoin="miter" stroke="rgb(98.823529%, 38.431373%, 33.333333%)" stroke-opacity="1" stroke-miterlimit="10" d="M -21.027447 -3.325 C -18.727391 -3.325 -16.4274 -3.325 -14.127409 -3.325 " transform="matrix(60.037603, 0, 0, -60, 2286.5, 1149)"/>
<path fill="none" stroke-width="0.2" stroke-linecap="butt" stroke-linejoin="miter" stroke="rgb(98.823529%, 38.431373%, 33.333333%)" stroke-opacity="1" stroke-miterlimit="10" d="M -13.527395 -3.325 C -11.227404 -3.325 -8.927413 -3.325 -6.627422 -3.325 " transform="matrix(60.037603, 0, 0, -60, 2286.5, 1149)"/>
<path fill="none" stroke-width="0.2" stroke-linecap="butt" stroke-linejoin="miter" stroke="rgb(98.823529%, 38.431373%, 33.333333%)" stroke-opacity="1" stroke-miterlimit="10" d="M -6.027407 -3.325 C -3.727417 -3.325 -1.427426 -3.325 0.872565 -3.325 " transform="matrix(60.037603, 0, 0, -60, 2286.5, 1149)"/>
<path fill="none" stroke-width="0.2" stroke-linecap="butt" stroke-linejoin="miter" stroke="rgb(98.823529%, 38.431373%, 33.333333%)" stroke-opacity="1" stroke-miterlimit="10" d="M 1.47258 -3.325 C 3.772571 -3.325 6.072561 -3.325 8.372617 -3.325 " transform="matrix(60.037603, 0, 0, -60, 2286.5, 1149)"/>
<path fill="none" stroke-width="0.2" stroke-linecap="butt" stroke-linejoin="miter" stroke="rgb(98.823529%, 38.431373%, 33.333333%)" stroke-opacity="1" stroke-miterlimit="10" d="M 8.972567 -3.325 C 11.272558 -3.325 13.572614 -3.325 15.872604 -3.325 " transform="matrix(60.037603, 0, 0, -60, 2286.5, 1149)"/>
<path fill="none" stroke-width="0.2" stroke-linecap="butt" stroke-linejoin="miter" stroke="rgb(98.823529%, 38.431373%, 33.333333%)" stroke-opacity="1" stroke-miterlimit="10" d="M 16.472554 -3.325 C 18.77261 -3.325 21.072601 -3.325 23.372592 -3.325 " transform="matrix(60.037603, 0, 0, -60, 2286.5, 1149)"/>
<path fill="none" stroke-width="0.2" stroke-linecap="butt" stroke-linejoin="miter" stroke="rgb(98.823529%, 38.431373%, 33.333333%)" stroke-opacity="1" stroke-miterlimit="10" d="M 23.460427 -3.112891 C 21.101879 -0.754297 18.743266 1.604297 16.384718 3.962891 " transform="matrix(60.037603, 0, 0, -60, 2286.5, 1149)"/>
<path fill="none" stroke-width="0.2" stroke-linecap="butt" stroke-linejoin="miter" stroke="rgb(98.823529%, 38.431373%, 33.333333%)" stroke-opacity="1" stroke-miterlimit="10" d="M 15.872604 4.175 C 13.572614 4.175 11.272558 4.175 8.972567 4.175 " transform="matrix(60.037603, 0, 0, -60, 2286.5, 1149)"/>
<path fill="none" stroke-width="0.2" stroke-linecap="butt" stroke-linejoin="miter" stroke="rgb(98.823529%, 38.431373%, 33.333333%)" stroke-opacity="1" stroke-miterlimit="10" d="M 8.372617 4.175 C 6.072561 4.175 3.772571 4.175 1.47258 4.175 " transform="matrix(60.037603, 0, 0, -60, 2286.5, 1149)"/>
<path fill="none" stroke-width="0.2" stroke-linecap="butt" stroke-linejoin="miter" stroke="rgb(98.823529%, 38.431373%, 33.333333%)" stroke-opacity="1" stroke-miterlimit="10" d="M 0.872565 4.175 C -1.427426 4.175 -3.727417 4.175 -6.027407 4.175 " transform="matrix(60.037603, 0, 0, -60, 2286.5, 1149)"/>
<path fill="none" stroke-width="0.2" stroke-linecap="butt" stroke-linejoin="miter" stroke="rgb(98.823529%, 38.431373%, 33.333333%)" stroke-opacity="1" stroke-miterlimit="10" d="M -6.627422 4.175 C -8.927413 4.175 -11.227404 4.175 -13.527395 4.175 " transform="matrix(60.037603, 0, 0, -60, 2286.5, 1149)"/>
<path fill="none" stroke-width="0.2" stroke-linecap="butt" stroke-linejoin="miter" stroke="rgb(98.823529%, 38.431373%, 33.333333%)" stroke-opacity="1" stroke-miterlimit="10" d="M -14.127409 4.175 C -16.4274 4.175 -18.727391 4.175 -21.027447 4.175 " transform="matrix(60.037603, 0, 0, -60, 2286.5, 1149)"/>
<path fill="none" stroke-width="0.2" stroke-linecap="butt" stroke-linejoin="miter" stroke="rgb(98.823529%, 38.431373%, 33.333333%)" stroke-opacity="1" stroke-miterlimit="10" d="M -21.627396 4.175 C -23.927387 4.175 -26.227443 4.175 -28.527434 4.175 " transform="matrix(60.037603, 0, 0, -60, 2286.5, 1149)"/>
<path fill="none" stroke-width="0.2" stroke-linecap="butt" stroke-linejoin="miter" stroke="rgb(98.823529%, 38.431373%, 33.333333%)" stroke-opacity="1" stroke-miterlimit="10" d="M -36.115257 -3.112891 C -33.756709 -0.754297 -31.398096 1.604297 -29.039548 3.962891 " transform="matrix(60.037603, 0, 0, -60, 2286.5, 1149)"/>
<path fill="none" stroke-width="0.2" stroke-linecap="butt" stroke-linejoin="miter" stroke="rgb(13.72549%, 41.960784%, 55.686275%)" stroke-opacity="1" stroke-miterlimit="10" d="M -28.827441 -3.025 C -28.827441 -0.725 -28.827441 1.575 -28.827441 3.875 " transform="matrix(60.037603, 0, 0, -60, 2286.5, 1149)"/>
<path fill="none" stroke-width="0.2" stroke-linecap="butt" stroke-linejoin="miter" stroke="rgb(13.72549%, 41.960784%, 55.686275%)" stroke-opacity="1" stroke-miterlimit="10" d="M -21.327389 -3.025 C -21.327389 -0.725 -21.327389 1.575 -21.327389 3.875 " transform="matrix(60.037603, 0, 0, -60, 2286.5, 1149)"/>
<path fill="none" stroke-width="0.2" stroke-linecap="butt" stroke-linejoin="miter" stroke="rgb(13.72549%, 41.960784%, 55.686275%)" stroke-opacity="1" stroke-miterlimit="10" d="M -13.827402 -3.025 C -13.827402 -0.725 -13.827402 1.575 -13.827402 3.875 " transform="matrix(60.037603, 0, 0, -60, 2286.5, 1149)"/>
<path fill="none" stroke-width="0.2" stroke-linecap="butt" stroke-linejoin="miter" stroke="rgb(13.72549%, 41.960784%, 55.686275%)" stroke-opacity="1" stroke-miterlimit="10" d="M -6.327415 -3.025 C -6.327415 -0.725 -6.327415 1.575 -6.327415 3.875 " transform="matrix(60.037603, 0, 0, -60, 2286.5, 1149)"/>
<path fill="none" stroke-width="0.2" stroke-linecap="butt" stroke-linejoin="miter" stroke="rgb(13.72549%, 41.960784%, 55.686275%)" stroke-opacity="1" stroke-miterlimit="10" d="M 1.172572 -3.025 C 1.172572 -0.725 1.172572 1.575 1.172572 3.875 " transform="matrix(60.037603, 0, 0, -60, 2286.5, 1149)"/>
<path fill="none" stroke-width="0.2" stroke-linecap="butt" stroke-linejoin="miter" stroke="rgb(13.72549%, 41.960784%, 55.686275%)" stroke-opacity="1" stroke-miterlimit="10" d="M 8.67256 -3.025 C 8.67256 -0.725 8.67256 1.575 8.67256 3.875 " transform="matrix(60.037603, 0, 0, -60, 2286.5, 1149)"/>
<path fill="none" stroke-width="0.2" stroke-linecap="butt" stroke-linejoin="miter" stroke="rgb(13.72549%, 41.960784%, 55.686275%)" stroke-opacity="1" stroke-miterlimit="10" d="M 16.172612 -3.025 C 16.172612 -0.725 16.172612 1.575 16.172612 3.875 " transform="matrix(60.037603, 0, 0, -60, 2286.5, 1149)"/>
<path fill="none" stroke-width="0.2" stroke-linecap="butt" stroke-linejoin="miter" stroke="rgb(46.666667%, 69.019608%, 36.470588%)" stroke-opacity="1" stroke-miterlimit="10" d="M -21.539561 -3.112891 C -23.898109 -0.754297 -26.256722 1.604297 -28.61527 3.962891 " transform="matrix(60.037603, 0, 0, -60, 2286.5, 1149)"/>
<path fill="none" stroke-width="0.2" stroke-linecap="butt" stroke-linejoin="miter" stroke="rgb(46.666667%, 69.019608%, 36.470588%)" stroke-opacity="1" stroke-miterlimit="10" d="M -14.039574 -3.112891 C -16.398121 -0.754297 -18.756734 1.604297 -21.115282 3.962891 " transform="matrix(60.037603, 0, 0, -60, 2286.5, 1149)"/>
<path fill="none" stroke-width="0.2" stroke-linecap="butt" stroke-linejoin="miter" stroke="rgb(46.666667%, 69.019608%, 36.470588%)" stroke-opacity="1" stroke-miterlimit="10" d="M -6.539521 -3.112891 C -8.898134 -0.754297 -11.256682 1.604297 -13.615295 3.962891 " transform="matrix(60.037603, 0, 0, -60, 2286.5, 1149)"/>
<path fill="none" stroke-width="0.2" stroke-linecap="butt" stroke-linejoin="miter" stroke="rgb(46.666667%, 69.019608%, 36.470588%)" stroke-opacity="1" stroke-miterlimit="10" d="M -6.115308 -3.112891 C -3.756695 -0.754297 -1.398147 1.604297 0.960466 3.962891 " transform="matrix(60.037603, 0, 0, -60, 2286.5, 1149)"/>
<path fill="none" stroke-width="0.2" stroke-linecap="butt" stroke-linejoin="miter" stroke="rgb(46.666667%, 69.019608%, 36.470588%)" stroke-opacity="1" stroke-miterlimit="10" d="M 1.384744 -3.112891 C 3.743292 -0.754297 6.101905 1.604297 8.460453 3.962891 " transform="matrix(60.037603, 0, 0, -60, 2286.5, 1149)"/>
<path fill="none" stroke-width="0.2" stroke-linecap="butt" stroke-linejoin="miter" stroke="rgb(46.666667%, 69.019608%, 36.470588%)" stroke-opacity="1" stroke-miterlimit="10" d="M 8.884731 -3.112891 C 11.243279 -0.754297 13.601892 1.604297 15.96044 3.962891 " transform="matrix(60.037603, 0, 0, -60, 2286.5, 1149)"/>
<path fill="none" stroke-width="0.04" stroke-linecap="butt" stroke-linejoin="miter" stroke="rgb(0%, 0%, 0%)" stroke-opacity="1" stroke-miterlimit="10" d="M -36.327428 -3.325 C -36.712343 -3.991667 -37.097193 -4.658333 -37.482108 -5.325 C -36.712343 -5.325 -35.942513 -5.325 -35.172683 -5.325 C -35.557598 -4.658333 -35.942513 -3.991667 -36.327428 -3.325 Z M -36.327428 -3.325 " transform="matrix(60.037603, 0, 0, -60, 2286.5, 1149)"/>
<path fill="none" stroke-width="0.04" stroke-linecap="butt" stroke-linejoin="miter" stroke="rgb(0%, 0%, 0%)" stroke-opacity="1" stroke-miterlimit="10" d="M -34.595376 -5.325 C -35.750056 -5.325 -36.904736 -5.325 -38.059481 -5.325 " transform="matrix(60.037603, 0, 0, -60, 2286.5, 1149)"/>
<path fill="none" stroke-width="0.04" stroke-linecap="butt" stroke-linejoin="miter" stroke="rgb(0%, 0%, 0%)" stroke-opacity="1" stroke-miterlimit="10" d="M 23.672599 -3.325 C 23.287684 -3.991667 22.902769 -4.658333 22.517854 -5.325 C 23.287684 -5.325 24.057514 -5.325 24.827279 -5.325 C 24.442364 -4.658333 24.057514 -3.991667 23.672599 -3.325 Z M 23.672599 -3.325 " transform="matrix(60.037603, 0, 0, -60, 2286.5, 1149)"/>
<path fill="none" stroke-width="0.04" stroke-linecap="butt" stroke-linejoin="miter" stroke="rgb(0%, 0%, 0%)" stroke-opacity="1" stroke-miterlimit="10" d="M 25.404651 -5.325 C 24.249906 -5.325 23.095226 -5.325 21.940546 -5.325 " transform="matrix(60.037603, 0, 0, -60, 2286.5, 1149)"/>
<path fill-rule="nonzero" fill="rgb(0%, 0%, 0%)" fill-opacity="1" d="M 123.5 1348.5 C 123.5 1343.726562 121.601562 1339.148438 118.226562 1335.773438 C 114.847656 1332.394531 110.265625 1330.5 105.488281 1330.5 C 100.710938 1330.5 96.132812 1332.394531 92.753906 1335.773438 C 89.375 1339.148438 87.476562 1343.726562 87.476562 1348.5 C 87.476562 1353.273438 89.375 1357.851562 92.753906 1361.226562 C 96.132812 1364.605469 100.710938 1366.5 105.488281 1366.5 C 110.265625 1366.5 114.847656 1364.605469 118.226562 1361.226562 C 121.601562 1357.851562 123.5 1353.273438 123.5 1348.5 Z M 123.5 1348.5 "/>
<path fill-rule="nonzero" fill="rgb(0%, 0%, 0%)" fill-opacity="1" d="M 573.78125 1348.5 C 573.78125 1343.726562 571.886719 1339.148438 568.507812 1335.773438 C 565.128906 1332.394531 560.546875 1330.5 555.769531 1330.5 C 550.996094 1330.5 546.414062 1332.394531 543.035156 1335.773438 C 539.65625 1339.148438 537.761719 1343.726562 537.761719 1348.5 C 537.761719 1353.273438 539.65625 1357.851562 543.035156 1361.226562 C 546.414062 1364.605469 550.996094 1366.5 555.769531 1366.5 C 560.546875 1366.5 565.128906 1364.605469 568.507812 1361.226562 C 571.886719 1357.851562 573.78125 1353.273438 573.78125 1348.5 Z M 573.78125 1348.5 "/>
<path fill-rule="nonzero" fill="rgb(0%, 0%, 0%)" fill-opacity="1" d="M 1024.0625 1348.5 C 1024.0625 1343.726562 1022.167969 1339.148438 1018.789062 1335.773438 C 1015.410156 1332.394531 1010.828125 1330.5 1006.054688 1330.5 C 1001.277344 1330.5 996.695312 1332.394531 993.316406 1335.773438 C 989.941406 1339.148438 988.042969 1343.726562 988.042969 1348.5 C 988.042969 1353.273438 989.941406 1357.851562 993.316406 1361.226562 C 996.695312 1364.605469 1001.277344 1366.5 1006.054688 1366.5 C 1010.828125 1366.5 1015.410156 1364.605469 1018.789062 1361.226562 C 1022.167969 1357.851562 1024.0625 1353.273438 1024.0625 1348.5 Z M 1024.0625 1348.5 "/>
<path fill-rule="nonzero" fill="rgb(0%, 0%, 0%)" fill-opacity="1" d="M 1474.347656 1348.5 C 1474.347656 1343.726562 1472.449219 1339.148438 1469.070312 1335.773438 C 1465.691406 1332.394531 1461.113281 1330.5 1456.335938 1330.5 C 1451.558594 1330.5 1446.976562 1332.394531 1443.597656 1335.773438 C 1440.222656 1339.148438 1438.324219 1343.726562 1438.324219 1348.5 C 1438.324219 1353.273438 1440.222656 1357.851562 1443.597656 1361.226562 C 1446.976562 1364.605469 1451.558594 1366.5 1456.335938 1366.5 C 1461.113281 1366.5 1465.691406 1364.605469 1469.070312 1361.226562 C 1472.449219 1357.851562 1474.347656 1353.273438 1474.347656 1348.5 Z M 1474.347656 1348.5 "/>
<path fill-rule="nonzero" fill="rgb(0%, 0%, 0%)" fill-opacity="1" d="M 1924.628906 1348.5 C 1924.628906 1343.726562 1922.730469 1339.148438 1919.351562 1335.773438 C 1915.976562 1332.394531 1911.394531 1330.5 1906.617188 1330.5 C 1901.839844 1330.5 1897.257812 1332.394531 1893.882812 1335.773438 C 1890.503906 1339.148438 1888.605469 1343.726562 1888.605469 1348.5 C 1888.605469 1353.273438 1890.503906 1357.851562 1893.882812 1361.226562 C 1897.257812 1364.605469 1901.839844 1366.5 1906.617188 1366.5 C 1911.394531 1366.5 1915.976562 1364.605469 1919.351562 1361.226562 C 1922.730469 1357.851562 1924.628906 1353.273438 1924.628906 1348.5 Z M 1924.628906 1348.5 "/>
<path fill-rule="nonzero" fill="rgb(0%, 0%, 0%)" fill-opacity="1" d="M 2374.910156 1348.5 C 2374.910156 1343.726562 2373.011719 1339.148438 2369.636719 1335.773438 C 2366.257812 1332.394531 2361.675781 1330.5 2356.898438 1330.5 C 2352.121094 1330.5 2347.542969 1332.394531 2344.164062 1335.773438 C 2340.785156 1339.148438 2338.886719 1343.726562 2338.886719 1348.5 C 2338.886719 1353.273438 2340.785156 1357.851562 2344.164062 1361.226562 C 2347.542969 1364.605469 2352.121094 1366.5 2356.898438 1366.5 C 2361.675781 1366.5 2366.257812 1364.605469 2369.636719 1361.226562 C 2373.011719 1357.851562 2374.910156 1353.273438 2374.910156 1348.5 Z M 2374.910156 1348.5 "/>
<path fill-rule="nonzero" fill="rgb(0%, 0%, 0%)" fill-opacity="1" d="M 2825.191406 1348.5 C 2825.191406 1343.726562 2823.292969 1339.148438 2819.917969 1335.773438 C 2816.539062 1332.394531 2811.957031 1330.5 2807.179688 1330.5 C 2802.40625 1330.5 2797.824219 1332.394531 2794.445312 1335.773438 C 2791.066406 1339.148438 2789.171875 1343.726562 2789.171875 1348.5 C 2789.171875 1353.273438 2791.066406 1357.851562 2794.445312 1361.226562 C 2797.824219 1364.605469 2802.40625 1366.5 2807.179688 1366.5 C 2811.957031 1366.5 2816.539062 1364.605469 2819.917969 1361.226562 C 2823.292969 1357.851562 2825.191406 1353.273438 2825.191406 1348.5 Z M 2825.191406 1348.5 "/>
<path fill-rule="nonzero" fill="rgb(0%, 0%, 0%)" fill-opacity="1" d="M 3275.472656 1348.5 C 3275.472656 1343.726562 3273.578125 1339.148438 3270.199219 1335.773438 C 3266.820312 1332.394531 3262.238281 1330.5 3257.464844 1330.5 C 3252.6875 1330.5 3248.105469 1332.394531 3244.726562 1335.773438 C 3241.347656 1339.148438 3239.453125 1343.726562 3239.453125 1348.5 C 3239.453125 1353.273438 3241.347656 1357.851562 3244.726562 1361.226562 C 3248.105469 1364.605469 3252.6875 1366.5 3257.464844 1366.5 C 3262.238281 1366.5 3266.820312 1364.605469 3270.199219 1361.226562 C 3273.578125 1357.851562 3275.472656 1353.273438 3275.472656 1348.5 Z M 3275.472656 1348.5 "/>
<path fill-rule="nonzero" fill="rgb(0%, 0%, 0%)" fill-opacity="1" d="M 3725.757812 1348.5 C 3725.757812 1343.726562 3723.859375 1339.148438 3720.480469 1335.773438 C 3717.101562 1332.394531 3712.523438 1330.5 3707.746094 1330.5 C 3702.96875 1330.5 3698.386719 1332.394531 3695.007812 1335.773438 C 3691.632812 1339.148438 3689.734375 1343.726562 3689.734375 1348.5 C 3689.734375 1353.273438 3691.632812 1357.851562 3695.007812 1361.226562 C 3698.386719 1364.605469 3702.96875 1366.5 3707.746094 1366.5 C 3712.523438 1366.5 3717.101562 1364.605469 3720.480469 1361.226562 C 3723.859375 1357.851562 3725.757812 1353.273438 3725.757812 1348.5 Z M 3725.757812 1348.5 "/>
<path fill-rule="nonzero" fill="rgb(0%, 0%, 0%)" fill-opacity="1" d="M 3275.472656 898.5 C 3275.472656 893.726562 3273.578125 889.148438 3270.199219 885.773438 C 3266.820312 882.394531 3262.238281 880.5 3257.464844 880.5 C 3252.6875 880.5 3248.105469 882.394531 3244.726562 885.773438 C 3241.347656 889.148438 3239.453125 893.726562 3239.453125 898.5 C 3239.453125 903.273438 3241.347656 907.851562 3244.726562 911.226562 C 3248.105469 914.605469 3252.6875 916.5 3257.464844 916.5 C 3262.238281 916.5 3266.820312 914.605469 3270.199219 911.226562 C 3273.578125 907.851562 3275.472656 903.273438 3275.472656 898.5 Z M 3275.472656 898.5 "/>
<path fill-rule="nonzero" fill="rgb(0%, 0%, 0%)" fill-opacity="1" d="M 2825.191406 898.5 C 2825.191406 893.726562 2823.292969 889.148438 2819.917969 885.773438 C 2816.539062 882.394531 2811.957031 880.5 2807.179688 880.5 C 2802.40625 880.5 2797.824219 882.394531 2794.445312 885.773438 C 2791.066406 889.148438 2789.171875 893.726562 2789.171875 898.5 C 2789.171875 903.273438 2791.066406 907.851562 2794.445312 911.226562 C 2797.824219 914.605469 2802.40625 916.5 2807.179688 916.5 C 2811.957031 916.5 2816.539062 914.605469 2819.917969 911.226562 C 2823.292969 907.851562 2825.191406 903.273438 2825.191406 898.5 Z M 2825.191406 898.5 "/>
<path fill-rule="nonzero" fill="rgb(0%, 0%, 0%)" fill-opacity="1" d="M 2374.910156 898.5 C 2374.910156 893.726562 2373.011719 889.148438 2369.636719 885.773438 C 2366.257812 882.394531 2361.675781 880.5 2356.898438 880.5 C 2352.121094 880.5 2347.542969 882.394531 2344.164062 885.773438 C 2340.785156 889.148438 2338.886719 893.726562 2338.886719 898.5 C 2338.886719 903.273438 2340.785156 907.851562 2344.164062 911.226562 C 2347.542969 914.605469 2352.121094 916.5 2356.898438 916.5 C 2361.675781 916.5 2366.257812 914.605469 2369.636719 911.226562 C 2373.011719 907.851562 2374.910156 903.273438 2374.910156 898.5 Z M 2374.910156 898.5 "/>
<path fill-rule="nonzero" fill="rgb(0%, 0%, 0%)" fill-opacity="1" d="M 1924.628906 898.5 C 1924.628906 893.726562 1922.730469 889.148438 1919.351562 885.773438 C 1915.976562 882.394531 1911.394531 880.5 1906.617188 880.5 C 1901.839844 880.5 1897.257812 882.394531 1893.882812 885.773438 C 1890.503906 889.148438 1888.605469 893.726562 1888.605469 898.5 C 1888.605469 903.273438 1890.503906 907.851562 1893.882812 911.226562 C 1897.257812 914.605469 1901.839844 916.5 1906.617188 916.5 C 1911.394531 916.5 1915.976562 914.605469 1919.351562 911.226562 C 1922.730469 907.851562 1924.628906 903.273438 1924.628906 898.5 Z M 1924.628906 898.5 "/>
<path fill-rule="nonzero" fill="rgb(0%, 0%, 0%)" fill-opacity="1" d="M 1474.347656 898.5 C 1474.347656 893.726562 1472.449219 889.148438 1469.070312 885.773438 C 1465.691406 882.394531 1461.113281 880.5 1456.335938 880.5 C 1451.558594 880.5 1446.976562 882.394531 1443.597656 885.773438 C 1440.222656 889.148438 1438.324219 893.726562 1438.324219 898.5 C 1438.324219 903.273438 1440.222656 907.851562 1443.597656 911.226562 C 1446.976562 914.605469 1451.558594 916.5 1456.335938 916.5 C 1461.113281 916.5 1465.691406 914.605469 1469.070312 911.226562 C 1472.449219 907.851562 1474.347656 903.273438 1474.347656 898.5 Z M 1474.347656 898.5 "/>
<path fill-rule="nonzero" fill="rgb(0%, 0%, 0%)" fill-opacity="1" d="M 1024.0625 898.5 C 1024.0625 893.726562 1022.167969 889.148438 1018.789062 885.773438 C 1015.410156 882.394531 1010.828125 880.5 1006.054688 880.5 C 1001.277344 880.5 996.695312 882.394531 993.316406 885.773438 C 989.941406 889.148438 988.042969 893.726562 988.042969 898.5 C 988.042969 903.273438 989.941406 907.851562 993.316406 911.226562 C 996.695312 914.605469 1001.277344 916.5 1006.054688 916.5 C 1010.828125 916.5 1015.410156 914.605469 1018.789062 911.226562 C 1022.167969 907.851562 1024.0625 903.273438 1024.0625 898.5 Z M 1024.0625 898.5 "/>
<path fill-rule="nonzero" fill="rgb(0%, 0%, 0%)" fill-opacity="1" d="M 573.78125 898.5 C 573.78125 893.726562 571.886719 889.148438 568.507812 885.773438 C 565.128906 882.394531 560.546875 880.5 555.769531 880.5 C 550.996094 880.5 546.414062 882.394531 543.035156 885.773438 C 539.65625 889.148438 537.761719 893.726562 537.761719 898.5 C 537.761719 903.273438 539.65625 907.851562 543.035156 911.226562 C 546.414062 914.605469 550.996094 916.5 555.769531 916.5 C 560.546875 916.5 565.128906 914.605469 568.507812 911.226562 C 571.886719 907.851562 573.78125 903.273438 573.78125 898.5 Z M 573.78125 898.5 "/>
<path fill="none" stroke-width="0.2" stroke-linecap="butt" stroke-linejoin="miter" stroke="rgb(61.176471%, 86.27451%, 92.156863%)" stroke-opacity="1" stroke-miterlimit="10" d="M -36.027421 -17.125 C -33.72743 -17.125 -31.427439 -17.125 -29.127383 -17.125 " transform="matrix(60.037603, 0, 0, -60, 2286.5, 1149)"/>
<path fill="none" stroke-width="0.2" stroke-linecap="butt" stroke-linejoin="miter" stroke="rgb(73.333333%, 73.333333%, 73.333333%)" stroke-opacity="1" stroke-miterlimit="10" d="M -28.527434 -17.125 C -26.227443 -17.125 -23.927387 -17.125 -21.627396 -17.125 " transform="matrix(60.037603, 0, 0, -60, 2286.5, 1149)"/>
<path fill="none" stroke-width="0.2" stroke-linecap="butt" stroke-linejoin="miter" stroke="rgb(87.843137%, 47.843137%, 37.254902%)" stroke-opacity="1" stroke-miterlimit="10" d="M -21.027447 -17.125 C -18.727391 -17.125 -16.4274 -17.125 -14.127409 -17.125 " transform="matrix(60.037603, 0, 0, -60, 2286.5, 1149)"/>
<path fill="none" stroke-width="0.2" stroke-linecap="butt" stroke-linejoin="miter" stroke="rgb(98.823529%, 38.431373%, 33.333333%)" stroke-opacity="1" stroke-miterlimit="10" d="M -13.527395 -17.125 C -11.227404 -17.125 -8.927413 -17.125 -6.627422 -17.125 " transform="matrix(60.037603, 0, 0, -60, 2286.5, 1149)"/>
<path fill="none" stroke-width="0.2" stroke-linecap="butt" stroke-linejoin="miter" stroke="rgb(51.372549%, 75.686275%, 40.392157%)" stroke-opacity="1" stroke-miterlimit="10" d="M -6.027407 -17.125 C -3.727417 -17.125 -1.427426 -17.125 0.872565 -17.125 " transform="matrix(60.037603, 0, 0, -60, 2286.5, 1149)"/>
<path fill="none" stroke-width="0.2" stroke-linecap="butt" stroke-linejoin="miter" stroke="rgb(67.45098%, 91.764706%, 84.313725%)" stroke-opacity="1" stroke-miterlimit="10" d="M 1.47258 -17.125 C 3.772571 -17.125 6.072561 -17.125 8.372617 -17.125 " transform="matrix(60.037603, 0, 0, -60, 2286.5, 1149)"/>
<path fill="none" stroke-width="0.2" stroke-linecap="butt" stroke-linejoin="miter" stroke="rgb(16.078431%, 67.058824%, 79.215686%)" stroke-opacity="1" stroke-miterlimit="10" d="M 8.972567 -17.125 C 11.272558 -17.125 13.572614 -17.125 15.872604 -17.125 " transform="matrix(60.037603, 0, 0, -60, 2286.5, 1149)"/>
<path fill="none" stroke-width="0.2" stroke-linecap="butt" stroke-linejoin="miter" stroke="rgb(92.54902%, 67.058824%, 75.686275%)" stroke-opacity="1" stroke-miterlimit="10" d="M 16.472554 -17.125 C 18.77261 -17.125 21.072601 -17.125 23.372592 -17.125 " transform="matrix(60.037603, 0, 0, -60, 2286.5, 1149)"/>
<path fill="none" stroke-width="0.2" stroke-linecap="butt" stroke-linejoin="miter" stroke="rgb(45.098039%, 38.823529%, 34.117647%)" stroke-opacity="1" stroke-miterlimit="10" d="M 23.460427 -16.912891 C 21.101879 -14.554297 18.743266 -12.195703 16.384718 -9.837109 " transform="matrix(60.037603, 0, 0, -60, 2286.5, 1149)"/>
<path fill="none" stroke-width="0.2" stroke-linecap="butt" stroke-linejoin="miter" stroke="rgb(92.54902%, 57.254902%, 67.058824%)" stroke-opacity="1" stroke-miterlimit="10" d="M 15.872604 -9.625 C 13.572614 -9.625 11.272558 -9.625 8.972567 -9.625 " transform="matrix(60.037603, 0, 0, -60, 2286.5, 1149)"/>
<path fill="none" stroke-width="0.2" stroke-linecap="butt" stroke-linejoin="miter" stroke="rgb(61.176471%, 86.27451%, 92.156863%)" stroke-opacity="1" stroke-miterlimit="10" d="M 8.372617 -9.625 C 6.072561 -9.625 3.772571 -9.625 1.47258 -9.625 " transform="matrix(60.037603, 0, 0, -60, 2286.5, 1149)"/>
<path fill="none" stroke-width="0.2" stroke-linecap="butt" stroke-linejoin="miter" stroke="rgb(98.823529%, 38.431373%, 33.333333%)" stroke-opacity="1" stroke-miterlimit="10" d="M 0.872565 -9.625 C -1.427426 -9.625 -3.727417 -9.625 -6.027407 -9.625 " transform="matrix(60.037603, 0, 0, -60, 2286.5, 1149)"/>
<path fill="none" stroke-width="0.2" stroke-linecap="butt" stroke-linejoin="miter" stroke="rgb(65.098039%, 81.176471%, 54.901961%)" stroke-opacity="1" stroke-miterlimit="10" d="M -6.627422 -9.625 C -8.927413 -9.625 -11.227404 -9.625 -13.527395 -9.625 " transform="matrix(60.037603, 0, 0, -60, 2286.5, 1149)"/>
<path fill="none" stroke-width="0.2" stroke-linecap="butt" stroke-linejoin="miter" stroke="rgb(90.196078%, 35.294118%, 29.803922%)" stroke-opacity="1" stroke-miterlimit="10" d="M -14.127409 -9.625 C -16.4274 -9.625 -18.727391 -9.625 -21.027447 -9.625 " transform="matrix(60.037603, 0, 0, -60, 2286.5, 1149)"/>
<path fill="none" stroke-width="0.2" stroke-linecap="butt" stroke-linejoin="miter" stroke="rgb(33.333333%, 75.686275%, 65.490196%)" stroke-opacity="1" stroke-miterlimit="10" d="M -21.627396 -9.625 C -23.927387 -9.625 -26.227443 -9.625 -28.527434 -9.625 " transform="matrix(60.037603, 0, 0, -60, 2286.5, 1149)"/>
<path fill="none" stroke-width="0.2" stroke-linecap="butt" stroke-linejoin="miter" stroke="rgb(16.078431%, 67.058824%, 79.215686%)" stroke-opacity="1" stroke-miterlimit="10" d="M -36.115257 -16.912891 C -33.756709 -14.554297 -31.398096 -12.195703 -29.039548 -9.837109 " transform="matrix(60.037603, 0, 0, -60, 2286.5, 1149)"/>
<path fill="none" stroke-width="0.2" stroke-linecap="butt" stroke-linejoin="miter" stroke="rgb(36.078431%, 81.568627%, 70.196078%)" stroke-opacity="1" stroke-miterlimit="10" d="M -28.827441 -16.825 C -28.827441 -14.525 -28.827441 -12.225 -28.827441 -9.925 " transform="matrix(60.037603, 0, 0, -60, 2286.5, 1149)"/>
<path fill="none" stroke-width="0.2" stroke-linecap="butt" stroke-linejoin="miter" stroke="rgb(73.333333%, 73.333333%, 73.333333%)" stroke-opacity="1" stroke-miterlimit="10" d="M -21.327389 -16.825 C -21.327389 -14.525 -21.327389 -12.225 -21.327389 -9.925 " transform="matrix(60.037603, 0, 0, -60, 2286.5, 1149)"/>
<path fill="none" stroke-width="0.2" stroke-linecap="butt" stroke-linejoin="miter" stroke="rgb(0%, 100%, 0%)" stroke-opacity="1" stroke-miterlimit="10" d="M -13.827402 -16.825 C -13.827402 -14.525 -13.827402 -12.225 -13.827402 -9.925 " transform="matrix(60.037603, 0, 0, -60, 2286.5, 1149)"/>
<path fill="none" stroke-width="0.2" stroke-linecap="butt" stroke-linejoin="miter" stroke="rgb(58.039216%, 25.882353%, 30.980392%)" stroke-opacity="1" stroke-miterlimit="10" d="M -6.327415 -16.825 C -6.327415 -14.525 -6.327415 -12.225 -6.327415 -9.925 " transform="matrix(60.037603, 0, 0, -60, 2286.5, 1149)"/>
<path fill="none" stroke-width="0.2" stroke-linecap="butt" stroke-linejoin="miter" stroke="rgb(78.039216%, 91.372549%, 94.509804%)" stroke-opacity="1" stroke-miterlimit="10" d="M 1.172572 -16.825 C 1.172572 -14.525 1.172572 -12.225 1.172572 -9.925 " transform="matrix(60.037603, 0, 0, -60, 2286.5, 1149)"/>
<path fill="none" stroke-width="0.2" stroke-linecap="butt" stroke-linejoin="miter" stroke="rgb(67.45098%, 91.764706%, 84.313725%)" stroke-opacity="1" stroke-miterlimit="10" d="M 8.67256 -16.825 C 8.67256 -14.525 8.67256 -12.225 8.67256 -9.925 " transform="matrix(60.037603, 0, 0, -60, 2286.5, 1149)"/>
<path fill="none" stroke-width="0.2" stroke-linecap="butt" stroke-linejoin="miter" stroke="rgb(13.333333%, 13.333333%, 13.333333%)" stroke-opacity="1" stroke-miterlimit="10" d="M 16.172612 -16.825 C 16.172612 -14.525 16.172612 -12.225 16.172612 -9.925 " transform="matrix(60.037603, 0, 0, -60, 2286.5, 1149)"/>
<path fill="none" stroke-width="0.2" stroke-linecap="butt" stroke-linejoin="miter" stroke="rgb(67.45098%, 91.764706%, 84.313725%)" stroke-opacity="1" stroke-miterlimit="10" d="M -21.539561 -16.912891 C -23.898109 -14.554297 -26.256722 -12.195703 -28.61527 -9.837109 " transform="matrix(60.037603, 0, 0, -60, 2286.5, 1149)"/>
<path fill="none" stroke-width="0.2" stroke-linecap="butt" stroke-linejoin="miter" stroke="rgb(16.078431%, 67.058824%, 79.215686%)" stroke-opacity="1" stroke-miterlimit="10" d="M -14.039574 -16.912891 C -16.398121 -14.554297 -18.756734 -12.195703 -21.115282 -9.837109 " transform="matrix(60.037603, 0, 0, -60, 2286.5, 1149)"/>
<path fill="none" stroke-width="0.2" stroke-linecap="butt" stroke-linejoin="miter" stroke="rgb(95.686275%, 82.745098%, 27.058824%)" stroke-opacity="1" stroke-miterlimit="10" d="M -6.539521 -16.912891 C -8.898134 -14.554297 -11.256682 -12.195703 -13.615295 -9.837109 " transform="matrix(60.037603, 0, 0, -60, 2286.5, 1149)"/>
<path fill="none" stroke-width="0.2" stroke-linecap="butt" stroke-linejoin="miter" stroke="rgb(60.392157%, 44.705882%, 67.45098%)" stroke-opacity="1" stroke-miterlimit="10" d="M -6.115308 -16.912891 C -3.756695 -14.554297 -1.398147 -12.195703 0.960466 -9.837109 " transform="matrix(60.037603, 0, 0, -60, 2286.5, 1149)"/>
<path fill="none" stroke-width="0.2" stroke-linecap="butt" stroke-linejoin="miter" stroke="rgb(77.254902%, 37.254902%, 45.098039%)" stroke-opacity="1" stroke-miterlimit="10" d="M 1.384744 -16.912891 C 3.743292 -14.554297 6.101905 -12.195703 8.460453 -9.837109 " transform="matrix(60.037603, 0, 0, -60, 2286.5, 1149)"/>
<path fill="none" stroke-width="0.2" stroke-linecap="butt" stroke-linejoin="miter" stroke="rgb(16.078431%, 67.058824%, 79.215686%)" stroke-opacity="1" stroke-miterlimit="10" d="M 8.884731 -16.912891 C 11.243279 -14.554297 13.601892 -12.195703 15.96044 -9.837109 " transform="matrix(60.037603, 0, 0, -60, 2286.5, 1149)"/>
<path fill="none" stroke-width="0.04" stroke-linecap="butt" stroke-linejoin="miter" stroke="rgb(0%, 0%, 0%)" stroke-opacity="1" stroke-miterlimit="10" d="M -36.327428 -17.125 C -36.712343 -17.791667 -37.097193 -18.458333 -37.482108 -19.125 C -36.712343 -19.125 -35.942513 -19.125 -35.172683 -19.125 C -35.557598 -18.458333 -35.942513 -17.791667 -36.327428 -17.125 Z M -36.327428 -17.125 " transform="matrix(60.037603, 0, 0, -60, 2286.5, 1149)"/>
<path fill="none" stroke-width="0.04" stroke-linecap="butt" stroke-linejoin="miter" stroke="rgb(0%, 0%, 0%)" stroke-opacity="1" stroke-miterlimit="10" d="M -34.595376 -19.125 C -35.750056 -19.125 -36.904736 -19.125 -38.059481 -19.125 " transform="matrix(60.037603, 0, 0, -60, 2286.5, 1149)"/>
<path fill="none" stroke-width="0.04" stroke-linecap="butt" stroke-linejoin="miter" stroke="rgb(0%, 0%, 0%)" stroke-opacity="1" stroke-miterlimit="10" d="M 23.672599 -17.125 C 23.287684 -17.791667 22.902769 -18.458333 22.517854 -19.125 C 23.287684 -19.125 24.057514 -19.125 24.827279 -19.125 C 24.442364 -18.458333 24.057514 -17.791667 23.672599 -17.125 Z M 23.672599 -17.125 " transform="matrix(60.037603, 0, 0, -60, 2286.5, 1149)"/>
<path fill="none" stroke-width="0.04" stroke-linecap="butt" stroke-linejoin="miter" stroke="rgb(0%, 0%, 0%)" stroke-opacity="1" stroke-miterlimit="10" d="M 25.404651 -19.125 C 24.249906 -19.125 23.095226 -19.125 21.940546 -19.125 " transform="matrix(60.037603, 0, 0, -60, 2286.5, 1149)"/>
<path fill-rule="nonzero" fill="rgb(0%, 0%, 0%)" fill-opacity="1" d="M 123.5 2176.5 C 123.5 2171.726562 121.601562 2167.148438 118.226562 2163.773438 C 114.847656 2160.394531 110.265625 2158.5 105.488281 2158.5 C 100.710938 2158.5 96.132812 2160.394531 92.753906 2163.773438 C 89.375 2167.148438 87.476562 2171.726562 87.476562 2176.5 C 87.476562 2181.273438 89.375 2185.851562 92.753906 2189.226562 C 96.132812 2192.605469 100.710938 2194.5 105.488281 2194.5 C 110.265625 2194.5 114.847656 2192.605469 118.226562 2189.226562 C 121.601562 2185.851562 123.5 2181.273438 123.5 2176.5 Z M 123.5 2176.5 "/>
<path fill-rule="nonzero" fill="rgb(0%, 0%, 0%)" fill-opacity="1" d="M 573.78125 2176.5 C 573.78125 2171.726562 571.886719 2167.148438 568.507812 2163.773438 C 565.128906 2160.394531 560.546875 2158.5 555.769531 2158.5 C 550.996094 2158.5 546.414062 2160.394531 543.035156 2163.773438 C 539.65625 2167.148438 537.761719 2171.726562 537.761719 2176.5 C 537.761719 2181.273438 539.65625 2185.851562 543.035156 2189.226562 C 546.414062 2192.605469 550.996094 2194.5 555.769531 2194.5 C 560.546875 2194.5 565.128906 2192.605469 568.507812 2189.226562 C 571.886719 2185.851562 573.78125 2181.273438 573.78125 2176.5 Z M 573.78125 2176.5 "/>
<path fill-rule="nonzero" fill="rgb(0%, 0%, 0%)" fill-opacity="1" d="M 1024.0625 2176.5 C 1024.0625 2171.726562 1022.167969 2167.148438 1018.789062 2163.773438 C 1015.410156 2160.394531 1010.828125 2158.5 1006.054688 2158.5 C 1001.277344 2158.5 996.695312 2160.394531 993.316406 2163.773438 C 989.941406 2167.148438 988.042969 2171.726562 988.042969 2176.5 C 988.042969 2181.273438 989.941406 2185.851562 993.316406 2189.226562 C 996.695312 2192.605469 1001.277344 2194.5 1006.054688 2194.5 C 1010.828125 2194.5 1015.410156 2192.605469 1018.789062 2189.226562 C 1022.167969 2185.851562 1024.0625 2181.273438 1024.0625 2176.5 Z M 1024.0625 2176.5 "/>
<path fill-rule="nonzero" fill="rgb(0%, 0%, 0%)" fill-opacity="1" d="M 1474.347656 2176.5 C 1474.347656 2171.726562 1472.449219 2167.148438 1469.070312 2163.773438 C 1465.691406 2160.394531 1461.113281 2158.5 1456.335938 2158.5 C 1451.558594 2158.5 1446.976562 2160.394531 1443.597656 2163.773438 C 1440.222656 2167.148438 1438.324219 2171.726562 1438.324219 2176.5 C 1438.324219 2181.273438 1440.222656 2185.851562 1443.597656 2189.226562 C 1446.976562 2192.605469 1451.558594 2194.5 1456.335938 2194.5 C 1461.113281 2194.5 1465.691406 2192.605469 1469.070312 2189.226562 C 1472.449219 2185.851562 1474.347656 2181.273438 1474.347656 2176.5 Z M 1474.347656 2176.5 "/>
<path fill-rule="nonzero" fill="rgb(0%, 0%, 0%)" fill-opacity="1" d="M 1924.628906 2176.5 C 1924.628906 2171.726562 1922.730469 2167.148438 1919.351562 2163.773438 C 1915.976562 2160.394531 1911.394531 2158.5 1906.617188 2158.5 C 1901.839844 2158.5 1897.257812 2160.394531 1893.882812 2163.773438 C 1890.503906 2167.148438 1888.605469 2171.726562 1888.605469 2176.5 C 1888.605469 2181.273438 1890.503906 2185.851562 1893.882812 2189.226562 C 1897.257812 2192.605469 1901.839844 2194.5 1906.617188 2194.5 C 1911.394531 2194.5 1915.976562 2192.605469 1919.351562 2189.226562 C 1922.730469 2185.851562 1924.628906 2181.273438 1924.628906 2176.5 Z M 1924.628906 2176.5 "/>
<path fill-rule="nonzero" fill="rgb(0%, 0%, 0%)" fill-opacity="1" d="M 2374.910156 2176.5 C 2374.910156 2171.726562 2373.011719 2167.148438 2369.636719 2163.773438 C 2366.257812 2160.394531 2361.675781 2158.5 2356.898438 2158.5 C 2352.121094 2158.5 2347.542969 2160.394531 2344.164062 2163.773438 C 2340.785156 2167.148438 2338.886719 2171.726562 2338.886719 2176.5 C 2338.886719 2181.273438 2340.785156 2185.851562 2344.164062 2189.226562 C 2347.542969 2192.605469 2352.121094 2194.5 2356.898438 2194.5 C 2361.675781 2194.5 2366.257812 2192.605469 2369.636719 2189.226562 C 2373.011719 2185.851562 2374.910156 2181.273438 2374.910156 2176.5 Z M 2374.910156 2176.5 "/>
<path fill-rule="nonzero" fill="rgb(0%, 0%, 0%)" fill-opacity="1" d="M 2825.191406 2176.5 C 2825.191406 2171.726562 2823.292969 2167.148438 2819.917969 2163.773438 C 2816.539062 2160.394531 2811.957031 2158.5 2807.179688 2158.5 C 2802.40625 2158.5 2797.824219 2160.394531 2794.445312 2163.773438 C 2791.066406 2167.148438 2789.171875 2171.726562 2789.171875 2176.5 C 2789.171875 2181.273438 2791.066406 2185.851562 2794.445312 2189.226562 C 2797.824219 2192.605469 2802.40625 2194.5 2807.179688 2194.5 C 2811.957031 2194.5 2816.539062 2192.605469 2819.917969 2189.226562 C 2823.292969 2185.851562 2825.191406 2181.273438 2825.191406 2176.5 Z M 2825.191406 2176.5 "/>
<path fill-rule="nonzero" fill="rgb(0%, 0%, 0%)" fill-opacity="1" d="M 3275.472656 2176.5 C 3275.472656 2171.726562 3273.578125 2167.148438 3270.199219 2163.773438 C 3266.820312 2160.394531 3262.238281 2158.5 3257.464844 2158.5 C 3252.6875 2158.5 3248.105469 2160.394531 3244.726562 2163.773438 C 3241.347656 2167.148438 3239.453125 2171.726562 3239.453125 2176.5 C 3239.453125 2181.273438 3241.347656 2185.851562 3244.726562 2189.226562 C 3248.105469 2192.605469 3252.6875 2194.5 3257.464844 2194.5 C 3262.238281 2194.5 3266.820312 2192.605469 3270.199219 2189.226562 C 3273.578125 2185.851562 3275.472656 2181.273438 3275.472656 2176.5 Z M 3275.472656 2176.5 "/>
<path fill-rule="nonzero" fill="rgb(0%, 0%, 0%)" fill-opacity="1" d="M 3725.757812 2176.5 C 3725.757812 2171.726562 3723.859375 2167.148438 3720.480469 2163.773438 C 3717.101562 2160.394531 3712.523438 2158.5 3707.746094 2158.5 C 3702.96875 2158.5 3698.386719 2160.394531 3695.007812 2163.773438 C 3691.632812 2167.148438 3689.734375 2171.726562 3689.734375 2176.5 C 3689.734375 2181.273438 3691.632812 2185.851562 3695.007812 2189.226562 C 3698.386719 2192.605469 3702.96875 2194.5 3707.746094 2194.5 C 3712.523438 2194.5 3717.101562 2192.605469 3720.480469 2189.226562 C 3723.859375 2185.851562 3725.757812 2181.273438 3725.757812 2176.5 Z M 3725.757812 2176.5 "/>
<path fill-rule="nonzero" fill="rgb(0%, 0%, 0%)" fill-opacity="1" d="M 3275.472656 1726.5 C 3275.472656 1721.726562 3273.578125 1717.148438 3270.199219 1713.773438 C 3266.820312 1710.394531 3262.238281 1708.5 3257.464844 1708.5 C 3252.6875 1708.5 3248.105469 1710.394531 3244.726562 1713.773438 C 3241.347656 1717.148438 3239.453125 1721.726562 3239.453125 1726.5 C 3239.453125 1731.273438 3241.347656 1735.851562 3244.726562 1739.226562 C 3248.105469 1742.605469 3252.6875 1744.5 3257.464844 1744.5 C 3262.238281 1744.5 3266.820312 1742.605469 3270.199219 1739.226562 C 3273.578125 1735.851562 3275.472656 1731.273438 3275.472656 1726.5 Z M 3275.472656 1726.5 "/>
<path fill-rule="nonzero" fill="rgb(0%, 0%, 0%)" fill-opacity="1" d="M 2825.191406 1726.5 C 2825.191406 1721.726562 2823.292969 1717.148438 2819.917969 1713.773438 C 2816.539062 1710.394531 2811.957031 1708.5 2807.179688 1708.5 C 2802.40625 1708.5 2797.824219 1710.394531 2794.445312 1713.773438 C 2791.066406 1717.148438 2789.171875 1721.726562 2789.171875 1726.5 C 2789.171875 1731.273438 2791.066406 1735.851562 2794.445312 1739.226562 C 2797.824219 1742.605469 2802.40625 1744.5 2807.179688 1744.5 C 2811.957031 1744.5 2816.539062 1742.605469 2819.917969 1739.226562 C 2823.292969 1735.851562 2825.191406 1731.273438 2825.191406 1726.5 Z M 2825.191406 1726.5 "/>
<path fill-rule="nonzero" fill="rgb(0%, 0%, 0%)" fill-opacity="1" d="M 2374.910156 1726.5 C 2374.910156 1721.726562 2373.011719 1717.148438 2369.636719 1713.773438 C 2366.257812 1710.394531 2361.675781 1708.5 2356.898438 1708.5 C 2352.121094 1708.5 2347.542969 1710.394531 2344.164062 1713.773438 C 2340.785156 1717.148438 2338.886719 1721.726562 2338.886719 1726.5 C 2338.886719 1731.273438 2340.785156 1735.851562 2344.164062 1739.226562 C 2347.542969 1742.605469 2352.121094 1744.5 2356.898438 1744.5 C 2361.675781 1744.5 2366.257812 1742.605469 2369.636719 1739.226562 C 2373.011719 1735.851562 2374.910156 1731.273438 2374.910156 1726.5 Z M 2374.910156 1726.5 "/>
<path fill-rule="nonzero" fill="rgb(0%, 0%, 0%)" fill-opacity="1" d="M 1924.628906 1726.5 C 1924.628906 1721.726562 1922.730469 1717.148438 1919.351562 1713.773438 C 1915.976562 1710.394531 1911.394531 1708.5 1906.617188 1708.5 C 1901.839844 1708.5 1897.257812 1710.394531 1893.882812 1713.773438 C 1890.503906 1717.148438 1888.605469 1721.726562 1888.605469 1726.5 C 1888.605469 1731.273438 1890.503906 1735.851562 1893.882812 1739.226562 C 1897.257812 1742.605469 1901.839844 1744.5 1906.617188 1744.5 C 1911.394531 1744.5 1915.976562 1742.605469 1919.351562 1739.226562 C 1922.730469 1735.851562 1924.628906 1731.273438 1924.628906 1726.5 Z M 1924.628906 1726.5 "/>
<path fill-rule="nonzero" fill="rgb(0%, 0%, 0%)" fill-opacity="1" d="M 1474.347656 1726.5 C 1474.347656 1721.726562 1472.449219 1717.148438 1469.070312 1713.773438 C 1465.691406 1710.394531 1461.113281 1708.5 1456.335938 1708.5 C 1451.558594 1708.5 1446.976562 1710.394531 1443.597656 1713.773438 C 1440.222656 1717.148438 1438.324219 1721.726562 1438.324219 1726.5 C 1438.324219 1731.273438 1440.222656 1735.851562 1443.597656 1739.226562 C 1446.976562 1742.605469 1451.558594 1744.5 1456.335938 1744.5 C 1461.113281 1744.5 1465.691406 1742.605469 1469.070312 1739.226562 C 1472.449219 1735.851562 1474.347656 1731.273438 1474.347656 1726.5 Z M 1474.347656 1726.5 "/>
<path fill-rule="nonzero" fill="rgb(0%, 0%, 0%)" fill-opacity="1" d="M 1024.0625 1726.5 C 1024.0625 1721.726562 1022.167969 1717.148438 1018.789062 1713.773438 C 1015.410156 1710.394531 1010.828125 1708.5 1006.054688 1708.5 C 1001.277344 1708.5 996.695312 1710.394531 993.316406 1713.773438 C 989.941406 1717.148438 988.042969 1721.726562 988.042969 1726.5 C 988.042969 1731.273438 989.941406 1735.851562 993.316406 1739.226562 C 996.695312 1742.605469 1001.277344 1744.5 1006.054688 1744.5 C 1010.828125 1744.5 1015.410156 1742.605469 1018.789062 1739.226562 C 1022.167969 1735.851562 1024.0625 1731.273438 1024.0625 1726.5 Z M 1024.0625 1726.5 "/>
<path fill-rule="nonzero" fill="rgb(0%, 0%, 0%)" fill-opacity="1" d="M 573.78125 1726.5 C 573.78125 1721.726562 571.886719 1717.148438 568.507812 1713.773438 C 565.128906 1710.394531 560.546875 1708.5 555.769531 1708.5 C 550.996094 1708.5 546.414062 1710.394531 543.035156 1713.773438 C 539.65625 1717.148438 537.761719 1721.726562 537.761719 1726.5 C 537.761719 1731.273438 539.65625 1735.851562 543.035156 1739.226562 C 546.414062 1742.605469 550.996094 1744.5 555.769531 1744.5 C 560.546875 1744.5 565.128906 1742.605469 568.507812 1739.226562 C 571.886719 1735.851562 573.78125 1731.273438 573.78125 1726.5 Z M 573.78125 1726.5 "/>
<path fill="none" stroke-width="0.1" stroke-linecap="butt" stroke-linejoin="miter" stroke="rgb(0%, 0%, 0%)" stroke-opacity="1" stroke-miterlimit="10" d="M 33.460475 19.125 C 33.460475 6.658333 33.460475 -5.808333 33.460475 -18.275 " transform="matrix(60.037603, 0, 0, -60, 2286.5, 1149)"/>
<path fill-rule="nonzero" fill="rgb(0%, 0%, 0%)" fill-opacity="0.25" stroke-width="0.1" stroke-linecap="butt" stroke-linejoin="miter" stroke="rgb(0%, 0%, 0%)" stroke-opacity="1" stroke-miterlimit="10" d="M 33.460475 17.725 C 33.377129 17.725 33.293783 17.725 33.210437 17.725 C 33.210437 15.391667 33.210437 13.058333 33.210437 10.725 C 33.293783 10.725 33.377129 10.725 33.460475 10.725 C 33.460475 13.058333 33.460475 15.391667 33.460475 17.725 Z M 33.460475 17.725 " transform="matrix(60.037603, 0, 0, -60, 2286.5, 1149)"/>
<path fill-rule="nonzero" fill="rgb(0%, 0%, 0%)" fill-opacity="0.25" stroke-width="0.1" stroke-linecap="butt" stroke-linejoin="miter" stroke="rgb(0%, 0%, 0%)" stroke-opacity="1" stroke-miterlimit="10" d="M 33.460475 3.925 C 33.377129 3.925 33.293783 3.925 33.210437 3.925 C 33.210437 1.591667 33.210437 -0.741667 33.210437 -3.075 C 33.293783 -3.075 33.377129 -3.075 33.460475 -3.075 C 33.460475 -0.741667 33.460475 1.591667 33.460475 3.925 Z M 33.460475 3.925 " transform="matrix(60.037603, 0, 0, -60, 2286.5, 1149)"/>
<path fill-rule="nonzero" fill="rgb(0%, 0%, 0%)" fill-opacity="0.25" stroke-width="0.1" stroke-linecap="butt" stroke-linejoin="miter" stroke="rgb(0%, 0%, 0%)" stroke-opacity="1" stroke-miterlimit="10" d="M 33.460475 -9.875 C 31.960439 -9.875 30.460467 -9.875 28.960431 -9.875 C 28.960431 -12.208333 28.960431 -14.541667 28.960431 -16.875 C 30.460467 -16.875 31.960439 -16.875 33.460475 -16.875 C 33.460475 -14.541667 33.460475 -12.208333 33.460475 -9.875 Z M 33.460475 -9.875 " transform="matrix(60.037603, 0, 0, -60, 2286.5, 1149)"/>
<path fill-rule="nonzero" fill="rgb(0%, 0%, 0%)" fill-opacity="1" d="M 4405.144531 313.683594 C 4405.144531 298.863281 4394.925781 286.410156 4381.464844 286.410156 C 4375.484375 286.410156 4370.128906 288.402344 4365.640625 292.761719 C 4365.640625 284.664062 4365.640625 276.570312 4365.640625 268.476562 C 4368.132812 269.222656 4372.246094 270.09375 4376.234375 270.09375 C 4391.558594 270.09375 4400.28125 258.761719 4400.28125 257.144531 C 4400.28125 256.398438 4399.910156 255.773438 4399.035156 255.773438 C 4398.914062 255.773438 4398.664062 255.773438 4398.039062 256.148438 C 4395.546875 257.269531 4389.441406 259.757812 4381.09375 259.757812 C 4376.109375 259.757812 4370.375 258.886719 4364.519531 256.273438 C 4363.523438 255.898438 4363.273438 255.898438 4363.023438 255.898438 C 4361.777344 255.898438 4361.777344 256.894531 4361.777344 258.886719 C 4361.777344 271.175781 4361.777344 283.460938 4361.777344 295.75 C 4361.777344 297.992188 4361.777344 298.988281 4363.523438 298.988281 C 4364.394531 298.988281 4364.644531 298.613281 4365.144531 297.867188 C 4366.511719 295.875 4371.125 289.148438 4381.21875 289.148438 C 4387.699219 289.148438 4390.8125 294.878906 4391.808594 297.117188 C 4393.804688 301.726562 4394.050781 306.582031 4394.050781 312.808594 C 4394.050781 317.167969 4394.050781 324.640625 4391.0625 329.871094 C 4388.070312 334.726562 4383.460938 337.964844 4377.726562 337.964844 C 4368.632812 337.964844 4361.527344 331.367188 4359.410156 324.019531 C 4359.785156 324.144531 4360.160156 324.265625 4361.527344 324.265625 C 4365.640625 324.265625 4367.757812 321.152344 4367.757812 318.164062 C 4367.757812 315.175781 4365.640625 312.0625 4361.527344 312.0625 C 4359.785156 312.0625 4355.421875 312.933594 4355.421875 318.664062 C 4355.421875 329.371094 4364.019531 341.453125 4377.976562 341.453125 C 4392.433594 341.453125 4405.144531 329.496094 4405.144531 313.683594 Z M 4405.144531 313.683594 "/>
<path fill-rule="nonzero" fill="rgb(0%, 0%, 0%)" fill-opacity="1" d="M 4496.855469 250.046875 C 4497.605469 248.925781 4497.855469 248.550781 4497.855469 247.804688 C 4497.855469 246.433594 4496.730469 245.3125 4495.363281 245.3125 C 4494.117188 245.3125 4493.492188 246.183594 4492.746094 247.058594 C 4486.515625 255.523438 4478.164062 258.886719 4469.070312 258.886719 C 4460.347656 258.886719 4452.621094 255.773438 4445.765625 249.296875 C 4443.398438 247.179688 4440.78125 245.3125 4436.792969 245.3125 C 4427.324219 245.3125 4418.476562 255.773438 4418.476562 270.34375 C 4418.476562 285.414062 4427.449219 295.5 4436.792969 295.5 C 4445.890625 295.5 4452.992188 284.417969 4452.992188 270.46875 C 4452.992188 268.726562 4452.992188 262.871094 4450.375 256.398438 C 4458.476562 261.003906 4464.707031 261.628906 4469.191406 261.628906 C 4478.664062 261.628906 4485.019531 257.765625 4485.765625 257.269531 C 4485.808594 257.308594 4485.847656 257.351562 4485.890625 257.394531 C 4467.242188 285.164062 4448.589844 312.933594 4429.941406 340.707031 C 4428.820312 342.324219 4428.820312 342.945312 4428.820312 343.195312 C 4428.820312 344.566406 4430.066406 345.6875 4431.3125 345.6875 C 4432.558594 345.6875 4432.808594 345.1875 4433.804688 343.820312 C 4454.820312 312.5625 4475.839844 281.304688 4496.855469 250.046875 Z M 4436.917969 292.761719 C 4434.425781 292.761719 4426.203125 291.140625 4426.203125 270.46875 C 4426.203125 249.671875 4434.300781 248.054688 4436.917969 248.054688 C 4443.523438 248.054688 4449.878906 257.269531 4449.878906 270.34375 C 4449.878906 283.792969 4443.398438 292.761719 4436.917969 292.761719 Z M 4492.121094 342.945312 C 4489.628906 342.945312 4481.40625 341.328125 4481.40625 320.65625 C 4481.40625 299.859375 4489.503906 298.238281 4492.121094 298.238281 C 4498.726562 298.238281 4505.082031 307.457031 4505.082031 320.53125 C 4505.082031 333.980469 4498.601562 342.945312 4492.121094 342.945312 Z M 4508.195312 320.65625 C 4508.195312 306.335938 4500.84375 295.5 4491.996094 295.5 C 4482.527344 295.5 4473.679688 305.960938 4473.679688 320.53125 C 4473.679688 335.601562 4482.652344 345.6875 4491.996094 345.6875 C 4501.09375 345.6875 4508.195312 334.601562 4508.195312 320.65625 Z M 4508.195312 320.65625 "/>
<path fill-rule="nonzero" fill="rgb(0%, 0%, 0%)" fill-opacity="1" d="M 4405.144531 1141.683594 C 4405.144531 1126.863281 4394.925781 1114.410156 4381.464844 1114.410156 C 4375.484375 1114.410156 4370.128906 1116.402344 4365.640625 1120.761719 C 4365.640625 1112.664062 4365.640625 1104.570312 4365.640625 1096.476562 C 4368.132812 1097.222656 4372.246094 1098.09375 4376.234375 1098.09375 C 4391.558594 1098.09375 4400.28125 1086.761719 4400.28125 1085.144531 C 4400.28125 1084.398438 4399.910156 1083.773438 4399.035156 1083.773438 C 4398.914062 1083.773438 4398.664062 1083.773438 4398.039062 1084.148438 C 4395.546875 1085.269531 4389.441406 1087.757812 4381.09375 1087.757812 C 4376.109375 1087.757812 4370.375 1086.886719 4364.519531 1084.273438 C 4363.523438 1083.898438 4363.273438 1083.898438 4363.023438 1083.898438 C 4361.777344 1083.898438 4361.777344 1084.894531 4361.777344 1086.886719 C 4361.777344 1099.175781 4361.777344 1111.460938 4361.777344 1123.75 C 4361.777344 1125.992188 4361.777344 1126.988281 4363.523438 1126.988281 C 4364.394531 1126.988281 4364.644531 1126.613281 4365.144531 1125.867188 C 4366.511719 1123.875 4371.125 1117.148438 4381.21875 1117.148438 C 4387.699219 1117.148438 4390.8125 1122.878906 4391.808594 1125.117188 C 4393.804688 1129.726562 4394.050781 1134.582031 4394.050781 1140.808594 C 4394.050781 1145.167969 4394.050781 1152.640625 4391.0625 1157.871094 C 4388.070312 1162.726562 4383.460938 1165.964844 4377.726562 1165.964844 C 4368.632812 1165.964844 4361.527344 1159.367188 4359.410156 1152.019531 C 4359.785156 1152.144531 4360.160156 1152.265625 4361.527344 1152.265625 C 4365.640625 1152.265625 4367.757812 1149.152344 4367.757812 1146.164062 C 4367.757812 1143.175781 4365.640625 1140.0625 4361.527344 1140.0625 C 4359.785156 1140.0625 4355.421875 1140.933594 4355.421875 1146.664062 C 4355.421875 1157.371094 4364.019531 1169.453125 4377.976562 1169.453125 C 4392.433594 1169.453125 4405.144531 1157.496094 4405.144531 1141.683594 Z M 4405.144531 1141.683594 "/>
<path fill-rule="nonzero" fill="rgb(0%, 0%, 0%)" fill-opacity="1" d="M 4496.855469 1078.046875 C 4497.605469 1076.925781 4497.855469 1076.550781 4497.855469 1075.804688 C 4497.855469 1074.433594 4496.730469 1073.3125 4495.363281 1073.3125 C 4494.117188 1073.3125 4493.492188 1074.183594 4492.746094 1075.058594 C 4486.515625 1083.523438 4478.164062 1086.886719 4469.070312 1086.886719 C 4460.347656 1086.886719 4452.621094 1083.773438 4445.765625 1077.296875 C 4443.398438 1075.179688 4440.78125 1073.3125 4436.792969 1073.3125 C 4427.324219 1073.3125 4418.476562 1083.773438 4418.476562 1098.34375 C 4418.476562 1113.414062 4427.449219 1123.5 4436.792969 1123.5 C 4445.890625 1123.5 4452.992188 1112.417969 4452.992188 1098.46875 C 4452.992188 1096.726562 4452.992188 1090.871094 4450.375 1084.398438 C 4458.476562 1089.003906 4464.707031 1089.628906 4469.191406 1089.628906 C 4478.664062 1089.628906 4485.019531 1085.765625 4485.765625 1085.269531 C 4485.808594 1085.308594 4485.847656 1085.351562 4485.890625 1085.394531 C 4467.242188 1113.164062 4448.589844 1140.933594 4429.941406 1168.707031 C 4428.820312 1170.324219 4428.820312 1170.945312 4428.820312 1171.195312 C 4428.820312 1172.566406 4430.066406 1173.6875 4431.3125 1173.6875 C 4432.558594 1173.6875 4432.808594 1173.1875 4433.804688 1171.820312 C 4454.820312 1140.5625 4475.839844 1109.304688 4496.855469 1078.046875 Z M 4436.917969 1120.761719 C 4434.425781 1120.761719 4426.203125 1119.140625 4426.203125 1098.46875 C 4426.203125 1077.671875 4434.300781 1076.054688 4436.917969 1076.054688 C 4443.523438 1076.054688 4449.878906 1085.269531 4449.878906 1098.34375 C 4449.878906 1111.792969 4443.398438 1120.761719 4436.917969 1120.761719 Z M 4492.121094 1170.945312 C 4489.628906 1170.945312 4481.40625 1169.328125 4481.40625 1148.65625 C 4481.40625 1127.859375 4489.503906 1126.238281 4492.121094 1126.238281 C 4498.726562 1126.238281 4505.082031 1135.457031 4505.082031 1148.53125 C 4505.082031 1161.980469 4498.601562 1170.945312 4492.121094 1170.945312 Z M 4508.195312 1148.65625 C 4508.195312 1134.335938 4500.84375 1123.5 4491.996094 1123.5 C 4482.527344 1123.5 4473.679688 1133.960938 4473.679688 1148.53125 C 4473.679688 1163.601562 4482.652344 1173.6875 4491.996094 1173.6875 C 4501.09375 1173.6875 4508.195312 1162.601562 4508.195312 1148.65625 Z M 4508.195312 1148.65625 "/>
<path fill-rule="nonzero" fill="rgb(0%, 0%, 0%)" fill-opacity="1" d="M 4395.921875 1955.113281 C 4395.921875 1956.441406 4395.921875 1957.769531 4395.921875 1959.097656 C 4395.921875 1988.238281 4382.960938 1993.964844 4375.734375 1993.964844 C 4373.617188 1993.964844 4366.886719 1993.714844 4363.523438 1989.484375 C 4369.003906 1989.484375 4370.003906 1985.871094 4370.003906 1983.753906 C 4370.003906 1979.894531 4367.011719 1978.027344 4364.269531 1978.027344 C 4362.277344 1978.027344 4358.539062 1979.144531 4358.539062 1984.003906 C 4358.539062 1992.347656 4365.265625 1997.453125 4375.859375 1997.453125 C 4391.933594 1997.453125 4407.136719 1980.515625 4407.136719 1953.742188 C 4407.136719 1920.242188 4392.804688 1911.773438 4381.714844 1911.773438 C 4374.863281 1911.773438 4368.757812 1914.015625 4363.398438 1919.621094 C 4358.289062 1925.222656 4355.421875 1930.453125 4355.421875 1939.792969 C 4355.421875 1955.359375 4366.390625 1967.566406 4380.34375 1967.566406 C 4387.945312 1967.566406 4393.054688 1962.335938 4395.921875 1955.113281 Z M 4380.46875 1964.699219 C 4378.476562 1964.699219 4372.742188 1964.699219 4368.882812 1956.855469 C 4366.636719 1952.246094 4366.636719 1946.019531 4366.636719 1939.917969 C 4366.636719 1933.195312 4366.636719 1927.339844 4369.253906 1922.734375 C 4372.621094 1916.507812 4377.355469 1914.886719 4381.714844 1914.886719 C 4387.449219 1914.886719 4391.558594 1919.121094 4393.679688 1924.726562 C 4395.175781 1928.710938 4395.671875 1936.554688 4395.671875 1942.285156 C 4395.671875 1952.621094 4391.4375 1964.699219 4380.46875 1964.699219 Z M 4380.46875 1964.699219 "/>
<path fill-rule="nonzero" fill="rgb(0%, 0%, 0%)" fill-opacity="1" d="M 4469.816406 1954.863281 C 4469.816406 1944.898438 4469.191406 1934.9375 4464.832031 1925.722656 C 4459.101562 1913.765625 4448.882812 1911.773438 4443.648438 1911.773438 C 4436.171875 1911.773438 4427.074219 1915.011719 4421.964844 1926.59375 C 4417.976562 1935.1875 4417.355469 1944.898438 4417.355469 1954.863281 C 4417.355469 1964.203125 4417.851562 1975.410156 4422.960938 1984.875 C 4428.320312 1994.960938 4437.417969 1997.453125 4443.523438 1997.453125 C 4450.253906 1997.453125 4459.722656 1994.835938 4465.207031 1983.007812 C 4469.191406 1974.414062 4469.816406 1964.699219 4469.816406 1954.863281 Z M 4443.523438 1994.714844 C 4438.664062 1994.714844 4431.3125 1991.601562 4429.070312 1979.644531 C 4427.699219 1972.171875 4427.699219 1960.714844 4427.699219 1953.367188 C 4427.699219 1945.398438 4427.699219 1937.179688 4428.695312 1930.453125 C 4431.0625 1915.632812 4440.40625 1914.515625 4443.523438 1914.515625 C 4447.636719 1914.515625 4455.859375 1916.753906 4458.226562 1929.085938 C 4459.472656 1936.058594 4459.472656 1945.523438 4459.472656 1953.367188 C 4459.472656 1962.707031 4459.472656 1971.175781 4458.101562 1979.144531 C 4456.234375 1990.976562 4449.128906 1994.714844 4443.523438 1994.714844 Z M 4443.523438 1994.714844 "/>
<path fill-rule="nonzero" fill="rgb(0%, 0%, 0%)" fill-opacity="1" d="M 4560.160156 1906.046875 C 4560.90625 1904.925781 4561.15625 1904.550781 4561.15625 1903.804688 C 4561.15625 1902.433594 4560.035156 1901.3125 4558.664062 1901.3125 C 4557.417969 1901.3125 4556.796875 1902.183594 4556.046875 1903.058594 C 4549.816406 1911.523438 4541.46875 1914.886719 4532.371094 1914.886719 C 4523.648438 1914.886719 4515.921875 1911.773438 4509.070312 1905.296875 C 4506.703125 1903.179688 4504.085938 1901.3125 4500.097656 1901.3125 C 4490.625 1901.3125 4481.777344 1911.773438 4481.777344 1926.34375 C 4481.777344 1941.414062 4490.75 1951.5 4500.097656 1951.5 C 4509.195312 1951.5 4516.296875 1940.417969 4516.296875 1926.46875 C 4516.296875 1924.726562 4516.296875 1918.871094 4513.679688 1912.398438 C 4521.777344 1917.003906 4528.011719 1917.628906 4532.496094 1917.628906 C 4541.964844 1917.628906 4548.320312 1913.765625 4549.070312 1913.269531 C 4549.109375 1913.308594 4549.152344 1913.351562 4549.195312 1913.394531 C 4530.542969 1941.164062 4511.894531 1968.933594 4493.242188 1996.707031 C 4492.121094 1998.324219 4492.121094 1998.945312 4492.121094 1999.195312 C 4492.121094 2000.566406 4493.367188 2001.6875 4494.613281 2001.6875 C 4495.859375 2001.6875 4496.109375 2001.1875 4497.105469 1999.820312 C 4518.125 1968.5625 4539.140625 1937.304688 4560.160156 1906.046875 Z M 4500.222656 1948.761719 C 4497.730469 1948.761719 4489.503906 1947.140625 4489.503906 1926.46875 C 4489.503906 1905.671875 4497.605469 1904.054688 4500.222656 1904.054688 C 4506.824219 1904.054688 4513.179688 1913.269531 4513.179688 1926.34375 C 4513.179688 1939.792969 4506.703125 1948.761719 4500.222656 1948.761719 Z M 4555.425781 1998.945312 C 4552.933594 1998.945312 4544.707031 1997.328125 4544.707031 1976.65625 C 4544.707031 1955.859375 4552.808594 1954.238281 4555.425781 1954.238281 C 4562.027344 1954.238281 4568.382812 1963.457031 4568.382812 1976.53125 C 4568.382812 1989.980469 4561.902344 1998.945312 4555.425781 1998.945312 Z M 4571.5 1976.65625 C 4571.5 1962.335938 4564.148438 1951.5 4555.300781 1951.5 C 4545.828125 1951.5 4536.980469 1961.960938 4536.980469 1976.53125 C 4536.980469 1991.601562 4545.953125 2001.6875 4555.300781 2001.6875 C 4564.394531 2001.6875 4571.5 1990.601562 4571.5 1976.65625 Z M 4571.5 1976.65625 "/>
</svg>
