<?xml version="1.0" encoding="UTF-8"?>
<svg xmlns="http://www.w3.org/2000/svg" xmlns:xlink="http://www.w3.org/1999/xlink" width="3813" height="651" viewBox="0 0 3813 651">
<path fill="none" stroke-width="0.1" stroke-linecap="butt" stroke-linejoin="miter" stroke="rgb(0%, 0%, 0%)" stroke-opacity="1" stroke-miterlimit="10" d="M -29.999971 -2.4 C -27.500017 -2.4 -24.999998 -2.4 -22.499978 -2.4 " transform="matrix(60.033912, 0, 0, -60, 1906.5, 325.5)"/>
<path fill="none" stroke-width="0.1" stroke-linecap="butt" stroke-linejoin="miter" stroke="rgb(0%, 0%, 0%)" stroke-opacity="1" stroke-miterlimit="10" d="M -22.499978 -2.4 C -20.000024 -2.4 -17.500005 -2.4 -14.999985 -2.4 " transform="matrix(60.033912, 0, 0, -60, 1906.5, 325.5)"/>
<path fill="none" stroke-width="0.1" stroke-linecap="butt" stroke-linejoin="miter" stroke="rgb(0%, 0%, 0%)" stroke-opacity="1" stroke-miterlimit="10" d="M -14.999985 -2.4 C -12.500031 -2.4 -10.000012 -2.4 -7.499993 -2.4 " transform="matrix(60.033912, 0, 0, -60, 1906.5, 325.5)"/>
<path fill="none" stroke-width="0.1" stroke-linecap="butt" stroke-linejoin="miter" stroke="rgb(0%, 0%, 0%)" stroke-opacity="1" stroke-miterlimit="10" d="M -7.499993 -2.4 C -4.999973 -2.4 -2.500019 -2.4 0 -2.4 " transform="matrix(60.033912, 0, 0, -60, 1906.5, 325.5)"/>
<path fill="none" stroke-width="0.1" stroke-linecap="butt" stroke-linejoin="miter" stroke="rgb(0%, 0%, 0%)" stroke-opacity="1" stroke-miterlimit="10" d="M 0 -2.4 C 2.500019 -2.4 4.999973 -2.4 7.499993 -2.4 " transform="matrix(60.033912, 0, 0, -60, 1906.5, 325.5)"/>
<path fill="none" stroke-width="0.1" stroke-linecap="butt" stroke-linejoin="miter" stroke="rgb(0%, 0%, 0%)" stroke-opacity="1" stroke-miterlimit="10" d="M 7.499993 -2.4 C 10.000012 -2.4 12.500031 -2.4 14.999985 -2.4 " transform="matrix(60.033912, 0, 0, -60, 1906.5, 325.5)"/>
<path fill="none" stroke-width="0.1" stroke-linecap="butt" stroke-linejoin="miter" stroke="rgb(0%, 0%, 0%)" stroke-opacity="1" stroke-miterlimit="10" d="M 14.999985 -2.4 C 17.500005 -2.4 20.000024 -2.4 22.499978 -2.4 " transform="matrix(60.033912, 0, 0, -60, 1906.5, 325.5)"/>
<path fill="none" stroke-width="0.1" stroke-linecap="butt" stroke-linejoin="miter" stroke="rgb(0%, 0%, 0%)" stroke-opacity="1" stroke-miterlimit="10" d="M 22.499978 -2.4 C 24.999998 -2.4 27.500017 -2.4 29.999971 -2.4 " transform="matrix(60.033912, 0, 0, -60, 1906.5, 325.5)"/>
<path fill="none" stroke-width="0.1" stroke-linecap="butt" stroke-linejoin="miter" stroke="rgb(0%, 0%, 0%)" stroke-opacity="1" stroke-miterlimit="10" d="M 29.999971 -2.4 C 27.500017 0.1 24.999998 2.6 22.499978 5.1 " transform="matrix(60.033912, 0, 0, -60, 1906.5, 325.5)"/>
<path fill="none" stroke-width="0.1" stroke-linecap="butt" stroke-linejoin="miter" stroke="rgb(0%, 0%, 0%)" stroke-opacity="1" stroke-miterlimit="10" d="M 22.499978 5.1 C 20.000024 5.1 17.500005 5.1 14.999985 5.1 " transform="matrix(60.033912, 0, 0, -60, 1906.5, 325.5)"/>
<path fill="none" stroke-width="0.1" stroke-linecap="butt" stroke-linejoin="miter" stroke="rgb(0%, 0%, 0%)" stroke-opacity="1" stroke-miterlimit="10" d="M 14.999985 5.1 C 12.500031 5.1 10.000012 5.1 7.499993 5.1 " transform="matrix(60.033912, 0, 0, -60, 1906.5, 325.5)"/>
<path fill="none" stroke-width="0.1" stroke-linecap="butt" stroke-linejoin="miter" stroke="rgb(0%, 0%, 0%)" stroke-opacity="1" stroke-miterlimit="10" d="M 7.499993 5.1 C 4.999973 5.1 2.500019 5.1 0 5.1 " transform="matrix(60.033912, 0, 0, -60, 1906.5, 325.5)"/>
<path fill="none" stroke-width="0.1" stroke-linecap="butt" stroke-linejoin="miter" stroke="rgb(0%, 0%, 0%)" stroke-opacity="1" stroke-miterlimit="10" d="M 0 5.1 C -2.500019 5.1 -4.999973 5.1 -7.499993 5.1 " transform="matrix(60.033912, 0, 0, -60, 1906.5, 325.5)"/>
<path fill="none" stroke-width="0.1" stroke-linecap="butt" stroke-linejoin="miter" stroke="rgb(0%, 0%, 0%)" stroke-opacity="1" stroke-miterlimit="10" d="M -7.499993 5.1 C -10.000012 5.1 -12.500031 5.1 -14.999985 5.1 " transform="matrix(60.033912, 0, 0, -60, 1906.5, 325.5)"/>
<path fill="none" stroke-width="0.1" stroke-linecap="butt" stroke-linejoin="miter" stroke="rgb(0%, 0%, 0%)" stroke-opacity="1" stroke-miterlimit="10" d="M -14.999985 5.1 C -17.500005 5.1 -20.000024 5.1 -22.499978 5.1 " transform="matrix(60.033912, 0, 0, -60, 1906.5, 325.5)"/>
<path fill="none" stroke-width="0.1" stroke-linecap="butt" stroke-linejoin="miter" stroke="rgb(0%, 0%, 0%)" stroke-opacity="1" stroke-miterlimit="10" d="M -29.999971 -2.4 C -27.500017 0.1 -24.999998 2.6 -22.499978 5.1 " transform="matrix(60.033912, 0, 0, -60, 1906.5, 325.5)"/>
<path fill="none" stroke-width="0.1" stroke-linecap="butt" stroke-linejoin="miter" stroke="rgb(0%, 0%, 0%)" stroke-opacity="1" stroke-miterlimit="10" d="M -22.499978 -2.4 C -22.499978 0.1 -22.499978 2.6 -22.499978 5.1 " transform="matrix(60.033912, 0, 0, -60, 1906.5, 325.5)"/>
<path fill="none" stroke-width="0.1" stroke-linecap="butt" stroke-linejoin="miter" stroke="rgb(0%, 0%, 0%)" stroke-opacity="1" stroke-miterlimit="10" d="M -14.999985 -2.4 C -14.999985 0.1 -14.999985 2.6 -14.999985 5.1 " transform="matrix(60.033912, 0, 0, -60, 1906.5, 325.5)"/>
<path fill="none" stroke-width="0.1" stroke-linecap="butt" stroke-linejoin="miter" stroke="rgb(0%, 0%, 0%)" stroke-opacity="1" stroke-miterlimit="10" d="M -7.499993 -2.4 C -7.499993 0.1 -7.499993 2.6 -7.499993 5.1 " transform="matrix(60.033912, 0, 0, -60, 1906.5, 325.5)"/>
<path fill="none" stroke-width="0.1" stroke-linecap="butt" stroke-linejoin="miter" stroke="rgb(0%, 0%, 0%)" stroke-opacity="1" stroke-miterlimit="10" d="M 0 -2.4 C 0 0.1 0 2.6 0 5.1 " transform="matrix(60.033912, 0, 0, -60, 1906.5, 325.5)"/>
<path fill="none" stroke-width="0.1" stroke-linecap="butt" stroke-linejoin="miter" stroke="rgb(0%, 0%, 0%)" stroke-opacity="1" stroke-miterlimit="10" d="M 7.499993 -2.4 C 7.499993 0.1 7.499993 2.6 7.499993 5.1 " transform="matrix(60.033912, 0, 0, -60, 1906.5, 325.5)"/>
<path fill="none" stroke-width="0.1" stroke-linecap="butt" stroke-linejoin="miter" stroke="rgb(0%, 0%, 0%)" stroke-opacity="1" stroke-miterlimit="10" d="M 14.999985 -2.4 C 14.999985 0.1 14.999985 2.6 14.999985 5.1 " transform="matrix(60.033912, 0, 0, -60, 1906.5, 325.5)"/>
<path fill="none" stroke-width="0.1" stroke-linecap="butt" stroke-linejoin="miter" stroke="rgb(0%, 0%, 0%)" stroke-opacity="1" stroke-miterlimit="10" d="M 22.499978 -2.4 C 22.499978 0.1 22.499978 2.6 22.499978 5.1 " transform="matrix(60.033912, 0, 0, -60, 1906.5, 325.5)"/>
<path fill="none" stroke-width="0.1" stroke-linecap="butt" stroke-linejoin="miter" stroke="rgb(0%, 0%, 0%)" stroke-opacity="1" stroke-miterlimit="10" d="M -14.999985 -2.4 C -17.500005 0.1 -20.000024 2.6 -22.499978 5.1 " transform="matrix(60.033912, 0, 0, -60, 1906.5, 325.5)"/>
<path fill="none" stroke-width="0.1" stroke-linecap="butt" stroke-linejoin="miter" stroke="rgb(0%, 0%, 0%)" stroke-opacity="1" stroke-miterlimit="10" d="M -7.499993 -2.4 C -10.000012 0.1 -12.500031 2.6 -14.999985 5.1 " transform="matrix(60.033912, 0, 0, -60, 1906.5, 325.5)"/>
<path fill="none" stroke-width="0.1" stroke-linecap="butt" stroke-linejoin="miter" stroke="rgb(0%, 0%, 0%)" stroke-opacity="1" stroke-miterlimit="10" d="M 0 -2.4 C -2.500019 0.1 -4.999973 2.6 -7.499993 5.1 " transform="matrix(60.033912, 0, 0, -60, 1906.5, 325.5)"/>
<path fill="none" stroke-width="0.1" stroke-linecap="butt" stroke-linejoin="miter" stroke="rgb(0%, 0%, 0%)" stroke-opacity="1" stroke-miterlimit="10" d="M 0 -2.4 C 2.500019 0.1 4.999973 2.6 7.499993 5.1 " transform="matrix(60.033912, 0, 0, -60, 1906.5, 325.5)"/>
<path fill="none" stroke-width="0.1" stroke-linecap="butt" stroke-linejoin="miter" stroke="rgb(0%, 0%, 0%)" stroke-opacity="1" stroke-miterlimit="10" d="M 7.499993 -2.4 C 10.000012 0.1 12.500031 2.6 14.999985 5.1 " transform="matrix(60.033912, 0, 0, -60, 1906.5, 325.5)"/>
<path fill="none" stroke-width="0.1" stroke-linecap="butt" stroke-linejoin="miter" stroke="rgb(0%, 0%, 0%)" stroke-opacity="1" stroke-miterlimit="10" d="M 14.999985 -2.4 C 17.500005 0.1 20.000024 2.6 22.499978 5.1 " transform="matrix(60.033912, 0, 0, -60, 1906.5, 325.5)"/>
<path fill="none" stroke-width="0.04" stroke-linecap="butt" stroke-linejoin="miter" stroke="rgb(0%, 0%, 0%)" stroke-opacity="1" stroke-miterlimit="10" d="M -29.999971 -2.4 C -30.38491 -3.066667 -30.769783 -3.733333 -31.154722 -4.4 C -30.38491 -4.4 -29.615097 -4.4 -28.845285 -4.4 C -29.230224 -3.733333 -29.615097 -3.066667 -29.999971 -2.4 Z M -29.999971 -2.4 " transform="matrix(60.033912, 0, 0, -60, 1906.5, 325.5)"/>
<path fill="none" stroke-width="0.04" stroke-linecap="butt" stroke-linejoin="miter" stroke="rgb(0%, 0%, 0%)" stroke-opacity="1" stroke-miterlimit="10" d="M -28.267942 -4.4 C -29.422628 -4.4 -30.577379 -4.4 -31.732065 -4.4 " transform="matrix(60.033912, 0, 0, -60, 1906.5, 325.5)"/>
<path fill="none" stroke-width="0.04" stroke-linecap="butt" stroke-linejoin="miter" stroke="rgb(0%, 0%, 0%)" stroke-opacity="1" stroke-miterlimit="10" d="M 29.999971 -2.4 C 29.615097 -3.066667 29.230224 -3.733333 28.845285 -4.4 C 29.615097 -4.4 30.38491 -4.4 31.154722 -4.4 C 30.769783 -3.733333 30.38491 -3.066667 29.999971 -2.4 Z M 29.999971 -2.4 " transform="matrix(60.033912, 0, 0, -60, 1906.5, 325.5)"/>
<path fill="none" stroke-width="0.04" stroke-linecap="butt" stroke-linejoin="miter" stroke="rgb(0%, 0%, 0%)" stroke-opacity="1" stroke-miterlimit="10" d="M 31.732065 -4.4 C 30.577379 -4.4 29.422628 -4.4 28.267942 -4.4 " transform="matrix(60.033912, 0, 0, -60, 1906.5, 325.5)"/>
<path fill-rule="nonzero" fill="rgb(0%, 0%, 0%)" fill-opacity="1" d="M 123.492188 469.5 C 123.492188 464.726562 121.59375 460.148438 118.21875 456.773438 C 114.839844 453.394531 110.257812 451.5 105.484375 451.5 C 100.707031 451.5 96.125 453.394531 92.746094 456.773438 C 89.371094 460.148438 87.472656 464.726562 87.472656 469.5 C 87.472656 474.273438 89.371094 478.851562 92.746094 482.226562 C 96.125 485.605469 100.707031 487.5 105.484375 487.5 C 110.257812 487.5 114.839844 485.605469 118.21875 482.226562 C 121.59375 478.851562 123.492188 474.273438 123.492188 469.5 Z M 123.492188 469.5 "/>
<path fill-rule="nonzero" fill="rgb(0%, 0%, 0%)" fill-opacity="1" d="M 573.746094 469.5 C 573.746094 464.726562 571.851562 460.148438 568.472656 456.773438 C 565.09375 453.394531 560.511719 451.5 555.738281 451.5 C 550.960938 451.5 546.378906 453.394531 543 456.773438 C 539.625 460.148438 537.726562 464.726562 537.726562 469.5 C 537.726562 474.273438 539.625 478.851562 543 482.226562 C 546.378906 485.605469 550.960938 487.5 555.738281 487.5 C 560.511719 487.5 565.09375 485.605469 568.472656 482.226562 C 571.851562 478.851562 573.746094 474.273438 573.746094 469.5 Z M 573.746094 469.5 "/>
<path fill-rule="nonzero" fill="rgb(0%, 0%, 0%)" fill-opacity="1" d="M 1024 469.5 C 1024 464.726562 1022.105469 460.148438 1018.726562 456.773438 C 1015.347656 453.394531 1010.769531 451.5 1005.992188 451.5 C 1001.214844 451.5 996.632812 453.394531 993.257812 456.773438 C 989.878906 460.148438 987.980469 464.726562 987.980469 469.5 C 987.980469 474.273438 989.878906 478.851562 993.257812 482.226562 C 996.632812 485.605469 1001.214844 487.5 1005.992188 487.5 C 1010.769531 487.5 1015.347656 485.605469 1018.726562 482.226562 C 1022.105469 478.851562 1024 474.273438 1024 469.5 Z M 1024 469.5 "/>
<path fill-rule="nonzero" fill="rgb(0%, 0%, 0%)" fill-opacity="1" d="M 1474.253906 469.5 C 1474.253906 464.726562 1472.359375 460.148438 1468.980469 456.773438 C 1465.601562 453.394531 1461.023438 451.5 1456.246094 451.5 C 1451.46875 451.5 1446.886719 453.394531 1443.511719 456.773438 C 1440.132812 460.148438 1438.234375 464.726562 1438.234375 469.5 C 1438.234375 474.273438 1440.132812 478.851562 1443.511719 482.226562 C 1446.886719 485.605469 1451.46875 487.5 1456.246094 487.5 C 1461.023438 487.5 1465.601562 485.605469 1468.980469 482.226562 C 1472.359375 478.851562 1474.253906 474.273438 1474.253906 469.5 Z M 1474.253906 469.5 "/>
<path fill-rule="nonzero" fill="rgb(0%, 0%, 0%)" fill-opacity="1" d="M 1924.511719 469.5 C 1924.511719 464.726562 1922.613281 460.148438 1919.234375 456.773438 C 1915.859375 453.394531 1911.277344 451.5 1906.5 451.5 C 1901.722656 451.5 1897.140625 453.394531 1893.765625 456.773438 C 1890.386719 460.148438 1888.488281 464.726562 1888.488281 469.5 C 1888.488281 474.273438 1890.386719 478.851562 1893.765625 482.226562 C 1897.140625 485.605469 1901.722656 487.5 1906.5 487.5 C 1911.277344 487.5 1915.859375 485.605469 1919.234375 482.226562 C 1922.613281 478.851562 1924.511719 474.273438 1924.511719 469.5 Z M 1924.511719 469.5 "/>
<path fill-rule="nonzero" fill="rgb(0%, 0%, 0%)" fill-opacity="1" d="M 2374.765625 469.5 C 2374.765625 464.726562 2372.867188 460.148438 2369.488281 456.773438 C 2366.113281 453.394531 2361.53125 451.5 2356.753906 451.5 C 2351.976562 451.5 2347.398438 453.394531 2344.019531 456.773438 C 2340.640625 460.148438 2338.746094 464.726562 2338.746094 469.5 C 2338.746094 474.273438 2340.640625 478.851562 2344.019531 482.226562 C 2347.398438 485.605469 2351.976562 487.5 2356.753906 487.5 C 2361.53125 487.5 2366.113281 485.605469 2369.488281 482.226562 C 2372.867188 478.851562 2374.765625 474.273438 2374.765625 469.5 Z M 2374.765625 469.5 "/>
<path fill-rule="nonzero" fill="rgb(0%, 0%, 0%)" fill-opacity="1" d="M 2825.019531 469.5 C 2825.019531 464.726562 2823.121094 460.148438 2819.742188 456.773438 C 2816.367188 453.394531 2811.785156 451.5 2807.007812 451.5 C 2802.230469 451.5 2797.652344 453.394531 2794.273438 456.773438 C 2790.894531 460.148438 2789 464.726562 2789 469.5 C 2789 474.273438 2790.894531 478.851562 2794.273438 482.226562 C 2797.652344 485.605469 2802.230469 487.5 2807.007812 487.5 C 2811.785156 487.5 2816.367188 485.605469 2819.742188 482.226562 C 2823.121094 478.851562 2825.019531 474.273438 2825.019531 469.5 Z M 2825.019531 469.5 "/>
<path fill-rule="nonzero" fill="rgb(0%, 0%, 0%)" fill-opacity="1" d="M 3275.273438 469.5 C 3275.273438 464.726562 3273.375 460.148438 3270 456.773438 C 3266.621094 453.394531 3262.039062 451.5 3257.261719 451.5 C 3252.488281 451.5 3247.90625 453.394531 3244.527344 456.773438 C 3241.148438 460.148438 3239.253906 464.726562 3239.253906 469.5 C 3239.253906 474.273438 3241.148438 478.851562 3244.527344 482.226562 C 3247.90625 485.605469 3252.488281 487.5 3257.261719 487.5 C 3262.039062 487.5 3266.621094 485.605469 3270 482.226562 C 3273.375 478.851562 3275.273438 474.273438 3275.273438 469.5 Z M 3275.273438 469.5 "/>
<path fill-rule="nonzero" fill="rgb(0%, 0%, 0%)" fill-opacity="1" d="M 3725.527344 469.5 C 3725.527344 464.726562 3723.628906 460.148438 3720.253906 456.773438 C 3716.875 453.394531 3712.292969 451.5 3707.515625 451.5 C 3702.742188 451.5 3698.160156 453.394531 3694.78125 456.773438 C 3691.40625 460.148438 3689.507812 464.726562 3689.507812 469.5 C 3689.507812 474.273438 3691.40625 478.851562 3694.78125 482.226562 C 3698.160156 485.605469 3702.742188 487.5 3707.515625 487.5 C 3712.292969 487.5 3716.875 485.605469 3720.253906 482.226562 C 3723.628906 478.851562 3725.527344 474.273438 3725.527344 469.5 Z M 3725.527344 469.5 "/>
<path fill-rule="nonzero" fill="rgb(0%, 0%, 0%)" fill-opacity="1" d="M 3275.273438 19.5 C 3275.273438 14.726562 3273.375 10.148438 3270 6.773438 C 3266.621094 3.394531 3262.039062 1.5 3257.261719 1.5 C 3252.488281 1.5 3247.90625 3.394531 3244.527344 6.773438 C 3241.148438 10.148438 3239.253906 14.726562 3239.253906 19.5 C 3239.253906 24.273438 3241.148438 28.851562 3244.527344 32.226562 C 3247.90625 35.605469 3252.488281 37.5 3257.261719 37.5 C 3262.039062 37.5 3266.621094 35.605469 3270 32.226562 C 3273.375 28.851562 3275.273438 24.273438 3275.273438 19.5 Z M 3275.273438 19.5 "/>
<path fill-rule="nonzero" fill="rgb(0%, 0%, 0%)" fill-opacity="1" d="M 2825.019531 19.5 C 2825.019531 14.726562 2823.121094 10.148438 2819.742188 6.773438 C 2816.367188 3.394531 2811.785156 1.5 2807.007812 1.5 C 2802.230469 1.5 2797.652344 3.394531 2794.273438 6.773438 C 2790.894531 10.148438 2789 14.726562 2789 19.5 C 2789 24.273438 2790.894531 28.851562 2794.273438 32.226562 C 2797.652344 35.605469 2802.230469 37.5 2807.007812 37.5 C 2811.785156 37.5 2816.367188 35.605469 2819.742188 32.226562 C 2823.121094 28.851562 2825.019531 24.273438 2825.019531 19.5 Z M 2825.019531 19.5 "/>
<path fill-rule="nonzero" fill="rgb(0%, 0%, 0%)" fill-opacity="1" d="M 2374.765625 19.5 C 2374.765625 14.726562 2372.867188 10.148438 2369.488281 6.773438 C 2366.113281 3.394531 2361.53125 1.5 2356.753906 1.5 C 2351.976562 1.5 2347.398438 3.394531 2344.019531 6.773438 C 2340.640625 10.148438 2338.746094 14.726562 2338.746094 19.5 C 2338.746094 24.273438 2340.640625 28.851562 2344.019531 32.226562 C 2347.398438 35.605469 2351.976562 37.5 2356.753906 37.5 C 2361.53125 37.5 2366.113281 35.605469 2369.488281 32.226562 C 2372.867188 28.851562 2374.765625 24.273438 2374.765625 19.5 Z M 2374.765625 19.5 "/>
<path fill-rule="nonzero" fill="rgb(0%, 0%, 0%)" fill-opacity="1" d="M 1924.511719 19.5 C 1924.511719 14.726562 1922.613281 10.148438 1919.234375 6.773438 C 1915.859375 3.394531 1911.277344 1.5 1906.5 1.5 C 1901.722656 1.5 1897.140625 3.394531 1893.765625 6.773438 C 1890.386719 10.148438 1888.488281 14.726562 1888.488281 19.5 C 1888.488281 24.273438 1890.386719 28.851562 1893.765625 32.226562 C 1897.140625 35.605469 1901.722656 37.5 1906.5 37.5 C 1911.277344 37.5 1915.859375 35.605469 1919.234375 32.226562 C 1922.613281 28.851562 1924.511719 24.273438 1924.511719 19.5 Z M 1924.511719 19.5 "/>
<path fill-rule="nonzero" fill="rgb(0%, 0%, 0%)" fill-opacity="1" d="M 1474.253906 19.5 C 1474.253906 14.726562 1472.359375 10.148438 1468.980469 6.773438 C 1465.601562 3.394531 1461.023438 1.5 1456.246094 1.5 C 1451.46875 1.5 1446.886719 3.394531 1443.511719 6.773438 C 1440.132812 10.148438 1438.234375 14.726562 1438.234375 19.5 C 1438.234375 24.273438 1440.132812 28.851562 1443.511719 32.226562 C 1446.886719 35.605469 1451.46875 37.5 1456.246094 37.5 C 1461.023438 37.5 1465.601562 35.605469 1468.980469 32.226562 C 1472.359375 28.851562 1474.253906 24.273438 1474.253906 19.5 Z M 1474.253906 19.5 "/>
<path fill-rule="nonzero" fill="rgb(0%, 0%, 0%)" fill-opacity="1" d="M 1024 19.5 C 1024 14.726562 1022.105469 10.148438 1018.726562 6.773438 C 1015.347656 3.394531 1010.769531 1.5 1005.992188 1.5 C 1001.214844 1.5 996.632812 3.394531 993.257812 6.773438 C 989.878906 10.148438 987.980469 14.726562 987.980469 19.5 C 987.980469 24.273438 989.878906 28.851562 993.257812 32.226562 C 996.632812 35.605469 1001.214844 37.5 1005.992188 37.5 C 1010.769531 37.5 1015.347656 35.605469 1018.726562 32.226562 C 1022.105469 28.851562 1024 24.273438 1024 19.5 Z M 1024 19.5 "/>
<path fill-rule="nonzero" fill="rgb(0%, 0%, 0%)" fill-opacity="1" d="M 573.746094 19.5 C 573.746094 14.726562 571.851562 10.148438 568.472656 6.773438 C 565.09375 3.394531 560.511719 1.5 555.738281 1.5 C 550.960938 1.5 546.378906 3.394531 543 6.773438 C 539.625 10.148438 537.726562 14.726562 537.726562 19.5 C 537.726562 24.273438 539.625 28.851562 543 32.226562 C 546.378906 35.605469 550.960938 37.5 555.738281 37.5 C 560.511719 37.5 565.09375 35.605469 568.472656 32.226562 C 571.851562 28.851562 573.746094 24.273438 573.746094 19.5 Z M 573.746094 19.5 "/>
<path fill="none" stroke-width="0.15" stroke-linecap="butt" stroke-linejoin="miter" stroke="rgb(98.823529%, 38.431373%, 33.333333%)" stroke-opacity="1" stroke-miterlimit="10" d="M -22.499978 -2.4 C -22.499978 -3.133333 -22.499978 -3.866667 -22.499978 -4.6 " transform="matrix(60.033912, 0, 0, -60, 1906.5, 325.5)"/>
<path fill-rule="nonzero" fill="rgb(98.823529%, 38.431373%, 33.333333%)" fill-opacity="1" d="M 555.738281 649.5 C 563.742188 633.5 571.746094 617.5 579.75 601.5 C 563.742188 601.5 547.734375 601.5 531.722656 601.5 C 539.726562 617.5 547.734375 633.5 555.738281 649.5 Z M 555.738281 649.5 "/>
<path fill="none" stroke-width="0.15" stroke-linecap="butt" stroke-linejoin="miter" stroke="rgb(98.823529%, 38.431373%, 33.333333%)" stroke-opacity="1" stroke-miterlimit="10" d="M -14.999985 -2.4 C -14.999985 -3.133333 -14.999985 -3.866667 -14.999985 -4.6 " transform="matrix(60.033912, 0, 0, -60, 1906.5, 325.5)"/>
<path fill-rule="nonzero" fill="rgb(98.823529%, 38.431373%, 33.333333%)" fill-opacity="1" d="M 1005.992188 649.5 C 1013.996094 633.5 1022 617.5 1030.003906 601.5 C 1013.996094 601.5 997.988281 601.5 981.976562 601.5 C 989.980469 617.5 997.988281 633.5 1005.992188 649.5 Z M 1005.992188 649.5 "/>
<path fill="none" stroke-width="0.15" stroke-linecap="butt" stroke-linejoin="miter" stroke="rgb(98.823529%, 38.431373%, 33.333333%)" stroke-opacity="1" stroke-miterlimit="10" d="M -7.499993 -2.4 C -7.499993 -3.133333 -7.499993 -3.866667 -7.499993 -4.6 " transform="matrix(60.033912, 0, 0, -60, 1906.5, 325.5)"/>
<path fill-rule="nonzero" fill="rgb(98.823529%, 38.431373%, 33.333333%)" fill-opacity="1" d="M 1456.246094 649.5 C 1464.25 633.5 1472.253906 617.5 1480.257812 601.5 C 1464.25 601.5 1448.242188 601.5 1432.230469 601.5 C 1440.238281 617.5 1448.242188 633.5 1456.246094 649.5 Z M 1456.246094 649.5 "/>
<path fill="none" stroke-width="0.15" stroke-linecap="butt" stroke-linejoin="miter" stroke="rgb(98.823529%, 38.431373%, 33.333333%)" stroke-opacity="1" stroke-miterlimit="10" d="M 0 -2.4 C 0 -3.133333 0 -3.866667 0 -4.6 " transform="matrix(60.033912, 0, 0, -60, 1906.5, 325.5)"/>
<path fill-rule="nonzero" fill="rgb(98.823529%, 38.431373%, 33.333333%)" fill-opacity="1" d="M 1906.5 649.5 C 1914.503906 633.5 1922.507812 617.5 1930.511719 601.5 C 1914.503906 601.5 1898.496094 601.5 1882.488281 601.5 C 1890.492188 617.5 1898.496094 633.5 1906.5 649.5 Z M 1906.5 649.5 "/>
<path fill="none" stroke-width="0.15" stroke-linecap="butt" stroke-linejoin="miter" stroke="rgb(98.823529%, 38.431373%, 33.333333%)" stroke-opacity="1" stroke-miterlimit="10" d="M 7.499993 -2.4 C 7.499993 -3.133333 7.499993 -3.866667 7.499993 -4.6 " transform="matrix(60.033912, 0, 0, -60, 1906.5, 325.5)"/>
<path fill-rule="nonzero" fill="rgb(98.823529%, 38.431373%, 33.333333%)" fill-opacity="1" d="M 2356.753906 649.5 C 2364.757812 633.5 2372.761719 617.5 2380.769531 601.5 C 2364.757812 601.5 2348.75 601.5 2332.742188 601.5 C 2340.746094 617.5 2348.75 633.5 2356.753906 649.5 Z M 2356.753906 649.5 "/>
<path fill="none" stroke-width="0.15" stroke-linecap="butt" stroke-linejoin="miter" stroke="rgb(98.823529%, 38.431373%, 33.333333%)" stroke-opacity="1" stroke-miterlimit="10" d="M 14.999985 -2.4 C 14.999985 -3.133333 14.999985 -3.866667 14.999985 -4.6 " transform="matrix(60.033912, 0, 0, -60, 1906.5, 325.5)"/>
<path fill-rule="nonzero" fill="rgb(98.823529%, 38.431373%, 33.333333%)" fill-opacity="1" d="M 2807.007812 649.5 C 2815.011719 633.5 2823.019531 617.5 2831.023438 601.5 C 2815.011719 601.5 2799.003906 601.5 2782.996094 601.5 C 2791 617.5 2799.003906 633.5 2807.007812 649.5 Z M 2807.007812 649.5 "/>
<path fill="none" stroke-width="0.15" stroke-linecap="butt" stroke-linejoin="miter" stroke="rgb(98.823529%, 38.431373%, 33.333333%)" stroke-opacity="1" stroke-miterlimit="10" d="M 22.499978 -2.4 C 22.499978 -3.133333 22.499978 -3.866667 22.499978 -4.6 " transform="matrix(60.033912, 0, 0, -60, 1906.5, 325.5)"/>
<path fill-rule="nonzero" fill="rgb(98.823529%, 38.431373%, 33.333333%)" fill-opacity="1" d="M 3257.261719 649.5 C 3265.265625 633.5 3273.273438 617.5 3281.277344 601.5 C 3265.265625 601.5 3249.257812 601.5 3233.25 601.5 C 3241.253906 617.5 3249.257812 633.5 3257.261719 649.5 Z M 3257.261719 649.5 "/>
<path fill="none" stroke-width="0.15" stroke-linecap="butt" stroke-linejoin="miter" stroke="rgb(60.392157%, 44.705882%, 67.45098%)" stroke-opacity="1" stroke-miterlimit="10" d="M -29.999971 -2.4 C -29.750958 -2.419271 -29.501945 -2.438542 -29.252932 -2.457878 " transform="matrix(60.033912, 0, 0, -60, 1906.5, 325.5)"/>
<path fill="none" stroke-width="0.15" stroke-linecap="butt" stroke-linejoin="miter" stroke="rgb(60.392157%, 44.705882%, 67.45098%)" stroke-opacity="1" stroke-miterlimit="10" d="M -28.31902 -2.530208 C -28.070007 -2.549479 -27.820994 -2.56875 -27.571916 -2.588021 " transform="matrix(60.033912, 0, 0, -60, 1906.5, 325.5)"/>
<path fill="none" stroke-width="0.15" stroke-linecap="butt" stroke-linejoin="miter" stroke="rgb(60.392157%, 44.705882%, 67.45098%)" stroke-opacity="1" stroke-miterlimit="10" d="M -26.638069 -2.660352 C -26.389056 -2.679622 -26.139978 -2.698893 -25.890965 -2.718229 " transform="matrix(60.033912, 0, 0, -60, 1906.5, 325.5)"/>
<path fill="none" stroke-width="0.15" stroke-linecap="butt" stroke-linejoin="miter" stroke="rgb(60.392157%, 44.705882%, 67.45098%)" stroke-opacity="1" stroke-miterlimit="10" d="M -24.957118 -2.79056 C -24.70804 -2.809831 -24.459027 -2.829102 -24.210014 -2.848372 " transform="matrix(60.033912, 0, 0, -60, 1906.5, 325.5)"/>
<path fill="none" stroke-width="0.15" stroke-linecap="butt" stroke-linejoin="miter" stroke="rgb(60.392157%, 44.705882%, 67.45098%)" stroke-opacity="1" stroke-miterlimit="10" d="M -23.276102 -2.920703 C -23.027089 -2.939974 -22.778076 -2.959245 -22.528998 -2.978581 " transform="matrix(60.033912, 0, 0, -60, 1906.5, 325.5)"/>
<path fill="none" stroke-width="0.15" stroke-linecap="butt" stroke-linejoin="miter" stroke="rgb(60.392157%, 44.705882%, 67.45098%)" stroke-opacity="1" stroke-miterlimit="10" d="M -22.528998 -2.978581 C -22.279985 -2.99694 -22.030972 -3.015234 -21.781895 -3.033594 " transform="matrix(60.033912, 0, 0, -60, 1906.5, 325.5)"/>
<path fill="none" stroke-width="0.15" stroke-linecap="butt" stroke-linejoin="miter" stroke="rgb(60.392157%, 44.705882%, 67.45098%)" stroke-opacity="1" stroke-miterlimit="10" d="M -20.848047 -3.102409 C -20.599034 -3.120768 -20.349956 -3.139063 -20.100944 -3.157422 " transform="matrix(60.033912, 0, 0, -60, 1906.5, 325.5)"/>
<path fill="none" stroke-width="0.15" stroke-linecap="butt" stroke-linejoin="miter" stroke="rgb(60.392157%, 44.705882%, 67.45098%)" stroke-opacity="1" stroke-miterlimit="10" d="M -19.167096 -3.226237 C -18.918018 -3.244596 -18.669006 -3.262956 -18.419993 -3.28125 " transform="matrix(60.033912, 0, 0, -60, 1906.5, 325.5)"/>
<path fill="none" stroke-width="0.15" stroke-linecap="butt" stroke-linejoin="miter" stroke="rgb(60.392157%, 44.705882%, 67.45098%)" stroke-opacity="1" stroke-miterlimit="10" d="M -17.48608 -3.350065 C -17.237067 -3.368424 -16.988055 -3.386784 -16.738977 -3.405078 " transform="matrix(60.033912, 0, 0, -60, 1906.5, 325.5)"/>
<path fill="none" stroke-width="0.15" stroke-linecap="butt" stroke-linejoin="miter" stroke="rgb(60.392157%, 44.705882%, 67.45098%)" stroke-opacity="1" stroke-miterlimit="10" d="M -15.805129 -3.473893 C -15.556116 -3.492253 -15.307039 -3.510612 -15.058026 -3.528906 " transform="matrix(60.033912, 0, 0, -60, 1906.5, 325.5)"/>
<path fill="none" stroke-width="0.15" stroke-linecap="butt" stroke-linejoin="miter" stroke="rgb(60.392157%, 44.705882%, 67.45098%)" stroke-opacity="1" stroke-miterlimit="10" d="M -15.058026 -3.528906 C -14.807516 -3.542969 -14.557007 -3.557031 -14.306497 -3.571094 " transform="matrix(60.033912, 0, 0, -60, 1906.5, 325.5)"/>
<path fill="none" stroke-width="0.15" stroke-linecap="butt" stroke-linejoin="miter" stroke="rgb(60.392157%, 44.705882%, 67.45098%)" stroke-opacity="1" stroke-miterlimit="10" d="M -13.366989 -3.623828 C -13.11648 -3.637891 -12.86597 -3.651953 -12.615461 -3.666016 " transform="matrix(60.033912, 0, 0, -60, 1906.5, 325.5)"/>
<path fill="none" stroke-width="0.15" stroke-linecap="butt" stroke-linejoin="miter" stroke="rgb(60.392157%, 44.705882%, 67.45098%)" stroke-opacity="1" stroke-miterlimit="10" d="M -11.676018 -3.71875 C -11.425508 -3.732813 -11.174934 -3.74681 -10.924424 -3.760872 " transform="matrix(60.033912, 0, 0, -60, 1906.5, 325.5)"/>
<path fill="none" stroke-width="0.15" stroke-linecap="butt" stroke-linejoin="miter" stroke="rgb(60.392157%, 44.705882%, 67.45098%)" stroke-opacity="1" stroke-miterlimit="10" d="M -9.984981 -3.813607 C -9.734472 -3.827669 -9.483963 -3.841732 -9.233453 -3.855794 " transform="matrix(60.033912, 0, 0, -60, 1906.5, 325.5)"/>
<path fill="none" stroke-width="0.15" stroke-linecap="butt" stroke-linejoin="miter" stroke="rgb(60.392157%, 44.705882%, 67.45098%)" stroke-opacity="1" stroke-miterlimit="10" d="M -8.293945 -3.908529 C -8.043436 -3.922591 -7.792926 -3.936654 -7.542417 -3.950651 " transform="matrix(60.033912, 0, 0, -60, 1906.5, 325.5)"/>
<path fill="none" stroke-width="0.15" stroke-linecap="butt" stroke-linejoin="miter" stroke="rgb(60.392157%, 44.705882%, 67.45098%)" stroke-opacity="1" stroke-miterlimit="10" d="M -7.542417 -3.950651 C -7.290996 -3.956576 -7.039576 -3.9625 -6.788155 -3.968359 " transform="matrix(60.033912, 0, 0, -60, 1906.5, 325.5)"/>
<path fill="none" stroke-width="0.15" stroke-linecap="butt" stroke-linejoin="miter" stroke="rgb(60.392157%, 44.705882%, 67.45098%)" stroke-opacity="1" stroke-miterlimit="10" d="M -5.845394 -3.990495 C -5.593974 -3.996419 -5.342553 -4.002344 -5.091133 -4.008203 " transform="matrix(60.033912, 0, 0, -60, 1906.5, 325.5)"/>
<path fill="none" stroke-width="0.15" stroke-linecap="butt" stroke-linejoin="miter" stroke="rgb(60.392157%, 44.705882%, 67.45098%)" stroke-opacity="1" stroke-miterlimit="10" d="M -4.148306 -4.030339 C -3.896886 -4.036263 -3.645531 -4.042122 -3.39411 -4.048047 " transform="matrix(60.033912, 0, 0, -60, 1906.5, 325.5)"/>
<path fill="none" stroke-width="0.15" stroke-linecap="butt" stroke-linejoin="miter" stroke="rgb(60.392157%, 44.705882%, 67.45098%)" stroke-opacity="1" stroke-miterlimit="10" d="M -2.451284 -4.070182 C -2.199863 -4.076107 -1.948443 -4.081966 -1.697023 -4.087891 " transform="matrix(60.033912, 0, 0, -60, 1906.5, 325.5)"/>
<path fill="none" stroke-width="0.15" stroke-linecap="butt" stroke-linejoin="miter" stroke="rgb(60.392157%, 44.705882%, 67.45098%)" stroke-opacity="1" stroke-miterlimit="10" d="M -0.754261 -4.110026 C -0.502841 -4.115951 -0.25142 -4.12181 0 -4.127734 " transform="matrix(60.033912, 0, 0, -60, 1906.5, 325.5)"/>
<path fill="none" stroke-width="0.15" stroke-linecap="butt" stroke-linejoin="miter" stroke="rgb(60.392157%, 44.705882%, 67.45098%)" stroke-opacity="1" stroke-miterlimit="10" d="M 0 -4.127734 C 0.25142 -4.12181 0.502841 -4.115951 0.754261 -4.110026 " transform="matrix(60.033912, 0, 0, -60, 1906.5, 325.5)"/>
<path fill="none" stroke-width="0.15" stroke-linecap="butt" stroke-linejoin="miter" stroke="rgb(60.392157%, 44.705882%, 67.45098%)" stroke-opacity="1" stroke-miterlimit="10" d="M 1.697023 -4.087891 C 1.948443 -4.081966 2.199863 -4.076107 2.451284 -4.070182 " transform="matrix(60.033912, 0, 0, -60, 1906.5, 325.5)"/>
<path fill="none" stroke-width="0.15" stroke-linecap="butt" stroke-linejoin="miter" stroke="rgb(60.392157%, 44.705882%, 67.45098%)" stroke-opacity="1" stroke-miterlimit="10" d="M 3.39411 -4.048047 C 3.645531 -4.042122 3.896886 -4.036263 4.148306 -4.030339 " transform="matrix(60.033912, 0, 0, -60, 1906.5, 325.5)"/>
<path fill="none" stroke-width="0.15" stroke-linecap="butt" stroke-linejoin="miter" stroke="rgb(60.392157%, 44.705882%, 67.45098%)" stroke-opacity="1" stroke-miterlimit="10" d="M 5.091133 -4.008203 C 5.342553 -4.002344 5.593974 -3.996419 5.845394 -3.990495 " transform="matrix(60.033912, 0, 0, -60, 1906.5, 325.5)"/>
<path fill="none" stroke-width="0.15" stroke-linecap="butt" stroke-linejoin="miter" stroke="rgb(60.392157%, 44.705882%, 67.45098%)" stroke-opacity="1" stroke-miterlimit="10" d="M 6.788155 -3.968359 C 7.039576 -3.9625 7.290996 -3.956576 7.542417 -3.950651 " transform="matrix(60.033912, 0, 0, -60, 1906.5, 325.5)"/>
<path fill="none" stroke-width="0.15" stroke-linecap="butt" stroke-linejoin="miter" stroke="rgb(60.392157%, 44.705882%, 67.45098%)" stroke-opacity="1" stroke-miterlimit="10" d="M 7.542417 -3.950651 C 7.792926 -3.936654 8.043436 -3.922591 8.293945 -3.908529 " transform="matrix(60.033912, 0, 0, -60, 1906.5, 325.5)"/>
<path fill="none" stroke-width="0.15" stroke-linecap="butt" stroke-linejoin="miter" stroke="rgb(60.392157%, 44.705882%, 67.45098%)" stroke-opacity="1" stroke-miterlimit="10" d="M 9.233453 -3.855794 C 9.483963 -3.841732 9.734472 -3.827669 9.984981 -3.813607 " transform="matrix(60.033912, 0, 0, -60, 1906.5, 325.5)"/>
<path fill="none" stroke-width="0.15" stroke-linecap="butt" stroke-linejoin="miter" stroke="rgb(60.392157%, 44.705882%, 67.45098%)" stroke-opacity="1" stroke-miterlimit="10" d="M 10.924424 -3.760872 C 11.174934 -3.74681 11.425508 -3.732813 11.676018 -3.71875 " transform="matrix(60.033912, 0, 0, -60, 1906.5, 325.5)"/>
<path fill="none" stroke-width="0.15" stroke-linecap="butt" stroke-linejoin="miter" stroke="rgb(60.392157%, 44.705882%, 67.45098%)" stroke-opacity="1" stroke-miterlimit="10" d="M 12.615461 -3.666016 C 12.86597 -3.651953 13.11648 -3.637891 13.366989 -3.623828 " transform="matrix(60.033912, 0, 0, -60, 1906.5, 325.5)"/>
<path fill="none" stroke-width="0.15" stroke-linecap="butt" stroke-linejoin="miter" stroke="rgb(60.392157%, 44.705882%, 67.45098%)" stroke-opacity="1" stroke-miterlimit="10" d="M 14.306497 -3.571094 C 14.557007 -3.557031 14.807516 -3.542969 15.058026 -3.528906 " transform="matrix(60.033912, 0, 0, -60, 1906.5, 325.5)"/>
<path fill="none" stroke-width="0.15" stroke-linecap="butt" stroke-linejoin="miter" stroke="rgb(60.392157%, 44.705882%, 67.45098%)" stroke-opacity="1" stroke-miterlimit="10" d="M 15.058026 -3.528906 C 15.307039 -3.510612 15.556116 -3.492253 15.805129 -3.473893 " transform="matrix(60.033912, 0, 0, -60, 1906.5, 325.5)"/>
<path fill="none" stroke-width="0.15" stroke-linecap="butt" stroke-linejoin="miter" stroke="rgb(60.392157%, 44.705882%, 67.45098%)" stroke-opacity="1" stroke-miterlimit="10" d="M 16.738977 -3.405078 C 16.988055 -3.386784 17.237067 -3.368424 17.48608 -3.350065 " transform="matrix(60.033912, 0, 0, -60, 1906.5, 325.5)"/>
<path fill="none" stroke-width="0.15" stroke-linecap="butt" stroke-linejoin="miter" stroke="rgb(60.392157%, 44.705882%, 67.45098%)" stroke-opacity="1" stroke-miterlimit="10" d="M 18.419993 -3.28125 C 18.669006 -3.262956 18.918018 -3.244596 19.167096 -3.226237 " transform="matrix(60.033912, 0, 0, -60, 1906.5, 325.5)"/>
<path fill="none" stroke-width="0.15" stroke-linecap="butt" stroke-linejoin="miter" stroke="rgb(60.392157%, 44.705882%, 67.45098%)" stroke-opacity="1" stroke-miterlimit="10" d="M 20.100944 -3.157422 C 20.349956 -3.139063 20.599034 -3.120768 20.848047 -3.102409 " transform="matrix(60.033912, 0, 0, -60, 1906.5, 325.5)"/>
<path fill="none" stroke-width="0.15" stroke-linecap="butt" stroke-linejoin="miter" stroke="rgb(60.392157%, 44.705882%, 67.45098%)" stroke-opacity="1" stroke-miterlimit="10" d="M 21.781895 -3.033594 C 22.030972 -3.015234 22.279985 -2.99694 22.528998 -2.978581 " transform="matrix(60.033912, 0, 0, -60, 1906.5, 325.5)"/>
<path fill="none" stroke-width="0.15" stroke-linecap="butt" stroke-linejoin="miter" stroke="rgb(60.392157%, 44.705882%, 67.45098%)" stroke-opacity="1" stroke-miterlimit="10" d="M 22.528998 -2.978581 C 22.778076 -2.959245 23.027089 -2.939974 23.276102 -2.920703 " transform="matrix(60.033912, 0, 0, -60, 1906.5, 325.5)"/>
<path fill="none" stroke-width="0.15" stroke-linecap="butt" stroke-linejoin="miter" stroke="rgb(60.392157%, 44.705882%, 67.45098%)" stroke-opacity="1" stroke-miterlimit="10" d="M 24.210014 -2.848372 C 24.459027 -2.829102 24.70804 -2.809831 24.957118 -2.79056 " transform="matrix(60.033912, 0, 0, -60, 1906.5, 325.5)"/>
<path fill="none" stroke-width="0.15" stroke-linecap="butt" stroke-linejoin="miter" stroke="rgb(60.392157%, 44.705882%, 67.45098%)" stroke-opacity="1" stroke-miterlimit="10" d="M 25.890965 -2.718229 C 26.139978 -2.698893 26.389056 -2.679622 26.638069 -2.660352 " transform="matrix(60.033912, 0, 0, -60, 1906.5, 325.5)"/>
<path fill="none" stroke-width="0.15" stroke-linecap="butt" stroke-linejoin="miter" stroke="rgb(60.392157%, 44.705882%, 67.45098%)" stroke-opacity="1" stroke-miterlimit="10" d="M 27.571916 -2.588021 C 27.820994 -2.56875 28.070007 -2.549479 28.31902 -2.530208 " transform="matrix(60.033912, 0, 0, -60, 1906.5, 325.5)"/>
<path fill="none" stroke-width="0.15" stroke-linecap="butt" stroke-linejoin="miter" stroke="rgb(60.392157%, 44.705882%, 67.45098%)" stroke-opacity="1" stroke-miterlimit="10" d="M 29.252932 -2.457878 C 29.501945 -2.438542 29.750958 -2.419271 29.999971 -2.4 " transform="matrix(60.033912, 0, 0, -60, 1906.5, 325.5)"/>
<path fill="none" stroke-width="0.15" stroke-linecap="butt" stroke-linejoin="miter" stroke="rgb(60.392157%, 44.705882%, 67.45098%)" stroke-opacity="1" stroke-miterlimit="10" d="M 29.999971 -2.4 C 29.835741 -2.255404 29.671511 -2.110872 29.507281 -1.966276 " transform="matrix(60.033912, 0, 0, -60, 1906.5, 325.5)"/>
<path fill="none" stroke-width="0.15" stroke-linecap="butt" stroke-linejoin="miter" stroke="rgb(60.392157%, 44.705882%, 67.45098%)" stroke-opacity="1" stroke-miterlimit="10" d="M 28.944122 -1.470638 C 28.779892 -1.326042 28.615597 -1.18151 28.451367 -1.036914 " transform="matrix(60.033912, 0, 0, -60, 1906.5, 325.5)"/>
<path fill="none" stroke-width="0.15" stroke-linecap="butt" stroke-linejoin="miter" stroke="rgb(60.392157%, 44.705882%, 67.45098%)" stroke-opacity="1" stroke-miterlimit="10" d="M 27.888209 -0.541276 C 27.723979 -0.39668 27.559749 -0.252148 27.395519 -0.107552 " transform="matrix(60.033912, 0, 0, -60, 1906.5, 325.5)"/>
<path fill="none" stroke-width="0.15" stroke-linecap="butt" stroke-linejoin="miter" stroke="rgb(60.392157%, 44.705882%, 67.45098%)" stroke-opacity="1" stroke-miterlimit="10" d="M 26.83236 0.388086 C 26.66813 0.532682 26.503835 0.677279 26.339605 0.82181 " transform="matrix(60.033912, 0, 0, -60, 1906.5, 325.5)"/>
<path fill="none" stroke-width="0.15" stroke-linecap="butt" stroke-linejoin="miter" stroke="rgb(60.392157%, 44.705882%, 67.45098%)" stroke-opacity="1" stroke-miterlimit="10" d="M 25.776447 1.317448 C 25.612217 1.462044 25.447987 1.606641 25.283691 1.751172 " transform="matrix(60.033912, 0, 0, -60, 1906.5, 325.5)"/>
<path fill="none" stroke-width="0.15" stroke-linecap="butt" stroke-linejoin="miter" stroke="rgb(60.392157%, 44.705882%, 67.45098%)" stroke-opacity="1" stroke-miterlimit="10" d="M 24.720598 2.246875 C 24.556303 2.391406 24.392073 2.536003 24.227843 2.680534 " transform="matrix(60.033912, 0, 0, -60, 1906.5, 325.5)"/>
<path fill="none" stroke-width="0.15" stroke-linecap="butt" stroke-linejoin="miter" stroke="rgb(60.392157%, 44.705882%, 67.45098%)" stroke-opacity="1" stroke-miterlimit="10" d="M 23.664685 3.176237 C 23.500454 3.320768 23.336224 3.465365 23.171929 3.609896 " transform="matrix(60.033912, 0, 0, -60, 1906.5, 325.5)"/>
<path fill="none" stroke-width="0.15" stroke-linecap="butt" stroke-linejoin="miter" stroke="rgb(60.392157%, 44.705882%, 67.45098%)" stroke-opacity="1" stroke-miterlimit="10" d="M 22.608836 4.105599 C 22.444541 4.25013 22.280311 4.394727 22.116081 4.539323 " transform="matrix(60.033912, 0, 0, -60, 1906.5, 325.5)"/>
<path fill="none" stroke-width="0.15" stroke-linecap="butt" stroke-linejoin="miter" stroke="rgb(60.392157%, 44.705882%, 67.45098%)" stroke-opacity="1" stroke-miterlimit="10" d="M 22.116081 4.539323 C 21.86967 4.519466 21.623195 4.499609 21.376785 4.479818 " transform="matrix(60.033912, 0, 0, -60, 1906.5, 325.5)"/>
<path fill="none" stroke-width="0.15" stroke-linecap="butt" stroke-linejoin="miter" stroke="rgb(60.392157%, 44.705882%, 67.45098%)" stroke-opacity="1" stroke-miterlimit="10" d="M 20.452698 4.405404 C 20.206223 4.385612 19.959812 4.365755 19.713402 4.345898 " transform="matrix(60.033912, 0, 0, -60, 1906.5, 325.5)"/>
<path fill="none" stroke-width="0.15" stroke-linecap="butt" stroke-linejoin="miter" stroke="rgb(60.392157%, 44.705882%, 67.45098%)" stroke-opacity="1" stroke-miterlimit="10" d="M 18.789315 4.271549 C 18.54284 4.251693 18.29643 4.231836 18.050019 4.212044 " transform="matrix(60.033912, 0, 0, -60, 1906.5, 325.5)"/>
<path fill="none" stroke-width="0.15" stroke-linecap="butt" stroke-linejoin="miter" stroke="rgb(60.392157%, 44.705882%, 67.45098%)" stroke-opacity="1" stroke-miterlimit="10" d="M 17.125867 4.13763 C 16.879457 4.117839 16.633047 4.097982 16.386637 4.078125 " transform="matrix(60.033912, 0, 0, -60, 1906.5, 325.5)"/>
<path fill="none" stroke-width="0.15" stroke-linecap="butt" stroke-linejoin="miter" stroke="rgb(60.392157%, 44.705882%, 67.45098%)" stroke-opacity="1" stroke-miterlimit="10" d="M 15.462485 4.003776 C 15.216074 3.983919 14.969664 3.964128 14.723189 3.944271 " transform="matrix(60.033912, 0, 0, -60, 1906.5, 325.5)"/>
<path fill="none" stroke-width="0.15" stroke-linecap="butt" stroke-linejoin="miter" stroke="rgb(60.392157%, 44.705882%, 67.45098%)" stroke-opacity="1" stroke-miterlimit="10" d="M 14.723189 3.944271 C 14.47769 3.930794 14.232125 3.917318 13.986626 3.903906 " transform="matrix(60.033912, 0, 0, -60, 1906.5, 325.5)"/>
<path fill="none" stroke-width="0.15" stroke-linecap="butt" stroke-linejoin="miter" stroke="rgb(60.392157%, 44.705882%, 67.45098%)" stroke-opacity="1" stroke-miterlimit="10" d="M 13.065857 3.853385 C 12.820293 3.839909 12.574794 3.826497 12.329229 3.813021 " transform="matrix(60.033912, 0, 0, -60, 1906.5, 325.5)"/>
<path fill="none" stroke-width="0.15" stroke-linecap="butt" stroke-linejoin="miter" stroke="rgb(60.392157%, 44.705882%, 67.45098%)" stroke-opacity="1" stroke-miterlimit="10" d="M 11.408461 3.7625 C 11.162961 3.749089 10.917397 3.735612 10.671898 3.722135 " transform="matrix(60.033912, 0, 0, -60, 1906.5, 325.5)"/>
<path fill="none" stroke-width="0.15" stroke-linecap="butt" stroke-linejoin="miter" stroke="rgb(60.392157%, 44.705882%, 67.45098%)" stroke-opacity="1" stroke-miterlimit="10" d="M 9.751129 3.67168 C 9.505565 3.658203 9.260066 3.644727 9.014501 3.63125 " transform="matrix(60.033912, 0, 0, -60, 1906.5, 325.5)"/>
<path fill="none" stroke-width="0.15" stroke-linecap="butt" stroke-linejoin="miter" stroke="rgb(60.392157%, 44.705882%, 67.45098%)" stroke-opacity="1" stroke-miterlimit="10" d="M 8.093733 3.580794 C 7.848233 3.567318 7.602669 3.553841 7.35717 3.540365 " transform="matrix(60.033912, 0, 0, -60, 1906.5, 325.5)"/>
<path fill="none" stroke-width="0.15" stroke-linecap="butt" stroke-linejoin="miter" stroke="rgb(60.392157%, 44.705882%, 67.45098%)" stroke-opacity="1" stroke-miterlimit="10" d="M 7.35717 3.540365 C 7.111931 3.534766 6.866692 3.529167 6.621453 3.523568 " transform="matrix(60.033912, 0, 0, -60, 1906.5, 325.5)"/>
<path fill="none" stroke-width="0.15" stroke-linecap="butt" stroke-linejoin="miter" stroke="rgb(60.392157%, 44.705882%, 67.45098%)" stroke-opacity="1" stroke-miterlimit="10" d="M 5.70179 3.502539 C 5.456551 3.49694 5.211312 3.491341 4.966073 3.485742 " transform="matrix(60.033912, 0, 0, -60, 1906.5, 325.5)"/>
<path fill="none" stroke-width="0.15" stroke-linecap="butt" stroke-linejoin="miter" stroke="rgb(60.392157%, 44.705882%, 67.45098%)" stroke-opacity="1" stroke-miterlimit="10" d="M 4.046411 3.464714 C 3.801172 3.459115 3.555933 3.453516 3.310694 3.447917 " transform="matrix(60.033912, 0, 0, -60, 1906.5, 325.5)"/>
<path fill="none" stroke-width="0.15" stroke-linecap="butt" stroke-linejoin="miter" stroke="rgb(60.392157%, 44.705882%, 67.45098%)" stroke-opacity="1" stroke-miterlimit="10" d="M 2.391096 3.426888 C 2.145857 3.421289 1.900618 3.41569 1.655379 3.410091 " transform="matrix(60.033912, 0, 0, -60, 1906.5, 325.5)"/>
<path fill="none" stroke-width="0.15" stroke-linecap="butt" stroke-linejoin="miter" stroke="rgb(60.392157%, 44.705882%, 67.45098%)" stroke-opacity="1" stroke-miterlimit="10" d="M 0.735717 3.389063 C 0.490478 3.383464 0.245239 3.377865 0 3.372266 " transform="matrix(60.033912, 0, 0, -60, 1906.5, 325.5)"/>
<path fill="none" stroke-width="0.15" stroke-linecap="butt" stroke-linejoin="miter" stroke="rgb(60.392157%, 44.705882%, 67.45098%)" stroke-opacity="1" stroke-miterlimit="10" d="M 0 3.372266 C -0.245239 3.377865 -0.490478 3.383464 -0.735717 3.389063 " transform="matrix(60.033912, 0, 0, -60, 1906.5, 325.5)"/>
<path fill="none" stroke-width="0.15" stroke-linecap="butt" stroke-linejoin="miter" stroke="rgb(60.392157%, 44.705882%, 67.45098%)" stroke-opacity="1" stroke-miterlimit="10" d="M -1.655379 3.410091 C -1.900618 3.41569 -2.145857 3.421289 -2.391096 3.426888 " transform="matrix(60.033912, 0, 0, -60, 1906.5, 325.5)"/>
<path fill="none" stroke-width="0.15" stroke-linecap="butt" stroke-linejoin="miter" stroke="rgb(60.392157%, 44.705882%, 67.45098%)" stroke-opacity="1" stroke-miterlimit="10" d="M -3.310694 3.447917 C -3.555933 3.453516 -3.801172 3.459115 -4.046411 3.464714 " transform="matrix(60.033912, 0, 0, -60, 1906.5, 325.5)"/>
<path fill="none" stroke-width="0.15" stroke-linecap="butt" stroke-linejoin="miter" stroke="rgb(60.392157%, 44.705882%, 67.45098%)" stroke-opacity="1" stroke-miterlimit="10" d="M -4.966073 3.485742 C -5.211312 3.491341 -5.456551 3.49694 -5.70179 3.502539 " transform="matrix(60.033912, 0, 0, -60, 1906.5, 325.5)"/>
<path fill="none" stroke-width="0.15" stroke-linecap="butt" stroke-linejoin="miter" stroke="rgb(60.392157%, 44.705882%, 67.45098%)" stroke-opacity="1" stroke-miterlimit="10" d="M -6.621453 3.523568 C -6.866692 3.529167 -7.111931 3.534766 -7.35717 3.540365 " transform="matrix(60.033912, 0, 0, -60, 1906.5, 325.5)"/>
<path fill="none" stroke-width="0.15" stroke-linecap="butt" stroke-linejoin="miter" stroke="rgb(60.392157%, 44.705882%, 67.45098%)" stroke-opacity="1" stroke-miterlimit="10" d="M -7.35717 3.540365 C -7.602669 3.553841 -7.848233 3.567318 -8.093733 3.580794 " transform="matrix(60.033912, 0, 0, -60, 1906.5, 325.5)"/>
<path fill="none" stroke-width="0.15" stroke-linecap="butt" stroke-linejoin="miter" stroke="rgb(60.392157%, 44.705882%, 67.45098%)" stroke-opacity="1" stroke-miterlimit="10" d="M -9.014501 3.63125 C -9.260066 3.644727 -9.505565 3.658203 -9.751129 3.67168 " transform="matrix(60.033912, 0, 0, -60, 1906.5, 325.5)"/>
<path fill="none" stroke-width="0.15" stroke-linecap="butt" stroke-linejoin="miter" stroke="rgb(60.392157%, 44.705882%, 67.45098%)" stroke-opacity="1" stroke-miterlimit="10" d="M -10.671898 3.722135 C -10.917397 3.735612 -11.162961 3.749089 -11.408461 3.7625 " transform="matrix(60.033912, 0, 0, -60, 1906.5, 325.5)"/>
<path fill="none" stroke-width="0.15" stroke-linecap="butt" stroke-linejoin="miter" stroke="rgb(60.392157%, 44.705882%, 67.45098%)" stroke-opacity="1" stroke-miterlimit="10" d="M -12.329229 3.813021 C -12.574794 3.826497 -12.820293 3.839909 -13.065857 3.853385 " transform="matrix(60.033912, 0, 0, -60, 1906.5, 325.5)"/>
<path fill="none" stroke-width="0.15" stroke-linecap="butt" stroke-linejoin="miter" stroke="rgb(60.392157%, 44.705882%, 67.45098%)" stroke-opacity="1" stroke-miterlimit="10" d="M -13.986626 3.903906 C -14.232125 3.917318 -14.47769 3.930794 -14.723189 3.944271 " transform="matrix(60.033912, 0, 0, -60, 1906.5, 325.5)"/>
<path fill="none" stroke-width="0.15" stroke-linecap="butt" stroke-linejoin="miter" stroke="rgb(60.392157%, 44.705882%, 67.45098%)" stroke-opacity="1" stroke-miterlimit="10" d="M -14.723189 3.944271 C -14.969664 3.964128 -15.216074 3.983919 -15.462485 4.003776 " transform="matrix(60.033912, 0, 0, -60, 1906.5, 325.5)"/>
<path fill="none" stroke-width="0.15" stroke-linecap="butt" stroke-linejoin="miter" stroke="rgb(60.392157%, 44.705882%, 67.45098%)" stroke-opacity="1" stroke-miterlimit="10" d="M -16.386637 4.078125 C -16.633047 4.097982 -16.879457 4.117839 -17.125867 4.13763 " transform="matrix(60.033912, 0, 0, -60, 1906.5, 325.5)"/>
<path fill="none" stroke-width="0.15" stroke-linecap="butt" stroke-linejoin="miter" stroke="rgb(60.392157%, 44.705882%, 67.45098%)" stroke-opacity="1" stroke-miterlimit="10" d="M -18.050019 4.212044 C -18.29643 4.231836 -18.54284 4.251693 -18.789315 4.271549 " transform="matrix(60.033912, 0, 0, -60, 1906.5, 325.5)"/>
<path fill="none" stroke-width="0.15" stroke-linecap="butt" stroke-linejoin="miter" stroke="rgb(60.392157%, 44.705882%, 67.45098%)" stroke-opacity="1" stroke-miterlimit="10" d="M -19.713402 4.345898 C -19.959812 4.365755 -20.206223 4.385612 -20.452698 4.405404 " transform="matrix(60.033912, 0, 0, -60, 1906.5, 325.5)"/>
<path fill="none" stroke-width="0.15" stroke-linecap="butt" stroke-linejoin="miter" stroke="rgb(60.392157%, 44.705882%, 67.45098%)" stroke-opacity="1" stroke-miterlimit="10" d="M -21.376785 4.479818 C -21.623195 4.499609 -21.86967 4.519466 -22.116081 4.539323 " transform="matrix(60.033912, 0, 0, -60, 1906.5, 325.5)"/>
<path fill="none" stroke-width="0.15" stroke-linecap="butt" stroke-linejoin="miter" stroke="rgb(60.392157%, 44.705882%, 67.45098%)" stroke-opacity="1" stroke-miterlimit="10" d="M -29.999971 -2.4 C -29.835741 -2.255404 -29.671511 -2.110872 -29.507281 -1.966276 " transform="matrix(60.033912, 0, 0, -60, 1906.5, 325.5)"/>
<path fill="none" stroke-width="0.15" stroke-linecap="butt" stroke-linejoin="miter" stroke="rgb(60.392157%, 44.705882%, 67.45098%)" stroke-opacity="1" stroke-miterlimit="10" d="M -28.944122 -1.470638 C -28.779892 -1.326042 -28.615597 -1.18151 -28.451367 -1.036914 " transform="matrix(60.033912, 0, 0, -60, 1906.5, 325.5)"/>
<path fill="none" stroke-width="0.15" stroke-linecap="butt" stroke-linejoin="miter" stroke="rgb(60.392157%, 44.705882%, 67.45098%)" stroke-opacity="1" stroke-miterlimit="10" d="M -27.888209 -0.541276 C -27.723979 -0.39668 -27.559749 -0.252148 -27.395519 -0.107552 " transform="matrix(60.033912, 0, 0, -60, 1906.5, 325.5)"/>
<path fill="none" stroke-width="0.15" stroke-linecap="butt" stroke-linejoin="miter" stroke="rgb(60.392157%, 44.705882%, 67.45098%)" stroke-opacity="1" stroke-miterlimit="10" d="M -26.83236 0.388086 C -26.66813 0.532682 -26.503835 0.677279 -26.339605 0.82181 " transform="matrix(60.033912, 0, 0, -60, 1906.5, 325.5)"/>
<path fill="none" stroke-width="0.15" stroke-linecap="butt" stroke-linejoin="miter" stroke="rgb(60.392157%, 44.705882%, 67.45098%)" stroke-opacity="1" stroke-miterlimit="10" d="M -25.776447 1.317448 C -25.612217 1.462044 -25.447987 1.606641 -25.283691 1.751172 " transform="matrix(60.033912, 0, 0, -60, 1906.5, 325.5)"/>
<path fill="none" stroke-width="0.15" stroke-linecap="butt" stroke-linejoin="miter" stroke="rgb(60.392157%, 44.705882%, 67.45098%)" stroke-opacity="1" stroke-miterlimit="10" d="M -24.720598 2.246875 C -24.556303 2.391406 -24.392073 2.536003 -24.227843 2.680534 " transform="matrix(60.033912, 0, 0, -60, 1906.5, 325.5)"/>
<path fill="none" stroke-width="0.15" stroke-linecap="butt" stroke-linejoin="miter" stroke="rgb(60.392157%, 44.705882%, 67.45098%)" stroke-opacity="1" stroke-miterlimit="10" d="M -23.664685 3.176237 C -23.500454 3.320768 -23.336224 3.465365 -23.171929 3.609896 " transform="matrix(60.033912, 0, 0, -60, 1906.5, 325.5)"/>
<path fill="none" stroke-width="0.15" stroke-linecap="butt" stroke-linejoin="miter" stroke="rgb(60.392157%, 44.705882%, 67.45098%)" stroke-opacity="1" stroke-miterlimit="10" d="M -22.608836 4.105599 C -22.444541 4.25013 -22.280311 4.394727 -22.116081 4.539323 " transform="matrix(60.033912, 0, 0, -60, 1906.5, 325.5)"/>
<path fill="none" stroke-width="0.15" stroke-linecap="butt" stroke-linejoin="miter" stroke="rgb(60.392157%, 44.705882%, 67.45098%)" stroke-opacity="1" stroke-miterlimit="10" d="M -22.528998 -2.978581 C -22.515269 -2.727995 -22.501475 -2.477344 -22.487746 -2.226758 " transform="matrix(60.033912, 0, 0, -60, 1906.5, 325.5)"/>
<path fill="none" stroke-width="0.15" stroke-linecap="butt" stroke-linejoin="miter" stroke="rgb(60.392157%, 44.705882%, 67.45098%)" stroke-opacity="1" stroke-miterlimit="10" d="M -22.436082 -1.287044 C -22.422353 -1.036458 -22.408559 -0.785872 -22.394829 -0.535286 " transform="matrix(60.033912, 0, 0, -60, 1906.5, 325.5)"/>
<path fill="none" stroke-width="0.15" stroke-linecap="butt" stroke-linejoin="miter" stroke="rgb(60.392157%, 44.705882%, 67.45098%)" stroke-opacity="1" stroke-miterlimit="10" d="M -22.343166 0.404492 C -22.329437 0.655078 -22.315642 0.905664 -22.301913 1.15625 " transform="matrix(60.033912, 0, 0, -60, 1906.5, 325.5)"/>
<path fill="none" stroke-width="0.15" stroke-linecap="butt" stroke-linejoin="miter" stroke="rgb(60.392157%, 44.705882%, 67.45098%)" stroke-opacity="1" stroke-miterlimit="10" d="M -22.25025 2.095964 C -22.23652 2.346615 -22.222726 2.597201 -22.208997 2.847786 " transform="matrix(60.033912, 0, 0, -60, 1906.5, 325.5)"/>
<path fill="none" stroke-width="0.15" stroke-linecap="butt" stroke-linejoin="miter" stroke="rgb(60.392157%, 44.705882%, 67.45098%)" stroke-opacity="1" stroke-miterlimit="10" d="M -22.157398 3.7875 C -22.143604 4.038086 -22.12981 4.288672 -22.116081 4.539323 " transform="matrix(60.033912, 0, 0, -60, 1906.5, 325.5)"/>
<path fill="none" stroke-width="0.15" stroke-linecap="butt" stroke-linejoin="miter" stroke="rgb(60.392157%, 44.705882%, 67.45098%)" stroke-opacity="1" stroke-miterlimit="10" d="M -15.058026 -3.528906 C -15.046899 -3.279818 -15.035707 -3.030729 -15.024581 -2.781641 " transform="matrix(60.033912, 0, 0, -60, 1906.5, 325.5)"/>
<path fill="none" stroke-width="0.15" stroke-linecap="butt" stroke-linejoin="miter" stroke="rgb(60.392157%, 44.705882%, 67.45098%)" stroke-opacity="1" stroke-miterlimit="10" d="M -14.982678 -1.847461 C -14.971551 -1.598372 -14.960359 -1.349219 -14.949233 -1.10013 " transform="matrix(60.033912, 0, 0, -60, 1906.5, 325.5)"/>
<path fill="none" stroke-width="0.15" stroke-linecap="butt" stroke-linejoin="miter" stroke="rgb(60.392157%, 44.705882%, 67.45098%)" stroke-opacity="1" stroke-miterlimit="10" d="M -14.907395 -0.166016 C -14.896203 0.083138 -14.885076 0.332227 -14.873885 0.581315 " transform="matrix(60.033912, 0, 0, -60, 1906.5, 325.5)"/>
<path fill="none" stroke-width="0.15" stroke-linecap="butt" stroke-linejoin="miter" stroke="rgb(60.392157%, 44.705882%, 67.45098%)" stroke-opacity="1" stroke-miterlimit="10" d="M -14.832047 1.515495 C -14.820855 1.764583 -14.809728 2.013672 -14.798537 2.262826 " transform="matrix(60.033912, 0, 0, -60, 1906.5, 325.5)"/>
<path fill="none" stroke-width="0.15" stroke-linecap="butt" stroke-linejoin="miter" stroke="rgb(60.392157%, 44.705882%, 67.45098%)" stroke-opacity="1" stroke-miterlimit="10" d="M -14.756699 3.19694 C -14.745507 3.446094 -14.73438 3.695182 -14.723189 3.944271 " transform="matrix(60.033912, 0, 0, -60, 1906.5, 325.5)"/>
<path fill="none" stroke-width="0.15" stroke-linecap="butt" stroke-linejoin="miter" stroke="rgb(60.392157%, 44.705882%, 67.45098%)" stroke-opacity="1" stroke-miterlimit="10" d="M -7.542417 -3.950651 C -7.536235 -3.700977 -7.530054 -3.451302 -7.523872 -3.201563 " transform="matrix(60.033912, 0, 0, -60, 1906.5, 325.5)"/>
<path fill="none" stroke-width="0.15" stroke-linecap="butt" stroke-linejoin="miter" stroke="rgb(60.392157%, 44.705882%, 67.45098%)" stroke-opacity="1" stroke-miterlimit="10" d="M -7.500708 -2.265169 C -7.494527 -2.015495 -7.488346 -1.765755 -7.482229 -1.516081 " transform="matrix(60.033912, 0, 0, -60, 1906.5, 325.5)"/>
<path fill="none" stroke-width="0.15" stroke-linecap="butt" stroke-linejoin="miter" stroke="rgb(60.392157%, 44.705882%, 67.45098%)" stroke-opacity="1" stroke-miterlimit="10" d="M -7.459065 -0.579688 C -7.452884 -0.330013 -7.446703 -0.0802734 -7.440521 0.169401 " transform="matrix(60.033912, 0, 0, -60, 1906.5, 325.5)"/>
<path fill="none" stroke-width="0.15" stroke-linecap="butt" stroke-linejoin="miter" stroke="rgb(60.392157%, 44.705882%, 67.45098%)" stroke-opacity="1" stroke-miterlimit="10" d="M -7.417357 1.105794 C -7.411176 1.355469 -7.404994 1.605208 -7.398813 1.854883 " transform="matrix(60.033912, 0, 0, -60, 1906.5, 325.5)"/>
<path fill="none" stroke-width="0.15" stroke-linecap="butt" stroke-linejoin="miter" stroke="rgb(60.392157%, 44.705882%, 67.45098%)" stroke-opacity="1" stroke-miterlimit="10" d="M -7.375649 2.791276 C -7.369468 3.041016 -7.363286 3.29069 -7.35717 3.540365 " transform="matrix(60.033912, 0, 0, -60, 1906.5, 325.5)"/>
<path fill="none" stroke-width="0.15" stroke-linecap="butt" stroke-linejoin="miter" stroke="rgb(60.392157%, 44.705882%, 67.45098%)" stroke-opacity="1" stroke-miterlimit="10" d="M 0 -4.127734 C 0 -3.877734 0 -3.627734 0 -3.377734 " transform="matrix(60.033912, 0, 0, -60, 1906.5, 325.5)"/>
<path fill="none" stroke-width="0.15" stroke-linecap="butt" stroke-linejoin="miter" stroke="rgb(60.392157%, 44.705882%, 67.45098%)" stroke-opacity="1" stroke-miterlimit="10" d="M 0 -2.440234 C 0 -2.190234 0 -1.940234 0 -1.690234 " transform="matrix(60.033912, 0, 0, -60, 1906.5, 325.5)"/>
<path fill="none" stroke-width="0.15" stroke-linecap="butt" stroke-linejoin="miter" stroke="rgb(60.392157%, 44.705882%, 67.45098%)" stroke-opacity="1" stroke-miterlimit="10" d="M 0 -0.752734 C 0 -0.502734 0 -0.252734 0 -0.00273438 " transform="matrix(60.033912, 0, 0, -60, 1906.5, 325.5)"/>
<path fill="none" stroke-width="0.15" stroke-linecap="butt" stroke-linejoin="miter" stroke="rgb(60.392157%, 44.705882%, 67.45098%)" stroke-opacity="1" stroke-miterlimit="10" d="M 0 0.934766 C 0 1.184766 0 1.434766 0 1.684766 " transform="matrix(60.033912, 0, 0, -60, 1906.5, 325.5)"/>
<path fill="none" stroke-width="0.15" stroke-linecap="butt" stroke-linejoin="miter" stroke="rgb(60.392157%, 44.705882%, 67.45098%)" stroke-opacity="1" stroke-miterlimit="10" d="M 0 2.622266 C 0 2.872266 0 3.122266 0 3.372266 " transform="matrix(60.033912, 0, 0, -60, 1906.5, 325.5)"/>
<path fill="none" stroke-width="0.15" stroke-linecap="butt" stroke-linejoin="miter" stroke="rgb(60.392157%, 44.705882%, 67.45098%)" stroke-opacity="1" stroke-miterlimit="10" d="M 7.542417 -3.950651 C 7.536235 -3.700977 7.530054 -3.451302 7.523872 -3.201563 " transform="matrix(60.033912, 0, 0, -60, 1906.5, 325.5)"/>
<path fill="none" stroke-width="0.15" stroke-linecap="butt" stroke-linejoin="miter" stroke="rgb(60.392157%, 44.705882%, 67.45098%)" stroke-opacity="1" stroke-miterlimit="10" d="M 7.500708 -2.265169 C 7.494527 -2.015495 7.488346 -1.765755 7.482229 -1.516081 " transform="matrix(60.033912, 0, 0, -60, 1906.5, 325.5)"/>
<path fill="none" stroke-width="0.15" stroke-linecap="butt" stroke-linejoin="miter" stroke="rgb(60.392157%, 44.705882%, 67.45098%)" stroke-opacity="1" stroke-miterlimit="10" d="M 7.459065 -0.579688 C 7.452884 -0.330013 7.446703 -0.0802734 7.440521 0.169401 " transform="matrix(60.033912, 0, 0, -60, 1906.5, 325.5)"/>
<path fill="none" stroke-width="0.15" stroke-linecap="butt" stroke-linejoin="miter" stroke="rgb(60.392157%, 44.705882%, 67.45098%)" stroke-opacity="1" stroke-miterlimit="10" d="M 7.417357 1.105794 C 7.411176 1.355469 7.404994 1.605208 7.398813 1.854883 " transform="matrix(60.033912, 0, 0, -60, 1906.5, 325.5)"/>
<path fill="none" stroke-width="0.15" stroke-linecap="butt" stroke-linejoin="miter" stroke="rgb(60.392157%, 44.705882%, 67.45098%)" stroke-opacity="1" stroke-miterlimit="10" d="M 7.375649 2.791276 C 7.369468 3.041016 7.363286 3.29069 7.35717 3.540365 " transform="matrix(60.033912, 0, 0, -60, 1906.5, 325.5)"/>
<path fill="none" stroke-width="0.15" stroke-linecap="butt" stroke-linejoin="miter" stroke="rgb(60.392157%, 44.705882%, 67.45098%)" stroke-opacity="1" stroke-miterlimit="10" d="M 15.058026 -3.528906 C 15.046899 -3.279818 15.035707 -3.030729 15.024581 -2.781641 " transform="matrix(60.033912, 0, 0, -60, 1906.5, 325.5)"/>
<path fill="none" stroke-width="0.15" stroke-linecap="butt" stroke-linejoin="miter" stroke="rgb(60.392157%, 44.705882%, 67.45098%)" stroke-opacity="1" stroke-miterlimit="10" d="M 14.982678 -1.847461 C 14.971551 -1.598372 14.960359 -1.349219 14.949233 -1.10013 " transform="matrix(60.033912, 0, 0, -60, 1906.5, 325.5)"/>
<path fill="none" stroke-width="0.15" stroke-linecap="butt" stroke-linejoin="miter" stroke="rgb(60.392157%, 44.705882%, 67.45098%)" stroke-opacity="1" stroke-miterlimit="10" d="M 14.907395 -0.166016 C 14.896203 0.083138 14.885076 0.332227 14.873885 0.581315 " transform="matrix(60.033912, 0, 0, -60, 1906.5, 325.5)"/>
<path fill="none" stroke-width="0.15" stroke-linecap="butt" stroke-linejoin="miter" stroke="rgb(60.392157%, 44.705882%, 67.45098%)" stroke-opacity="1" stroke-miterlimit="10" d="M 14.832047 1.515495 C 14.820855 1.764583 14.809728 2.013672 14.798537 2.262826 " transform="matrix(60.033912, 0, 0, -60, 1906.5, 325.5)"/>
<path fill="none" stroke-width="0.15" stroke-linecap="butt" stroke-linejoin="miter" stroke="rgb(60.392157%, 44.705882%, 67.45098%)" stroke-opacity="1" stroke-miterlimit="10" d="M 14.756699 3.19694 C 14.745507 3.446094 14.73438 3.695182 14.723189 3.944271 " transform="matrix(60.033912, 0, 0, -60, 1906.5, 325.5)"/>
<path fill="none" stroke-width="0.15" stroke-linecap="butt" stroke-linejoin="miter" stroke="rgb(60.392157%, 44.705882%, 67.45098%)" stroke-opacity="1" stroke-miterlimit="10" d="M 22.528998 -2.978581 C 22.515269 -2.727995 22.501475 -2.477344 22.487746 -2.226758 " transform="matrix(60.033912, 0, 0, -60, 1906.5, 325.5)"/>
<path fill="none" stroke-width="0.15" stroke-linecap="butt" stroke-linejoin="miter" stroke="rgb(60.392157%, 44.705882%, 67.45098%)" stroke-opacity="1" stroke-miterlimit="10" d="M 22.436082 -1.287044 C 22.422353 -1.036458 22.408559 -0.785872 22.394829 -0.535286 " transform="matrix(60.033912, 0, 0, -60, 1906.5, 325.5)"/>
<path fill="none" stroke-width="0.15" stroke-linecap="butt" stroke-linejoin="miter" stroke="rgb(60.392157%, 44.705882%, 67.45098%)" stroke-opacity="1" stroke-miterlimit="10" d="M 22.343166 0.404492 C 22.329437 0.655078 22.315642 0.905664 22.301913 1.15625 " transform="matrix(60.033912, 0, 0, -60, 1906.5, 325.5)"/>
<path fill="none" stroke-width="0.15" stroke-linecap="butt" stroke-linejoin="miter" stroke="rgb(60.392157%, 44.705882%, 67.45098%)" stroke-opacity="1" stroke-miterlimit="10" d="M 22.25025 2.095964 C 22.23652 2.346615 22.222726 2.597201 22.208997 2.847786 " transform="matrix(60.033912, 0, 0, -60, 1906.5, 325.5)"/>
<path fill="none" stroke-width="0.15" stroke-linecap="butt" stroke-linejoin="miter" stroke="rgb(60.392157%, 44.705882%, 67.45098%)" stroke-opacity="1" stroke-miterlimit="10" d="M 22.157398 3.7875 C 22.143604 4.038086 22.12981 4.288672 22.116081 4.539323 " transform="matrix(60.033912, 0, 0, -60, 1906.5, 325.5)"/>
<path fill="none" stroke-width="0.15" stroke-linecap="butt" stroke-linejoin="miter" stroke="rgb(60.392157%, 44.705882%, 67.45098%)" stroke-opacity="1" stroke-miterlimit="10" d="M -15.058026 -3.528906 C -15.205078 -3.360872 -15.35213 -3.192773 -15.499183 -3.024674 " transform="matrix(60.033912, 0, 0, -60, 1906.5, 325.5)"/>
<path fill="none" stroke-width="0.15" stroke-linecap="butt" stroke-linejoin="miter" stroke="rgb(60.392157%, 44.705882%, 67.45098%)" stroke-opacity="1" stroke-miterlimit="10" d="M -16.003325 -2.448372 C -16.150377 -2.280273 -16.297364 -2.112174 -16.444416 -1.944076 " transform="matrix(60.033912, 0, 0, -60, 1906.5, 325.5)"/>
<path fill="none" stroke-width="0.15" stroke-linecap="butt" stroke-linejoin="miter" stroke="rgb(60.392157%, 44.705882%, 67.45098%)" stroke-opacity="1" stroke-miterlimit="10" d="M -16.948559 -1.367773 C -17.095611 -1.19974 -17.242663 -1.031641 -17.389716 -0.863542 " transform="matrix(60.033912, 0, 0, -60, 1906.5, 325.5)"/>
<path fill="none" stroke-width="0.15" stroke-linecap="butt" stroke-linejoin="miter" stroke="rgb(60.392157%, 44.705882%, 67.45098%)" stroke-opacity="1" stroke-miterlimit="10" d="M -17.893858 -0.28724 C -18.04091 -0.119141 -18.187962 0.0489583 -18.33495 0.217057 " transform="matrix(60.033912, 0, 0, -60, 1906.5, 325.5)"/>
<path fill="none" stroke-width="0.15" stroke-linecap="butt" stroke-linejoin="miter" stroke="rgb(60.392157%, 44.705882%, 67.45098%)" stroke-opacity="1" stroke-miterlimit="10" d="M -18.839157 0.793359 C -18.986144 0.961393 -19.133196 1.129492 -19.280249 1.297591 " transform="matrix(60.033912, 0, 0, -60, 1906.5, 325.5)"/>
<path fill="none" stroke-width="0.15" stroke-linecap="butt" stroke-linejoin="miter" stroke="rgb(60.392157%, 44.705882%, 67.45098%)" stroke-opacity="1" stroke-miterlimit="10" d="M -19.784391 1.873893 C -19.931443 2.041992 -20.078495 2.210091 -20.225548 2.37819 " transform="matrix(60.033912, 0, 0, -60, 1906.5, 325.5)"/>
<path fill="none" stroke-width="0.15" stroke-linecap="butt" stroke-linejoin="miter" stroke="rgb(60.392157%, 44.705882%, 67.45098%)" stroke-opacity="1" stroke-miterlimit="10" d="M -20.72969 2.954492 C -20.876742 3.122526 -21.023729 3.290625 -21.170782 3.458724 " transform="matrix(60.033912, 0, 0, -60, 1906.5, 325.5)"/>
<path fill="none" stroke-width="0.15" stroke-linecap="butt" stroke-linejoin="miter" stroke="rgb(60.392157%, 44.705882%, 67.45098%)" stroke-opacity="1" stroke-miterlimit="10" d="M -21.674924 4.035026 C -21.821976 4.203125 -21.969028 4.371224 -22.116081 4.539323 " transform="matrix(60.033912, 0, 0, -60, 1906.5, 325.5)"/>
<path fill="none" stroke-width="0.15" stroke-linecap="butt" stroke-linejoin="miter" stroke="rgb(60.392157%, 44.705882%, 67.45098%)" stroke-opacity="1" stroke-miterlimit="10" d="M -7.542417 -3.950651 C -7.692007 -3.786198 -7.841597 -3.621745 -7.991186 -3.457227 " transform="matrix(60.033912, 0, 0, -60, 1906.5, 325.5)"/>
<path fill="none" stroke-width="0.15" stroke-linecap="butt" stroke-linejoin="miter" stroke="rgb(60.392157%, 44.705882%, 67.45098%)" stroke-opacity="1" stroke-miterlimit="10" d="M -8.504113 -2.893294 C -8.653703 -2.728841 -8.803358 -2.564388 -8.952948 -2.39987 " transform="matrix(60.033912, 0, 0, -60, 1906.5, 325.5)"/>
<path fill="none" stroke-width="0.15" stroke-linecap="butt" stroke-linejoin="miter" stroke="rgb(60.392157%, 44.705882%, 67.45098%)" stroke-opacity="1" stroke-miterlimit="10" d="M -9.465809 -1.835938 C -9.615464 -1.671484 -9.765054 -1.507031 -9.914644 -1.342513 " transform="matrix(60.033912, 0, 0, -60, 1906.5, 325.5)"/>
<path fill="none" stroke-width="0.15" stroke-linecap="butt" stroke-linejoin="miter" stroke="rgb(60.392157%, 44.705882%, 67.45098%)" stroke-opacity="1" stroke-miterlimit="10" d="M -10.42757 -0.778581 C -10.57716 -0.614128 -10.72675 -0.449674 -10.87634 -0.285156 " transform="matrix(60.033912, 0, 0, -60, 1906.5, 325.5)"/>
<path fill="none" stroke-width="0.15" stroke-linecap="butt" stroke-linejoin="miter" stroke="rgb(60.392157%, 44.705882%, 67.45098%)" stroke-opacity="1" stroke-miterlimit="10" d="M -11.389266 0.278776 C -11.538856 0.443229 -11.688446 0.607747 -11.838101 0.772201 " transform="matrix(60.033912, 0, 0, -60, 1906.5, 325.5)"/>
<path fill="none" stroke-width="0.15" stroke-linecap="butt" stroke-linejoin="miter" stroke="rgb(60.392157%, 44.705882%, 67.45098%)" stroke-opacity="1" stroke-miterlimit="10" d="M -12.350962 1.336133 C -12.500617 1.500586 -12.650207 1.665104 -12.799797 1.829557 " transform="matrix(60.033912, 0, 0, -60, 1906.5, 325.5)"/>
<path fill="none" stroke-width="0.15" stroke-linecap="butt" stroke-linejoin="miter" stroke="rgb(60.392157%, 44.705882%, 67.45098%)" stroke-opacity="1" stroke-miterlimit="10" d="M -13.312723 2.39349 C -13.462313 2.557943 -13.611903 2.722461 -13.761493 2.886914 " transform="matrix(60.033912, 0, 0, -60, 1906.5, 325.5)"/>
<path fill="none" stroke-width="0.15" stroke-linecap="butt" stroke-linejoin="miter" stroke="rgb(60.392157%, 44.705882%, 67.45098%)" stroke-opacity="1" stroke-miterlimit="10" d="M -14.274419 3.450846 C -14.424009 3.615299 -14.573599 3.779818 -14.723189 3.944271 " transform="matrix(60.033912, 0, 0, -60, 1906.5, 325.5)"/>
<path fill="none" stroke-width="0.15" stroke-linecap="butt" stroke-linejoin="miter" stroke="rgb(60.392157%, 44.705882%, 67.45098%)" stroke-opacity="1" stroke-miterlimit="10" d="M 0 -4.127734 C -0.153299 -3.967969 -0.306532 -3.808203 -0.459831 -3.648438 " transform="matrix(60.033912, 0, 0, -60, 1906.5, 325.5)"/>
<path fill="none" stroke-width="0.15" stroke-linecap="butt" stroke-linejoin="miter" stroke="rgb(60.392157%, 44.705882%, 67.45098%)" stroke-opacity="1" stroke-miterlimit="10" d="M -0.985315 -3.100716 C -1.138614 -2.941016 -1.291848 -2.78125 -1.445147 -2.621484 " transform="matrix(60.033912, 0, 0, -60, 1906.5, 325.5)"/>
<path fill="none" stroke-width="0.15" stroke-linecap="butt" stroke-linejoin="miter" stroke="rgb(60.392157%, 44.705882%, 67.45098%)" stroke-opacity="1" stroke-miterlimit="10" d="M -1.970631 -2.073763 C -2.12393 -1.913997 -2.277229 -1.754232 -2.430462 -1.594531 " transform="matrix(60.033912, 0, 0, -60, 1906.5, 325.5)"/>
<path fill="none" stroke-width="0.15" stroke-linecap="butt" stroke-linejoin="miter" stroke="rgb(60.392157%, 44.705882%, 67.45098%)" stroke-opacity="1" stroke-miterlimit="10" d="M -2.956012 -1.04681 C -3.109245 -0.887044 -3.262544 -0.727279 -3.415843 -0.567513 " transform="matrix(60.033912, 0, 0, -60, 1906.5, 325.5)"/>
<path fill="none" stroke-width="0.15" stroke-linecap="butt" stroke-linejoin="miter" stroke="rgb(60.392157%, 44.705882%, 67.45098%)" stroke-opacity="1" stroke-miterlimit="10" d="M -3.941327 -0.0197917 C -4.094626 0.139974 -4.24786 0.299674 -4.401158 0.45944 " transform="matrix(60.033912, 0, 0, -60, 1906.5, 325.5)"/>
<path fill="none" stroke-width="0.15" stroke-linecap="butt" stroke-linejoin="miter" stroke="rgb(60.392157%, 44.705882%, 67.45098%)" stroke-opacity="1" stroke-miterlimit="10" d="M -4.926643 1.007161 C -5.079941 1.166927 -5.233175 1.326693 -5.386474 1.486458 " transform="matrix(60.033912, 0, 0, -60, 1906.5, 325.5)"/>
<path fill="none" stroke-width="0.15" stroke-linecap="butt" stroke-linejoin="miter" stroke="rgb(60.392157%, 44.705882%, 67.45098%)" stroke-opacity="1" stroke-miterlimit="10" d="M -5.911958 2.03418 C -6.065257 2.19388 -6.218556 2.353646 -6.371789 2.513411 " transform="matrix(60.033912, 0, 0, -60, 1906.5, 325.5)"/>
<path fill="none" stroke-width="0.15" stroke-linecap="butt" stroke-linejoin="miter" stroke="rgb(60.392157%, 44.705882%, 67.45098%)" stroke-opacity="1" stroke-miterlimit="10" d="M -6.897339 3.061133 C -7.050572 3.220898 -7.203871 3.380664 -7.35717 3.540365 " transform="matrix(60.033912, 0, 0, -60, 1906.5, 325.5)"/>
<path fill="none" stroke-width="0.15" stroke-linecap="butt" stroke-linejoin="miter" stroke="rgb(60.392157%, 44.705882%, 67.45098%)" stroke-opacity="1" stroke-miterlimit="10" d="M 0 -4.127734 C 0.153299 -3.967969 0.306532 -3.808203 0.459831 -3.648438 " transform="matrix(60.033912, 0, 0, -60, 1906.5, 325.5)"/>
<path fill="none" stroke-width="0.15" stroke-linecap="butt" stroke-linejoin="miter" stroke="rgb(60.392157%, 44.705882%, 67.45098%)" stroke-opacity="1" stroke-miterlimit="10" d="M 0.985315 -3.100716 C 1.138614 -2.941016 1.291848 -2.78125 1.445147 -2.621484 " transform="matrix(60.033912, 0, 0, -60, 1906.5, 325.5)"/>
<path fill="none" stroke-width="0.15" stroke-linecap="butt" stroke-linejoin="miter" stroke="rgb(60.392157%, 44.705882%, 67.45098%)" stroke-opacity="1" stroke-miterlimit="10" d="M 1.970631 -2.073763 C 2.12393 -1.913997 2.277229 -1.754232 2.430462 -1.594531 " transform="matrix(60.033912, 0, 0, -60, 1906.5, 325.5)"/>
<path fill="none" stroke-width="0.15" stroke-linecap="butt" stroke-linejoin="miter" stroke="rgb(60.392157%, 44.705882%, 67.45098%)" stroke-opacity="1" stroke-miterlimit="10" d="M 2.956012 -1.04681 C 3.109245 -0.887044 3.262544 -0.727279 3.415843 -0.567513 " transform="matrix(60.033912, 0, 0, -60, 1906.5, 325.5)"/>
<path fill="none" stroke-width="0.15" stroke-linecap="butt" stroke-linejoin="miter" stroke="rgb(60.392157%, 44.705882%, 67.45098%)" stroke-opacity="1" stroke-miterlimit="10" d="M 3.941327 -0.0197917 C 4.094626 0.139974 4.24786 0.299674 4.401158 0.45944 " transform="matrix(60.033912, 0, 0, -60, 1906.5, 325.5)"/>
<path fill="none" stroke-width="0.15" stroke-linecap="butt" stroke-linejoin="miter" stroke="rgb(60.392157%, 44.705882%, 67.45098%)" stroke-opacity="1" stroke-miterlimit="10" d="M 4.926643 1.007161 C 5.079941 1.166927 5.233175 1.326693 5.386474 1.486458 " transform="matrix(60.033912, 0, 0, -60, 1906.5, 325.5)"/>
<path fill="none" stroke-width="0.15" stroke-linecap="butt" stroke-linejoin="miter" stroke="rgb(60.392157%, 44.705882%, 67.45098%)" stroke-opacity="1" stroke-miterlimit="10" d="M 5.911958 2.03418 C 6.065257 2.19388 6.218556 2.353646 6.371789 2.513411 " transform="matrix(60.033912, 0, 0, -60, 1906.5, 325.5)"/>
<path fill="none" stroke-width="0.15" stroke-linecap="butt" stroke-linejoin="miter" stroke="rgb(60.392157%, 44.705882%, 67.45098%)" stroke-opacity="1" stroke-miterlimit="10" d="M 6.897339 3.061133 C 7.050572 3.220898 7.203871 3.380664 7.35717 3.540365 " transform="matrix(60.033912, 0, 0, -60, 1906.5, 325.5)"/>
<path fill="none" stroke-width="0.15" stroke-linecap="butt" stroke-linejoin="miter" stroke="rgb(60.392157%, 44.705882%, 67.45098%)" stroke-opacity="1" stroke-miterlimit="10" d="M 7.542417 -3.950651 C 7.692007 -3.786198 7.841597 -3.621745 7.991186 -3.457227 " transform="matrix(60.033912, 0, 0, -60, 1906.5, 325.5)"/>
<path fill="none" stroke-width="0.15" stroke-linecap="butt" stroke-linejoin="miter" stroke="rgb(60.392157%, 44.705882%, 67.45098%)" stroke-opacity="1" stroke-miterlimit="10" d="M 8.504113 -2.893294 C 8.653703 -2.728841 8.803358 -2.564388 8.952948 -2.39987 " transform="matrix(60.033912, 0, 0, -60, 1906.5, 325.5)"/>
<path fill="none" stroke-width="0.15" stroke-linecap="butt" stroke-linejoin="miter" stroke="rgb(60.392157%, 44.705882%, 67.45098%)" stroke-opacity="1" stroke-miterlimit="10" d="M 9.465809 -1.835938 C 9.615464 -1.671484 9.765054 -1.507031 9.914644 -1.342513 " transform="matrix(60.033912, 0, 0, -60, 1906.5, 325.5)"/>
<path fill="none" stroke-width="0.15" stroke-linecap="butt" stroke-linejoin="miter" stroke="rgb(60.392157%, 44.705882%, 67.45098%)" stroke-opacity="1" stroke-miterlimit="10" d="M 10.42757 -0.778581 C 10.57716 -0.614128 10.72675 -0.449674 10.87634 -0.285156 " transform="matrix(60.033912, 0, 0, -60, 1906.5, 325.5)"/>
<path fill="none" stroke-width="0.15" stroke-linecap="butt" stroke-linejoin="miter" stroke="rgb(60.392157%, 44.705882%, 67.45098%)" stroke-opacity="1" stroke-miterlimit="10" d="M 11.389266 0.278776 C 11.538856 0.443229 11.688446 0.607747 11.838101 0.772201 " transform="matrix(60.033912, 0, 0, -60, 1906.5, 325.5)"/>
<path fill="none" stroke-width="0.15" stroke-linecap="butt" stroke-linejoin="miter" stroke="rgb(60.392157%, 44.705882%, 67.45098%)" stroke-opacity="1" stroke-miterlimit="10" d="M 12.350962 1.336133 C 12.500617 1.500586 12.650207 1.665104 12.799797 1.829557 " transform="matrix(60.033912, 0, 0, -60, 1906.5, 325.5)"/>
<path fill="none" stroke-width="0.15" stroke-linecap="butt" stroke-linejoin="miter" stroke="rgb(60.392157%, 44.705882%, 67.45098%)" stroke-opacity="1" stroke-miterlimit="10" d="M 13.312723 2.39349 C 13.462313 2.557943 13.611903 2.722461 13.761493 2.886914 " transform="matrix(60.033912, 0, 0, -60, 1906.5, 325.5)"/>
<path fill="none" stroke-width="0.15" stroke-linecap="butt" stroke-linejoin="miter" stroke="rgb(60.392157%, 44.705882%, 67.45098%)" stroke-opacity="1" stroke-miterlimit="10" d="M 14.274419 3.450846 C 14.424009 3.615299 14.573599 3.779818 14.723189 3.944271 " transform="matrix(60.033912, 0, 0, -60, 1906.5, 325.5)"/>
<path fill="none" stroke-width="0.15" stroke-linecap="butt" stroke-linejoin="miter" stroke="rgb(60.392157%, 44.705882%, 67.45098%)" stroke-opacity="1" stroke-miterlimit="10" d="M 15.058026 -3.528906 C 15.205078 -3.360872 15.35213 -3.192773 15.499183 -3.024674 " transform="matrix(60.033912, 0, 0, -60, 1906.5, 325.5)"/>
<path fill="none" stroke-width="0.15" stroke-linecap="butt" stroke-linejoin="miter" stroke="rgb(60.392157%, 44.705882%, 67.45098%)" stroke-opacity="1" stroke-miterlimit="10" d="M 16.003325 -2.448372 C 16.150377 -2.280273 16.297364 -2.112174 16.444416 -1.944076 " transform="matrix(60.033912, 0, 0, -60, 1906.5, 325.5)"/>
<path fill="none" stroke-width="0.15" stroke-linecap="butt" stroke-linejoin="miter" stroke="rgb(60.392157%, 44.705882%, 67.45098%)" stroke-opacity="1" stroke-miterlimit="10" d="M 16.948559 -1.367773 C 17.095611 -1.19974 17.242663 -1.031641 17.389716 -0.863542 " transform="matrix(60.033912, 0, 0, -60, 1906.5, 325.5)"/>
<path fill="none" stroke-width="0.15" stroke-linecap="butt" stroke-linejoin="miter" stroke="rgb(60.392157%, 44.705882%, 67.45098%)" stroke-opacity="1" stroke-miterlimit="10" d="M 17.893858 -0.28724 C 18.04091 -0.119141 18.187962 0.0489583 18.33495 0.217057 " transform="matrix(60.033912, 0, 0, -60, 1906.5, 325.5)"/>
<path fill="none" stroke-width="0.15" stroke-linecap="butt" stroke-linejoin="miter" stroke="rgb(60.392157%, 44.705882%, 67.45098%)" stroke-opacity="1" stroke-miterlimit="10" d="M 18.839157 0.793359 C 18.986144 0.961393 19.133196 1.129492 19.280249 1.297591 " transform="matrix(60.033912, 0, 0, -60, 1906.5, 325.5)"/>
<path fill="none" stroke-width="0.15" stroke-linecap="butt" stroke-linejoin="miter" stroke="rgb(60.392157%, 44.705882%, 67.45098%)" stroke-opacity="1" stroke-miterlimit="10" d="M 19.784391 1.873893 C 19.931443 2.041992 20.078495 2.210091 20.225548 2.37819 " transform="matrix(60.033912, 0, 0, -60, 1906.5, 325.5)"/>
<path fill="none" stroke-width="0.15" stroke-linecap="butt" stroke-linejoin="miter" stroke="rgb(60.392157%, 44.705882%, 67.45098%)" stroke-opacity="1" stroke-miterlimit="10" d="M 20.72969 2.954492 C 20.876742 3.122526 21.023729 3.290625 21.170782 3.458724 " transform="matrix(60.033912, 0, 0, -60, 1906.5, 325.5)"/>
<path fill="none" stroke-width="0.15" stroke-linecap="butt" stroke-linejoin="miter" stroke="rgb(60.392157%, 44.705882%, 67.45098%)" stroke-opacity="1" stroke-miterlimit="10" d="M 21.674924 4.035026 C 21.821976 4.203125 21.969028 4.371224 22.116081 4.539323 " transform="matrix(60.033912, 0, 0, -60, 1906.5, 325.5)"/>
<path fill-rule="nonzero" fill="rgb(60.392157%, 44.705882%, 67.45098%)" fill-opacity="1" d="M 108.484375 469.5 C 108.484375 468.703125 108.167969 467.941406 107.605469 467.378906 C 107.042969 466.816406 106.277344 466.5 105.484375 466.5 C 104.6875 466.5 103.921875 466.816406 103.359375 467.378906 C 102.796875 467.941406 102.480469 468.703125 102.480469 469.5 C 102.480469 470.296875 102.796875 471.058594 103.359375 471.621094 C 103.921875 472.183594 104.6875 472.5 105.484375 472.5 C 106.277344 472.5 107.042969 472.183594 107.605469 471.621094 C 108.167969 471.058594 108.484375 470.296875 108.484375 469.5 Z M 108.484375 469.5 "/>
<path fill-rule="nonzero" fill="rgb(60.392157%, 44.705882%, 67.45098%)" fill-opacity="1" d="M 556.996094 504.214844 C 556.996094 503.417969 556.679688 502.65625 556.117188 502.09375 C 555.554688 501.53125 554.792969 501.214844 553.996094 501.214844 C 553.199219 501.214844 552.433594 501.53125 551.871094 502.09375 C 551.308594 502.65625 550.992188 503.417969 550.992188 504.214844 C 550.992188 505.007812 551.308594 505.773438 551.871094 506.335938 C 552.433594 506.898438 553.199219 507.214844 553.996094 507.214844 C 554.792969 507.214844 555.554688 506.898438 556.117188 506.335938 C 556.679688 505.773438 556.996094 505.007812 556.996094 504.214844 Z M 556.996094 504.214844 "/>
<path fill-rule="nonzero" fill="rgb(60.392157%, 44.705882%, 67.45098%)" fill-opacity="1" d="M 1005.507812 537.234375 C 1005.507812 536.441406 1005.191406 535.675781 1004.628906 535.113281 C 1004.066406 534.550781 1003.304688 534.234375 1002.507812 534.234375 C 1001.710938 534.234375 1000.949219 534.550781 1000.382812 535.113281 C 999.820312 535.675781 999.503906 536.441406 999.503906 537.234375 C 999.503906 538.03125 999.820312 538.796875 1000.382812 539.359375 C 1000.949219 539.921875 1001.710938 540.234375 1002.507812 540.234375 C 1003.304688 540.234375 1004.066406 539.921875 1004.628906 539.359375 C 1005.191406 538.796875 1005.507812 538.03125 1005.507812 537.234375 Z M 1005.507812 537.234375 "/>
<path fill-rule="nonzero" fill="rgb(60.392157%, 44.705882%, 67.45098%)" fill-opacity="1" d="M 1456.703125 562.539062 C 1456.703125 561.746094 1456.386719 560.980469 1455.820312 560.417969 C 1455.257812 559.855469 1454.496094 559.539062 1453.699219 559.539062 C 1452.902344 559.539062 1452.140625 559.855469 1451.578125 560.417969 C 1451.015625 560.980469 1450.699219 561.746094 1450.699219 562.539062 C 1450.699219 563.335938 1451.015625 564.101562 1451.578125 564.664062 C 1452.140625 565.226562 1452.902344 565.539062 1453.699219 565.539062 C 1454.496094 565.539062 1455.257812 565.226562 1455.820312 564.664062 C 1456.386719 564.101562 1456.703125 563.335938 1456.703125 562.539062 Z M 1456.703125 562.539062 "/>
<path fill-rule="nonzero" fill="rgb(60.392157%, 44.705882%, 67.45098%)" fill-opacity="1" d="M 1909.5 573.164062 C 1909.5 572.367188 1909.183594 571.605469 1908.621094 571.042969 C 1908.058594 570.480469 1907.296875 570.164062 1906.5 570.164062 C 1905.703125 570.164062 1904.941406 570.480469 1904.378906 571.042969 C 1903.816406 571.605469 1903.5 572.367188 1903.5 573.164062 C 1903.5 573.957031 1903.816406 574.722656 1904.378906 575.285156 C 1904.941406 575.847656 1905.703125 576.164062 1906.5 576.164062 C 1907.296875 576.164062 1908.058594 575.847656 1908.621094 575.285156 C 1909.183594 574.722656 1909.5 573.957031 1909.5 573.164062 Z M 1909.5 573.164062 "/>
<path fill-rule="nonzero" fill="rgb(60.392157%, 44.705882%, 67.45098%)" fill-opacity="1" d="M 2362.300781 562.539062 C 2362.300781 561.746094 2361.984375 560.980469 2361.421875 560.417969 C 2360.859375 559.855469 2360.097656 559.539062 2359.300781 559.539062 C 2358.503906 559.539062 2357.742188 559.855469 2357.179688 560.417969 C 2356.613281 560.980469 2356.296875 561.746094 2356.296875 562.539062 C 2356.296875 563.335938 2356.613281 564.101562 2357.179688 564.664062 C 2357.742188 565.226562 2358.503906 565.539062 2359.300781 565.539062 C 2360.097656 565.539062 2360.859375 565.226562 2361.421875 564.664062 C 2361.984375 564.101562 2362.300781 563.335938 2362.300781 562.539062 Z M 2362.300781 562.539062 "/>
<path fill-rule="nonzero" fill="rgb(60.392157%, 44.705882%, 67.45098%)" fill-opacity="1" d="M 2813.496094 537.234375 C 2813.496094 536.441406 2813.179688 535.675781 2812.617188 535.113281 C 2812.050781 534.550781 2811.289062 534.234375 2810.492188 534.234375 C 2809.695312 534.234375 2808.933594 534.550781 2808.371094 535.113281 C 2807.808594 535.675781 2807.492188 536.441406 2807.492188 537.234375 C 2807.492188 538.03125 2807.808594 538.796875 2808.371094 539.359375 C 2808.933594 539.921875 2809.695312 540.234375 2810.492188 540.234375 C 2811.289062 540.234375 2812.050781 539.921875 2812.617188 539.359375 C 2813.179688 538.796875 2813.496094 538.03125 2813.496094 537.234375 Z M 2813.496094 537.234375 "/>
<path fill-rule="nonzero" fill="rgb(60.392157%, 44.705882%, 67.45098%)" fill-opacity="1" d="M 3262.007812 504.214844 C 3262.007812 503.417969 3261.691406 502.65625 3261.128906 502.09375 C 3260.566406 501.53125 3259.800781 501.214844 3259.003906 501.214844 C 3258.207031 501.214844 3257.445312 501.53125 3256.882812 502.09375 C 3256.320312 502.65625 3256.003906 503.417969 3256.003906 504.214844 C 3256.003906 505.007812 3256.320312 505.773438 3256.882812 506.335938 C 3257.445312 506.898438 3258.207031 507.214844 3259.003906 507.214844 C 3259.800781 507.214844 3260.566406 506.898438 3261.128906 506.335938 C 3261.691406 505.773438 3262.007812 505.007812 3262.007812 504.214844 Z M 3262.007812 504.214844 "/>
<path fill-rule="nonzero" fill="rgb(60.392157%, 44.705882%, 67.45098%)" fill-opacity="1" d="M 3710.519531 469.5 C 3710.519531 468.703125 3710.203125 467.941406 3709.640625 467.378906 C 3709.078125 466.816406 3708.3125 466.5 3707.515625 466.5 C 3706.722656 466.5 3705.957031 466.816406 3705.394531 467.378906 C 3704.832031 467.941406 3704.515625 468.703125 3704.515625 469.5 C 3704.515625 470.296875 3704.832031 471.058594 3705.394531 471.621094 C 3705.957031 472.183594 3706.722656 472.5 3707.515625 472.5 C 3708.3125 472.5 3709.078125 472.183594 3709.640625 471.621094 C 3710.203125 471.058594 3710.519531 470.296875 3710.519531 469.5 Z M 3710.519531 469.5 "/>
<path fill-rule="nonzero" fill="rgb(60.392157%, 44.705882%, 67.45098%)" fill-opacity="1" d="M 3237.214844 53.140625 C 3237.214844 52.347656 3236.898438 51.582031 3236.335938 51.019531 C 3235.773438 50.457031 3235.011719 50.140625 3234.214844 50.140625 C 3233.417969 50.140625 3232.65625 50.457031 3232.089844 51.019531 C 3231.527344 51.582031 3231.210938 52.347656 3231.210938 53.140625 C 3231.210938 53.9375 3231.527344 54.699219 3232.089844 55.261719 C 3232.65625 55.828125 3233.417969 56.140625 3234.214844 56.140625 C 3235.011719 56.140625 3235.773438 55.828125 3236.335938 55.261719 C 3236.898438 54.699219 3237.214844 53.9375 3237.214844 53.140625 Z M 3237.214844 53.140625 "/>
<path fill-rule="nonzero" fill="rgb(60.392157%, 44.705882%, 67.45098%)" fill-opacity="1" d="M 2793.394531 88.84375 C 2793.394531 88.046875 2793.078125 87.285156 2792.515625 86.722656 C 2791.953125 86.160156 2791.1875 85.84375 2790.390625 85.84375 C 2789.597656 85.84375 2788.832031 86.160156 2788.269531 86.722656 C 2787.707031 87.285156 2787.390625 88.046875 2787.390625 88.84375 C 2787.390625 89.640625 2787.707031 90.402344 2788.269531 90.964844 C 2788.832031 91.527344 2789.597656 91.84375 2790.390625 91.84375 C 2791.1875 91.84375 2791.953125 91.527344 2792.515625 90.964844 C 2793.078125 90.402344 2793.394531 89.640625 2793.394531 88.84375 Z M 2793.394531 88.84375 "/>
<path fill-rule="nonzero" fill="rgb(60.392157%, 44.705882%, 67.45098%)" fill-opacity="1" d="M 2351.179688 113.078125 C 2351.179688 112.28125 2350.863281 111.519531 2350.300781 110.957031 C 2349.738281 110.394531 2348.972656 110.078125 2348.179688 110.078125 C 2347.382812 110.078125 2346.617188 110.394531 2346.054688 110.957031 C 2345.492188 111.519531 2345.175781 112.28125 2345.175781 113.078125 C 2345.175781 113.871094 2345.492188 114.636719 2346.054688 115.199219 C 2346.617188 115.761719 2347.382812 116.078125 2348.179688 116.078125 C 2348.972656 116.078125 2349.738281 115.761719 2350.300781 115.199219 C 2350.863281 114.636719 2351.179688 113.871094 2351.179688 113.078125 Z M 2351.179688 113.078125 "/>
<path fill-rule="nonzero" fill="rgb(60.392157%, 44.705882%, 67.45098%)" fill-opacity="1" d="M 1909.5 123.164062 C 1909.5 122.367188 1909.183594 121.605469 1908.621094 121.042969 C 1908.058594 120.480469 1907.296875 120.164062 1906.5 120.164062 C 1905.703125 120.164062 1904.941406 120.480469 1904.378906 121.042969 C 1903.816406 121.605469 1903.5 122.367188 1903.5 123.164062 C 1903.5 123.957031 1903.816406 124.722656 1904.378906 125.285156 C 1904.941406 125.847656 1905.703125 126.164062 1906.5 126.164062 C 1907.296875 126.164062 1908.058594 125.847656 1908.621094 125.285156 C 1909.183594 124.722656 1909.5 123.957031 1909.5 123.164062 Z M 1909.5 123.164062 "/>
<path fill-rule="nonzero" fill="rgb(60.392157%, 44.705882%, 67.45098%)" fill-opacity="1" d="M 1467.824219 113.078125 C 1467.824219 112.28125 1467.507812 111.519531 1466.945312 110.957031 C 1466.382812 110.394531 1465.617188 110.078125 1464.820312 110.078125 C 1464.027344 110.078125 1463.261719 110.394531 1462.699219 110.957031 C 1462.136719 111.519531 1461.820312 112.28125 1461.820312 113.078125 C 1461.820312 113.871094 1462.136719 114.636719 1462.699219 115.199219 C 1463.261719 115.761719 1464.027344 116.078125 1464.820312 116.078125 C 1465.617188 116.078125 1466.382812 115.761719 1466.945312 115.199219 C 1467.507812 114.636719 1467.824219 113.871094 1467.824219 113.078125 Z M 1467.824219 113.078125 "/>
<path fill-rule="nonzero" fill="rgb(60.392157%, 44.705882%, 67.45098%)" fill-opacity="1" d="M 1025.609375 88.84375 C 1025.609375 88.046875 1025.292969 87.285156 1024.730469 86.722656 C 1024.167969 86.160156 1023.402344 85.84375 1022.609375 85.84375 C 1021.8125 85.84375 1021.046875 86.160156 1020.484375 86.722656 C 1019.921875 87.285156 1019.605469 88.046875 1019.605469 88.84375 C 1019.605469 89.640625 1019.921875 90.402344 1020.484375 90.964844 C 1021.046875 91.527344 1021.8125 91.84375 1022.609375 91.84375 C 1023.402344 91.84375 1024.167969 91.527344 1024.730469 90.964844 C 1025.292969 90.402344 1025.609375 89.640625 1025.609375 88.84375 Z M 1025.609375 88.84375 "/>
<path fill-rule="nonzero" fill="rgb(60.392157%, 44.705882%, 67.45098%)" fill-opacity="1" d="M 581.789062 53.140625 C 581.789062 52.347656 581.472656 51.582031 580.910156 51.019531 C 580.34375 50.457031 579.582031 50.140625 578.785156 50.140625 C 577.988281 50.140625 577.226562 50.457031 576.664062 51.019531 C 576.101562 51.582031 575.785156 52.347656 575.785156 53.140625 C 575.785156 53.9375 576.101562 54.699219 576.664062 55.261719 C 577.226562 55.828125 577.988281 56.140625 578.785156 56.140625 C 579.582031 56.140625 580.34375 55.828125 580.910156 55.261719 C 581.472656 54.699219 581.789062 53.9375 581.789062 53.140625 Z M 581.789062 53.140625 "/>
</svg>
