<?xml version="1.0" encoding="UTF-8"?>
<svg xmlns="http://www.w3.org/2000/svg" xmlns:xlink="http://www.w3.org/1999/xlink" width="4630" height="642" viewBox="0 0 4630 642">
<path fill="none" stroke-width="0.2" stroke-linecap="butt" stroke-linejoin="miter" stroke="rgb(98.823529%, 38.431373%, 33.333333%)" stroke-opacity="1" stroke-miterlimit="10" d="M -36.49752 -3.325 C -34.197542 -3.325 -31.8975 -3.325 -29.597522 -3.325 " transform="matrix(60.044748, 0, 0, -60, 2315, 321)"/>
<path fill="none" stroke-width="0.2" stroke-linecap="butt" stroke-linejoin="miter" stroke="rgb(98.823529%, 38.431373%, 33.333333%)" stroke-opacity="1" stroke-miterlimit="10" d="M -28.997514 -3.325 C -26.697537 -3.325 -24.397559 -3.325 -22.097517 -3.325 " transform="matrix(60.044748, 0, 0, -60, 2315, 321)"/>
<path fill="none" stroke-width="0.2" stroke-linecap="butt" stroke-linejoin="miter" stroke="rgb(98.823529%, 38.431373%, 33.333333%)" stroke-opacity="1" stroke-miterlimit="10" d="M -21.497509 -3.325 C -19.197531 -3.325 -16.897554 -3.325 -14.597512 -3.325 " transform="matrix(60.044748, 0, 0, -60, 2315, 321)"/>
<path fill="none" stroke-width="0.2" stroke-linecap="butt" stroke-linejoin="miter" stroke="rgb(98.823529%, 38.431373%, 33.333333%)" stroke-opacity="1" stroke-miterlimit="10" d="M -13.997503 -3.325 C -11.697526 -3.325 -9.397549 -3.325 -7.097506 -3.325 " transform="matrix(60.044748, 0, 0, -60, 2315, 321)"/>
<path fill="none" stroke-width="0.2" stroke-linecap="butt" stroke-linejoin="miter" stroke="rgb(98.823529%, 38.431373%, 33.333333%)" stroke-opacity="1" stroke-miterlimit="10" d="M -6.497498 -3.325 C -4.197521 -3.325 -1.897543 -3.325 0.402499 -3.325 " transform="matrix(60.044748, 0, 0, -60, 2315, 321)"/>
<path fill="none" stroke-width="0.2" stroke-linecap="butt" stroke-linejoin="miter" stroke="rgb(98.823529%, 38.431373%, 33.333333%)" stroke-opacity="1" stroke-miterlimit="10" d="M 1.002442 -3.325 C 3.302485 -3.325 5.602462 -3.325 7.90244 -3.325 " transform="matrix(60.044748, 0, 0, -60, 2315, 321)"/>
<path fill="none" stroke-width="0.2" stroke-linecap="butt" stroke-linejoin="miter" stroke="rgb(98.823529%, 38.431373%, 33.333333%)" stroke-opacity="1" stroke-miterlimit="10" d="M 8.502448 -3.325 C 10.80249 -3.325 13.102468 -3.325 15.402445 -3.325 " transform="matrix(60.044748, 0, 0, -60, 2315, 321)"/>
<path fill="none" stroke-width="0.2" stroke-linecap="butt" stroke-linejoin="miter" stroke="rgb(98.823529%, 38.431373%, 33.333333%)" stroke-opacity="1" stroke-miterlimit="10" d="M 16.002453 -3.325 C 18.302496 -3.325 20.602473 -3.325 22.902451 -3.325 " transform="matrix(60.044748, 0, 0, -60, 2315, 321)"/>
<path fill="none" stroke-width="0.2" stroke-linecap="butt" stroke-linejoin="miter" stroke="rgb(98.823529%, 38.431373%, 33.333333%)" stroke-opacity="1" stroke-miterlimit="10" d="M 22.990341 -3.112891 C 20.631748 -0.754297 18.273156 1.604297 15.914628 3.962891 " transform="matrix(60.044748, 0, 0, -60, 2315, 321)"/>
<path fill="none" stroke-width="0.2" stroke-linecap="butt" stroke-linejoin="miter" stroke="rgb(98.823529%, 38.431373%, 33.333333%)" stroke-opacity="1" stroke-miterlimit="10" d="M 15.402445 4.175 C 13.102468 4.175 10.80249 4.175 8.502448 4.175 " transform="matrix(60.044748, 0, 0, -60, 2315, 321)"/>
<path fill="none" stroke-width="0.2" stroke-linecap="butt" stroke-linejoin="miter" stroke="rgb(98.823529%, 38.431373%, 33.333333%)" stroke-opacity="1" stroke-miterlimit="10" d="M 7.90244 4.175 C 5.602462 4.175 3.302485 4.175 1.002442 4.175 " transform="matrix(60.044748, 0, 0, -60, 2315, 321)"/>
<path fill="none" stroke-width="0.2" stroke-linecap="butt" stroke-linejoin="miter" stroke="rgb(98.823529%, 38.431373%, 33.333333%)" stroke-opacity="1" stroke-miterlimit="10" d="M 0.402499 4.175 C -1.897543 4.175 -4.197521 4.175 -6.497498 4.175 " transform="matrix(60.044748, 0, 0, -60, 2315, 321)"/>
<path fill="none" stroke-width="0.2" stroke-linecap="butt" stroke-linejoin="miter" stroke="rgb(98.823529%, 38.431373%, 33.333333%)" stroke-opacity="1" stroke-miterlimit="10" d="M -7.097506 4.175 C -9.397549 4.175 -11.697526 4.175 -13.997503 4.175 " transform="matrix(60.044748, 0, 0, -60, 2315, 321)"/>
<path fill="none" stroke-width="0.2" stroke-linecap="butt" stroke-linejoin="miter" stroke="rgb(98.823529%, 38.431373%, 33.333333%)" stroke-opacity="1" stroke-miterlimit="10" d="M -14.597512 4.175 C -16.897554 4.175 -19.197531 4.175 -21.497509 4.175 " transform="matrix(60.044748, 0, 0, -60, 2315, 321)"/>
<path fill="none" stroke-width="0.2" stroke-linecap="butt" stroke-linejoin="miter" stroke="rgb(98.823529%, 38.431373%, 33.333333%)" stroke-opacity="1" stroke-miterlimit="10" d="M -22.097517 4.175 C -24.397559 4.175 -26.697537 4.175 -28.997514 4.175 " transform="matrix(60.044748, 0, 0, -60, 2315, 321)"/>
<path fill="none" stroke-width="0.2" stroke-linecap="butt" stroke-linejoin="miter" stroke="rgb(98.823529%, 38.431373%, 33.333333%)" stroke-opacity="1" stroke-miterlimit="10" d="M -36.58541 -3.112891 C -34.226817 -0.754297 -31.868225 1.604297 -29.509632 3.962891 " transform="matrix(60.044748, 0, 0, -60, 2315, 321)"/>
<path fill="none" stroke-width="0.2" stroke-linecap="butt" stroke-linejoin="miter" stroke="rgb(98.823529%, 38.431373%, 33.333333%)" stroke-opacity="1" stroke-miterlimit="10" d="M -29.297551 -3.025 C -29.297551 -0.725 -29.297551 1.575 -29.297551 3.875 " transform="matrix(60.044748, 0, 0, -60, 2315, 321)"/>
<path fill="none" stroke-width="0.2" stroke-linecap="butt" stroke-linejoin="miter" stroke="rgb(98.823529%, 38.431373%, 33.333333%)" stroke-opacity="1" stroke-miterlimit="10" d="M -21.797545 -3.025 C -21.797545 -0.725 -21.797545 1.575 -21.797545 3.875 " transform="matrix(60.044748, 0, 0, -60, 2315, 321)"/>
<path fill="none" stroke-width="0.2" stroke-linecap="butt" stroke-linejoin="miter" stroke="rgb(98.823529%, 38.431373%, 33.333333%)" stroke-opacity="1" stroke-miterlimit="10" d="M -14.29754 -3.025 C -14.29754 -0.725 -14.29754 1.575 -14.29754 3.875 " transform="matrix(60.044748, 0, 0, -60, 2315, 321)"/>
<path fill="none" stroke-width="0.2" stroke-linecap="butt" stroke-linejoin="miter" stroke="rgb(98.823529%, 38.431373%, 33.333333%)" stroke-opacity="1" stroke-miterlimit="10" d="M -6.797535 -3.025 C -6.797535 -0.725 -6.797535 1.575 -6.797535 3.875 " transform="matrix(60.044748, 0, 0, -60, 2315, 321)"/>
<path fill="none" stroke-width="0.2" stroke-linecap="butt" stroke-linejoin="miter" stroke="rgb(98.823529%, 38.431373%, 33.333333%)" stroke-opacity="1" stroke-miterlimit="10" d="M 0.702471 -3.025 C 0.702471 -0.725 0.702471 1.575 0.702471 3.875 " transform="matrix(60.044748, 0, 0, -60, 2315, 321)"/>
<path fill="none" stroke-width="0.2" stroke-linecap="butt" stroke-linejoin="miter" stroke="rgb(98.823529%, 38.431373%, 33.333333%)" stroke-opacity="1" stroke-miterlimit="10" d="M 8.202476 -3.025 C 8.202476 -0.725 8.202476 1.575 8.202476 3.875 " transform="matrix(60.044748, 0, 0, -60, 2315, 321)"/>
<path fill="none" stroke-width="0.2" stroke-linecap="butt" stroke-linejoin="miter" stroke="rgb(98.823529%, 38.431373%, 33.333333%)" stroke-opacity="1" stroke-miterlimit="10" d="M 15.702482 -3.025 C 15.702482 -0.725 15.702482 1.575 15.702482 3.875 " transform="matrix(60.044748, 0, 0, -60, 2315, 321)"/>
<path fill="none" stroke-width="0.2" stroke-linecap="butt" stroke-linejoin="miter" stroke="rgb(98.823529%, 38.431373%, 33.333333%)" stroke-opacity="1" stroke-miterlimit="10" d="M -22.009692 -3.112891 C -24.368219 -0.754297 -26.726812 1.604297 -29.085404 3.962891 " transform="matrix(60.044748, 0, 0, -60, 2315, 321)"/>
<path fill="none" stroke-width="0.2" stroke-linecap="butt" stroke-linejoin="miter" stroke="rgb(98.823529%, 38.431373%, 33.333333%)" stroke-opacity="1" stroke-miterlimit="10" d="M -14.509686 -3.112891 C -16.868214 -0.754297 -19.226806 1.604297 -21.585399 3.962891 " transform="matrix(60.044748, 0, 0, -60, 2315, 321)"/>
<path fill="none" stroke-width="0.2" stroke-linecap="butt" stroke-linejoin="miter" stroke="rgb(98.823529%, 38.431373%, 33.333333%)" stroke-opacity="1" stroke-miterlimit="10" d="M -7.009681 -3.112891 C -9.368208 -0.754297 -11.726801 1.604297 -14.085394 3.962891 " transform="matrix(60.044748, 0, 0, -60, 2315, 321)"/>
<path fill="none" stroke-width="0.2" stroke-linecap="butt" stroke-linejoin="miter" stroke="rgb(98.823529%, 38.431373%, 33.333333%)" stroke-opacity="1" stroke-miterlimit="10" d="M -6.585388 -3.112891 C -4.226796 -0.754297 -1.868268 1.604297 0.490324 3.962891 " transform="matrix(60.044748, 0, 0, -60, 2315, 321)"/>
<path fill="none" stroke-width="0.2" stroke-linecap="butt" stroke-linejoin="miter" stroke="rgb(98.823529%, 38.431373%, 33.333333%)" stroke-opacity="1" stroke-miterlimit="10" d="M 0.914617 -3.112891 C 3.27321 -0.754297 5.631737 1.604297 7.99033 3.962891 " transform="matrix(60.044748, 0, 0, -60, 2315, 321)"/>
<path fill="none" stroke-width="0.2" stroke-linecap="butt" stroke-linejoin="miter" stroke="rgb(98.823529%, 38.431373%, 33.333333%)" stroke-opacity="1" stroke-miterlimit="10" d="M 8.414623 -3.112891 C 10.77315 -0.754297 13.131743 1.604297 15.490335 3.962891 " transform="matrix(60.044748, 0, 0, -60, 2315, 321)"/>
<path fill="none" stroke-width="0.04" stroke-linecap="butt" stroke-linejoin="miter" stroke="rgb(0%, 0%, 0%)" stroke-opacity="1" stroke-miterlimit="10" d="M -36.797556 -3.325 C -37.182426 -3.991667 -37.56736 -4.658333 -37.952229 -5.325 C -37.182426 -5.325 -36.412622 -5.325 -35.642819 -5.325 C -36.027753 -4.658333 -36.412622 -3.991667 -36.797556 -3.325 Z M -36.797556 -3.325 " transform="matrix(60.044748, 0, 0, -60, 2315, 321)"/>
<path fill="none" stroke-width="0.04" stroke-linecap="butt" stroke-linejoin="miter" stroke="rgb(0%, 0%, 0%)" stroke-opacity="1" stroke-miterlimit="10" d="M -35.06545 -5.325 C -36.220187 -5.325 -37.37486 -5.325 -38.529598 -5.325 " transform="matrix(60.044748, 0, 0, -60, 2315, 321)"/>
<path fill="none" stroke-width="0.04" stroke-linecap="butt" stroke-linejoin="miter" stroke="rgb(0%, 0%, 0%)" stroke-opacity="1" stroke-miterlimit="10" d="M 23.202487 -3.325 C 22.817553 -3.991667 22.432684 -4.658333 22.047749 -5.325 C 22.817553 -5.325 23.587356 -5.325 24.35716 -5.325 C 23.972291 -4.658333 23.587356 -3.991667 23.202487 -3.325 Z M 23.202487 -3.325 " transform="matrix(60.044748, 0, 0, -60, 2315, 321)"/>
<path fill="none" stroke-width="0.04" stroke-linecap="butt" stroke-linejoin="miter" stroke="rgb(0%, 0%, 0%)" stroke-opacity="1" stroke-miterlimit="10" d="M 24.934529 -5.325 C 23.779791 -5.325 22.625118 -5.325 21.470446 -5.325 " transform="matrix(60.044748, 0, 0, -60, 2315, 321)"/>
<path fill-rule="nonzero" fill="rgb(0%, 0%, 0%)" fill-opacity="1" d="M 123.515625 520.5 C 123.515625 515.726562 121.617188 511.148438 118.238281 507.773438 C 114.859375 504.394531 110.277344 502.5 105.5 502.5 C 100.722656 502.5 96.140625 504.394531 92.765625 507.773438 C 89.386719 511.148438 87.488281 515.726562 87.488281 520.5 C 87.488281 525.273438 89.386719 529.851562 92.765625 533.226562 C 96.140625 536.605469 100.722656 538.5 105.5 538.5 C 110.277344 538.5 114.859375 536.605469 118.238281 533.226562 C 121.617188 529.851562 123.515625 525.273438 123.515625 520.5 Z M 123.515625 520.5 "/>
<path fill-rule="nonzero" fill="rgb(0%, 0%, 0%)" fill-opacity="1" d="M 573.851562 520.5 C 573.851562 515.726562 571.953125 511.148438 568.574219 507.773438 C 565.195312 504.394531 560.613281 502.5 555.835938 502.5 C 551.058594 502.5 546.476562 504.394531 543.101562 507.773438 C 539.722656 511.148438 537.824219 515.726562 537.824219 520.5 C 537.824219 525.273438 539.722656 529.851562 543.101562 533.226562 C 546.476562 536.605469 551.058594 538.5 555.835938 538.5 C 560.613281 538.5 565.195312 536.605469 568.574219 533.226562 C 571.953125 529.851562 573.851562 525.273438 573.851562 520.5 Z M 573.851562 520.5 "/>
<path fill-rule="nonzero" fill="rgb(0%, 0%, 0%)" fill-opacity="1" d="M 1024.1875 520.5 C 1024.1875 515.726562 1022.289062 511.148438 1018.910156 507.773438 C 1015.53125 504.394531 1010.949219 502.5 1006.171875 502.5 C 1001.394531 502.5 996.8125 504.394531 993.433594 507.773438 C 990.058594 511.148438 988.160156 515.726562 988.160156 520.5 C 988.160156 525.273438 990.058594 529.851562 993.433594 533.226562 C 996.8125 536.605469 1001.394531 538.5 1006.171875 538.5 C 1010.949219 538.5 1015.53125 536.605469 1018.910156 533.226562 C 1022.289062 529.851562 1024.1875 525.273438 1024.1875 520.5 Z M 1024.1875 520.5 "/>
<path fill-rule="nonzero" fill="rgb(0%, 0%, 0%)" fill-opacity="1" d="M 1474.523438 520.5 C 1474.523438 515.726562 1472.625 511.148438 1469.246094 507.773438 C 1465.867188 504.394531 1461.285156 502.5 1456.507812 502.5 C 1451.730469 502.5 1447.148438 504.394531 1443.769531 507.773438 C 1440.394531 511.148438 1438.496094 515.726562 1438.496094 520.5 C 1438.496094 525.273438 1440.394531 529.851562 1443.769531 533.226562 C 1447.148438 536.605469 1451.730469 538.5 1456.507812 538.5 C 1461.285156 538.5 1465.867188 536.605469 1469.246094 533.226562 C 1472.625 529.851562 1474.523438 525.273438 1474.523438 520.5 Z M 1474.523438 520.5 "/>
<path fill-rule="nonzero" fill="rgb(0%, 0%, 0%)" fill-opacity="1" d="M 1924.859375 520.5 C 1924.859375 515.726562 1922.960938 511.148438 1919.582031 507.773438 C 1916.203125 504.394531 1911.621094 502.5 1906.84375 502.5 C 1902.066406 502.5 1897.484375 504.394531 1894.105469 507.773438 C 1890.730469 511.148438 1888.832031 515.726562 1888.832031 520.5 C 1888.832031 525.273438 1890.730469 529.851562 1894.105469 533.226562 C 1897.484375 536.605469 1902.066406 538.5 1906.84375 538.5 C 1911.621094 538.5 1916.203125 536.605469 1919.582031 533.226562 C 1922.960938 529.851562 1924.859375 525.273438 1924.859375 520.5 Z M 1924.859375 520.5 "/>
<path fill-rule="nonzero" fill="rgb(0%, 0%, 0%)" fill-opacity="1" d="M 2375.191406 520.5 C 2375.191406 515.726562 2373.296875 511.148438 2369.917969 507.773438 C 2366.539062 504.394531 2361.957031 502.5 2357.179688 502.5 C 2352.402344 502.5 2347.820312 504.394531 2344.441406 507.773438 C 2341.0625 511.148438 2339.167969 515.726562 2339.167969 520.5 C 2339.167969 525.273438 2341.0625 529.851562 2344.441406 533.226562 C 2347.820312 536.605469 2352.402344 538.5 2357.179688 538.5 C 2361.957031 538.5 2366.539062 536.605469 2369.917969 533.226562 C 2373.296875 529.851562 2375.191406 525.273438 2375.191406 520.5 Z M 2375.191406 520.5 "/>
<path fill-rule="nonzero" fill="rgb(0%, 0%, 0%)" fill-opacity="1" d="M 2825.527344 520.5 C 2825.527344 515.726562 2823.632812 511.148438 2820.253906 507.773438 C 2816.875 504.394531 2812.292969 502.5 2807.515625 502.5 C 2802.738281 502.5 2798.15625 504.394531 2794.777344 507.773438 C 2791.398438 511.148438 2789.5 515.726562 2789.5 520.5 C 2789.5 525.273438 2791.398438 529.851562 2794.777344 533.226562 C 2798.15625 536.605469 2802.738281 538.5 2807.515625 538.5 C 2812.292969 538.5 2816.875 536.605469 2820.253906 533.226562 C 2823.632812 529.851562 2825.527344 525.273438 2825.527344 520.5 Z M 2825.527344 520.5 "/>
<path fill-rule="nonzero" fill="rgb(0%, 0%, 0%)" fill-opacity="1" d="M 3275.863281 520.5 C 3275.863281 515.726562 3273.964844 511.148438 3270.589844 507.773438 C 3267.210938 504.394531 3262.628906 502.5 3257.851562 502.5 C 3253.074219 502.5 3248.492188 504.394531 3245.113281 507.773438 C 3241.734375 511.148438 3239.835938 515.726562 3239.835938 520.5 C 3239.835938 525.273438 3241.734375 529.851562 3245.113281 533.226562 C 3248.492188 536.605469 3253.074219 538.5 3257.851562 538.5 C 3262.628906 538.5 3267.210938 536.605469 3270.589844 533.226562 C 3273.964844 529.851562 3275.863281 525.273438 3275.863281 520.5 Z M 3275.863281 520.5 "/>
<path fill-rule="nonzero" fill="rgb(0%, 0%, 0%)" fill-opacity="1" d="M 3726.199219 520.5 C 3726.199219 515.726562 3724.300781 511.148438 3720.925781 507.773438 C 3717.546875 504.394531 3712.964844 502.5 3708.1875 502.5 C 3703.410156 502.5 3698.828125 504.394531 3695.449219 507.773438 C 3692.070312 511.148438 3690.171875 515.726562 3690.171875 520.5 C 3690.171875 525.273438 3692.070312 529.851562 3695.449219 533.226562 C 3698.828125 536.605469 3703.410156 538.5 3708.1875 538.5 C 3712.964844 538.5 3717.546875 536.605469 3720.925781 533.226562 C 3724.300781 529.851562 3726.199219 525.273438 3726.199219 520.5 Z M 3726.199219 520.5 "/>
<path fill-rule="nonzero" fill="rgb(0%, 0%, 0%)" fill-opacity="1" d="M 3275.863281 70.5 C 3275.863281 65.726562 3273.964844 61.148438 3270.589844 57.773438 C 3267.210938 54.394531 3262.628906 52.5 3257.851562 52.5 C 3253.074219 52.5 3248.492188 54.394531 3245.113281 57.773438 C 3241.734375 61.148438 3239.835938 65.726562 3239.835938 70.5 C 3239.835938 75.273438 3241.734375 79.851562 3245.113281 83.226562 C 3248.492188 86.605469 3253.074219 88.5 3257.851562 88.5 C 3262.628906 88.5 3267.210938 86.605469 3270.589844 83.226562 C 3273.964844 79.851562 3275.863281 75.273438 3275.863281 70.5 Z M 3275.863281 70.5 "/>
<path fill-rule="nonzero" fill="rgb(0%, 0%, 0%)" fill-opacity="1" d="M 2825.527344 70.5 C 2825.527344 65.726562 2823.632812 61.148438 2820.253906 57.773438 C 2816.875 54.394531 2812.292969 52.5 2807.515625 52.5 C 2802.738281 52.5 2798.15625 54.394531 2794.777344 57.773438 C 2791.398438 61.148438 2789.5 65.726562 2789.5 70.5 C 2789.5 75.273438 2791.398438 79.851562 2794.777344 83.226562 C 2798.15625 86.605469 2802.738281 88.5 2807.515625 88.5 C 2812.292969 88.5 2816.875 86.605469 2820.253906 83.226562 C 2823.632812 79.851562 2825.527344 75.273438 2825.527344 70.5 Z M 2825.527344 70.5 "/>
<path fill-rule="nonzero" fill="rgb(0%, 0%, 0%)" fill-opacity="1" d="M 2375.191406 70.5 C 2375.191406 65.726562 2373.296875 61.148438 2369.917969 57.773438 C 2366.539062 54.394531 2361.957031 52.5 2357.179688 52.5 C 2352.402344 52.5 2347.820312 54.394531 2344.441406 57.773438 C 2341.0625 61.148438 2339.167969 65.726562 2339.167969 70.5 C 2339.167969 75.273438 2341.0625 79.851562 2344.441406 83.226562 C 2347.820312 86.605469 2352.402344 88.5 2357.179688 88.5 C 2361.957031 88.5 2366.539062 86.605469 2369.917969 83.226562 C 2373.296875 79.851562 2375.191406 75.273438 2375.191406 70.5 Z M 2375.191406 70.5 "/>
<path fill-rule="nonzero" fill="rgb(0%, 0%, 0%)" fill-opacity="1" d="M 1924.859375 70.5 C 1924.859375 65.726562 1922.960938 61.148438 1919.582031 57.773438 C 1916.203125 54.394531 1911.621094 52.5 1906.84375 52.5 C 1902.066406 52.5 1897.484375 54.394531 1894.105469 57.773438 C 1890.730469 61.148438 1888.832031 65.726562 1888.832031 70.5 C 1888.832031 75.273438 1890.730469 79.851562 1894.105469 83.226562 C 1897.484375 86.605469 1902.066406 88.5 1906.84375 88.5 C 1911.621094 88.5 1916.203125 86.605469 1919.582031 83.226562 C 1922.960938 79.851562 1924.859375 75.273438 1924.859375 70.5 Z M 1924.859375 70.5 "/>
<path fill-rule="nonzero" fill="rgb(0%, 0%, 0%)" fill-opacity="1" d="M 1474.523438 70.5 C 1474.523438 65.726562 1472.625 61.148438 1469.246094 57.773438 C 1465.867188 54.394531 1461.285156 52.5 1456.507812 52.5 C 1451.730469 52.5 1447.148438 54.394531 1443.769531 57.773438 C 1440.394531 61.148438 1438.496094 65.726562 1438.496094 70.5 C 1438.496094 75.273438 1440.394531 79.851562 1443.769531 83.226562 C 1447.148438 86.605469 1451.730469 88.5 1456.507812 88.5 C 1461.285156 88.5 1465.867188 86.605469 1469.246094 83.226562 C 1472.625 79.851562 1474.523438 75.273438 1474.523438 70.5 Z M 1474.523438 70.5 "/>
<path fill-rule="nonzero" fill="rgb(0%, 0%, 0%)" fill-opacity="1" d="M 1024.1875 70.5 C 1024.1875 65.726562 1022.289062 61.148438 1018.910156 57.773438 C 1015.53125 54.394531 1010.949219 52.5 1006.171875 52.5 C 1001.394531 52.5 996.8125 54.394531 993.433594 57.773438 C 990.058594 61.148438 988.160156 65.726562 988.160156 70.5 C 988.160156 75.273438 990.058594 79.851562 993.433594 83.226562 C 996.8125 86.605469 1001.394531 88.5 1006.171875 88.5 C 1010.949219 88.5 1015.53125 86.605469 1018.910156 83.226562 C 1022.289062 79.851562 1024.1875 75.273438 1024.1875 70.5 Z M 1024.1875 70.5 "/>
<path fill-rule="nonzero" fill="rgb(0%, 0%, 0%)" fill-opacity="1" d="M 573.851562 70.5 C 573.851562 65.726562 571.953125 61.148438 568.574219 57.773438 C 565.195312 54.394531 560.613281 52.5 555.835938 52.5 C 551.058594 52.5 546.476562 54.394531 543.101562 57.773438 C 539.722656 61.148438 537.824219 65.726562 537.824219 70.5 C 537.824219 75.273438 539.722656 79.851562 543.101562 83.226562 C 546.476562 86.605469 551.058594 88.5 555.835938 88.5 C 560.613281 88.5 565.195312 86.605469 568.574219 83.226562 C 571.953125 79.851562 573.851562 75.273438 573.851562 70.5 Z M 573.851562 70.5 "/>
<path fill="none" stroke-width="0.1" stroke-linecap="butt" stroke-linejoin="miter" stroke="rgb(0%, 0%, 0%)" stroke-opacity="1" stroke-miterlimit="10" d="M 32.99037 5.325 C 32.99037 2.058333 32.99037 -1.208333 32.99037 -4.475 " transform="matrix(60.044748, 0, 0, -60, 2315, 321)"/>
<path fill-rule="nonzero" fill="rgb(0%, 0%, 0%)" fill-opacity="0.25" stroke-width="0.1" stroke-linecap="butt" stroke-linejoin="miter" stroke="rgb(0%, 0%, 0%)" stroke-opacity="1" stroke-miterlimit="10" d="M 32.99037 3.925 C 31.323644 3.925 29.656983 3.925 27.990323 3.925 C 27.990323 1.591667 27.990323 -0.741667 27.990323 -3.075 C 29.656983 -3.075 31.323644 -3.075 32.99037 -3.075 C 32.99037 -0.741667 32.99037 1.591667 32.99037 3.925 Z M 32.99037 3.925 " transform="matrix(60.044748, 0, 0, -60, 2315, 321)"/>
<path fill-rule="nonzero" fill="rgb(0%, 0%, 0%)" fill-opacity="1" d="M 4381.488281 259.011719 C 4381.488281 256.023438 4381.488281 255.773438 4378.625 255.773438 C 4370.894531 263.742188 4359.929688 263.742188 4355.941406 263.742188 C 4355.941406 265.03125 4355.941406 266.316406 4355.941406 267.605469 C 4358.433594 267.605469 4365.785156 267.605469 4372.265625 264.367188 C 4372.265625 285.871094 4372.265625 307.371094 4372.265625 328.875 C 4372.265625 333.359375 4371.894531 334.851562 4360.675781 334.851562 C 4359.347656 334.851562 4358.019531 334.851562 4356.6875 334.851562 C 4356.6875 336.140625 4356.6875 337.425781 4356.6875 338.714844 C 4361.050781 338.339844 4371.894531 338.339844 4376.878906 338.339844 C 4381.863281 338.339844 4392.707031 338.339844 4397.066406 338.714844 C 4397.066406 337.425781 4397.066406 336.140625 4397.066406 334.851562 C 4395.738281 334.851562 4394.410156 334.851562 4393.078125 334.851562 C 4381.863281 334.851562 4381.488281 333.484375 4381.488281 328.875 C 4381.488281 305.585938 4381.488281 282.300781 4381.488281 259.011719 Z M 4381.488281 259.011719 "/>
<path fill-rule="nonzero" fill="rgb(0%, 0%, 0%)" fill-opacity="1" d="M 4464.492188 298.863281 C 4464.492188 288.898438 4463.867188 278.9375 4459.503906 269.722656 C 4453.773438 257.765625 4443.554688 255.773438 4438.320312 255.773438 C 4430.839844 255.773438 4421.742188 259.011719 4416.632812 270.59375 C 4412.644531 279.1875 4412.023438 288.898438 4412.023438 298.863281 C 4412.023438 308.203125 4412.523438 319.410156 4417.632812 328.875 C 4422.992188 338.960938 4432.089844 341.453125 4438.195312 341.453125 C 4444.925781 341.453125 4454.394531 338.835938 4459.878906 327.007812 C 4463.867188 318.414062 4464.492188 308.699219 4464.492188 298.863281 Z M 4438.195312 338.714844 C 4433.335938 338.714844 4425.980469 335.601562 4423.738281 323.644531 C 4422.367188 316.171875 4422.367188 304.714844 4422.367188 297.367188 C 4422.367188 289.398438 4422.367188 281.179688 4423.363281 274.453125 C 4425.730469 259.632812 4435.078125 258.515625 4438.195312 258.515625 C 4442.308594 258.515625 4450.53125 260.753906 4452.902344 273.085938 C 4454.148438 280.058594 4454.148438 289.523438 4454.148438 297.367188 C 4454.148438 306.707031 4454.148438 315.175781 4452.777344 323.144531 C 4450.90625 334.976562 4443.804688 338.714844 4438.195312 338.714844 Z M 4438.195312 338.714844 "/>
<path fill-rule="nonzero" fill="rgb(0%, 0%, 0%)" fill-opacity="1" d="M 4526.804688 298.863281 C 4526.804688 288.898438 4526.179688 278.9375 4521.820312 269.722656 C 4516.085938 257.765625 4505.867188 255.773438 4500.632812 255.773438 C 4493.15625 255.773438 4484.058594 259.011719 4478.949219 270.59375 C 4474.960938 279.1875 4474.335938 288.898438 4474.335938 298.863281 C 4474.335938 308.203125 4474.835938 319.410156 4479.945312 328.875 C 4485.304688 338.960938 4494.402344 341.453125 4500.507812 341.453125 C 4507.238281 341.453125 4516.710938 338.835938 4522.191406 327.007812 C 4526.179688 318.414062 4526.804688 308.699219 4526.804688 298.863281 Z M 4500.507812 338.714844 C 4495.648438 338.714844 4488.292969 335.601562 4486.050781 323.644531 C 4484.679688 316.171875 4484.679688 304.714844 4484.679688 297.367188 C 4484.679688 289.398438 4484.679688 281.179688 4485.675781 274.453125 C 4488.046875 259.632812 4497.390625 258.515625 4500.507812 258.515625 C 4504.621094 258.515625 4512.847656 260.753906 4515.214844 273.085938 C 4516.460938 280.058594 4516.460938 289.523438 4516.460938 297.367188 C 4516.460938 306.707031 4516.460938 315.175781 4515.089844 323.144531 C 4513.21875 334.976562 4506.117188 338.714844 4500.507812 338.714844 Z M 4500.507812 338.714844 "/>
<path fill-rule="nonzero" fill="rgb(0%, 0%, 0%)" fill-opacity="1" d="M 4617.15625 250.046875 C 4617.90625 248.925781 4618.15625 248.550781 4618.15625 247.804688 C 4618.15625 246.433594 4617.035156 245.3125 4615.664062 245.3125 C 4614.417969 245.3125 4613.792969 246.183594 4613.046875 247.058594 C 4606.8125 255.523438 4598.464844 258.886719 4589.367188 258.886719 C 4580.640625 258.886719 4572.914062 255.773438 4566.0625 249.296875 C 4563.695312 247.179688 4561.078125 245.3125 4557.089844 245.3125 C 4547.617188 245.3125 4538.769531 255.773438 4538.769531 270.34375 C 4538.769531 285.414062 4547.742188 295.5 4557.089844 295.5 C 4566.1875 295.5 4573.289062 284.417969 4573.289062 270.46875 C 4573.289062 268.726562 4573.289062 262.871094 4570.671875 256.398438 C 4578.773438 261.003906 4585.003906 261.628906 4589.492188 261.628906 C 4598.960938 261.628906 4605.320312 257.765625 4606.066406 257.269531 C 4606.109375 257.308594 4606.148438 257.351562 4606.191406 257.394531 C 4587.539062 285.164062 4568.886719 312.933594 4550.234375 340.707031 C 4549.113281 342.324219 4549.113281 342.945312 4549.113281 343.195312 C 4549.113281 344.566406 4550.359375 345.6875 4551.605469 345.6875 C 4552.851562 345.6875 4553.101562 345.1875 4554.097656 343.820312 C 4575.117188 312.5625 4596.136719 281.304688 4617.15625 250.046875 Z M 4557.210938 292.761719 C 4554.71875 292.761719 4546.496094 291.140625 4546.496094 270.46875 C 4546.496094 249.671875 4554.597656 248.054688 4557.210938 248.054688 C 4563.816406 248.054688 4570.175781 257.269531 4570.175781 270.34375 C 4570.175781 283.792969 4563.695312 292.761719 4557.210938 292.761719 Z M 4612.421875 342.945312 C 4609.929688 342.945312 4601.703125 341.328125 4601.703125 320.65625 C 4601.703125 299.859375 4609.804688 298.238281 4612.421875 298.238281 C 4619.027344 298.238281 4625.382812 307.457031 4625.382812 320.53125 C 4625.382812 333.980469 4618.902344 342.945312 4612.421875 342.945312 Z M 4628.5 320.65625 C 4628.5 306.335938 4621.144531 295.5 4612.296875 295.5 C 4602.824219 295.5 4593.976562 305.960938 4593.976562 320.53125 C 4593.976562 335.601562 4602.949219 345.6875 4612.296875 345.6875 C 4621.394531 345.6875 4628.5 334.601562 4628.5 320.65625 Z M 4628.5 320.65625 "/>
</svg>
