<svg xmlns="http://www.w3.org/2000/svg" xmlns:xlink="http://www.w3.org/1999/xlink" version="1.1" x="0px" y="0px"
     viewBox="0 0 100 125" enable-background="new 0 0 100 100" xml:space="preserve">
    <path fill="navy" d="M72,40c0,0-14-13-22-13H32C17,27,1,40,1,44v18.001l6.507,1.858C7.583,57.021,13.145,51.5,20,51.5  c6.903,0,12.5,5.597,12.5,12.5h35c0-6.903,5.597-12.5,12.5-12.5c6.855,0,12.416,5.521,12.493,12.359L99,62V51C99,47,89,42,72,40z   M37,40.931l-24.449-0.843C17.573,36.613,25.016,33,32,33h5V40.931z M43,41.138V33h7c2.853,0,9.49,4.249,15.064,8.899L43,41.138z"/>
    <circle fill="darkgray" cx="20" cy="64" r="8.5"/>
    <circle fill="darkgray" cx="80" cy="64" r="8.5"/>
</svg>