<svg xmlns="http://www.w3.org/2000/svg" xmlns:xlink="http://www.w3.org/1999/xlink" version="1.1" x="0px" y="0px" viewBox="0 0 100 125" style="enable-background:new 0 0 100 100;" xml:space="preserve">
  <g fill="gray" stroke="gray">
    <path d="M46.46,21.98c0.43,0.8,0.67,1.85,0.67,2.9c0,0.61-0.08,1.19-0.23,1.75c0.93-0.48,1.99-0.76,3.11-0.76   c1.13,0,2.19,0.27,3.12,0.76c-0.15-0.56-0.23-1.13-0.23-1.74c0-1.05,0.24-2.11,0.67-2.91H46.46z"/>
    <circle cx="69.37" cy="15.25" r="5.25"/>
    <circle cx="50.08" cy="15.25" r="5.25"/>
    <circle cx="30.76" cy="15.25" r="5.25"/>
    <ellipse transform="matrix(0.9871 -0.1602 0.1602 0.9871 -4.5877 8.4315)" cx="50" cy="32.67" rx="5.25" ry="5.25"/>
    <path d="M39.73,71.88V59.11c0-3.14,2.5-5.66,5.64-5.66h0.12c-1.41-1.2-2.3-3.09-2.3-5.12c0-0.38,0.03-0.76,0.09-1.12   c0.04-0.22,0.08-0.43,0.14-0.64c-0.52,0.27-1.09,0.48-1.68,0.61h-6.07c-2.27,0-4.07,1.83-4.07,4.1v12.77   c0,2.06,1.47,3.77,3.47,4.07v10.89c0,1.74,1.05,3.24,2.36,3.24h5.77c0,0,0.01-0.07,0.01-0.07v-5.07   C41.2,76.26,39.73,74.2,39.73,71.88z"/>
    <path d="M68.41,64.06V51.29c0-2.27-1.8-4.1-4.07-4.1h-6.07c-0.59-0.13-1.16-0.35-1.68-0.62c0.06,0.21,0.1,0.42,0.14,0.65   c0.06,0.36,0.09,0.75,0.09,1.13c0,2.03-0.89,3.91-2.3,5.11h0.12c3.14,0,5.63,2.51,5.63,5.66v12.77c0,2.31-1.47,4.37-3.47,5.24v5.07   c0,0,0.01,0.07,0.01,0.07h5.77c1.31,0,2.35-1.5,2.35-3.24V68.13C66.94,67.83,68.41,66.12,68.41,64.06z"/>
    <path d="M50,41.5c1.12,0,2.18,0.27,3.12,0.76c-0.15-0.56-0.23-1.16-0.23-1.77c0-0.4,0.03-0.77,0.1-1.17h-5.97   c0.07,0.4,0.1,0.77,0.1,1.17c0,0.61-0.08,1.21-0.23,1.77C47.82,41.77,48.88,41.5,50,41.5z"/>
    <circle cx="78.92" cy="24.85" r="5.25"/>
    <circle cx="21.11" cy="24.84" r="5.25"/>
    <ellipse transform="matrix(0.9871 -0.1602 0.1602 0.9871 -4.8371 5.3369)" cx="30.68" cy="32.67" rx="5.25" ry="5.25"/>
    <path d="M29.99,64.06V51.29c0-3.14,2.54-5.7,5.67-5.7h0.12c-1.41-1.2-2.3-3.08-2.3-5.1c0-0.4,0.03-0.77,0.1-1.17h-7.55   c-2.27,0-4.06,1.88-4.06,4.15v12.77c0,2.06,1.47,3.77,3.47,4.07V71.2c0,1.74,1.03,3.2,2.34,3.2h5.66V69.3   C31.46,68.43,29.99,66.38,29.99,64.06z"/>
    <path d="M20.39,56.24V43.47c0-3.14,2.53-5.62,5.66-5.62h0.12c-1.41-1.33-2.29-3.07-2.29-5.1c0-0.4,0.04-0.77,0.1-1.17h-7.5   c-2.27,0-4.09,1.79-4.09,4.06v12.77c0,2.06,1.47,3.77,3.47,4.07v10.89c0,1.74,1.07,3.15,2.37,3.15h5.63v-5.04   C21.86,60.62,20.39,58.56,20.39,56.24z"/>
    <path d="M58.8,71.88V59.11c0-2.27-1.89-4.06-4.16-4.06h-9.27c-2.27,0-4.17,1.78-4.17,4.06v12.77c0,2.06,1.6,3.77,3.6,4.07v10.89   c0,1.74,1.01,3.16,2.32,3.16h5.77c1.31,0,2.31-1.42,2.31-3.16V75.95C57.2,75.65,58.8,73.95,58.8,71.88z"/>
    <circle cx="50" cy="48.31" r="5.25"/>
    <circle cx="59.7" cy="40.49" r="5.25"/>
    <circle cx="40.3" cy="40.49" r="5.25"/>
    <circle cx="69.32" cy="32.67" r="5.25"/>
    <path d="M78.01,56.24V43.47c0-2.27-1.78-4.15-4.05-4.15h-7.54c0.07,0.4,0.1,0.77,0.1,1.17c0,2.03-0.89,3.9-2.3,5.1h0.12   c3.14,0,5.67,2.56,5.67,5.7v12.77c0,2.31-1.47,4.37-3.47,5.24v5.09h5.67c1.31,0,2.33-1.46,2.33-3.2V60.31   C76.54,60.01,78.01,58.3,78.01,56.24z"/>
    <path d="M83.56,31.58h-7.52c0.07,0.4,0.1,0.77,0.1,1.17c0,2.02-0.89,3.76-2.29,5.1h0.11c3.13,0,5.65,2.47,5.65,5.62v12.77   c0,2.32-1.47,4.38-3.47,5.24v5.04h5.67c1.31,0,2.34-1.41,2.34-3.15V52.48c2-0.3,3.47-2,3.47-4.07V35.64   C87.61,33.37,85.83,31.58,83.56,31.58z"/>
    <circle cx="59.71" cy="24.85" r="5.25"/>
    <circle cx="40.31" cy="24.84" r="5.25"/>
    <path d="M59.7,33.68c1.09,0,2.11,0.26,3.03,0.71c-0.14-0.55-0.22-1.09-0.22-1.68c0-0.4,0.04-0.73,0.1-1.13h-5.9   c0.07,0.4,0.1,0.73,0.1,1.13c0,0.61-0.08,1.18-0.23,1.75C57.52,33.97,58.58,33.68,59.7,33.68z"/>
    <path d="M40.3,33.68c1.12,0,2.18,0.27,3.12,0.76c-0.15-0.56-0.23-1.12-0.23-1.73c0-0.4,0.04-0.73,0.1-1.13h-5.9   c0.07,0.4,0.1,0.73,0.1,1.13c0,0.59-0.08,1.15-0.22,1.7C38.19,33.95,39.22,33.68,40.3,33.68z"/>
    <path d="M27.26,21.98c0.43,0.8,0.67,1.85,0.67,2.9c0,0.59-0.07,1.14-0.21,1.68c0.9-0.44,1.91-0.69,2.97-0.69   c1.09,0,2.12,0.26,3.04,0.71c-0.15-0.55-0.22-1.1-0.22-1.7c0-1.05,0.24-2.11,0.67-2.91H27.26z"/>
    <path d="M65.85,21.98c0.43,0.8,0.67,1.85,0.67,2.91c0,0.59-0.08,1.15-0.22,1.7c0.91-0.45,1.94-0.72,3.02-0.72   c1.08,0,2.1,0.25,3,0.7c-0.14-0.55-0.22-1.09-0.22-1.68c0-1.05,0.24-2.11,0.67-2.91H65.85z"/>
  </g>
</svg>
