<svg xmlns="http://www.w3.org/2000/svg"
     xmlns:xlink="http://www.w3.org/1999/xlink"
     version="1.1"
     viewBox="0 0 340 125">
  <!-- five copies of the person, spaced by 60 units -->
  <g fill="silver" stroke="white" stroke-width="2">
    <g transform="translate(-10,-10)">
      <path d="M58.8,71.88V59.11c0-2.27-1.89-4.06-4.16-4.06h-9.27c-2.27,0-4.17,1.78-4.17,4.06v12.77c0,2.06,1.6,3.77,3.6,4.07v10.89
               c0,1.74,1.01,3.16,2.32,3.16h5.77c1.31,0,2.31-1.42,2.31-3.16V75.95
               C57.2,75.65,58.8,73.95,58.8,71.88z"/>
      <circle cx="50" cy="48.31" r="5.25"/>
    </g>
    <g transform="translate(10,-10)">
      <path d="M58.8,71.88V59.11c0-2.27-1.89-4.06-4.16-4.06h-9.27c-2.27,0-4.17,1.78-4.17,4.06v12.77c0,2.06,1.6,3.77,3.6,4.07v10.89
               c0,1.74,1.01,3.16,2.32,3.16h5.77c1.31,0,2.31-1.42,2.31-3.16V75.95
               C57.2,75.65,58.8,73.95,58.8,71.88z"/>
      <circle cx="50" cy="48.31" r="5.25"/>
    </g>
    <g transform="translate(30,-10)">
      <path d="M58.8,71.88V59.11c0-2.27-1.89-4.06-4.16-4.06h-9.27c-2.27,0-4.17,1.78-4.17,4.06v12.77c0,2.06,1.6,3.77,3.6,4.07v10.89
               c0,1.74,1.01,3.16,2.32,3.16h5.77c1.31,0,2.31-1.42,2.31-3.16V75.95
               C57.2,75.65,58.8,73.95,58.8,71.88z"/>
      <circle cx="50" cy="48.31" r="5.25"/>
    </g>
    <g transform="translate(50,-10)">
      <path d="M58.8,71.88V59.11c0-2.27-1.89-4.06-4.16-4.06h-9.27c-2.27,0-4.17,1.78-4.17,4.06v12.77c0,2.06,1.6,3.77,3.6,4.07v10.89
               c0,1.74,1.01,3.16,2.32,3.16h5.77c1.31,0,2.31-1.42,2.31-3.16V75.95
               C57.2,75.65,58.8,73.95,58.8,71.88z"/>
      <circle cx="50" cy="48.31" r="5.25"/>
    </g>
    <g transform="translate(70,-10)">
      <path d="M58.8,71.88V59.11c0-2.27-1.89-4.06-4.16-4.06h-9.27c-2.27,0-4.17,1.78-4.17,4.06v12.77c0,2.06,1.6,3.77,3.6,4.07v10.89
               c0,1.74,1.01,3.16,2.32,3.16h5.77c1.31,0,2.31-1.42,2.31-3.16V75.95
               C57.2,75.65,58.8,73.95,58.8,71.88z"/>
      <circle cx="50" cy="48.31" r="5.25"/>
    </g>
    <g transform="translate(90,-10)">
      <path d="M58.8,71.88V59.11c0-2.27-1.89-4.06-4.16-4.06h-9.27c-2.27,0-4.17,1.78-4.17,4.06v12.77c0,2.06,1.6,3.77,3.6,4.07v10.89
               c0,1.74,1.01,3.16,2.32,3.16h5.77c1.31,0,2.31-1.42,2.31-3.16V75.95
               C57.2,75.65,58.8,73.95,58.8,71.88z"/>
      <circle cx="50" cy="48.31" r="5.25"/>
    </g>
    <g transform="translate(110,-10)">
      <path d="M58.8,71.88V59.11c0-2.27-1.89-4.06-4.16-4.06h-9.27c-2.27,0-4.17,1.78-4.17,4.06v12.77c0,2.06,1.6,3.77,3.6,4.07v10.89
               c0,1.74,1.01,3.16,2.32,3.16h5.77c1.31,0,2.31-1.42,2.31-3.16V75.95
               C57.2,75.65,58.8,73.95,58.8,71.88z"/>
      <circle cx="50" cy="48.31" r="5.25"/>
    </g>
    <g transform="translate(0,0)">
      <path d="M58.8,71.88V59.11c0-2.27-1.89-4.06-4.16-4.06h-9.27c-2.27,0-4.17,1.78-4.17,4.06v12.77c0,2.06,1.6,3.77,3.6,4.07v10.89
               c0,1.74,1.01,3.16,2.32,3.16h5.77c1.31,0,2.31-1.42,2.31-3.16V75.95
               C57.2,75.65,58.8,73.95,58.8,71.88z"/>
      <circle cx="50" cy="48.31" r="5.25"/>
    </g>
    <g transform="translate(20,0)">
      <path d="M58.8,71.88V59.11c0-2.27-1.89-4.06-4.16-4.06h-9.27c-2.27,0-4.17,1.78-4.17,4.06v12.77c0,2.06,1.6,3.77,3.6,4.07v10.89
               c0,1.74,1.01,3.16,2.32,3.16h5.77c1.31,0,2.31-1.42,2.31-3.16V75.95
               C57.2,75.65,58.8,73.95,58.8,71.88z"/>
      <circle cx="50" cy="48.31" r="5.25"/>
    </g>
    <g transform="translate(40,0)">
      <path d="M58.8,71.88V59.11c0-2.27-1.89-4.06-4.16-4.06h-9.27c-2.27,0-4.17,1.78-4.17,4.06v12.77c0,2.06,1.6,3.77,3.6,4.07v10.89
               c0,1.74,1.01,3.16,2.32,3.16h5.77c1.31,0,2.31-1.42,2.31-3.16V75.95
               C57.2,75.65,58.8,73.95,58.8,71.88z"/>
      <circle cx="50" cy="48.31" r="5.25"/>
    </g>
    <g transform="translate(60,0)">
      <path d="M58.8,71.88V59.11c0-2.27-1.89-4.06-4.16-4.06h-9.27c-2.27,0-4.17,1.78-4.17,4.06v12.77c0,2.06,1.6,3.77,3.6,4.07v10.89
               c0,1.74,1.01,3.16,2.32,3.16h5.77c1.31,0,2.31-1.42,2.31-3.16V75.95
               C57.2,75.65,58.8,73.95,58.8,71.88z"/>
      <circle cx="50" cy="48.31" r="5.25"/>
    </g>
    <g transform="translate(80,0)">
      <path d="M58.8,71.88V59.11c0-2.27-1.89-4.06-4.16-4.06h-9.27c-2.27,0-4.17,1.78-4.17,4.06v12.77c0,2.06,1.6,3.77,3.6,4.07v10.89
               c0,1.74,1.01,3.16,2.32,3.16h5.77c1.31,0,2.31-1.42,2.31-3.16V75.95
               C57.2,75.65,58.8,73.95,58.8,71.88z"/>
      <circle cx="50" cy="48.31" r="5.25"/>
    </g>
    <g transform="translate(100,0)">
      <path d="M58.8,71.88V59.11c0-2.27-1.89-4.06-4.16-4.06h-9.27c-2.27,0-4.17,1.78-4.17,4.06v12.77c0,2.06,1.6,3.77,3.6,4.07v10.89
               c0,1.74,1.01,3.16,2.32,3.16h5.77c1.31,0,2.31-1.42,2.31-3.16V75.95
               C57.2,75.65,58.8,73.95,58.8,71.88z"/>
      <circle cx="50" cy="48.31" r="5.25"/>
    </g>
  </g>
</svg>