<svg xmlns="http://www.w3.org/2000/svg" xmlns:xlink="http://www.w3.org/1999/xlink" version="1.1" x="0px" y="0px"
     viewBox="0 0 72 90" style="enable-background:new 0 0 72 72;" xml:space="preserve"><path d="M28.85,13.77c-1.55-0.36-2.73-1.78-2.73-3.45c0-1.9,1.55-3.45,3.45-3.45c2.02,0,3.33,1.43,3.57,2.97  c0.24,1.9-1.07,3.57-2.73,3.92v8.32c0.36-0.12,0.83-0.36,1.31-0.48c0,0,0.24-0.12,0.24-0.36l0.36-1.66  c0.12-0.83,0.95-1.55,1.78-1.55h3.8c0.83,0,1.66,0.71,1.78,1.55l0.36,1.66c0,0.24,0.12,0.36,0.24,0.36c0.12,0,1.31,0.48,1.43,0.48  v-8.32c-1.66-0.36-2.85-1.78-2.85-3.45c0-1.9,1.55-3.45,3.57-3.45c1.9,0,3.45,1.55,3.45,3.45c0,1.66-1.19,3.09-2.73,3.45v9.03  c0.12,0.12,0.24,0,0.36,0l1.55-1.07c0.36-0.24,0.83-0.36,1.31-0.24v-1.55c0-0.24,0.12-0.48,0.36-0.59l4.4-3.33  c-0.59-1.31-0.36-2.85,0.71-3.92c1.55-1.55,4.04-1.31,5.35,0.48c0.83,1.31,0.95,3.09-0.36,4.52c-1.31,1.31-3.45,1.31-4.75,0.12  l-4.28,3.09v2.14l2.26,2.14c0.59,0.71,0.71,1.66,0.24,2.38l-1.07,1.55c0,0.12-0.12,0.24,0,0.36c0.48,0.83,0.83,1.78,1.19,2.73  l5.59-5.47c0.12-0.12,0.24-0.24,0.48-0.24h3.45c0.36-1.55,1.78-2.73,3.45-2.73c2.61,0,4.4,2.97,2.97,5.35  c-0.59,0.95-1.66,1.66-2.97,1.66c-1.66,0-3.09-1.19-3.45-2.73h-3.21l-4.87,4.75l0.59,0.12c0.83,0.12,1.55,0.95,1.55,1.78v3.8  c0,0.83-0.71,1.66-1.55,1.78l-0.59,0.12l4.87,4.75h3.21c0.36-1.55,1.78-2.73,3.45-2.73c1.9,0,3.45,1.55,3.45,3.57  c0,1.9-1.55,3.45-3.45,3.45c-1.66,0-3.09-1.19-3.45-2.85h-3.45c-0.36,0-0.48-0.12-0.48-0.12l-5.59-5.47  c-0.12,0.12-0.48,1.31-0.48,1.31c-0.24,0.48-0.48,0.95-0.71,1.43c-0.12,0.12,0,0.24,0,0.36l1.07,1.43c0.48,0.83,0.36,1.78-0.24,2.38  l-2.26,2.26v2.02l4.28,3.21c0.59-0.59,1.31-0.83,2.26-0.83c1.9,0,3.45,1.55,3.45,3.45c0,1.9-1.55,3.45-3.45,3.45  c-0.95,0-1.9-0.36-2.5-0.95c-1.07-1.07-1.31-2.61-0.71-3.92l-4.4-3.45c-0.24-0.12-0.36-0.36-0.36-0.59V50.5  c-0.48,0-0.95,0-1.31-0.36l-1.55-0.95c-0.12-0.12-0.24-0.12-0.36,0v9.03c1.55,0.36,2.73,1.78,2.73,3.45c0,1.9-1.55,3.45-3.45,3.45  c-2.02,0-3.57-1.55-3.57-3.45c0-1.66,1.19-3.09,2.85-3.45v-8.32c-0.48,0.12-0.95,0.24-1.43,0.48c-0.12,0-0.24,0.12-0.24,0.24  l-0.36,1.78c-0.12,0.83-0.95,1.55-1.78,1.55h-3.8c-0.83,0-1.66-0.71-1.78-1.55l-0.36-1.78c0-0.12-0.12-0.24-0.24-0.24  c-0.48-0.24-0.95-0.36-1.31-0.48v8.32c1.55,0.36,2.73,1.78,2.73,3.45c0,1.9-1.55,3.45-3.57,3.45c-1.9,0-3.45-1.55-3.45-3.45  c0-1.66,1.19-3.09,2.73-3.45v-9.03c-0.12-0.12-0.24,0-0.48,0.12l-1.31,0.83c-0.36,0.36-0.83,0.36-1.31,0.36h-0.12v1.43  c0,0.24-0.12,0.48-0.36,0.59l-4.4,3.45c0.24,0.36,0.36,0.95,0.36,1.43c0,1.9-1.55,3.45-3.57,3.45c-1.9,0-3.45-1.55-3.45-3.45  c0-1.9,1.55-3.45,3.45-3.45c0.95,0,1.78,0.24,2.38,0.83l4.16-3.21v-2.02l-2.26-2.26c-0.59-0.59-0.71-1.55-0.12-2.38l0.83-1.31  c0.12-0.12,0.24-0.36,0.12-0.48c-0.48-0.95-0.83-1.78-1.07-2.73l-5.59,5.47c-0.24,0.12-0.36,0.12-0.59,0.12h-3.45  c-0.24,1.66-1.78,2.85-3.45,2.85c-1.9,0-3.45-1.55-3.45-3.45c0-2.02,1.55-3.57,3.45-3.57c1.66,0,3.09,1.19,3.45,2.73h3.21l4.87-4.75  l-0.59-0.12c-0.83-0.12-1.55-0.95-1.55-1.78v-3.8c0-0.83,0.71-1.66,1.55-1.78l0.59-0.12l-4.87-4.75h-3.21  c-0.36,1.55-1.78,2.73-3.45,2.73c-1.9,0-3.45-1.55-3.45-3.57c0-1.9,1.55-3.45,3.45-3.45c1.66,0,3.21,1.19,3.45,2.73h3.45  c0.36,0,0.48,0.24,0.59,0.24l5.59,5.47c0.24-0.95,0.59-1.9,1.07-2.73c0.12-0.12,0.12-0.24,0-0.36l-0.95-1.55  c-0.59-0.71-0.48-1.66,0.12-2.38l2.26-2.14v-2.14l-4.16-3.09c-0.59,0.59-1.43,0.83-2.38,0.83c-1.9,0-3.45-1.55-3.45-3.45  c0-1.9,1.55-3.57,3.45-3.57c2.02,0,3.57,1.66,3.57,3.57c0,0.48-0.12,0.95-0.36,1.43l4.4,3.33c0.24,0.12,0.36,0.36,0.36,0.59v1.55  c0.48-0.12,0.95,0,1.43,0.24l1.43,1.07c0.12,0,0.24,0.12,0.36,0V13.77z M29.57,12.35c1.31,0,2.38-1.07,2.02-2.38  c-0.12-0.95-0.83-1.66-2.02-1.66c-1.07,0-2.02,0.95-2.02,2.02C27.55,11.52,28.5,12.35,29.57,12.35L29.57,12.35z M27.55,61.67  c0,1.07,0.95,2.02,2.02,2.02c1.19,0,2.14-0.95,2.14-2.02c0-1.19-0.95-2.14-2.14-2.14C28.5,59.53,27.55,60.48,27.55,61.67  L27.55,61.67z M44.42,10.33c0-1.07-0.95-2.02-2.02-2.02c-1.19,0-2.14,0.95-2.14,2.02c0,1.19,0.95,2.02,2.14,2.02  C43.47,12.35,44.42,11.52,44.42,10.33L44.42,10.33z M42.4,59.53c-1.19,0-2.14,0.95-2.14,2.14c0,1.07,0.95,2.02,2.14,2.02  c1.07,0,2.02-0.95,2.02-2.02C44.42,60.48,43.47,59.53,42.4,59.53L42.4,59.53z M17.68,16.63c1.19,0,2.14-0.95,2.14-2.02  c0-1.19-0.95-2.02-2.14-2.02c-1.07,0-2.02,0.83-2.02,2.02C15.66,15.68,16.61,16.63,17.68,16.63L17.68,16.63z M15.66,57.39  c0,1.19,0.95,2.02,2.02,2.02c1.19,0,2.14-0.83,2.14-2.02c0-1.19-0.95-2.02-2.14-2.02C16.61,55.37,15.66,56.21,15.66,57.39  L15.66,57.39z M55.72,16.03c0.71-0.71,0.71-1.55,0.48-2.26c-0.59-1.31-2.38-1.66-3.33-0.59c-0.71,0.59-0.83,1.55-0.36,2.38  C53.1,16.74,54.76,16.98,55.72,16.03L55.72,16.03z M54.29,55.37c-1.78,0-2.73,2.14-1.43,3.45c0.36,0.36,0.83,0.59,1.43,0.59  c1.07,0,2.02-0.83,2.02-2.02C56.31,56.21,55.36,55.37,54.29,55.37L54.29,55.37z M8.65,28.75c1.19,0,2.14-0.95,2.14-2.14  c0-1.07-0.95-2.02-2.14-2.02c-1.07,0-2.02,0.95-2.02,2.02C6.63,27.8,7.58,28.75,8.65,28.75L8.65,28.75z M6.63,45.39  c0,1.07,0.95,2.02,2.02,2.02c1.19,0,2.14-0.95,2.14-2.02c0-1.19-0.95-2.14-2.14-2.14C7.58,43.25,6.63,44.2,6.63,45.39L6.63,45.39z   M63.32,24.59c-1.19,0-2.02,0.95-2.02,2.02c0,1.19,0.83,2.14,2.02,2.14c0.71,0,1.43-0.48,1.78-1.07  C65.82,26.25,64.87,24.59,63.32,24.59L63.32,24.59z M63.32,43.25c-1.19,0-2.02,0.95-2.02,2.14c0,1.07,0.83,2.02,2.02,2.02  c1.07,0,2.02-0.95,2.02-2.02C65.34,44.2,64.39,43.25,63.32,43.25L63.32,43.25z M35.99,27.8c-4.52,0-8.08,3.68-8.08,8.2  c0,4.52,3.57,8.08,8.08,8.08c4.52,0,8.2-3.57,8.2-8.08C44.19,31.48,40.5,27.8,35.99,27.8L35.99,27.8z M35.99,26.37  c5.35,0,9.63,4.28,9.63,9.63c0,5.23-4.28,9.63-9.63,9.63c-5.23,0-9.63-4.4-9.63-9.63C26.36,30.65,30.76,26.37,35.99,26.37  L35.99,26.37z M38.6,21.62l-0.36-1.78c0-0.12-0.12-0.36-0.36-0.36h-3.8c-0.12,0-0.36,0.24-0.36,0.36l-0.36,1.78  c-0.12,0.71-0.59,1.19-1.31,1.43c0,0-2.14,0.83-2.5,1.07c-0.59,0.24-1.31,0.24-1.9-0.12l-1.43-1.07c-0.24-0.12-0.36,0-0.59,0.12  l-2.61,2.61c0,0-0.24,0.24,0,0.59l0.95,1.43c0.36,0.59,0.48,1.31,0.12,1.9c-0.48,0.83-0.83,1.66-1.07,2.5  c-0.24,0.48-0.36,1.07-1.43,1.31l-1.66,0.36c-0.24,0-0.36,0.12-0.36,0.36v3.8c0,0.12,0.12,0.36,0.36,0.36  c0.71,0.12,2.02,0.24,2.61,0.83c0.48,0.36,1.07,2.38,1.55,3.33c0.36,0.71,0.24,1.43-0.24,2.02l-0.83,1.31  c-0.12,0.24-0.12,0.36,0,0.59l2.61,2.61c0.12,0.12,0.48,0.12,0.59,0L27.66,48c0.24-0.12,0.83-0.71,1.9-0.12  c0.83,0.48,1.66,0.83,2.5,1.07c0.71,0.24,1.19,0.71,1.31,1.43l0.36,1.66c0,0.24,0.24,0.36,0.36,0.36h3.8c0.24,0,0.36-0.12,0.36-0.36  l0.36-1.66c0.12-0.71,0.59-1.19,1.31-1.43c0.83-0.24,1.66-0.59,2.5-1.07c0.59-0.36,1.31-0.24,1.9,0.12l1.43,0.95  c0.24,0.12,0.48,0.12,0.59,0l2.61-2.61c0.12,0,0.12-0.48,0.12-0.59l-1.07-1.43c-0.36-0.59-0.36-1.31-0.12-1.9  c0.48-0.83,0.83-1.66,1.07-2.5c0.24-0.71,0.36-1.19,1.43-1.31l1.78-0.36c0.12,0,0.36-0.24,0.36-0.36v-3.8  c0-0.24-0.24-0.36-0.36-0.36l-1.78-0.36c-0.95,0-1.31-0.95-1.43-1.31c0,0-0.83-2.14-1.07-2.5c-0.24-0.59-0.24-1.31,0.12-1.9  l1.07-1.43c0.12-0.24,0-0.48-0.12-0.59l-2.61-2.61c-0.12-0.12-0.36-0.24-0.59-0.12L44.31,24c-0.24,0.12-0.59,0.24-0.95,0.24  c-0.48,0.12-2.5-0.83-3.8-1.31C38.72,22.69,38.72,22.21,38.6,21.62L38.6,21.62z"/>
</svg>