<svg xmlns="http://www.w3.org/2000/svg" version="1.1" viewBox="-5.0 -10.0 110.0 135.0">
    <path d="m86.059 32.145c2.75 0 4.9883-2.2383 4.9883-4.9883s-2.2383-4.9883-4.9883-4.9883c-2.1602 0-3.9883 1.3906-4.6797 3.3164h-8.8164l-1.9141-1.9141c-0.46875-0.46875-1.1875-0.57422-1.7734-0.26172l-5.9492 3.1914c-0.12891-0.066406-0.26172-0.11719-0.39062-0.17969l6.1406-11.469h12.703c0.69141 1.9258 2.5156 3.3164 4.6797 3.3164 2.75 0 4.9883-2.2383 4.9883-4.9883s-2.2383-4.9883-4.9883-4.9883c-2.2852 0-4.1992 1.5547-4.7852 3.6562h-13.5c-0.55469 0-1.0625 0.30469-1.3242 0.79297l-6.7031 12.527c-0.23047-0.078125-0.46094-0.17578-0.69141-0.24609l-1.9453-6.4453c-0.19141-0.63281-0.77734-1.0664-1.4375-1.0664h-3.0312v-3.1758c0-0.30469-0.09375-0.60156-0.26562-0.85547-2.2422-3.2461-5.9453-5.1836-9.9102-5.1836-5.9648 0-10.945 4.3867-11.887 10.109-0.76953-0.14453-1.5508-0.21875-2.3438-0.21875-7.0039 0-12.699 5.6953-12.699 12.699 0 1.6445 0.32812 3.2852 0.96094 4.8242-5.1367 2.3008-8.4766 7.3906-8.4766 13.145 0 5.9023 3.5898 11.137 8.9414 13.348-0.92969 1.7852-1.4297 3.8047-1.4297 5.8438 0 6.3828 4.7188 11.711 10.93 12.59 1.8008 6.2383 7.5859 10.656 14.156 10.656 4.5625 0 8.9414-2.1602 11.711-5.7773 0.19922-0.26172 0.30859-0.58203 0.30859-0.91406v-2.5234h3.1758c0.66406 0 1.2461-0.43359 1.4375-1.0703l1.9531-6.4883c0.18359-0.058594 0.36328-0.13672 0.54688-0.20312l6.7031 12.523c0.26172 0.48828 0.76953 0.79297 1.3242 0.79297h13.5c0.58594 2.1016 2.4961 3.6562 4.7852 3.6562 2.75 0 4.9883-2.2383 4.9883-4.9883s-2.2383-4.9883-4.9883-4.9883c-2.1602 0-3.9883 1.3906-4.6797 3.3164h-12.707l-6.1406-11.473c0.16797-0.082032 0.33984-0.14844 0.50781-0.23438l5.957 3.168c0.57812 0.30859 1.3008 0.20312 1.7695-0.26562l2.4219-2.4219h8.0859c0.58594 2.1016 2.4961 3.6562 4.7852 3.6562 2.75 0 4.9883-2.2383 4.9883-4.9883s-2.2383-4.9883-4.9883-4.9883c-2.1602 0-3.9883 1.3906-4.6797 3.3164h-5.1875l1.0625-1.0625c0.46875-0.46875 0.57422-1.1875 0.26172-1.7695l-3.1953-5.9844c0.64453-1.2617 1.1758-2.5586 1.582-3.8711l6.4453-1.9453c0.63281-0.19141 1.0664-0.77734 1.0664-1.4375v-9.1836c0-0.66016-0.43359-1.2461-1.0625-1.4375l-6.4922-1.9805c-0.4375-1.3398-0.97656-2.6289-1.6172-3.8477l3.1836-5.9141c0.31641-0.58594 0.21094-1.3047-0.26172-1.7734l-1.6016-1.6016h5.7031c0.58984 2.1016 2.5 3.6562 4.7891 3.6562zm0-20.949c1.0742 0 1.9844 0.91016 1.9844 1.9844 0 1.0742-0.91016 1.9844-1.9844 1.9844-1.0938 0-1.9844-0.89062-1.9844-1.9844s0.89062-1.9844 1.9844-1.9844zm0 73.02c1.0742 0 1.9844 0.91016 1.9844 1.9844s-0.91016 1.9844-1.9844 1.9844c-1.0938 0-1.9844-0.89062-1.9844-1.9844 0-1.0742 0.90625-1.9844 1.9844-1.9844zm0-14.23c1.0742 0 1.9844 0.91016 1.9844 1.9844s-0.91016 1.9844-1.9844 1.9844c-1.0938 0-1.9844-0.89062-1.9844-1.9844s0.89062-1.9844 1.9844-1.9844zm-33.422-35.836c7.9102 0.75781 14.117 7.4375 14.117 15.543 0 8.1055-6.207 14.785-14.117 15.543zm-3.0039 49.824c-2.2148 2.6445-5.5469 4.2109-9.0156 4.2109-5.2422 0-9.8516-3.5352-11.273-8.5234l5.8125-5.125c0.74609 0.44531 1.6094 0.71875 2.543 0.71875 2.75 0 4.9883-2.2383 4.9883-4.9883s-2.2383-4.9883-4.9883-4.9883-4.9883 2.2383-4.9883 4.9883c0 0.72656 0.16406 1.4102 0.44141 2.0312l-5.9883 5.2812c-4.8789-0.55078-8.625-4.668-8.625-9.6367 0-1.832 0.52734-3.6367 1.4961-5.1602h5.5625c0.64062 2.0156 2.5078 3.4883 4.7305 3.4883 2.75 0 4.9883-2.2383 4.9883-4.9883s-2.2383-4.9883-4.9883-4.9883c-2.2227 0-4.0898 1.4727-4.7305 3.4883h-6.1328c-4.9766-1.3633-8.4414-5.8711-8.4414-11.027 0-4.9492 3.1289-9.2734 7.7969-10.828h11.723l3.3633 3.4648c-0.38672 0.71094-0.62891 1.5117-0.62891 2.375 0 2.7344 2.2383 4.9609 4.9883 4.9609s4.9883-2.2266 4.9883-4.9609c0-2.75-2.2383-4.9883-4.9883-4.9883-0.78906 0-1.5273 0.20312-2.1953 0.53125l-3.8164-3.9297c-0.28125-0.29297-0.67188-0.45703-1.0781-0.45703h-11.684c-0.61719-1.3125-0.95703-2.7227-0.95703-4.1406 0-5.3477 4.3477-9.6953 9.6953-9.6953 1.0469 0 2.0781 0.17187 3.0625 0.5l5.0586 3.0781c-0.09375 0.38281-0.15625 0.77344-0.15625 1.1836 0 2.75 2.2383 4.9883 4.9883 4.9883s4.9883-2.2383 4.9883-4.9883-2.2383-4.9883-4.9883-4.9883c-1.2539 0-2.3828 0.48047-3.2617 1.2422l-4.4609-2.7148c0.44141-4.5898 4.3125-8.1953 8.9961-8.1953 2.8242 0 5.4727 1.3086 7.1719 3.5195zm-13.918-13.703c0-1.0742 0.91016-1.9844 1.9844-1.9844s1.9844 0.91016 1.9844 1.9844c0 1.0938-0.89062 1.9844-1.9844 1.9844s-1.9844-0.89062-1.9844-1.9844zm-7.3711-8.9883c0-1.0938 0.89062-1.9844 1.9844-1.9844s1.9844 0.89062 1.9844 1.9844c0 1.0742-0.91016 1.9844-1.9844 1.9844-1.0742 0.003906-1.9844-0.90625-1.9844-1.9844zm9.9219-19.5c1.0938 0 1.9844 0.89062 1.9844 1.9844 0 1.0781-0.89062 1.957-1.9844 1.957s-1.9844-0.87891-1.9844-1.957c0-1.0938 0.89062-1.9844 1.9844-1.9844zm2.9219-17.914c1.0742 0 1.9844 0.91016 1.9844 1.9844 0 1.0938-0.89062 1.9844-1.9844 1.9844s-1.9844-0.89063-1.9844-1.9844c-0.003906-1.0781 0.90625-1.9844 1.9844-1.9844zm30.027 13.203c-0.24609 0.45703-0.23828 1.0078 0.019531 1.457 0.83594 1.457 1.5039 3.0469 1.9883 4.7188 0.14062 0.48828 0.51953 0.87109 1.0078 1.0195l6.1914 1.8867v6.957l-6.1602 1.8594c-0.49609 0.14844-0.88281 0.54688-1.0156 1.0469-0.43359 1.6094-1.0859 3.2031-1.9336 4.7383-0.24609 0.44531-0.25 0.98438-0.011719 1.4336l3.0469 5.707-4.918 4.918-5.6797-3.0195c-0.44922-0.23828-0.98828-0.23438-1.4336 0.011719-1.4961 0.82812-3.0938 1.4922-4.7383 1.9688-0.48828 0.14062-0.87109 0.52344-1.0195 1.0117l-1.8594 6.1875h-2.0586l-0.003906-10.734c9.5664-0.76953 17.121-8.7852 17.121-18.547 0-9.7617-7.5547-17.777-17.121-18.547v-10.738h1.918l1.8594 6.1602c0.14844 0.49609 0.54688 0.88281 1.0469 1.0156 1.6133 0.43359 3.207 1.0859 4.7383 1.9336 0.44531 0.24609 0.98828 0.25 1.4375 0.011719l5.6797-3.0469 4.9414 4.9414zm14.844-11.898c1.0742 0 1.9844 0.91016 1.9844 1.9844s-0.91016 1.9844-1.9844 1.9844c-1.0938 0-1.9844-0.89062-1.9844-1.9844 0-1.0977 0.89062-1.9844 1.9844-1.9844z"
          fill="black" stroke="black" stroke-width="0"/>
</svg>