<svg xmlns="http://www.w3.org/2000/svg" version="1.1" viewBox="-5.0 -10.0 110.0 135.0">
    <path d="m41.035 65.258c0.39062 0.39063 0.38672 1.0234-0.007812 1.4141-2.5195 2.4961-5.8984 3.9492-9.2656 3.9805h-0.070313c-3.5859 0-7.0508-1.6719-9.0625-4.375-2.1641-2.9102-2.4922-6.9141-0.82422-9.9648 0.26562-0.48438 0.87109-0.66406 1.3594-0.39844 0.48438 0.26563 0.66406 0.875 0.39844 1.3594-1.2812 2.3398-1.0039 5.5547 0.67578 7.8125 1.6367 2.2031 4.4883 3.5664 7.4531 3.5664h0.058594c2.8477-0.027344 5.7188-1.2656 7.8711-3.3984 0.39453-0.39062 1.0234-0.39062 1.4141 0.003906zm-4.957 5.7109c-0.42578 0.35156-0.48438 0.98438-0.13281 1.4062 0.84766 1.0234 1.2852 2.375 1.2031 3.6992-0.082032 1.3164-0.69531 2.6016-1.6758 3.5234-0.40234 0.37891-0.42188 1.0117-0.042968 1.4141 0.19531 0.21094 0.46094 0.31641 0.72656 0.31641 0.24609 0 0.49219-0.089844 0.68359-0.27344 1.3477-1.2656 2.1875-3.0352 2.3047-4.8555 0.11719-1.8281-0.48828-3.6875-1.6562-5.1016-0.35547-0.42188-0.98438-0.48047-1.4102-0.12891zm-11.25-33.457c-0.38281-2.9648 0.51562-6.1289 2.4062-8.4609 0.34766-0.42969 0.28125-1.0586-0.14844-1.4062-0.42969-0.34766-1.0586-0.28125-1.4062 0.14844-2.2617 2.793-3.293 6.4297-2.8359 9.9766 0.042969 0.33594 0.11328 0.66797 0.18359 0.99609-3.5156 1.0781-6.3281 4.1641-6.9648 7.7305-0.097656 0.54297 0.26562 1.0625 0.80859 1.1602 0.058594 0.011719 0.11719 0.015625 0.17578 0.015625 0.47656 0 0.89844-0.33984 0.98438-0.82422 0.50781-2.8359 2.7578-5.2734 5.5664-6.1406 0.89844 2.3672 2.4609 4.4844 4.5312 6.0273 0.17969 0.13281 0.39062 0.19922 0.59766 0.19922 0.30469 0 0.60547-0.14062 0.80469-0.40234 0.32812-0.44141 0.23828-1.0703-0.20312-1.3984-2.4375-1.8164-4.1211-4.6641-4.5-7.6211zm49.625-1.3359-5.5625 4.2812c0.22266 0.57422 0.43359 1.1523 0.61328 1.7422h6.1797c0.77344 0 1.3984 0.62891 1.3984 1.3984v11.148c0 0.77344-0.62891 1.3984-1.3984 1.3984h-5.7812c-0.19531 0.80469-0.44531 1.5938-0.71875 2.3789l5.2734 4.0547 7.9922-0.16797c0.51562-1.4648 1.8984-2.5273 3.5352-2.5273 2.0742 0 3.7578 1.6875 3.7578 3.7578 0 2.0742-1.6875 3.7617-3.7578 3.7617-1.8086 0-3.3242-1.2852-3.6797-2.9922l-8.5117 0.17578-5.3711-4.1328c-0.26172 0.58984-0.53906 1.1719-0.84375 1.7422l3.9648 3.9648c0.54688 0.54688 0.54688 1.4375 0 1.9844l-7.8906 7.8906c-0.54688 0.54688-1.4375 0.54688-1.9844 0l-3.75-3.75c-0.86719 0.51953-1.7734 0.98438-2.7031 1.3984l4.5469 8.8242c0.070312 0.13672 0.23438 0.20703 0.35156 0.21875l13.629-0.16797c0.5-1.4922 1.8945-2.582 3.5508-2.582 2.0742 0 3.7578 1.6875 3.7578 3.7617s-1.6875 3.7578-3.7578 3.7578c-1.7891 0-3.2852-1.2617-3.6641-2.9375l-13.484 0.16797h-0.042969c-0.88281 0-1.7109-0.50781-2.1172-1.3047l-4.5469-8.8281c-0.027344-0.054688-0.03125-0.11328-0.046875-0.16797-0.57422 0.20703-1.1523 0.39453-1.7422 0.5625v5.1875c0 0.77344-0.62891 1.3984-1.3984 1.3984h-5.3203-0.011719c-2.0547 2.2383-5.1094 3.5234-8.1758 3.5234-0.99609 0-1.9922-0.13281-2.9531-0.41406-1.3398-0.38672-2.4492-1.0039-3.3008-1.8359-0.78125-0.76172-1.2969-1.707-1.4805-2.6875-0.73047 0.18359-1.4805 0.28516-2.2305 0.28516-2.1406 0-4.2812-0.73047-5.9062-2.1094-2.2812-1.9336-3.4219-5.0273-3.0039-7.9375-3.2852-1.1992-5.8242-4.0195-6.5859-7.4023-0.625-2.7617 0.015625-5.7344 1.6133-8.0352-4.6367-6.8906-2.9961-16.676 3.6562-21.73 1.8984-7.6992 5.8164-12.809 10.527-13.699 0.77344-0.14453 1.5391-0.16797 2.2969-0.078125 0.82812-2.3203 3.0469-4.1055 6.1094-4.832 3.0742-0.73047 7.0859-0.3125 9.4688 2.125h5.293c0.77344 0 1.3984 0.62891 1.3984 1.3984v6.6328c0.60547 0.17188 1.2031 0.37109 1.7969 0.58594l4.543-8.8203c0.41406-0.80469 1.2305-1.2891 2.168-1.3008l13.477 0.16797c0.375-1.6797 1.875-2.9375 3.6641-2.9375 2.0742 0 3.7578 1.6875 3.7578 3.7617s-1.6875 3.7578-3.7578 3.7578c-1.6602 0-3.0547-1.0859-3.5508-2.5781l-13.621-0.17187c-0.16406 0-0.28906 0.082031-0.35547 0.21484l-4.4648 8.6641c0.57422 0.26172 1.1445 0.53516 1.7031 0.83984l4.6641-4.6758c0.54688-0.54688 1.4375-0.54688 1.9844 0l7.8906 7.9023c0.54688 0.54688 0.54688 1.4336 0 1.9844l-4.4883 4.4883c0.36719 0.60938 0.69531 1.2461 1.0117 1.8945l5.7266-4.4062 8.5469 0.1875c0.39844-1.6484 1.875-2.8789 3.6445-2.8789 2.0742 0 3.7578 1.6875 3.7578 3.7617s-1.6875 3.7578-3.7578 3.7578c-1.6797 0-3.0898-1.1133-3.5703-2.6367zm9.7695-0.94531c0 0.96875 0.78906 1.7578 1.7617 1.7578 0.96875 0 1.7578-0.78906 1.7578-1.7578s-0.78906-1.7617-1.7578-1.7617-1.7617 0.78906-1.7617 1.7617zm-8.6875-18.98c0 0.96875 0.78906 1.7578 1.7617 1.7578 0.96875 0 1.7578-0.78906 1.7578-1.7578s-0.78906-1.7617-1.7578-1.7617c-0.97266 0-1.7617 0.79297-1.7617 1.7617zm0 67.5c0 0.96875 0.78906 1.7578 1.7617 1.7578 0.96875 0 1.7578-0.78906 1.7578-1.7578s-0.78906-1.7617-1.7578-1.7617c-0.97266 0-1.7617 0.79297-1.7617 1.7617zm8.6875-20.102c0 0.96875 0.78906 1.7617 1.7617 1.7617 0.96875 0 1.7578-0.78906 1.7578-1.7617 0-0.96875-0.78906-1.7578-1.7578-1.7578s-1.7617 0.78906-1.7617 1.7578zm-38.566-0.66797c6.6523-0.53125 11.91-6.1211 11.91-12.898 0-6.7695-5.2578-12.359-11.91-12.898v4.3125c4.2812 0.51562 7.6211 4.1719 7.6211 8.582s-3.3359 8.0742-7.6211 8.6016zm5.6172-12.898c0-3.3086-2.4414-6.0703-5.6211-6.5703v13.156c3.1797-0.51172 5.6211-3.2773 5.6211-6.5859zm-7.75 30.062v-25.785c-0.76563-0.35938-1.5117-0.76172-2.207-1.2266-1.2852 1.0039-2.9258 1.5391-4.5586 1.5391-1.082 0-2.1562-0.23047-3.1289-0.71094-0.49609-0.24609-0.69531-0.84375-0.45312-1.3398 0.24609-0.49609 0.84766-0.69531 1.3398-0.45312 1.582 0.78516 3.625 0.61719 5.1328-0.32031-1.9961-1.7344-3.5781-3.9141-4.5508-6.3789-0.20312-0.51562 0.050782-1.0938 0.5625-1.2969 0.51562-0.20312 1.0938 0.050781 1.2969 0.5625 1.2148 3.082 3.6094 5.75 6.5586 7.3906l0.007813-14.27c-2.1133-3.2695-5.8086-5.6172-9.7227-6.1445-0.54688-0.074219-0.92969-0.57813-0.85938-1.125 0.074219-0.54688 0.58203-0.92578 1.125-0.85938 3.6328 0.48828 6.9961 2.2695 9.457 4.8984v-16.465-0.011718c-1.5977-1.6211-4.6289-2.2734-7.582-1.5703-2.2969 0.54688-3.9727 1.7812-4.6328 3.3711 1.9492 0.75781 3.7773 2.3086 5.3555 4.5898 0.3125 0.45313 0.19922 1.0781-0.25391 1.3906s-1.0781 0.19922-1.3906-0.25391c-2.2109-3.1953-4.8984-4.6758-7.5742-4.1719-3.9258 0.74219-7.3867 5.5508-9.0391 12.551l-0.085938 0.36328-0.30078 0.21875c-5.7969 4.1875-7.4297 12.766-3.7461 18.773 0.16406-0.15625 0.32031-0.32031 0.49609-0.46484 2.9648-2.3828 7.3789-2.8672 10.734-1.1836 3.4297 1.7227 5.582 5.6523 5.1133 9.3516-0.070313 0.54688-0.56641 0.9375-1.1172 0.86719-0.54688-0.070313-0.9375-0.57031-0.86719-1.1172 0.36328-2.8828-1.3281-5.957-4.0273-7.3125-2.6797-1.3438-6.2109-0.95312-8.5859 0.95703-2.3359 1.8789-3.457 5.1172-2.7891 8.0586 0.66016 2.9219 3.0898 5.4141 6.0508 6.1953l0.96875 0.25781-0.25781 0.96875c-0.65234 2.4375 0.21875 5.1836 2.1719 6.8398 1.9609 1.6602 4.8828 2.1133 7.2695 1.1211 1.1719-0.48828 2.0547-1.2734 2.4219-2.1523 0.21094-0.50781 0.79688-0.75 1.3086-0.53906 0.50781 0.21094 0.75 0.79688 0.53906 1.3086-0.48438 1.1641-1.4492 2.1602-2.75 2.8672 0.019531 0.69922 0.35156 1.4336 0.93359 2.0039 0.61328 0.59766 1.4414 1.0508 2.4609 1.3438 3.25 0.94531 6.9648-0.14844 9.1758-2.6367zm25.531-35.945c-0.625 0-1.1641-0.40625-1.3398-1.0078-0.60156-2.082-1.4805-4.0547-2.6094-5.875-0.33203-0.58984-0.23828-1.2812 0.19922-1.7227l4.3984-4.3984-7.0469-7.0547-4.5664 4.5781c-0.48438 0.44531-1.1445 0.52734-1.6797 0.22656-1.8203-1.0352-3.7461-1.8203-5.7188-2.332-0.60156-0.13281-1.0469-0.69141-1.0469-1.3477v-6.5h-4.0586l-0.015626 16.43c7.7969 0.50391 13.996 6.9922 13.996 14.891 0 7.918-6.2148 14.414-14.023 14.895l-0.003907 3.6328c9.918-0.44922 17.848-8.3906 17.848-18.117 0-0.55078 0.44922-1 1-1s1 0.44922 1 1c0 10.828-8.8281 19.664-19.852 20.117l-0.007812 8.9844h4.1172v-5.0508c0-0.60938 0.41797-1.1641 1.0156-1.3398 2.3789-0.63281 4.5898-1.5859 6.6016-2.8477 0.55859-0.34766 1.2695-0.26953 1.7305 0.19141l3.668 3.668 7.0469-7.0469-3.8672-3.8672c-0.4375-0.4375-0.53125-1.125-0.22266-1.668 1.125-2.0117 1.9453-4.1602 2.4453-6.3789 0.13672-0.61328 0.67188-1.0664 1.3008-1.0977h5.7266v-9.9492z"/>
</svg>