<svg xmlns="http://www.w3.org/2000/svg" xmlns:xlink="http://www.w3.org/1999/xlink" version="1.1" x="0px" y="0px"
     viewBox="0 0 100 125" enable-background="new 0 0 100 100" xml:space="preserve"><g><polygon points="79.854,78.229 82.73,82.065 17.454,82.065 17.454,14.75 21.289,17.626 22.489,16.026 16.454,11.5 10.419,16.026    11.619,17.626 15.454,14.75 15.454,84.065 82.73,84.065 79.854,87.9 81.454,89.1 85.98,83.065 81.454,77.03  "/><path
        d="M73.162,14.758l-2,0.061c1.321,43.883-43.017,58.659-43.464,58.803l0.611,1.904C28.771,75.377,74.528,60.164,73.162,14.758   z"/><path
        d="M32.759,66.741c2.237,0,4.057-1.82,4.057-4.058s-1.82-4.057-4.057-4.057s-4.057,1.819-4.057,4.057   S30.521,66.741,32.759,66.741z M32.759,60.627c1.134,0,2.057,0.923,2.057,2.057c0,1.135-0.923,2.058-2.057,2.058   s-2.057-0.923-2.057-2.058C30.702,61.55,31.625,60.627,32.759,60.627z"/><path
        d="M49.064,53.153c2.237,0,4.057-1.819,4.057-4.057s-1.82-4.058-4.057-4.058c-2.237,0-4.057,1.82-4.057,4.058   S46.827,53.153,49.064,53.153z M49.064,47.039c1.134,0,2.057,0.923,2.057,2.058c0,1.134-0.923,2.057-2.057,2.057   s-2.057-0.922-2.057-2.057C47.007,47.962,47.93,47.039,49.064,47.039z"/><path
        d="M32.759,53.153c2.237,0,4.057-1.819,4.057-4.057s-1.82-4.058-4.057-4.058s-4.057,1.82-4.057,4.058   S30.521,53.153,32.759,53.153z M32.759,47.039c1.134,0,2.057,0.923,2.057,2.058c0,1.134-0.923,2.057-2.057,2.057   s-2.057-0.922-2.057-2.057C30.702,47.962,31.625,47.039,32.759,47.039z"/><path
        d="M59.934,39.566c2.237,0,4.058-1.82,4.058-4.057s-1.82-4.057-4.058-4.057s-4.057,1.82-4.057,4.057   S57.696,39.566,59.934,39.566z M59.934,33.452c1.135,0,2.058,0.923,2.058,2.057s-0.923,2.057-2.058,2.057   c-1.134,0-2.057-0.923-2.057-2.057S58.8,33.452,59.934,33.452z"/><path
        d="M77.597,29.036c2.237,0,4.058-1.82,4.058-4.057s-1.82-4.057-4.058-4.057s-4.057,1.82-4.057,4.057   S75.359,29.036,77.597,29.036z M77.597,22.921c1.135,0,2.058,0.923,2.058,2.057s-0.923,2.057-2.058,2.057   c-1.134,0-2.057-0.923-2.057-2.057S76.463,22.921,77.597,22.921z"/><path
        d="M68.426,56.211c2.237,0,4.058-1.819,4.058-4.057s-1.82-4.058-4.058-4.058s-4.057,1.82-4.057,4.058   S66.188,56.211,68.426,56.211z M68.426,50.097c1.135,0,2.058,0.923,2.058,2.058c0,1.134-0.923,2.057-2.058,2.057   c-1.134,0-2.057-0.923-2.057-2.057C66.369,51.02,67.292,50.097,68.426,50.097z"/><path
        d="M61.198,63.088c-2.237,0-4.057,1.82-4.057,4.058s1.819,4.057,4.057,4.057s4.058-1.819,4.058-4.057   S63.436,63.088,61.198,63.088z M61.198,69.202c-1.134,0-2.057-0.923-2.057-2.057c0-1.135,0.923-2.058,2.057-2.058   c1.135,0,2.058,0.923,2.058,2.058C63.256,68.279,62.333,69.202,61.198,69.202z"/><path
        d="M77.597,41.057c2.237,0,4.058-1.82,4.058-4.057c0-2.237-1.82-4.058-4.058-4.058S73.54,34.763,73.54,37   C73.54,39.237,75.359,41.057,77.597,41.057z M77.597,34.942c1.135,0,2.058,0.923,2.058,2.058c0,1.134-0.923,2.057-2.058,2.057   c-1.134,0-2.057-0.922-2.057-2.057C75.54,35.865,76.463,34.942,77.597,34.942z"/><path
        d="M78.635,49.097c0,2.237,1.819,4.057,4.057,4.057s4.058-1.819,4.058-4.057s-1.82-4.058-4.058-4.058   S78.635,46.859,78.635,49.097z M82.691,47.039c1.135,0,2.058,0.923,2.058,2.058c0,1.134-0.923,2.057-2.058,2.057   c-1.134,0-2.057-0.922-2.057-2.057C80.635,47.962,81.558,47.039,82.691,47.039z"/><path
        d="M40.904,73.259c0,2.237,1.82,4.057,4.057,4.057c2.237,0,4.058-1.819,4.058-4.057s-1.82-4.057-4.058-4.057   C42.724,69.202,40.904,71.021,40.904,73.259z M47.019,73.259c0,1.134-0.923,2.057-2.058,2.057c-1.134,0-2.057-0.923-2.057-2.057   s0.922-2.057,2.057-2.057C46.096,71.202,47.019,72.125,47.019,73.259z"/></g>
</svg>