<svg xmlns="http://www.w3.org/2000/svg"
     version="1.1" x="0px" y="0px" viewBox="0 0 100 125"
     enable-background="new 0 0 100 100" xml:space="preserve">
  <path fill="gray" d="M15.999,58.135c0.769,0,1.394,0.627,1.394,1.396c0,0.767-0.625,1.391-1.394,1.391     c-0.765,0-1.388-0.624-1.388-1.391C14.61,58.762,15.233,58.135,15.999,58.135 M15.999,56.627c-1.6,0-2.896,1.297-2.896,2.903     c0,1.601,1.296,2.9,2.896,2.9c1.606,0,2.903-1.3,2.903-2.9C18.901,57.924,17.604,56.627,15.999,56.627L15.999,56.627z"/>
  <path fill="gray" d="M21.799,58.135c0.768,0,1.394,0.627,1.394,1.396c0,0.767-0.626,1.391-1.394,1.391     c-0.766,0-1.388-0.624-1.388-1.391C20.411,58.762,21.033,58.135,21.799,58.135 M21.799,56.627c-1.601,0-2.897,1.297-2.897,2.903     c0,1.601,1.296,2.9,2.897,2.9c1.606,0,2.902-1.3,2.902-2.9C24.701,57.924,23.405,56.627,21.799,56.627L21.799,56.627z"/>
  <path fill="gray" d="M5.067,37.567h66.234v14.244c0,0.709-0.574,1.283-1.283,1.283H6.35c-0.708,0-1.283-0.574-1.283-1.283     V37.567z"/>
  <path fill="gray" d="M71.302,54.166H5v1.722h5.637v2.052h1.871c0.083-0.78,0.408-1.472,0.866-2.052h37.805l2.97,2.619     c0.291,0.257,0.668,0.399,1.059,0.399c0.625,0,1.191-0.367,1.447-0.938l0.932-2.08h13.716V54.166z"/>
  <path fill="gray" d="M82.737,59.217c0,0.547-0.443,0.99-0.99,0.99H71.439c-0.547,0-0.99-0.443-0.99-0.99v-1.555h12.288V59.217     z"/>
  <path fill="gray" d="M66.407,58.135c0.768,0,1.392,0.627,1.392,1.396c0,0.767-0.624,1.391-1.392,1.391     c-0.766,0-1.389-0.624-1.389-1.391C65.019,58.762,65.642,58.135,66.407,58.135 M66.407,56.627c-1.601,0-2.898,1.297-2.898,2.903     c0,1.601,1.298,2.9,2.898,2.9c1.604,0,2.901-1.3,2.901-2.9C69.309,57.924,68.011,56.627,66.407,56.627L66.407,56.627z"/>
  <path fill="gray" d="M60.719,58.135c0.768,0,1.394,0.627,1.394,1.396c0,0.767-0.626,1.391-1.394,1.391     c-0.766,0-1.389-0.624-1.389-1.391C59.33,58.762,59.953,58.135,60.719,58.135 M60.719,56.627c-1.601,0-2.896,1.297-2.896,2.903     c0,1.601,1.296,2.9,2.896,2.9c1.606,0,2.902-1.3,2.902-2.9C63.621,57.924,62.325,56.627,60.719,56.627L60.719,56.627z"/>
  <path fill="gray" d="M88.573,58.139c0.768,0,1.392,0.625,1.392,1.394s-0.624,1.392-1.392,1.392     c-0.765,0-1.389-0.623-1.389-1.392S87.809,58.139,88.573,58.139 M88.573,56.631c-1.601,0-2.898,1.297-2.898,2.901     c0,1.601,1.298,2.9,2.898,2.9c1.604,0,2.901-1.3,2.901-2.9C91.475,57.928,90.178,56.631,88.573,56.631L88.573,56.631z"/>
  <path fill="gray" d="M94.998,56.626c0-0.645-1.043-5.202-1.043-5.202c-0.117-0.682-7.026-1.802-7.026-1.802l-1.438-4.149     h0.956l-0.115-0.32c-0.164-0.445-0.532-0.786-0.99-0.909c-0.179-0.049-0.324-0.089-0.324-0.093c0,0-0.246-0.65-0.53-1.275     c-0.105-0.231-0.271-0.425-0.482-0.566c-2.55-1.709-7.56-2.373-8.052-2.348H75.27c-0.219,0-0.398,0.163-0.425,0.379l-0.137,1.099     c-0.163,1.353-0.247,1.433-0.247,2.794v12.405h9.564v2.894h0.68h0.226h0.227c0-2.29,1.422-3.89,3.459-3.89     c2.039,0,3.463,1.6,3.463,3.89v0.245h0.197h0.255h0.712c0.972,0,1.757-0.943,1.757-1.757S94.998,57.27,94.998,56.626z      M79.074,53.006c0,0.104-0.086,0.188-0.188,0.188c-0.105,0-0.19-0.085-0.19-0.188v-4.626c0-0.103,0.085-0.189,0.19-0.189     c0.102,0,0.188,0.086,0.188,0.189V53.006z M80.706,48.765c-0.286-0.041-0.5-0.278-0.517-0.566l-0.143-2.707h4.383l1.356,4.012     L80.706,48.765z M93.927,56.626h-0.679c-0.386,0-0.764-0.121-1.078-0.345l-0.882-0.629h2.077c0.309,0,0.562,0.252,0.562,0.562     V56.626z"/>
</svg>
